<svg width="40" height="40" viewBox="0 0 40 40" fill="none" xmlns="http://www.w3.org/2000/svg">
<path d="M9.41205 1.17676C8.82382 1.17676 8.23558 1.64735 8.23558 2.35323V3.5297H4.70617C2.82382 3.5297 1.17676 5.05911 1.17676 7.05911V11.765V35.2944C1.17676 37.2944 2.70617 38.8238 4.70617 38.8238H35.2944C37.2944 38.8238 38.8238 37.2944 38.8238 35.2944V11.765V7.05911C38.8238 5.05911 37.2944 3.5297 35.2944 3.5297H31.765V2.35323C31.765 1.64735 31.2944 1.17676 30.5885 1.17676C29.8826 1.17676 29.4121 1.64735 29.4121 2.35323V3.5297H10.5885V2.35323C10.5885 1.64735 10.1179 1.17676 9.41205 1.17676ZM36.4709 35.2944C36.4709 36.0003 36.0003 36.4709 35.2944 36.4709H4.70617C4.00029 36.4709 3.5297 36.0003 3.5297 35.2944V12.9415H36.4709V35.2944ZM29.4121 5.88264V7.05911C29.4121 7.76499 29.8826 8.23558 30.5885 8.23558C31.2944 8.23558 31.765 7.76499 31.765 7.05911V5.88264H35.2944C36.0003 5.88264 36.4709 6.35323 36.4709 7.05911V10.5885H3.5297V7.05911C3.5297 6.35323 4.00029 5.88264 4.70617 5.88264H8.23558V7.05911C8.23558 7.76499 8.70617 8.23558 9.41205 8.23558C10.1179 8.23558 10.5885 7.76499 10.5885 7.05911V5.88264H29.4121Z" fill="#94A3B8"/>
<path d="M8.35323 22.9416H13.0591C13.765 22.9416 14.2356 22.471 14.2356 21.7652V17.0593C14.2356 16.3534 13.765 15.8828 13.0591 15.8828H8.35323C7.64735 15.8828 7.17676 16.3534 7.17676 17.0593V21.7652C7.17676 22.471 7.64735 22.9416 8.35323 22.9416ZM9.5297 18.2358H11.8826V20.5887H9.5297V18.2358Z" fill="#94A3B8"/>
<path d="M17.7653 22.9416H22.4712C23.1771 22.9416 23.6477 22.471 23.6477 21.7652V17.0593C23.6477 16.3534 23.1771 15.8828 22.4712 15.8828H17.7653C17.0595 15.8828 16.5889 16.3534 16.5889 17.0593V21.7652C16.5889 22.471 17.0595 22.9416 17.7653 22.9416ZM18.9418 18.2358H21.2947V20.5887H18.9418V18.2358Z" fill="#94A3B8"/>
<path d="M27.1765 22.9416H31.8824C32.5882 22.9416 33.0588 22.471 33.0588 21.7652V17.0593C33.0588 16.3534 32.5882 15.8828 31.8824 15.8828H27.1765C26.4706 15.8828 26 16.3534 26 17.0593V21.7652C26 22.471 26.4706 22.9416 27.1765 22.9416ZM28.3529 18.2358H30.7059V20.5887H28.3529V18.2358Z" fill="#94A3B8"/>
<path d="M8.35323 33.5295H13.0591C13.765 33.5295 14.2356 33.0589 14.2356 32.3531V27.6472C14.2356 26.9413 13.765 26.4707 13.0591 26.4707H8.35323C7.64735 26.4707 7.17676 26.9413 7.17676 27.6472V32.3531C7.17676 33.0589 7.64735 33.5295 8.35323 33.5295ZM9.5297 28.8236H11.8826V31.1766H9.5297V28.8236Z" fill="#94A3B8"/>
<path d="M17.7653 33.5295H22.4712C23.1771 33.5295 23.6477 33.0589 23.6477 32.3531V27.6472C23.6477 26.9413 23.1771 26.4707 22.4712 26.4707H17.7653C17.0595 26.4707 16.5889 26.9413 16.5889 27.6472V32.3531C16.5889 33.0589 17.0595 33.5295 17.7653 33.5295ZM18.9418 28.8236H21.2947V31.1766H18.9418V28.8236Z" fill="#94A3B8"/>
<path d="M27.1765 33.5295H31.8824C32.5882 33.5295 33.0588 33.0589 33.0588 32.3531V27.6472C33.0588 26.9413 32.5882 26.4707 31.8824 26.4707H27.1765C26.4706 26.4707 26 26.9413 26 27.6472V32.3531C26 33.0589 26.4706 33.5295 27.1765 33.5295ZM28.3529 28.8236H30.7059V31.1766H28.3529V28.8236Z" fill="#94A3B8"/>
</svg>
