<svg width="40" height="40" viewBox="0 0 40 40" fill="none" xmlns="http://www.w3.org/2000/svg">
<path d="M37.0303 5.6364H32.7273V3.15155C32.7273 2.00003 31.8182 1.09094 30.6667 1.09094C29.5152 1.09094 28.6061 2.00003 28.6061 3.15155V5.6364H11.394V3.15155C11.394 2.00003 10.4849 1.09094 9.33335 1.09094C8.18184 1.09094 7.27275 2.06064 7.27275 3.15155V5.6364H2.96972C1.63638 5.6364 0.606079 6.72731 0.606079 8.00003V36.5455C0.606079 37.8182 1.63638 38.9091 2.96972 38.9091H37.0303C38.303 38.9091 39.394 37.8788 39.394 36.5455V8.00003C39.394 6.72731 38.3637 5.6364 37.0303 5.6364ZM30.6667 2.30306C31.1515 2.30306 31.5758 2.72731 31.5758 3.21215V8.00003C31.5758 8.48488 31.1515 8.90912 30.6667 8.90912C30.1818 8.90912 29.7576 8.48488 29.7576 8.00003C29.7576 7.87882 29.7576 3.15155 29.7576 3.21215C29.7576 2.6667 30.1818 2.30306 30.6667 2.30306ZM9.33335 2.30306C9.8182 2.30306 10.2424 2.72731 10.2424 3.21215V8.00003C10.2424 8.48488 9.8182 8.90912 9.33335 8.90912C8.8485 8.90912 8.42426 8.48488 8.42426 8.00003C8.42426 7.87882 8.42426 3.15155 8.42426 3.21215C8.48487 2.6667 8.8485 2.30306 9.33335 2.30306ZM2.96972 6.84852H7.27275V8.00003C7.27275 9.15155 8.18184 10.0606 9.33335 10.0606C10.4849 10.0606 11.394 9.15155 11.394 8.00003V6.84852H28.6061V8.00003C28.6061 9.15155 29.5152 10.0606 30.6667 10.0606C31.8182 10.0606 32.7273 9.09094 32.7273 7.93943V6.78791H37.0909C37.7576 6.78791 38.2424 7.33337 38.2424 7.93943V11.3334H1.75759V7.93943C1.75759 7.33337 2.30305 6.84852 2.96972 6.84852ZM37.0303 37.697H2.96972C2.30305 37.697 1.8182 37.1515 1.8182 36.5455V12.5455H38.2424V36.5455C38.2424 37.2122 37.697 37.697 37.0303 37.697Z" fill="#8C929A"/>
<path d="M26.6667 22.1819H21.9394C21.6364 22.1819 21.3334 22.4243 21.3334 22.7879V27.5152C21.3334 27.8183 21.5758 28.1213 21.9394 28.1213H26.6667C26.9697 28.1213 27.2728 27.8789 27.2728 27.5152V22.7879C27.2728 22.4849 26.9697 22.1819 26.6667 22.1819ZM26.0606 26.9092H22.5455V23.394H26.0606V26.9092Z" fill="#8C929A"/>
<path d="M26.6667 14.9092H21.9394C21.6364 14.9092 21.3334 15.1516 21.3334 15.5152V20.2425C21.3334 20.5455 21.5758 20.8486 21.9394 20.8486H26.6667C26.9697 20.8486 27.2728 20.6062 27.2728 20.2425V15.5152C27.2728 15.1516 26.9697 14.9092 26.6667 14.9092ZM26.0606 19.5758H22.5455V16.0607H26.0606V19.5758Z" fill="#8C929A"/>
<path d="M35.2728 22.1819H30.5455C30.2425 22.1819 29.9395 22.4243 29.9395 22.7879V27.5152C29.9395 27.8183 30.1819 28.1213 30.5455 28.1213H35.2728C35.5758 28.1213 35.8788 27.8789 35.8788 27.5152V22.7879C35.8788 22.4849 35.5758 22.1819 35.2728 22.1819ZM34.6667 26.9092H31.1516V23.394H34.6667V26.9092Z" fill="#8C929A"/>
<path d="M26.1818 30.4242L23.5151 33.0909L22.4242 31.9394C22.1818 31.6969 21.8182 31.6969 21.5757 31.9394C21.3333 32.1818 21.3333 32.5454 21.5757 32.7879L23.0909 34.303C23.2121 34.4242 23.3333 34.4848 23.5151 34.4848C23.6363 34.4848 23.8182 34.4242 23.9394 34.303L27.0303 31.2121C27.2727 30.9697 27.2727 30.606 27.0303 30.3636C26.7879 30.1818 26.4242 30.1818 26.1818 30.4242Z" fill="#8C929A"/>
<path d="M35.2728 14.9092H30.5455C30.2425 14.9092 29.9395 15.1516 29.9395 15.5152V20.2425C29.9395 20.5455 30.1819 20.8486 30.5455 20.8486H35.2728C35.5758 20.8486 35.8788 20.6062 35.8788 20.2425V15.5152C35.8788 15.1516 35.5758 14.9092 35.2728 14.9092ZM34.6667 19.5758H31.1516V16.0607H34.6667V19.5758Z" fill="#8C929A"/>
<path d="M18.0606 22.1819H13.3334C13.0303 22.1819 12.7273 22.4243 12.7273 22.7879V27.5152C12.7273 27.8183 12.9697 28.1213 13.3334 28.1213H18.0606C18.3637 28.1213 18.6667 27.8789 18.6667 27.5152V22.7879C18.6061 22.4849 18.3637 22.1819 18.0606 22.1819ZM17.4546 26.9092H13.9394V23.394H17.4546V26.9092Z" fill="#8C929A"/>
<path d="M18.0606 29.5151H13.3334C13.0303 29.5151 12.7273 29.7576 12.7273 30.1212V34.8485C12.7273 35.1515 12.9697 35.4545 13.3334 35.4545H18.0606C18.3637 35.4545 18.6667 35.2121 18.6667 34.8485V30.1212C18.6061 29.7576 18.3637 29.5151 18.0606 29.5151ZM17.4546 34.1818H13.9394V30.6667H17.4546V34.1818Z" fill="#8C929A"/>
<path d="M18.0606 14.9092H13.3334C13.0303 14.9092 12.7273 15.1516 12.7273 15.5152V20.2425C12.7273 20.5455 12.9697 20.8486 13.3334 20.8486H18.0606C18.3637 20.8486 18.6667 20.6062 18.6667 20.2425V15.5152C18.6061 15.1516 18.3637 14.9092 18.0606 14.9092ZM17.4546 19.5758H13.9394V16.0607H17.4546V19.5758Z" fill="#8C929A"/>
<path d="M9.39394 22.1819H4.72728C4.42425 22.1819 4.12122 22.4243 4.12122 22.7879V27.5152C4.12122 27.8183 4.36364 28.1213 4.72728 28.1213H9.45455C9.75758 28.1213 10.0606 27.8789 10.0606 27.5152V22.7879C10 22.4849 9.75758 22.1819 9.39394 22.1819ZM8.84849 26.9092H5.33334V23.394H8.84849V26.9092Z" fill="#8C929A"/>
<path d="M9.39394 29.5151H4.72728C4.42425 29.5151 4.12122 29.7576 4.12122 30.1212V34.8485C4.12122 35.1515 4.36364 35.4545 4.72728 35.4545H9.45455C9.75758 35.4545 10.0606 35.2121 10.0606 34.8485V30.1212C10 29.7576 9.75758 29.5151 9.39394 29.5151ZM8.84849 34.1818H5.33334V30.6667H8.84849V34.1818Z" fill="#8C929A"/>
<path d="M9.39394 14.9092H4.72728C4.42425 14.9092 4.12122 15.1516 4.12122 15.5152V20.2425C4.12122 20.5455 4.36364 20.8486 4.72728 20.8486H9.45455C9.75758 20.8486 10.0606 20.6062 10.0606 20.2425V15.5152C10 15.1516 9.75758 14.9092 9.39394 14.9092ZM8.84849 19.5758H5.33334V16.0607H8.84849V19.5758Z" fill="#8C929A"/>
</svg>
