<svg width="40" height="40" viewBox="0 0 40 40" fill="none" xmlns="http://www.w3.org/2000/svg">
<path d="M34.1716 19.7652H34.1558C34.1665 17.8964 34.1712 15.9743 34.1479 15.6955C34.0928 15.0332 33.6919 14.4922 33.1269 14.3171C32.5647 14.1431 31.9694 14.3574 31.5348 14.8905C31.0854 15.4418 29.0299 19.1474 28.4105 20.2699C28.2436 20.5724 28.249 20.9406 28.4247 21.2381C28.6004 21.5356 28.9201 21.7182 29.2657 21.7182H32.1894C32.1858 22.1853 32.1822 22.6328 32.1787 23.039C32.1741 23.5783 32.6076 24.0193 33.1469 24.0239H33.1554C33.6908 24.0239 34.1272 23.5922 34.1319 23.0558C34.1346 22.7343 34.1385 22.2658 34.1426 21.7181H34.1717C34.711 21.7181 35.1483 21.281 35.1483 20.7416C35.1483 20.2022 34.711 19.7652 34.1716 19.7652ZM32.2021 19.7652H30.9257C31.3905 18.935 31.8421 18.1393 32.2113 17.5019C32.2102 18.1569 32.2068 18.9471 32.2021 19.7652Z" fill="#94A3B8"/>
<path d="M10.3867 22.0527C10.3825 22.0527 10.3784 22.0527 10.3742 22.0527C9.68136 22.0614 8.94933 22.0674 8.31565 22.0695C8.73019 21.512 9.28425 20.7508 10.0092 19.7149C10.6216 18.8039 10.9792 18.1108 11.0382 17.1951C11.0382 15.5755 9.72058 14.2578 8.10097 14.2578C6.70058 14.2578 5.48847 15.2541 5.2187 16.6268C5.11472 17.156 5.45948 17.6693 5.9887 17.7733C6.518 17.8773 7.0312 17.5325 7.13518 17.0033C7.22534 16.5441 7.63159 16.2109 8.10089 16.2109C8.6262 16.2109 9.05667 16.6247 9.08362 17.1435C9.02495 17.6294 8.78347 18.0336 8.40894 18.5951C7.19628 20.3278 6.47292 21.2749 6.08425 21.7838C5.59644 22.4224 5.35159 22.743 5.51604 23.2777C5.61339 23.5942 5.85276 23.837 6.17261 23.9436C6.30128 23.9866 6.41714 24.0252 7.92784 24.0252C8.51401 24.0252 9.31034 24.0194 10.3986 24.0057C10.9379 23.9989 11.3696 23.5563 11.3628 23.017C11.3563 22.4818 10.9203 22.0527 10.3867 22.0527Z" fill="#94A3B8"/>
<path d="M24.2969 10.1562H15.7031C15.0559 10.1562 14.5312 10.6809 14.5312 11.3281C14.5312 11.9753 15.0559 12.5 15.7031 12.5H24.2969C24.9441 12.5 25.4688 11.9753 25.4688 11.3281C25.4688 10.6809 24.9441 10.1562 24.2969 10.1562Z" fill="#94A3B8"/>
<path d="M34.0625 10.1562H29.375C28.7278 10.1562 28.2031 10.6809 28.2031 11.3281C28.2031 11.9753 28.7278 12.5 29.375 12.5H34.0625C34.7097 12.5 35.2344 11.9753 35.2344 11.3281C35.2344 10.6809 34.7097 10.1562 34.0625 10.1562Z" fill="#94A3B8"/>
<path d="M10.625 10.1562H5.9375C5.29031 10.1562 4.76562 10.6809 4.76562 11.3281C4.76562 11.9753 5.29031 12.5 5.9375 12.5H10.625C11.2722 12.5 11.7969 11.9753 11.7969 11.3281C11.7969 10.6809 11.2722 10.1562 10.625 10.1562Z" fill="#94A3B8"/>
<path d="M20 17.9688C20.6472 17.9688 21.1719 17.4441 21.1719 16.7969C21.1719 16.1497 20.6472 15.625 20 15.625C19.3528 15.625 18.8281 16.1497 18.8281 16.7969C18.8281 17.4441 19.3528 17.9688 20 17.9688Z" fill="#94A3B8"/>
<path d="M20 22.6562C20.6472 22.6562 21.1719 22.1316 21.1719 21.4844C21.1719 20.8372 20.6472 20.3125 20 20.3125C19.3528 20.3125 18.8281 20.8372 18.8281 21.4844C18.8281 22.1316 19.3528 22.6562 20 22.6562Z" fill="#94A3B8"/>
<path d="M36.4844 5.46875H3.51562C1.57711 5.46875 0 7.04586 0 8.98438V24.6094C0 26.5479 1.57711 28.125 3.51562 28.125H14.1406V32.1875H8.67188C8.02469 32.1875 7.5 32.7122 7.5 33.3594C7.5 34.0066 8.02469 34.5312 8.67188 34.5312H31.3281C31.9753 34.5312 32.5 34.0066 32.5 33.3594C32.5 32.7122 31.9753 32.1875 31.3281 32.1875H25.8594V28.125H36.4844C38.4229 28.125 40 26.5479 40 24.6094V8.98438C40 7.04586 38.4229 5.46875 36.4844 5.46875ZM23.5156 32.1875H16.4844V28.125H23.5156V32.1875ZM37.6562 24.6094C37.6562 25.2555 37.1305 25.7812 36.4844 25.7812H3.51562C2.86945 25.7812 2.34375 25.2555 2.34375 24.6094V8.98438C2.34375 8.3382 2.86945 7.8125 3.51562 7.8125H36.4844C37.1305 7.8125 37.6562 8.3382 37.6562 8.98438V24.6094Z" fill="#94A3B8"/>
</svg>
