<svg width="40" height="40" viewBox="0 0 40 40" fill="none" xmlns="http://www.w3.org/2000/svg">
<path fill-rule="evenodd" clip-rule="evenodd" d="M29.244 30.2761C29.1717 30.2746 29.1004 30.2589 29.0341 30.2299C28.9679 30.2009 28.908 30.1591 28.8579 30.1069C28.8079 30.0547 28.7686 29.9931 28.7423 29.9257C28.7161 29.8583 28.7034 29.7864 28.705 29.7141V20.6221L27.042 21.7471C26.9829 21.7912 26.9153 21.8226 26.8435 21.8395C26.7717 21.8564 26.6972 21.8583 26.6246 21.8452C26.552 21.8321 26.4829 21.8042 26.4215 21.7632C26.3602 21.7222 26.3079 21.6691 26.268 21.6071C26.1854 21.4854 26.1539 21.3362 26.18 21.1915C26.2062 21.0468 26.288 20.9181 26.408 20.8331L28.94 19.0991C29.0224 19.0438 29.1185 19.0123 29.2176 19.0081C29.3168 19.0039 29.4152 19.027 29.502 19.0751C29.5938 19.1203 29.671 19.1904 29.7249 19.2774C29.7788 19.3644 29.8073 19.4647 29.807 19.5671V29.7141C29.8049 29.8626 29.7449 30.0045 29.6397 30.1095C29.5346 30.2145 29.3926 30.2742 29.244 30.2761ZM33.532 12.7961H30.932C30.8578 12.7971 30.7841 12.7833 30.7153 12.7554C30.6465 12.7275 30.584 12.6861 30.5315 12.6336C30.479 12.5811 30.4376 12.5186 30.4097 12.4498C30.3817 12.381 30.3679 12.3073 30.369 12.2331V7.57006C30.3708 7.42131 30.4307 7.27916 30.5359 7.17397C30.6411 7.06877 30.7832 7.00888 30.932 7.00706H33.532C33.6808 7.00888 33.8229 7.06877 33.9281 7.17397C34.0333 7.27916 34.0932 7.42131 34.095 7.57006C34.0929 7.71864 34.0329 7.86053 33.9277 7.96551C33.8226 8.07049 33.6806 8.13025 33.532 8.13206H31.47V9.35106H33.533C33.6814 9.35313 33.8232 9.413 33.9281 9.51795C34.0331 9.6229 34.0929 9.76465 34.095 9.91306C34.0936 9.98546 34.0779 10.0569 34.0488 10.1232C34.0197 10.1895 33.9778 10.2494 33.9255 10.2995C33.8731 10.3496 33.8115 10.3888 33.7439 10.415C33.6764 10.4412 33.6044 10.4538 33.532 10.4521H31.47V11.6941H33.533C33.679 11.6941 33.819 11.7521 33.9223 11.8553C34.0255 11.9585 34.0835 12.0986 34.0835 12.2446C34.0835 12.3906 34.0255 12.5306 33.9223 12.6338C33.819 12.7371 33.679 12.7951 33.533 12.7951L33.532 12.7961ZM7.616 12.7961C7.16312 12.7934 6.72955 12.6123 6.4094 12.292C6.08925 11.9716 5.90836 11.5379 5.906 11.0851C5.906 10.9392 5.96395 10.7993 6.06709 10.6962C6.17024 10.593 6.31013 10.5351 6.456 10.5351C6.60187 10.5351 6.74176 10.593 6.84491 10.6962C6.94805 10.7993 7.006 10.9392 7.006 11.0851C7.006 11.4131 7.288 11.6941 7.616 11.6941C7.7768 11.6912 7.93022 11.626 8.04385 11.5122C8.15748 11.3984 8.22243 11.2449 8.225 11.0841C8.22217 10.9233 8.15696 10.7698 8.04314 10.6562C7.92933 10.5426 7.77581 10.4776 7.615 10.4751C7.16229 10.4724 6.72887 10.2914 6.40875 9.97131C6.08863 9.65119 5.90762 9.21777 5.905 8.76506C5.905 7.80506 6.678 7.05506 7.615 7.05506C8.553 7.05506 9.326 7.80506 9.326 8.76506C9.326 9.06906 9.092 9.30406 8.764 9.30406C8.6928 9.30528 8.62208 9.29214 8.55606 9.26542C8.49005 9.23871 8.4301 9.19896 8.37979 9.14856C8.32948 9.09815 8.28985 9.03813 8.26325 8.97207C8.23666 8.90601 8.22365 8.83526 8.225 8.76406C8.22191 8.60343 8.15659 8.45027 8.0428 8.33686C7.92901 8.22344 7.77564 8.15862 7.615 8.15606C7.45437 8.15889 7.3011 8.22395 7.1875 8.33756C7.0739 8.45116 7.00883 8.60443 7.006 8.76506C7.006 9.09306 7.288 9.37506 7.616 9.37506C8.553 9.37506 9.326 10.1241 9.326 11.0851C9.32338 11.5378 9.14237 11.9712 8.82225 12.2913C8.50213 12.6114 8.06871 12.7934 7.616 12.7961ZM25.073 12.7961C24.9989 12.797 24.9253 12.7831 24.8566 12.7551C24.7879 12.7271 24.7255 12.6857 24.6731 12.6332C24.6208 12.5807 24.5794 12.5183 24.5516 12.4495C24.5237 12.3808 24.5099 12.3072 24.511 12.2331V7.59306C24.5131 7.44465 24.5729 7.3029 24.6779 7.19795C24.7828 7.093 24.9246 7.03313 25.073 7.03106H26.503C26.9875 7.03185 27.4519 7.22473 27.7944 7.56741C28.1368 7.91008 28.3295 8.37458 28.33 8.85906C28.33 9.58506 27.885 10.2181 27.253 10.4991L27.885 12.0221C27.9132 12.0896 27.9277 12.1621 27.9276 12.2354C27.9276 12.3086 27.913 12.3811 27.8847 12.4486C27.8564 12.5161 27.815 12.5774 27.7629 12.6288C27.7108 12.6802 27.6489 12.7207 27.581 12.7481C27.511 12.7951 27.44 12.7951 27.37 12.7951C27.2596 12.7912 27.1526 12.7562 27.0613 12.6941C26.97 12.632 26.8981 12.5453 26.854 12.4441L26.128 10.6631H25.612V12.2331C25.612 12.5611 25.378 12.7961 25.073 12.7961ZM25.613 9.56206H26.526C26.7074 9.55296 26.8785 9.47528 27.0047 9.34476C27.131 9.21424 27.2029 9.04062 27.206 8.85906C27.2078 8.76626 27.1908 8.67405 27.1561 8.58796C27.1214 8.50187 27.0697 8.42367 27.004 8.35803C26.9384 8.2924 26.8602 8.24068 26.7741 8.20598C26.688 8.17127 26.5958 8.15429 26.503 8.15606H25.613V9.56206ZM20.082 12.7951C18.77 12.7951 17.692 11.7171 17.692 10.4291V9.42006C17.6946 8.787 17.9473 8.18063 18.3949 7.73298C18.8426 7.28534 19.4489 7.03269 20.082 7.03006C20.7151 7.03269 21.3214 7.28534 21.7691 7.73298C22.2167 8.18063 22.4694 8.787 22.472 9.42006V10.4281C22.472 11.7161 21.394 12.7951 20.082 12.7951ZM20.082 8.15506C19.9156 8.1544 19.7507 8.1867 19.5969 8.2501C19.4431 8.3135 19.3033 8.40674 19.1857 8.52445C19.0681 8.64215 18.9749 8.78199 18.9117 8.93588C18.8484 9.08977 18.8162 9.25467 18.817 9.42106V10.4291C18.817 11.1091 19.379 11.6941 20.082 11.6941C20.785 11.6941 21.347 11.1081 21.347 10.4291V9.42006C21.3477 9.25375 21.3154 9.08896 21.2521 8.93518C21.1887 8.78141 21.0956 8.64169 20.978 8.5241C20.8604 8.4065 20.7207 8.31334 20.5669 8.25001C20.4131 8.18667 20.2483 8.1544 20.082 8.15506ZM13.755 12.7951C13.1281 12.793 12.5274 12.543 12.084 12.0998C11.6405 11.6566 11.3904 11.056 11.388 10.4291V9.42006C11.388 8.10806 12.443 7.03006 13.755 7.03006C14.411 7.03006 15.044 7.31106 15.489 7.78006C15.7 8.01406 15.7 8.36506 15.466 8.57606C15.255 8.78706 14.903 8.76406 14.692 8.55306C14.5762 8.41842 14.4323 8.31085 14.2704 8.23793C14.1085 8.16501 13.9326 8.12853 13.755 8.13106C13.052 8.13106 12.49 8.71706 12.49 9.42006V10.4041C12.49 11.1071 13.052 11.6931 13.755 11.6931C14.107 11.6931 14.458 11.5531 14.692 11.2711C14.903 11.0611 15.255 11.0371 15.466 11.2481C15.7 11.4581 15.7 11.8101 15.489 12.0441C15.2653 12.2793 14.9964 12.467 14.6985 12.5959C14.4005 12.7248 14.0796 12.7932 13.755 12.7951ZM37.095 35.2911H2.904C2.13476 35.2869 1.39826 34.9793 0.854504 34.4351C0.31075 33.891 0.00367668 33.1543 0 32.3851L0 16.8961C0 15.3961 1.148 14.1541 2.601 14.0141V7.42906C2.601 5.92906 3.82 4.71106 5.343 4.71106H34.657C36.157 4.71106 37.399 5.92906 37.399 7.42906V14.0141C38.1122 14.0878 38.7728 14.4231 39.2531 14.9554C39.7335 15.4877 39.9996 16.1791 40 16.8961V32.3861C39.9961 33.1555 39.6886 33.8922 39.1444 34.4362C38.6003 34.9802 37.8644 35.2874 37.095 35.2911ZM2.905 15.0911C2.42767 15.0952 1.97109 15.2868 1.63365 15.6244C1.29621 15.962 1.10492 16.4187 1.101 16.8961V32.3861C1.101 33.3691 1.921 34.1901 2.906 34.1901H37.094C38.078 34.1901 38.875 33.3701 38.875 32.3851V16.8961C38.875 15.9121 38.078 15.0921 37.095 15.0921H2.904L2.905 15.0911ZM36.275 32.1271H3.724C3.57559 32.125 3.43384 32.0651 3.32889 31.9602C3.22394 31.8552 3.16407 31.7135 3.162 31.5651V17.7161C3.16407 17.5675 3.22409 17.4256 3.32925 17.3206C3.43442 17.2156 3.57642 17.1559 3.725 17.1541H36.273C36.4216 17.1559 36.5636 17.2156 36.6687 17.3206C36.7739 17.4256 36.8339 17.5675 36.836 17.7161V31.5661C36.812 31.8701 36.578 32.1271 36.273 32.1271H36.275ZM4.287 31.0031H19.45V18.2791H4.29V31.0031H4.287ZM20.55 31.0031H35.71V18.2791H20.55V31.0031ZM3.702 13.9901H36.274V7.43006C36.2735 7.00127 36.103 6.59019 35.7999 6.2869C35.4968 5.98361 35.0858 5.81285 34.657 5.81206H5.343C4.453 5.81206 3.703 6.53906 3.703 7.42906V13.9901H3.702ZM11.857 30.2761C10.888 30.2747 9.95914 29.8892 9.27399 29.2041C8.58883 28.5189 8.20332 27.59 8.202 26.6211V22.6611C8.20306 21.6919 8.58845 20.7628 9.27363 20.0774C9.95882 19.392 10.8879 19.0064 11.857 19.0051C12.8263 19.0061 13.7556 19.3916 14.441 20.077C15.1264 20.7624 15.5119 21.6918 15.513 22.6611V26.6211C15.5117 27.5902 15.126 28.5192 14.4407 29.2044C13.7553 29.8896 12.8261 30.275 11.857 30.2761ZM11.857 20.1301C11.5244 20.1287 11.1948 20.1933 10.8872 20.32C10.5797 20.4466 10.3003 20.6329 10.0651 20.8681C9.82988 21.1033 9.64357 21.3828 9.51689 21.6903C9.39022 21.9979 9.32568 22.3274 9.327 22.6601V26.6201C9.327 28.0271 10.451 29.1751 11.857 29.1751C12.5339 29.1735 13.1826 28.9039 13.6612 28.4253C14.1398 27.9466 14.4094 27.2979 14.411 26.6211V22.6611C14.411 21.2551 13.263 20.1301 11.857 20.1301Z" fill="#8C929A"/>
</svg>
