<svg width="40" height="40" viewBox="0 0 40 40" fill="none" xmlns="http://www.w3.org/2000/svg">
<path d="M34.794 18.7841H5.20598C3.82573 18.7856 2.50245 19.3345 1.52646 20.3105C0.55048 21.2865 0.00150968 22.6098 0 23.99V32.0289C0.00150946 33.4092 0.550466 34.7325 1.52644 35.7086C2.50241 36.6846 3.82569 37.2337 5.20598 37.2353H34.794C36.1743 37.2337 37.4976 36.6846 38.4736 35.7086C39.4495 34.7325 39.9985 33.4092 40 32.0289V23.99C39.9985 22.6098 39.4495 21.2865 38.4735 20.3105C37.4975 19.3345 36.1743 18.7856 34.794 18.7841ZM38.4644 32.0289C38.4634 33.0021 38.0764 33.9351 37.3883 34.6233C36.7002 35.3115 35.7672 35.6986 34.794 35.6998H5.20598C4.23281 35.6986 3.29983 35.3115 2.61173 34.6233C1.92363 33.9351 1.5366 33.0021 1.53556 32.0289V23.99C1.53672 23.0169 1.9238 22.084 2.61188 21.3959C3.29997 20.7079 4.23288 20.3208 5.20598 20.3196H34.794C35.7671 20.3208 36.7 20.7079 37.3881 21.3959C38.0762 22.084 38.4633 23.0169 38.4644 23.99V32.0289Z" fill="#8C929A"/>
<path d="M16.1805 11.3044L15.5421 15.0288C15.518 15.1699 15.5338 15.315 15.5878 15.4477C15.6419 15.5803 15.7319 15.6952 15.8478 15.7794C15.9636 15.8635 16.1007 15.9136 16.2436 15.9239C16.3864 15.9342 16.5293 15.9044 16.6561 15.8378L19.9988 14.0802L23.3432 15.8356C23.4698 15.9015 23.6122 15.9309 23.7545 15.9204C23.8968 15.9099 24.0334 15.86 24.1489 15.7762C24.2644 15.6924 24.3542 15.5781 24.4084 15.4461C24.4625 15.314 24.4788 15.1695 24.4554 15.0288L23.817 11.3044L26.5214 8.66717C26.6238 8.5671 26.6962 8.44039 26.7305 8.30134C26.7647 8.1623 26.7594 8.01645 26.7151 7.88026C26.6709 7.74407 26.5894 7.62296 26.48 7.5306C26.3706 7.43824 26.2375 7.3783 26.0958 7.35756L22.3587 6.81441L20.6871 3.42828C20.6238 3.29975 20.5258 3.1915 20.4041 3.11581C20.2825 3.04012 20.142 3 19.9988 3C19.8555 3 19.7151 3.04012 19.5934 3.11581C19.4717 3.1915 19.3737 3.29975 19.3104 3.42828L17.6397 6.81529L13.9022 7.35844C13.7605 7.37908 13.6275 7.43891 13.518 7.53117C13.4086 7.62342 13.3271 7.74443 13.2828 7.88054C13.2385 8.01665 13.2331 8.16243 13.2673 8.30143C13.3015 8.44042 13.3738 8.56711 13.4761 8.66717L16.1805 11.3044ZM18.2592 8.27714C18.3824 8.2592 18.4993 8.21157 18.6 8.13834C18.7007 8.06512 18.782 7.96851 18.837 7.85684L19.9988 5.50392L21.1601 7.85684C21.2152 7.96852 21.2966 8.06513 21.3973 8.13835C21.4981 8.21156 21.6151 8.2592 21.7383 8.27714L24.3356 8.65445L22.4561 10.4866C22.3671 10.5736 22.3007 10.6809 22.2625 10.7993C22.2243 10.9177 22.2154 11.0436 22.2367 11.1662L22.6798 13.7547L20.3546 12.5337C20.2445 12.4755 20.1218 12.4451 19.9972 12.4451C19.8727 12.4451 19.75 12.4755 19.6399 12.5337L17.3172 13.7547L17.7608 11.1662C17.7821 11.0436 17.7732 10.9177 17.735 10.7993C17.6968 10.6809 17.6303 10.5736 17.5414 10.4866L15.6619 8.65445L18.2592 8.27714Z" fill="#8C929A"/>
<path d="M30.5866 11.8552L30.1917 14.1489C30.1676 14.2901 30.1834 14.4352 30.2374 14.5678C30.2914 14.7004 30.3815 14.8153 30.4973 14.8995C30.6132 14.9836 30.7503 15.0337 30.8931 15.044C31.036 15.0544 31.1789 15.0245 31.3056 14.9579L33.3655 13.8751L35.4275 14.9579C35.5543 15.0245 35.6972 15.0544 35.84 15.044C35.9829 15.0337 36.12 14.9836 36.2358 14.8995C36.3517 14.8153 36.4417 14.7004 36.4957 14.5678C36.5498 14.4352 36.5656 14.2901 36.5415 14.1489L36.1466 11.8552L37.8138 10.2319C37.9164 10.1319 37.9889 10.0052 38.0233 9.86619C38.0577 9.72712 38.0524 9.58122 38.0082 9.44498C37.964 9.30874 37.8825 9.18758 37.773 9.09521C37.6635 9.00284 37.5304 8.94294 37.3887 8.92229L35.0858 8.58754L34.0556 6.50093C33.9922 6.37241 33.8941 6.2642 33.7725 6.18853C33.6508 6.11286 33.5103 6.07275 33.367 6.07275C33.2237 6.07275 33.0833 6.11286 32.9616 6.18853C32.8399 6.2642 32.7418 6.37241 32.6784 6.50093L31.6492 8.58754L29.3463 8.92229C29.2045 8.94278 29.0713 9.00256 28.9617 9.09486C28.8521 9.18715 28.7706 9.30827 28.7263 9.44451C28.682 9.58075 28.6768 9.72667 28.7111 9.86575C28.7455 10.0048 28.8181 10.1315 28.9207 10.2315L30.5866 11.8552ZM32.2691 10.0481C32.3922 10.0301 32.5091 9.98246 32.6097 9.90933C32.7104 9.83619 32.7918 9.73972 32.8469 9.6282L33.3668 8.57525L33.8867 9.6282C33.9419 9.73978 34.0233 9.83628 34.1241 9.90942C34.2248 9.98256 34.3418 10.0301 34.4649 10.0481L35.6276 10.217L34.7861 11.0361C34.6972 11.1232 34.6308 11.2306 34.5926 11.3491C34.5544 11.4675 34.5455 11.5935 34.5667 11.7161L34.7655 12.8739L33.7252 12.3273C33.615 12.2694 33.4924 12.2391 33.3679 12.2391C33.2434 12.2391 33.1208 12.2694 33.0106 12.3273L31.9708 12.8739L32.1691 11.7161C32.1903 11.5936 32.1815 11.4676 32.1433 11.3493C32.105 11.2309 32.0386 11.1235 31.9497 11.0365L31.1087 10.2165L32.2691 10.0481Z" fill="#8C929A"/>
<path d="M3.85025 11.8555L3.45539 14.1491C3.43127 14.2903 3.4471 14.4354 3.50111 14.568C3.55511 14.7007 3.64514 14.8156 3.76102 14.8997C3.8769 14.9839 4.014 15.034 4.15684 15.0443C4.29968 15.0546 4.44256 15.0248 4.56933 14.9582L6.62874 13.8754L8.69077 14.9582C8.81736 15.0245 8.95993 15.0541 9.10246 15.0438C9.24498 15.0335 9.3818 14.9836 9.49751 14.8998C9.61323 14.8159 9.70325 14.7014 9.75744 14.5692C9.81163 14.437 9.82785 14.2923 9.80427 14.1513L9.40942 11.8576L11.0766 10.2343C11.179 10.1343 11.2514 10.0076 11.2857 9.86851C11.3199 9.72946 11.3146 9.58361 11.2704 9.44742C11.2261 9.31123 11.1447 9.19013 11.0352 9.09777C10.9258 9.00541 10.7927 8.94547 10.651 8.92473L8.34769 8.58998L7.31842 6.50337C7.25504 6.37485 7.15695 6.26664 7.03526 6.19097C6.91357 6.1153 6.77313 6.0752 6.62983 6.0752C6.48653 6.0752 6.3461 6.1153 6.22441 6.19097C6.10271 6.26664 6.00463 6.37485 5.94125 6.50337L4.91198 8.5869L2.60908 8.92166C2.46739 8.9424 2.33432 9.00233 2.22489 9.09469C2.11545 9.18705 2.03401 9.30816 1.98976 9.44435C1.9455 9.58054 1.94019 9.72639 1.97443 9.86544C2.00866 10.0045 2.08108 10.1312 2.18351 10.2313L3.85025 11.8555ZM5.53059 10.0483C5.65377 10.0304 5.77075 9.9828 5.87148 9.90967C5.9722 9.83653 6.05366 9.74003 6.10884 9.62845L6.62874 8.5755L7.14863 9.62845C7.20378 9.73997 7.28517 9.83644 7.38581 9.90957C7.48645 9.98271 7.60334 10.0303 7.72644 10.0483L8.88952 10.2177L8.05023 11.0363C7.96124 11.1234 7.89478 11.2308 7.85656 11.3493C7.81834 11.4677 7.80952 11.5937 7.83086 11.7164L8.02917 12.8742L6.98937 12.3275C6.87916 12.2696 6.75653 12.2394 6.63203 12.2394C6.50753 12.2394 6.38489 12.2696 6.27468 12.3275L5.23489 12.8742L5.43319 11.7164C5.45431 11.5937 5.44538 11.4678 5.40717 11.3494C5.36897 11.2309 5.30263 11.1235 5.21383 11.0363L4.37234 10.2164L5.53059 10.0483Z" fill="#8C929A"/>
<path d="M19.0808 23.6281C18.9876 23.5893 18.8877 23.5694 18.7868 23.5693C18.6859 23.5693 18.586 23.5892 18.4928 23.6278C18.3996 23.6664 18.3149 23.7231 18.2437 23.7945C18.1724 23.8659 18.1159 23.9507 18.0774 24.044L15.7478 29.6712L13.4181 24.044C13.36 23.9036 13.2616 23.7837 13.1353 23.6993C13.0091 23.6149 12.8606 23.5698 12.7087 23.5698C12.5568 23.5698 12.4083 23.6149 12.282 23.6993C12.1557 23.7837 12.0573 23.9036 11.9993 24.044L9.66959 29.6712L7.33993 24.044C7.30136 23.9508 7.24481 23.8662 7.17352 23.7949C7.10223 23.7236 7.0176 23.667 6.92445 23.6284C6.83129 23.5898 6.73145 23.5699 6.63062 23.5699C6.52978 23.5699 6.42994 23.5897 6.33677 23.6283C6.24361 23.6669 6.15896 23.7234 6.08764 23.7947C6.01633 23.866 5.95976 23.9506 5.92116 24.0438C5.88256 24.1369 5.86269 24.2368 5.86267 24.3376C5.86266 24.4384 5.8825 24.5383 5.92108 24.6314L8.96017 31.9719C9.01825 32.1122 9.11666 32.2322 9.24294 32.3166C9.36922 32.401 9.5177 32.446 9.66959 32.446C9.82149 32.446 9.96997 32.401 10.0963 32.3166C10.2225 32.2322 10.3209 32.1122 10.379 31.9719L12.7087 26.3482L15.0379 31.9736C15.0961 32.1139 15.1945 32.2339 15.3209 32.3182C15.4472 32.4026 15.5957 32.4476 15.7476 32.4476C15.8995 32.4476 16.0479 32.4026 16.1743 32.3182C16.3006 32.2339 16.399 32.1139 16.4572 31.9736L19.4963 24.6332C19.5352 24.5399 19.5553 24.4399 19.5554 24.3389C19.5556 24.2378 19.5358 24.1378 19.4972 24.0444C19.4586 23.951 19.402 23.8662 19.3305 23.7947C19.2591 23.7233 19.1742 23.6666 19.0808 23.6281Z" fill="#8C929A"/>
<path d="M33.3669 23.5714C33.1633 23.5714 32.968 23.6523 32.824 23.7963C32.68 23.9403 32.5992 24.1356 32.5992 24.3392V29.6917L27.2633 23.8228C27.1591 23.7081 27.0226 23.6277 26.8718 23.592C26.7209 23.5564 26.5629 23.5672 26.4183 23.6231C26.2738 23.6789 26.1495 23.7773 26.0619 23.9051C25.9743 24.0329 25.9274 24.1842 25.9274 24.3392V31.68C25.9274 31.8837 26.0083 32.079 26.1522 32.2229C26.2962 32.3669 26.4915 32.4478 26.6951 32.4478C26.8988 32.4478 27.0941 32.3669 27.238 32.2229C27.382 32.079 27.4629 31.8837 27.4629 31.68V26.3275L32.7988 32.1964C32.9029 32.3116 33.0395 32.3925 33.1906 32.4284C33.3416 32.4643 33.5 32.4536 33.6448 32.3977C33.7897 32.3418 33.9141 32.2432 34.0018 32.1151C34.0895 31.987 34.1363 31.8353 34.136 31.68V24.3392C34.136 24.2383 34.116 24.1383 34.0773 24.0451C34.0387 23.9519 33.982 23.8673 33.9106 23.796C33.8391 23.7247 33.7544 23.6681 33.6611 23.6296C33.5678 23.5911 33.4679 23.5713 33.3669 23.5714Z" fill="#8C929A"/>
<path d="M22.4306 23.5714C22.227 23.5714 22.0317 23.6523 21.8877 23.7963C21.7437 23.9403 21.6628 24.1356 21.6628 24.3392V31.68C21.6628 31.8837 21.7437 32.079 21.8877 32.2229C22.0317 32.3669 22.227 32.4478 22.4306 32.4478C22.6342 32.4478 22.8295 32.3669 22.9735 32.2229C23.1175 32.079 23.1984 31.8837 23.1984 31.68V24.3392C23.1984 24.1356 23.1175 23.9403 22.9735 23.7963C22.8295 23.6523 22.6342 23.5714 22.4306 23.5714Z" fill="#8C929A"/>
</svg>
