<svg width="40" height="40" viewBox="0 0 40 40" fill="none" xmlns="http://www.w3.org/2000/svg">
<g clip-path="url(#clip0_12175_53631)">
<path d="M36.4844 10.0781H3.51562C1.57711 10.0781 0 11.6552 0 13.5938V26.4062C0 28.3448 1.57711 29.9219 3.51562 29.9219H36.4844C38.4229 29.9219 40 28.3448 40 26.4062V13.5938C40 11.6552 38.4229 10.0781 36.4844 10.0781ZM37.6562 26.4062C37.6562 27.0524 37.1305 27.5781 36.4844 27.5781H3.51562C2.86945 27.5781 2.34375 27.0524 2.34375 26.4062V13.5938C2.34375 12.9476 2.86945 12.4219 3.51562 12.4219H36.4844C37.1305 12.4219 37.6562 12.9476 37.6562 13.5938V26.4062Z" fill="#94A3B8"/>
<path d="M15 15.0781C14.3528 15.0781 13.8281 15.6028 13.8281 16.25V20.5132L12.7752 19.2498C12.5526 18.9826 12.2227 18.8281 11.875 18.8281C11.5273 18.8281 11.1974 18.9827 10.9748 19.2498L9.92187 20.5132V16.25C9.92187 15.6028 9.39719 15.0781 8.75 15.0781C8.10281 15.0781 7.57812 15.6028 7.57812 16.25V23.75C7.57812 24.2434 7.88719 24.6839 8.35109 24.8519C8.815 25.0198 9.33445 24.8793 9.65031 24.5002L11.875 21.8305L14.0998 24.5002C14.3269 24.7727 14.6591 24.922 15.0002 24.922C15.1337 24.922 15.2685 24.8991 15.399 24.8519C15.8629 24.6839 16.172 24.2434 16.172 23.75V16.25C16.1719 15.6028 15.6472 15.0781 15 15.0781Z" fill="#94A3B8"/>
<path d="M20 15.0781C19.3528 15.0781 18.8281 15.6028 18.8281 16.25V23.75C18.8281 24.3972 19.3528 24.9219 20 24.9219C20.6472 24.9219 21.1719 24.3972 21.1719 23.75V16.25C21.1719 15.6028 20.6472 15.0781 20 15.0781Z" fill="#94A3B8"/>
<path d="M30 15.0783C29.3528 15.0783 28.8281 15.603 28.8281 16.2502V19.8797L25.9751 15.6001C25.6886 15.1704 25.1548 14.9788 24.6604 15.1285C24.1662 15.2782 23.8281 15.7337 23.8281 16.2502V23.7502C23.8281 24.3973 24.3528 24.922 25 24.922C25.6472 24.922 26.1719 24.3973 26.1719 23.7502V20.1206L29.0249 24.4002C29.2463 24.7323 29.6155 24.9222 30.0001 24.9222C30.113 24.9222 30.2273 24.9059 30.3396 24.8718C30.8338 24.7221 31.1719 24.2666 31.1719 23.7502V16.2502C31.1719 15.603 30.6472 15.0783 30 15.0783Z" fill="#94A3B8"/>
<path d="M1.17188 8.04688H10.625C10.9695 8.04688 11.2965 7.89531 11.5191 7.6325C11.7418 7.36969 11.8376 7.02219 11.7809 6.68234L11.4351 4.60711L16.0202 5.52414C16.3676 5.59375 16.728 5.50211 17.0002 5.27531L20 2.77547L22.9998 5.27531C23.272 5.50219 23.6323 5.59391 23.9798 5.52414L28.5649 4.60711L28.2191 6.68234C28.1624 7.02211 28.2581 7.36961 28.4809 7.6325C28.7036 7.89539 29.0305 8.04688 29.375 8.04688H38.8281C39.4753 8.04688 40 7.52219 40 6.875C40 6.22781 39.4753 5.70312 38.8281 5.70312H30.7584L31.1559 3.31766C31.2193 2.93781 31.0919 2.55102 30.8152 2.28313C30.5384 2.01523 30.1478 1.90031 29.7702 1.97594L24.0697 3.11602L20.7502 0.349766C20.3156 -0.0124219 19.6844 -0.0124219 19.2498 0.349766L15.9303 3.11602L10.2298 1.97594C9.85219 1.90031 9.46148 2.01523 9.18484 2.28313C8.90812 2.55102 8.78078 2.93781 8.84406 3.31766L9.24164 5.70312H1.17188C0.524687 5.70312 0 6.22781 0 6.875C0 7.52219 0.524687 8.04688 1.17188 8.04688Z" fill="#94A3B8"/>
<path d="M38.8281 31.9531H29.375C29.0305 31.9531 28.7035 32.1047 28.4809 32.3675C28.2582 32.6303 28.1624 32.9778 28.2191 33.3177L28.5649 35.3929L23.9798 34.4759C23.6323 34.4062 23.272 34.4978 22.9998 34.7247L20 37.2246L17.0002 34.7248C16.728 34.4979 16.3677 34.4062 16.0202 34.4759L11.4351 35.393L11.7809 33.3177C11.8376 32.978 11.7419 32.6305 11.5191 32.3676C11.2964 32.1047 10.9695 31.9531 10.625 31.9531H1.17188C0.524687 31.9531 0 32.4778 0 33.125C0 33.7722 0.524687 34.2969 1.17188 34.2969H9.24164L8.84406 36.6823C8.7807 37.0622 8.90812 37.449 9.18484 37.7169C9.46148 37.9848 9.85203 38.0998 10.2298 38.0241L15.9303 36.884L19.2498 39.6502C19.4671 39.8313 19.7335 39.9219 20 39.9219C20.2665 39.9219 20.5329 39.8313 20.7502 39.6502L24.0697 36.884L29.7702 38.0241C30.1478 38.0996 30.5384 37.9848 30.8152 37.7169C31.0919 37.449 31.2192 37.0622 31.1559 36.6823L30.7584 34.2969H38.8281C39.4753 34.2969 40 33.7722 40 33.125C40 32.4778 39.4753 31.9531 38.8281 31.9531Z" fill="#94A3B8"/>
</g>
<defs>
<clipPath id="clip0_12175_53631">
<rect width="40" height="40" fill="white"/>
</clipPath>
</defs>
</svg>
