<svg width="52" height="52" viewBox="0 0 52 52" fill="none" xmlns="http://www.w3.org/2000/svg">
<path d="M25.9937 17.3105C25.4327 17.3105 24.978 17.7653 24.978 18.3262V18.3268C24.978 18.8876 25.4327 19.3421 25.9937 19.3421C26.5545 19.3421 27.0092 18.8871 27.0093 18.3262C27.0093 17.7653 26.5546 17.3105 25.9937 17.3105Z" fill="#8c929a"/>
<path d="M23.0733 18.8246C22.7952 18.3375 22.1748 18.1682 21.6877 18.4463C21.0157 18.8301 20.3944 19.3052 19.8413 19.8584C18.5135 21.1863 17.6654 22.8665 17.3889 24.7177C17.1215 26.5074 17.4263 28.3755 18.2471 29.9774C18.4269 30.3284 18.7828 30.5301 19.1518 30.5301C19.3077 30.5301 19.4659 30.4942 19.614 30.4183C20.1132 30.1626 20.3106 29.5505 20.0548 29.0514C19.4259 27.8239 19.1925 26.3913 19.3978 25.0179C19.6096 23.6002 20.2597 22.3128 21.2776 21.2948C21.7031 20.8693 22.18 20.5044 22.6951 20.2102C23.1822 19.932 23.3515 19.3117 23.0733 18.8246Z" fill="#8c929a"/>
<path d="M26.0068 32.6582C25.4459 32.6582 24.9912 33.1133 24.9912 33.6741C24.9912 34.235 25.4459 34.6898 26.0068 34.6898C26.5677 34.6898 27.0225 34.235 27.0225 33.6741V33.6735C27.0225 33.1127 26.5678 32.6582 26.0068 32.6582Z" fill="#8c929a"/>
<path d="M33.7533 22.0216C33.4975 21.5224 32.8856 21.3247 32.3863 21.5809C31.887 21.8367 31.6897 22.4487 31.9455 22.9479C32.5745 24.1753 32.8078 25.6076 32.6025 26.9812C32.3908 28.3989 31.7408 29.6863 30.7227 30.7042C30.332 31.095 29.8971 31.4353 29.4301 31.7157C28.9491 32.0044 28.7933 32.6283 29.0821 33.1092C29.2725 33.4265 29.6089 33.6022 29.9538 33.6022C30.1317 33.6022 30.312 33.5554 30.4756 33.4572C31.0848 33.0915 31.6512 32.6485 32.1591 32.1405C33.4869 30.8128 34.335 29.1326 34.6115 27.2813C34.8789 25.4915 34.5741 23.6235 33.7533 22.0216Z" fill="#8c929a"/>
<path d="M25.9998 0C23.3399 0 21.1758 2.16399 21.1758 4.82391V9.29236C21.1758 11.9523 23.3399 14.1164 25.9998 14.1164C28.6597 14.1164 30.8238 11.9524 30.8238 9.29236V4.82391C30.8238 2.16399 28.6597 0 25.9998 0ZM28.7926 9.29236C28.7926 10.8323 27.5397 12.0851 25.9998 12.0851C24.4599 12.0851 23.207 10.8323 23.207 9.29236V4.82391C23.207 3.28402 24.4599 2.03125 25.9998 2.03125C27.5397 2.03125 28.7926 3.28402 28.7926 4.82391V9.29236Z" fill="#8c929a"/>
<path d="M25.9998 37.8828C23.3398 37.8828 21.1758 40.0468 21.1758 42.7067V47.1752C21.1758 49.8351 23.3399 51.9992 25.9998 51.9992C28.6597 51.9992 30.8238 49.8351 30.8238 47.1752V42.7067C30.8238 40.0468 28.6598 37.8828 25.9998 37.8828ZM28.7926 47.1752C28.7926 48.7151 27.5397 49.9679 25.9998 49.9679C24.4599 49.9679 23.207 48.7151 23.207 47.1752V42.7067C23.207 41.1668 24.4599 39.9141 25.9998 39.9141C27.5397 39.9141 28.7926 41.1668 28.7926 42.7067V47.1752Z" fill="#8c929a"/>
<path d="M47.1758 21.1758H42.7073C40.0473 21.1758 37.8833 23.3399 37.8833 25.9998C37.8833 28.6597 40.0474 30.8237 42.7073 30.8237H47.1758C49.8358 30.8237 51.9998 28.6597 51.9998 25.9998C51.9998 23.3399 49.8358 21.1758 47.1758 21.1758ZM47.1758 28.7925H42.7073C41.1673 28.7925 39.9146 27.5397 39.9146 25.9998C39.9146 24.4599 41.1674 23.207 42.7073 23.207H47.1758C48.7158 23.207 49.9685 24.4599 49.9685 25.9998C49.9685 27.5397 48.7158 28.7925 47.1758 28.7925Z" fill="#8c929a"/>
<path d="M9.29246 21.1758H4.82402C2.16399 21.1758 0 23.3399 0 25.9998C0 28.6597 2.16399 30.8237 4.82402 30.8237H9.29246C11.9524 30.8237 14.1165 28.6597 14.1165 25.9998C14.1165 23.3399 11.9524 21.1758 9.29246 21.1758ZM9.29246 28.7925H4.82402C3.28402 28.7925 2.03125 27.5397 2.03125 25.9998C2.03125 24.4599 3.28402 23.207 4.82402 23.207H9.29246C10.8324 23.207 12.0852 24.4599 12.0852 25.9998C12.0852 27.5397 10.8324 28.7925 9.29246 28.7925Z" fill="#8c929a"/>
<path d="M44.3846 7.61606C43.4735 6.70495 42.262 6.20312 40.9735 6.20312C39.685 6.20312 38.4736 6.70495 37.5625 7.61606L34.4028 10.7757C32.522 12.6566 32.522 15.7169 34.4028 17.5978C35.3434 18.5384 36.5784 19.0085 37.8139 19.0085C39.049 19.0085 40.2846 18.5381 41.2249 17.5978L44.3846 14.4382C46.2654 12.5573 46.2654 9.497 44.3846 7.61606ZM42.9484 13.0019L39.7887 16.1615C38.6998 17.2504 36.9281 17.2504 35.8392 16.1615C34.7504 15.0727 34.7504 13.3009 35.8392 12.2121L38.9989 9.05246C39.5263 8.52484 40.2276 8.23438 40.9736 8.23438C41.7195 8.23438 42.4209 8.52495 42.9484 9.05246C44.0372 10.1413 44.0372 11.9131 42.9484 13.0019Z" fill="#8c929a"/>
<path d="M17.5971 34.4029C15.7161 32.522 12.6559 32.522 10.7749 34.4029L7.61522 37.5626C5.73438 39.4435 5.73438 42.5038 7.61522 44.3848C8.55569 45.3252 9.79099 45.7955 11.0263 45.7955C12.2616 45.7955 13.497 45.3252 14.4374 44.3848L17.5971 41.225C19.4779 39.3441 19.4779 36.2838 17.5971 34.4029ZM16.1608 39.7887L13.0011 42.9485C11.9122 44.0373 10.1405 44.0373 9.05161 42.9485C7.96266 41.8596 7.96266 40.0879 9.05161 38.999L12.2113 35.8393C12.7557 35.2949 13.4708 35.0226 14.186 35.0226C14.9012 35.0226 15.6163 35.2949 16.1608 35.8393C17.2497 36.9281 17.2497 38.6999 16.1608 39.7887Z" fill="#8c929a"/>
<path d="M44.3847 37.5626L41.225 34.4029C39.344 32.522 36.2838 32.522 34.4028 34.4029C32.522 36.2838 32.522 39.3441 34.4028 41.225L37.5625 44.3848C38.503 45.3252 39.7383 45.7955 40.9736 45.7955C42.2089 45.7955 43.4442 45.3252 44.3847 44.3848C46.2655 42.5038 46.2655 39.4435 44.3847 37.5626ZM42.9484 42.9485C41.8596 44.0374 40.0879 44.0375 38.9989 42.9485L35.8392 39.7887C34.7503 38.6999 34.7503 36.9281 35.8392 35.8393C36.3836 35.2948 37.0986 35.0226 37.8139 35.0226C38.5289 35.0226 39.2442 35.2949 39.7887 35.8393L42.9484 38.999C44.0373 40.0879 44.0373 41.8596 42.9484 42.9485Z" fill="#8c929a"/>
<path d="M17.597 10.7757L14.4374 7.61606C13.5262 6.70495 12.3148 6.20312 11.0263 6.20312C9.73776 6.20312 8.52632 6.70495 7.6152 7.61606C5.73437 9.497 5.73437 12.5573 7.61531 14.4382L10.7749 17.5978C11.7154 18.5383 12.9507 19.0085 14.186 19.0085C15.4213 19.0085 16.6566 18.5384 17.5971 17.5978C19.4779 15.7169 19.4779 12.6566 17.597 10.7757ZM16.1607 16.1615C15.0719 17.2504 13.3002 17.2504 12.2112 16.1615L9.0516 13.0019C7.96265 11.9131 7.96265 10.1413 9.0516 9.05246C9.57902 8.52484 10.2803 8.23438 11.0263 8.23438C11.7723 8.23438 12.4735 8.52495 13.0011 9.05246L16.1607 12.2121C17.2496 13.3009 17.2496 15.0727 16.1607 16.1615Z" fill="#8c929a"/>
</svg>
