<svg width="52" height="52" viewBox="0 0 52 52" fill="none" xmlns="http://www.w3.org/2000/svg">
<path d="M18.8757 26.0005C18.8757 27.4096 19.2935 28.787 20.0764 29.9586C20.8592 31.1302 21.9719 32.0434 23.2737 32.5826C24.5755 33.1218 26.008 33.2629 27.39 32.988C28.772 32.7131 30.0415 32.0346 31.0378 31.0382C32.0342 30.0418 32.7127 28.7724 32.9876 27.3904C33.2625 26.0084 33.1214 24.5759 32.5822 23.2741C32.043 21.9723 31.1298 20.8596 29.9582 20.0768C28.7866 19.2939 27.4092 18.8761 26.0001 18.8761C24.1113 18.8783 22.3004 19.6296 20.9648 20.9652C19.6292 22.3008 18.8779 24.1116 18.8757 26.0005ZM30.6869 26.0005C30.6869 26.9275 30.412 27.8336 29.897 28.6044C29.382 29.3752 28.65 29.9759 27.7936 30.3306C26.9372 30.6854 25.9948 30.7782 25.0856 30.5973C24.1764 30.4165 23.3413 29.9701 22.6858 29.3146C22.0304 28.6591 21.584 27.824 21.4031 26.9148C21.2223 26.0056 21.3151 25.0632 21.6699 24.2068C22.0247 23.3504 22.6254 22.6184 23.3962 22.1034C24.1669 21.5884 25.0731 21.3136 26.0001 21.3136C27.2427 21.315 28.434 21.8093 29.3126 22.6879C30.1913 23.5666 30.6855 24.7579 30.6869 26.0005ZM14.2488 26.0005C14.2488 24.5914 13.8309 23.214 13.0481 22.0424C12.2652 20.8708 11.1525 19.9577 9.85071 19.4185C8.54889 18.8792 7.1164 18.7382 5.73441 19.0131C4.35241 19.288 3.08297 19.9666 2.08662 20.9629C1.09027 21.9593 0.411754 23.2288 0.136877 24.6108C-0.138 25.9928 0.00310719 27.4253 0.542355 28.7271C1.0816 30.0289 1.99477 31.1416 3.16639 31.9244C4.338 32.7072 5.71544 33.125 7.12451 33.125C9.01337 33.1228 10.8242 32.3715 12.1599 31.0359C13.4955 29.7002 14.2467 27.8893 14.2488 26.0005ZM2.4376 26.0005C2.43762 25.0735 2.71252 24.1674 3.22754 23.3966C3.74256 22.6259 4.47456 22.0251 5.33098 21.6704C6.1874 21.3157 7.12978 21.2229 8.03894 21.4038C8.94811 21.5846 9.78322 22.031 10.4387 22.6865C11.0942 23.342 11.5405 24.1771 11.7214 25.0863C11.9022 25.9954 11.8094 26.9378 11.4546 27.7942C11.0999 28.6506 10.4992 29.3826 9.72841 29.8976C8.95765 30.4126 8.05149 30.6875 7.12451 30.6875C5.88188 30.6861 4.69054 30.1918 3.81188 29.3132C2.93321 28.4345 2.43898 27.2431 2.4376 26.0005ZM37.7514 26.0005C37.7514 27.4096 38.1692 28.787 38.952 29.9586C39.7349 31.1302 40.8475 32.0434 42.1493 32.5827C43.4512 33.1219 44.8836 33.263 46.2656 32.9881C47.6476 32.7132 48.9171 32.0347 49.9135 31.0383C50.9099 30.042 51.5884 28.7725 51.8633 27.3905C52.1382 26.0085 51.9971 24.576 51.4579 23.2742C50.9187 21.9724 50.0055 20.8597 48.8339 20.0769C47.6623 19.294 46.2849 18.8762 44.8758 18.8762C42.987 18.8783 41.1761 19.6296 39.8405 20.9652C38.5049 22.3008 37.7536 24.1117 37.7514 26.0005ZM49.5626 26.0005C49.5626 26.9275 49.2878 27.8337 48.7728 28.6044C48.2578 29.3752 47.5258 29.976 46.6693 30.3307C45.8129 30.6855 44.8705 30.7783 43.9614 30.5974C43.0522 30.4166 42.217 29.9702 41.5616 29.3147C40.9061 28.6593 40.4597 27.8241 40.2788 26.9149C40.098 26.0058 40.1908 25.0634 40.5456 24.2069C40.9003 23.3505 41.5011 22.6185 42.2719 22.1035C43.0426 21.5885 43.9488 21.3137 44.8758 21.3137C46.1184 21.3151 47.3097 21.8094 48.1883 22.688C49.0669 23.5666 49.5612 24.7579 49.5626 26.0005Z" fill="#94A3B8"/>
</svg>
