<svg width="40" height="40" viewBox="0 0 40 40" fill="none" xmlns="http://www.w3.org/2000/svg">
<path d="M32.9604 7.03285C29.5216 3.59566 24.8585 1.66531 19.9972 1.6665C15.1353 1.66709 10.4729 3.59923 7.03523 7.03702C3.59745 10.4752 1.6665 15.1379 1.6665 19.9996C1.6665 24.8614 3.5976 29.524 7.03523 32.9622C10.473 36.4 15.1355 38.3321 19.9972 38.3327C24.8585 38.3339 29.5216 36.4034 32.9604 32.9664C36.4004 29.5281 38.3332 24.8633 38.3332 19.9996C38.3332 15.1359 36.4004 10.4712 32.9604 7.03285ZM30.6021 30.6087C27.7887 33.4208 23.9737 35.0009 19.9954 35.0003C16.0178 34.9997 12.2028 33.4192 9.38984 30.6064C6.57705 27.793 4.997 23.978 4.997 20.0004C4.997 16.0227 6.5769 12.2077 9.38984 9.3943C12.2026 6.58151 16.0176 5.00101 19.9954 5.00042C23.9737 4.99984 27.7887 6.57973 30.6021 9.39207C33.4161 12.2055 34.9972 16.0217 34.9972 20.0005C34.9972 23.9794 33.4161 27.7956 30.6021 30.6089V30.6087Z" fill="#94A3B8"/>
<path d="M25.2759 13.0509H15.7509C14.8302 13.0509 14.0844 13.7966 14.0844 14.7174C14.0844 15.6375 14.8302 16.3839 15.7509 16.3839H21.251L13.5176 24.1173C13.0427 24.5951 12.902 25.3113 13.1607 25.9332C13.4199 26.5546 14.0274 26.9592 14.7012 26.9592C15.1412 26.9592 15.5632 26.7854 15.8759 26.4756L23.6094 18.7421V24.2423C23.6094 25.163 24.3557 25.9088 25.2759 25.9088C26.1966 25.9088 26.9424 25.163 26.9424 24.2423V14.7173C26.9424 13.7965 26.1966 13.0508 25.2759 13.0508L25.2759 13.0509Z" fill="#94A3B8"/>
</svg>
