<svg width="52" height="52" viewBox="0 0 52 52" fill="none" xmlns="http://www.w3.org/2000/svg">
<path d="M26.0995 4.06253C25.5378 4.05846 25.0798 4.51042 25.0757 5.07104C25.0716 5.63167 25.5226 6.08972 26.0842 6.09378C26.6449 6.09784 27.1029 5.64691 27.107 5.08628C27.111 4.52565 26.6601 4.06761 26.0995 4.06253Z" fill="#94A3B8"/>
<path d="M26.0534 10.1564C22.132 10.1286 18.9205 13.2922 18.8908 17.2124C18.8613 21.1324 22.0266 24.3455 25.9468 24.375C25.965 24.3751 25.9831 24.3752 26.0012 24.3752C29.8965 24.3752 33.0799 21.2211 33.1094 17.319C33.139 13.3992 29.9738 10.186 26.0534 10.1564ZM26.001 22.3441C25.9882 22.3441 25.9748 22.344 25.962 22.3439C23.1618 22.3227 20.9009 20.0276 20.922 17.2276C20.943 14.4402 23.2168 12.1874 25.9992 12.1874C26.012 12.1874 26.0254 12.1875 26.0382 12.1876C28.8384 12.2087 31.0994 14.5038 31.0783 17.3038C31.0571 20.0912 28.7834 22.3441 26.001 22.3441Z" fill="#94A3B8"/>
<path d="M30.4314 4.83406C29.9031 4.64657 29.3223 4.92333 29.1348 5.45207C28.9474 5.9808 29.2242 6.56123 29.7528 6.74872C34.2263 8.33421 37.2077 12.5949 37.172 17.3507C37.1678 17.9116 37.619 18.3697 38.18 18.374C38.1825 18.374 38.1851 18.374 38.1878 18.374C38.745 18.374 39.1989 17.9243 39.2032 17.366C39.2455 11.7448 35.7203 6.7086 30.4314 4.83406Z" fill="#94A3B8"/>
<path d="M32.2315 38.2325C38.9867 29.5372 43.2084 25.0029 43.2654 17.3955C43.3369 7.82388 35.5692 0 25.9983 0C16.5392 0 8.80637 7.66067 8.73447 17.1365C8.67637 24.9502 12.9764 29.4783 19.7783 38.231C13.0117 39.2422 8.73447 41.783 8.73447 44.8907C8.73447 46.9724 10.6587 48.8405 14.1527 50.1506C17.333 51.3432 21.5404 52 25.9999 52C30.4594 52 34.6669 51.3432 37.8471 50.1506C41.3412 48.8404 43.2654 46.9723 43.2654 44.8906C43.2654 41.7846 38.9921 39.2444 32.2315 38.2325ZM10.7656 17.1518C10.829 8.79025 17.6515 2.03125 25.9985 2.03125C34.4444 2.03125 41.2972 8.9363 41.2342 17.3803C41.1802 24.6049 36.7031 29.0571 29.5554 38.3748C28.2805 40.0359 27.1097 41.6065 26.0014 43.1428C24.8964 41.6056 23.749 40.0631 22.455 38.3741C15.0119 28.6664 10.7106 24.5506 10.7656 17.1518ZM25.9999 49.9688C17.2807 49.9688 10.7656 47.2879 10.7656 44.8907C10.7656 43.113 14.6603 40.8672 21.2089 40.0895C22.6565 41.9889 23.9256 43.7144 25.1704 45.4767C25.3605 45.7459 25.6694 45.9061 25.999 45.9063C25.9993 45.9063 25.9996 45.9063 25.9999 45.9063C26.3292 45.9063 26.638 45.7467 26.8285 45.478C28.0614 43.7387 29.3653 41.9706 30.8005 40.0907C37.343 40.8691 41.2342 43.1142 41.2342 44.8908C41.2341 47.2879 34.7192 49.9688 25.9999 49.9688Z" fill="#94A3B8"/>
</svg>
