<svg width="2667" height="1964" viewBox="0 0 2667 1964" fill="none" xmlns="http://www.w3.org/2000/svg">
<path d="M66.031 1498.68C180.458 1771.14 447.232 1948.41 742.633 1954.2C982.814 1958.94 1404.13 1964 2106.55 1964C2891.41 1964 2848.3 546.136 2000.04 168.009C1054.49 -253.471 1350.52 614.512 889.169 676.687C40.8691 791.005 -70.7285 1173.05 66.031 1498.68Z" fill="#DADFE6"/>
<path d="M1559.66 1721.74L1856.76 438.874C1869.18 385.228 1828.43 334 1773.37 334H544.72C504.886 334 470.316 361.478 461.331 400.277L164.243 1683.14C151.822 1736.77 192.562 1788 247.631 1788H1476.28C1516.11 1788 1550.68 1760.52 1559.66 1721.74Z" fill="#CBCED1"/>
<path d="M544.113 350.593C511.672 350.593 483.905 372.669 476.588 404.255L179.43 1687.5C174.635 1708.19 179.472 1729.6 192.699 1746.23C205.925 1762.86 225.701 1772.41 246.953 1772.41H1475.89C1508.32 1772.41 1536.09 1750.33 1543.42 1718.75L1840.58 435.521C1845.37 414.823 1840.53 393.402 1827.3 376.769C1814.08 360.136 1794.3 350.593 1773.05 350.593H544.113ZM1475.89 1805H246.953C215.701 1805 186.621 1790.97 167.174 1766.53C147.724 1742.06 140.612 1710.58 147.66 1680.14L444.819 396.913C455.578 350.442 496.409 318 544.113 318H1773.05C1804.3 318 1833.39 332.029 1852.83 356.49C1872.28 380.936 1879.38 412.437 1872.34 442.863L1575.18 1726.09C1564.42 1772.56 1523.58 1805 1475.89 1805Z" fill="#393939"/>
<path d="M795.332 1721.74L498.243 438.874C485.822 385.228 526.562 334 581.631 334H1810.28C1850.11 334 1884.68 361.478 1893.66 400.277L2190.76 1683.14C2203.18 1736.77 2162.43 1788 2107.37 1788H878.72C838.884 1788 804.316 1760.52 795.332 1721.74Z" fill="white"/>
<path d="M810.588 1718.75C817.905 1750.33 845.672 1772.41 878.113 1772.41H2107.05C2128.3 1772.41 2148.08 1762.86 2161.3 1746.23C2174.53 1729.6 2179.37 1708.19 2174.58 1687.5L1877.42 404.255C1870.09 372.669 1842.32 350.593 1809.89 350.593H580.954C559.699 350.593 539.923 360.136 526.699 376.769C513.472 393.402 508.636 414.823 513.429 435.521L810.588 1718.75ZM2107.05 1805H878.113C830.409 1805 789.579 1772.56 778.819 1726.09L481.66 442.863C474.612 412.437 481.723 380.936 501.172 356.49C520.62 332.029 549.701 318 580.954 318H1809.89C1857.58 318 1898.42 350.442 1909.18 396.913L2206.34 1680.14C2213.38 1710.58 2206.28 1742.06 2186.83 1766.53C2167.39 1790.97 2138.3 1805 2107.05 1805Z" fill="#393939"/>
<path d="M530.163 575.496L488.306 394.97C481.078 363.788 504.763 334 536.782 334H1838.11C1861.26 334 1881.37 349.969 1886.59 372.52L1926.69 545.725C1933.9 576.789 1910.4 606.493 1878.5 606.678L578.919 613.999C555.66 614.133 535.414 598.148 530.163 575.496Z" fill="#E1E3E6"/>
<path d="M546.358 571.452C549.9 586.737 563.29 597.38 578.96 597.38C579.026 597.38 579.09 597.38 579.155 597.38L1879.09 590.049C1889.32 589.982 1898.81 585.341 1905.15 577.321C1911.5 569.283 1913.82 558.959 1911.5 549.005L1871.39 375.565C1867.85 360.297 1854.44 349.62 1838.78 349.62H537.098C526.833 349.62 517.281 354.244 510.894 362.281C504.507 370.318 502.173 380.676 504.491 390.681L546.358 571.452ZM578.954 630C548.018 630 521.588 609.016 514.596 578.817L472.729 398.045C468.153 378.288 472.761 357.859 485.37 341.986C497.979 326.113 516.833 317 537.098 317H1838.78C1869.69 317 1896.18 338.052 1903.15 368.2L1943.28 541.64C1947.83 561.33 1943.26 581.692 1930.74 597.548C1918.22 613.404 1899.45 622.551 1879.27 622.669L579.339 630C579.211 630 579.08 630 578.954 630Z" fill="#393939"/>
<path d="M836.427 985.029L801.792 805.263C796.667 778.665 817.053 754 844.149 754H977.215C997.894 754 1015.66 768.661 1019.57 788.954L1054.21 968.72C1059.33 995.318 1038.95 1020 1011.85 1020H878.785C858.108 1020 840.339 1005.32 836.427 985.029Z" fill="#DADFE6"/>
<path d="M1219.43 985.029L1184.79 805.263C1179.67 778.665 1200.05 754 1227.15 754H1360.2C1380.89 754 1398.66 768.661 1402.57 788.954L1437.21 968.72C1442.34 995.318 1421.95 1020 1394.85 1020H1261.78C1241.11 1020 1223.34 1005.32 1219.43 985.029Z" fill="#DADFE6"/>
<path d="M1600.44 985.029L1565.79 805.263C1560.68 778.665 1581.06 754 1608.16 754H1741.22C1761.89 754 1779.67 768.661 1783.57 788.954L1818.21 968.72C1823.34 995.318 1802.95 1020 1775.85 1020H1642.79C1622.12 1020 1604.34 1005.32 1600.44 985.029Z" fill="#DADFE6"/>
<path d="M931.428 1390.03L896.792 1210.26C891.669 1183.66 912.054 1159 939.15 1159H1072.22C1092.89 1159 1110.66 1173.66 1114.57 1193.95L1149.21 1373.72C1154.33 1400.32 1133.95 1425 1106.85 1425H973.786C953.107 1425 935.339 1410.32 931.428 1390.03Z" fill="#DADFE6"/>
<path d="M1314.43 1390.03L1279.79 1210.26C1274.67 1183.66 1295.05 1159 1322.15 1159H1455.21C1475.88 1159 1493.66 1173.66 1497.56 1193.95L1532.21 1373.72C1537.32 1400.32 1516.94 1425 1489.84 1425H1356.78C1336.11 1425 1318.34 1410.32 1314.43 1390.03Z" fill="#DADFE6"/>
<path d="M1685 1048.49C1685 867.07 1832.08 720 2013.5 720C2194.92 720 2342 867.07 2342 1048.49C2342 1229.93 2194.92 1377 2013.5 1377C1832.08 1377 1685 1229.93 1685 1048.49Z" fill="#FF2A0C"/>
<path d="M2013.27 1243C2002.49 1243 1993.08 1239.54 1985.06 1232.6C1977.02 1225.66 1973 1215.94 1973 1203.47C1973 1192.59 1976.83 1183.31 1984.52 1175.66C1992.21 1168.03 2001.61 1164.2 2012.73 1164.2C2023.86 1164.2 2033.35 1168.03 2041.21 1175.66C2049.06 1183.31 2053 1192.59 2053 1203.47C2053 1215.78 2049.03 1225.44 2041.07 1232.46C2033.14 1239.49 2023.86 1243 2013.27 1243ZM1983.86 1069.59L1975.38 943.351C1973.79 918.765 1973 901.103 1973 890.382C1973 875.795 1976.83 864.418 1984.52 856.251C1992.21 848.084 2002.31 844 2014.86 844C2030.04 844 2040.2 849.226 2045.31 859.679C2050.43 870.132 2053 885.206 2053 904.884C2053 916.48 2052.38 928.243 2051.14 940.192L2039.76 1070.13C2038.52 1085.59 2035.87 1097.44 2031.8 1105.7C2027.75 1113.95 2021.04 1118.09 2011.68 1118.09C2002.14 1118.09 1995.52 1114.09 1991.8 1106.09C1988.1 1098.11 1985.45 1085.94 1983.86 1069.59Z" fill="white"/>
<path d="M88 718C78.6109 718 71 710.492 71 701.204V559.796C71 550.508 78.6109 543 88 543C97.3891 543 105 550.508 105 559.796V701.204C105 710.492 97.3891 718 88 718Z" fill="#DADFE6"/>
<path d="M158.205 648H16.7948C7.51903 648 0 640.401 0 631C0 621.616 7.51903 614 16.7948 614H158.205C167.479 614 175 621.616 175 631C175 640.401 167.479 648 158.205 648Z" fill="#DADFE6"/>
<path d="M2426 1416C2426 1395.01 2443.01 1378 2464 1378C2484.99 1378 2502 1395.01 2502 1416C2502 1436.98 2484.99 1454 2464 1454C2443.01 1454 2426 1436.98 2426 1416Z" fill="#F2F2F2"/>
<path d="M2464 1387.46C2448.25 1387.46 2435.46 1400.26 2435.46 1416C2435.46 1431.73 2448.25 1444.54 2464 1444.54C2479.73 1444.54 2492.54 1431.73 2492.54 1416C2492.54 1400.26 2479.73 1387.46 2464 1387.46ZM2464 1463C2438.08 1463 2417 1441.92 2417 1416C2417 1390.08 2438.08 1369 2464 1369C2489.92 1369 2511 1390.08 2511 1416C2511 1441.92 2489.92 1463 2464 1463Z" fill="#393939"/>
<path d="M614 49.4916C614 22.153 636.161 0 663.5 0C690.838 0 713 22.153 713 49.4916C713 76.8303 690.838 99 663.5 99C636.161 99 614 76.8303 614 49.4916Z" fill="#F2F2F2"/>
<path d="M2193 537C2193 524.302 2203.29 514 2216.01 514C2228.71 514 2239 524.302 2239 537C2239 549.698 2228.71 560 2216.01 560C2203.29 560 2193 549.698 2193 537Z" fill="#FF2A0C"/>
</svg>
