<svg width="120" height="120" viewBox="0 0 120 120" fill="none" xmlns="http://www.w3.org/2000/svg">
<g clip-path="url(#clip0_10971_50724)">
<path d="M64.9994 89.9997C64.9994 92.7609 62.7609 94.9994 59.9997 94.9994C57.2385 94.9994 55 92.7609 55 89.9997C55 87.2385 57.2385 85 59.9997 85C62.7609 85 64.9994 87.2385 64.9994 89.9997Z" fill="#F59E0B"/>
<path d="M60 74.9997C57.93 74.9997 56.25 73.3197 56.25 71.2497V28.75C56.25 26.68 57.93 25 60 25C62.07 25 63.75 26.68 63.75 28.75V71.2497C63.75 73.3197 62.07 74.9997 60 74.9997Z" fill="#F59E0B"/>
<path d="M60 120C26.9147 120 0 93.0853 0 60C0 26.9147 26.9147 0 60 0C93.0853 0 120 26.9147 120 60C120 93.0853 93.0853 120 60 120ZM60 7.5C31.0501 7.5 7.5 31.0501 7.5 60C7.5 88.9499 31.0501 112.5 60 112.5C88.9499 112.5 112.5 88.9499 112.5 60C112.5 31.0501 88.9499 7.5 60 7.5Z" fill="#F59E0B"/>
</g>
<defs>
<clipPath id="clip0_10971_50724">
<rect width="120" height="120" fill="white"/>
</clipPath>
</defs>
</svg>
