<svg width="52" height="52" viewBox="0 0 52 52" fill="none" xmlns="http://www.w3.org/2000/svg">
<path fill-rule="evenodd" clip-rule="evenodd" d="M38.0176 39.358C37.6216 39.358 37.3169 39.0229 37.3169 38.6269V26.8073L35.1541 28.2695C34.819 28.5132 34.362 28.4218 34.1488 28.0867C33.9356 27.7516 33.9965 27.3252 34.3316 27.0815L37.6216 24.8272C37.8348 24.6749 38.1394 24.6749 38.3527 24.7967C38.5964 24.9186 38.7487 25.1623 38.7487 25.4365V38.6269C38.7487 39.0229 38.4136 39.358 38.0176 39.358ZM43.5923 16.6327H40.2109C39.8149 16.6327 39.4798 16.3281 39.4798 15.9016V12.8858V9.83951C39.4798 9.44349 39.8149 9.1084 40.2109 9.1084H43.5923C43.9883 9.1084 44.3234 9.44349 44.3234 9.83951C44.3234 10.2355 43.9883 10.5706 43.5923 10.5706H40.9115V12.1547H43.5923C43.9883 12.1547 44.3234 12.4898 44.3234 12.8858C44.3234 13.2818 43.9883 13.5864 43.5923 13.5864H40.9115V15.201H43.5923C43.9883 15.201 44.3234 15.5056 44.3234 15.9016C44.3234 16.3281 43.9883 16.6327 43.5923 16.6327ZM9.90041 16.6327C8.6819 16.6327 7.67663 15.6274 7.67663 14.4089C7.67663 14.0129 7.98125 13.6778 8.37727 13.6778C8.80375 13.6778 9.10838 14.0129 9.10838 14.4089C9.10838 14.8354 9.47393 15.201 9.90041 15.201C10.3269 15.201 10.6924 14.8354 10.6924 14.4089C10.6924 13.9824 10.3269 13.6169 9.90041 13.6169C8.6819 13.6169 7.67663 12.6116 7.67663 11.3931C7.67663 10.1441 8.6819 9.16933 9.90041 9.16933C11.1189 9.16933 12.1242 10.1441 12.1242 11.3931C12.1242 11.7891 11.8196 12.0938 11.3931 12.0938C10.9971 12.0938 10.6924 11.7891 10.6924 11.3931C10.6924 10.9666 10.3269 10.6011 9.90041 10.6011C9.47393 10.6011 9.10838 10.9666 9.10838 11.3931C9.10838 11.8196 9.47393 12.1851 9.90041 12.1851C11.1189 12.1851 12.1242 13.16 12.1242 14.4089C12.1242 15.6274 11.1189 16.6327 9.90041 16.6327ZM32.5952 16.6327C32.1992 16.6327 31.8641 16.3281 31.8641 15.9016V13.16V9.86997C31.8641 9.47396 32.1992 9.13886 32.5952 9.13886H34.4534C35.7633 9.13886 36.8295 10.2051 36.8295 11.515C36.8295 12.4593 36.2507 13.2818 35.4282 13.6474L36.2507 15.6274C36.403 16.0235 36.2203 16.4195 35.8547 16.5718C35.7633 16.6327 35.6719 16.6327 35.5805 16.6327C35.3064 16.6327 35.0322 16.4499 34.9104 16.1758L33.966 13.8606H33.2958V15.9016C33.2958 16.3281 32.9912 16.6327 32.5952 16.6327ZM33.2958 12.4288H34.3925H34.4839C34.9713 12.3984 35.3673 12.0024 35.3673 11.515C35.3673 10.9971 34.9713 10.6011 34.4534 10.6011H33.2958V12.4288ZM26.1066 16.6327C24.4007 16.6327 22.9994 15.2314 22.9994 13.556V12.2461C22.9994 10.5402 24.4007 9.13886 26.1066 9.13886C27.8125 9.13886 29.2138 10.5402 29.2138 12.2461V13.556C29.2138 15.2314 27.8125 16.6327 26.1066 16.6327ZM26.1066 10.6011C25.1927 10.6011 24.4616 11.3322 24.4616 12.2461V13.556C24.4616 14.4394 25.1927 15.201 26.1066 15.201C27.0205 15.201 27.7516 14.4394 27.7516 13.556V12.2461C27.7516 11.3322 27.0205 10.6011 26.1066 10.6011ZM17.8817 16.6327C16.1757 16.6327 14.8049 15.2314 14.8049 13.556V12.2461C14.8049 10.5402 16.1757 9.13886 17.8817 9.13886C18.7346 9.13886 19.5571 9.50442 20.1359 10.1137C20.4101 10.4183 20.4101 10.8752 20.1054 11.1494C19.8313 11.4236 19.3743 11.3931 19.1002 11.1189C18.7955 10.7534 18.3386 10.5706 17.8817 10.5706C16.9678 10.5706 16.2367 11.3322 16.2367 12.2461V13.5255C16.2367 14.4394 16.9678 15.201 17.8817 15.201C18.3386 15.201 18.7955 15.0182 19.1002 14.6526C19.3743 14.3785 19.8313 14.348 20.1054 14.6222C20.4101 14.8963 20.4101 15.3533 20.1359 15.6579C19.5571 16.2672 18.7346 16.6327 17.8817 16.6327ZM48.2226 45.877H3.77739C1.70592 45.877 0 44.1711 0 42.0996V21.9637C0 20.0141 1.49268 18.3996 3.38137 18.2168V9.65673C3.38137 7.70711 4.96544 6.12305 6.94552 6.12305H45.0545C47.0041 6.12305 48.6186 7.70711 48.6186 9.65673V18.2168C50.5073 18.3996 52 20.0141 52 21.9637V42.0996C52 44.1711 50.2941 45.877 48.2226 45.877ZM3.77739 19.6181C2.49795 19.6181 1.43175 20.6843 1.43175 21.9637V42.0996C1.43175 43.3791 2.49795 44.4453 3.77739 44.4453H48.2226C49.502 44.4453 50.5378 43.3791 50.5378 42.0996V21.9637C50.5378 20.6843 49.502 19.6181 48.2226 19.6181H3.77739ZM47.1564 41.7645H4.84359C4.44757 41.7645 4.11248 41.4294 4.11248 41.0334V23.0299C4.11248 22.6339 4.44757 22.2988 4.84359 22.2988H25.9848H26.0152H47.1564C47.5524 22.2988 47.8875 22.6339 47.8875 23.0299V41.0334C47.8571 41.4294 47.5524 41.7645 47.1564 41.7645ZM5.57469 40.3023H25.2841V23.761H5.57469V40.3023ZM26.7159 40.3023H46.4253V23.761H26.7159V40.3023ZM4.81312 18.1863H47.1564V9.65673C47.1564 8.49915 46.2121 7.5548 45.0545 7.5548H6.94552C5.78793 7.5548 4.81312 8.49915 4.81312 9.65673V18.1863ZM15.4142 39.358C12.7944 39.358 10.662 37.2256 10.662 34.6058V29.4576C10.662 26.8378 12.7944 24.7054 15.4142 24.7054C18.034 24.7054 20.1664 26.8378 20.1664 29.4576V34.6058C20.1664 37.2256 18.034 39.358 15.4142 39.358ZM15.4142 26.1676C13.5864 26.1676 12.1242 27.6298 12.1242 29.4576V34.6058C12.1242 36.4335 13.5864 37.9262 15.4142 37.9262C17.2419 37.9262 18.7346 36.4335 18.7346 34.6058V29.4576C18.7346 27.6298 17.2419 26.1676 15.4142 26.1676Z" fill="#94A3B8"/>
</svg>
