<svg width="40" height="40" viewBox="0 0 40 40" fill="none" xmlns="http://www.w3.org/2000/svg">
<path d="M34.4637 23.8803C32.3299 23.8803 30.5942 22.1395 30.5942 19.9998C30.5942 17.8602 32.3299 16.1194 34.4637 16.1194C36.5974 16.1194 38.3331 17.8602 38.3331 19.9998C38.3331 22.1395 36.5974 23.8803 34.4637 23.8803ZM34.4637 17.3099C32.9823 17.3099 31.777 18.5168 31.777 19.9998C31.777 21.4829 32.9823 22.6898 34.4637 22.6898C35.9451 22.6898 37.1503 21.4829 37.1503 19.9998C37.1503 18.5168 35.9451 17.3099 34.4637 17.3099Z" fill="#94A3B8"/>
<path d="M34.4637 11.0939C32.3299 11.0939 30.5942 9.35309 30.5942 7.21344C30.594 5.07406 32.3299 3.33325 34.4637 3.33325C36.5974 3.33325 38.3331 5.07406 38.3331 7.21371C38.3331 9.35309 36.5974 11.0939 34.4637 11.0939ZM34.4637 4.52372C32.9823 4.52372 31.777 5.73066 31.777 7.21371C31.777 8.69677 32.9823 9.9037 34.4637 9.9037C35.9451 9.90344 37.1503 8.69677 37.1503 7.21371C37.1503 5.73066 35.9451 4.52372 34.4637 4.52372Z" fill="#94A3B8"/>
<path d="M34.4637 36.6667C32.3299 36.6667 30.5942 34.9259 30.5942 32.7862C30.5942 30.6466 32.3299 28.9058 34.4637 28.9058C36.5974 28.906 38.3331 30.6466 38.3331 32.7862C38.3331 34.9261 36.5974 36.6667 34.4637 36.6667ZM34.4637 30.0965C32.9823 30.0965 31.777 31.3034 31.777 32.7865C31.777 34.2695 32.9823 35.4765 34.4637 35.4765C35.9451 35.4765 37.1503 34.2695 37.1503 32.7865C37.1503 31.3032 35.9451 30.0965 34.4637 30.0965Z" fill="#94A3B8"/>
<path d="M5.53594 23.8803C3.40217 23.8803 1.6665 22.1395 1.6665 19.9998C1.6665 17.8602 3.40217 16.1194 5.53594 16.1194C7.6697 16.1194 9.40564 17.8602 9.40564 19.9998C9.40564 22.1395 7.6697 23.8803 5.53594 23.8803ZM5.53594 17.3099C4.05453 17.3099 2.8493 18.5168 2.8493 19.9998C2.8493 21.4829 4.05453 22.6898 5.53594 22.6898C7.01734 22.6898 8.22257 21.4829 8.22257 19.9998C8.22284 18.5168 7.01761 17.3099 5.53594 17.3099Z" fill="#94A3B8"/>
<path d="M5.53594 11.0939C3.40217 11.0939 1.6665 9.35336 1.6665 7.21371C1.6665 5.07379 3.40217 3.33325 5.53594 3.33325C7.6697 3.33325 9.40537 5.07406 9.40537 7.21371C9.40563 9.35309 7.6697 11.0939 5.53594 11.0939ZM5.53594 4.52372C4.05453 4.52372 2.8493 5.73066 2.8493 7.21371C2.8493 8.69677 4.05453 9.9037 5.53594 9.9037C7.01734 9.9037 8.22257 8.69677 8.22257 7.21371C8.22284 5.73066 7.01761 4.52372 5.53594 4.52372Z" fill="#94A3B8"/>
<path d="M5.53594 36.6667C3.40217 36.6667 1.6665 34.9259 1.6665 32.7862C1.6665 30.6466 3.40217 28.9058 5.53594 28.9058C7.6697 28.9058 9.40537 30.6466 9.40537 32.7862C9.40563 34.9259 7.6697 36.6667 5.53594 36.6667ZM5.53594 30.0965C4.05453 30.0965 2.8493 31.3034 2.8493 32.7865C2.8493 34.2693 4.05453 35.4762 5.53594 35.4762C7.01734 35.4762 8.22257 34.2693 8.22257 32.7862C8.22284 31.3032 7.01761 30.0965 5.53594 30.0965Z" fill="#94A3B8"/>
<path d="M28.3517 21.2176H11.6554C11.329 21.2176 11.064 20.9508 11.064 20.6223C11.064 20.2939 11.329 20.0271 11.6554 20.0271H28.3517C28.678 20.0271 28.9431 20.2939 28.9431 20.6223C28.9428 20.9508 28.6783 21.2176 28.3514 21.2176H28.3517Z" fill="#94A3B8"/>
<path d="M26.5292 22.7436C26.3594 22.7436 26.1907 22.6702 26.0738 22.5283C25.8652 22.2753 25.8998 21.9001 26.1511 21.6902L27.426 20.6257L26.144 19.554C25.8923 19.3439 25.858 18.9686 26.0666 18.7159C26.2754 18.4632 26.6485 18.4287 26.8993 18.6384L28.7294 20.1681C28.8649 20.2814 28.9433 20.449 28.9433 20.6263C28.9433 20.8032 28.8649 20.9712 28.7294 21.0844L26.9064 22.6068C26.7958 22.6987 26.6622 22.7436 26.5291 22.7436L26.5292 22.7436Z" fill="#94A3B8"/>
<path d="M11.6552 18.6565C11.4358 18.6565 11.2246 18.5327 11.1227 18.3206C10.9804 18.0246 11.1034 17.6688 11.3973 17.5253L28.1936 9.34238C28.4867 9.20021 28.8413 9.32271 28.9836 9.61874C29.1259 9.91476 29.0029 10.2706 28.709 10.414L11.912 18.597C11.8293 18.6374 11.7414 18.6565 11.6548 18.6565H11.6552Z" fill="#94A3B8"/>
<path d="M27.692 12.4994C27.6225 12.4994 27.5518 12.487 27.4831 12.4612C27.1777 12.3451 27.0232 12.0017 27.1386 11.694L27.6888 10.2264L26.2135 9.67026C25.9075 9.55467 25.7522 9.21187 25.8668 8.90387C25.9817 8.59589 26.3236 8.44017 26.628 8.55523L28.6586 9.3208C28.8059 9.37634 28.9247 9.48848 28.9896 9.6325C29.0546 9.77653 29.0596 9.94048 29.0044 10.0888L28.2449 12.1147C28.1559 12.3528 27.9307 12.4994 27.692 12.4994L27.692 12.4994Z" fill="#94A3B8"/>
<path d="M11.1241 33.7027C10.7978 33.7027 10.5327 33.4365 10.5327 33.1075C10.5327 32.7785 10.7973 32.5122 11.1241 32.5122L28.3517 32.5088C28.678 32.5088 28.9431 32.7751 28.9431 33.104C28.9431 33.433 28.6786 33.6993 28.3517 33.6993L11.1241 33.7027Z" fill="#94A3B8"/>
<path d="M12.9205 35.5032C12.7695 35.5032 12.6184 35.4456 12.5033 35.3297L10.707 33.5294C10.5956 33.4178 10.5327 33.2658 10.5327 33.1077C10.5327 32.9496 10.5953 32.7976 10.707 32.686L12.5108 30.8785C12.7426 30.647 13.1169 30.6476 13.3469 30.8803C13.5771 31.1134 13.5766 31.4902 13.345 31.7222L11.9624 33.1079L13.3377 34.4863C13.5692 34.7186 13.5698 35.0954 13.3395 35.3281C13.2239 35.4448 13.0723 35.5033 12.9205 35.5033L12.9205 35.5032Z" fill="#94A3B8"/>
<path d="M28.3518 29.51C28.2976 29.51 28.243 29.5026 28.1886 29.4869L11.4922 24.6692C11.1778 24.5789 10.9967 24.2491 11.0865 23.9329C11.1767 23.617 11.5057 23.4339 11.818 23.5248L28.5144 28.3422C28.8288 28.4325 29.0099 28.7623 28.9202 29.0785C28.8457 29.3397 28.6089 29.51 28.3517 29.51L28.3518 29.51Z" fill="#94A3B8"/>
<path d="M12.8851 26.5646C12.6932 26.5646 12.5052 26.4708 12.3914 26.2975L11.1621 24.426C11.0652 24.2782 11.0385 24.0954 11.0889 23.9259C11.1396 23.7569 11.2621 23.6187 11.424 23.5496L13.604 22.6172C13.9044 22.4885 14.2516 22.6296 14.3797 22.9323C14.5075 23.235 14.3673 23.5844 14.0666 23.7131L12.5406 24.3657L13.378 25.6407C13.5581 25.9149 13.4834 26.284 13.2109 26.4655C13.1103 26.5327 12.9971 26.5646 12.8851 26.5646H12.8851Z" fill="#94A3B8"/>
<path d="M29.2594 16.747C29.1945 16.747 29.1285 16.7361 29.0638 16.7132L10.9285 10.3075C10.6204 10.1986 10.458 9.85896 10.5663 9.54888C10.674 9.23877 11.0127 9.07562 11.32 9.1843L29.4553 15.5903C29.7634 15.6992 29.9258 16.0388 29.8175 16.3489C29.7323 16.5936 29.5036 16.747 29.2594 16.747L29.2594 16.747Z" fill="#94A3B8"/>
<path d="M27.2187 17.4654C26.9745 17.4654 26.7456 17.3118 26.6603 17.0665C26.5524 16.7564 26.715 16.4168 27.0234 16.3081L28.504 15.787L27.9807 14.2957C27.8719 13.9856 28.0335 13.6458 28.3413 13.5363C28.6507 13.4263 28.9874 13.5894 29.0959 13.8993L29.8169 15.9534C29.8692 16.1024 29.8605 16.2664 29.7923 16.4091C29.7248 16.5515 29.6028 16.6613 29.4544 16.7133L27.414 17.4318C27.3491 17.4547 27.2834 17.4653 27.2187 17.4653L27.2187 17.4654Z" fill="#94A3B8"/>
<path d="M28.3518 7.20976H10.7403C10.414 7.20976 10.1489 6.94296 10.1489 6.61452C10.1489 6.28608 10.414 6.01929 10.7403 6.01929H28.3518C28.6781 6.01929 28.9432 6.28608 28.9432 6.61452C28.9432 6.94296 28.6784 7.20976 28.3516 7.20976H28.3518Z" fill="#94A3B8"/>
<path d="M12.5697 8.73935C12.4367 8.73935 12.3028 8.69444 12.1925 8.60224L10.3623 7.07245C10.2269 6.95924 10.1484 6.79157 10.1484 6.61433C10.1484 6.43735 10.2269 6.26941 10.3623 6.15621L12.1854 4.63356C12.4367 4.42364 12.8095 4.45845 13.018 4.71142C13.2266 4.9644 13.192 5.33961 12.9407 5.54951L11.6658 6.61399L12.9479 7.68569C13.1995 7.89588 13.2338 8.2711 13.0252 8.52378C12.9082 8.66595 12.7395 8.73929 12.5698 8.73929L12.5697 8.73935Z" fill="#94A3B8"/>
</svg>
