<svg width="52" height="52" viewBox="0 0 52 52" fill="none" xmlns="http://www.w3.org/2000/svg">
<path d="M41.603 26.9006C42.0806 29.7268 44.759 31.6306 47.5852 31.1529C50.4114 30.6752 52.3152 27.9968 51.8376 25.1706C51.3599 22.3445 48.6815 20.4406 45.8553 20.9183C43.6774 21.2865 41.9711 22.9928 41.603 25.1706L35.4263 25.171C35.2545 23.2629 34.5081 21.452 33.2857 19.977L44.2193 9.82438C46.7479 11.2287 49.9361 10.3172 51.3404 7.78855C52.7447 5.25991 51.8332 2.07172 49.3046 0.667433C46.7759 -0.736853 43.5878 0.174614 42.1835 2.70326C41.102 4.65064 41.3707 7.069 42.8533 8.73148L32.0637 18.7504C30.581 17.5024 28.7513 16.7395 26.8212 16.5647V10.3874C29.6474 9.90925 31.5508 7.23054 31.0727 4.40445C30.5945 1.57825 27.9158 -0.325125 25.0897 0.152989C22.2635 0.631104 20.3602 3.30982 20.8383 6.13591C21.2068 8.31381 22.9132 10.0199 25.0912 10.3877V16.5647C23.1606 16.7393 21.3301 17.5022 19.8471 18.7505L9.05743 8.73159C10.9468 6.60148 10.7516 3.34312 8.62148 1.4538C6.49137 -0.435518 3.23302 -0.24025 1.34369 1.88986C-0.545626 4.01986 -0.350358 7.27822 1.77964 9.16754C3.4125 10.6158 5.78037 10.8789 7.69131 9.82438L18.6249 19.977C17.4025 21.452 16.656 23.2631 16.4843 25.1711H10.3078C9.83018 22.3449 7.152 20.441 4.32591 20.9185C1.49971 21.3961 -0.404203 24.0743 0.0733712 26.9004C0.550945 29.7266 3.22912 31.6305 6.05521 31.1529C8.23311 30.7849 9.93938 29.0788 10.3076 26.901H16.4844C16.6792 29.0279 17.5867 31.0265 19.06 32.5728L8.67641 42.9564C6.5623 41.0611 3.31205 41.2386 1.41678 43.3527C-0.478483 45.4668 -0.300946 48.7171 1.81316 50.6124C3.92727 52.5076 7.17752 52.3301 9.07278 50.216C10.5264 48.5945 10.8007 46.2331 9.75741 44.3216L20.3626 33.7164C21.7469 34.7316 23.3816 35.3505 25.0911 35.5067V41.6832C22.2649 42.1605 20.3607 44.8385 20.8381 47.6647C21.3153 50.4909 23.9934 52.3952 26.8196 51.9178C29.6458 51.4406 31.55 48.7625 31.0727 45.9363C30.7048 43.7584 28.9989 42.0519 26.8211 41.6834V35.5066C28.7511 35.3316 30.5809 34.5687 32.0636 33.3209L42.8532 43.3398C40.9639 45.4699 41.159 48.7282 43.2891 50.6175C45.4192 52.5069 48.6776 52.3117 50.5669 50.1816C52.4562 48.0515 52.2611 44.7931 50.131 42.9038C48.4981 41.4555 46.1302 41.1925 44.2193 42.247L33.2857 32.0943C34.508 30.6196 35.2543 28.8088 35.4262 26.9011L41.603 26.9006ZM46.7148 22.5757C48.6256 22.5757 50.1746 24.1248 50.1746 26.0356C50.1746 27.9465 48.6256 29.4955 46.7148 29.4955C44.8039 29.4955 43.2549 27.9465 43.2549 26.0356C43.2569 24.1257 44.8047 22.5778 46.7148 22.5757ZM46.7148 1.81634C48.6256 1.81634 50.1746 3.3654 50.1746 5.27623C50.1746 7.18707 48.6256 8.73613 46.7148 8.73613C44.8039 8.73613 43.2549 7.18707 43.2549 5.27623C43.2569 3.36626 44.8047 1.81839 46.7148 1.81634ZM5.19597 8.73613C3.286 8.73408 1.73812 7.18621 1.73607 5.27623C1.73607 3.3654 3.28513 1.81634 5.19597 1.81634C7.1068 1.81634 8.65587 3.3654 8.65587 5.27623C8.65587 7.18707 7.1068 8.73613 5.19597 8.73613ZM5.19597 29.4955C3.28513 29.4955 1.73607 27.9465 1.73607 26.0356C1.73607 24.1248 3.28513 22.5757 5.19597 22.5757C7.1068 22.5757 8.65587 24.1248 8.65587 26.0356C8.65381 27.9456 7.10594 29.4935 5.19597 29.4955ZM5.19597 50.2549C3.28513 50.2549 1.73607 48.7058 1.73607 46.795C1.73607 44.8842 3.28513 43.3351 5.19597 43.3351C7.1068 43.3351 8.65587 44.8842 8.65587 46.795C8.65381 48.705 7.10594 50.2529 5.19597 50.2549ZM46.7148 43.3351C48.6247 43.3372 50.1726 44.885 50.1746 46.795C50.1746 48.7058 48.6256 50.2549 46.7148 50.2549C44.8039 50.2549 43.2549 48.7058 43.2549 46.795C43.2549 44.8842 44.8039 43.3351 46.7148 43.3351ZM22.4955 5.27623C22.4952 3.3654 24.0441 1.81612 25.9549 1.8159C27.8658 1.81569 29.415 3.36453 29.4153 5.27537C29.4155 7.18621 27.8666 8.73548 25.9558 8.7357H25.9554C24.0455 8.73365 22.4977 7.1861 22.4955 5.27623ZM29.4153 46.795C29.4153 48.7058 27.8662 50.2549 25.9554 50.2549C24.0445 50.2549 22.4955 48.7058 22.4955 46.795C22.4955 44.8842 24.0445 43.3351 25.9554 43.3351C27.8653 43.3372 29.4132 44.885 29.4153 46.795ZM25.9554 33.8204C21.6559 33.8204 18.1706 30.335 18.1706 26.0356C18.1755 21.7382 21.6579 18.2557 25.9554 18.2509C30.2548 18.2509 33.7401 21.7362 33.7401 26.0356C33.7401 30.335 30.2547 33.8204 25.9554 33.8204Z" fill="#94A3B8"/>
</svg>
