<svg width="52" height="52" viewBox="0 0 52 52" fill="none" xmlns="http://www.w3.org/2000/svg">
<path d="M20.0411 9.73619C20.6595 11.0523 21.7607 12.0799 23.1164 12.6059C23.2544 12.6689 23.3706 12.7715 23.45 12.9008C23.5294 13.03 23.5686 13.1799 23.5625 13.3315V15.587C23.0889 15.7544 22.6786 16.0641 22.3877 16.4737C22.0968 16.8832 21.9396 17.3727 21.9375 17.875V18.6875C21.9375 18.903 22.0231 19.1097 22.1755 19.262C22.3278 19.4144 22.5345 19.5 22.75 19.5H29.25C29.4655 19.5 29.6722 19.4144 29.8245 19.262C29.9769 19.1097 30.0625 18.903 30.0625 18.6875V17.875C30.0604 17.3727 29.9032 16.8832 29.6123 16.4737C29.3214 16.0641 28.9111 15.7544 28.4375 15.587V13.3315C28.4314 13.1799 28.4706 13.03 28.55 12.9008C28.6294 12.7715 28.7456 12.6689 28.8836 12.6059C30.2393 12.0799 31.3405 11.0523 31.9589 9.73619C33.4174 9.66652 34.7932 9.03856 35.8015 7.98237C36.8097 6.92618 37.3731 5.52267 37.375 4.0625C37.375 3.41603 37.1182 2.79605 36.6611 2.33893C36.204 1.88181 35.584 1.625 34.9375 1.625H32.5V0.8125C32.5 0.597012 32.4144 0.390349 32.262 0.237976C32.1097 0.0856024 31.903 0 31.6875 0L20.3125 0C20.097 0 19.8903 0.0856024 19.738 0.237976C19.5856 0.390349 19.5 0.597012 19.5 0.8125V1.625H17.0625C16.416 1.625 15.796 1.88181 15.3389 2.33893C14.8818 2.79605 14.625 3.41603 14.625 4.0625C14.6269 5.52267 15.1903 6.92618 16.1985 7.98237C17.2068 9.03856 18.5826 9.66652 20.0411 9.73619ZM23.5625 17.875C23.5625 17.6595 23.6481 17.4528 23.8005 17.3005C23.9528 17.1481 24.1595 17.0625 24.375 17.0625H27.625C27.8405 17.0625 28.0472 17.1481 28.1995 17.3005C28.3519 17.4528 28.4375 17.6595 28.4375 17.875H23.5625ZM34.9375 3.25C35.153 3.25 35.3597 3.3356 35.512 3.48798C35.6644 3.64035 35.75 3.84701 35.75 4.0625C35.7488 5.00767 35.4181 5.92284 34.8148 6.65042C34.2115 7.378 33.3734 7.87245 32.4447 8.04863C32.4788 7.80467 32.4972 7.5588 32.5 7.3125V3.25H34.9375ZM21.125 1.625H30.875V7.3125C30.8778 8.12997 30.6323 8.92903 30.1709 9.60386C29.7095 10.2787 29.054 10.7974 28.2912 11.0914C27.8495 11.2748 27.4727 11.5861 27.2092 11.9852C26.9457 12.3844 26.8075 12.8532 26.8125 13.3315V15.4375H25.1875V13.3315C25.1925 12.8532 25.0543 12.3844 24.7908 11.9852C24.5273 11.5861 24.1505 11.2748 23.7088 11.0914C22.946 10.7974 22.2905 10.2787 21.8291 9.60386C21.3677 8.92903 21.1222 8.12997 21.125 7.3125V1.625ZM17.0625 3.25H19.5V7.3125C19.5028 7.5588 19.5212 7.80467 19.5553 8.04863C18.6266 7.87245 17.7885 7.378 17.1852 6.65042C16.5819 5.92284 16.2512 5.00767 16.25 4.0625C16.25 3.84701 16.3356 3.64035 16.488 3.48798C16.6403 3.3356 16.847 3.25 17.0625 3.25Z" fill="#94A3B8"/>
<path d="M47.9375 45.5H46.3125V41.4375C46.3125 41.222 46.2269 41.0153 46.0745 40.863C45.9222 40.7106 45.7155 40.625 45.5 40.625H39.8125V37.375H41.4375C42.084 37.375 42.704 37.1182 43.1611 36.6611C43.6182 36.204 43.875 35.584 43.875 34.9375V33.3125C43.875 32.666 43.6182 32.046 43.1611 31.5889C42.704 31.1318 42.084 30.875 41.4375 30.875H39.8125V26.8125C39.8125 26.597 39.7269 26.3903 39.5745 26.238C39.4222 26.0856 39.2155 26 39 26H26.8125V21.9375C26.8125 21.722 26.7269 21.5153 26.5745 21.363C26.4222 21.2106 26.2155 21.125 26 21.125C25.7845 21.125 25.5778 21.2106 25.4255 21.363C25.2731 21.5153 25.1875 21.722 25.1875 21.9375V26H13C12.7845 26 12.5778 26.0856 12.4255 26.238C12.2731 26.3903 12.1875 26.597 12.1875 26.8125V30.875H10.5625C9.91603 30.875 9.29605 31.1318 8.83893 31.5889C8.38181 32.046 8.125 32.666 8.125 33.3125V34.9375C8.125 35.584 8.38181 36.204 8.83893 36.6611C9.29605 37.1182 9.91603 37.375 10.5625 37.375H12.1875V40.625H6.5C6.28451 40.625 6.07785 40.7106 5.92548 40.863C5.7731 41.0153 5.6875 41.222 5.6875 41.4375V45.5H4.0625C3.41603 45.5 2.79605 45.7568 2.33893 46.2139C1.88181 46.671 1.625 47.291 1.625 47.9375V49.5625C1.625 50.209 1.88181 50.829 2.33893 51.2861C2.79605 51.7432 3.41603 52 4.0625 52H8.9375C9.58397 52 10.204 51.7432 10.6611 51.2861C11.1182 50.829 11.375 50.209 11.375 49.5625V47.9375C11.375 47.291 11.1182 46.671 10.6611 46.2139C10.204 45.7568 9.58397 45.5 8.9375 45.5H7.3125V42.25H18.6875V45.5H17.0625C16.416 45.5 15.796 45.7568 15.3389 46.2139C14.8818 46.671 14.625 47.291 14.625 47.9375V49.5625C14.625 50.209 14.8818 50.829 15.3389 51.2861C15.796 51.7432 16.416 52 17.0625 52H21.9375C22.584 52 23.204 51.7432 23.6611 51.2861C24.1182 50.829 24.375 50.209 24.375 49.5625V47.9375C24.375 47.291 24.1182 46.671 23.6611 46.2139C23.204 45.7568 22.584 45.5 21.9375 45.5H20.3125V41.4375C20.3125 41.222 20.2269 41.0153 20.0745 40.863C19.9222 40.7106 19.7155 40.625 19.5 40.625H13.8125V37.375H15.4375C16.084 37.375 16.704 37.1182 17.1611 36.6611C17.6182 36.204 17.875 35.584 17.875 34.9375V33.3125C17.875 32.666 17.6182 32.046 17.1611 31.5889C16.704 31.1318 16.084 30.875 15.4375 30.875H13.8125V27.625H38.1875V30.875H36.5625C35.916 30.875 35.296 31.1318 34.8389 31.5889C34.3818 32.046 34.125 32.666 34.125 33.3125V34.9375C34.125 35.584 34.3818 36.204 34.8389 36.6611C35.296 37.1182 35.916 37.375 36.5625 37.375H38.1875V40.625H32.5C32.2845 40.625 32.0778 40.7106 31.9255 40.863C31.7731 41.0153 31.6875 41.222 31.6875 41.4375V45.5H30.0625C29.416 45.5 28.796 45.7568 28.3389 46.2139C27.8818 46.671 27.625 47.291 27.625 47.9375V49.5625C27.625 50.209 27.8818 50.829 28.3389 51.2861C28.796 51.7432 29.416 52 30.0625 52H34.9375C35.584 52 36.204 51.7432 36.6611 51.2861C37.1182 50.829 37.375 50.209 37.375 49.5625V47.9375C37.375 47.291 37.1182 46.671 36.6611 46.2139C36.204 45.7568 35.584 45.5 34.9375 45.5H33.3125V42.25H44.6875V45.5H43.0625C42.416 45.5 41.796 45.7568 41.3389 46.2139C40.8818 46.671 40.625 47.291 40.625 47.9375V49.5625C40.625 50.209 40.8818 50.829 41.3389 51.2861C41.796 51.7432 42.416 52 43.0625 52H47.9375C48.584 52 49.204 51.7432 49.6611 51.2861C50.1182 50.829 50.375 50.209 50.375 49.5625V47.9375C50.375 47.291 50.1182 46.671 49.6611 46.2139C49.204 45.7568 48.584 45.5 47.9375 45.5ZM9.75 47.9375V49.5625C9.75 49.778 9.6644 49.9847 9.51202 50.137C9.35965 50.2894 9.15299 50.375 8.9375 50.375H4.0625C3.84701 50.375 3.64035 50.2894 3.48798 50.137C3.3356 49.9847 3.25 49.778 3.25 49.5625V47.9375C3.25 47.722 3.3356 47.5153 3.48798 47.363C3.64035 47.2106 3.84701 47.125 4.0625 47.125H8.9375C9.15299 47.125 9.35965 47.2106 9.51202 47.363C9.6644 47.5153 9.75 47.722 9.75 47.9375ZM22.75 47.9375V49.5625C22.75 49.778 22.6644 49.9847 22.512 50.137C22.3597 50.2894 22.153 50.375 21.9375 50.375H17.0625C16.847 50.375 16.6403 50.2894 16.488 50.137C16.3356 49.9847 16.25 49.778 16.25 49.5625V47.9375C16.25 47.722 16.3356 47.5153 16.488 47.363C16.6403 47.2106 16.847 47.125 17.0625 47.125H21.9375C22.153 47.125 22.3597 47.2106 22.512 47.363C22.6644 47.5153 22.75 47.722 22.75 47.9375ZM16.25 33.3125V34.9375C16.25 35.153 16.1644 35.3597 16.012 35.512C15.8597 35.6644 15.653 35.75 15.4375 35.75H10.5625C10.347 35.75 10.1403 35.6644 9.98798 35.512C9.8356 35.3597 9.75 35.153 9.75 34.9375V33.3125C9.75 33.097 9.8356 32.8903 9.98798 32.738C10.1403 32.5856 10.347 32.5 10.5625 32.5H15.4375C15.653 32.5 15.8597 32.5856 16.012 32.738C16.1644 32.8903 16.25 33.097 16.25 33.3125ZM35.75 34.9375V33.3125C35.75 33.097 35.8356 32.8903 35.988 32.738C36.1403 32.5856 36.347 32.5 36.5625 32.5H41.4375C41.653 32.5 41.8597 32.5856 42.012 32.738C42.1644 32.8903 42.25 33.097 42.25 33.3125V34.9375C42.25 35.153 42.1644 35.3597 42.012 35.512C41.8597 35.6644 41.653 35.75 41.4375 35.75H36.5625C36.347 35.75 36.1403 35.6644 35.988 35.512C35.8356 35.3597 35.75 35.153 35.75 34.9375ZM35.75 47.9375V49.5625C35.75 49.778 35.6644 49.9847 35.512 50.137C35.3597 50.2894 35.153 50.375 34.9375 50.375H30.0625C29.847 50.375 29.6403 50.2894 29.488 50.137C29.3356 49.9847 29.25 49.778 29.25 49.5625V47.9375C29.25 47.722 29.3356 47.5153 29.488 47.363C29.6403 47.2106 29.847 47.125 30.0625 47.125H34.9375C35.153 47.125 35.3597 47.2106 35.512 47.363C35.6644 47.5153 35.75 47.722 35.75 47.9375ZM48.75 49.5625C48.75 49.778 48.6644 49.9847 48.512 50.137C48.3597 50.2894 48.153 50.375 47.9375 50.375H43.0625C42.847 50.375 42.6403 50.2894 42.488 50.137C42.3356 49.9847 42.25 49.778 42.25 49.5625V47.9375C42.25 47.722 42.3356 47.5153 42.488 47.363C42.6403 47.2106 42.847 47.125 43.0625 47.125H47.9375C48.153 47.125 48.3597 47.2106 48.512 47.363C48.6644 47.5153 48.75 47.722 48.75 47.9375V49.5625Z" fill="#94A3B8"/>
</svg>
