<svg width="52" height="52" viewBox="0 0 52 52" fill="none" xmlns="http://www.w3.org/2000/svg">
<path fill-rule="evenodd" clip-rule="evenodd" d="M14.333 37.6191C14.333 39.291 15.6883 40.6465 17.3603 40.6465C19.0323 40.6465 20.3877 39.291 20.3877 37.6191C20.3877 35.9472 19.0323 34.5917 17.3603 34.5917C15.6883 34.5917 14.333 35.9472 14.333 37.6191ZM17.3603 39.123C16.5298 39.123 15.8564 38.4497 15.8564 37.6191C15.8564 36.7885 16.5298 36.1152 17.3603 36.1152C18.1909 36.1152 18.8642 36.7885 18.8642 37.6191C18.8642 38.4497 18.1909 39.123 17.3603 39.123Z" fill="#94A3B8"/>
<path fill-rule="evenodd" clip-rule="evenodd" d="M18.6615 32.9559C19.0687 33.0615 19.4845 32.817 19.5901 32.4098C20.2788 29.7538 21.6274 26.598 24.2494 24.2963C26.8442 22.0183 30.7763 20.4976 36.8103 21.2542C37.2277 21.3065 37.6085 21.0105 37.6609 20.5931C37.7132 20.1757 37.4172 19.7949 36.9998 19.7426C30.5975 18.9398 26.2121 20.546 23.2443 23.1514C20.3036 25.7329 18.8442 29.2169 18.1154 32.0274C18.0098 32.4346 18.2543 32.8503 18.6615 32.9559Z" fill="#94A3B8"/>
<path fill-rule="evenodd" clip-rule="evenodd" d="M34.2305 23.4919C34.5442 23.7721 35.0257 23.745 35.306 23.4313L37.4731 21.0058C37.75 20.6959 37.7273 20.2212 37.4222 19.9391L35.0494 17.7448C34.7405 17.4592 34.2586 17.478 33.973 17.7869C33.6874 18.0957 33.7062 18.5777 34.0151 18.8633L35.8381 20.5492L34.17 22.4163C33.8897 22.73 33.9168 23.2116 34.2305 23.4919Z" fill="#94A3B8"/>
<path fill-rule="evenodd" clip-rule="evenodd" d="M36.5857 39.1792C36.8831 38.8818 36.8831 38.3995 36.5857 38.102L32.4703 33.9865C32.1728 33.689 31.6905 33.689 31.393 33.9865C31.0956 34.284 31.0956 34.7662 31.393 35.0637L35.5084 39.1792C35.8059 39.4767 36.2882 39.4767 36.5857 39.1792Z" fill="#94A3B8"/>
<path fill-rule="evenodd" clip-rule="evenodd" d="M31.393 39.1792C31.6905 39.4767 32.1728 39.4767 32.4703 39.1792L36.5857 35.0637C36.8831 34.7662 36.8831 34.284 36.5857 33.9865C36.2882 33.689 35.8059 33.689 35.5084 33.9865L31.393 38.102C31.0956 38.3995 31.0956 38.8818 31.393 39.1792Z" fill="#94A3B8"/>
<path fill-rule="evenodd" clip-rule="evenodd" d="M20.5935 18.4956C20.891 18.1982 20.891 17.7159 20.5935 17.4184L16.4781 13.303C16.1806 13.0055 15.6983 13.0055 15.4008 13.303C15.1034 13.6005 15.1034 14.0828 15.4008 14.3802L19.5163 18.4956C19.8137 18.7931 20.296 18.7931 20.5935 18.4956Z" fill="#94A3B8"/>
<path fill-rule="evenodd" clip-rule="evenodd" d="M15.4008 18.4956C15.6983 18.7931 16.1806 18.7931 16.4781 18.4956L20.5935 14.3802C20.891 14.0828 20.891 13.6005 20.5935 13.303C20.296 13.0055 19.8137 13.0055 19.5163 13.303L15.4008 17.4184C15.1034 17.7159 15.1034 18.1982 15.4008 18.4956Z" fill="#94A3B8"/>
<path fill-rule="evenodd" clip-rule="evenodd" d="M10.3374 47.9883C10.3374 48.409 10.6784 48.75 11.0991 48.75H40.9012C41.3219 48.75 41.6629 48.409 41.6629 47.9883V5.25545C41.6629 4.83477 41.3219 4.49374 40.9012 4.49374C40.4805 4.49374 40.1395 4.83477 40.1395 5.25545V47.2266H11.8608V5.25545C11.8608 4.83477 11.5198 4.49374 11.0991 4.49374C10.6784 4.49374 10.3374 4.83477 10.3374 5.25545V47.9883Z" fill="#94A3B8"/>
<path fill-rule="evenodd" clip-rule="evenodd" d="M19.2232 6.74609C18.9743 6.74609 18.7725 6.54428 18.7725 6.29536V4.21495C18.7725 3.96604 18.9743 3.76422 19.2232 3.76422H23.5922C23.9921 3.76422 24.3239 3.45503 24.352 3.05616C24.4125 2.19957 25.1276 1.52284 26 1.52284C26.8724 1.52284 27.5874 2.19955 27.6479 3.05616C27.676 3.45503 28.0078 3.76422 28.4077 3.76422H32.7768C33.0257 3.76422 33.2275 3.96604 33.2275 4.21495V6.29536C33.2275 6.54428 33.0257 6.74609 32.7768 6.74609H19.2232ZM17.249 6.29536C17.249 7.38565 18.1329 8.26953 19.2232 8.26953H32.7768C33.8671 8.26953 34.751 7.38565 34.751 6.29536V4.21495C34.751 3.12467 33.8671 2.24078 32.7768 2.24078H29.0357C28.6367 0.942747 27.4289 -0.000600647 26 -0.000600647C24.5712 -0.000600647 23.3632 0.942735 22.9642 2.24078H19.2232C18.1329 2.24078 17.249 3.12467 17.249 4.21495V6.29536Z" fill="#94A3B8"/>
<path fill-rule="evenodd" clip-rule="evenodd" d="M9.69299 50.4766C9.09538 50.4766 8.61084 49.9921 8.61084 49.3944V7.09963C8.61084 6.50197 9.09538 6.01748 9.69299 6.01748H14.9635C15.3842 6.01748 15.7252 5.67644 15.7252 5.25576C15.7252 4.83508 15.3842 4.49404 14.9635 4.49404H9.69299C8.25406 4.49404 7.0874 5.66054 7.0874 7.09963V49.3944C7.0874 50.8335 8.25406 52 9.69299 52H42.3067C43.7458 52 44.9123 50.8335 44.9123 49.3944V7.09963C44.9123 5.66057 43.7458 4.49404 42.3067 4.49404H37.0782C36.6575 4.49404 36.3165 4.83508 36.3165 5.25576C36.3165 5.67644 36.6575 6.01748 37.0782 6.01748H42.3067C42.9044 6.01748 43.3889 6.50194 43.3889 7.09963V49.3944C43.3889 49.9921 42.9044 50.4766 42.3067 50.4766H9.69299Z" fill="#94A3B8"/>
</svg>
