<svg width="24" height="24" viewBox="0 0 24 24" fill="none" xmlns="http://www.w3.org/2000/svg">
<path fill-rule="evenodd" clip-rule="evenodd" d="M12 21C16.9706 21 21 16.9707 21 12C21 7.02944 16.9707 2.99998 12 2.99998C7.02944 2.99998 2.99998 7.02944 2.99998 12C2.99998 16.9706 7.02944 21 12 21ZM12 22C17.5228 22 22 17.5228 22 12C22 6.47711 17.5228 2 12 2C6.47711 2 2 6.47711 2 12C2 17.5228 6.47711 22 12 22Z" fill="currentColor"/>
<path fill-rule="evenodd" clip-rule="evenodd" d="M16 12C16 12.2761 15.7761 12.5 15.5001 12.5H8.49999C8.22382 12.5 8 12.2761 8 12C8 11.7239 8.22382 11.5 8.49999 11.5H15.4999C15.7761 11.5 16 11.7239 16 12Z" fill="currentColor"/>
<path fill-rule="evenodd" clip-rule="evenodd" d="M12 16C11.7239 16 11.5 15.7761 11.5 15.5V8.49997C11.5 8.2238 11.7239 7.99998 12 7.99998C12.276 7.99998 12.5 8.2238 12.5 8.49997V15.4999C12.5 15.7761 12.276 16 12 16Z" fill="currentColor"/>
</svg>
