<svg width="24" height="24" viewBox="0 0 24 24" fill="none" xmlns="http://www.w3.org/2000/svg">
<path d="M21.1875 8.48424V2.15612C21.1875 1.8729 21.0175 1.61743 20.7563 1.50788C20.4952 1.39829 20.1936 1.45622 19.9915 1.65465C19.9363 1.70883 14.407 7.07799 9.14062 7.07799H4.21875C1.89253 7.07799 0 8.97052 0 11.2967C0 13.3885 1.53038 15.1293 3.5302 15.459C3.67823 18.8328 4.9163 21.965 4.97217 22.1048C5.07895 22.3717 5.33747 22.5467 5.625 22.5467H9.14062C9.39375 22.5467 9.62723 22.4105 9.75211 22.1903C9.87698 21.9701 9.87375 21.6995 9.74381 21.4823C9.7312 21.4612 8.94258 20.1274 8.3572 18.3275H10.3474C10.8217 18.3285 11.1625 17.8653 11.0171 17.4106C10.8144 16.7773 10.6771 16.1869 10.6055 15.6453C15.3839 16.4642 19.9415 20.8896 19.9914 20.9386C20.1923 21.1363 20.4935 21.1959 20.7562 21.0858C21.0175 20.9763 21.1876 20.7207 21.1876 20.4374V14.1092C22.7384 14.1092 24.0001 12.8476 24.0001 11.2967C24.0001 9.74593 22.7383 8.48424 21.1875 8.48424ZM1.40625 11.2967C1.40625 9.74593 2.66794 8.48424 4.21875 8.48424H8.4375V14.1092H4.21875C2.66794 14.1092 1.40625 12.8476 1.40625 11.2967ZM6.11555 21.1405C5.78756 20.2035 5.06686 17.9075 4.94105 15.5155H6.35311C6.51084 17.7725 7.38028 19.9116 7.97437 21.1405H6.11555ZM7.97527 16.9217C7.87673 16.4633 7.8023 15.991 7.76381 15.5155C7.76381 15.5155 9.16416 15.516 9.17592 15.5161C9.21834 15.9605 9.29892 16.4297 9.4185 16.9217H7.97527ZM19.7812 18.8735C17.1096 16.6539 13.5544 14.4975 10.0975 14.1572C10.0187 14.1266 9.93333 14.1092 9.84375 14.1092V8.45822C13.3936 8.19854 17.0553 5.98468 19.7812 3.71996V18.8735ZM21.1875 12.703V9.89049C21.9629 9.89049 22.5938 10.5213 22.5938 11.2967C22.5938 12.0721 21.9629 12.703 21.1875 12.703Z" fill="currentColor"/>
</svg>
