<svg width="24" height="24" viewBox="-3 -3 30 30" fill="none" xmlns="http://www.w3.org/2000/svg">
<path d="M16.1724 6.86346V4.1302C16.1702 3.76229 15.9899 3.41822 15.6886 3.20672C15.3874 2.99518 15.0023 2.94237 14.6552 3.06507L4.41376 6.81423C4.37244 6.82912 4.32876 6.8369 4.28473 6.8369H2.13791C1.83616 6.8369 1.54658 6.95672 1.33325 7.16995C1.11993 7.38319 1 7.67259 1 7.97412V11.7649C1 12.0665 1.11989 12.3559 1.33325 12.5691C1.54662 12.7823 1.8362 12.9021 2.13791 12.9021H4.03447V20.1046C4.03447 20.7817 4.396 21.4075 4.98274 21.746C5.56948 22.0847 6.29256 22.0847 6.8793 21.746C7.46604 21.4076 7.82758 20.7817 7.82758 20.1046V17.4511H8.96551C9.26726 17.4511 9.55684 17.3313 9.77017 17.118C9.98349 16.9048 10.1034 16.6154 10.1034 16.3139V15.0136L14.6552 16.6929C14.7762 16.7398 14.9048 16.7642 15.0345 16.765C15.2678 16.7652 15.4956 16.6938 15.6869 16.5603C15.997 16.3435 16.179 15.9869 16.1724 15.6088V12.8756C17.1527 12.7451 18.008 12.1454 18.4642 11.2685C18.9203 10.3916 18.9203 9.34741 18.4642 8.47045C18.008 7.59368 17.1527 6.99391 16.1724 6.86342L16.1724 6.86346ZM2.13789 12.1441C1.92843 12.1441 1.75858 11.9744 1.75858 11.7651V7.97428C1.75858 7.76494 1.92843 7.5952 2.13789 7.5952H4.03445V12.1441H2.13789ZM5.931 21.242C5.62925 21.242 5.33967 21.1222 5.12634 20.909C4.91302 20.6958 4.79309 20.4064 4.79309 20.1048V13.0652L7.06896 13.8992V20.1048C7.06896 20.4064 6.94907 20.6958 6.73571 20.909C6.52234 21.1222 6.23276 21.242 5.93105 21.242H5.931ZM9.3448 16.314C9.3448 16.4145 9.30484 16.511 9.23372 16.5821C9.1626 16.6532 9.06608 16.6931 8.96549 16.6931H7.82756V14.1798L9.3448 14.7332V16.314ZM15.4138 15.609C15.4136 15.7331 15.3526 15.8492 15.2507 15.9197C15.1498 15.99 15.0211 16.0069 14.9054 15.9653L4.79322 12.2579V7.4815L14.9054 3.77415C15.0211 3.73252 15.1498 3.74944 15.2507 3.81968C15.3527 3.89025 15.4136 4.00634 15.4138 4.13039V15.609ZM16.1724 12.1101V7.62921C16.8814 7.75325 17.4898 8.20528 17.8131 8.84802C18.1364 9.49059 18.1364 10.2484 17.8131 10.891C17.4898 11.5337 16.8814 11.9858 16.1724 12.1098V12.1101Z" fill="currentColor"/>
<path d="M20.3448 10.2492H22.6206C22.8301 10.2492 22.9999 10.0794 22.9999 9.86991C22.9999 9.66045 22.8301 9.4906 22.6206 9.4906H20.3448C20.1353 9.4906 19.9655 9.66045 19.9655 9.86991C19.9655 10.0794 20.1353 10.2492 20.3448 10.2492Z" fill="currentColor"/>
<path d="M20.5533 11.8296C20.3807 11.737 20.166 11.791 20.0578 11.9541C19.9496 12.1175 19.9835 12.3361 20.136 12.4588L22.4119 13.9751C22.473 14.0179 22.546 14.0404 22.6205 14.0396C22.7868 14.0382 22.9329 13.9289 22.9809 13.7696C23.0288 13.6104 22.9671 13.4386 22.8291 13.3459L20.5533 11.8296Z" fill="currentColor"/>
<path d="M20.3448 7.97427C20.4193 7.97511 20.4923 7.9526 20.5535 7.90979L22.8293 6.39347C22.9819 6.27078 23.0158 6.05213 22.9075 5.88884C22.7993 5.7257 22.5846 5.67172 22.4121 5.76429L20.1362 7.2806C19.9982 7.37334 19.9365 7.54511 19.9845 7.70436C20.0324 7.8636 20.1785 7.97293 20.3448 7.97428L20.3448 7.97427Z" fill="currentColor"/>
</svg>
