<svg width="24" height="24" viewBox="0 0 24 24" fill="none" xmlns="http://www.w3.org/2000/svg">
<path d="M19.6563 9.0702V3.79676C19.6563 3.56075 19.5146 3.34786 19.2969 3.25657C19.0793 3.16524 18.828 3.21352 18.6596 3.37887C18.6136 3.42403 14.0059 7.89832 9.61719 7.89832H5.51563C3.57711 7.89832 2 9.47543 2 11.4139C2 13.1571 3.27531 14.6077 4.94184 14.8825C5.0652 17.694 6.09691 20.3041 6.14348 20.4206C6.23246 20.6431 6.44789 20.7889 6.6875 20.7889H9.61719C9.82813 20.7889 10.0227 20.6754 10.1268 20.4919C10.2308 20.3084 10.2281 20.0829 10.1198 19.9019C10.1093 19.8843 9.45215 18.7729 8.96434 17.2729H10.6228C11.0181 17.2738 11.3021 16.8877 11.1809 16.5088C11.012 15.9811 10.8976 15.4891 10.8379 15.0377C14.8199 15.7202 18.6179 19.408 18.6595 19.4489C18.8269 19.6136 19.0779 19.6633 19.2968 19.5715C19.5146 19.4803 19.6563 19.2672 19.6563 19.0311V13.7577C20.9487 13.7577 22.0001 12.7063 22.0001 11.4139C22.0001 10.1216 20.9486 9.0702 19.6563 9.0702V9.0702ZM3.17188 11.4139C3.17188 10.1216 4.22328 9.0702 5.51563 9.0702H9.03125V13.7577H5.51563C4.22328 13.7577 3.17188 12.7063 3.17188 11.4139V11.4139ZM7.09629 19.6171C6.82297 18.8363 6.22238 16.9229 6.11754 14.9296H7.29426C7.4257 16.8104 8.15023 18.593 8.64531 19.6171H7.09629ZM8.64606 16.1014C8.56395 15.7194 8.50191 15.3258 8.46984 14.9296C8.46984 14.9296 9.6368 14.93 9.6466 14.93C9.68195 15.3004 9.7491 15.6914 9.84875 16.1014H8.64606ZM18.4844 17.7279C16.258 15.8783 13.2953 14.0813 10.4146 13.7977C10.3489 13.7722 10.2778 13.7577 10.2031 13.7577V9.04852C13.1614 8.83211 16.2127 6.98723 18.4844 5.09997V17.7279ZM19.6563 12.5858V10.2421C20.3024 10.2421 20.8281 10.7678 20.8281 11.4139C20.8281 12.0601 20.3024 12.5858 19.6563 12.5858Z" fill="currentColor"/>
</svg>
