<svg width="24" height="24" viewBox="-3 -3 30 30" fill="none" xmlns="http://www.w3.org/2000/svg">
<path d="M6.23835 15.7976H6.2797C6.52615 15.7976 6.71978 15.6055 6.71978 15.3707V8.06479C6.71978 7.83 6.52617 7.63794 6.2797 7.63794L2.38601 7.6381C1.6249 7.6381 1 8.24405 1 8.98671V14.4535C1 15.1917 1.62473 15.7978 2.38601 15.7978H2.64225L4.21632 19.9545C4.45382 20.5774 5.07431 21 5.76066 21C5.95427 21 6.1435 20.9659 6.32817 20.9019L6.41173 20.8721C6.8209 20.7228 7.15088 20.4283 7.33575 20.0442C7.52058 19.6558 7.53814 19.2247 7.3842 18.8236L6.23835 15.7976Z" fill="currentColor"/>
<path d="M19.7211 3.01623C19.5319 2.96498 19.3295 3.03751 19.2284 3.19976C17.1429 6.43037 13.5572 8.35931 9.62781 8.35931H7.59949V15.0764H9.62781C13.5524 15.0764 17.1382 17.0011 19.2241 20.2359L19.2285 20.2402C19.312 20.3639 19.4528 20.4365 19.598 20.4365C19.642 20.4365 19.6815 20.4322 19.7256 20.4195C19.9104 20.364 20.038 20.1976 20.038 20.0098L20.0379 3.42591C20.0379 3.23812 19.9104 3.06735 19.7212 3.01627L19.7211 3.01623Z" fill="currentColor"/>
<path d="M20.9182 8.67902V14.7586C22.1401 14.2581 23 13.0842 23 11.7189C23 10.3536 22.1402 9.1795 20.9182 8.67918V8.67902Z" fill="currentColor"/>
</svg>
