<svg width="32" height="32" viewBox="-2 -4 15 15" fill="none" xmlns="http://www.w3.org/2000/svg">
<path d="M11.5 3.74913C11.4955 3.63295 11.4479 3.49863 11.3685 3.41394L8.78026 0.65133C8.60491 0.492978 8.26854 0.427686 8.07255 0.61075C7.87948 0.791092 7.88523 1.14068 8.07751 1.32169L9.89735 3.26162H0.98532C0.717333 3.26162 0.5 3.47993 0.5 3.74915C0.5 4.01837 0.717324 4.23668 0.98532 4.23668H9.89735L8.07751 6.17661C7.91186 6.34323 7.88129 6.70529 8.07255 6.88755C8.26369 7.06993 8.61203 7.01167 8.78026 6.84686L11.3685 4.08424C11.4571 3.98971 11.5002 3.87874 11.5 3.74905V3.74913Z" fill="currentColor"/>
</svg>
