<svg width="32" height="32" viewBox="-2 -4 15 15" fill="none" xmlns="http://www.w3.org/2000/svg">
<path d="M0.500001 3.75087C0.504514 3.86705 0.552134 4.00137 0.631458 4.08606L3.21974 6.84867C3.39509 7.00702 3.73146 7.07231 3.92745 6.88925C4.12052 6.70891 4.11477 6.35932 3.92249 6.17831L2.10265 4.23838L11.0147 4.23838C11.2827 4.23838 11.5 4.02007 11.5 3.75085C11.5 3.48163 11.2827 3.26332 11.0147 3.26332L2.10265 3.26332L3.92249 1.32339C4.08814 1.15677 4.11871 0.794713 3.92745 0.612451C3.73631 0.430066 3.38797 0.48833 3.21974 0.653142L0.631458 3.41576C0.542881 3.51029 0.499775 3.62126 0.500001 3.75095V3.75087Z" fill="currentColor"/>
</svg>
