<svg width="24" height="24" viewBox="-3 -3 22 22" fill="none" xmlns="http://www.w3.org/2000/svg">
<path d="M6 6H1.875C1.57663 6 1.29048 6.11853 1.0795 6.3295C0.868526 6.54048 0.75 6.82663 0.75 7.125V9.75C0.75 10.0484 0.868526 10.3345 1.0795 10.5455C1.29048 10.7565 1.57663 10.875 1.875 10.875H6V6Z" fill="currentColor"/>
<path d="M15.2587 2.06977C15.1023 1.96389 14.9217 1.89911 14.7336 1.88141C14.5455 1.86372 14.356 1.89367 14.1825 1.96852L6.75 5.76352V11.1148L14.1788 14.9323C14.538 15.0426 14.9263 15.0062 15.2587 14.831C15.4102 14.7278 15.5341 14.5891 15.6197 14.427C15.7054 14.2649 15.7501 14.0843 15.75 13.901V2.99977C15.7501 2.81647 15.7054 2.63592 15.6197 2.47383C15.5341 2.31175 15.4102 2.17304 15.2587 2.06977V2.06977Z" fill="currentColor"/>
<path d="M6.20627 11.625H3.17627L4.22627 15.3075C4.29324 15.5432 4.43533 15.7506 4.63095 15.8981C4.82656 16.0457 5.065 16.1253 5.31002 16.125H6.00002C6.17132 16.1176 6.33885 16.0723 6.49061 15.9925C6.64237 15.9127 6.7746 15.8003 6.87782 15.6634C6.98104 15.5265 7.0527 15.3685 7.08765 15.2006C7.12261 15.0327 7.12 14.8592 7.08002 14.6925L6.20627 11.625Z" fill="currentColor"/>
<path d="M16.5 7.19238V9.68238C16.7188 9.60502 16.9084 9.46186 17.0426 9.27253C17.1769 9.08321 17.2493 8.85699 17.25 8.62488V8.24988C17.2493 8.01778 17.1769 7.79156 17.0426 7.60223C16.9084 7.41291 16.7188 7.26975 16.5 7.19238V7.19238Z" fill="currentColor"/>
</svg>
