<svg width="24" height="24" viewBox="0 0 24 24" fill="none" xmlns="http://www.w3.org/2000/svg">
<path d="M5.64723 0.706055C5.29429 0.706055 4.94135 0.988408 4.94135 1.41194V2.11782H2.8237C1.69429 2.11782 0.706055 3.03547 0.706055 4.23547V7.059V21.1766C0.706055 22.3766 1.6237 23.2943 2.8237 23.2943H21.1766C22.3766 23.2943 23.2943 22.3766 23.2943 21.1766V7.059V4.23547C23.2943 3.03547 22.3766 2.11782 21.1766 2.11782H19.059V1.41194C19.059 0.988408 18.7766 0.706055 18.3531 0.706055C17.9296 0.706055 17.6472 0.988408 17.6472 1.41194V2.11782H6.35311V1.41194C6.35311 0.988408 6.07076 0.706055 5.64723 0.706055ZM21.8825 21.1766C21.8825 21.6002 21.6002 21.8825 21.1766 21.8825H2.8237C2.40017 21.8825 2.11782 21.6002 2.11782 21.1766V7.76488H21.8825V21.1766ZM17.6472 3.52958V4.23547C17.6472 4.659 17.9296 4.94135 18.3531 4.94135C18.7766 4.94135 19.059 4.659 19.059 4.23547V3.52958H21.1766C21.6002 3.52958 21.8825 3.81194 21.8825 4.23547V6.35311H2.11782V4.23547C2.11782 3.81194 2.40017 3.52958 2.8237 3.52958H4.94135V4.23547C4.94135 4.659 5.2237 4.94135 5.64723 4.94135C6.07076 4.94135 6.35311 4.659 6.35311 4.23547V3.52958H17.6472Z" fill="currentColor"/>
<path d="M5.01155 13.7651H7.83508C8.25861 13.7651 8.54096 13.4827 8.54096 13.0592V10.2357C8.54096 9.81214 8.25861 9.52979 7.83508 9.52979H5.01155C4.58802 9.52979 4.30566 9.81214 4.30566 10.2357V13.0592C4.30566 13.4827 4.58802 13.7651 5.01155 13.7651ZM5.71743 10.9415H7.12919V12.3533H5.71743V10.9415Z" fill="currentColor"/>
<path d="M10.659 13.7651H13.4825C13.9061 13.7651 14.1884 13.4827 14.1884 13.0592V10.2357C14.1884 9.81214 13.9061 9.52979 13.4825 9.52979H10.659C10.2355 9.52979 9.95312 9.81214 9.95312 10.2357V13.0592C9.95312 13.4827 10.2355 13.7651 10.659 13.7651V13.7651ZM11.3649 10.9415H12.7767V12.3533H11.3649V10.9415Z" fill="currentColor"/>
<path d="M16.3065 13.7651H19.13C19.5535 13.7651 19.8359 13.4827 19.8359 13.0592V10.2357C19.8359 9.81214 19.5535 9.52979 19.13 9.52979H16.3065C15.8829 9.52979 15.6006 9.81214 15.6006 10.2357V13.0592C15.6006 13.4827 15.8829 13.7651 16.3065 13.7651ZM17.0124 10.9415H18.4241V12.3533H17.0124V10.9415Z" fill="currentColor"/>
<path d="M5.01155 20.1176H7.83508C8.25861 20.1176 8.54096 19.8353 8.54096 19.4117V16.5882C8.54096 16.1647 8.25861 15.8823 7.83508 15.8823H5.01155C4.58802 15.8823 4.30566 16.1647 4.30566 16.5882V19.4117C4.30566 19.8353 4.58802 20.1176 5.01155 20.1176ZM5.71743 17.2941H7.12919V18.7059H5.71743V17.2941Z" fill="currentColor"/>
<path d="M10.659 20.1176H13.4825C13.9061 20.1176 14.1884 19.8353 14.1884 19.4117V16.5882C14.1884 16.1647 13.9061 15.8823 13.4825 15.8823H10.659C10.2355 15.8823 9.95312 16.1647 9.95312 16.5882V19.4117C9.95312 19.8353 10.2355 20.1176 10.659 20.1176V20.1176ZM11.3649 17.2941H12.7767V18.7059H11.3649V17.2941Z" fill="currentColor"/>
<path d="M16.3065 20.1176H19.13C19.5535 20.1176 19.8359 19.8353 19.8359 19.4117V16.5882C19.8359 16.1647 19.5535 15.8823 19.13 15.8823H16.3065C15.8829 15.8823 15.6006 16.1647 15.6006 16.5882V19.4117C15.6006 19.8353 15.8829 20.1176 16.3065 20.1176ZM17.0124 17.2941H18.4241V18.7059H17.0124V17.2941Z" fill="currentColor"/>
</svg>
