<svg width="24" height="24" viewBox="-3 -3 30 30"  fill="none" xmlns="http://www.w3.org/2000/svg">
<path d="M5.64699 0.705872C5.29405 0.705872 4.9411 0.988225 4.9411 1.41175V2.11764H2.82346C1.69405 2.11764 0.705811 3.03528 0.705811 4.23528V7.05881V21.1765C0.705811 22.3765 1.62346 23.2941 2.82346 23.2941H21.1764C22.3764 23.2941 23.294 22.3765 23.294 21.1765V7.05881V4.23528C23.294 3.03528 22.3764 2.11764 21.1764 2.11764H19.0588V1.41175C19.0588 0.988225 18.7764 0.705872 18.3529 0.705872C17.9293 0.705872 17.647 0.988225 17.647 1.41175V2.11764H6.35287V1.41175C6.35287 0.988225 6.07052 0.705872 5.64699 0.705872ZM21.8823 21.1765C21.8823 21.6 21.5999 21.8823 21.1764 21.8823H2.82346C2.39993 21.8823 2.11758 21.6 2.11758 21.1765V7.7647H21.8823V21.1765ZM17.647 3.5294V4.23528C17.647 4.65881 17.9293 4.94117 18.3529 4.94117C18.7764 4.94117 19.0588 4.65881 19.0588 4.23528V3.5294H21.1764C21.5999 3.5294 21.8823 3.81175 21.8823 4.23528V6.35293H2.11758V4.23528C2.11758 3.81175 2.39993 3.5294 2.82346 3.5294H4.9411V4.23528C4.9411 4.65881 5.22346 4.94117 5.64699 4.94117C6.07052 4.94117 6.35287 4.65881 6.35287 4.23528V3.5294H17.647Z" fill="currentColor"/>
<path d="M5.01179 13.7647H7.83532C8.25885 13.7647 8.5412 13.4824 8.5412 13.0588V10.2353C8.5412 9.81177 8.25885 9.52942 7.83532 9.52942H5.01179C4.58826 9.52942 4.30591 9.81177 4.30591 10.2353V13.0588C4.30591 13.4824 4.58826 13.7647 5.01179 13.7647ZM5.71767 10.9412H7.12944V12.3529H5.71767V10.9412Z" fill="currentColor"/>
<path d="M10.6588 13.7647H13.4823C13.9058 13.7647 14.1882 13.4824 14.1882 13.0588V10.2353C14.1882 9.81177 13.9058 9.52942 13.4823 9.52942H10.6588C10.2352 9.52942 9.95288 9.81177 9.95288 10.2353V13.0588C9.95288 13.4824 10.2352 13.7647 10.6588 13.7647ZM11.3646 10.9412H12.7764V12.3529H11.3646V10.9412Z" fill="currentColor"/>
<path d="M16.3057 13.7647H19.1293C19.5528 13.7647 19.8351 13.4824 19.8351 13.0588V10.2353C19.8351 9.81177 19.5528 9.52942 19.1293 9.52942H16.3057C15.8822 9.52942 15.5999 9.81177 15.5999 10.2353V13.0588C15.5999 13.4824 15.8822 13.7647 16.3057 13.7647ZM17.0116 10.9412H18.4234V12.3529H17.0116V10.9412Z" fill="currentColor"/>
<path d="M5.01179 20.1176H7.83532C8.25885 20.1176 8.5412 19.8353 8.5412 19.4117V16.5882C8.5412 16.1647 8.25885 15.8823 7.83532 15.8823H5.01179C4.58826 15.8823 4.30591 16.1647 4.30591 16.5882V19.4117C4.30591 19.8353 4.58826 20.1176 5.01179 20.1176ZM5.71767 17.2941H7.12944V18.7059H5.71767V17.2941Z" fill="currentColor"/>
<path d="M10.6588 20.1176H13.4823C13.9058 20.1176 14.1882 19.8353 14.1882 19.4117V16.5882C14.1882 16.1647 13.9058 15.8823 13.4823 15.8823H10.6588C10.2352 15.8823 9.95288 16.1647 9.95288 16.5882V19.4117C9.95288 19.8353 10.2352 20.1176 10.6588 20.1176ZM11.3646 17.2941H12.7764V18.7059H11.3646V17.2941Z" fill="currentColor"/>
<path d="M16.3057 20.1176H19.1293C19.5528 20.1176 19.8351 19.8353 19.8351 19.4117V16.5882C19.8351 16.1647 19.5528 15.8823 19.1293 15.8823H16.3057C15.8822 15.8823 15.5999 16.1647 15.5999 16.5882V19.4117C15.5999 19.8353 15.8822 20.1176 16.3057 20.1176ZM17.0116 17.2941H18.4234V18.7059H17.0116V17.2941Z" fill="currentColor"/>
</svg>
