<svg width="24" height="24" viewBox="-3 -3 24 24" fill="none" xmlns="http://www.w3.org/2000/svg">
<path d="M15.6706 1.05859H14.0824V2.64683C14.0824 2.96448 13.8177 3.17624 13.5529 3.17624C13.2882 3.17624 13.0235 2.96448 13.0235 2.64683V1.05859H4.55295V2.64683C4.55295 2.96448 4.28824 3.17624 4.02354 3.17624C3.75883 3.17624 3.49412 2.96448 3.49412 2.64683V1.05859H1.90589C1.11177 1.05859 0.529419 1.74683 0.529419 2.64683V4.55271H17.4706V2.64683C17.4706 1.74683 16.5177 1.05859 15.6706 1.05859ZM0.529419 5.66448V15.3527C0.529419 16.3057 1.11177 16.9409 1.95883 16.9409H15.7235C16.5706 16.9409 17.5235 16.2527 17.5235 15.3527V5.66448H0.529419ZM5.24118 14.5586H3.9706C3.75883 14.5586 3.54707 14.3998 3.54707 14.1351V12.8115C3.54707 12.5998 3.70589 12.388 3.9706 12.388H5.29413C5.50589 12.388 5.71765 12.5468 5.71765 12.8115V14.1351C5.66471 14.3998 5.50589 14.5586 5.24118 14.5586ZM5.24118 9.79389H3.9706C3.75883 9.79389 3.54707 9.63507 3.54707 9.37036V8.04683C3.54707 7.83506 3.70589 7.6233 3.9706 7.6233H5.29413C5.50589 7.6233 5.71765 7.78212 5.71765 8.04683V9.37036C5.66471 9.63507 5.50589 9.79389 5.24118 9.79389ZM9.47648 14.5586H8.15295C7.94118 14.5586 7.72942 14.3998 7.72942 14.1351V12.8115C7.72942 12.5998 7.88824 12.388 8.15295 12.388H9.47648C9.68824 12.388 9.90001 12.5468 9.90001 12.8115V14.1351C9.90001 14.3998 9.74118 14.5586 9.47648 14.5586ZM9.47648 9.79389H8.15295C7.94118 9.79389 7.72942 9.63507 7.72942 9.37036V8.04683C7.72942 7.83506 7.88824 7.6233 8.15295 7.6233H9.47648C9.68824 7.6233 9.90001 7.78212 9.90001 8.04683V9.37036C9.90001 9.63507 9.74118 9.79389 9.47648 9.79389ZM13.7118 14.5586H12.3882C12.1765 14.5586 11.9647 14.3998 11.9647 14.1351V12.8115C11.9647 12.5998 12.1235 12.388 12.3882 12.388H13.7118C13.9235 12.388 14.1353 12.5468 14.1353 12.8115V14.1351C14.1353 14.3998 13.9765 14.5586 13.7118 14.5586ZM13.7118 9.79389H12.3882C12.1765 9.79389 11.9647 9.63507 11.9647 9.37036V8.04683C11.9647 7.83506 12.1235 7.6233 12.3882 7.6233H13.7118C13.9235 7.6233 14.1353 7.78212 14.1353 8.04683V9.37036C14.1353 9.63507 13.9765 9.79389 13.7118 9.79389Z" fill="currentColor"/>
</svg>
