<svg width="22" height="22" viewBox="0 0 22 20" fill="none" xmlns="http://www.w3.org/2000/svg">
<path d="M19.0444 11.1784V2.58443C19.0444 2.22903 18.7489 1.93833 18.3877 1.93833H15.1042V0.646108C15.1042 0.290705 14.8087 0 14.4475 0H12.1491C11.7879 0 11.4924 0.290723 11.4924 0.646108V1.93833H7.55196V0.646108C7.55196 0.290705 7.2565 0 6.89531 0H4.59687C4.23567 0 3.94022 0.290723 3.94022 0.646108V1.93833H0.656655C0.295451 1.93833 0 2.22905 0 2.58443V17.4463C0 17.8017 0.295468 18.0924 0.656655 18.0924H12.0178C12.8715 19.8047 14.6774 21 16.7462 21C19.6358 21 22 18.6738 22 15.8306C21.9998 13.7953 20.7847 12.0183 19.0444 11.1783L19.0444 11.1784ZM12.8056 1.2921H13.7907V3.87682H12.8056V1.2921ZM5.25341 1.2921H6.23854V3.87682H5.25341V1.2921ZM3.9401 3.23048V4.5227C3.9401 4.87811 4.23557 5.16881 4.59676 5.16881H6.89519C7.2564 5.16881 7.55185 4.87809 7.55185 4.5227V3.23048H11.4921V4.5227C11.4921 4.87811 11.7875 5.16881 12.1487 5.16881H14.4472C14.8084 5.16881 15.1038 4.87809 15.1038 4.5227V3.23048H17.7307V6.46132H1.3129V3.23048H3.9401ZM1.31319 16.8V7.75365H17.731V10.7582C17.4026 10.6935 17.0744 10.6613 16.7459 10.6613C13.8563 10.6613 11.4921 12.9875 11.4921 15.8307C11.4921 16.1539 11.5248 16.4769 11.5906 16.8001L1.31319 16.8ZM16.7459 19.7076C14.5787 19.7076 12.8057 17.9631 12.8057 15.8307C12.8057 13.6983 14.5787 11.9537 16.7459 11.9537C18.9132 11.9537 20.6862 13.6983 20.6862 15.8307C20.6862 17.9631 18.9132 19.7076 16.7459 19.7076ZM19.0444 15.8307C19.0444 16.1861 18.7489 16.4768 18.3877 16.4768H17.4026V17.4461C17.4026 17.8015 17.1071 18.0922 16.7459 18.0922C16.3847 18.0922 16.0893 17.8015 16.0893 17.4461V16.4768H15.1042C14.743 16.4768 14.4475 16.1861 14.4475 15.8307C14.4475 15.4753 14.743 15.1846 15.1042 15.1846H16.0893V14.2153C16.0893 13.8599 16.3848 13.5691 16.7459 13.5691C17.1071 13.5691 17.4026 13.8599 17.4026 14.2153V15.1846H18.3877C18.7489 15.1846 19.0444 15.4753 19.0444 15.8307Z" fill="currentColor"/>
</svg>
