<svg width="24" height="24" viewBox="0 0 24 24" fill="none" xmlns="http://www.w3.org/2000/svg">
<path d="M5.64723 0.705078C5.29429 0.705078 4.94135 0.987431 4.94135 1.41096V2.11684H2.8237C1.69429 2.11684 0.706055 3.03449 0.706055 4.23449V7.05802V21.1757C0.706055 22.3757 1.6237 23.2933 2.8237 23.2933H21.1766C22.3766 23.2933 23.2943 22.3757 23.2943 21.1757V7.05802V4.23449C23.2943 3.03449 22.3766 2.11684 21.1766 2.11684H19.059V1.41096C19.059 0.987431 18.7766 0.705078 18.3531 0.705078C17.9296 0.705078 17.6472 0.987431 17.6472 1.41096V2.11684H6.35311V1.41096C6.35311 0.987431 6.07076 0.705078 5.64723 0.705078ZM21.8825 21.1757C21.8825 21.5992 21.6002 21.8815 21.1766 21.8815H2.8237C2.40017 21.8815 2.11782 21.5992 2.11782 21.1757V7.7639H21.8825V21.1757ZM17.6472 3.52861V4.23449C17.6472 4.65802 17.9296 4.94037 18.3531 4.94037C18.7766 4.94037 19.059 4.65802 19.059 4.23449V3.52861H21.1766C21.6002 3.52861 21.8825 3.81096 21.8825 4.23449V6.35214H2.11782V4.23449C2.11782 3.81096 2.40017 3.52861 2.8237 3.52861H4.94135V4.23449C4.94135 4.65802 5.2237 4.94037 5.64723 4.94037C6.07076 4.94037 6.35311 4.65802 6.35311 4.23449V3.52861H17.6472Z" fill="currentColor"/>
<path d="M5.01155 13.7626H7.83508C8.25861 13.7626 8.54096 13.4803 8.54096 13.0568V10.2332C8.54096 9.8097 8.25861 9.52734 7.83508 9.52734H5.01155C4.58802 9.52734 4.30566 9.8097 4.30566 10.2332V13.0568C4.30566 13.4803 4.58802 13.7626 5.01155 13.7626ZM5.71743 10.9391H7.12919V12.3509H5.71743V10.9391Z" fill="currentColor"/>
<path d="M10.659 13.7626H13.4825C13.9061 13.7626 14.1884 13.4803 14.1884 13.0568V10.2332C14.1884 9.8097 13.9061 9.52734 13.4825 9.52734H10.659C10.2355 9.52734 9.95312 9.8097 9.95312 10.2332V13.0568C9.95312 13.4803 10.2355 13.7626 10.659 13.7626ZM11.3649 10.9391H12.7767V12.3509H11.3649V10.9391Z" fill="currentColor"/>
<path d="M16.3065 13.7626H19.13C19.5535 13.7626 19.8359 13.4803 19.8359 13.0568V10.2332C19.8359 9.8097 19.5535 9.52734 19.13 9.52734H16.3065C15.8829 9.52734 15.6006 9.8097 15.6006 10.2332V13.0568C15.6006 13.4803 15.8829 13.7626 16.3065 13.7626ZM17.0124 10.9391H18.4241V12.3509H17.0124V10.9391Z" fill="currentColor"/>
<path d="M5.01155 20.1181H7.83508C8.25861 20.1181 8.54096 19.8358 8.54096 19.4122V16.5887C8.54096 16.1652 8.25861 15.8828 7.83508 15.8828H5.01155C4.58802 15.8828 4.30566 16.1652 4.30566 16.5887V19.4122C4.30566 19.8358 4.58802 20.1181 5.01155 20.1181ZM5.71743 17.2946H7.12919V18.7063H5.71743V17.2946Z" fill="currentColor"/>
<path d="M10.659 20.1181H13.4825C13.9061 20.1181 14.1884 19.8358 14.1884 19.4122V16.5887C14.1884 16.1652 13.9061 15.8828 13.4825 15.8828H10.659C10.2355 15.8828 9.95312 16.1652 9.95312 16.5887V19.4122C9.95312 19.8358 10.2355 20.1181 10.659 20.1181ZM11.3649 17.2946H12.7767V18.7063H11.3649V17.2946Z" fill="currentColor"/>
<path d="M16.3065 20.1181H19.13C19.5535 20.1181 19.8359 19.8358 19.8359 19.4122V16.5887C19.8359 16.1652 19.5535 15.8828 19.13 15.8828H16.3065C15.8829 15.8828 15.6006 16.1652 15.6006 16.5887V19.4122C15.6006 19.8358 15.8829 20.1181 16.3065 20.1181ZM17.0124 17.2946H18.4241V18.7063H17.0124V17.2946Z" fill="currentColor"/>
</svg>
