<svg width="24" height="24" viewBox="0 0 24 24" fill="none" xmlns="http://www.w3.org/2000/svg">
<path d="M9.08328 17.8326H4.29172C3.02753 17.8326 2 16.8052 2 15.541V5.95758C2 4.69339 3.02753 3.66602 4.29172 3.66602H16.375C17.6392 3.66602 18.6667 4.69339 18.6667 5.95758V9.29102C18.6667 9.63602 18.3867 9.91602 18.0417 9.91602C17.6967 9.91602 17.4167 9.63678 17.4167 9.29102V5.95758C17.4167 5.38339 16.9492 4.91602 16.375 4.91602H4.29172C3.71753 4.91602 3.25 5.38339 3.25 5.95758V15.541C3.25 16.1152 3.71753 16.5826 4.29172 16.5826H9.08328C9.42828 16.5826 9.70828 16.8626 9.70828 17.2076C9.70828 17.5526 9.42828 17.8326 9.08328 17.8326V17.8326Z" fill="currentColor"/>
<path d="M18.0417 8.25H2.625C2.28 8.25 2 7.97 2 7.625C2 7.28 2.28 7 2.625 7H18.0417C18.3867 7 18.6667 7.28 18.6667 7.625C18.6667 7.97 18.3867 8.25 18.0417 8.25Z" fill="currentColor"/>
<path d="M5.9585 6.58328C5.61349 6.58328 5.3335 6.30328 5.3335 5.95828V2.625C5.3335 2.28 5.61349 2 5.9585 2C6.3035 2 6.5835 2.28 6.5835 2.625V5.95828C6.5835 6.30328 6.3035 6.58328 5.9585 6.58328Z" fill="currentColor"/>
<path d="M14.7085 6.58328C14.3635 6.58328 14.0835 6.30328 14.0835 5.95828V2.625C14.0835 2.28 14.3635 2 14.7085 2C15.0535 2 15.3335 2.28 15.3335 2.625V5.95828C15.3335 6.30328 15.0535 6.58328 14.7085 6.58328Z" fill="currentColor"/>
<path d="M16.5831 21.9993C13.5965 21.9993 11.1665 19.5693 11.1665 16.5826C11.1665 13.596 13.5965 11.166 16.5831 11.166C19.5698 11.166 21.9998 13.596 21.9998 16.5826C21.9998 19.5693 19.5698 21.9993 16.5831 21.9993V21.9993ZM16.5831 12.416C14.2856 12.416 12.4165 14.2851 12.4165 16.5826C12.4165 18.8801 14.2856 20.7493 16.5831 20.7493C18.8806 20.7493 20.7498 18.8801 20.7498 16.5826C20.7498 14.2851 18.8806 12.416 16.5831 12.416V12.416Z" fill="currentColor"/>
<path d="M16.5835 19.4993C16.2385 19.4993 15.9585 19.2193 15.9585 18.8743V14.291C15.9585 13.946 16.2385 13.666 16.5835 13.666C16.9285 13.666 17.2085 13.946 17.2085 14.291V18.8743C17.2085 19.2193 16.9285 19.4993 16.5835 19.4993Z" fill="currentColor"/>
<path d="M18.8748 17.209H14.2915C13.9465 17.209 13.6665 16.929 13.6665 16.584C13.6665 16.239 13.9465 15.959 14.2915 15.959H18.8748C19.2198 15.959 19.4998 16.239 19.4998 16.584C19.4998 16.929 19.2198 17.209 18.8748 17.209Z" fill="currentColor"/>
</svg>
