<svg width="24" height="24" viewBox="0 0 24 24" fill="none" xmlns="http://www.w3.org/2000/svg">
<path d="M5.64625 0.707031C5.29331 0.707031 4.94037 0.989384 4.94037 1.41291V2.1188H2.82273C1.69331 2.1188 0.705078 3.03644 0.705078 4.23644V7.05997V21.1776C0.705078 22.3776 1.62273 23.2953 2.82273 23.2953H21.1757C22.3757 23.2953 23.2933 22.3776 23.2933 21.1776V7.05997V4.23644C23.2933 3.03644 22.3757 2.1188 21.1757 2.1188H19.058V1.41291C19.058 0.989384 18.7757 0.707031 18.3521 0.707031C17.9286 0.707031 17.6463 0.989384 17.6463 1.41291V2.1188H6.35214V1.41291C6.35214 0.989384 6.06978 0.707031 5.64625 0.707031ZM21.8815 21.1776C21.8815 21.6011 21.5992 21.8835 21.1757 21.8835H2.82273C2.3992 21.8835 2.11684 21.6011 2.11684 21.1776V7.76585H21.8815V21.1776ZM17.6463 3.53056V4.23644C17.6463 4.65997 17.9286 4.94233 18.3521 4.94233C18.7757 4.94233 19.058 4.65997 19.058 4.23644V3.53056H21.1757C21.5992 3.53056 21.8815 3.81291 21.8815 4.23644V6.35409H2.11684V4.23644C2.11684 3.81291 2.3992 3.53056 2.82273 3.53056H4.94037V4.23644C4.94037 4.65997 5.22273 4.94233 5.64625 4.94233C6.06978 4.94233 6.35214 4.65997 6.35214 4.23644V3.53056H17.6463Z" fill="currentColor"/>
<path d="M5.01057 13.7665H7.8341C8.25763 13.7665 8.53998 13.4842 8.53998 13.0607V10.2371C8.53998 9.8136 8.25763 9.53125 7.8341 9.53125H5.01057C4.58704 9.53125 4.30469 9.8136 4.30469 10.2371V13.0607C4.30469 13.4842 4.58704 13.7665 5.01057 13.7665ZM5.71645 10.943H7.12822V12.3548H5.71645V10.943Z" fill="currentColor"/>
<path d="M10.6571 13.7665H13.4806C13.9041 13.7665 14.1865 13.4842 14.1865 13.0607V10.2371C14.1865 9.8136 13.9041 9.53125 13.4806 9.53125H10.6571C10.2335 9.53125 9.95117 9.8136 9.95117 10.2371V13.0607C9.95117 13.4842 10.2335 13.7665 10.6571 13.7665ZM11.3629 10.943H12.7747V12.3548H11.3629V10.943Z" fill="currentColor"/>
<path d="M16.3055 13.7665H19.129C19.5526 13.7665 19.8349 13.4842 19.8349 13.0607V10.2371C19.8349 9.8136 19.5526 9.53125 19.129 9.53125H16.3055C15.882 9.53125 15.5996 9.8136 15.5996 10.2371V13.0607C15.5996 13.4842 15.882 13.7665 16.3055 13.7665ZM17.0114 10.943H18.4231V12.3548H17.0114V10.943Z" fill="currentColor"/>
<path d="M5.01057 20.1181H7.8341C8.25763 20.1181 8.53998 19.8358 8.53998 19.4122V16.5887C8.53998 16.1652 8.25763 15.8828 7.8341 15.8828H5.01057C4.58704 15.8828 4.30469 16.1652 4.30469 16.5887V19.4122C4.30469 19.8358 4.58704 20.1181 5.01057 20.1181ZM5.71645 17.2946H7.12822V18.7063H5.71645V17.2946Z" fill="currentColor"/>
<path d="M10.6571 20.1181H13.4806C13.9041 20.1181 14.1865 19.8358 14.1865 19.4122V16.5887C14.1865 16.1652 13.9041 15.8828 13.4806 15.8828H10.6571C10.2335 15.8828 9.95117 16.1652 9.95117 16.5887V19.4122C9.95117 19.8358 10.2335 20.1181 10.6571 20.1181ZM11.3629 17.2946H12.7747V18.7063H11.3629V17.2946Z" fill="currentColor"/>
<path d="M16.3055 20.1181H19.129C19.5526 20.1181 19.8349 19.8358 19.8349 19.4122V16.5887C19.8349 16.1652 19.5526 15.8828 19.129 15.8828H16.3055C15.882 15.8828 15.5996 16.1652 15.5996 16.5887V19.4122C15.5996 19.8358 15.882 20.1181 16.3055 20.1181ZM17.0114 17.2946H18.4231V18.7063H17.0114V17.2946Z" fill="currentColor"/>
</svg>
