<svg width="24" height="24" viewBox="0 0 24 24" fill="none" xmlns="http://www.w3.org/2000/svg">
<path d="M6.70603 2.58789C6.41191 2.58789 6.11779 2.82318 6.11779 3.17613V3.76436H4.35308C3.41191 3.76436 2.58838 4.52907 2.58838 5.52907V7.88201V19.6467C2.58838 20.6467 3.35308 21.4114 4.35308 21.4114H19.6472C20.6472 21.4114 21.4119 20.6467 21.4119 19.6467V7.88201V5.52907C21.4119 4.52907 20.6472 3.76436 19.6472 3.76436H17.8825V3.17613C17.8825 2.82318 17.6472 2.58789 17.2943 2.58789C16.9413 2.58789 16.706 2.82318 16.706 3.17613V3.76436H7.29426V3.17613C7.29426 2.82318 7.05897 2.58789 6.70603 2.58789ZM20.2354 19.6467C20.2354 19.9997 20.0001 20.2349 19.6472 20.2349H4.35308C4.00014 20.2349 3.76485 19.9997 3.76485 19.6467V8.47024H20.2354V19.6467ZM16.706 4.94083V5.52907C16.706 5.88201 16.9413 6.1173 17.2943 6.1173C17.6472 6.1173 17.8825 5.88201 17.8825 5.52907V4.94083H19.6472C20.0001 4.94083 20.2354 5.17613 20.2354 5.52907V7.29377H3.76485V5.52907C3.76485 5.17613 4.00014 4.94083 4.35308 4.94083H6.11779V5.52907C6.11779 5.88201 6.35308 6.1173 6.70603 6.1173C7.05897 6.1173 7.29426 5.88201 7.29426 5.52907V4.94083H16.706Z" fill="currentColor"/>
<path d="M6.17661 13.4708H8.52956C8.8825 13.4708 9.11779 13.2355 9.11779 12.8826V10.5296C9.11779 10.1767 8.8825 9.94141 8.52956 9.94141H6.17661C5.82367 9.94141 5.58838 10.1767 5.58838 10.5296V12.8826C5.58838 13.2355 5.82367 13.4708 6.17661 13.4708ZM6.76485 11.1179H7.94132V12.2943H6.76485V11.1179Z" fill="currentColor"/>
<path d="M10.8827 13.4708H13.2356C13.5886 13.4708 13.8238 13.2355 13.8238 12.8826V10.5296C13.8238 10.1767 13.5886 9.94141 13.2356 9.94141H10.8827C10.5297 9.94141 10.2944 10.1767 10.2944 10.5296V12.8826C10.2944 13.2355 10.5297 13.4708 10.8827 13.4708V13.4708ZM11.4709 11.1179H12.6474V12.2943H11.4709V11.1179Z" fill="currentColor"/>
<path d="M15.5882 13.4708H17.9412C18.2941 13.4708 18.5294 13.2355 18.5294 12.8826V10.5296C18.5294 10.1767 18.2941 9.94141 17.9412 9.94141H15.5882C15.2353 9.94141 15 10.1767 15 10.5296V12.8826C15 13.2355 15.2353 13.4708 15.5882 13.4708ZM16.1765 11.1179H17.3529V12.2943H16.1765V11.1179Z" fill="currentColor"/>
<path d="M6.17661 18.7638H8.52956C8.8825 18.7638 9.11779 18.5285 9.11779 18.1756V15.8226C9.11779 15.4697 8.8825 15.2344 8.52956 15.2344H6.17661C5.82367 15.2344 5.58838 15.4697 5.58838 15.8226V18.1756C5.58838 18.5285 5.82367 18.7638 6.17661 18.7638ZM6.76485 16.4108H7.94132V17.5873H6.76485V16.4108Z" fill="currentColor"/>
<path d="M10.8827 18.7638H13.2356C13.5886 18.7638 13.8238 18.5285 13.8238 18.1756V15.8226C13.8238 15.4697 13.5886 15.2344 13.2356 15.2344H10.8827C10.5297 15.2344 10.2944 15.4697 10.2944 15.8226V18.1756C10.2944 18.5285 10.5297 18.7638 10.8827 18.7638V18.7638ZM11.4709 16.4108H12.6474V17.5873H11.4709V16.4108Z" fill="currentColor"/>
<path d="M15.5882 18.7638H17.9412C18.2941 18.7638 18.5294 18.5285 18.5294 18.1756V15.8226C18.5294 15.4697 18.2941 15.2344 17.9412 15.2344H15.5882C15.2353 15.2344 15 15.4697 15 15.8226V18.1756C15 18.5285 15.2353 18.7638 15.5882 18.7638ZM16.1765 16.4108H17.3529V17.5873H16.1765V16.4108Z" fill="currentColor"/>
</svg>
