<svg width="24" height="24" viewBox="-3 -3 30 30" fill="none" xmlns="http://www.w3.org/2000/svg">
<path d="M5.2378 14.4496H5.16834C4.70522 14.4496 4.33466 14.8266 4.33466 15.2976V15.3918C4.33466 15.8628 4.70522 16.2397 5.16834 16.2397H5.2378C5.70092 16.2397 6.07149 15.8628 6.07149 15.3918V15.2976C6.07149 14.8266 5.70092 14.4496 5.2378 14.4496Z" fill="currentColor"/>
<path d="M8.61885 14.4496H8.54938C8.08627 14.4496 7.7157 14.8266 7.7157 15.2976V15.3918C7.7157 15.8628 8.08626 16.2397 8.54938 16.2397H8.61885C9.08196 16.2397 9.45253 15.8628 9.45253 15.3918V15.2976C9.45253 14.8266 9.08197 14.4496 8.61885 14.4496Z" fill="currentColor"/>
<path d="M12.023 14.4496H11.9305C11.4674 14.4496 11.0968 14.8266 11.0968 15.2976V15.3918C11.0968 15.8628 11.4674 16.2397 11.9305 16.2397H12.023C12.4862 16.2397 12.8567 15.8628 12.8567 15.3918V15.2976C12.8567 14.8266 12.4862 14.4496 12.023 14.4496Z" fill="currentColor"/>
<path d="M5.2378 10.9636H5.16834C4.70522 10.9636 4.33466 11.3405 4.33466 11.8116V11.9057C4.33466 12.3768 4.70522 12.7537 5.16834 12.7537H5.2378C5.70092 12.7537 6.07149 12.3768 6.07149 11.9057V11.8116C6.07149 11.3405 5.70092 10.9636 5.2378 10.9636Z" fill="currentColor"/>
<path d="M8.61885 10.9636H8.54938C8.08627 10.9636 7.7157 11.3405 7.7157 11.8116V11.9057C7.7157 12.3768 8.08626 12.7537 8.54938 12.7537H8.61885C9.08196 12.7537 9.45253 12.3768 9.45253 11.9057V11.8116C9.45253 11.3405 9.08197 10.9636 8.61885 10.9636Z" fill="currentColor"/>
<path d="M12.023 10.9636H11.9305C11.4674 10.9636 11.0968 11.3405 11.0968 11.8116V11.9057C11.0968 12.3768 11.4674 12.7537 11.9305 12.7537H12.023C12.4862 12.7537 12.8567 12.3768 12.8567 11.9057V11.8116C12.8567 11.3405 12.4862 10.9636 12.023 10.9636Z" fill="currentColor"/>
<path d="M15.4042 14.4496H15.3116C14.8485 14.4496 14.4779 14.8266 14.4779 15.2976V15.3918C14.4779 15.8628 14.8485 16.2397 15.3116 16.2397H15.4042C15.8673 16.2397 16.2378 15.8628 16.2378 15.3918V15.2976C16.2611 14.8266 15.8673 14.4496 15.4042 14.4496Z" fill="currentColor"/>
<path d="M18.8083 14.4496H18.7158C18.2526 14.4496 17.8821 14.8266 17.8821 15.2976V15.3918C17.8821 15.8628 18.2526 16.2397 18.7158 16.2397H18.8083C19.2714 16.2397 19.642 15.8628 19.642 15.3918V15.2976C19.642 14.8266 19.2714 14.4496 18.8083 14.4496Z" fill="currentColor"/>
<path d="M15.4042 10.9636H15.3116C14.8485 10.9636 14.4779 11.3405 14.4779 11.8116V11.9057C14.4779 12.3768 14.8485 12.7537 15.3116 12.7537H15.4042C15.8673 12.7537 16.2378 12.3768 16.2378 11.9057V11.8116C16.2611 11.3405 15.8673 10.9636 15.4042 10.9636Z" fill="currentColor"/>
<path d="M18.8083 10.9636H18.7158C18.2526 10.9636 17.8821 11.3405 17.8821 11.8116V11.9057C17.8821 12.3768 18.2526 12.7537 18.7158 12.7537H18.8083C19.2714 12.7537 19.642 12.3768 19.642 11.9057V11.8116C19.642 11.3405 19.2714 10.9636 18.8083 10.9636Z" fill="currentColor"/>
<path d="M5.2378 17.9122H5.16834C4.70522 17.9122 4.33466 18.2891 4.33466 18.7601V18.8543C4.33466 19.3253 4.70522 19.7022 5.16834 19.7022H5.2378C5.70092 19.7022 6.07149 19.3253 6.07149 18.8543V18.7601C6.07149 18.3126 5.70092 17.9122 5.2378 17.9122Z" fill="currentColor"/>
<path d="M8.61885 17.9122H8.54938C8.08627 17.9122 7.7157 18.2891 7.7157 18.7601V18.8543C7.7157 19.3253 8.08626 19.7022 8.54938 19.7022H8.61885C9.08196 19.7022 9.45253 19.3253 9.45253 18.8543V18.7601C9.45253 18.3126 9.08197 17.9122 8.61885 17.9122Z" fill="currentColor"/>
<path d="M12.023 17.9122H11.9305C11.4674 17.9122 11.0968 18.2891 11.0968 18.7601V18.8543C11.0968 19.3253 11.4674 19.7022 11.9305 19.7022H12.023C12.4862 19.7022 12.8567 19.3253 12.8567 18.8543V18.7601C12.8567 18.3126 12.4862 17.9122 12.023 17.9122Z" fill="currentColor"/>
<path d="M15.4042 17.9122H15.3116C14.8485 17.9122 14.4779 18.2891 14.4779 18.7601V18.8543C14.4779 19.3253 14.8485 19.7022 15.3116 19.7022H15.4042C15.8673 19.7022 16.2378 19.3253 16.2378 18.8543V18.7601C16.2611 18.3126 15.8673 17.9122 15.4042 17.9122Z" fill="currentColor"/>
<path d="M18.8083 17.9122H18.7158C18.2526 17.9122 17.8821 18.2891 17.8821 18.7601V18.8543C17.8821 19.3253 18.2526 19.7022 18.7158 19.7022H18.8083C19.2714 19.7022 19.642 19.3253 19.642 18.8543V18.7601C19.642 18.3126 19.2714 17.9122 18.8083 17.9122Z" fill="currentColor"/>
<path d="M22.9768 8.2077V6.29982C22.9768 4.83948 21.8189 3.66175 20.4062 3.66175H19.04V2.83726C19.04 1.82449 18.2293 1 17.2336 1C16.2379 1 15.4273 1.82449 15.4273 2.83726V3.66175H8.57256V2.83726C8.57256 1.82449 7.76195 1 6.76624 1C5.77054 1 4.95992 1.82449 4.95992 2.83726V3.66175H3.59365C2.1579 3.66175 1 4.83948 1 6.29982V20.3854C1 21.8223 2.1579 23 3.59365 23H20.4295C21.8421 23 23 21.8223 23 20.3854L22.9767 8.20774L22.9768 8.2077ZM16.4925 2.83726C16.4925 2.43685 16.8167 2.10711 17.2104 2.10711C17.6041 2.10711 17.9282 2.43686 17.9282 2.83726V4.58034C17.9282 4.98074 17.604 5.31048 17.2104 5.31048C16.8167 5.31048 16.4925 4.98073 16.4925 4.58034V2.83726ZM6.02515 2.83726C6.02515 2.43685 6.34935 2.10711 6.743 2.10711C7.13665 2.10711 7.46086 2.43686 7.46086 2.83726V4.58034C7.46086 4.98074 7.13665 5.31048 6.743 5.31048C6.34935 5.31048 6.02515 4.98073 6.02515 4.58034V2.83726ZM3.57045 4.76865H4.96001C5.05257 5.68727 5.81681 6.41742 6.76633 6.41742C7.69256 6.41742 8.45681 5.68727 8.54953 4.76865H15.4274C15.52 5.68727 16.2842 6.41742 17.2106 6.41742C18.1369 6.41742 18.9011 5.68727 18.9938 4.76865H20.3834C21.194 4.76865 21.8655 5.45164 21.8655 6.29961V7.66577L2.06547 7.66594V6.29977C2.06547 5.45181 2.73697 4.76864 3.57065 4.76864L3.57045 4.76865ZM20.4063 21.8928H3.57045C2.73676 21.8928 2.06526 21.2098 2.06526 20.3853V8.74937H21.8885V20.3853C21.8885 21.2098 21.217 21.8928 20.4064 21.8928H20.4063Z" fill="currentColor"/>
</svg>
