<svg width="24" height="24" viewBox="-3 -3 30 30" fill="none" xmlns="http://www.w3.org/2000/svg">
<path d="M15.6197 5.95823C16.5634 5.95823 17.3287 5.17989 17.3287 4.22046V1.73777C17.3287 0.778182 16.5634 0 15.6197 0C14.6759 0 13.9107 0.778346 13.9107 1.73777V4.22062C13.9105 5.18005 14.676 5.95823 15.6197 5.95823ZM6.38031 5.95823C7.32409 5.95823 8.08931 5.17989 8.08931 4.22046L8.08947 1.73777C8.08947 0.778182 7.32408 0 6.38031 0C5.43654 0 4.67131 0.778346 4.67131 1.73777V4.22062C4.67131 5.18005 5.43682 5.95823 6.38031 5.95823H6.38031ZM21.7745 2.86457H17.8496V4.22062C17.8496 5.49483 16.8304 6.53131 15.5772 6.53131C14.3241 6.53131 13.3049 5.49483 13.3049 4.22062L13.3047 2.86457H8.61019V4.22062C8.61019 5.49483 7.59097 6.53131 6.33782 6.53131C5.08468 6.53131 4.06545 5.49483 4.06545 4.22062L4.06529 2.86457H0.225414C0.100759 2.86457 0 2.96704 0 3.09381V8.0974H21.9998V3.09381C21.9998 2.9672 21.8989 2.86473 21.7745 2.86473L21.7745 2.86457ZM9.70167e-05 21.7708C9.70167e-05 21.8975 0.100857 22 0.225511 22H21.7746C21.8992 22 22 21.8975 22 21.7708L21.9998 9.014H6.84643e-05L9.70167e-05 21.7708ZM16.0446 11.6588H18.9273V14.5904H16.0446V11.6588ZM16.0446 15.8411H18.9273V18.7727H16.0446V15.8411ZM11.7203 11.6588H14.6029V14.5904H11.7203V11.6588ZM11.7203 15.8411H14.6029V18.7727H11.7203V15.8411ZM7.3964 11.6588H10.2791V14.5904H7.3964V11.6588ZM7.3964 15.8411H10.2791V18.7727H7.3964V15.8411ZM3.0721 11.6588H5.95484V14.5904H3.0721V11.6588ZM3.0721 15.8411H5.95484V18.7727H3.0721V15.8411Z" fill="currentColor"/>
</svg>
