<svg width="24" height="24" viewBox="-3 -3 30 30" fill="none" xmlns="http://www.w3.org/2000/svg">
<path d="M5.64705 0.704979C5.45989 0.705244 5.28047 0.779711 5.14813 0.912054C5.01579 1.0444 4.94132 1.22382 4.94105 1.41098V2.11698H2.82405C1.69405 2.11698 0.706055 3.03398 0.706055 4.23398V21.176C0.706055 22.376 1.62405 23.293 2.82405 23.293H21.1771C22.3771 23.293 23.2941 22.376 23.2941 21.176V4.23398C23.2941 3.03398 22.3771 2.11698 21.1771 2.11698H19.0591V1.40998C19.0591 0.985979 18.7771 0.703979 18.3531 0.703979C17.9301 0.703979 17.6471 0.985979 17.6471 1.40998V2.11598H6.35306V1.40998C6.35306 0.985979 6.07105 0.704979 5.64705 0.704979ZM21.8831 21.175C21.8831 21.599 21.6001 21.881 21.1771 21.881H2.82405C2.40005 21.881 2.11805 21.599 2.11805 21.176V7.76398H21.8821V21.176L21.8831 21.175ZM17.6461 3.52998V4.23498C17.6461 4.65898 17.9291 4.94098 18.3521 4.94098C18.7761 4.94098 19.0581 4.65898 19.0581 4.23498V3.52998H21.1761C21.5991 3.52998 21.8821 3.81198 21.8821 4.23498V6.35298H2.11705V4.23398C2.11705 3.81098 2.39905 3.52898 2.82305 3.52898H4.94005V4.23398C4.94005 4.65798 5.22305 4.93998 5.64605 4.93998C6.07005 4.93998 6.35206 4.65798 6.35206 4.23398V3.52998H17.6461Z" fill="currentColor"/>
<path d="M5.01203 13.763H7.83503C8.25903 13.763 8.54103 13.48 8.54103 13.057V10.233C8.54103 9.80998 8.25903 9.52698 7.83503 9.52698H5.01203C4.58803 9.52698 4.30603 9.80998 4.30603 10.233V13.057C4.30603 13.48 4.58803 13.763 5.01203 13.763ZM5.71703 10.939H7.13003V12.351H5.71703V10.939ZM10.659 13.763H13.482C13.906 13.763 14.188 13.48 14.188 13.057V10.233C14.188 9.80998 13.906 9.52698 13.482 9.52698H10.66C10.236 9.52698 9.95403 9.80998 9.95403 10.233V13.057C9.95403 13.48 10.236 13.763 10.659 13.763ZM11.365 10.939H12.777V12.351H11.365V10.939ZM16.306 13.763H19.13C19.554 13.763 19.836 13.48 19.836 13.057V10.233C19.836 9.80998 19.554 9.52698 19.13 9.52698H16.307C15.883 9.52698 15.601 9.80998 15.601 10.233V13.057C15.601 13.48 15.883 13.763 16.306 13.763ZM17.012 10.939H18.424V12.351H17.012V10.939ZM5.01203 20.118H7.83503C8.25903 20.118 8.54103 19.836 8.54103 19.412V16.59C8.54103 16.166 8.25903 15.884 7.83503 15.884H5.01203C4.58803 15.884 4.30603 16.166 4.30603 16.59V19.413C4.30603 19.837 4.58803 20.118 5.01203 20.118ZM5.71703 17.295H7.13003V18.706H5.71703V17.295ZM10.659 20.118H13.482C13.906 20.118 14.188 19.836 14.188 19.412V16.59C14.188 16.166 13.906 15.884 13.482 15.884H10.66C10.236 15.884 9.95403 16.166 9.95403 16.59V19.413C9.95403 19.837 10.237 20.119 10.66 20.119L10.659 20.118ZM11.365 17.295H12.777V18.706H11.365V17.295ZM16.306 20.118H19.13C19.554 20.118 19.836 19.836 19.836 19.412V16.59C19.836 16.166 19.554 15.884 19.13 15.884H16.307C15.883 15.884 15.601 16.166 15.601 16.59V19.413C15.601 19.837 15.883 20.118 16.306 20.118ZM17.012 17.295H18.424V18.706H17.012V17.295Z" fill="currentColor"/>
</svg>
