<svg width="24" height="24" viewBox="0 0 24 24" fill="none" xmlns="http://www.w3.org/2000/svg">
<g clip-path="url(#clip0_12100_60155)">
<path d="M12 0C5.38317 0 0 5.38317 0 12C0 18.6168 5.38317 24 12 24C18.6168 24 24 18.6168 24 12C24 5.38317 18.6168 0 12 0ZM12 21.9718C6.50152 21.9718 2.02819 17.4985 2.02819 12C2.02819 6.50152 6.50152 2.02819 12 2.02819C17.4985 2.02819 21.9718 6.50152 21.9718 12C21.9718 17.4985 17.4985 21.9718 12 21.9718Z" fill="currentColor"/>
<path d="M17.4422 11.6282H12.7098V4.55511C12.7098 3.99505 12.2558 3.54102 11.6957 3.54102C11.1357 3.54102 10.6816 3.99505 10.6816 4.55511V12.6422C10.6816 13.2023 11.1357 13.6563 11.6957 13.6563C11.7072 13.6563 11.7182 13.655 11.7295 13.6546C11.7408 13.655 11.7519 13.6563 11.7633 13.6563H17.4422C18.0023 13.6563 18.4563 13.2023 18.4563 12.6422C18.4563 12.0822 18.0023 11.6282 17.4422 11.6282Z" fill="currentColor"/>
</g>
<defs>
<clipPath id="clip0_12100_60155">
<rect width="24" height="24" fill="white"/>
</clipPath>
</defs>
</svg>
