<svg width="24" height="24" viewBox="0 0 24 24" fill="none" xmlns="http://www.w3.org/2000/svg">
<path d="M12 24C18.616 24 24 18.616 24 12C24 5.38401 18.6161 0 12 0C5.38395 0 0 5.38401 0 12C0 18.616 5.38401 24 12 24ZM12 1.59997C17.736 1.59997 22.4 6.26396 22.4 12C22.4 17.736 17.736 22.4 12 22.4C6.26396 22.4 1.59997 17.736 1.59997 12C1.59997 6.26396 6.26402 1.59997 12 1.59997Z" fill="currentColor"/>
<path d="M15.5002 15.8248C15.6482 15.9448 15.8242 16.0008 16.0002 16.0008C16.2362 16.0008 16.4682 15.8968 16.6242 15.7008C16.9002 15.3568 16.8441 14.8528 16.5002 14.5768L12.8002 11.6168V5.60077C12.8002 5.16076 12.4402 4.80078 12.0002 4.80078C11.5602 4.80078 11.2002 5.16076 11.2002 5.60077V12.0008C11.2002 12.2448 11.3122 12.4728 11.5002 12.6248L15.5002 15.8248Z" fill="currentColor"/>
</svg>