<svg width="24" height="24" viewBox="-3 -3 30 30" fill="none" xmlns="http://www.w3.org/2000/svg">
<path d="M19.446 8.26042L13.4761 2.49908C13.332 2.36053 13.1369 2.28265 12.9335 2.28265C12.7301 2.28265 12.535 2.36052 12.3909 2.49908L11.3055 3.5468C11.1616 3.68568 11.0807 3.874 11.0807 4.07041C11.0807 4.26682 11.1616 4.45531 11.3055 4.59419L17.2754 10.3555C17.4193 10.4944 17.6146 10.5724 17.8181 10.5724C18.0216 10.5724 18.2168 10.4944 18.3607 10.3555L19.4463 9.3078C19.5899 9.16876 19.6706 8.98044 19.6706 8.78403C19.6706 8.58778 19.5899 8.39946 19.4461 8.26059L19.446 8.26042Z" fill="currentColor"/>
<path d="M20.9982 3.52702C20.9735 4.20355 20.658 4.83979 20.1271 5.28239L18.6917 6.48604L15.3147 3.22698L16.5619 1.84179L16.5621 1.84196C17.0207 1.32961 17.6799 1.02503 18.381 1.00125C19.0822 0.979754 19.762 1.23685 20.2614 1.71236C20.7577 2.19199 21.0248 2.84951 20.9983 3.52706L20.9982 3.52702Z" fill="currentColor"/>
<path d="M13.3805 11.3303C13.6299 11.3303 13.8794 11.3228 14.1211 11.3081L9.78091 15.4929C9.46911 15.7953 9.04476 15.9647 8.60276 15.9632H7.86214C7.70966 15.9629 7.56079 16.0082 7.43607 16.0929L6.49962 16.7744H6.49979C6.16966 17.0141 5.74053 17.0869 5.34546 16.9698C4.95039 16.8529 4.63737 16.5603 4.50361 16.183C4.36981 15.8057 4.43131 15.3894 4.66927 15.0634L5.38297 14.0783V14.0781C5.45595 13.9662 5.4945 13.8364 5.49433 13.7042V12.9635C5.49278 12.5369 5.66839 12.1274 5.98172 11.8265L6.74545 11.0894L6.74528 11.0896C8.57016 11.0225 10.3978 11.0818 12.2139 11.2673C12.6012 11.3101 12.9908 11.3313 13.3806 11.3303L13.3805 11.3303Z" fill="currentColor"/>
<path d="M15.6483 9.8341L14.9805 10.4786H14.9807C14.1075 10.5998 13.2221 10.6185 12.3443 10.5341C10.749 10.366 9.14421 10.2967 7.53967 10.3266L11.8492 6.16766L15.6483 9.8341Z" fill="currentColor"/>
<path d="M5.39623 17.9382C5.32153 17.8631 5.2184 17.8206 5.11064 17.8206C5.00288 17.8206 4.89974 17.8631 4.82505 17.9382C4.52027 18.266 3 19.9521 3 20.9631C3 21.6909 3.40226 22.3633 4.0553 22.7271C4.70839 23.091 5.51287 23.091 6.16595 22.7271C6.81904 22.3633 7.22126 21.691 7.22126 20.9631C7.22126 19.9521 5.70097 18.266 5.39621 17.9382H5.39623Z" fill="currentColor"/>
</svg>
