<svg width="24" height="24" viewBox="0 0 24 24" fill="none" xmlns="http://www.w3.org/2000/svg">
<path d="M22.8349 1.16511C21.2814 -0.388371 18.7537 -0.388371 17.2002 1.16511L13.2851 5.08016C12.4577 4.41819 11.2436 4.47004 10.4772 5.23644C9.6547 6.05891 9.65475 7.3971 10.4772 8.21957L10.6429 8.38532L3.51497 15.5132C2.38073 16.6475 1.61761 18.1337 1.35417 19.7151L0.338859 21.1365C-0.177516 21.8594 -0.0963282 22.84 0.531844 23.4681C1.16002 24.0963 2.14059 24.1775 2.8635 23.6611L4.28489 22.6458C5.86627 22.3824 7.35253 21.6193 8.48676 20.485L15.6147 13.3571L15.7804 13.5229C16.6028 14.3453 17.9411 14.3453 18.7635 13.5229C19.53 12.7565 19.5818 11.5423 18.9198 10.7149L22.8349 6.79986C24.3884 5.24638 24.3884 2.71864 22.8349 1.16511ZM7.49245 19.4907C6.53062 20.4525 5.25933 21.0881 3.9127 21.2805C3.80119 21.2965 3.69516 21.3389 3.60347 21.4044L2.04614 22.5168C1.88494 22.6319 1.66631 22.6138 1.52625 22.4738C1.38619 22.3337 1.36809 22.1151 1.48322 21.9539L2.59561 20.3966C2.66109 20.3049 2.70356 20.1988 2.7195 20.0873C2.91188 18.7407 3.54755 17.4695 4.50937 16.5076L5.4562 15.5608H11.4225L7.49245 19.4907ZM12.8287 14.1545H6.86241L11.6372 9.37968L14.6204 12.3628L12.8287 14.1545ZM17.7692 12.5285C17.495 12.8027 17.049 12.8027 16.7748 12.5285L11.4715 7.22521C11.1974 6.95108 11.1974 6.50502 11.4715 6.23085C11.7457 5.95668 12.1918 5.95672 12.4659 6.23085L17.7692 11.5341C18.0434 11.8083 18.0434 12.2543 17.7692 12.5285ZM21.8406 5.8055L17.9349 9.71113L14.2889 6.0651L18.1945 2.15947C19.1998 1.15424 20.8353 1.15424 21.8406 2.15947C22.8458 3.16471 22.8458 4.80032 21.8406 5.8055Z" fill="currentColor"/>
</svg>
