<svg width="24" height="24" viewBox="-1 -1 20 20" fill="none" xmlns="http://www.w3.org/2000/svg">
<path d="M12.795 8.0925C15.3525 7.59747 17.25 5.37005 17.25 2.72998C17.25 2.07003 16.755 1.575 16.095 1.575H13.125V1.1625C13.125 0.915048 12.96 0.75 12.7125 0.75H5.28749C5.04003 0.75 4.87499 0.915048 4.87499 1.1625V1.575H1.90497C1.24503 1.575 0.75 2.07003 0.75 2.72998C0.75 5.37005 2.64745 7.5975 5.20502 8.0925C5.70005 9.33 6.85502 10.3201 8.17503 10.5675L6.52502 13.95H5.28752C5.04006 13.95 4.87501 14.1151 4.87501 14.3625V16.9201C4.87501 17.085 5.04006 17.25 5.28752 17.25H12.7125C12.96 17.25 13.125 17.085 13.125 16.8375V14.28C13.125 14.0325 12.96 13.8675 12.7125 13.8675H11.475L9.82503 10.485C11.2276 10.32 12.3 9.33 12.795 8.0925H12.795ZM15.6 3.22498C15.4349 4.62754 14.445 5.78252 13.125 6.27749V3.22498H15.6ZM2.39992 3.22498H4.87493V6.27749C3.55489 5.78246 2.64736 4.62749 2.39992 3.22498Z" fill="currentColor"/>
</svg>
