<svg width="24" height="24" viewBox="-1 -1 20 20" fill="none" xmlns="http://www.w3.org/2000/svg">
<g clip-path="url(#clip0_10247_54957)">
<path d="M17.4735 1.53453C17.1135 1.15203 16.6028 0.931509 16.0763 0.931509H14.4C14.4068 0.63 14.4113 0.319526 14.4113 0H3.6C3.6 0.319482 3.60448 0.63 3.61125 0.931509H1.92375C1.39724 0.931509 0.88651 1.15203 0.52651 1.53453C0.161984 1.91931 -0.0269812 2.44578 0.00448367 2.97905C0.305992 8.00556 2.90026 11.16 7.01323 11.6281L6.21672 14.4C5.26948 14.4 4.50224 15.1673 4.50224 16.1145V18H13.5113V16.1145C13.5113 15.1673 12.744 14.4 11.7968 14.4L11.0003 11.6281C15.1043 11.1556 17.6963 8.00332 17.9955 2.97905C18.027 2.44806 17.838 1.92155 17.4735 1.53453ZM1.80224 2.87104C1.8 2.82155 1.82026 2.7878 1.83823 2.76979C1.87198 2.73379 1.9125 2.73379 1.92375 2.73379H3.69677C3.96453 6.27306 4.74526 8.28004 5.50354 9.41405C2.61677 8.20354 1.92823 4.9703 1.80224 2.87104ZM12.5078 9.40729C13.266 8.27104 14.0445 6.26629 14.3122 2.73155H16.0785C16.092 2.73155 16.1303 2.73155 16.164 2.76754C16.182 2.78556 16.2022 2.81931 16.2 2.86879C16.0718 4.96806 15.3855 8.19229 12.5078 9.40729Z" fill="currentColor"/>
</g>
<defs>
<clipPath id="clip0_10247_54957">
<rect width="18" height="18" fill="white"/>
</clipPath>
</defs>
</svg>
