<svg width="24" height="24" viewBox="0 0 24 24" fill="none" xmlns="http://www.w3.org/2000/svg">
<path d="M22.9711 0.560179C22.2765 -0.134498 21.1789 -0.18976 20.418 0.431799L13.7026 5.91727H2.34589C1.31084 5.91727 0.46875 6.75912 0.46875 7.7939V19.1078C0.46875 20.1426 1.31084 20.9845 2.34589 20.9845H7.68077V22.5938H6.4983C6.11002 22.5938 5.79524 22.9086 5.79524 23.2969C5.79524 23.6852 6.11002 24 6.4983 24H14.0217C14.41 24 14.7248 23.6852 14.7248 23.2969C14.7248 22.9086 14.41 22.5938 14.0217 22.5938H12.8393V20.9845H18.1741C19.2092 20.9845 20.0513 20.1426 20.0513 19.1078V6.84869L23.1001 3.11255C23.721 2.35178 23.6655 1.25448 22.9711 0.560179ZM13.2497 8.73127C13.2713 8.30761 13.4643 7.92673 13.7941 7.65816L14.9639 6.7026L16.8316 8.57027L15.8738 9.74397C15.6056 10.0718 15.2249 10.2641 14.8019 10.2851C14.3784 10.3065 13.9808 10.153 13.6813 9.85346C13.3813 9.55349 13.228 9.15494 13.2497 8.73127ZM12.6851 13.2676C12.3736 13.5791 11.8546 13.7225 11.143 13.694C10.6036 13.6723 10.1416 13.7102 9.75018 13.7808C9.82067 13.3894 9.85859 12.9271 9.83693 12.388C9.80834 11.6762 9.95182 11.1574 10.2634 10.8459C10.5868 10.5225 11.0168 10.3443 11.4742 10.3443C11.9317 10.3443 12.3616 10.5224 12.6851 10.8459C13.3527 11.5135 13.3527 12.5999 12.6851 13.2676ZM11.4331 22.5939H9.0869V20.9845H11.4331V22.5939ZM18.6452 19.1078C18.6452 19.3673 18.4339 19.5783 18.1741 19.5783H2.34589C2.08618 19.5783 1.87488 19.3673 1.87488 19.1078V18.508H18.6452V19.1078ZM18.6452 17.1019H1.87488V7.7939C1.87488 7.53447 2.08618 7.3234 2.34589 7.3234H12.2534C12.0128 7.72504 11.8697 8.18321 11.8454 8.65961C11.8402 8.76038 11.8405 8.86092 11.8459 8.9608C11.7234 8.94637 11.5995 8.93812 11.4743 8.93812C10.6413 8.93812 9.85812 9.26251 9.26914 9.85154C8.66862 10.452 8.38702 11.3244 8.43202 12.4444C8.49192 13.9352 7.99766 14.5336 7.95914 14.5778C7.69605 14.8532 7.69984 15.2897 7.97053 15.5604C8.10781 15.6977 8.28775 15.7664 8.46769 15.7664C8.64252 15.7664 8.81739 15.7016 8.95308 15.5719C8.9971 15.5336 9.59564 15.0392 11.0866 15.099C12.2069 15.1441 13.079 14.8624 13.6795 14.2619C14.3811 13.5602 14.6769 12.6048 14.5689 11.6883C14.622 11.6913 14.6753 11.6932 14.7288 11.6932C14.7765 11.6932 14.8243 11.692 14.8721 11.6896C15.685 11.649 16.4469 11.2644 16.9628 10.6337L18.6453 8.57191V17.1019H18.6452ZM8.96476 15.5605C8.96476 15.5605 8.96129 15.5644 8.95388 15.5712C8.95754 15.5677 8.96115 15.5641 8.96476 15.5605ZM7.97048 14.5662C7.96687 14.5698 7.96335 14.5734 7.95984 14.577C7.96663 14.5696 7.97048 14.5662 7.97048 14.5662ZM22.0106 2.22359L17.7251 7.47531L16.0583 5.80862L21.3075 1.5208C21.4002 1.44501 21.5121 1.40761 21.6236 1.40761C21.7518 1.40761 21.8794 1.45706 21.9768 1.55446C22.1589 1.7365 22.1734 2.02415 22.0106 2.22359Z" fill="currentColor"/>
</svg>
