<svg width="24" height="24" viewBox="0 0 24 24" fill="none" xmlns="http://www.w3.org/2000/svg">
<path d="M23.283 0H21.1454C20.7495 0 20.4287 0.320801 20.4287 0.716674C20.4287 1.11255 20.7495 1.43335 21.1454 1.43335H22.5663V2.85425C22.5663 3.25012 22.8873 3.57092 23.283 3.57092C23.6788 3.57092 23.9996 3.25012 23.9996 2.85425V0.716674C23.9996 0.320801 23.6788 0 23.283 0Z" fill="currentColor"/>
<path d="M23.283 12.9207C22.8873 12.9207 22.5663 13.2416 22.5663 13.6373V15.0582H21.1454C20.7495 15.0582 20.4287 15.3792 20.4287 15.7749C20.4287 16.1708 20.7495 16.4916 21.1454 16.4916H23.283C23.6788 16.4916 23.9996 16.1708 23.9996 15.7749V13.6373C23.9996 13.2416 23.6788 12.9207 23.283 12.9207Z" fill="currentColor"/>
<path d="M8.22546 3.57092C8.62115 3.57092 8.94214 3.25012 8.94214 2.85425V1.43335H10.363C10.7587 1.43335 11.0797 1.11255 11.0797 0.716674C11.0797 0.320801 10.7587 0 10.363 0H8.22546C7.82959 0 7.50879 0.320801 7.50879 0.716674V2.85425C7.50879 3.25012 7.82959 3.57092 8.22546 3.57092Z" fill="currentColor"/>
<path d="M21.535 12.0006L19.2808 8.50893L20.3502 4.52511C20.4935 3.99099 20.003 3.50448 19.472 3.64694L15.4884 4.71627L11.9962 2.46206C11.5318 2.16232 10.9162 2.48092 10.8915 3.03244L10.7095 7.15102L7.45827 9.76778C7.02559 10.117 7.13765 10.8038 7.65694 10.9981L9.55098 11.7038L0.55996 20.6946C-0.185279 21.4398 -0.188026 22.6485 0.55996 23.3965L0.60006 23.4366C0.600609 23.4366 0.600609 23.4366 0.600609 23.4371C1.3453 24.1818 2.55672 24.1818 3.30251 23.4371L12.2934 14.4463L12.999 16.3396C13.1939 16.8609 13.8812 16.9713 14.2288 16.539L16.8461 13.2871L20.9647 13.1051C21.516 13.0814 21.8346 12.4657 21.535 12.0006ZM2.28866 22.4233C2.10281 22.6095 1.80032 22.6095 1.61391 22.4233L1.57381 22.3832C1.38668 22.1959 1.38741 21.8945 1.57381 21.7081L11.0277 12.2542L11.5485 12.4481L11.7429 12.9694L2.28866 22.4233ZM16.4592 11.8697C16.2532 11.8786 16.0617 11.976 15.9322 12.1363L13.9025 14.6589C13.4279 13.385 12.7773 11.6408 12.7773 11.6408C12.7048 11.4458 12.5508 11.2923 12.3563 11.2198C12.3563 11.2198 10.6969 10.6007 9.33821 10.0946L11.861 8.06454C12.0211 7.93545 12.1185 7.74392 12.1276 7.53793L12.2684 4.34402L14.9784 6.09323C15.1485 6.20309 15.3574 6.2355 15.5528 6.18295L18.6436 5.35366L17.8142 8.4443C17.7616 8.63985 17.794 8.84859 17.9039 9.0187L19.6531 11.7287L16.4592 11.8697Z" fill="currentColor"/>
</svg>
