<svg width="24" height="24" viewBox="-3 -3 30 30" fill="none" xmlns="http://www.w3.org/2000/svg">
<path d="M21.3478 20.6957H2.65219C2.29199 20.6957 2 20.9877 2 21.3478C2 21.708 2.29199 22 2.65219 22H21.3479C21.708 22 22 21.708 22 21.3478C22 20.9876 21.708 20.6957 21.3478 20.6957Z" fill="currentColor"/>
<path d="M13.9565 7.65216H10.0434C9.68327 7.65216 9.39124 7.94415 9.39124 8.30435V18.7391C9.39124 19.0993 9.68323 19.3913 10.0434 19.3913H13.9565C14.3166 19.3913 14.6087 19.0993 14.6087 18.7391V8.30435C14.6087 7.94415 14.3166 7.65216 13.9565 7.65216ZM13.3043 18.0869H10.6956V8.9565H13.3043V18.0869Z" fill="currentColor"/>
<path d="M6.56524 12.8696H2.65219C2.29199 12.8696 2 13.1616 2 13.5218V18.7391C2 19.0993 2.29199 19.3913 2.65219 19.3913H6.56524C6.92539 19.3913 7.21742 19.0993 7.21742 18.7391V13.5218C7.21738 13.1616 6.92539 12.8696 6.56524 12.8696ZM5.91305 18.087H3.30434V14.1739H5.91305V18.087Z" fill="currentColor"/>
<path d="M21.3478 2H17.4348C17.0746 2 16.7826 2.29199 16.7826 2.65219V18.7391C16.7826 19.0993 17.0746 19.3913 17.4348 19.3913H21.3478C21.708 19.3913 22 19.0993 22 18.7391V2.65219C22 2.29199 21.708 2 21.3478 2ZM20.6957 18.087H18.087V3.30434H20.6957V18.087Z" fill="currentColor"/>
</svg>
