<svg width="24" height="24" viewBox="-3 -3 30 30" fill="none" xmlns="http://www.w3.org/2000/svg">
<path d="M11.1272 15.9651C11.238 16.0758 11.3881 16.138 11.5448 16.138C11.7014 16.138 11.8515 16.0759 11.9623 15.9651L14.0706 13.8568C14.3013 13.6261 14.3013 13.2523 14.0706 13.0216C13.84 12.791 13.466 12.791 13.2355 13.0216L11.5448 14.7122L10.7739 13.9414C10.5432 13.7108 10.1694 13.7108 9.93867 13.9414C9.70811 14.1719 9.70811 14.5459 9.93867 14.7766L11.1272 15.9651Z" fill="currentColor"/>
<path d="M12.0048 19.1814C14.5898 19.1814 16.6927 17.0782 16.6927 14.4933C16.6927 11.9083 14.5898 9.8053 12.0048 9.8053C9.41962 9.8053 7.31665 11.9083 7.31665 14.4933C7.31665 17.0782 9.41977 19.1814 12.0048 19.1814ZM12.0048 10.9863C13.9385 10.9863 15.5117 12.5595 15.5117 14.4933C15.5117 16.427 13.9385 18.0003 12.0048 18.0003C10.071 18.0003 8.49768 16.427 8.49768 14.4933C8.49768 12.5595 10.071 10.9863 12.0048 10.9863Z" fill="currentColor"/>
<path d="M19.865 3.25748H18.7879V2.59052C18.7879 2.26443 18.5234 2 18.1974 2C17.8713 2 17.6068 2.26443 17.6068 2.59052V3.25748H16.4464V2.59052C16.4464 2.26443 16.182 2 15.8557 2C15.5297 2 15.2652 2.26443 15.2652 2.59052V3.25748H8.74423V2.59052C8.74423 2.26443 8.4798 2 8.15356 2C7.82748 2 7.56305 2.26443 7.56305 2.59052V3.25748H6.40262V2.59052C6.40262 2.26443 6.13818 2 5.81195 2C5.48587 2 5.22144 2.26443 5.22144 2.59052V3.25748H4.14417C3.09116 3.25748 2.23438 4.11426 2.23438 5.16742V20.0902C2.23438 21.1432 3.09116 22 4.14417 22H19.865C20.9182 22 21.7748 21.1432 21.7748 20.0902V5.16742C21.7748 4.11426 20.918 3.25748 19.865 3.25748ZM20.5936 20.0902C20.5936 20.492 20.2668 20.819 19.865 20.819H4.14417C3.7424 20.819 3.41541 20.492 3.41541 20.0902V8.16791H20.5936V20.0902ZM3.41541 5.16742C3.41541 4.7655 3.7424 4.43866 4.14417 4.43866H5.22144V5.10562C5.22144 5.4317 5.48587 5.69614 5.8121 5.69614C6.13818 5.69614 6.40262 5.4317 6.40262 5.10562V4.43866H7.56305V5.10562C7.56305 5.4317 7.82748 5.69614 8.15372 5.69614C8.4798 5.69614 8.74423 5.4317 8.74423 5.10562V4.43866H15.2652V5.10562C15.2652 5.4317 15.5297 5.69614 15.8559 5.69614C16.182 5.69614 16.4464 5.4317 16.4464 5.10562V4.43866H17.6068V5.10562C17.6068 5.4317 17.8713 5.69614 18.1974 5.69614C18.5236 5.69614 18.788 5.4317 18.788 5.10562V4.43866H19.865C20.2668 4.43866 20.5938 4.7655 20.5938 5.16742V6.98672H3.41541V5.16742Z" fill="currentColor"/>
</svg>
