<svg width="24" height="24" viewBox="-3 -3 30 30" fill="none" xmlns="http://www.w3.org/2000/svg">
<path d="M18.875 21.3737H5.125C3.40188 21.3737 2 19.9719 2 18.2487C2 17.714 2.13758 17.1861 2.39797 16.7219L9.27129 4.22482C9.2725 4.22264 9.27371 4.22049 9.27492 4.2183C10.4687 2.09592 13.5308 2.09514 14.7251 4.2183C14.7263 4.22045 14.7275 4.22264 14.7287 4.22482L21.6021 16.7218C21.8624 17.1861 22 17.714 22 18.2487C22 19.9719 20.5981 21.3737 18.875 21.3737ZM10.6384 4.98139L3.76539 17.4778C3.76418 17.48 3.76297 17.4822 3.76176 17.4844C3.63141 17.7161 3.5625 17.9804 3.5625 18.2487C3.5625 19.1103 4.26344 19.8112 5.125 19.8112H18.875C19.7366 19.8112 20.4375 19.1103 20.4375 18.2487C20.4375 17.9804 20.3686 17.7161 20.2382 17.4844C20.237 17.4822 20.2358 17.48 20.2346 17.4778L13.3617 4.98158C12.7636 3.92346 11.2372 3.92225 10.6384 4.98139Z" fill="currentColor"/>
<path d="M12 14.3425C11.5685 14.3425 11.2188 13.9927 11.2188 13.5612V8.87372C11.2188 8.44223 11.5685 8.09247 12 8.09247C12.4315 8.09247 12.7812 8.44223 12.7812 8.87372V13.5612C12.7812 13.9927 12.4315 14.3425 12 14.3425Z" fill="currentColor"/>
<path d="M12 17.4675C12.4315 17.4675 12.7812 17.1177 12.7812 16.6862C12.7812 16.2547 12.4315 15.905 12 15.905C11.5685 15.905 11.2188 16.2547 11.2188 16.6862C11.2188 17.1177 11.5685 17.4675 12 17.4675Z" fill="currentColor"/>
</svg>
