<svg width="22" height="22" viewBox="0 0 22 15" fill="none" xmlns="http://www.w3.org/2000/svg">
<path d="M11.0001 0C4.93736 0 0 4.96949 0 11.0714C0 12.1684 0.157027 13.2248 0.454642 14.2299C0.519391 14.4519 0.653648 14.6468 0.837602 14.7858C1.02136 14.9245 1.24492 14.9996 1.4748 15H20.5252C20.7551 14.9996 20.9787 14.9245 21.1626 14.7858C21.3464 14.6468 21.4808 14.4519 21.5454 14.2299C21.843 13.2248 22 12.1684 22 11.0714C22 4.96938 17.0625 0 10.9999 0H11.0001ZM9.93555 2.20979V2.49997C9.93555 3.09171 10.4122 3.5714 11.0001 3.5714C11.588 3.5714 12.0646 3.09169 12.0646 2.49997V2.20979C13.7204 2.4079 15.2336 3.0576 16.4779 4.04015L16.2672 4.2522C15.8514 4.67053 15.8514 5.35154 16.2672 5.77006C16.6829 6.18838 17.3595 6.18838 17.7753 5.77006L17.986 5.55801C18.9622 6.8104 19.6077 8.33341 19.8045 9.99994H19.5162C18.9283 9.99994 18.4517 10.4797 18.4517 11.0714C18.4517 11.6631 18.9283 12.1428 19.5162 12.1428H19.7935C19.7604 12.3826 19.7192 12.6217 19.6715 12.8571H2.32888C2.28116 12.6217 2.23977 12.3826 2.2069 12.1428H2.48413C3.07205 12.1428 3.54865 11.6631 3.54865 11.0714C3.54865 10.4797 3.07203 9.99994 2.48413 9.99994H2.19582C2.39264 8.33341 3.03816 6.81035 4.01438 5.55801L4.22506 5.77006C4.64069 6.18838 5.31731 6.18838 5.73314 5.77006C6.14877 5.35153 6.14877 4.67052 5.73314 4.2522L5.52245 4.04015C6.76678 3.0576 8.27997 2.40791 9.93576 2.20979H9.93555ZM14.7592 6.57362L11.3771 8.61601C10.8082 8.49325 10.189 8.65109 9.74703 9.09592C9.05418 9.79327 9.05418 10.9209 9.74703 11.6183C10.4399 12.3156 11.5603 12.3156 12.2531 11.6183C12.6951 11.1734 12.8519 10.5502 12.7299 9.97766L14.7592 6.57362Z" fill="currentColor"/>
</svg>
