<svg width="24" height="24" viewBox="0 0 24 24" fill="none" xmlns="http://www.w3.org/2000/svg">
<path fill-rule="evenodd" clip-rule="evenodd" d="M0 10.3125C0 11.8658 1.25922 13.125 2.8125 13.125H8.4375C9.99078 13.125 11.25 11.8658 11.25 10.3125V2.8125C11.25 1.25922 9.99078 -3.57628e-07 8.4375 -3.57628e-07H2.8125C1.25922 -3.57628e-07 0 1.25922 0 2.8125V10.3125ZM2.8125 11.25C2.29475 11.25 1.875 10.8302 1.875 10.3125V2.8125C1.875 2.29475 2.29475 1.875 2.8125 1.875H8.4375C8.95525 1.875 9.375 2.29475 9.375 2.8125V10.3125C9.375 10.8302 8.95525 11.25 8.4375 11.25H2.8125Z" fill="currentColor"/>
<path fill-rule="evenodd" clip-rule="evenodd" d="M12.75 21.1875C12.75 22.7408 14.0092 24 15.5625 24H21.1875C22.7408 24 24 22.7408 24 21.1875V13.6875C24 12.1342 22.7408 10.875 21.1875 10.875H15.5625C14.0092 10.875 12.75 12.1342 12.75 13.6875V21.1875ZM15.5625 22.125C15.0448 22.125 14.625 21.7052 14.625 21.1875V13.6875C14.625 13.1698 15.0448 12.75 15.5625 12.75H21.1875C21.7052 12.75 22.125 13.1698 22.125 13.6875V21.1875C22.125 21.7052 21.7052 22.125 21.1875 22.125H15.5625Z" fill="currentColor"/>
<path fill-rule="evenodd" clip-rule="evenodd" d="M0 21.1875C0 22.7408 1.25922 24 2.8125 24H8.4375C9.99078 24 11.25 22.7408 11.25 21.1875V17.4375C11.25 15.8842 9.99078 14.625 8.4375 14.625H2.8125C1.25922 14.625 0 15.8842 0 17.4375V21.1875ZM2.8125 22.125C2.29475 22.125 1.875 21.7052 1.875 21.1875V17.4375C1.875 16.9198 2.29475 16.5 2.8125 16.5H8.4375C8.95525 16.5 9.375 16.9198 9.375 17.4375V21.1875C9.375 21.7052 8.95525 22.125 8.4375 22.125H2.8125Z" fill="currentColor"/>
<path fill-rule="evenodd" clip-rule="evenodd" d="M12.75 6.5625C12.75 8.11578 14.0092 9.375 15.5625 9.375H21.1875C22.7408 9.375 24 8.11578 24 6.5625V2.8125C24 1.25922 22.7408 1.35104e-06 21.1875 1.35104e-06H15.5625C14.0092 1.35104e-06 12.75 1.25922 12.75 2.8125V6.5625ZM15.5625 7.5C15.0448 7.5 14.625 7.08025 14.625 6.5625V2.8125C14.625 2.29475 15.0448 1.875 15.5625 1.875H21.1875C21.7052 1.875 22.125 2.29475 22.125 2.8125V6.5625C22.125 7.08025 21.7052 7.5 21.1875 7.5H15.5625Z" fill="currentColor"/>
</svg>
