<svg width="24" height="24" viewBox="0 0 24 24" fill="none" xmlns="http://www.w3.org/2000/svg">
<path d="M22.6079 11.9973C21.9977 11.0636 21.2979 10.7889 20.6598 10.8283C20.0446 10.7889 19.3219 11.0636 18.7116 11.9973C17.1736 14.3499 20.6598 18.4415 20.6598 18.4415C20.6598 18.4415 24.1462 14.3499 22.6079 11.9973ZM20.6598 13.8726C20.0841 13.8726 19.6173 13.4147 19.6173 12.8497C19.6173 12.2846 20.084 11.8267 20.6598 11.8267C21.2355 11.8267 21.7023 12.2846 21.7023 12.8497C21.7025 13.4145 21.2357 13.8726 20.6598 13.8726Z" fill="currentColor"/>
<path d="M5.28811 3.17256C4.67783 2.23894 3.97805 1.96423 3.33996 2.00363C2.72475 1.96422 2.0021 2.23891 1.39181 3.17256C-0.146195 5.52522 3.33996 9.61676 3.33996 9.61676C3.33996 9.61676 6.82592 5.52517 5.28811 3.17256ZM3.33976 5.04772C2.76404 5.04772 2.29728 4.58982 2.29728 4.02476C2.29728 3.45969 2.76402 3.00179 3.33976 3.00179C3.9155 3.00179 4.38224 3.45969 4.38224 4.02476C4.38224 4.58998 3.9155 5.04772 3.33976 5.04772Z" fill="currentColor"/>
<path d="M20.6601 18.3861C20.0653 18.3861 19.5413 18.6771 19.2108 19.1201L10.885 10.5713L5.32745 11.503C5.32824 11.4802 5.3342 11.4586 5.3342 11.436C5.3342 10.4394 4.52143 9.62915 3.52261 9.62915C2.52383 9.62915 1.71143 10.4394 1.71143 11.436C1.71143 12.4327 2.52358 13.2429 3.52261 13.2429C4.1676 13.2429 4.73083 12.9028 5.05187 12.3954L10.5911 11.4665L18.8722 19.9687C18.8629 20.0432 18.8494 20.1163 18.8494 20.1931C18.8494 21.1897 19.6615 22 20.6605 22C21.6596 22 22.4721 21.1898 22.4721 20.1931C22.4721 19.1963 21.6596 18.3861 20.6605 18.3861L20.6601 18.3861ZM3.52252 12.4089C2.98491 12.4089 2.54732 11.9726 2.54732 11.436C2.54732 10.8997 2.98468 10.4632 3.52252 10.4632C4.06053 10.4632 4.49806 10.8995 4.49806 11.436C4.49826 11.9726 4.06071 12.4089 3.52252 12.4089ZM20.6601 21.1661C20.1225 21.1661 19.6849 20.7298 19.6849 20.1932C19.6849 19.6569 20.1222 19.2204 20.6601 19.2204C21.1981 19.2204 21.6356 19.6567 21.6356 20.1932C21.6358 20.7296 21.1981 21.1661 20.6601 21.1661Z" fill="currentColor"/>
</svg>
