<svg width="24" height="24" viewBox="0 0 24 24" fill="none" xmlns="http://www.w3.org/2000/svg">
<path d="M12 0C5.36761 0 0 5.367 0 12C0 18.6323 5.367 24 12 24C18.6324 24 24 18.633 24 12C24 5.3677 18.633 0 12 0ZM12 22.3256C6.30647 22.3256 1.67442 17.6936 1.67442 12C1.67442 6.30642 6.30647 1.67442 12 1.67442C17.6935 1.67442 22.3256 6.30642 22.3256 12C22.3256 17.6936 17.6935 22.3256 12 22.3256Z" fill="currentColor"/>
<path d="M12.0004 10.0039C11.2896 10.0039 10.7842 10.3041 10.7842 10.7464V16.7645C10.7842 17.1436 11.2896 17.5226 12.0004 17.5226C12.6797 17.5226 13.2325 17.1436 13.2325 16.7645V10.7463C13.2325 10.304 12.6797 10.0039 12.0004 10.0039Z" fill="currentColor"/>
<path d="M12.0003 6.29102C11.2737 6.29102 10.7051 6.81227 10.7051 7.4125C10.7051 8.01278 11.2737 8.54983 12.0003 8.54983C12.7111 8.54983 13.2798 8.01278 13.2798 7.4125C13.2798 6.81227 12.711 6.29102 12.0003 6.29102Z" fill="currentColor"/>
</svg>
