<svg width="24" height="24" viewBox="-2 -2 20 20" fill="none" xmlns="http://www.w3.org/2000/svg">
<path d="M6.72853 2.44446C6.72853 3.34057 6.00209 4.06703 5.10596 4.06703C4.20986 4.06703 3.4834 3.34059 3.4834 2.44446C3.4834 1.54836 4.20983 0.821899 5.10596 0.821899C6.00206 0.821899 6.72853 1.54833 6.72853 2.44446Z" fill="currentColor"/>
<path d="M6.57279 2.44445C6.56811 3.05076 6.18626 3.61656 5.60954 3.82231C5.02504 4.03117 4.37197 3.85036 3.97295 3.37498C3.57704 2.90272 3.53498 2.20288 3.8545 1.68074C4.16778 1.16481 4.79281 0.884276 5.38666 1.00429C6.07091 1.14301 6.56811 1.74777 6.57278 2.44448C6.57434 2.64555 6.88607 2.64555 6.88453 2.44448C6.87985 1.69943 6.4107 1.03234 5.71242 0.772039C5.02193 0.516419 4.20677 0.737749 3.74072 1.3082C3.26689 1.88803 3.19364 2.72034 3.58641 3.36564C3.97608 4.00625 4.73825 4.33199 5.47082 4.1855C6.28911 4.02028 6.87985 3.27212 6.88607 2.44448C6.88607 2.24341 6.57432 2.24341 6.57278 2.44448L6.57279 2.44445Z" fill="currentColor"/>
<path d="M6.72853 8.00104C6.72853 8.89715 6.00209 9.62361 5.10596 9.62361C4.20986 9.62361 3.4834 8.89717 3.4834 8.00104C3.4834 7.10491 4.20983 6.37848 5.10596 6.37848C6.00206 6.37848 6.72853 7.10491 6.72853 8.00104Z" fill="currentColor"/>
<path d="M6.57279 8.00103C6.56811 8.60734 6.18626 9.17314 5.60954 9.37889C5.02504 9.58775 4.37197 9.40694 3.97295 8.93156C3.57704 8.4593 3.53498 7.75946 3.8545 7.23732C4.16778 6.72139 4.79281 6.44086 5.38666 6.56087C6.07091 6.69959 6.56811 7.30435 6.57278 8.00106C6.57434 8.20213 6.88607 8.20213 6.88453 8.00106C6.87985 7.25601 6.4107 6.58892 5.71242 6.32862C5.02193 6.073 4.20677 6.29433 3.74072 6.86478C3.26689 7.44461 3.19364 8.27692 3.58641 8.92222C3.97608 9.56283 4.73825 9.88857 5.47082 9.74208C6.28911 9.57686 6.87985 8.8287 6.88607 8.00106C6.88607 7.79999 6.57432 7.79999 6.57278 8.00106L6.57279 8.00103Z" fill="currentColor"/>
<path d="M6.72853 13.5576C6.72853 14.4537 6.00209 15.1802 5.10596 15.1802C4.20986 15.1802 3.4834 14.4538 3.4834 13.5576C3.4834 12.6615 4.20983 11.9351 5.10596 11.9351C6.00206 11.9351 6.72853 12.6615 6.72853 13.5576Z" fill="currentColor"/>
<path d="M6.57279 13.5576C6.56811 14.1639 6.18626 14.7297 5.60954 14.9355C5.02504 15.1443 4.37197 14.9635 3.97295 14.4881C3.57704 14.0159 3.53498 13.316 3.8545 12.7939C4.16778 12.278 4.79281 11.9974 5.38666 12.1175C6.07091 12.2562 6.56811 12.8609 6.57278 13.5576C6.57434 13.7587 6.88607 13.7587 6.88453 13.5576C6.87985 12.8126 6.4107 12.1455 5.71242 11.8852C5.02193 11.6296 4.20677 11.8509 3.74072 12.4214C3.26689 13.0012 3.19364 13.8335 3.58641 14.4788C3.97608 15.1194 4.73825 15.4452 5.47082 15.2987C6.28911 15.1334 6.87985 14.3853 6.88607 13.5576C6.88607 13.3566 6.57432 13.3566 6.57278 13.5576L6.57279 13.5576Z" fill="currentColor"/>
<path d="M12.7295 2.44446C12.7295 3.34057 12.0031 4.06703 11.1069 4.06703C10.2108 4.06703 9.48438 3.34059 9.48438 2.44446C9.48438 1.54836 10.2108 0.821899 11.1069 0.821899C12.003 0.821899 12.7295 1.54833 12.7295 2.44446Z" fill="currentColor"/>
<path d="M12.5738 2.44445C12.5691 3.05076 12.1872 3.61656 11.6105 3.82231C11.026 4.03117 10.3729 3.85036 9.97393 3.37498C9.57802 2.90272 9.53595 2.20288 9.85547 1.68074C10.1688 1.16481 10.7938 0.884276 11.3876 1.00429C12.0719 1.14301 12.5691 1.74777 12.5738 2.44448C12.5753 2.64555 12.887 2.64555 12.8855 2.44448C12.8808 1.69943 12.4117 1.03234 11.7134 0.772039C11.0229 0.516419 10.2077 0.737749 9.7417 1.3082C9.26787 1.88803 9.19462 2.72034 9.58739 3.36564C9.97706 4.00625 10.7392 4.33199 11.4718 4.1855C12.2901 4.02028 12.8808 3.27212 12.887 2.44448C12.887 2.24341 12.5753 2.24341 12.5738 2.44448L12.5738 2.44445Z" fill="currentColor"/>
<path d="M12.7295 8.00104C12.7295 8.89715 12.0031 9.62361 11.1069 9.62361C10.2108 9.62361 9.48438 8.89717 9.48438 8.00104C9.48438 7.10491 10.2108 6.37848 11.1069 6.37848C12.003 6.37848 12.7295 7.10491 12.7295 8.00104Z" fill="currentColor"/>
<path d="M12.5738 8.00103C12.5691 8.60734 12.1872 9.17314 11.6105 9.37889C11.026 9.58775 10.3729 9.40694 9.97393 8.93156C9.57802 8.4593 9.53595 7.75946 9.85547 7.23732C10.1688 6.72139 10.7938 6.44086 11.3876 6.56087C12.0719 6.69959 12.5691 7.30435 12.5738 8.00106C12.5753 8.20213 12.887 8.20213 12.8855 8.00106C12.8808 7.25601 12.4117 6.58892 11.7134 6.32862C11.0229 6.073 10.2077 6.29433 9.7417 6.86478C9.26787 7.44461 9.19462 8.27692 9.58739 8.92222C9.97706 9.56283 10.7392 9.88857 11.4718 9.74208C12.2901 9.57686 12.8808 8.8287 12.887 8.00106C12.887 7.79999 12.5753 7.79999 12.5738 8.00106L12.5738 8.00103Z" fill="currentColor"/>
<path d="M12.7295 13.5576C12.7295 14.4537 12.0031 15.1802 11.1069 15.1802C10.2108 15.1802 9.48438 14.4538 9.48438 13.5576C9.48438 12.6615 10.2108 11.9351 11.1069 11.9351C12.003 11.9351 12.7295 12.6615 12.7295 13.5576Z" fill="currentColor"/>
<path d="M12.5738 13.5576C12.5691 14.1639 12.1872 14.7297 11.6105 14.9355C11.026 15.1443 10.3729 14.9635 9.97393 14.4881C9.57802 14.0159 9.53595 13.316 9.85547 12.7939C10.1688 12.278 10.7938 11.9974 11.3876 12.1175C12.0719 12.2562 12.5691 12.8609 12.5738 13.5576C12.5753 13.7587 12.887 13.7587 12.8855 13.5576C12.8808 12.8126 12.4117 12.1455 11.7134 11.8852C11.0229 11.6296 10.2077 11.8509 9.7417 12.4214C9.26787 13.0012 9.19462 13.8335 9.58739 14.4788C9.97706 15.1194 10.7392 15.4452 11.4718 15.2987C12.2901 15.1334 12.8808 14.3853 12.887 13.5576C12.887 13.3566 12.5753 13.3566 12.5738 13.5576L12.5738 13.5576Z" fill="currentColor"/>
</svg>
