<svg width="24" height="24" viewBox="0 0 24 24" fill="none" xmlns="http://www.w3.org/2000/svg">
<path d="M20.4592 14.5638C20.1841 14.5638 19.9611 14.7868 19.9611 15.062V19.4846C19.9601 20.3096 19.2918 20.9781 18.4668 20.9789H4.49052C3.66553 20.9781 2.99718 20.3096 2.99621 19.4846V6.50449C2.99718 5.67971 3.66553 5.01116 4.49052 5.01018H8.91313C9.18826 5.01018 9.41124 4.7872 9.41124 4.51208C9.41124 4.23715 9.18826 4.01398 8.91313 4.01398H4.49052C3.11567 4.01553 2.00156 5.12965 2 6.50449V19.4848C2.00156 20.8596 3.11567 21.9737 4.49052 21.9753H18.4668C19.8416 21.9737 20.9558 20.8596 20.9573 19.4848V15.062C20.9573 14.7868 20.7343 14.5638 20.4592 14.5638Z" fill="currentColor"/>
<path d="M20.76 2.73234C19.8846 1.85696 18.4654 1.85696 17.59 2.73234L8.70352 11.6188C8.64262 11.6797 8.59865 11.7552 8.57569 11.8381L7.40709 16.057C7.35903 16.23 7.40787 16.4152 7.53473 16.5423C7.66179 16.6691 7.84702 16.718 8.01999 16.6701L12.2389 15.5013C12.3218 15.4783 12.3973 15.4344 12.4582 15.3735L21.3445 6.48679C22.2185 5.61083 22.2185 4.19279 21.3445 3.31683L20.76 2.73234ZM9.78884 11.9426L17.0617 4.6695L19.4073 7.01506L12.1342 14.2881L9.78884 11.9426ZM9.32032 12.8828L11.1942 14.7569L8.60215 15.475L9.32032 12.8828ZM20.6401 5.78245L20.1118 6.31071L17.7661 3.96495L18.2945 3.43669C18.7808 2.95045 19.5692 2.95045 20.0554 3.43669L20.6401 4.02118C21.1256 4.508 21.1256 5.29582 20.6401 5.78245Z" fill="currentColor"/>
</svg>