<svg width="24" height="24" viewBox="0 0 24 24" fill="none" xmlns="http://www.w3.org/2000/svg">
<path d="M20.8724 19.8661C20.8724 20.8935 20.0373 21.7598 19.0098 21.7598H4.10482C3.07714 21.7598 2.24222 20.8935 2.24222 19.8661L2.24202 4.96545C2.24202 3.93808 3.07715 3.13368 4.10462 3.13368H12.7988L12.799 1.89297H4.10482C2.39258 1.89297 1 3.25491 1 4.96665V19.8658C1 21.5775 2.39258 23 4.10482 23H19.0083C20.7206 23 22.1131 21.5764 22.1131 19.8658V11.2047H20.8709V19.8658L20.8724 19.8661Z" fill="currentColor"/>
<path d="M22.272 1.70404C21.3342 0.765319 19.6979 0.765319 18.7589 1.70404L10.4277 10.0329C10.3484 10.1121 10.2912 10.2125 10.2644 10.3208L9.38751 13.8317C9.33498 14.0427 9.39688 14.2666 9.55074 14.4218C9.66849 14.5396 9.82723 14.6038 9.98929 14.6038C10.0395 14.6038 10.0897 14.5979 10.1398 14.585L13.6529 13.707C13.7625 13.6803 13.8617 13.6231 13.941 13.5438L22.2722 5.21501C22.741 4.74633 23 4.12247 23 3.45894C23 2.79567 22.742 2.17296 22.2721 1.70408L22.272 1.70404ZM13.185 12.5445L10.843 13.1299L11.4286 10.7886L18.3207 3.89846L20.0773 5.65453L13.185 12.5445ZM21.3938 4.33657L20.9552 4.77499L19.1986 3.01893L19.6372 2.5805C20.106 2.11182 20.9249 2.11182 21.3938 2.5805C21.6283 2.81494 21.7577 3.1263 21.7577 3.45851C21.7577 3.79094 21.6283 4.1023 21.3938 4.33652V4.33657Z" fill="currentColor"/>
</svg>
