<svg width="24" height="24" viewBox="0 0 24 24" fill="none" xmlns="http://www.w3.org/2000/svg">
<path d="M6.58061 2H3.27239C2.57077 2 2 2.57077 2 3.27239V6.58054C2 7.28216 2.57077 7.85293 3.27239 7.85293H6.58054C7.28216 7.85293 7.85293 7.28216 7.85293 6.58054V3.27239C7.853 2.57077 7.28222 2 6.58061 2ZM6.52189 6.52189H3.33111V3.33111H6.52189V6.52189Z" fill="currentColor"/>
<path d="M13.6543 2H10.3461C9.6445 2 9.07373 2.57077 9.07373 3.27239V6.58054C9.07373 7.28216 9.6445 7.85293 10.3461 7.85293H13.6543C14.3559 7.85293 14.9267 7.28216 14.9267 6.58054V3.27239C14.9267 2.57077 14.3559 2 13.6543 2ZM13.5956 6.52189H10.4048V3.33111H13.5956V6.52189Z" fill="currentColor"/>
<path d="M6.58061 9.07422H3.27239C2.57077 9.07422 2 9.64506 2 10.3467V13.6548C2 14.3564 2.57077 14.9272 3.27239 14.9272H6.58054C7.28216 14.9272 7.85293 14.3564 7.85293 13.6548V10.3467C7.853 9.64506 7.28222 9.07422 6.58061 9.07422ZM6.52189 13.5962H3.33111V10.4054H6.52189V13.5962Z" fill="currentColor"/>
<path d="M13.6543 9.07422H10.3461C9.6445 9.07422 9.07373 9.64499 9.07373 10.3466V13.6548C9.07373 14.3564 9.6445 14.9271 10.3461 14.9271H13.6543C14.3559 14.9271 14.9267 14.3564 14.9267 13.6548V10.3466C14.9267 9.64506 14.3559 9.07422 13.6543 9.07422ZM13.5956 13.5962H10.4048V10.4054H13.5956V13.5962Z" fill="currentColor"/>
<path d="M20.7275 2H17.4194C16.7177 2 16.147 2.57077 16.147 3.27239V6.58054C16.147 7.28216 16.7177 7.85293 17.4194 7.85293H20.7275C21.4291 7.85293 21.9999 7.28216 21.9999 6.58054V3.27239C21.9999 2.57077 21.4291 2 20.7275 2ZM20.6688 6.52189H17.478V3.33111H20.6688V6.52189Z" fill="currentColor"/>
<path d="M20.7275 9.07422H17.4194C16.7177 9.07422 16.147 9.64499 16.147 10.3466V13.6548C16.147 14.3564 16.7177 14.9271 17.4194 14.9271H20.7275C21.4291 14.9271 21.9999 14.3564 21.9999 13.6548V10.3466C21.9999 9.64506 21.4291 9.07422 20.7275 9.07422ZM20.6688 13.5962H17.478V10.4054H20.6688V13.5962Z" fill="currentColor"/>
<path d="M6.58061 16.1465H3.27239C2.57077 16.1465 2 16.7173 2 17.4189V20.727C2 21.4287 2.57077 21.9995 3.27239 21.9995H6.58054C7.28216 21.9995 7.85293 21.4287 7.85293 20.7271V17.4189C7.853 16.7173 7.28222 16.1465 6.58061 16.1465ZM6.52189 20.6684H3.33111V17.4776H6.52189V20.6684Z" fill="currentColor"/>
<path d="M13.6543 16.1465H10.3461C9.6445 16.1465 9.07373 16.7173 9.07373 17.4189V20.727C9.07373 21.4286 9.6445 21.9994 10.3461 21.9994H13.6543C14.3559 21.9994 14.9267 21.4286 14.9267 20.727V17.4189C14.9267 16.7173 14.3559 16.1465 13.6543 16.1465ZM13.5956 20.6684H10.4048V17.4776H13.5956V20.6684Z" fill="currentColor"/>
<path d="M20.7275 16.1465H17.4194C16.7177 16.1465 16.147 16.7173 16.147 17.4189V20.727C16.147 21.4286 16.7177 21.9994 17.4194 21.9994H20.7275C21.4291 21.9994 21.9999 21.4286 21.9999 20.727V17.4189C21.9999 16.7173 21.4291 16.1465 20.7275 16.1465ZM20.6688 20.6684H17.478V17.4776H20.6688V20.6684Z" fill="currentColor"/>
</svg>
