<svg width="24" height="24" viewBox="0 0 24 24" fill="none" xmlns="http://www.w3.org/2000/svg">
<path d="M18.422 2H5.57797C3.60508 2 2 3.60508 2 5.57797V18.4221C2 20.3949 3.60508 22 5.57797 22H18.4221C20.3949 22 22 20.3949 22 18.422V5.57797C22 3.60508 20.3949 2 18.422 2ZM20.8281 18.422C20.8281 19.7487 19.7487 20.8281 18.422 20.8281H5.57797C4.25125 20.8281 3.17188 19.7487 3.17188 18.422V5.57797C3.17188 4.25125 4.25125 3.17188 5.57797 3.17188H18.4221C19.7488 3.17188 20.8281 4.25125 20.8281 5.57797V18.422Z" fill="currentColor"/>
<path d="M18.9035 6.39387H9.9792C9.73385 5.66516 9.04459 5.13867 8.2342 5.13867C7.42381 5.13867 6.73455 5.66516 6.4892 6.39387H5.09619C4.7726 6.39387 4.51025 6.65621 4.51025 6.9798C4.51025 7.3034 4.7726 7.56574 5.09619 7.56574H6.48924C6.73459 8.29445 7.42385 8.82094 8.23424 8.82094C9.04463 8.82094 9.73389 8.29445 9.97924 7.56574H18.9035C19.2271 7.56574 19.4894 7.3034 19.4894 6.9798C19.4894 6.65621 19.2271 6.39387 18.9035 6.39387ZM8.2342 7.64906C7.86518 7.64906 7.56494 7.34883 7.56494 6.9798C7.56494 6.61078 7.86518 6.31055 8.2342 6.31055C8.60322 6.31055 8.90346 6.61078 8.90346 6.9798C8.90346 7.34883 8.60322 7.64906 8.2342 7.64906Z" fill="currentColor"/>
<path d="M18.9035 11.4134H17.5104C17.2651 10.6847 16.5758 10.1582 15.7654 10.1582C14.9551 10.1582 14.2658 10.6847 14.0204 11.4134H5.09619C4.7726 11.4134 4.51025 11.6757 4.51025 11.9993C4.51025 12.3229 4.7726 12.5853 5.09619 12.5853H14.0204C14.2658 13.314 14.9551 13.8405 15.7654 13.8405C16.5758 13.8405 17.2651 13.314 17.5104 12.5853H18.9035C19.2271 12.5853 19.4894 12.3229 19.4894 11.9993C19.4894 11.6757 19.2271 11.4134 18.9035 11.4134ZM15.7654 12.6686C15.3964 12.6686 15.0962 12.3684 15.0962 11.9993C15.0962 11.6303 15.3964 11.3301 15.7654 11.3301C16.1345 11.3301 16.4347 11.6303 16.4347 11.9993C16.4347 12.3684 16.1345 12.6686 15.7654 12.6686Z" fill="currentColor"/>
<path d="M18.9035 16.4349H12.4896C12.2443 15.7062 11.555 15.1797 10.7446 15.1797C9.93424 15.1797 9.24498 15.7062 8.99963 16.4349H5.09619C4.7726 16.4349 4.51025 16.6972 4.51025 17.0208C4.51025 17.3444 4.7726 17.6068 5.09619 17.6068H8.99963C9.24498 18.3355 9.93424 18.862 10.7446 18.862C11.555 18.862 12.2443 18.3355 12.4896 17.6068H18.9035C19.2271 17.6068 19.4894 17.3444 19.4894 17.0208C19.4894 16.6972 19.2271 16.4349 18.9035 16.4349ZM10.7446 17.6901C10.3756 17.6901 10.0754 17.3899 10.0754 17.0209C10.0754 16.6518 10.3756 16.3516 10.7446 16.3516C11.1137 16.3516 11.4139 16.6518 11.4139 17.0208C11.4139 17.3898 11.1137 17.6901 10.7446 17.6901Z" fill="currentColor"/>
</svg>
