<svg width="24" height="24" viewBox="0 0 24 24" fill="none" xmlns="http://www.w3.org/2000/svg">
<g clip-path="url(#clip0_12368_53317)">
<rect width="24" height="24" fill="none"/>
<path d="M21.7067 0H2.2936C1.38847 0 0.856405 1.02011 1.37502 1.76241C1.385 1.77656 1.06771 1.34448 8.78258 11.8458C8.95564 12.0962 9.04709 12.3892 9.04709 12.6937V22.8145C9.04709 23.7987 10.1753 24.3415 10.9403 23.7626L14.2287 21.2838C14.6824 20.9468 14.9532 20.4086 14.9532 19.8433V12.6937C14.9532 12.3892 15.0446 12.0962 15.2177 11.8458C22.9266 1.35254 22.6153 1.77647 22.6253 1.76241C23.1436 1.02044 22.6122 0 21.7067 0V0ZM14.079 11.0205C13.7602 11.4545 13.547 12.0595 13.547 12.6936V19.8432C13.547 19.9657 13.4881 20.0824 13.3897 20.1552C13.3031 20.219 13.9589 19.7261 10.4533 22.3687V12.6937C10.4533 12.0971 10.2727 11.5233 9.93104 11.0342C9.92255 11.0221 10.1606 11.3464 5.09638 4.45306H18.9039L14.079 11.0205ZM19.937 3.0468H4.06332L2.85806 1.40621H21.1422L19.937 3.0468Z" fill="currentColor"/>
</g>
<defs>
<clipPath id="clip0_12368_53317">
<rect width="24" height="24" fill="none"/>
</clipPath>
</defs>
</svg>
