<svg width="24" height="24" viewBox="-3 -3 30 30" fill="none" xmlns="http://www.w3.org/2000/svg">
<path d="M23.2969 9.79059H19.2802C18.8919 9.79059 18.5771 10.1054 18.5771 10.4937V11.2969H17.3467V6.72811C17.3467 5.50988 16.3556 4.51875 15.1374 4.51875H14.7134V3.71564C14.7134 3.32733 14.3986 3.01252 14.0103 3.01252H9.99361C9.6053 3.01252 9.29048 3.32733 9.29048 3.71564V4.51875H8.06081V3.71564C8.06081 2.49741 7.06964 1.50628 5.85141 1.50628H5.42297V0.703125C5.42297 0.314812 5.10816 0 4.71984 0H0.703125C0.314812 0 0 0.314812 0 0.703125V3.71564C0 4.10395 0.314812 4.41877 0.703125 4.41877H4.7198C5.10811 4.41877 5.42292 4.10395 5.42292 3.71564V2.91253H5.85136C6.29419 2.91253 6.65452 3.27281 6.65452 3.71564V6.72816C6.65452 7.17098 6.29419 7.53131 5.85136 7.53131H5.42292V6.72816C5.42292 6.33984 5.10811 6.02503 4.7198 6.02503H0.703125C0.314812 6.02503 0 6.33984 0 6.72816V9.74063C0 10.1289 0.314812 10.4438 0.703125 10.4438H4.7198C5.10811 10.4438 5.42292 10.1289 5.42292 9.74063V8.93752H5.85136C7.06959 8.93752 8.06077 7.94634 8.06077 6.72811V5.925H9.29044V6.72811C9.29044 7.11642 9.60525 7.43123 9.99356 7.43123H14.0102C14.3985 7.43123 14.7134 7.11642 14.7134 6.72811V5.925H15.1373C15.5802 5.925 15.9405 6.28528 15.9405 6.72811V17.2719C15.9405 17.7147 15.5802 18.075 15.1373 18.075H14.7134V17.2719C14.7134 16.8836 14.3985 16.5688 14.0102 16.5688H9.99356C9.60525 16.5688 9.29044 16.8836 9.29044 17.2719V18.075H8.06077V17.2719C8.06077 16.0537 7.06959 15.0625 5.85136 15.0625H5.42292V14.2594C5.42292 13.8711 5.10811 13.5563 4.7198 13.5563H0.703125C0.314812 13.5563 0 13.8711 0 14.2594V17.2719C0 17.6602 0.314812 17.975 0.703125 17.975H4.7198C5.10811 17.975 5.42292 17.6602 5.42292 17.2719V16.4687H5.85136C6.29419 16.4687 6.65452 16.8291 6.65452 17.2719V20.2844C6.65452 20.7272 6.29419 21.0875 5.85136 21.0875H5.42292V20.2844C5.42292 19.8961 5.10811 19.5813 4.7198 19.5813H0.703125C0.314812 19.5813 0 19.8961 0 20.2844V23.2969C0 23.6852 0.314812 24 0.703125 24H4.7198C5.10811 24 5.42292 23.6852 5.42292 23.2969V22.4937H5.85136C7.06959 22.4937 8.06077 21.5026 8.06077 20.2844V19.4813H9.29044V20.2844C9.29044 20.6727 9.60525 20.9875 9.99356 20.9875H14.0102C14.3985 20.9875 14.7134 20.6727 14.7134 20.2844V19.4813H15.1373C16.3556 19.4813 17.3467 18.4901 17.3467 17.2719V12.7031H18.577V13.5063C18.577 13.8946 18.8918 14.2094 19.2802 14.2094H23.2969C23.6852 14.2094 24 13.8946 24 13.5063V10.4937C24 10.1054 23.6852 9.79059 23.2969 9.79059ZM4.01667 3.01252H1.40625V1.40625H4.01667V3.01252ZM4.01667 9.0375H1.40625V7.43123H4.01667V9.0375ZM13.3072 6.02498H10.6967V4.41877H13.3072V6.02498ZM4.01667 16.5688H1.40625V14.9625H4.01667V16.5688ZM4.01667 22.5938H1.40625V20.9875H4.01667V22.5938ZM13.3072 19.5812H10.6967V17.975H13.3072V19.5812ZM22.5938 12.8032H19.9833V11.1968H22.5938V12.8032Z" fill="currentColor"/>
</svg>
