<svg width="24" height="24" viewBox="-3 -3 30 30" fill="none" xmlns="http://www.w3.org/2000/svg">
<path d="M8.24036 16.0312C6.81878 16.0312 5.66223 17.1878 5.66223 18.6094C5.66223 20.031 6.81878 21.1875 8.24036 21.1875C9.66193 21.1875 10.8185 20.031 10.8185 18.6094C10.8185 17.1878 9.66193 16.0312 8.24036 16.0312ZM8.24036 19.7812C7.59418 19.7812 7.06848 19.2555 7.06848 18.6094C7.06848 17.9632 7.59418 17.4375 8.24036 17.4375C8.88653 17.4375 9.41223 17.9632 9.41223 18.6094C9.41223 19.2555 8.88653 19.7812 8.24036 19.7812Z" fill="currentColor"/>
<path d="M18.1318 6.09196C17.8573 5.81741 17.4121 5.81741 17.1375 6.09196L15.9774 7.25207L14.8172 6.09196C14.5427 5.81741 14.0975 5.81741 13.8229 6.09196C13.5483 6.3665 13.5483 6.81172 13.8229 7.08632L14.983 8.24643L13.8229 9.40654C13.5483 9.68108 13.5483 10.1263 13.8229 10.4009C13.9602 10.5382 14.1401 10.6069 14.32 10.6069C14.5 10.6069 14.68 10.5382 14.8172 10.4009L15.9773 9.24079L17.1374 10.4009C17.2747 10.5382 17.4547 10.6069 17.6346 10.6069C17.8145 10.6069 17.9945 10.5382 18.1317 10.4009C18.4063 10.1263 18.4063 9.68113 18.1317 9.40654L16.9716 8.24643L18.1317 7.08632C18.4065 6.81172 18.4065 6.3665 18.1318 6.09196Z" fill="currentColor"/>
<path d="M20.3961 2.16239C19.909 1.6748 19.2613 1.40625 18.5721 1.40625H17.4023V1.17188C17.4023 0.525703 16.8766 0 16.2304 0H7.79294C7.14676 0 6.62106 0.525703 6.62106 1.17188V1.40625H5.44712C4.02714 1.40625 2.87059 2.56153 2.869 3.98152L2.84973 21.419C2.84898 22.1082 3.11678 22.7563 3.60381 23.2439C4.09084 23.7315 4.73865 24 5.42781 24H18.5528C19.9728 24 21.1294 22.8447 21.1309 21.4247L21.1502 3.98723C21.151 3.29803 20.8832 2.64994 20.3961 2.16239ZM8.02731 1.40625H15.9961V2.8125H8.02731V1.40625ZM19.7247 21.4231C19.7239 22.0687 19.1983 22.5938 18.5528 22.5938H5.42781C5.11455 22.5938 4.82008 22.4717 4.59869 22.2501C4.3773 22.0284 4.25556 21.7338 4.25589 21.4206L4.27516 3.98311C4.27591 3.33759 4.80161 2.8125 5.44708 2.8125H6.62101V3.04688C6.62101 3.69305 7.14672 4.21875 7.79289 4.21875H16.2304C16.8766 4.21875 17.4023 3.69305 17.4023 3.04688V2.8125H18.5721C18.8853 2.8125 19.1798 2.93456 19.4012 3.15619C19.6226 3.37781 19.7443 3.67242 19.744 3.98564L19.7247 21.4231Z" fill="currentColor"/>
<path d="M14.1961 14.4648L10.1093 12.9118C9.2958 12.6026 8.7492 11.8103 8.7492 10.94V8.51162L9.20829 8.97071C9.34559 9.10801 9.52554 9.17668 9.70545 9.17668C9.88535 9.17668 10.0654 9.10801 10.2026 8.97071C10.4772 8.69616 10.4772 8.25095 10.2026 7.97635L8.53943 6.31318C8.26488 6.03863 7.81966 6.03863 7.54507 6.31318L5.88954 7.96876C5.61495 8.2433 5.61495 8.68852 5.88954 8.96312C6.16409 9.23766 6.6093 9.23766 6.8839 8.96312L7.34299 8.50402V10.94C7.34299 12.3904 8.25396 13.7111 9.60982 14.2263L13.6966 15.7793C14.51 16.0885 15.0566 16.8809 15.0566 17.7511V20.4844C15.0566 20.8727 15.3715 21.1875 15.7598 21.1875C16.1481 21.1875 16.4629 20.8727 16.4629 20.4844V17.7511C16.4629 16.3007 15.5519 14.98 14.1961 14.4648Z" fill="currentColor"/>
</svg>
