<svg width="24" height="24" viewBox="-3 -3 30 30" fill="none" xmlns="http://www.w3.org/2000/svg">
<path d="M23.1007 8.47173L20.8085 6.7111C20.809 6.70173 20.8099 6.69277 20.8099 6.68344V0.654663C20.8099 0.505479 20.7506 0.362405 20.6452 0.256916C20.5397 0.151426 20.3966 0.0921631 20.2474 0.0921631H16.9594C16.8102 0.0921631 16.6671 0.151426 16.5616 0.256916C16.4561 0.362405 16.3969 0.505479 16.3969 0.654663V3.32265L12.3426 0.208601C12.2444 0.13311 12.1239 0.0921868 12 0.0921868C11.8761 0.0921868 11.7556 0.13311 11.6573 0.208601L0.899238 8.47168C0.41542 8.84442 0.0991347 9.39379 0.0197188 9.99936C-0.059697 10.6049 0.104236 11.2173 0.475581 11.7022L0.502488 11.7372C0.809514 12.1354 1.23813 12.4225 1.72321 12.5549C2.2083 12.6873 2.72335 12.6578 3.19011 12.4708V21.7047C3.19077 22.2888 3.4231 22.8488 3.83612 23.2618C4.24914 23.6749 4.80913 23.9072 5.39324 23.9079H18.6067C19.1908 23.9072 19.7508 23.6749 20.1639 23.2618C20.5769 22.8488 20.8092 22.2888 20.8099 21.7047V12.4706C21.2766 12.658 21.7917 12.6877 22.2769 12.5553C22.7621 12.4229 23.1907 12.1356 23.4976 11.7371L23.5245 11.7021C23.8958 11.2172 24.0597 10.6049 23.9803 9.99932C23.9008 9.39378 23.5845 8.84444 23.1007 8.47173ZM17.5219 4.08873V1.21716H19.6848V5.84808L17.5138 4.18051C17.519 4.15018 17.5217 4.11949 17.5219 4.08873ZM18.6066 22.7829H5.39324C5.1074 22.7825 4.83336 22.6688 4.63124 22.4667C4.42913 22.2646 4.31544 21.9906 4.31511 21.7047V11.7832C4.31499 11.761 4.31358 11.7389 4.31089 11.7169L12 5.81105L19.6849 11.7137V21.7047C19.6845 21.9906 19.5708 22.2646 19.3687 22.4667C19.1666 22.6688 18.8926 22.7825 18.6067 22.7829H18.6066ZM22.6322 11.0169L22.6053 11.0519C22.4147 11.2995 22.1336 11.4614 21.8237 11.5021C21.5138 11.5427 21.2005 11.4588 20.9524 11.2687L12.3426 4.65568C12.2444 4.58019 12.1239 4.53926 12 4.53926C11.8761 4.53926 11.7556 4.58019 11.6573 4.65568L3.04752 11.2688C2.79923 11.4583 2.48601 11.5419 2.1763 11.5012C1.86658 11.4606 1.58554 11.299 1.39457 11.0518L1.36771 11.0168C1.17811 10.7686 1.09447 10.4554 1.13506 10.1457C1.17566 9.83594 1.33719 9.55489 1.58436 9.3639L12 1.36407L22.4156 9.36394C22.6628 9.55492 22.8244 9.83598 22.865 10.1457C22.9056 10.4554 22.8219 10.7687 22.6323 11.0169H22.6322ZM16.3594 11.8587H15.0494C15.0479 11.7054 15.0433 11.5491 15.0358 11.3899C15.0289 11.2456 14.9666 11.1094 14.862 11.0096C14.7574 10.9099 14.6184 10.8543 14.4739 10.8543H9.52611C9.38158 10.8543 9.2426 10.9099 9.13799 11.0097C9.03338 11.1094 8.97117 11.2456 8.96427 11.3899C8.95661 11.5493 8.95203 11.7056 8.95053 11.8587H7.64061C7.54897 11.8587 7.45872 11.8811 7.37771 11.9239C7.2967 11.9667 7.22738 12.0287 7.17578 12.1044C7.12417 12.1802 7.09186 12.2674 7.08163 12.3584C7.07141 12.4495 7.08359 12.5417 7.11711 12.627C7.71191 14.14 8.60774 15.1258 9.78003 15.557C9.79157 15.5612 9.80314 15.5646 9.81472 15.568C10.0912 16.0077 10.4502 16.3897 10.8719 16.6928V16.8516H10.2556C10.1064 16.8516 9.96337 16.9108 9.85788 17.0163C9.75239 17.1218 9.69313 17.2649 9.69313 17.4141V18.1506H9.61068C9.46149 18.1506 9.31842 18.2098 9.21293 18.3153C9.10744 18.4208 9.04818 18.5639 9.04818 18.7131V20.8958C9.04818 21.0449 9.10744 21.188 9.21293 21.2935C9.31842 21.399 9.46149 21.4583 9.61068 21.4583H14.3893C14.5385 21.4583 14.6816 21.399 14.787 21.2935C14.8925 21.188 14.9518 21.0449 14.9518 20.8958V18.7131C14.9518 18.5639 14.8925 18.4208 14.787 18.3153C14.6816 18.2098 14.5385 18.1506 14.3893 18.1506H14.3069V17.4141C14.3069 17.2649 14.2476 17.1218 14.1421 17.0163C14.0367 16.9108 13.8936 16.8516 13.7444 16.8516H13.1281V16.6928C13.5498 16.3897 13.9088 16.0077 14.1853 15.568C14.1968 15.5646 14.2085 15.5612 14.2199 15.557C15.3922 15.1257 16.2881 14.14 16.8829 12.627C16.9164 12.5417 16.9286 12.4495 16.9183 12.3584C16.9081 12.2674 16.8758 12.1802 16.8242 12.1044C16.7726 12.0287 16.7033 11.9667 16.6223 11.9239C16.5413 11.8811 16.451 11.8587 16.3594 11.8587ZM8.52411 12.9837H8.99896C9.02661 13.2614 9.06923 13.5374 9.12664 13.8106C8.89122 13.5619 8.68872 13.284 8.52411 12.9837ZM13.8268 20.3333H10.1732V19.2756H13.8268V20.3333ZM13.1819 18.1506H10.8181V17.9766H13.1819V18.1506ZM12.2745 15.9091C12.1917 15.9591 12.1232 16.0298 12.0756 16.1141C12.0281 16.1984 12.0031 16.2936 12.0031 16.3904V16.8516H11.9969V16.3904C11.9969 16.2936 11.9719 16.1984 11.9244 16.1141C11.8768 16.0298 11.8084 15.9592 11.7255 15.9091C10.6129 15.2361 10.0704 13.9479 10.0743 11.9793H13.9257C13.9296 13.9479 13.3871 15.2361 12.2745 15.9091ZM14.8734 13.8106C14.9308 13.5374 14.9735 13.2614 15.0011 12.9837H15.476C15.3114 13.284 15.1089 13.5619 14.8734 13.8106Z" fill="currentColor"/>
</svg>
