<svg width="24" height="24" viewBox="-3 -3 30 30" fill="none" xmlns="http://www.w3.org/2000/svg">
<path d="M18.375 22.125H5.625C2.52338 22.125 0 19.6016 0 16.5V7.5C0 4.39838 2.52338 1.875 5.625 1.875H18.375C21.4766 1.875 24 4.39838 24 7.5V16.5C24 19.6016 21.4766 22.125 18.375 22.125ZM5.625 3.75C3.55725 3.75 1.875 5.43225 1.875 7.5V16.5C1.875 18.5677 3.55725 20.25 5.625 20.25H18.375C20.4427 20.25 22.125 18.5677 22.125 16.5V7.5C22.125 5.43225 20.4427 3.75 18.375 3.75H5.625ZM10.5469 9.1875C10.5469 9.8347 11.0715 10.3594 11.7188 10.3594C12.366 10.3594 12.8906 9.8347 12.8906 9.1875C12.8906 8.5403 12.366 8.01562 11.7188 8.01562C11.0715 8.01562 10.5469 8.5403 10.5469 9.1875ZM10.5469 14.8125C10.5469 15.4597 11.0715 15.9844 11.7188 15.9844C12.366 15.9844 12.8906 15.4597 12.8906 14.8125C12.8906 14.1653 12.366 13.6406 11.7188 13.6406C11.0715 13.6406 10.5469 14.1653 10.5469 14.8125ZM8.48438 15.7969V9.00122C8.48438 8.37755 8.14725 7.79925 7.60453 7.49198C7.06177 7.18467 6.39253 7.19316 5.85764 7.51402L4.72073 8.19614C4.27673 8.46253 4.13278 9.03839 4.39922 9.48239C4.66561 9.92639 5.24138 10.0703 5.68542 9.80395L6.60938 9.24961V15.7969C6.60938 16.3147 7.02909 16.7344 7.54688 16.7344C8.06466 16.7344 8.48438 16.3147 8.48438 15.7969ZM19.0312 14.8438H16.5C16.4994 14.8159 16.5073 14.7714 16.5431 14.7187C17.0164 14.0202 17.5643 13.4548 18.0942 12.908C18.9859 11.9877 19.8281 11.1185 19.8281 9.9375C19.8281 8.47284 18.64 7.28123 17.1797 7.28123C16.2862 7.28123 15.6054 7.69514 15.3519 7.87481C15.0848 8.04 14.9062 8.3347 14.9062 8.67188C14.9062 9.18966 15.326 9.60938 15.8438 9.60938C16.0672 9.60938 16.2721 9.53091 16.4332 9.40045L16.4359 9.40387L16.4257 9.41198C16.429 9.40941 16.7643 9.15623 17.1796 9.15623C17.6061 9.15623 17.9531 9.50672 17.9531 9.9375C17.9531 10.359 17.3944 10.9356 16.7475 11.6032C16.189 12.1796 15.556 12.8329 14.9909 13.6667C14.559 14.304 14.5044 15.1028 14.8484 15.7513C15.1696 16.3571 15.7809 16.7187 16.4835 16.7187H19.0312C19.549 16.7187 19.9688 16.299 19.9688 15.7812C19.9688 15.2634 19.549 14.8438 19.0312 14.8438Z" fill="currentColor"/>
</svg>
