<svg width="24" height="24" viewBox="-3 -3 30 30" fill="none" xmlns="http://www.w3.org/2000/svg">
<path d="M20.7226 17.4866C20.0854 17.4866 19.4914 17.6722 18.9901 17.9914L15.254 14.2194C15.5742 13.7618 15.7928 13.2451 15.8972 12.6971H19.4328C19.5454 13.043 19.7384 13.3601 20.0032 13.6247C20.4597 14.081 21.0591 14.3091 21.6586 14.3091C22.2581 14.3091 22.8578 14.081 23.3141 13.6247C23.7565 13.1827 24 12.5947 24 11.9694C24 11.3441 23.7565 10.7563 23.3141 10.3141C22.4013 9.40155 20.916 9.40173 20.0032 10.3141C19.726 10.5914 19.5267 10.9257 19.4167 11.2906H15.9141C15.8179 10.7071 15.5936 10.1565 15.2549 9.67218L18.96 5.95184C19.4676 6.28271 20.0728 6.47571 20.7224 6.47571C22.507 6.47571 23.9586 5.02441 23.9586 3.2406C23.9586 1.4566 22.507 0.00531009 20.7224 0.00531009C18.938 0.00531009 17.4864 1.4566 17.4864 3.2406C17.4864 3.86682 17.6658 4.45184 17.9753 4.94769L14.2595 8.67883C13.7717 8.33954 13.2248 8.12201 12.6605 8.02625V4.58459C13.0245 4.47803 13.3676 4.28156 13.6542 3.995C14.0964 3.55298 14.3401 2.96503 14.3401 2.33972C14.3401 1.71442 14.0964 1.12665 13.6542 0.684448C12.7412 -0.228149 11.256 -0.228149 10.3431 0.684448C9.90088 1.12665 9.65735 1.71442 9.65735 2.33972C9.65735 2.96503 9.90088 3.55298 10.3431 3.995C10.6078 4.25977 10.921 4.44708 11.2542 4.55823V8.03687C10.7106 8.13812 10.1849 8.35345 9.71411 8.68158L5.96741 4.97314C6.28638 4.47198 6.47223 3.87817 6.47223 3.24133C6.47223 1.45734 5.02039 0.00604251 3.23602 0.00604251C1.45166 0.00604251 0 1.45734 0 3.24133C0 5.02533 1.45166 6.47662 3.23621 6.47662C3.87543 6.47662 4.47162 6.28967 4.97406 5.96851L8.72003 9.67603C8.38275 10.1594 8.15936 10.7086 8.0636 11.2908H4.58313C4.47327 10.9257 4.27405 10.5914 3.99683 10.3143C3.08405 9.40173 1.59869 9.40173 0.685913 10.3143C0.24353 10.7563 0 11.3441 0 11.9694C0 12.5947 0.24353 13.1825 0.685913 13.6247C1.14221 14.081 1.74188 14.3091 2.34137 14.3091C2.94086 14.3091 3.54053 14.081 3.99683 13.6247C4.2616 13.3599 4.45459 13.0428 4.56738 12.6969H8.08044C8.185 13.2457 8.40381 13.7626 8.72479 14.2205L4.96747 18.0322C4.46631 17.7138 3.87268 17.5283 3.23621 17.5283C1.45166 17.5283 0 18.9798 0 20.7636C0 22.5476 1.45166 23.9989 3.23621 23.9989C5.02057 23.9989 6.47223 22.5476 6.47223 20.7636C6.47223 20.124 6.28491 19.5278 5.96338 19.0252L9.72089 15.2131C10.2081 15.5515 10.7543 15.7683 11.3176 15.8641V19.3685C10.9607 19.4764 10.6247 19.6708 10.3433 19.9521C9.90106 20.3943 9.65735 20.9822 9.65735 21.6075C9.65735 22.2328 9.90106 22.8206 10.3433 23.2628C10.7997 23.7191 11.3992 23.9473 11.9987 23.9473C12.5984 23.9473 13.1979 23.7191 13.6542 23.2628C14.0966 22.8206 14.3401 22.2328 14.3401 21.6075C14.3401 20.9822 14.0966 20.3943 13.6542 19.9521C13.3843 19.6824 13.0642 19.493 12.7238 19.3826V15.8533C13.2651 15.7524 13.7889 15.5381 14.2582 15.2122L17.9947 18.9846C17.6735 19.4868 17.4864 20.0826 17.4864 20.7219C17.4864 22.5059 18.938 23.9572 20.7226 23.9572C22.507 23.9572 23.9586 22.5059 23.9586 20.7219C23.9586 18.9379 22.507 17.4866 20.7226 17.4866ZM11.9888 14.5161C11.3298 14.5161 10.6708 14.2654 10.1691 13.7639C9.68317 13.2781 9.41547 12.6321 9.41547 11.9451C9.41547 11.2581 9.68317 10.6121 10.1691 10.1263C10.6708 9.62476 11.3298 9.37408 11.9888 9.37408C12.6478 9.37408 13.3068 9.62476 13.8085 10.1263C14.2945 10.6121 14.5622 11.2581 14.5622 11.9451C14.5622 12.6321 14.2945 13.2781 13.8085 13.7639C13.3068 14.2654 12.6478 14.5162 11.9888 14.5161ZM21.6586 11.0354C22.0259 11.0354 22.3726 11.2635 22.5183 11.6006C22.6675 11.9458 22.5848 12.3618 22.3213 12.6286C22.0336 12.9197 21.5673 12.9855 21.2087 12.789C21.0275 12.6894 20.8806 12.5288 20.7993 12.3384C20.7523 12.2281 20.7345 12.1218 20.7345 12.0027C20.7345 11.9451 20.7266 11.8881 20.7345 11.8308C20.7409 11.7854 20.7513 11.7405 20.7647 11.6968C20.8832 11.3113 21.2552 11.0354 21.6586 11.0354ZM20.7226 1.41156C21.7315 1.41156 22.5524 2.23206 22.5524 3.2406C22.5524 4.24915 21.7315 5.06964 20.7226 5.06964C20.2299 5.06964 19.7822 4.87354 19.4529 4.55585C19.4387 4.53882 19.4236 4.52197 19.4077 4.50604C19.3975 4.49597 19.3867 4.487 19.376 4.47766C19.0763 4.15173 18.8926 3.71722 18.8926 3.2406C18.8926 2.23206 19.7135 1.41156 20.7226 1.41156ZM11.3373 1.67908C11.623 1.39343 12.0742 1.32477 12.4321 1.51154C12.7934 1.70013 12.9924 2.11249 12.9179 2.51239C12.8487 2.88501 12.549 3.18512 12.1774 3.25671C11.8273 3.32446 11.4619 3.18329 11.2484 2.89764C10.9739 2.5307 11.014 2.00244 11.3373 1.67908ZM1.40625 3.24133C1.40625 2.23279 2.22711 1.41229 3.23621 1.41229C4.24512 1.41229 5.06598 2.23279 5.06598 3.24133C5.06598 4.24988 4.24512 5.07037 3.23621 5.07037C2.22711 5.07037 1.40625 4.24988 1.40625 3.24133ZM1.67999 12.6302C1.40918 12.3594 1.33136 11.9304 1.48993 11.5818C1.64685 11.237 2.01489 11.0176 2.39246 11.0369C2.75409 11.0554 3.0802 11.2952 3.2124 11.6312C3.24701 11.7188 3.27484 11.8174 3.26862 11.9121C3.26129 12.0231 3.26898 12.1298 3.23694 12.2379C3.17633 12.4418 3.04449 12.6209 2.86908 12.741C2.50488 12.9902 1.99219 12.9423 1.67999 12.6302ZM3.23621 22.5927C2.22711 22.5927 1.40625 21.7722 1.40625 20.7636C1.40625 19.7551 2.22711 18.9346 3.23621 18.9346C4.24512 18.9346 5.06598 19.7551 5.06598 20.7636C5.06598 21.7722 4.24512 22.5927 3.23621 22.5927ZM12.6599 22.2682C12.4114 22.5165 12.0346 22.6044 11.7014 22.4934C11.3375 22.372 11.0797 22.0287 11.0643 21.6454C11.048 21.2371 11.3079 20.8557 11.6953 20.7235C12.0764 20.5935 12.5081 20.7272 12.7491 21.0496C13.0236 21.4166 12.9835 21.9448 12.6599 22.2682ZM20.7226 22.5509C19.7135 22.5509 18.8926 21.7304 18.8926 20.7219C18.8926 19.7133 19.7135 18.8928 20.7226 18.8928C21.7315 18.8928 22.5524 19.7133 22.5524 20.7219C22.5524 21.7304 21.7315 22.5509 20.7226 22.5509Z" fill="currentColor"/>
</svg>
