<svg width="24" height="24" viewBox="0 0 24 24" fill="none" xmlns="http://www.w3.org/2000/svg">
<path d="M19.525 8.38578C19.9625 7.95855 20.2349 7.36293 20.2349 6.70461C20.2349 5.4082 19.1802 4.35352 17.8838 4.35352C16.5874 4.35352 15.5327 5.4082 15.5327 6.70461C15.5327 7.36297 15.805 7.95859 16.2425 8.38578C15.4599 8.91445 14.9443 9.80977 14.9443 10.8232V14.3535C14.9443 14.6771 15.2067 14.9395 15.5303 14.9395H16.1211V19.0605C16.1211 19.3841 16.3834 19.6465 16.707 19.6465H19.0605C19.3841 19.6465 19.6465 19.3841 19.6465 19.0605V14.9395H20.2373C20.5609 14.9395 20.8232 14.6771 20.8232 14.3535V10.8232C20.8232 9.80977 20.3077 8.91445 19.525 8.38578V8.38578ZM16.7046 6.70461C16.7046 6.05438 17.2336 5.52539 17.8838 5.52539C18.5341 5.52539 19.063 6.05438 19.063 6.70461C19.063 7.35484 18.5341 7.88383 17.8838 7.88383C17.2336 7.88383 16.7046 7.3548 16.7046 6.70461ZM19.6514 13.7676H19.0605C18.737 13.7676 18.4746 14.0299 18.4746 14.3535V18.4746H17.293V14.3535C17.293 14.0299 17.0306 13.7676 16.707 13.7676H16.1162V10.8232C16.1162 9.84859 16.9091 9.05566 17.8838 9.05566C18.8584 9.05566 19.6514 9.84859 19.6514 10.8232V13.7676Z" fill="currentColor"/>
<path d="M9.44631 13.1353V10.8232C9.44631 9.80977 8.93073 8.91445 8.14811 8.38578C8.58561 7.95855 8.85795 7.36293 8.85795 6.70461C8.85795 5.4082 7.80327 4.35352 6.50686 4.35352C5.21045 4.35352 4.15576 5.4082 4.15576 6.70461C4.15576 7.36297 4.42811 7.95859 4.86561 8.38578C4.08295 8.91445 3.56741 9.80977 3.56741 10.8232V13.1353L3.1826 15.8383C3.15869 16.0064 3.20885 16.1767 3.32014 16.3049C3.43143 16.4332 3.59287 16.5068 3.76268 16.5068H4.74416V19.0605C4.74416 19.3841 5.00651 19.6465 5.3301 19.6465H7.68362C8.00721 19.6465 8.26955 19.3841 8.26955 19.0605V16.5068H9.251C9.4208 16.5068 9.58225 16.4332 9.69354 16.3049C9.80487 16.1767 9.85502 16.0064 9.83108 15.8383L9.44631 13.1353ZM5.32768 6.70465C5.32768 6.05441 5.85666 5.52543 6.5069 5.52543C7.15713 5.52543 7.68612 6.05441 7.68612 6.70465C7.68612 7.35488 7.15713 7.88387 6.5069 7.88387C5.85666 7.88387 5.32768 7.35484 5.32768 6.70465V6.70465ZM7.68362 15.335C7.36002 15.335 7.09768 15.5973 7.09768 15.9209V18.4746H5.91604V15.9209C5.91604 15.5973 5.65369 15.335 5.3301 15.335H4.43795L4.73342 13.2594C4.73733 13.232 4.73924 13.2044 4.73924 13.1768V10.8233C4.73924 9.84863 5.53217 9.0557 6.50682 9.0557C7.48147 9.0557 8.2744 9.84863 8.2744 10.8233V13.1768C8.2744 13.2044 8.27635 13.232 8.28022 13.2594L8.57569 15.335H7.68362Z" fill="currentColor"/>
<path d="M12.1953 2C11.8717 2 11.6094 2.26234 11.6094 2.58594V21.4141C11.6094 21.7377 11.8717 22 12.1953 22C12.5189 22 12.7812 21.7377 12.7812 21.4141V2.58594C12.7812 2.26234 12.5189 2 12.1953 2Z" fill="currentColor"/>
</svg>
