<svg width="24" height="24" viewBox="0 0 24 24" fill="none" xmlns="http://www.w3.org/2000/svg">
<rect width="24" height="24" fill="none"/>
<path d="M21.03 7.66294C21.555 7.15027 21.8819 6.43552 21.8819 5.64553C21.8819 4.08984 20.6162 2.82422 19.0605 2.82422C17.5049 2.82422 16.2392 4.08984 16.2392 5.64553C16.2392 6.43556 16.566 7.15031 17.091 7.66294C16.1519 8.29734 15.5332 9.37172 15.5332 10.5879V14.8242C15.5332 15.2125 15.848 15.5273 16.2363 15.5273H16.9453V20.4727C16.9453 20.861 17.2601 21.1758 17.6484 21.1758H20.4727C20.861 21.1758 21.1758 20.861 21.1758 20.4727V15.5273H21.8848C22.2731 15.5273 22.5879 15.2125 22.5879 14.8242V10.5879C22.5879 9.37172 21.9692 8.29734 21.03 7.66294ZM17.6455 5.64553C17.6455 4.86525 18.2803 4.23047 19.0606 4.23047C19.8409 4.23047 20.4757 4.86525 20.4757 5.64553C20.4757 6.42581 19.8409 7.06059 19.0606 7.06059C18.2803 7.06059 17.6455 6.42577 17.6455 5.64553ZM21.1816 14.1211H20.4727C20.0843 14.1211 19.7695 14.4359 19.7695 14.8242V19.7695H18.3516V14.8242C18.3516 14.4359 18.0368 14.1211 17.6484 14.1211H16.9395V10.5879C16.9395 9.41831 17.891 8.4668 19.0605 8.4668C20.2301 8.4668 21.1816 9.41831 21.1816 10.5879V14.1211Z" fill="currentColor"/>
<path d="M8.93557 13.3623V10.5879C8.93557 9.37172 8.31687 8.29734 7.37773 7.66294C7.90273 7.15027 8.22954 6.43552 8.22954 5.64553C8.22954 4.08984 6.96392 2.82422 5.40823 2.82422C3.85254 2.82422 2.58692 4.08984 2.58692 5.64553C2.58692 6.43556 2.91373 7.15031 3.43873 7.66294C2.49954 8.29734 1.88089 9.37172 1.88089 10.5879V13.3623L1.41912 16.606C1.39043 16.8077 1.45062 17.012 1.58417 17.1659C1.71771 17.3198 1.91145 17.4082 2.11521 17.4082H3.293V20.4727C3.293 20.861 3.60781 21.1758 3.99612 21.1758H6.82034C7.20865 21.1758 7.52346 20.861 7.52346 20.4727V17.4082H8.7012C8.90496 17.4082 9.0987 17.3198 9.23225 17.1659C9.36584 17.012 9.42603 16.8077 9.39729 16.606L8.93557 13.3623ZM3.99321 5.64558C3.99321 4.8653 4.628 4.23052 5.40828 4.23052C6.18856 4.23052 6.82334 4.8653 6.82334 5.64558C6.82334 6.42586 6.18856 7.06064 5.40828 7.06064C4.628 7.06064 3.99321 6.42581 3.99321 5.64558ZM6.82034 16.002C6.43203 16.002 6.11721 16.3168 6.11721 16.7051V19.7696H4.69925V16.7051C4.69925 16.3168 4.38443 16.002 3.99612 16.002H2.92554L3.28011 13.5113C3.28479 13.4784 3.28709 13.4453 3.28709 13.4122V10.5879C3.28709 9.41836 4.23861 8.46684 5.40818 8.46684C6.57776 8.46684 7.52928 9.41836 7.52928 10.5879V13.4122C7.52928 13.4453 7.53162 13.4784 7.53626 13.5113L7.89082 16.002H6.82034Z" fill="currentColor"/>
<path d="M12.2344 0C11.8461 0 11.5312 0.314812 11.5312 0.703125V23.2969C11.5312 23.6852 11.8461 24 12.2344 24C12.6227 24 12.9375 23.6852 12.9375 23.2969V0.703125C12.9375 0.314812 12.6227 0 12.2344 0Z" fill="currentColor"/>
</svg>
