<svg width="22" height="22" viewBox="-3 -2 22 22" fill="none" xmlns="http://www.w3.org/2000/svg">
<path d="M2.13468 0.75C1.23084 0.75 0.5 1.47995 0.5 2.36347V15.6365C0.5 16.5201 1.2308 17.2499 2.11535 17.2499H2.13453L2.13468 0.75Z" fill="currentColor"/>
<path d="M13.6729 0.75H2.73059V17.25H13.6729C14.269 17.25 14.7498 16.7698 14.7498 16.1744V1.8257C14.7498 1.23028 14.269 0.750069 13.6729 0.750069V0.75ZM8.8075 4.53405C9.01904 4.2843 9.26907 4.16906 9.5383 4.16906C9.76903 4.16906 9.96138 4.24583 10.1153 4.39952C10.2691 4.5532 10.346 4.7452 10.346 4.95649C10.346 5.30217 10.2498 5.59037 10.0576 5.82083C9.84603 6.07058 9.59601 6.18583 9.30758 6.18583C9.07685 6.18583 8.8845 6.10905 8.73062 5.93608C8.57676 5.78239 8.51908 5.57108 8.51908 5.34065C8.49976 5.05272 8.59594 4.76464 8.80748 4.53404L8.8075 4.53405ZM10.3267 11.9485C9.90358 12.5248 9.48047 12.9857 9.07673 13.3124C8.65365 13.658 8.30757 13.831 8.019 13.831C7.78828 13.831 7.65359 13.7158 7.59593 13.6389C7.51906 13.5236 7.48056 13.3508 7.48056 13.1202C7.48056 12.6016 7.59593 11.7948 7.84598 10.7192C8.07671 9.66267 8.2114 8.8944 8.2114 8.47178C8.2114 8.39501 8.19222 8.37571 8.19222 8.35655C8.17304 8.35655 8.09604 8.37571 7.99986 8.45262C7.90368 8.5294 7.76913 8.66392 7.59594 8.83676L7.49976 8.93283L7.40371 8.7983L7.17299 8.587L7.07681 8.49093L7.15367 8.39486C7.61524 7.85703 8.03835 7.43444 8.42293 7.12708C8.82685 6.80055 9.15373 6.64687 9.40367 6.64687C9.59603 6.64687 9.73057 6.70448 9.82674 6.83901C9.92292 6.95423 9.96142 7.10792 9.96142 7.31921C9.96142 7.49206 9.88456 8.04917 9.73069 8.99031C9.67301 9.29768 9.63451 9.54728 9.61533 9.72026C9.51915 10.3157 9.44228 10.8152 9.36529 11.2185C9.28843 11.6987 9.28842 11.8716 9.28842 11.9292C9.28842 12.0253 9.30761 12.0637 9.30761 12.0829C9.30761 12.0829 9.30761 12.102 9.34611 12.102C9.34611 12.102 9.40379 12.102 9.51915 12.006C9.61533 11.9292 9.74988 11.7947 9.88457 11.6218L9.96143 11.5258L10.0576 11.6025L10.3077 11.7947L10.4038 11.8715L10.3267 11.9485Z" fill="currentColor"/>
</svg>
