<svg width="24" height="24" viewBox="0 0 24 24" fill="none" xmlns="http://www.w3.org/2000/svg">
<path d="M15.457 5.80005L13.6217 5.32013L12.5744 3.83661C12.4425 3.65002 12.2283 3.53906 12 3.53906C11.7716 3.53906 11.5574 3.65002 11.4256 3.83661L10.3782 5.32013L8.54293 5.80005C8.30929 5.86102 8.12343 6.03772 8.05038 6.26788C7.9775 6.49805 8.02785 6.74963 8.18368 6.93402L9.35061 8.315L9.27096 10.0697C9.26034 10.303 9.36617 10.5262 9.55367 10.6657C9.67654 10.7571 9.82412 10.8047 9.97335 10.8047C10.0515 10.8047 10.1301 10.7917 10.2057 10.7651L12 10.1369L13.7942 10.7651C14.0147 10.8422 14.2589 10.8051 14.4462 10.6657C14.6337 10.5262 14.7396 10.303 14.729 10.0697L14.6493 8.315L15.8162 6.93402C15.9721 6.74963 16.0224 6.49805 15.9495 6.26788C15.8765 6.03772 15.6906 5.86102 15.457 5.80005ZM13.3972 7.61774C13.283 7.75305 13.2238 7.92664 13.2319 8.10352L13.2769 9.09412L12.2323 8.72827C12.0818 8.67554 11.9181 8.67554 11.7676 8.72827L10.723 9.09412L10.7678 8.10352C10.7759 7.92664 10.7169 7.75305 10.6025 7.61774L9.97774 6.87836L10.9823 6.6156C11.1428 6.57367 11.2833 6.47644 11.3789 6.34094L12 5.4613L12.6212 6.34094C12.7168 6.47644 12.8573 6.57367 13.0177 6.6156L14.0222 6.87836L13.3972 7.61774Z" fill="currentColor"/>
<path d="M23.2969 1.5H19.0781V0.703125C19.0781 0.314758 18.7634 0 18.375 0H5.625C5.23663 0 4.92188 0.314758 4.92188 0.703125V1.5H0.703125C0.314758 1.5 0 1.81476 0 2.20312V5.625C0 8.5611 2.33917 10.9607 5.25183 11.059C5.89362 13.1437 7.42126 14.8233 9.375 15.6211V16.2656C9.375 18.23 7.77686 19.8281 5.8125 19.8281C5.42413 19.8281 5.10938 20.1429 5.10938 20.5312V23.2969C5.10938 23.6852 5.42413 24 5.8125 24H18.1875C18.5759 24 18.8906 23.6852 18.8906 23.2969V20.5312C18.8906 20.1429 18.5759 19.8281 18.1875 19.8281C16.2231 19.8281 14.625 18.23 14.625 16.2656V15.6211C16.5787 14.8233 18.1064 13.1437 18.7482 11.059C21.6608 10.9607 24 8.5611 24 5.625V2.20312C24 1.81476 23.6852 1.5 23.2969 1.5ZM4.92188 9.62347C2.94159 9.36951 1.40625 7.67322 1.40625 5.625V2.90625H4.92188V9.62347ZM6.51562 22.5938V21.2344H17.4844V22.5938H6.51562ZM14.7275 19.8281H9.27246C10.2025 18.9247 10.7812 17.6614 10.7812 16.2656V16.0247C11.1599 16.0902 11.5486 16.125 11.9451 16.125H12.0549C12.4514 16.125 12.8401 16.0902 13.2188 16.0247V16.2656C13.2188 17.6614 13.7975 18.9247 14.7275 19.8281ZM13.7261 14.4538C13.7168 14.4565 13.7075 14.4595 13.6981 14.4626C13.1781 14.629 12.6264 14.7188 12.0549 14.7188H11.9451C11.3736 14.7188 10.8217 14.629 10.3017 14.4626C10.2925 14.4595 10.2832 14.4565 10.2737 14.4538C7.99017 13.7097 6.32812 11.4818 6.32812 8.85663V1.45312H17.6719V8.85663C17.6719 11.4818 16.0098 13.7097 13.7261 14.4538ZM22.5938 5.625C22.5938 7.67322 21.0584 9.36951 19.0781 9.62347V2.90625H22.5938V5.625Z" fill="currentColor"/>
</svg>
