<svg width="24" height="24" viewBox="-3 -3 30 30" fill="none" xmlns="http://www.w3.org/2000/svg">
<path fill-rule="evenodd" clip-rule="evenodd" d="M12 23C5.95 23 1 18.05 1 12C1 5.95 5.95 1 12 1C18.05 1 23 5.95 23 12C23 18.05 18.05 23 12 23ZM12 2.83346C6.95846 2.83346 2.83346 6.95846 2.83346 12C2.83346 17.0415 6.95846 21.1665 12 21.1665C17.0415 21.1665 21.1665 17.0415 21.1665 12C21.1665 6.95846 17.0415 2.83346 12 2.83346V2.83346ZM12 17.5C11.5416 17.5 11.0834 17.0416 11.0834 16.5834V11.0834C11.0834 10.625 11.45 10.1668 12 10.1668C12.55 10.1668 12.9166 10.5334 12.9166 11.0834V11.175V16.675C12.9166 17.0416 12.55 17.5 12 17.5ZM12 8.33346C11.5416 8.33346 11.0834 7.96685 11.0834 7.41685C11.0834 6.86685 11.45 6.50024 12 6.50024C12.4584 6.50024 12.9166 6.86685 12.9166 7.41685C12.9166 7.96669 12.4584 8.33346 12 8.33346Z" fill="currentColor"/>
</svg>
