<svg width="22" height="22" viewBox="0 0 22 20" fill="none" xmlns="http://www.w3.org/2000/svg">
<path d="M10.9145 2.95947C10.9035 2.96679 10.894 2.97317 10.8881 2.97722C10.8932 2.9738 10.9016 2.96804 10.9145 2.95947Z" fill="currentColor"/>
<path d="M10.9749 2.92181L10.9771 2.92041L10.9727 2.92341L10.9749 2.92181Z" fill="currentColor"/>
<path d="M21.4008 7.1871L11.0002 0.592061L5.79593 3.89204V0H2.37371V6.0623L0.599082 7.18767C-0.00870621 7.57596 -0.193833 8.36336 0.22918 8.96495C0.642197 9.55251 1.48027 9.71131 2.10484 9.3168L2.11667 9.30927V18.5574H0.510312V19.1986H7.76751V20H15.0383V19.1986H21.4768V18.5574H19.8705L19.8706 9.30096L19.896 9.31705C20.5165 9.70905 21.356 9.55659 21.7711 8.96608C22.1866 8.37968 22.0205 7.58159 21.4008 7.1871ZM3.04992 0.641179H5.11959V4.32001L3.04992 5.6321V0.641179ZM14.3616 19.3585H8.4439V18.7143H14.3616V19.3585ZM10.8954 15.0199C10.9006 15.0207 10.906 15.0204 10.9113 15.0209C11.0724 15.0418 11.2365 15.0533 11.4028 15.0533C11.5694 15.0533 11.7335 15.0418 11.8944 15.0209C11.8996 15.0202 11.9049 15.0207 11.91 15.0199V16.7876H10.8956L10.8954 15.0199ZM8.45725 11.6197V9.33726H14.3478V11.6197C14.3478 13.2909 12.7991 14.6083 11.0177 14.3882C9.6024 14.2126 8.45725 13.0587 8.45725 11.6197ZM13.4044 17.4289V18.0734H9.40062V17.4289H13.4044ZM19.1938 18.5543H15.0377V18.0734H14.0807V16.7877H12.586V14.858C13.5753 14.5352 14.3656 13.8232 14.7551 12.8986C16.0853 12.3515 16.9381 11.1284 16.9381 9.74124V9.42067H15.024V8.69629H7.78075V9.42067L5.86337 9.42082V9.74139C5.86337 11.1066 6.73535 12.3562 8.04622 12.8985C8.45394 13.8535 9.24279 14.5369 10.2188 14.8569V16.7878H8.72424V18.0734H7.76724V18.5543H2.79294V8.88069L10.9999 3.67795L19.1937 8.872L19.1938 18.5543ZM14.9963 12.045C15.0008 12.0119 15.0243 11.7736 15.0243 11.6199V10.062H16.2431C16.1475 10.8725 15.6914 11.5894 14.9963 12.045ZM7.80482 11.9964C7.80654 12.0116 7.80576 12.0274 7.80778 12.0426C7.1206 11.5857 6.6582 10.8614 6.55984 10.062H7.78104V11.6199C7.78104 11.747 7.79066 11.8722 7.80482 11.9964ZM21.2089 8.60951C21.0097 8.89259 20.5729 8.97435 20.2713 8.78396C18.4469 7.62716 11.353 3.12935 11.0003 2.90567C10.9976 2.90744 10.9955 2.90877 10.993 2.91039C10.993 2.91039 10.9897 2.91246 10.9863 2.91453L10.9874 2.91379L10.9852 2.91512C10.9828 2.91659 10.9799 2.91851 10.9763 2.92073C10.9782 2.91954 10.9799 2.91851 10.9816 2.91733C10.9793 2.91881 10.9768 2.92043 10.9746 2.92176C10.9707 2.92427 10.966 2.92722 10.9607 2.93061C10.9651 2.92781 10.9691 2.9253 10.9729 2.92294C10.9477 2.93888 10.9285 2.95098 10.9145 2.95998C10.9164 2.9588 10.9184 2.95748 10.9204 2.95615C10.9104 2.96249 10.8991 2.96973 10.8866 2.97755L10.8879 2.97666C10.8848 2.97858 10.882 2.9805 10.882 2.9805L10.8852 2.97843C10.4683 3.24277 8.62704 4.41022 1.72974 8.78343C1.42693 8.97441 0.99071 8.89205 0.791913 8.60942C0.577226 8.30406 0.675616 7.91175 0.976242 7.72019L11.0002 1.36357L21.0241 7.71981C21.3339 7.91685 21.417 8.31567 21.2089 8.60951Z" fill="currentColor"/>
<path d="M12.5287 13.4866C12.6327 13.4149 12.6849 13.2933 12.6631 13.1731L12.5161 12.3605L13.1393 11.7851C13.2315 11.6999 13.2645 11.5725 13.2248 11.4564C13.1848 11.3404 13.0792 11.2557 12.9517 11.2382L12.0911 11.1197L11.7061 10.3805C11.5924 10.1616 11.2133 10.1616 11.0997 10.3805L10.7147 11.1197L9.85404 11.2382C9.72654 11.2558 9.62083 11.3405 9.58097 11.4564C9.54127 11.5725 9.57443 11.6999 9.66644 11.7851L10.2897 12.3605L10.1424 13.173C10.1206 13.2934 10.1727 13.4149 10.2767 13.4866C10.5742 13.6918 10.8629 13.3296 11.4028 13.1274C12.017 13.3866 12.2514 13.6779 12.5287 13.4866ZM11.2457 12.4814L10.925 12.6412L10.9861 12.303C11.0049 12.1989 10.9686 12.0928 10.8889 12.019L10.6294 11.7793L10.9878 11.73C11.098 11.7148 11.1931 11.6493 11.2423 11.5545L11.4028 11.2465L11.5633 11.5545C11.6125 11.6493 11.7076 11.7148 11.8179 11.73L12.1762 11.7793L11.9167 12.019C11.8372 12.0928 11.8007 12.1989 11.8196 12.3028L11.8806 12.6412L11.5602 12.4814C11.4613 12.4323 11.3441 12.4323 11.2457 12.4814Z" fill="currentColor"/>
</svg>
