<svg width="24" height="24" viewBox="0 0 24 24" fill="none" xmlns="http://www.w3.org/2000/svg">
<path d="M19.9022 12.7031C20.1924 13.5215 20.974 14.1094 21.8906 14.1094C23.0537 14.1094 24 13.1631 24 12C24 10.8369 23.0537 9.89062 21.8906 9.89062C20.974 9.89062 20.1924 10.4785 19.9022 11.2969H14.5312V9.42188H19.0781C19.2426 9.42188 19.4019 9.36422 19.5283 9.25889L20.8136 8.18775C21.1291 8.37591 21.4974 8.48438 21.8906 8.48438C23.0537 8.48438 24 7.53811 24 6.375C24 5.21189 23.0537 4.26562 21.8906 4.26562C20.7275 4.26562 19.7812 5.21189 19.7812 6.375C19.7812 6.63263 19.8278 6.87952 19.9128 7.10794L18.8235 8.01562H14.5312V2.85938H16.6209C16.9112 3.67777 17.6927 4.26562 18.6094 4.26562C19.7725 4.26562 20.7188 3.31936 20.7188 2.15625C20.7188 0.993141 19.7725 0.046875 18.6094 0.046875C17.6927 0.046875 16.9112 0.634734 16.6209 1.45312H14.5312V0.75C14.5312 0.361687 14.2164 0.046875 13.8281 0.046875H10.0781C9.68981 0.046875 9.375 0.361687 9.375 0.75V1.7753C8.37305 2.0257 7.42462 2.41739 6.5437 2.94455L5.82117 2.22202C5.54658 1.94742 5.10141 1.94742 4.82681 2.22202L2.17514 4.87364C1.90055 5.14819 1.90055 5.59341 2.17514 5.868L2.89767 6.59053C2.37052 7.47141 1.97888 8.41983 1.72842 9.42188H0.703125C0.314812 9.42188 0 9.73669 0 10.125V13.875C0 14.2633 0.314812 14.5781 0.703125 14.5781H1.72842C1.97888 15.5801 2.37052 16.5285 2.89767 17.4094L2.17514 18.132C2.04328 18.2638 1.96917 18.4426 1.96917 18.6291C1.96917 18.8156 2.04328 18.9945 2.17514 19.1263L4.82681 21.7778C5.10136 22.0524 5.54658 22.0524 5.82117 21.7778L6.5437 21.0554C7.42458 21.5825 8.373 21.9743 9.375 22.2246V23.25C9.375 23.6383 9.68981 23.9531 10.0781 23.9531H13.8281C14.2164 23.9531 14.5312 23.6383 14.5312 23.25V22.5469H16.6209C16.9112 23.3653 17.6927 23.9531 18.6094 23.9531C19.7725 23.9531 20.7188 23.0069 20.7188 21.8438C20.7188 20.6806 19.7725 19.7344 18.6094 19.7344C17.6927 19.7344 16.9112 20.3222 16.6209 21.1406H14.5312V15.9844H18.8235L19.9128 16.8921C19.8278 17.1205 19.7812 17.3674 19.7812 17.625C19.7812 18.7881 20.7275 19.7344 21.8906 19.7344C23.0537 19.7344 24 18.7881 24 17.625C24 16.4619 23.0537 15.5156 21.8906 15.5156C21.4974 15.5156 21.1291 15.6241 20.8136 15.8123L19.5283 14.7411C19.4019 14.6358 19.2426 14.5781 19.0781 14.5781H14.5312V12.7031H19.9022ZM21.8906 11.2969C22.2783 11.2969 22.5938 11.6123 22.5938 12C22.5938 12.3877 22.2783 12.7031 21.8906 12.7031C21.5029 12.7031 21.1875 12.3877 21.1875 12C21.1875 11.6123 21.5029 11.2969 21.8906 11.2969ZM21.8906 5.67188C22.2783 5.67188 22.5938 5.9873 22.5938 6.375C22.5938 6.7627 22.2783 7.07812 21.8906 7.07812C21.5029 7.07812 21.1875 6.7627 21.1875 6.375C21.1875 5.9873 21.5029 5.67188 21.8906 5.67188ZM18.6094 1.45312C18.9971 1.45312 19.3125 1.76855 19.3125 2.15625C19.3125 2.54395 18.9971 2.85938 18.6094 2.85938C18.2217 2.85938 17.9062 2.54395 17.9062 2.15625C17.9062 1.76855 18.2217 1.45312 18.6094 1.45312ZM18.6094 21.1406C18.9971 21.1406 19.3125 21.456 19.3125 21.8438C19.3125 22.2315 18.9971 22.5469 18.6094 22.5469C18.2217 22.5469 17.9062 22.2315 17.9062 21.8438C17.9062 21.456 18.2217 21.1406 18.6094 21.1406ZM21.8906 16.9219C22.2783 16.9219 22.5938 17.2373 22.5938 17.625C22.5938 18.0127 22.2783 18.3281 21.8906 18.3281C21.5029 18.3281 21.1875 18.0127 21.1875 17.625C21.1875 17.2373 21.5029 16.9219 21.8906 16.9219ZM13.125 16.7755C12.7377 16.8721 12.3453 16.9219 11.9531 16.9219C9.2392 16.9219 7.03125 14.7139 7.03125 12C7.03125 9.28608 9.2392 7.07812 11.9531 7.07812C12.3453 7.07812 12.7377 7.12791 13.125 7.22452V16.7755ZM10.7812 22.5469V21.6604C10.7812 21.3234 10.5422 21.0338 10.2113 20.97C8.99245 20.7347 7.85784 20.2661 6.8392 19.5771C6.56011 19.3883 6.18637 19.424 5.94811 19.6623L5.32402 20.2863L3.66675 18.6291L4.29084 18.005C4.52911 17.7668 4.56483 17.393 4.37606 17.1139C3.68709 16.0952 3.21844 14.9606 2.98312 13.7417C2.91923 13.4109 2.62969 13.1719 2.29275 13.1719H1.40625V10.8281H2.29275C2.62969 10.8281 2.91928 10.5891 2.98312 10.2583C3.21844 9.03923 3.68709 7.90467 4.37602 6.88608C4.56478 6.60703 4.52906 6.23325 4.2908 5.99498L3.6667 5.37089L5.32397 3.71362L5.94806 4.33772C6.18628 4.57598 6.56006 4.61175 6.83916 4.42294C7.85789 3.73392 8.99245 3.26531 10.2113 3.03005C10.5422 2.96616 10.7812 2.67661 10.7812 2.33962V1.45312H13.125V5.78419C12.7371 5.70966 12.3454 5.67188 11.9531 5.67188C8.4638 5.67188 5.625 8.51067 5.625 12C5.625 15.4893 8.4638 18.3281 11.9531 18.3281C12.3454 18.3281 12.7371 18.2904 13.125 18.2158V22.5469H10.7812Z" fill="currentColor"/>
</svg>
