<svg width="24" height="24" viewBox="-2 -2 20 20" fill="none" xmlns="http://www.w3.org/2000/svg">
  <path d="M8 16C3.59503 16 0 12.4047 0 8C0 3.59503 3.59531 0 8 0C12.405 0 16 3.59528 16 8C16 12.405 12.4047 16 8 16ZM8 0.9375C4.10572 0.9375 0.9375 4.10572 0.9375 8C0.9375 11.8943 4.10572 15.0625 8 15.0625C11.8943 15.0625 15.0625 11.8943 15.0625 8C15.0625 4.10572 11.8943 0.9375 8 0.9375Z" fill="currentColor"/>
  <path d="M8 10.3438C7.74113 10.3438 7.53125 10.1339 7.53125 9.875V9.37331C7.53125 8.53922 7.98016 7.76141 8.70278 7.34338C9.13669 7.09241 9.40625 6.62553 9.40625 6.125C9.40625 5.34959 8.77541 4.71875 8 4.71875C7.22459 4.71875 6.59375 5.34959 6.59375 6.125C6.59375 6.38387 6.38388 6.59375 6.125 6.59375C5.86612 6.59375 5.65625 6.38387 5.65625 6.125C5.65625 4.83266 6.70766 3.78125 8 3.78125C9.29234 3.78125 10.3438 4.83266 10.3438 6.125C10.3438 6.95906 9.89484 7.73688 9.17222 8.15491C8.73831 8.40591 8.46875 8.87278 8.46875 9.37331V9.875C8.46875 10.1339 8.25887 10.3438 8 10.3438Z" fill="currentColor"/>
  <path d="M8 12.2188C8.25888 12.2188 8.46875 12.0089 8.46875 11.75C8.46875 11.4911 8.25888 11.2812 8 11.2812C7.74112 11.2812 7.53125 11.4911 7.53125 11.75C7.53125 12.0089 7.74112 12.2188 8 12.2188Z" fill="currentColor"/>
</svg>
