<svg width="24" height="24" viewBox="-3 -3 30 30"  fill="none" xmlns="http://www.w3.org/2000/svg">
<path d="M15.702 0C11.2292 0 7.59029 3.63891 7.59029 8.11167C7.59029 9.10603 7.76696 10.0723 8.1158 10.9899L0.35968 18.7466C0.24882 18.8575 0.186523 19.0079 0.186523 19.1646V23.4089C0.186523 23.7353 0.45118 24 0.777664 24H4.27529C4.4319 24 4.58209 23.9379 4.69295 23.8272L5.87162 22.6503C5.98271 22.5394 6.0451 22.3889 6.0451 22.232V20.7847H7.49059C7.81707 20.7847 8.08173 20.52 8.08173 20.1935V19.6141H8.66115C8.98759 19.6141 9.25229 19.3495 9.25229 19.023V17.751H10.5243C10.681 17.751 10.8314 17.6887 10.9423 17.5778L12.8229 15.6972C13.7407 16.0463 14.7071 16.2233 15.7019 16.2233C20.1746 16.2233 23.8135 12.5843 23.8135 8.11158C23.8136 3.63891 20.1747 0 15.702 0ZM15.702 15.041C14.7344 15.041 13.7986 14.8455 12.9204 14.46C12.6934 14.3604 12.4377 14.4152 12.2702 14.5784C12.2684 14.5801 12.2666 14.5815 12.2649 14.5834L10.2795 16.5687H8.66124C8.33476 16.5687 8.0701 16.8334 8.0701 17.1599V18.4319H7.49068C7.16424 18.4319 6.89954 18.6965 6.89954 19.023V19.6024H5.45401C5.12757 19.6024 4.86287 19.867 4.86287 20.1935V21.9868L4.0307 22.8177H1.3689V21.9823L8.59426 14.757C8.80205 14.5492 8.80205 14.2124 8.59426 14.0046C8.38646 13.7969 8.04971 13.7968 7.84177 14.0046L1.3689 20.4775V19.4095L9.22965 11.5482C9.23143 11.5464 9.23279 11.5448 9.23443 11.5431C9.39765 11.3758 9.45268 11.1201 9.35302 10.8928C8.9679 10.0148 8.77271 9.07898 8.77271 8.11172C8.77271 4.29084 11.8812 1.18233 15.7021 1.18233C19.523 1.18233 22.6314 4.2908 22.6314 8.11172C22.6313 11.9325 19.5227 15.041 15.702 15.041Z" fill="currentColor"/>
<path d="M18.1705 3.42859C16.9496 3.42859 15.9563 4.42187 15.9563 5.64282C15.9563 6.86378 16.9496 7.85706 18.1705 7.85706C19.3915 7.85706 20.3848 6.86378 20.3848 5.64282C20.3848 4.42187 19.3915 3.42859 18.1705 3.42859ZM18.1705 6.67478C17.6015 6.67478 17.1386 6.21184 17.1386 5.64282C17.1386 5.07381 17.6015 4.61087 18.1705 4.61087C18.7395 4.61087 19.2025 5.07381 19.2025 5.64282C19.2025 6.21184 18.7395 6.67478 18.1705 6.67478Z" fill="currentColor"/>
</svg>
