<svg width="24" height="24" viewBox="-3 -3 30 30" fill="none" xmlns="http://www.w3.org/2000/svg">
<path d="M22.2213 1.89184L22.1081 1.77869C19.7367 -0.592895 15.878 -0.592895 13.5064 1.77869L9.43597 5.84912C8.81616 6.46893 8.33569 7.21893 8.03265 8.03558C7.23559 8.33019 6.48834 8.79675 5.84912 9.43597L1.77869 13.5064C-0.592895 15.878 -0.592895 19.7367 1.77869 22.1081L1.89184 22.2213C3.07745 23.4071 4.63513 24 6.19262 24C7.7503 24 9.30779 23.4071 10.4936 22.2213L14.564 18.1509C15.1836 17.5312 15.6643 16.7811 15.9673 15.9644C16.7644 15.6698 17.5118 15.2032 18.1509 14.564L22.2213 10.4936C24.5929 8.122 24.5929 4.26342 22.2213 1.89184ZM13.5721 17.159L9.5017 21.2296C7.67724 23.0541 4.70837 23.0542 2.88373 21.2296L2.77057 21.1164C0.945922 19.2918 0.945922 16.3227 2.77057 14.4983L6.841 10.4278C8.66564 8.6032 11.6343 8.60339 13.459 10.4278L13.5721 10.541C13.9755 10.9444 14.3025 11.4197 14.5345 11.9363C14.3188 12.0189 14.0879 12.0626 13.8501 12.0626C13.3392 12.0626 12.8589 11.8636 12.4977 11.5023C12.475 11.4796 12.4506 11.4595 12.4257 11.4406C11.8079 10.8561 11.0039 10.5348 10.1499 10.5348C9.44 10.5348 8.76452 10.7569 8.20165 11.1674C8.20001 11.1687 8.19836 11.1698 8.19653 11.1711C8.0592 11.2716 7.92846 11.3831 7.80578 11.5058L3.84832 15.4632C3.22229 16.0893 2.87732 16.9219 2.87732 17.8074C2.87732 18.6929 3.22229 19.5254 3.84851 20.1517C4.47473 20.7779 5.30713 21.1227 6.19262 21.1227C7.0783 21.1227 7.91088 20.7779 8.53692 20.1517L12.4973 16.1913C12.9421 16.292 13.396 16.3429 13.8501 16.3427C13.9772 16.3427 14.1042 16.3383 14.2311 16.3304C14.0438 16.6294 13.8232 16.9081 13.5721 17.159ZM15.6603 11.0447C15.3741 10.4956 15.0042 9.98913 14.564 9.54913L14.4509 9.43597C13.9995 8.98461 13.4941 8.61932 12.9554 8.33972L16.4549 4.84039C16.8162 4.47912 17.2965 4.28009 17.8074 4.28009C18.3182 4.28009 18.7985 4.47912 19.1598 4.84021C19.9054 5.58599 19.9054 6.79943 19.1598 7.54504L15.6603 11.0447ZM8.3399 12.9554C8.62591 13.5044 8.99597 14.0109 9.43597 14.4509L9.54913 14.564C10.0007 15.0156 10.506 15.3808 11.0445 15.6603L7.54522 19.1598C7.18395 19.521 6.70367 19.7199 6.19262 19.7199C5.68176 19.7199 5.20147 19.5209 4.84039 19.1598C4.47894 18.7985 4.28009 18.3182 4.28009 17.8074C4.28009 17.2965 4.47912 16.8162 4.84021 16.4549L8.3399 12.9554ZM21.2296 9.5017L17.159 13.5723C15.9166 14.8145 14.144 15.2107 12.563 14.7612C12.5158 14.7413 12.4669 14.7266 12.4173 14.7175C11.7306 14.4977 11.0848 14.1161 10.541 13.5723L10.4278 13.459C10.0245 13.0558 9.69763 12.5804 9.46545 12.0637C9.68115 11.9811 9.91204 11.9374 10.1499 11.9374C10.6608 11.9374 11.141 12.1364 11.5023 12.4977C11.525 12.5204 11.5492 12.5403 11.5739 12.5592C12.1919 13.1437 12.9961 13.4654 13.8501 13.4654C14.56 13.4654 15.2355 13.2433 15.7983 12.8326C15.8 12.8315 15.8018 12.8302 15.8035 12.8289C15.9408 12.7284 16.0717 12.6169 16.1942 12.4944L20.1517 8.53692C21.4442 7.24438 21.4442 5.14123 20.1517 3.84851C19.5254 3.22229 18.6929 2.8775 17.8074 2.8775C16.9219 2.8775 16.0893 3.22229 15.4631 3.84851L11.5027 7.80889C10.9334 7.67999 10.3491 7.63348 9.76904 7.66955C9.95617 7.37054 10.177 7.09185 10.4278 6.841L14.4983 2.77057C16.3229 0.945922 19.2918 0.945922 21.1164 2.77057L21.2296 2.88373C23.0541 4.70819 23.0541 7.67706 21.2296 9.5017Z" fill="currentColor"/>
</svg>
