<svg width="24" height="24" viewBox="0 0 18 18" fill="none" xmlns="http://www.w3.org/2000/svg">
<path d="M14.4404 4.05178V4.36654V5.22617V6.49194V8.04202V9.72914V11.4383V13.0188V14.3489V15.2999V15.7314C14.4404 15.7754 14.4371 15.8177 14.4322 15.86C14.4404 15.8008 14.4486 15.7398 14.4551 15.6806C14.4453 15.7483 14.4273 15.8126 14.4044 15.8769C14.4257 15.8228 14.4486 15.7686 14.4698 15.7145C14.442 15.7838 14.4061 15.8464 14.3635 15.9057C14.3979 15.86 14.4322 15.8143 14.4666 15.7686C14.4224 15.8261 14.3717 15.8786 14.3161 15.9243C14.3603 15.8888 14.4044 15.8532 14.4486 15.8177C14.3913 15.8617 14.3292 15.8989 14.2638 15.9277C14.3161 15.9057 14.3685 15.882 14.4208 15.86C14.3586 15.8854 14.2965 15.9023 14.2311 15.9124C14.2883 15.904 14.3472 15.8955 14.4044 15.8888C14.2818 15.9057 14.1542 15.8972 14.0299 15.8972H13.2645H10.728H7.63225H4.97959C4.55928 15.8972 4.139 15.8989 3.72033 15.8972C3.67944 15.8972 3.63856 15.8938 3.59767 15.8888C3.65491 15.8972 3.71378 15.9057 3.77103 15.9124C3.70561 15.9023 3.64346 15.8837 3.58131 15.86C3.63365 15.882 3.68598 15.9057 3.73832 15.9277C3.67126 15.8989 3.61075 15.8617 3.55351 15.8177C3.59767 15.8532 3.64182 15.8888 3.68598 15.9243C3.63038 15.8786 3.57968 15.8261 3.53552 15.7686C3.56987 15.8143 3.60421 15.86 3.63856 15.9057C3.59603 15.8464 3.56006 15.7821 3.53225 15.7145C3.55351 15.7686 3.57641 15.8228 3.59767 15.8769C3.57314 15.8126 3.55678 15.7483 3.54697 15.6806C3.55515 15.7398 3.56333 15.8008 3.56987 15.86C3.55351 15.728 3.56169 15.5892 3.56169 15.4556V14.6111V13.3521V11.802V10.1081V8.39902V6.79987V5.45965V4.50016V4.06525C3.56169 4.02125 3.56496 3.97894 3.56987 3.93664C3.56169 3.99587 3.55351 4.05679 3.54697 4.11602C3.55678 4.04833 3.57477 3.98402 3.59767 3.91972C3.57641 3.97387 3.55351 4.02802 3.53225 4.08217C3.56005 4.01279 3.59603 3.95018 3.63856 3.89095C3.60421 3.93664 3.56987 3.98233 3.53552 4.02802C3.57968 3.97048 3.63038 3.91803 3.68598 3.87234C3.64182 3.90787 3.59767 3.94341 3.55351 3.97895C3.61075 3.93495 3.6729 3.89772 3.73832 3.86895C3.68598 3.89095 3.63365 3.91464 3.58131 3.93664C3.64346 3.91126 3.70561 3.89434 3.77103 3.88418C3.71378 3.89264 3.65491 3.9011 3.59767 3.90787C3.73832 3.88926 3.88387 3.89941 4.0245 3.89941H4.87165H6.83251H7.28551C7.63714 3.89941 7.94295 3.58973 7.93969 3.22253C7.93805 3.13792 7.94459 3.0533 7.9544 2.97039C7.94623 3.02962 7.93805 3.09053 7.93151 3.14976C7.95277 2.9907 7.99365 2.83671 8.05417 2.68778C8.03291 2.74193 8.01001 2.79608 7.98875 2.85023C8.04599 2.71316 8.11958 2.58456 8.20626 2.4661C8.17192 2.51179 8.13757 2.55748 8.10323 2.60317C8.19645 2.47964 8.30112 2.36964 8.42049 2.27489C8.37633 2.31043 8.33218 2.34597 8.28802 2.3815C8.4025 2.29182 8.52679 2.21566 8.65926 2.15644C8.60693 2.17844 8.55459 2.20213 8.50226 2.22413C8.64618 2.16152 8.795 2.11921 8.94874 2.09721C8.8915 2.10567 8.83262 2.11413 8.77538 2.1209C8.92748 2.10059 9.07793 2.10059 9.23003 2.1209C9.17279 2.11244 9.11391 2.10398 9.05667 2.09721C9.2104 2.11921 9.35922 2.16151 9.50315 2.22413C9.45082 2.20213 9.39848 2.17844 9.34615 2.15644C9.47862 2.21567 9.60291 2.29182 9.71739 2.3815C9.67323 2.34597 9.62908 2.31043 9.58492 2.27489C9.70431 2.37135 9.81061 2.47965 9.90218 2.60317C9.86784 2.55748 9.83349 2.51179 9.79915 2.4661C9.88583 2.58456 9.95942 2.71317 10.0167 2.85023C9.9954 2.79608 9.9725 2.74193 9.95124 2.68778C10.0118 2.83669 10.0526 2.99069 10.0739 3.14976C10.0657 3.09053 10.0575 3.02962 10.051 2.97039C10.0608 3.055 10.0674 3.13792 10.0657 3.22253C10.0625 3.58803 10.3683 3.89941 10.7199 3.89941H11.9595H13.8975C14.0643 3.89941 14.241 3.88587 14.4078 3.90787C14.3505 3.89941 14.2917 3.89095 14.2344 3.88418C14.2998 3.89434 14.362 3.91295 14.4241 3.93664C14.3718 3.91464 14.3195 3.89095 14.2671 3.86895C14.3342 3.89772 14.3947 3.93495 14.4519 3.97895C14.4078 3.94341 14.3636 3.90787 14.3195 3.87234C14.3751 3.91803 14.4258 3.97049 14.4699 4.02802C14.4356 3.98233 14.4012 3.93664 14.3669 3.89095C14.4094 3.95018 14.4454 4.01448 14.4732 4.08217C14.4519 4.02802 14.429 3.97387 14.4078 3.91972C14.4323 3.98402 14.4487 4.04833 14.4585 4.11602C14.4503 4.05679 14.4421 3.99587 14.4356 3.93664C14.4372 3.97387 14.4405 4.01279 14.4405 4.05171C14.4421 4.22601 14.5124 4.4054 14.6318 4.53062C14.7447 4.64739 14.9311 4.73707 15.0947 4.72861C15.4446 4.71169 15.7537 4.43078 15.7488 4.05173C15.7423 3.53899 15.4986 3.09564 15.0996 2.80118C14.8624 2.62688 14.5631 2.54566 14.2737 2.54396H13.644H11.325H10.7166C10.9341 2.76903 11.1533 2.9958 11.3708 3.22085C11.3757 2.74194 11.2383 2.23599 10.9717 1.84338C10.8376 1.64539 10.6904 1.46432 10.5073 1.31542C10.2767 1.12759 10.0526 0.993888 9.77625 0.887289C9.33306 0.716376 8.81134 0.709606 8.35834 0.841598C7.92167 0.968515 7.49648 1.23588 7.207 1.60141C7.00748 1.85355 6.86518 2.10399 6.75561 2.41197C6.66567 2.6675 6.62478 2.95178 6.62805 3.22253L7.28222 2.54565H5.33116H4.09316H3.75625C3.48804 2.54565 3.23292 2.60488 2.99577 2.73687C2.53786 2.99239 2.25655 3.51698 2.25 4.05171V4.11094V4.55937V6.48173V9.21972V12.11V14.496V15.6992C2.25 15.821 2.26308 15.9395 2.28434 16.0596C2.3792 16.5927 2.78968 17.0073 3.27213 17.1799C3.47002 17.2509 3.6777 17.2492 3.88213 17.2492H5.42597H7.96741H10.7754H13.119C13.5017 17.2492 13.8844 17.2509 14.2671 17.2492C14.5026 17.2492 14.7103 17.1917 14.9229 17.0953C15.16 16.987 15.3432 16.7991 15.4936 16.5859C15.6506 16.3642 15.7177 16.1019 15.7439 15.8329C15.7537 15.7313 15.7488 15.6281 15.7488 15.5266V13.941V11.3604V8.44636V5.86067V4.2683V4.05C15.7488 3.69632 15.4479 3.35619 15.0946 3.37311C14.7397 3.39173 14.4404 3.67264 14.4404 4.0517L14.4404 4.05178Z" fill="currentColor"/>
<path d="M8.38264 3.20243V3.2075C8.39081 3.14828 8.39899 3.08736 8.40553 3.02813C8.40553 3.03321 8.4039 3.03659 8.40226 3.03997C8.42352 2.98582 8.44642 2.93167 8.46768 2.87752C8.46604 2.87921 8.46604 2.8826 8.46441 2.88429C8.49875 2.8386 8.5331 2.79291 8.56744 2.74722C8.56417 2.75061 8.56253 2.7523 8.55926 2.75568C8.60342 2.72015 8.64757 2.68461 8.69173 2.64907C8.6901 2.65077 8.68682 2.65246 8.68519 2.65246C8.73752 2.63046 8.78986 2.60677 8.84219 2.58477C8.83892 2.58646 8.83401 2.58815 8.83074 2.58815C8.88798 2.57969 8.94686 2.57123 9.0041 2.56446H8.99592C9.05316 2.57292 9.11204 2.58138 9.16928 2.58815C9.16437 2.58815 9.1611 2.58646 9.15783 2.58477C9.21016 2.60677 9.2625 2.63046 9.31483 2.65246C9.31319 2.65077 9.30992 2.65077 9.30829 2.64907C9.35245 2.68461 9.3966 2.72015 9.44076 2.75568L9.43258 2.74722C9.46692 2.79291 9.50127 2.8386 9.53561 2.88429C9.53398 2.8826 9.53234 2.87921 9.53234 2.87752C9.5536 2.93167 9.5765 2.98582 9.59776 3.03997C9.59612 3.03659 9.59449 3.03151 9.59449 3.02813C9.60266 3.08736 9.61084 3.14828 9.61738 3.2075V3.19904C9.60921 3.25827 9.60103 3.31919 9.59449 3.37842C9.59449 3.37334 9.59612 3.36996 9.59776 3.36657C9.5765 3.42072 9.5536 3.47488 9.53234 3.52903C9.53398 3.52733 9.53398 3.52395 9.53561 3.52226C9.50127 3.56795 9.46692 3.61364 9.43258 3.65933C9.43585 3.65594 9.43749 3.65425 9.44076 3.65087C9.3966 3.6864 9.35245 3.72194 9.30829 3.75748C9.30992 3.75578 9.31319 3.75409 9.31483 3.75409C9.2625 3.77609 9.21016 3.79978 9.15783 3.82178C9.1611 3.82009 9.16601 3.81839 9.16928 3.81839C9.11204 3.82686 9.05316 3.83532 8.99592 3.84209H9.0041C8.94686 3.83362 8.88798 3.82516 8.83074 3.81839C8.83565 3.81839 8.83892 3.82009 8.84219 3.82178C8.78986 3.79978 8.73752 3.77609 8.68519 3.75409C8.68682 3.75578 8.6901 3.75578 8.69173 3.75748C8.64757 3.72194 8.60342 3.6864 8.55926 3.65087L8.56744 3.65933C8.5331 3.61364 8.49875 3.56795 8.46441 3.52226C8.46604 3.52395 8.46768 3.52733 8.46768 3.52903C8.44642 3.47488 8.42352 3.42072 8.40226 3.36657C8.4039 3.36996 8.40553 3.37503 8.40553 3.37842C8.39735 3.31919 8.38918 3.25827 8.38264 3.19904V3.20243C8.37936 3.2955 8.39735 3.3818 8.43824 3.46303C8.46441 3.54764 8.5102 3.6204 8.57398 3.68133C8.63286 3.74732 8.70318 3.79471 8.78495 3.82178C8.86345 3.86409 8.94686 3.88439 9.03681 3.87932C9.09405 3.87086 9.15292 3.86239 9.21016 3.85563C9.32137 3.82347 9.41786 3.76594 9.49963 3.68133C9.53398 3.63564 9.56832 3.58995 9.60267 3.54426C9.66154 3.43934 9.69098 3.32427 9.69261 3.20243C9.69098 3.17027 9.68771 3.13982 9.68117 3.10766C9.6779 3.07551 9.67299 3.04505 9.66808 3.0129C9.65991 2.98244 9.64355 2.9486 9.6321 2.9249C9.61248 2.87583 9.61084 2.86567 9.59449 2.83691C9.56015 2.79122 9.5258 2.74553 9.49146 2.69984C9.48982 2.69814 9.48982 2.69645 9.48819 2.69476C9.48655 2.69307 9.48492 2.69138 9.48328 2.69138C9.43912 2.65584 9.39497 2.6203 9.35081 2.58477C9.29848 2.55261 9.29521 2.54754 9.18727 2.512C9.12676 2.49169 9.06134 2.48492 8.99756 2.48492C8.93378 2.48492 8.86836 2.49169 8.80785 2.512C8.70154 2.54754 8.69827 2.55261 8.6443 2.58477C8.60014 2.6203 8.55599 2.65584 8.51183 2.69138C8.5102 2.69307 8.50856 2.69307 8.50693 2.69476C8.50529 2.69645 8.50366 2.69814 8.50366 2.69984C8.46931 2.74553 8.43497 2.79122 8.40062 2.83691C8.38427 2.86567 8.381 2.88429 8.36301 2.9249C8.3532 2.95029 8.33684 2.98244 8.32703 3.0129C8.32212 3.04336 8.31722 3.07551 8.31395 3.10766C8.30741 3.13812 8.30413 3.17027 8.3025 3.20243C8.29923 3.26842 8.30904 3.33611 8.32867 3.39873C8.36628 3.51718 8.41534 3.62041 8.50366 3.70671C8.54291 3.74732 8.65575 3.82686 8.64104 3.8184C8.66884 3.83532 8.68356 3.8387 8.72608 3.85732C8.75061 3.86747 8.78168 3.88439 8.81112 3.89454C8.84056 3.89962 8.87163 3.9047 8.90271 3.90808C8.93214 3.91485 8.96158 3.91823 8.99102 3.91993H8.99756C9.0548 3.91147 9.11367 3.903 9.17092 3.89624C9.17582 3.89454 9.17909 3.89454 9.18236 3.89285C9.2347 3.87085 9.28703 3.84716 9.33936 3.82516C9.341 3.82516 9.34264 3.82347 9.34427 3.82178C9.39497 3.79301 9.44076 3.75409 9.48165 3.71178C9.52417 3.66609 9.56178 3.61533 9.59286 3.56118C9.65991 3.44441 9.6779 3.3378 9.68608 3.20412C9.68935 3.11105 9.67136 3.02475 9.63047 2.94352C9.60431 2.85891 9.55852 2.78614 9.49473 2.72522C9.43585 2.65923 9.36553 2.61184 9.28376 2.58477C9.20526 2.54246 9.12185 2.52216 9.0319 2.52723C8.97466 2.53569 8.91579 2.54415 8.85855 2.55092C8.74734 2.58308 8.65085 2.64061 8.56908 2.72522C8.53474 2.77091 8.50039 2.8166 8.46605 2.86229C8.41371 2.96721 8.38264 3.08059 8.38264 3.20242L8.38264 3.20243Z" fill="currentColor"/>
<path d="M5.14456 7.20954H5.90831H7.75308H9.97726H11.9071C12.2178 7.20954 12.5302 7.21462 12.8409 7.20954H12.854C13.1958 7.20954 13.5245 6.89819 13.5081 6.53266C13.4918 6.16545 13.2203 5.85577 12.854 5.85577H12.0902H10.2455H8.02128H6.09149C5.78075 5.85577 5.46839 5.8507 5.15765 5.85577H5.14456C4.80275 5.85577 4.47404 6.16712 4.49039 6.53266C4.50675 6.89986 4.77823 7.20954 5.14456 7.20954Z" fill="currentColor"/>
<path d="M5.14456 10.6582H5.90831H7.75308H9.97726H11.9071C12.2178 10.6582 12.5302 10.6633 12.8409 10.6582H12.854C13.1958 10.6582 13.5245 10.3468 13.5081 9.98131C13.4918 9.61411 13.2203 9.30443 12.854 9.30443H12.0902H10.2455H8.02128H6.09149C5.78075 9.30443 5.46839 9.29935 5.15765 9.30443H5.14456C4.80275 9.30443 4.47404 9.61578 4.49039 9.98131C4.50675 10.3468 4.77823 10.6582 5.14456 10.6582Z" fill="currentColor"/>
<path d="M5.14456 14.1071H6.8274H9.48987H10.1032C10.445 14.1071 10.7737 13.7958 10.7573 13.4302C10.741 13.063 10.4695 12.7533 10.1032 12.7533H8.42032H5.75785H5.14456C4.80275 12.7533 4.47404 13.0647 4.49039 13.4302C4.50675 13.7957 4.77823 14.1071 5.14456 14.1071Z" fill="currentColor"/>
</svg>
