<svg width="12" height="12" viewBox="-5 -2 22 22" fill="none" xmlns="http://www.w3.org/2000/svg">
<path fill-rule="evenodd" clip-rule="evenodd" d="M12 16.0295V2.92232C12 2.60499 11.8721 2.28768 11.6418 2.06809C11.4115 1.84837 11.0788 1.70196 10.7206 1.70196H9.00632V2.23901C9.00632 2.48313 8.82727 2.65393 8.57138 2.65393H3.4285C3.19818 2.65393 2.99356 2.48312 2.99356 2.23901V1.70196H1.27925C0.921029 1.70196 0.613988 1.84837 0.383793 2.06809C0.153474 2.2878 0 2.60513 0 2.92232V16.0295C0 16.3713 0.153468 16.6642 0.383793 16.9083C0.614112 17.128 0.92106 17.25 1.27925 17.25H10.7206C11.0788 17.25 11.4114 17.128 11.6417 16.9083C11.872 16.6642 11.9999 16.3712 11.9999 16.0295H12ZM3.86363 1.84834H8.16207V0.75H3.86363V1.84834ZM2.27734 5.36314H9.72309C9.95341 5.36314 10.158 5.53394 10.158 5.77806C10.158 5.99778 9.95329 6.16858 9.72309 6.16858H2.27734C2.04702 6.16858 1.86797 5.99778 1.86797 5.77806C1.86797 5.53394 2.04702 5.36314 2.27734 5.36314ZM2.27734 8.09687H9.72309C9.95341 8.09687 10.158 8.26768 10.158 8.48739C10.158 8.73151 9.95329 8.90231 9.72309 8.90231H2.27734C2.04702 8.90231 1.86797 8.73151 1.86797 8.48739C1.86797 8.26768 2.04702 8.09687 2.27734 8.09687ZM2.27734 10.8062H9.72309C9.95341 10.8062 10.158 11.0015 10.158 11.2211C10.158 11.4652 9.95329 11.636 9.72309 11.636H2.27734C2.04702 11.636 1.86797 11.4652 1.86797 11.2211C1.86797 11.0014 2.04702 10.8062 2.27734 10.8062ZM2.27734 13.5399H6.01303C6.24335 13.5399 6.44797 13.7353 6.44797 13.9549C6.44797 14.1746 6.24323 14.3698 6.01303 14.3698H2.27734C2.04702 14.3698 1.86797 14.1745 1.86797 13.9549C1.86797 13.7351 2.04702 13.5399 2.27734 13.5399Z" fill="currentColor"/>
</svg>
