<svg width="24" height="24" viewBox="0 0 24 24" fill="none" xmlns="http://www.w3.org/2000/svg">
  <path d="M11.9998 0C10.7808 0 9.78906 0.991768 9.78906 2.21074V3.71788C9.90004 6.64628 14.0996 6.64623 14.2105 3.71783V2.21074C14.2104 0.991768 13.2187 0 11.9998 0V0ZM12.8033 3.71788C12.7631 4.78211 11.2365 4.78263 11.1961 3.71788V2.21074C11.1961 1.76764 11.5566 1.4071 11.9997 1.4071C12.4428 1.4071 12.8033 1.76764 12.8033 2.21074V3.71788H12.8033Z" fill="currentColor"/>
  <path d="M11.9998 18.0859C10.7808 18.0859 9.78906 19.0777 9.78906 20.2967V21.8038C9.90004 24.7322 14.0996 24.7322 14.2105 21.8038V20.2967C14.2104 19.0777 13.2187 18.0859 11.9998 18.0859ZM12.8033 21.8038C12.7631 22.868 11.2365 22.8685 11.1961 21.8038V20.2966C11.1961 19.8535 11.5566 19.493 11.9997 19.493C12.4428 19.493 12.8033 19.8535 12.8033 20.2966V21.8038H12.8033Z" fill="currentColor"/>
  <path d="M21.798 9.79688H20.2908C19.0718 9.79688 18.0801 10.7886 18.0801 12.0076C18.0801 13.2265 19.0718 14.2183 20.2908 14.2183H21.798C24.7264 14.1073 24.7264 9.90771 21.798 9.79688ZM21.798 12.8112H20.2908C19.8477 12.8112 19.4872 12.4507 19.4872 12.0076C19.4872 11.5645 19.8477 11.204 20.2908 11.204H21.798C22.8622 11.2442 22.8627 12.7708 21.798 12.8112Z" fill="currentColor"/>
  <path d="M5.92192 12.0076C5.92192 10.7886 4.93015 9.79688 3.71118 9.79688H2.20409C-0.724311 9.90785 -0.724265 14.1074 2.20414 14.2183C2.20409 14.2183 3.71123 14.2183 3.71123 14.2183C4.9302 14.2183 5.92192 13.2265 5.92192 12.0076ZM1.40045 12.0076C1.40045 11.5645 1.761 11.204 2.20409 11.204H3.71123C4.77547 11.2442 4.77598 12.7708 3.71123 12.8112H2.20409C1.761 12.8112 1.40045 12.4507 1.40045 12.0076Z" fill="currentColor"/>
  <path d="M19.4246 7.70966L20.4903 6.64398C21.3523 5.78204 21.3523 4.37949 20.4903 3.51755C19.6283 2.65561 18.2258 2.65561 17.3639 3.51755L16.2982 4.58324C14.306 6.73239 17.2756 9.70192 19.4246 7.70966ZM17.2932 5.57824L18.3589 4.51255C18.6722 4.19924 19.182 4.19919 19.4954 4.51255C19.8087 4.82587 19.8087 5.33571 19.4954 5.64902L18.4297 6.71471C17.6487 7.4388 16.5689 6.35965 17.2932 5.57824Z" fill="currentColor"/>
  <path d="M4.57544 16.3061L3.50975 17.3718C2.64781 18.2337 2.64777 19.6363 3.50975 20.4982C4.37169 21.3601 5.77424 21.3601 6.63618 20.4982L7.70187 19.4325C9.69408 17.2834 6.7245 14.3138 4.57544 16.3061ZM6.70691 18.4375L5.64122 19.5032C5.32791 19.8165 4.81807 19.8166 4.50471 19.5032C4.1914 19.1899 4.1914 18.68 4.50471 18.3667L5.5704 17.301C6.35143 16.5769 7.43124 17.6561 6.70691 18.4375Z" fill="currentColor"/>
  <path d="M19.4247 16.306C17.2755 14.3138 14.306 17.2834 16.2983 19.4325L17.364 20.4981C18.2259 21.3601 19.6285 21.3601 20.4904 20.4981C21.3523 19.6362 21.3523 18.2337 20.4904 17.3717C20.4903 17.3717 19.4247 16.306 19.4247 16.306ZM19.4954 19.5032C19.1821 19.8165 18.6722 19.8165 18.3589 19.5032L17.2932 18.4375C16.5691 17.6565 17.6482 16.5767 18.4297 17.301L19.4953 18.3667C19.8087 18.68 19.8087 19.1899 19.4954 19.5032Z" fill="currentColor"/>
  <path d="M6.63759 3.51697C4.48839 1.52476 1.51886 4.49434 3.51117 6.6434L4.57685 7.70908C5.43879 8.57103 6.84134 8.57107 7.70328 7.70908C8.56522 6.84714 8.56522 5.4446 7.70328 4.58266L6.63759 3.51697ZM6.70832 6.71413C6.39501 7.02744 5.88517 7.02744 5.57181 6.71413L4.50612 5.64839C3.78203 4.86741 4.86113 3.7876 5.64259 4.51193L6.70828 5.57762C7.02164 5.89098 7.02164 6.40081 6.70832 6.71413Z" fill="currentColor"/>
</svg>
