<svg width="24" height="24" viewBox="0 0 24 24" fill="none" xmlns="http://www.w3.org/2000/svg">
<path d="M15.3389 15.2143C17.4671 11.8747 17.1996 12.2913 17.2609 12.2043C18.0358 11.1114 18.4453 9.82508 18.4453 8.48438C18.4453 4.92891 15.5601 2 12 2C8.45148 2 5.55469 4.92313 5.55469 8.48438C5.55469 9.82422 5.97281 11.1442 6.77305 12.2518L8.66102 15.2143C6.64246 15.5245 3.21094 16.4489 3.21094 18.4844C3.21094 19.2264 3.69523 20.2838 6.00242 21.1078C7.61344 21.6831 9.7434 22 12 22C16.2197 22 20.7891 20.8097 20.7891 18.4844C20.7891 16.4486 17.3616 15.5251 15.3389 15.2143ZM7.75191 11.6072C7.74547 11.5971 7.73875 11.5873 7.73172 11.5776C7.06582 10.6615 6.72656 9.57582 6.72656 8.48438C6.72656 5.55398 9.08617 3.17188 12 3.17188C14.9078 3.17188 17.2734 5.55504 17.2734 8.48438C17.2734 9.57758 16.9406 10.6264 16.3107 11.5184C16.2543 11.5929 16.5487 11.1354 12 18.273L7.75191 11.6072ZM12 20.8281C7.39086 20.8281 4.38281 19.4733 4.38281 18.4844C4.38281 17.8197 5.92844 16.7268 9.35344 16.3007L11.5059 19.6782C11.6134 19.847 11.7998 19.9492 12 19.9492C12.2002 19.9492 12.3865 19.847 12.4941 19.6782L14.6464 16.3007C18.0715 16.7268 19.6172 17.8197 19.6172 18.4844C19.6172 19.4649 16.6362 20.8281 12 20.8281Z" fill="currentColor"/>
<path d="M12 5.55469C10.3846 5.55469 9.07031 6.86895 9.07031 8.48438C9.07031 10.0998 10.3846 11.4141 12 11.4141C13.6154 11.4141 14.9297 10.0998 14.9297 8.48438C14.9297 6.86895 13.6154 5.55469 12 5.55469ZM12 10.2422C11.0307 10.2422 10.2422 9.45363 10.2422 8.48438C10.2422 7.51512 11.0307 6.72656 12 6.72656C12.9693 6.72656 13.7578 7.51512 13.7578 8.48438C13.7578 9.45363 12.9693 10.2422 12 10.2422Z" fill="currentColor"/>
</svg>
