<svg width="24" height="24" viewBox="-4 -4 24 24" fill="none" xmlns="http://www.w3.org/2000/svg">
  <path d="M14.2761 0H5.74072C4.79016 0 4.01672 0.773315 4.01672 1.724V7.53125H0.46875C0.209839 7.53125 0 7.74121 0 8C0 8.25891 0.209839 8.46875 0.46875 8.46875H4.01672V14.276C4.01672 15.2267 4.79016 16 5.74072 16H14.2761C15.2267 16 16 15.2267 16 14.276V1.724C16 0.773315 15.2267 0 14.2761 0V0ZM15.0625 14.276C15.0625 14.7097 14.7097 15.0625 14.2761 15.0625H5.74072C5.30701 15.0625 4.95422 14.7097 4.95422 14.276V8.46875H10.3831L7.63293 11.2189C7.44995 11.4019 7.44995 11.6986 7.63293 11.8817C7.72449 11.9733 7.84448 12.019 7.96436 12.019C8.08435 12.019 8.20435 11.9733 8.2959 11.8817L11.8462 8.33142C11.9341 8.24353 11.9835 8.12427 11.9835 8C11.9835 7.87561 11.9341 7.75635 11.8462 7.66858L8.2959 4.11829C8.11279 3.9353 7.81604 3.9353 7.63293 4.11829C7.44995 4.30127 7.44995 4.59814 7.63293 4.78113L10.3832 7.53137H4.95422V1.724C4.95422 1.29028 5.30701 0.9375 5.74072 0.9375H14.2761C14.7097 0.9375 15.0625 1.29028 15.0625 1.724V14.276Z" fill="currentColor"/>
</svg>
