<svg width="24" height="24" viewBox="0 0 24 24" fill="none" xmlns="http://www.w3.org/2000/svg">
<path d="M21.4142 0H8.61108C7.18524 0 6.02508 1.15997 6.02508 2.586V11.2969H0.703125C0.314758 11.2969 0 11.6118 0 12C0 12.3884 0.314758 12.7031 0.703125 12.7031H6.02508V21.414C6.02508 22.8401 7.18524 24 8.61108 24H21.4142C22.8401 24 24 22.8401 24 21.414V2.586C24 1.15997 22.8401 0 21.4142 0ZM22.5938 21.414C22.5938 22.0646 22.0646 22.5938 21.4142 22.5938H8.61108C7.96051 22.5938 7.43133 22.0646 7.43133 21.414V12.7031H15.5746L11.4494 16.8283C11.1749 17.1028 11.1749 17.5479 11.4494 17.8225C11.5867 17.9599 11.7667 18.0285 11.9465 18.0285C12.1265 18.0285 12.3065 17.9599 12.4439 17.8225L17.7693 12.4971C17.9011 12.3653 17.9752 12.1864 17.9752 12C17.9752 11.8134 17.9011 11.6345 17.7693 11.5029L12.4439 6.17743C12.1692 5.90295 11.7241 5.90295 11.4494 6.17743C11.1749 6.4519 11.1749 6.89721 11.4494 7.17169L15.5748 11.2971H7.43133V2.586C7.43133 1.93542 7.96051 1.40625 8.61108 1.40625H21.4142C22.0646 1.40625 22.5938 1.93542 22.5938 2.586V21.414Z" fill="currentColor"/>
</svg>
