<svg width="24" height="24" viewBox="0 0 24 24" fill="none" xmlns="http://www.w3.org/2000/svg">
<path d="M21.7722 20.6726L16.8912 15.7917C18.1045 14.3328 18.8354 12.4593 18.8354 10.418C18.8354 5.77628 15.0592 2 10.4178 2C5.77618 2 2 5.77628 2 10.418C2 15.0593 5.77618 18.8353 10.4178 18.8353C12.459 18.8353 14.3326 18.1045 15.7915 16.8912L20.6726 21.7722C20.8244 21.9241 21.0234 22 21.2224 22C21.4214 22 21.6204 21.9241 21.7723 21.7722C22.076 21.4685 22.076 20.9763 21.7722 20.6726ZM3.55518 10.418C3.55518 6.63381 6.6337 3.55518 10.4178 3.55518C14.2017 3.55518 17.2801 6.63381 17.2801 10.418C17.2801 14.2018 14.2017 17.2801 10.4178 17.2801C6.6337 17.2801 3.55518 14.2018 3.55518 10.418Z" fill="currentColor"/>
</svg>