<svg width="24" height="24" viewBox="-3 -3 30 30" fill="none" xmlns="http://www.w3.org/2000/svg">
<path d="M20.6667 5.33333H3.33333V18.6667H20.6667V5.33333Z" fill="white"/>
<path fill-rule="evenodd" clip-rule="evenodd" d="M4.66667 4H19.3333C20.0357 4.01562 20.7049 4.30159 21.2017 4.79834C21.6984 5.29509 21.9844 5.96433 22 6.66667V17.3333C21.9844 18.0357 21.6984 18.7049 21.2017 19.2017C20.7049 19.6984 20.0357 19.9844 19.3333 20H4.66667C3.96433 19.9844 3.29509 19.6984 2.79834 19.2017C2.30159 18.7049 2.01562 18.0357 2 17.3333V6.66667C2.01562 5.96433 2.30159 5.29509 2.79834 4.79834C3.29509 4.30159 3.96433 4.01562 4.66667 4ZM4.22005 18.6307L9.86003 12.2193L12 13.9427L14.0467 12.2094L19.7799 18.6307C19.6866 18.6533 4.31339 18.6534 4.22005 18.6314V18.6307ZM3.33333 17.3333C3.30832 17.4604 3.29933 17.59 3.30664 17.7193L8.87337 11.3333L3.33333 6.66667V17.3333ZM20 5.33333L12 12L4 5.33333H20ZM20.6667 6.66667L15.1266 11.3333L20.6934 17.7193C20.7007 17.59 20.6917 17.4604 20.6667 17.3333V6.66667Z" fill="currentColor"/>
</svg>
