<svg width="24" height="24" viewBox="0 0 24 24" fill="none" xmlns="http://www.w3.org/2000/svg">
<path d="M21.3333 4.66669H2.66667C2.2985 4.66669 2 4.96519 2 5.33335C2 5.70151 2.2985 6.00002 2.66667 6.00002H21.3333C21.7015 6.00002 22 5.70152 22 5.33335C22 4.96518 21.7015 4.66669 21.3333 4.66669Z" fill="currentColor"/>
<path d="M21.3333 11.3334H2.66667C2.2985 11.3334 2 11.6319 2 12C2 12.3682 2.2985 12.6667 2.66667 12.6667H21.3333C21.7015 12.6667 22 12.3682 22 12C22 11.6319 21.7015 11.3334 21.3333 11.3334Z" fill="currentColor"/>
<path d="M21.3333 18H2.66667C2.2985 18 2 18.2985 2 18.6667C2 19.0348 2.2985 19.3333 2.66667 19.3333H21.3333C21.7015 19.3333 22 19.0348 22 18.6667C22 18.2985 21.7015 18 21.3333 18Z" fill="currentColor"/>
</svg>