<svg width="24" height="24" viewBox="0 0 24 24" fill="none" xmlns="http://www.w3.org/2000/svg">
<path fill-rule="evenodd" clip-rule="evenodd" d="M2.20861 12.8031C1.76547 12.8031 1.40625 12.4439 1.40625 12.0007V11.9992C1.40625 11.5561 1.76547 11.1969 2.20861 11.1969H21.7914C22.2345 11.1969 22.5937 11.5561 22.5937 11.9992V12.0007C22.5937 12.4439 22.2345 12.8031 21.7914 12.8031H2.20861ZM0 12.0007C0 13.2205 0.988816 14.2094 2.20861 14.2094H21.7914C23.0112 14.2094 24 13.2205 24 12.0007V11.9992C24 10.7794 23.0112 9.79063 21.7914 9.79063H2.20861C0.988816 9.79063 0 10.7794 0 11.9992V12.0007Z" fill="currentColor"/>
<path fill-rule="evenodd" clip-rule="evenodd" d="M2.20861 6.02496C1.76547 6.02496 1.40625 5.66575 1.40625 5.2226V5.2211C1.40625 4.77796 1.76547 4.41874 2.20861 4.41874H21.7914C22.2345 4.41874 22.5937 4.77796 22.5937 5.2211V5.2226C22.5937 5.66575 22.2345 6.02496 21.7914 6.02496H2.20861ZM0 5.2226C0 6.4424 0.988816 7.43121 2.20861 7.43121H21.7914C23.0112 7.43121 24 6.4424 24 5.2226V5.2211C24 4.00131 23.0112 3.0125 21.7914 3.0125H2.20861C0.988816 3.0125 0 4.00131 0 5.2211V5.2226Z" fill="currentColor"/>
<path fill-rule="evenodd" clip-rule="evenodd" d="M2.20861 19.5812C1.76547 19.5812 1.40625 19.222 1.40625 18.7789V18.7774C1.40625 18.3342 1.76547 17.975 2.20861 17.975H21.7914C22.2345 17.975 22.5937 18.3342 22.5937 18.7774V18.7789C22.5937 19.222 22.2345 19.5812 21.7914 19.5812H2.20861ZM0 18.7789C0 19.9987 0.988816 20.9875 2.20861 20.9875H21.7914C23.0112 20.9875 24 19.9987 24 18.7789V18.7774C24 17.5576 23.0112 16.5688 21.7914 16.5688H2.20861C0.988816 16.5688 0 17.5576 0 18.7774V18.7789Z" fill="currentColor"/>
</svg>
