<svg width="24" height="24" viewBox="-4 -4 30 30" fill="none" xmlns="http://www.w3.org/2000/svg">
<path fill-rule="evenodd" clip-rule="evenodd" d="M9.88874 0.460249C10.5026 -0.153416 11.4979 -0.153416 12.1117 0.460249L14.4694 2.81739C14.9189 3.26691 15.0534 3.9428 14.8102 4.53002C14.5669 5.11724 13.9938 5.50004 13.358 5.50004H12.5719V10.349L18.7625 16.5378L19.3167 15.9837C19.7664 15.5342 20.4423 15.3997 21.0296 15.6429C21.617 15.8862 22 16.4592 22 17.0948V20.4283C22 21.2962 21.2962 21.9997 20.4282 21.9997H17.0938C16.4581 21.9997 15.8849 21.6168 15.6416 21.0297C15.3984 20.4425 15.5327 19.7666 15.9822 19.317L16.5394 18.76L10.9999 13.2219L5.4604 18.76L6.01777 19.317C6.46728 19.7666 6.60162 20.4424 6.35836 21.0297C6.1151 21.6168 5.54193 21.9997 4.90618 21.9997H1.57179C0.70382 21.9997 0 21.2962 0 20.4283V17.0948C0 16.4592 0.383033 15.8862 0.970379 15.6429C1.55773 15.3997 2.23367 15.5342 2.68333 15.9837L3.23755 16.5378L9.42807 10.3486V5.49959H8.64218C8.00642 5.49959 7.43326 5.11673 7.19 4.52957C6.94657 3.9424 7.08109 3.26646 7.53059 2.81694L9.88874 0.460249Z" fill="currentColor"/>
</svg>
