<svg width="24" height="24" viewBox="-3 -2 24 24" fill="none" xmlns="http://www.w3.org/2000/svg">
<g clip-path="url(#clip0_10247_54984)">
<path d="M10.8749 0H7.12502C6.7126 0 6.37488 0.33772 6.37488 0.749927V2.62507C6.37488 3.03728 6.7126 3.375 7.12502 3.375H10.8749C11.2873 3.375 11.625 3.03728 11.625 2.62507V0.749927C11.625 0.33772 11.2873 0 10.8749 0Z" fill="currentColor"/>
<path d="M15.0001 1.5H12.7501V2.99985C12.7501 3.82471 12.0747 4.49993 11.25 4.49993H6.75005C5.92542 4.49993 5.24998 3.82471 5.24998 2.99985V1.5H2.99998C2.17534 1.5 1.50012 2.17522 1.50012 2.99985V16.4999C1.50012 17.3247 2.17534 17.9999 2.99998 17.9999H15.0001C15.8248 17.9999 16.5 17.3247 16.5 16.4999V2.99985C16.5 2.17522 15.8248 1.5 15.0001 1.5ZM4.50005 7.49985H9.00005V8.99993H4.50005V7.49985ZM12 15H4.50005V13.4999H12V15ZM13.5 11.9999H4.50005V10.5H13.5V11.9999V11.9999Z" fill="currentColor"/>
</g>
<defs>
<clipPath id="clip0_10247_54984">
<rect width="18" height="18" fill="white"/>
</clipPath>
</defs>
</svg>
