<svg width="24" height="24" viewBox="0 0 24 24" fill="none" xmlns="http://www.w3.org/2000/svg">
<path d="M19.8262 1.5652H17.3437C17.0207 0.654328 16.1507 0 15.1305 0H8.86961C7.84933 0 6.97947 0.654328 6.65641 1.5652H4.174C2.87941 1.5652 1.82617 2.61844 1.82617 3.91303V21.6522C1.82617 22.9468 2.87941 24 4.174 24H19.8262C21.1208 24 22.174 22.9468 22.174 21.6522V3.91303C22.174 2.61844 21.1207 1.5652 19.8262 1.5652ZM8.08703 2.34783C8.08703 1.9163 8.43813 1.5652 8.86966 1.5652H15.1305C15.562 1.5652 15.9131 1.9163 15.9131 2.34783V3.13045H8.08703V2.34783ZM20.6088 21.6522C20.6088 22.0837 20.2577 22.4348 19.8261 22.4348H4.174C3.74247 22.4348 3.39137 22.0837 3.39137 21.6522V3.91303C3.39137 3.4815 3.74247 3.13041 4.174 3.13041H6.52183V3.91303C6.52183 4.34522 6.87222 4.69566 7.30445 4.69566H16.6958C17.128 4.69566 17.4784 4.34527 17.4784 3.91303V3.13045H19.8262C20.2578 3.13045 20.6088 3.48155 20.6088 3.91308V21.6522H20.6088Z" fill="currentColor"/>
<path d="M5.73868 9.39142C6.17091 9.39142 6.5213 9.04103 6.5213 8.6088C6.5213 8.17656 6.17091 7.82617 5.73868 7.82617C5.30645 7.82617 4.95605 8.17656 4.95605 8.6088C4.95605 9.04103 5.30645 9.39142 5.73868 9.39142Z" fill="currentColor"/>
<path d="M18.2609 7.82617H8.86954C8.43735 7.82617 8.08691 8.17656 8.08691 8.6088C8.08691 9.04098 8.4373 9.39142 8.86954 9.39142H18.2609C18.693 9.39142 19.0435 9.04103 19.0435 8.6088C19.0435 8.17656 18.6931 7.82617 18.2609 7.82617Z" fill="currentColor"/>
<path d="M5.73868 14.0867C6.17091 14.0867 6.5213 13.7363 6.5213 13.3041C6.5213 12.8719 6.17091 12.5215 5.73868 12.5215C5.30645 12.5215 4.95605 12.8719 4.95605 13.3041C4.95605 13.7363 5.30645 14.0867 5.73868 14.0867Z" fill="currentColor"/>
<path d="M18.2609 12.5215H8.86954C8.43735 12.5215 8.08691 12.8719 8.08691 13.3041C8.08691 13.7363 8.4373 14.0867 8.86954 14.0867H18.2609C18.693 14.0867 19.0435 13.7363 19.0435 13.3041C19.0435 12.8719 18.6931 12.5215 18.2609 12.5215Z" fill="currentColor"/>
<path d="M5.73868 18.782C6.17091 18.782 6.5213 18.4317 6.5213 17.9994C6.5213 17.5672 6.17091 17.2168 5.73868 17.2168C5.30645 17.2168 4.95605 17.5672 4.95605 17.9994C4.95605 18.4317 5.30645 18.782 5.73868 18.782Z" fill="currentColor"/>
<path d="M18.2609 17.2168H8.86954C8.43735 17.2168 8.08691 17.5672 8.08691 17.9994C8.08691 18.4317 8.4373 18.782 8.86954 18.782H18.2609C18.693 18.782 19.0435 18.4317 19.0435 17.9994C19.0435 17.5672 18.6931 17.2168 18.2609 17.2168Z" fill="currentColor"/>
</svg>
