<svg width="24" height="24" viewBox="-3 -3 30 30" fill="none" xmlns="http://www.w3.org/2000/svg">
<path d="M19.3828 10.6406H19.0312V7.03125C19.0312 5.16052 18.2978 3.39684 16.9661 2.06512C15.6344 0.733406 13.8707 0 12 0C10.1293 0 8.36559 0.733406 7.03387 2.06512C5.70216 3.39684 4.96875 5.16052 4.96875 7.03125V10.6406H4.61719C4.03561 10.6406 3.5625 11.1137 3.5625 11.6953V22.9453C3.5625 23.5269 4.03561 24 4.61719 24H16.2188V23.2969H4.61719C4.42336 23.2969 4.26562 23.1392 4.26562 22.9453V11.6953C4.26562 11.5014 4.42331 11.3438 4.61719 11.3438H19.3828C19.5767 11.3438 19.7344 11.5014 19.7344 11.6953V22.9453C19.7344 23.1392 19.5767 23.2969 19.3828 23.2969H18.3282V24H19.3828C19.9643 24 20.4375 23.5269 20.4375 22.9453V11.6953C20.4375 11.1137 19.9643 10.6406 19.3828 10.6406ZM5.67188 7.03125C5.67188 5.34834 6.33216 3.7612 7.53108 2.56233C8.73 1.36341 10.3171 0.703125 12 0.703125C13.6829 0.703125 15.27 1.36341 16.4689 2.56233C17.6678 3.76125 18.3281 5.34834 18.3281 7.03125V10.6406H16.9219V7.03125C16.9219 5.72363 16.408 4.48959 15.4748 3.55645C14.5417 2.62331 13.3076 2.10938 12 2.10938C10.8361 2.10938 9.70402 2.52914 8.81222 3.29133L9.26906 3.8258C10.0336 3.17236 11.0035 2.8125 12 2.8125C13.1198 2.8125 14.1773 3.25327 14.9776 4.05366C15.778 4.85405 16.2188 5.91145 16.2188 7.03125V10.6406H7.78125V7.03125C7.78125 6.03487 8.14116 5.06498 8.79464 4.30031L8.26013 3.84352C7.49789 4.73541 7.07812 5.86748 7.07812 7.03125V10.6406H5.67188V7.03125Z" fill="currentColor"/>
<path d="M16.9219 23.2969H17.625V24H16.9219V23.2969Z" fill="currentColor"/>
<path d="M13.8266 20.3068L13.2639 17.3133C13.58 16.9871 13.7578 16.5524 13.7578 16.0916C13.7578 15.1223 12.9692 14.3337 12 14.3337C11.0307 14.3337 10.2422 15.1223 10.2422 16.0916C10.2422 16.5507 10.4189 16.9843 10.7332 17.3103L10.1699 20.3068H13.8266V20.3068ZM12 15.0369C12.5815 15.0369 13.0547 15.51 13.0547 16.0916C13.0547 16.4119 12.9114 16.7113 12.6615 16.9129L12.498 17.0448L12.979 19.6037H11.0175L11.4988 17.043L11.3361 16.911C11.0877 16.7095 10.9453 16.4108 10.9453 16.0915C10.9453 15.51 11.4184 15.0369 12 15.0369Z" fill="currentColor"/>
<path d="M16.9219 12.0468H17.625V12.7499H16.9219V12.0468Z" fill="currentColor"/>
<path d="M18.3281 12.0468H19.0312V12.7499H18.3281V12.0468Z" fill="currentColor"/>
</svg>
