<svg width="80" height="80" viewBox="0 0 80 80" fill="none" xmlns="http://www.w3.org/2000/svg">
<path d="M65.7812 38.2156V25.7812C65.7812 11.5655 54.2158 0 40 0C25.7842 0 14.2188 11.5655 14.2188 25.7812V38.2156C11.4908 39.1831 9.53125 41.7883 9.53125 44.8438V72.9688C9.53125 76.8458 12.6855 80 16.5625 80H63.4375C67.3145 80 70.4688 76.8458 70.4688 72.9688V44.8438C70.4688 41.7883 68.5092 39.1831 65.7812 38.2156ZM18.9062 25.7812C18.9062 14.1502 28.3689 4.6875 40 4.6875C51.6311 4.6875 61.0938 14.1502 61.0938 25.7812V37.8125H56.4062V25.7812C56.4062 16.7348 49.0464 9.375 40 9.375C30.9536 9.375 23.5938 16.7348 23.5938 25.7812V37.8125H18.9062V25.7812ZM51.7188 25.7812V37.8125H28.2812V25.7812C28.2812 19.3195 33.5383 14.0625 40 14.0625C46.4617 14.0625 51.7188 19.3195 51.7188 25.7812ZM65.7812 72.9688C65.7812 74.2611 64.7298 75.3125 63.4375 75.3125H16.5625C15.2702 75.3125 14.2188 74.2611 14.2188 72.9688V44.8438C14.2188 43.5514 15.2702 42.5 16.5625 42.5H63.4375C64.7298 42.5 65.7812 43.5514 65.7812 44.8438V72.9688Z" fill="currentColor"/>
<path d="M40 47.1875C36.123 47.1875 32.9688 50.3417 32.9688 54.2188C32.9688 57.2742 34.9283 59.8794 37.6562 60.8469V68.2812C37.6562 69.5756 38.7056 70.625 40 70.625C41.2944 70.625 42.3438 69.5756 42.3438 68.2812V60.8469C45.0717 59.8794 47.0312 57.2742 47.0312 54.2188C47.0312 50.3417 43.877 47.1875 40 47.1875ZM40 56.5625C38.7077 56.5625 37.6562 55.5111 37.6562 54.2188C37.6562 52.9264 38.7077 51.875 40 51.875C41.2923 51.875 42.3438 52.9264 42.3438 54.2188C42.3438 55.5111 41.2923 56.5625 40 56.5625Z" fill="currentColor"/>
</svg>
