<svg width="25" height="25" viewBox="-2 -2 20 20" fill="none" xmlns="http://www.w3.org/2000/svg">
<path d="M12.8359 3.60166V3.88145V4.64557V5.7707V7.14854V8.64821V10.1674V11.5723V12.7546V13.6V13.9835C12.8359 14.0226 12.833 14.0602 12.8287 14.0978C12.8359 14.0452 12.8432 13.9911 12.849 13.9384C12.8403 13.9986 12.8243 14.0557 12.8039 14.1129C12.8228 14.0648 12.8432 14.0166 12.8621 13.9685C12.8374 14.0302 12.8054 14.0858 12.7676 14.1385C12.7981 14.0978 12.8287 14.0572 12.8592 14.0166C12.8199 14.0678 12.7749 14.1144 12.7254 14.155C12.7647 14.1234 12.8039 14.0918 12.8432 14.0602C12.7923 14.0994 12.7371 14.1324 12.6789 14.158C12.7254 14.1385 12.772 14.1174 12.8185 14.0978C12.7632 14.1204 12.708 14.1355 12.6498 14.1445C12.7007 14.137 12.7531 14.1294 12.8039 14.1234C12.6949 14.1385 12.5815 14.1309 12.471 14.1309H11.7907H9.53601H6.78422H4.42631C4.05269 14.1309 3.67911 14.1324 3.30696 14.1309C3.27061 14.1309 3.23427 14.1279 3.19793 14.1234C3.24881 14.1309 3.30114 14.1385 3.35202 14.1445C3.29387 14.1355 3.23863 14.1189 3.18339 14.0978C3.22991 14.1174 3.27643 14.1385 3.32295 14.158C3.26334 14.1324 3.20956 14.0994 3.15868 14.0602C3.19793 14.0918 3.23718 14.1234 3.27643 14.155C3.227 14.1144 3.18194 14.0678 3.14269 14.0166C3.17322 14.0572 3.20374 14.0978 3.23427 14.1385C3.19647 14.0858 3.16449 14.0287 3.13978 13.9685C3.15868 14.0166 3.17903 14.0648 3.19793 14.1129C3.17612 14.0557 3.16159 13.9986 3.15286 13.9384C3.16013 13.9911 3.1674 14.0452 3.17322 14.0978C3.15868 13.9805 3.16595 13.8572 3.16595 13.7384V12.9878V11.8686V10.4908V8.9851V7.46588V6.04441V4.8531V4.00022V3.61364C3.16595 3.57453 3.16885 3.53692 3.17322 3.49932C3.16595 3.55197 3.15868 3.60612 3.15286 3.65876C3.16159 3.5986 3.17758 3.54144 3.19793 3.48428C3.17903 3.53241 3.15868 3.58054 3.13978 3.62868C3.16449 3.56701 3.19647 3.51135 3.23427 3.4587C3.20374 3.49932 3.17322 3.53993 3.14269 3.58054C3.18194 3.5294 3.227 3.48277 3.27643 3.44216C3.23718 3.47375 3.19793 3.50534 3.15868 3.53692C3.20956 3.49781 3.2648 3.46472 3.32295 3.43915C3.27643 3.45871 3.22991 3.47976 3.18339 3.49932C3.23863 3.47676 3.29387 3.46171 3.35202 3.45269C3.30114 3.46021 3.24881 3.46773 3.19793 3.47375C3.32295 3.4572 3.45233 3.46623 3.57734 3.46623H4.33035H6.07335H6.47601C6.78857 3.46623 7.0604 3.19095 7.0575 2.86455C7.05604 2.78934 7.06186 2.71413 7.07058 2.64043C7.06331 2.69307 7.05604 2.74722 7.05023 2.79987C7.06913 2.65848 7.10547 2.5216 7.15926 2.38922C7.14036 2.43735 7.12001 2.48549 7.10111 2.53362C7.15199 2.41178 7.21741 2.29746 7.29445 2.19217C7.26393 2.23279 7.2334 2.2734 7.20287 2.31401C7.28573 2.2042 7.37877 2.10643 7.48488 2.02221C7.44563 2.0538 7.40638 2.08539 7.36713 2.11697C7.46889 2.03725 7.57937 1.96956 7.69712 1.91692C7.6506 1.93647 7.60408 1.95753 7.55756 1.97708C7.68549 1.92143 7.81778 1.88382 7.95443 1.86427C7.90355 1.87179 7.85122 1.87931 7.80034 1.88533C7.93553 1.86728 8.06927 1.86728 8.20447 1.88533C8.15359 1.87781 8.10126 1.87029 8.05037 1.86427C8.18702 1.88382 8.31931 1.92143 8.44725 1.97708C8.40073 1.95753 8.35421 1.93647 8.30769 1.91692C8.42544 1.96956 8.53592 2.03725 8.63768 2.11697C8.59843 2.08539 8.55918 2.0538 8.51993 2.02221C8.62605 2.10795 8.72054 2.20422 8.80194 2.31401C8.77141 2.2734 8.74088 2.23279 8.71036 2.19217C8.7874 2.29746 8.85282 2.41178 8.9037 2.53362C8.8848 2.48549 8.86445 2.43735 8.84555 2.38922C8.89934 2.52159 8.93568 2.65847 8.95458 2.79987C8.94731 2.74722 8.94004 2.69307 8.93423 2.64043C8.94295 2.71564 8.94877 2.78934 8.94731 2.86455C8.9444 3.18944 9.21624 3.46623 9.5288 3.46623H10.6307H12.3534C12.5016 3.46623 12.6586 3.45419 12.8069 3.47375C12.756 3.46623 12.7037 3.45871 12.6528 3.45269C12.711 3.46171 12.7662 3.47826 12.8214 3.49932C12.7749 3.47976 12.7284 3.4587 12.6819 3.43915C12.7415 3.46472 12.7953 3.49781 12.8462 3.53692C12.8069 3.50534 12.7677 3.47375 12.7284 3.44216C12.7778 3.48277 12.8229 3.5294 12.8621 3.58054C12.8316 3.53993 12.8011 3.49932 12.7706 3.4587C12.8084 3.51135 12.8403 3.56851 12.8651 3.62868C12.8462 3.58054 12.8258 3.53241 12.8069 3.48428C12.8287 3.54143 12.8433 3.59859 12.852 3.65876C12.8447 3.60612 12.8374 3.55197 12.8316 3.49932C12.8331 3.53241 12.836 3.56701 12.836 3.6016C12.8374 3.75654 12.8999 3.91599 13.0061 4.0273C13.1064 4.13109 13.2721 4.21081 13.4175 4.20329C13.7286 4.18825 14.0033 3.93855 13.999 3.60162C13.9931 3.14585 13.7765 2.75176 13.4218 2.49002C13.211 2.33509 12.945 2.26289 12.6877 2.26138H12.128H10.0667H9.52588C9.71922 2.46144 9.91403 2.66301 10.1074 2.86306C10.1117 2.43736 9.98961 1.98762 9.75265 1.63864C9.63344 1.46265 9.50261 1.3017 9.3398 1.16934C9.13483 1.00238 8.93567 0.883538 8.69 0.788782C8.29605 0.63686 7.8323 0.630842 7.42963 0.748168C7.04148 0.860983 6.66354 1.09864 6.40622 1.42356C6.22887 1.64768 6.10239 1.8703 6.00499 2.14406C5.92504 2.37119 5.88869 2.62389 5.8916 2.86456L6.47309 2.26288H4.73881H3.63836H3.33889C3.10048 2.26288 2.8737 2.31553 2.66291 2.43285C2.25588 2.65999 2.00582 3.12629 2 3.6016V3.65425V4.05286V5.76162V8.19539V10.7645V12.8854V13.9549C2 14.0632 2.01163 14.1685 2.03053 14.2753C2.11484 14.7491 2.47971 15.1177 2.90856 15.2711C3.08446 15.3343 3.26907 15.3327 3.45078 15.3327H4.82309H7.08215H9.57816H11.6613C12.0015 15.3327 12.3417 15.3343 12.6818 15.3327C12.8912 15.3327 13.0758 15.2816 13.2648 15.1959C13.4756 15.0996 13.6384 14.9326 13.7721 14.7431C13.9117 14.5461 13.9713 14.3129 13.9945 14.0737C14.0033 13.9835 13.9989 13.8917 13.9989 13.8015V12.3921V10.0982V7.50796V5.20957V3.79412V3.60008C13.9989 3.2857 13.7314 2.98336 13.4174 2.9984C13.102 3.01495 12.8359 3.26465 12.8359 3.60159L12.8359 3.60166Z" fill="currentColor"/>
<path d="M7.45118 2.84677V2.85128C7.45845 2.79863 7.46571 2.74448 7.47153 2.69183C7.47153 2.69635 7.47008 2.69935 7.46862 2.70236C7.48752 2.65423 7.50787 2.60609 7.52677 2.55796C7.52532 2.55946 7.52532 2.56247 7.52386 2.56398C7.55439 2.52336 7.58492 2.48275 7.61545 2.44214C7.61254 2.44515 7.61109 2.44665 7.60818 2.44966C7.64743 2.41807 7.68668 2.38648 7.72593 2.35489C7.72448 2.3564 7.72157 2.3579 7.72011 2.3579C7.76663 2.33835 7.81315 2.31729 7.85967 2.29774C7.85676 2.29924 7.8524 2.30074 7.84949 2.30074C7.90038 2.29322 7.95271 2.2857 8.00359 2.27969H7.99632C8.0472 2.28721 8.09953 2.29473 8.15041 2.30074C8.14605 2.30074 8.14315 2.29924 8.14024 2.29774C8.18676 2.31729 8.23328 2.33835 8.27979 2.3579C8.27834 2.3564 8.27543 2.3564 8.27398 2.35489C8.31323 2.38648 8.35248 2.41807 8.39173 2.44966L8.38446 2.44214C8.41499 2.48275 8.44552 2.52336 8.47605 2.56398C8.47459 2.56247 8.47314 2.55946 8.47314 2.55796C8.49204 2.60609 8.51239 2.65423 8.53129 2.70236C8.52983 2.69935 8.52838 2.69484 8.52838 2.69183C8.53565 2.74448 8.54292 2.79863 8.54873 2.85128V2.84376C8.54146 2.8964 8.53419 2.95055 8.52838 3.0032C8.52838 2.99869 8.52983 2.99568 8.53129 2.99267C8.51239 3.04081 8.49203 3.08894 8.47314 3.13707C8.47459 3.13557 8.47459 3.13256 8.47605 3.13106C8.44552 3.17167 8.41499 3.21228 8.38446 3.2529C8.38737 3.24989 8.38882 3.24839 8.39173 3.24538C8.35248 3.27696 8.31323 3.30855 8.27398 3.34014C8.27543 3.33864 8.27834 3.33713 8.27979 3.33713C8.23328 3.35669 8.18676 3.37775 8.14024 3.3973C8.14315 3.3958 8.14751 3.39429 8.15041 3.39429C8.09953 3.40181 8.0472 3.40933 7.99632 3.41535H8.00359C7.95271 3.40783 7.90038 3.40031 7.84949 3.39429C7.85386 3.39429 7.85676 3.3958 7.85967 3.3973C7.81315 3.37775 7.76663 3.35669 7.72011 3.33713C7.72157 3.33864 7.72448 3.33864 7.72593 3.34014C7.68668 3.30855 7.64743 3.27696 7.60818 3.24538L7.61545 3.2529C7.58492 3.21228 7.55439 3.17167 7.52386 3.13106C7.52532 3.13256 7.52677 3.13557 7.52677 3.13707C7.50787 3.08894 7.48752 3.04081 7.46862 2.99267C7.47008 2.99568 7.47153 3.00019 7.47153 3.0032C7.46426 2.95055 7.45699 2.8964 7.45118 2.84376V2.84677C7.44827 2.9295 7.46426 3.00621 7.5006 3.07841C7.52386 3.15362 7.56457 3.2183 7.62126 3.27245C7.6736 3.33112 7.73611 3.37323 7.80879 3.3973C7.87857 3.43491 7.95271 3.45296 8.03266 3.44844C8.08355 3.44092 8.13588 3.4334 8.18676 3.42739C8.28561 3.39881 8.37138 3.34767 8.44407 3.27245C8.47459 3.23184 8.50512 3.19123 8.53565 3.15061C8.58798 3.05736 8.61415 2.95507 8.6156 2.84677C8.61415 2.81818 8.61124 2.79111 8.60543 2.76253C8.60252 2.73395 8.59816 2.70688 8.5938 2.6783C8.58653 2.65122 8.57199 2.62114 8.56182 2.60008C8.54437 2.55646 8.54292 2.54743 8.52838 2.52186C8.49785 2.48124 8.46732 2.44063 8.4368 2.40002C8.43534 2.39851 8.43534 2.39701 8.43389 2.3955C8.43244 2.394 8.43098 2.3925 8.42953 2.3925C8.39028 2.36091 8.35103 2.32932 8.31178 2.29773C8.26526 2.26915 8.26235 2.26464 8.16641 2.23305C8.11262 2.215 8.05447 2.20898 7.99777 2.20898C7.94108 2.20898 7.88293 2.215 7.82914 2.23305C7.73465 2.26464 7.73174 2.26915 7.68377 2.29773C7.64452 2.32932 7.60527 2.36091 7.56602 2.3925C7.56457 2.394 7.56311 2.394 7.56166 2.3955C7.5602 2.39701 7.55875 2.39851 7.55875 2.40002C7.52822 2.44063 7.49769 2.48124 7.46717 2.52186C7.45263 2.54743 7.44972 2.56397 7.43373 2.60008C7.42501 2.62264 7.41047 2.65122 7.40175 2.6783C7.39739 2.70537 7.39303 2.73395 7.39012 2.76253C7.38431 2.78961 7.3814 2.81818 7.37995 2.84677C7.37704 2.90543 7.38576 2.9656 7.4032 3.02125C7.43664 3.12655 7.48025 3.2183 7.55875 3.29501C7.59364 3.33112 7.69395 3.40181 7.68087 3.39429C7.70558 3.40933 7.71866 3.41234 7.75646 3.42889C7.77827 3.43791 7.80589 3.45295 7.83205 3.46198C7.85822 3.46649 7.88584 3.471 7.91346 3.47401C7.93963 3.48003 7.9658 3.48304 7.99196 3.48454H7.99778C8.04866 3.47702 8.10099 3.4695 8.15187 3.46348C8.15623 3.46198 8.15914 3.46198 8.16205 3.46048C8.20857 3.44092 8.25508 3.41986 8.3016 3.40031C8.30306 3.40031 8.30451 3.3988 8.30596 3.3973C8.35103 3.37173 8.39173 3.33713 8.42808 3.29953C8.46587 3.25891 8.49931 3.21379 8.52693 3.16565C8.58653 3.06186 8.60253 2.9671 8.60979 2.84827C8.6127 2.76554 8.59671 2.68883 8.56037 2.61662C8.53711 2.54141 8.4964 2.47674 8.43971 2.42258C8.38737 2.36392 8.32486 2.3218 8.25218 2.29773C8.1824 2.26013 8.10826 2.24208 8.02831 2.24659C7.97742 2.25411 7.92509 2.26163 7.87421 2.26765C7.77536 2.29623 7.68959 2.34737 7.6169 2.42258C7.58638 2.4632 7.55585 2.50381 7.52532 2.54442C7.4788 2.63768 7.45118 2.73846 7.45118 2.84676L7.45118 2.84677Z" fill="currentColor"/>
<path d="M4.57273 6.40848H5.25161H6.89141H8.86846H10.5838C10.86 6.40848 11.1377 6.413 11.4139 6.40848H11.4255C11.7294 6.40848 12.0216 6.13173 12.007 5.80681C11.9925 5.4804 11.7512 5.20513 11.4255 5.20513H10.7467H9.10686H7.12981H5.41444C5.13822 5.20513 4.86057 5.20062 4.58436 5.20513H4.57273C4.26889 5.20513 3.9767 5.48189 3.99124 5.80681C4.00578 6.13321 4.2471 6.40848 4.57273 6.40848Z" fill="currentColor"/>
<path d="M4.57273 9.47391H5.25161H6.89141H8.86846H10.5838C10.86 9.47391 11.1377 9.47843 11.4139 9.47391H11.4255C11.7294 9.47391 12.0216 9.19716 12.007 8.87224C11.9925 8.54583 11.7512 8.27056 11.4255 8.27056H10.7467H9.10686H7.12981H5.41444C5.13822 8.27056 4.86057 8.26605 4.58436 8.27056H4.57273C4.26889 8.27056 3.9767 8.54732 3.99124 8.87224C4.00578 9.19713 4.2471 9.47391 4.57273 9.47391Z" fill="currentColor"/>
<path d="M4.57273 12.5398H6.06859H8.43522H8.98037C9.2842 12.5398 9.57639 12.263 9.56185 11.9381C9.54732 11.6117 9.306 11.3364 8.98037 11.3364H7.48451H5.11787H4.57273C4.26889 11.3364 3.9767 11.6132 3.99124 11.9381C4.00578 12.263 4.2471 12.5398 4.57273 12.5398Z" fill="currentColor"/>
</svg>
