<svg width="40" height="40" viewBox="0 0 40 40" fill="none" xmlns="http://www.w3.org/2000/svg">
<path d="M34.1406 20.9509H30.2252C29.6923 20.9509 29.1763 21.0238 28.6853 21.1577C27.7167 19.2536 25.7392 17.9453 23.4605 17.9453H16.5395C14.2608 17.9453 12.2833 19.2536 11.3147 21.1577C10.8237 21.0238 10.3077 20.9509 9.77484 20.9509H5.85938C2.62852 20.9509 0 23.5795 0 26.8103V33.0695C0 35.008 1.57711 36.5852 3.51562 36.5852H36.4844C38.4229 36.5852 40 35.008 40 33.0695V26.8103C40 23.5795 37.3715 20.9509 34.1406 20.9509ZM10.6801 23.8048V34.2415H3.51562C2.86945 34.2415 2.34375 33.7158 2.34375 33.0696V26.8104C2.34375 24.8719 3.92086 23.2948 5.85938 23.2948H9.77484C10.093 23.2948 10.401 23.338 10.6943 23.4176C10.6859 23.5458 10.6801 23.6747 10.6801 23.8048ZM26.9762 34.2415H13.0238V23.8048C13.0238 21.8663 14.6009 20.2891 16.5395 20.2891H23.4605C25.3991 20.2891 26.9762 21.8663 26.9762 23.8048V34.2415ZM37.6562 33.0696C37.6562 33.7158 37.1305 34.2415 36.4844 34.2415H29.3199V23.8048C29.3199 23.6745 29.3141 23.5456 29.3057 23.4175C29.599 23.338 29.907 23.2947 30.2252 23.2947H34.1406C36.0791 23.2947 37.6562 24.8718 37.6562 26.8103V33.0696Z" fill="currentColor"/>
<path d="M7.81707 9.88281C4.94605 9.88281 2.61035 12.2185 2.61035 15.0895C2.61027 17.9605 4.94605 20.2962 7.81707 20.2962C10.688 20.2962 13.0238 17.9605 13.0238 15.0895C13.0238 12.2185 10.6881 9.88281 7.81707 9.88281ZM7.81699 17.9525C6.23832 17.9525 4.95402 16.6682 4.95402 15.0895C4.95402 13.5109 6.23832 12.2266 7.81699 12.2266C9.39566 12.2266 10.68 13.5109 10.68 15.0895C10.68 16.6682 9.39566 17.9525 7.81699 17.9525Z" fill="currentColor"/>
<path d="M20 3.41602C16.1644 3.41602 13.0439 6.53648 13.0439 10.3721C13.0439 14.2077 16.1644 17.3282 20 17.3282C23.8357 17.3282 26.9561 14.2077 26.9561 10.3721C26.9561 6.53656 23.8357 3.41602 20 3.41602ZM20 14.9845C17.4568 14.9845 15.3877 12.9154 15.3877 10.3721C15.3877 7.82891 17.4568 5.75977 20 5.75977C22.5433 5.75977 24.6124 7.82883 24.6124 10.3721C24.6124 12.9154 22.5433 14.9845 20 14.9845Z" fill="currentColor"/>
<path d="M32.1833 9.88281C29.3123 9.88281 26.9766 12.2185 26.9766 15.0895C26.9766 17.9605 29.3123 20.2962 32.1833 20.2962C35.0543 20.2962 37.39 17.9605 37.39 15.0895C37.39 12.2185 35.0543 9.88281 32.1833 9.88281ZM32.1833 17.9525C30.6047 17.9525 29.3203 16.6682 29.3203 15.0895C29.3204 13.5109 30.6047 12.2266 32.1833 12.2266C33.762 12.2266 35.0462 13.5109 35.0462 15.0895C35.0462 16.6682 33.762 17.9525 32.1833 17.9525Z" fill="currentColor"/>
</svg>
