<svg width="40" height="40" viewBox="0 0 40 40" fill="none" xmlns="http://www.w3.org/2000/svg">
<path d="M36.1804 22.0352C35.8569 22.0352 35.5945 22.2975 35.5945 22.6211V33.6861C35.5945 34.0866 35.2687 34.4123 34.8683 34.4123H5.13201C4.73154 34.4123 4.40576 34.0866 4.40576 33.6861V22.6259C4.40576 22.3023 4.14342 22.04 3.81982 22.04C3.49623 22.04 3.23389 22.3023 3.23389 22.6259V33.6862C3.23389 34.7328 4.08537 35.5843 5.13201 35.5843H34.8683C35.9149 35.5843 36.7664 34.7328 36.7664 33.6862V22.6211C36.7664 22.2975 36.504 22.0352 36.1804 22.0352Z" fill="currentColor"/>
<path d="M37.3541 3.37852H36.2473V2.85719C36.2473 1.67914 35.2889 0.720703 34.1109 0.720703C32.9328 0.720703 31.9744 1.67914 31.9744 2.85719V3.37852H29.1919V2.85719C29.1919 1.67914 28.2334 0.720703 27.0554 0.720703C25.8773 0.720703 24.9189 1.67914 24.9189 2.85719V3.37852H22.1364V2.85719C22.1364 1.67914 21.178 0.720703 19.9999 0.720703C18.8219 0.720703 17.8634 1.67914 17.8634 2.85719V3.37852H15.0809V2.85719C15.0809 1.67914 14.1225 0.720703 12.9445 0.720703C11.7664 0.720703 10.808 1.67914 10.808 2.85719V3.37852H8.02547V2.85719C8.02547 1.67914 7.06703 0.720703 5.88898 0.720703C4.71094 0.720703 3.75258 1.67914 3.75258 2.85719V3.37852H2.64594C1.18695 3.37852 0 4.56547 0 6.02445V36.6327C0 38.0917 1.18695 39.2787 2.64594 39.2787H37.3541C38.8131 39.2787 40.0001 38.0917 40.0001 36.6327V6.02445C40 4.56547 38.813 3.37852 37.3541 3.37852ZM33.1463 2.85719C33.1463 2.32531 33.5791 1.89258 34.1109 1.89258C34.6428 1.89258 35.0755 2.32531 35.0755 2.85719V5.07172C35.0755 5.60359 34.6428 6.03633 34.1109 6.03633C33.5791 6.03633 33.1463 5.60359 33.1463 5.07172V2.85719ZM26.0909 2.85719C26.0909 2.32531 26.5236 1.89258 27.0555 1.89258C27.5873 1.89258 28.0201 2.32531 28.0201 2.85719V5.07172C28.0201 5.60359 27.5873 6.03633 27.0555 6.03633C26.5236 6.03633 26.0909 5.60359 26.0909 5.07172V2.85719ZM19.0354 2.85719C19.0354 2.32531 19.4681 1.89258 20 1.89258C20.5319 1.89258 20.9646 2.32531 20.9646 2.85719V5.07172C20.9646 5.60359 20.5319 6.03633 20 6.03633C19.4681 6.03633 19.0354 5.60359 19.0354 5.07172V2.85719ZM11.9799 2.85719C11.9799 2.32531 12.4127 1.89258 12.9445 1.89258C13.4764 1.89258 13.9091 2.32531 13.9091 2.85719V5.07172C13.9091 5.60359 13.4764 6.03633 12.9445 6.03633C12.4127 6.03633 11.9799 5.60359 11.9799 5.07172V2.85719ZM4.92445 2.85719C4.92445 2.32531 5.35719 1.89258 5.88906 1.89258C6.42094 1.89258 6.85367 2.32531 6.85367 2.85719V5.07172C6.85367 5.60359 6.42094 6.03633 5.88906 6.03633C5.35719 6.03633 4.92445 5.60359 4.92445 5.07172V2.85719ZM2.64594 4.55039H3.75266V5.07172C3.75266 6.24977 4.71109 7.2082 5.88914 7.2082C7.06719 7.2082 8.02562 6.24977 8.02562 5.07172V4.55039H10.8081V5.07172C10.8081 6.24977 11.7666 7.2082 12.9446 7.2082C14.1227 7.2082 15.0811 6.24977 15.0811 5.07172V4.55039H17.8636V5.07172C17.8636 6.24977 18.822 7.2082 20.0001 7.2082C21.1781 7.2082 22.1366 6.24977 22.1366 5.07172V4.55039H24.9191V5.07172C24.9191 6.24977 25.8775 7.2082 27.0555 7.2082C28.2336 7.2082 29.192 6.24977 29.192 5.07172V4.55039H31.9745V5.07172C31.9745 6.24977 32.933 7.2082 34.111 7.2082C35.2891 7.2082 36.2475 6.24977 36.2475 5.07172V4.55039H37.3542C38.167 4.55039 38.8283 5.21164 38.8283 6.02445V9.47641H1.17188V6.02445C1.17188 5.21164 1.83312 4.55039 2.64594 4.55039ZM37.3541 38.1068H2.64594C1.83312 38.1068 1.17188 37.4455 1.17188 36.6327V10.6483H3.23375V19.8823C3.23375 20.2059 3.49609 20.4682 3.81969 20.4682C4.14328 20.4682 4.40562 20.2059 4.40562 19.8823V10.6483H35.5945V19.8823C35.5945 20.2059 35.8568 20.4683 36.1804 20.4683C36.504 20.4683 36.7663 20.2059 36.7663 19.8823V10.6483H38.8281V36.6327C38.8281 37.4455 38.1669 38.1068 37.3541 38.1068Z" fill="currentColor"/>
<path d="M21.9153 17.6557H24.5499C25.1749 17.6557 25.6835 17.1472 25.6835 16.5221V13.8875C25.6835 13.2624 25.1749 12.7539 24.5499 12.7539H21.9153C21.2903 12.7539 20.7817 13.2624 20.7817 13.8875V16.522C20.7817 17.1472 21.2903 17.6557 21.9153 17.6557ZM21.9535 13.9258H24.5116V16.4838H21.9535V13.9258Z" fill="currentColor"/>
<path d="M28.8793 17.6557H31.5138C32.1389 17.6557 32.6474 17.1472 32.6474 16.5221V13.8875C32.6474 13.2624 32.1389 12.7539 31.5138 12.7539H28.8793C28.2542 12.7539 27.7456 13.2624 27.7456 13.8875V16.522C27.7456 17.1472 28.2541 17.6557 28.8793 17.6557ZM28.9175 13.9258H31.4755V16.4838H28.9175V13.9258Z" fill="currentColor"/>
<path d="M21.9153 24.4681H24.5499C25.1749 24.4681 25.6835 23.9596 25.6835 23.3345V20.7C25.6835 20.0749 25.1749 19.5664 24.5499 19.5664H21.9153C21.2903 19.5664 20.7817 20.0749 20.7817 20.7V23.3345C20.7817 23.9596 21.2903 24.4681 21.9153 24.4681ZM21.9535 20.7382H24.5116V23.2962H21.9535V20.7382Z" fill="currentColor"/>
<path d="M28.8793 24.4681H31.5138C32.1389 24.4681 32.6474 23.9596 32.6474 23.3345V20.7C32.6474 20.0749 32.1389 19.5664 31.5138 19.5664H28.8793C28.2542 19.5664 27.7456 20.0749 27.7456 20.7V23.3345C27.7456 23.9596 28.2541 24.4681 28.8793 24.4681ZM28.9175 20.7382H31.4755V23.2962H28.9175V20.7382Z" fill="currentColor"/>
<path d="M7.98711 31.2827H10.6216C11.2467 31.2827 11.7552 30.7741 11.7552 30.1491V27.5145C11.7552 26.8895 11.2467 26.3809 10.6216 26.3809H7.98711C7.36203 26.3809 6.85352 26.8894 6.85352 27.5145V30.1491C6.85352 30.7741 7.36203 31.2827 7.98711 31.2827ZM8.02539 27.5528H10.5834V30.1109H8.02539V27.5528Z" fill="currentColor"/>
<path d="M17.586 26.3809H14.9515C14.3264 26.3809 13.8179 26.8894 13.8179 27.5145V30.1491C13.8179 30.7741 14.3264 31.2827 14.9515 31.2827H17.586C18.2111 31.2827 18.7196 30.7741 18.7196 30.1491V27.5145C18.7196 26.8894 18.2111 26.3809 17.586 26.3809ZM17.5477 30.1107H14.9897V27.5527H17.5477V30.1107Z" fill="currentColor"/>
<path d="M21.9153 31.2827H24.5499C25.1749 31.2827 25.6835 30.7741 25.6835 30.1491V27.5145C25.6835 26.8895 25.1749 26.3809 24.5499 26.3809H21.9153C21.2903 26.3809 20.7817 26.8894 20.7817 27.5145V30.1491C20.7817 30.7741 21.2903 31.2827 21.9153 31.2827ZM21.9535 27.5528H24.5116V30.1109H21.9535V27.5528Z" fill="currentColor"/>
<path d="M28.8793 31.2827H31.5138C32.1389 31.2827 32.6474 30.7741 32.6474 30.1491V27.5145C32.6474 26.8895 32.1389 26.3809 31.5138 26.3809H28.8793C28.2542 26.3809 27.7456 26.8894 27.7456 27.5145V30.1491C27.7456 30.7741 28.2541 31.2827 28.8793 31.2827ZM28.9175 27.5528H31.4755V30.1109H28.9175V27.5528Z" fill="currentColor"/>
<path d="M7.49223 18.0691L9.78996 19.9414L9.0316 22.8067C8.93207 23.1829 9.07113 23.5738 9.38598 23.8026C9.70082 24.0313 10.1155 24.0427 10.4427 23.8319L12.9335 22.2252L15.4242 23.8319C15.751 24.0427 16.1658 24.0314 16.4808 23.8026C16.7957 23.5738 16.9348 23.1829 16.8352 22.8066L16.0768 19.9413L18.3746 18.069C18.6763 17.8231 18.7935 17.4251 18.6732 17.055C18.5529 16.6848 18.2242 16.4317 17.8356 16.4102L14.8761 16.2459L13.8054 13.4821C13.6648 13.1192 13.3225 12.8848 12.9333 12.8848C12.5441 12.8848 12.2018 13.1192 12.0612 13.4821L10.9905 16.2459L8.03113 16.4102C7.64254 16.4317 7.31371 16.6848 7.19348 17.055C7.07332 17.4252 7.19059 17.8232 7.49223 18.0691ZM11.2079 17.4077C11.5739 17.3874 11.8958 17.1535 12.0282 16.8118L12.9334 14.4752L13.8386 16.8118C13.971 17.1535 14.2929 17.3874 14.6589 17.4077L17.1607 17.5465L15.2183 19.1294C14.9342 19.3609 14.8112 19.7394 14.905 20.0937L15.5461 22.5159L13.4404 21.1577C13.1325 20.9591 12.7345 20.9591 12.4264 21.1577L10.3207 22.5159L10.9618 20.0936C11.0556 19.7393 10.9326 19.3609 10.6486 19.1293L8.70606 17.5464L11.2079 17.4077Z" fill="currentColor"/>
</svg>
