<svg width="24" height="24" viewBox="-3 -3 30 30" fill="none" xmlns="http://www.w3.org/2000/svg">
<path d="M21.414 8.27609H8.86202C7.95961 8.27609 7.09749 8.45141 6.30755 8.76941C6.25887 7.62408 5.31222 6.70703 4.15499 6.70703C2.96664 6.70703 2 7.67383 2 8.86203C2 9.80929 2.61478 10.6153 3.46606 10.9033C2.54809 12.0705 2 13.5414 2 15.138C2 18.9217 5.0783 22 8.86202 22C12.6457 22 15.724 18.9217 15.724 15.138C15.724 15.0495 15.7222 14.9605 15.7187 14.8714L21.4867 14.1504C21.7799 14.1138 22 13.8645 22 13.569V8.86203C22 8.53839 21.7377 8.27609 21.414 8.27609ZM3.17187 8.86203C3.17187 8.31988 3.61285 7.8789 4.15499 7.8789C4.69699 7.8789 5.13812 8.31988 5.13812 8.86203C5.13812 9.40402 4.69699 9.84499 4.15499 9.84499C3.61285 9.84499 3.17187 9.40402 3.17187 8.86203ZM20.8281 13.0518L15.0172 13.7781C14.6965 13.8182 14.4688 14.1106 14.5085 14.4313C14.5374 14.6658 14.5522 14.9036 14.5522 15.138C14.5522 18.2756 11.9995 20.8281 8.86202 20.8281C5.72451 20.8281 3.17187 18.2756 3.17187 15.138C3.17187 12.0004 5.72451 9.44796 8.86202 9.44796H11.414V10.1172C11.414 10.4408 11.6763 10.7031 12 10.7031C12.3236 10.7031 12.5859 10.4408 12.5859 10.1172V9.44796H20.8281V13.0518Z" fill="currentColor"/>
<path d="M8.86196 11.4141C6.80859 11.4141 5.13806 13.0846 5.13806 15.138C5.13806 17.1915 6.80859 18.862 8.86196 18.862C10.9153 18.862 12.5859 17.1915 12.5859 15.138C12.5859 13.0846 10.9153 11.4141 8.86196 11.4141ZM8.86196 17.6901C7.45465 17.6901 6.30993 16.5453 6.30993 15.138C6.30993 13.7308 7.45465 12.5859 8.86196 12.5859C10.2691 12.5859 11.414 13.7308 11.414 15.138C11.414 16.5453 10.2691 17.6901 8.86196 17.6901Z" fill="currentColor"/>
<path d="M12 4.74093C12.3236 4.74093 12.5859 4.47848 12.5859 4.15499V2.58594C12.5859 2.2623 12.3236 2 12 2C11.6764 2 11.4141 2.2623 11.4141 2.58594V4.15499C11.4141 4.47848 11.6764 4.74093 12 4.74093Z" fill="currentColor"/>
<path d="M7.63067 5.44699L8.98946 6.23144C9.08178 6.28469 9.18249 6.31002 9.28182 6.31002C9.48446 6.31002 9.6813 6.20489 9.78994 6.0169C9.95168 5.73675 9.8557 5.37832 9.5754 5.21658L8.21661 4.43213C7.93646 4.27023 7.57803 4.36621 7.41629 4.64651C7.25439 4.92682 7.35052 5.28509 7.63067 5.44699Z" fill="currentColor"/>
<path d="M14.7181 6.31004C14.8176 6.31004 14.9183 6.28471 15.0105 6.23145L16.3694 5.447C16.6497 5.2851 16.7457 4.92683 16.584 4.64653C16.4222 4.36637 16.0638 4.27024 15.7835 4.43199L14.4247 5.21659C14.1444 5.37834 14.0484 5.73661 14.2102 6.01691C14.3186 6.2049 14.5156 6.31004 14.7181 6.31004Z" fill="currentColor"/>
</svg>
