<svg width="40" height="40" viewBox="0 0 40 40" fill="none" xmlns="http://www.w3.org/2000/svg">
<path fill-rule="evenodd" clip-rule="evenodd" d="M30.1043 38.5423H26.816V33.3157C26.816 32.5102 26.1631 31.8573 25.3576 31.8573H21.911C21.1056 31.8573 20.4526 32.5102 20.4526 33.3157V38.5423H17.1647V35.2307C17.1647 34.4252 16.5118 33.7723 15.7064 33.7723H12.2597C11.4543 33.7723 10.8014 34.4252 10.8014 35.2307V38.5423H1.06348C0.718477 38.5423 0.438477 38.8223 0.438477 39.1673C0.438477 39.5123 0.718477 39.7923 1.06348 39.7923H38.9368C39.2818 39.7923 39.5618 39.5123 39.5618 39.1673C39.5618 38.8223 39.2818 38.5423 38.9368 38.5423H36.4676V30.7665C36.4676 29.9611 35.8147 29.3082 35.0093 29.3082H31.5626C30.7572 29.3082 30.1043 29.9611 30.1043 30.7665V38.5423ZM15.9147 38.5423V35.2307C15.9147 35.1157 15.8214 35.0223 15.7064 35.0223H12.2597C12.1447 35.0223 12.0514 35.1157 12.0514 35.2307V38.5423H15.9147ZM25.566 38.5423V33.3157C25.566 33.2007 25.4726 33.1073 25.3576 33.1073H21.911C21.796 33.1073 21.7026 33.2007 21.7026 33.3157V38.5423H25.566ZM35.2176 38.5423V30.7665C35.2176 30.6515 35.1243 30.5582 35.0093 30.5582H31.5626C31.4476 30.5582 31.3543 30.6515 31.3543 30.7665V38.5423H35.2176ZM33.7206 24.0382L27.6768 26.2057C27.1881 25.2657 26.2051 24.6227 25.0731 24.6227C23.4568 24.6227 22.1443 25.9327 22.1401 27.5482L16.7468 28.2369C16.3422 27.1007 15.2568 26.2869 13.9831 26.2869C12.3643 26.2869 11.0501 27.6011 11.0501 29.2198C11.0501 29.5636 11.1093 29.8936 11.2185 30.2002L7.14056 32.7319C6.60681 32.1765 5.85639 31.8307 5.02598 31.8307C3.40723 31.8307 2.09306 33.1448 2.09306 34.7636C2.09306 36.3819 3.40723 37.6961 5.02598 37.6961C6.64473 37.6961 7.95889 36.3819 7.95889 34.7636C7.95889 34.4248 7.90139 34.0994 7.79556 33.7965L11.8785 31.2615C12.4118 31.8111 13.1576 32.1523 13.9831 32.1523C15.5151 32.1523 16.7743 30.9752 16.9047 29.4769L22.4051 28.7744C22.8681 29.7852 23.8889 30.4882 25.0731 30.4882C26.6918 30.4882 28.006 29.174 28.006 27.5557C28.006 27.509 28.0047 27.4627 28.0026 27.4169L34.1431 25.2148C34.6618 26.0419 35.5818 26.5919 36.6293 26.5919C38.2476 26.5919 39.5618 25.2777 39.5618 23.659C39.5618 22.0407 38.2476 20.7265 36.6293 20.7265C35.0106 20.7265 33.6964 22.0407 33.6964 23.659C33.6964 23.7877 33.7047 23.9144 33.7206 24.0382ZM5.02598 33.0807C5.95473 33.0807 6.70889 33.8344 6.70889 34.7636C6.70889 35.6923 5.95473 36.4461 5.02598 36.4461C4.09723 36.4461 3.34306 35.6923 3.34306 34.7636C3.34306 33.8344 4.09723 33.0807 5.02598 33.0807ZM12.5547 30.1094L12.5518 30.1048C12.3922 29.8477 12.3001 29.5444 12.3001 29.2198C12.3001 28.2911 13.0543 27.5369 13.9831 27.5369C14.9118 27.5369 15.666 28.2911 15.666 29.2198C15.666 30.1486 14.9118 30.9023 13.9831 30.9023C13.381 30.9023 12.8522 30.5857 12.5547 30.1094ZM25.0731 25.8727C26.0018 25.8727 26.756 26.6269 26.756 27.5557C26.756 28.4844 26.0018 29.2382 25.0731 29.2382C24.1443 29.2382 23.3901 28.4844 23.3901 27.5557C23.3901 26.6269 24.1443 25.8727 25.0731 25.8727ZM36.6293 21.9765C37.5581 21.9765 38.3118 22.7302 38.3118 23.659C38.3118 24.5877 37.5581 25.3419 36.6293 25.3419C35.7006 25.3419 34.9464 24.5877 34.9464 23.659C34.9464 22.7302 35.7006 21.9765 36.6293 21.9765ZM19.2056 16.1523C19.1993 16.1527 19.1931 16.1536 19.1868 16.1544C15.8289 16.5569 13.2226 19.4182 13.2226 22.8832C13.2226 23.2282 13.5031 23.5082 13.8476 23.5082C14.1926 23.5082 14.4726 23.2282 14.4726 22.8832C14.4726 20.359 16.1689 18.2277 18.4822 17.5673L18.0831 19.6627C18.0047 20.0748 18.1072 20.5007 18.3647 20.8315L18.8493 21.454C19.1256 21.809 19.5501 22.0165 20.0001 22.0165C20.4501 22.0165 20.8747 21.809 21.151 21.454L21.6356 20.8315C21.8931 20.5007 21.9956 20.0748 21.9172 19.6627L21.5181 17.5673C23.8314 18.2277 25.5276 20.359 25.5276 22.8832C25.5276 23.2282 25.8076 23.5082 26.1526 23.5082C26.4972 23.5082 26.7776 23.2282 26.7776 22.8832C26.7776 19.4182 24.1714 16.5569 20.8135 16.1544C20.8072 16.1536 20.801 16.1527 20.7947 16.1523C20.5335 16.1219 20.2689 16.1061 20.0001 16.1061C19.7314 16.1061 19.4668 16.1219 19.2056 16.1523ZM20.206 17.3598C20.1376 17.3573 20.0689 17.3561 20.0001 17.3561C19.9314 17.3561 19.8626 17.3573 19.7943 17.3598L19.311 19.8969C19.2997 19.9557 19.3143 20.0165 19.3514 20.0636L19.8356 20.6861C19.8751 20.7369 19.936 20.7665 20.0001 20.7665C20.0643 20.7665 20.1251 20.7369 20.1647 20.6861L20.6489 20.0636C20.686 20.0165 20.7006 19.9557 20.6893 19.8969L20.206 17.3598ZM31.9901 11.0832C31.9839 11.0836 31.9776 11.0844 31.9714 11.0852C28.6135 11.4877 26.0072 14.349 26.0072 17.814C26.0072 18.159 26.2872 18.439 26.6322 18.439C26.9772 18.439 27.2572 18.159 27.2572 17.814C27.2572 15.2898 28.9531 13.1582 31.2668 12.4982L30.8676 14.5936C30.7893 15.0052 30.8918 15.4311 31.1493 15.7623L31.6339 16.3844C31.9101 16.7398 32.3347 16.9473 32.7847 16.9473C33.2343 16.9473 33.6593 16.7398 33.9356 16.3844L34.4201 15.7623C34.6776 15.4311 34.7801 15.0052 34.7018 14.5936L34.3022 12.4982C36.616 13.1582 38.3118 15.2898 38.3118 17.814C38.3118 18.159 38.5918 18.439 38.9368 18.439C39.2818 18.439 39.5618 18.159 39.5618 17.814C39.5618 14.349 36.9556 11.4877 33.5981 11.0852C33.5918 11.0844 33.5856 11.0836 33.5793 11.0832C33.3181 11.0523 33.0531 11.0369 32.7847 11.0369C32.516 11.0369 32.251 11.0523 31.9901 11.0832ZM6.42098 11.0832C6.41473 11.0836 6.40848 11.0844 6.40223 11.0852C3.04473 11.4877 0.438477 14.349 0.438477 17.814C0.438477 18.159 0.718477 18.439 1.06348 18.439C1.40848 18.439 1.68848 18.159 1.68848 17.814C1.68848 15.2898 3.38431 13.1582 5.69806 12.4982L5.29848 14.5936C5.22014 15.0052 5.32264 15.4311 5.58014 15.7623L6.06473 16.3844C6.34098 16.7398 6.76598 16.9473 7.21556 16.9473C7.66556 16.9473 8.09014 16.7398 8.36639 16.3844L8.85098 15.7623C9.10848 15.4311 9.21098 15.0052 9.13264 14.5936L8.73348 12.4982C11.0472 13.1582 12.7431 15.2898 12.7431 17.814C12.7431 18.159 13.0231 18.439 13.3681 18.439C13.7131 18.439 13.9931 18.159 13.9931 17.814C13.9931 14.349 11.3868 11.4877 8.02889 11.0852C8.02264 11.0844 8.01639 11.0836 8.01014 11.0832C7.74931 11.0523 7.48431 11.0369 7.21556 11.0369C6.94723 11.0369 6.68223 11.0523 6.42098 11.0832ZM7.42139 12.2907C7.35306 12.2882 7.28473 12.2869 7.21556 12.2869C7.14681 12.2869 7.07806 12.2882 7.00973 12.2907L6.52639 14.8273C6.51514 14.8865 6.53014 14.9473 6.56681 14.9944L7.05139 15.6169C7.09056 15.6677 7.15139 15.6973 7.21556 15.6973C7.27973 15.6973 7.34056 15.6677 7.38014 15.6169L7.86431 14.9944C7.90139 14.9473 7.91598 14.8865 7.90473 14.8273L7.42139 12.2907ZM32.9906 12.2907C32.9222 12.2882 32.8535 12.2869 32.7847 12.2869C32.7156 12.2869 32.6472 12.2882 32.5789 12.2907L32.0956 14.8273C32.0843 14.8865 32.0989 14.9473 32.136 14.9944L32.6201 15.6169C32.6597 15.6677 32.7206 15.6973 32.7847 15.6973C32.8489 15.6973 32.9097 15.6677 32.9489 15.6169L33.4335 14.9944C33.4701 14.9473 33.4851 14.8865 33.4739 14.8273L32.9906 12.2907ZM19.6347 5.27815C17.0547 5.27815 14.9601 7.37273 14.9601 9.95273C14.9601 12.5327 17.0547 14.6269 19.6347 14.6269C22.2147 14.6269 24.3093 12.5327 24.3093 9.95273C24.3093 7.37273 22.2147 5.27815 19.6347 5.27815ZM19.6347 6.52815C21.5247 6.52815 23.0593 8.06273 23.0593 9.95273C23.0593 11.8427 21.5247 13.3769 19.6347 13.3769C17.7447 13.3769 16.2101 11.8427 16.2101 9.95273C16.2101 8.06273 17.7447 6.52815 19.6347 6.52815ZM32.4193 0.208984C29.8393 0.208984 27.7447 2.30357 27.7447 4.88357C27.7447 7.46315 29.8393 9.55773 32.4193 9.55773C34.9993 9.55773 37.0935 7.46315 37.0935 4.88357C37.0935 2.30357 34.9993 0.208984 32.4193 0.208984ZM6.85014 0.208984C4.27056 0.208984 2.17598 2.30357 2.17598 4.88357C2.17598 7.46315 4.27056 9.55773 6.85014 9.55773C9.43014 9.55773 11.5247 7.46315 11.5247 4.88357C11.5247 2.30357 9.43014 0.208984 6.85014 0.208984ZM32.4193 1.45898C34.3093 1.45898 35.8435 2.99357 35.8435 4.88357C35.8435 6.77357 34.3093 8.30773 32.4193 8.30773C30.5293 8.30773 28.9947 6.77357 28.9947 4.88357C28.9947 2.99357 30.5293 1.45898 32.4193 1.45898ZM6.85014 1.45898C8.74014 1.45898 10.2747 2.99357 10.2747 4.88357C10.2747 6.77357 8.74014 8.30773 6.85014 8.30773C4.96014 8.30773 3.42598 6.77357 3.42598 4.88357C3.42598 2.99357 4.96014 1.45898 6.85014 1.45898Z" fill="currentColor"/>
</svg>