<svg width="40" height="40" viewBox="0 0 40 40" fill="none" xmlns="http://www.w3.org/2000/svg">
<path d="M34.491 4.00717C31.3168 2.5467 27.1951 4.69287 25.3028 8.79107C24.2311 11.1119 24.0546 13.6304 24.8188 15.7011C25.3656 17.1826 26.3368 18.2796 27.628 18.8736C28.2947 19.1788 29.0198 19.3352 29.753 19.3319C32.4561 19.3319 35.3267 17.3155 36.8162 14.0897C37.8878 11.7689 38.0642 9.25021 37.3001 7.17967C36.7535 5.6985 35.7822 4.60147 34.491 4.00717ZM34.5119 5.07889C35.1684 5.4854 35.7062 6.05788 36.0708 6.73857L35.9253 7.05342L34.0078 6.17123L34.5119 5.07889ZM27.8874 12.1537L28.6113 10.5858L30.529 11.4682L29.8051 13.036L27.8874 12.1537ZM29.4121 13.8872L28.6882 15.4549L26.7704 14.5726L27.4943 13.0048L29.4121 13.8872ZM29.0042 9.73475L29.7282 8.16693L31.646 9.04928L30.9219 10.6174L29.0042 9.73475ZM31.3807 11.8597L33.2985 12.7421L32.5746 14.3099L30.6568 13.4276L31.3807 11.8597ZM31.7738 11.0082L32.4977 9.44045L34.4155 10.3228L33.6915 11.8906L31.7738 11.0082ZM32.8906 8.59029L33.6145 7.02279L35.5324 7.90514L34.8085 9.47287L32.8906 8.59029ZM31.3828 4.58342C31.7004 4.51737 32.0238 4.4835 32.3482 4.48232C32.7936 4.48103 33.2363 4.55033 33.6599 4.68764L33.1563 5.77959L31.2381 4.89717L31.3828 4.58342ZM30.8449 5.74834L32.7628 6.63068L32.0391 8.1985L30.1212 7.31615L30.8449 5.74834ZM29.6953 5.21928L29.9935 5.35647L29.2696 6.92428L28.119 6.3949C28.5913 5.93644 29.1212 5.54126 29.6953 5.21928ZM27.449 7.11865L28.8765 7.77545L28.1526 9.34311L26.4666 8.5674C26.748 8.05483 27.0769 7.56979 27.449 7.11865ZM26.0536 9.40943L27.7595 10.1947L27.0356 11.7625L25.5097 11.0604C25.6407 10.4947 25.8227 9.94215 26.0536 9.40943ZM25.3458 13.9172C25.268 13.2857 25.2672 12.6471 25.3435 12.0154L26.6427 12.6131L25.9188 14.1809L25.3458 13.9172ZM27.6051 17.8008C26.9487 17.3938 26.4113 16.8209 26.0469 16.14L26.3775 15.424L28.2953 16.3064L27.6051 17.8008ZM30.7327 18.2994C29.9777 18.4628 29.1931 18.426 28.4567 18.1927L29.1469 16.6981L31.0646 17.5804L30.7327 18.2994ZM31.4577 16.7291L29.5399 15.8471L30.2638 14.2793L32.1816 15.1616L31.4577 16.7291ZM32.8817 17.3844L32.3093 17.121L33.0332 15.5532L34.3308 16.1501C33.8986 16.6179 33.4122 17.0323 32.8817 17.3847V17.3844ZM34.952 15.4042L33.4263 14.7025L34.1502 13.1347L35.8581 13.9204C35.6021 14.4417 35.2989 14.9385 34.9524 15.4045L34.952 15.4042ZM36.2319 13.0605L34.5428 12.2833L35.2667 10.7154L36.6999 11.3749C36.5969 11.9502 36.4404 12.5145 36.2323 13.0606L36.2319 13.0605ZM36.8166 10.3964L35.6597 9.86412L36.3836 8.29639L36.6846 8.43482C36.8149 9.08014 36.8594 9.73982 36.817 10.3968L36.8166 10.3964Z" fill="currentColor"/>
<path d="M35.3821 2.07848C31.3171 0.208326 26.071 2.88637 23.6877 8.04848C22.3523 10.9407 22.1386 14.0962 23.1017 16.7058C23.5968 18.0475 24.3651 19.1443 25.3575 19.9461L23.4951 23.9797L23.2929 23.9365C23.073 23.8894 22.8495 23.8602 22.6249 23.8491L22.2832 23.354C22.0064 22.9535 21.8877 22.4647 21.9501 21.9818C22.0422 21.2695 21.8672 20.5483 21.4589 19.9575L11.1528 5.02434C10.7002 4.37105 10.0073 3.92362 9.22566 3.77991C8.44401 3.63621 7.63726 3.80795 6.9819 4.25754C6.65759 4.48033 6.38041 4.76489 6.16621 5.09493C5.95201 5.42497 5.80501 5.79402 5.73362 6.18095C5.66223 6.56787 5.66785 6.96508 5.75016 7.34983C5.83247 7.73458 5.98986 8.09932 6.21331 8.42317L12.2402 17.156C10.5472 16.8451 8.80258 16.9764 7.1752 17.5373C5.54782 18.0981 4.09276 19.0696 2.9508 20.3575C1.80885 21.6455 1.01866 23.2064 0.656707 24.8893C0.29475 26.5721 0.373278 28.3199 0.88469 29.9635C1.3961 31.607 2.32309 33.0908 3.57594 34.2712C4.8288 35.4516 6.36512 36.2886 8.03624 36.7012C9.70736 37.1139 11.4567 37.0883 13.115 36.6268C14.7733 36.1653 16.2844 35.2836 17.5021 34.067C17.5736 33.9957 17.6434 33.9232 17.7123 33.8502C17.4911 34.4806 17.4544 35.161 17.6065 35.8116C17.7586 36.4621 18.0932 37.0557 18.571 37.5227C19.0487 37.9896 19.6499 38.3106 20.3037 38.4477C20.9576 38.5849 21.637 38.5326 22.2621 38.297C22.8873 38.0614 23.4323 37.6523 23.833 37.1178C24.2337 36.5832 24.4735 35.9454 24.5243 35.2792C24.5751 34.6131 24.4347 33.9463 24.1197 33.3571C23.8046 32.768 23.328 32.281 22.7457 31.9534L23.5029 32.1097L24.3473 32.567L26.4507 35.615L26.3891 35.6572C26.273 35.7371 26.1737 35.839 26.097 35.9573C26.0203 36.0755 25.9677 36.2077 25.9422 36.3463C25.9166 36.4849 25.9186 36.6272 25.9481 36.765C25.9776 36.9028 26.034 37.0334 26.114 37.1494C26.444 37.6261 26.9494 37.9526 27.5196 38.0575C28.0898 38.1624 28.6783 38.0371 29.1564 37.7091L30.3892 36.8614C30.6472 36.6837 30.864 36.4527 31.025 36.184L31.5485 36.4675C32.0811 36.7568 32.7047 36.8299 33.2898 36.6715L35.3269 36.1233C35.4492 36.0905 35.5617 36.0286 35.655 35.9429C35.7482 35.8573 35.8194 35.7504 35.8624 35.6313C35.9055 35.5123 35.9192 35.3846 35.9023 35.2591C35.8855 35.1336 35.8385 35.0141 35.7656 34.9106L34.2189 32.7179L37.1123 31.4953C37.1156 31.494 37.1188 31.4925 37.122 31.4911C37.2405 31.4379 37.344 31.3562 37.4232 31.2533C37.5025 31.1504 37.555 31.0294 37.576 30.9012C37.5971 30.7731 37.5861 30.6417 37.544 30.5188C37.5019 30.3959 37.43 30.2854 37.3347 30.1971L35.2703 28.1806L37.5364 26.7364C37.6439 26.6678 37.7332 26.5742 37.7966 26.4634C37.8599 26.3527 37.8953 26.2282 37.8997 26.1007C37.9042 25.9732 37.8776 25.8465 37.8221 25.7316C37.7667 25.6167 37.6842 25.517 37.5817 25.4411L35.9116 24.2045C35.4569 23.8674 34.8962 23.7049 34.3317 23.7467L26.9332 24.2244L28.2874 21.2915C28.6873 21.3639 29.0929 21.4001 29.4992 21.3997C32.9374 21.3997 36.5646 18.8794 38.4327 14.8336C39.7682 11.9415 39.9817 8.7859 39.0186 6.17629C38.3127 4.26536 37.0557 2.84856 35.3821 2.07848ZM22.6657 24.7916L21.3892 30.7424C20.9617 30.6955 20.3484 30.5783 19.9534 30.0802C20.2758 29.0822 20.4394 28.0398 20.4383 26.9911C20.4381 26.6277 20.4185 26.2646 20.3795 25.9034C20.6231 25.1686 21.5995 24.7107 22.6657 24.7916ZM20.5539 31.533C20.001 31.6075 19.4741 31.8134 19.0172 32.1336C19.2299 31.7811 19.4204 31.4155 19.5875 31.0392C19.8736 31.2665 20.2022 31.4343 20.5539 31.533ZM11.9103 18.0496C12.4863 18.1447 13.0518 18.2949 13.599 18.4982C13.6992 18.5359 13.8093 18.5381 13.911 18.5046C14.0126 18.4711 14.0997 18.4037 14.1578 18.3138V18.3132C14.1957 18.2545 14.2199 18.188 14.2287 18.1186C14.2375 18.0493 14.2307 17.9789 14.2088 17.9125C14.1869 17.8461 14.1504 17.7855 14.102 17.735C14.0536 17.6846 13.9946 17.6456 13.9292 17.6209C13.8287 17.5835 13.7276 17.5483 13.6262 17.5143L6.98495 7.89036C6.83149 7.66795 6.72341 7.41745 6.66689 7.15321C6.61038 6.88897 6.60654 6.61618 6.65559 6.35045C6.70465 6.08473 6.80564 5.83129 6.95278 5.60465C7.09992 5.378 7.29032 5.18261 7.51307 5.02965C7.96373 4.72054 8.51847 4.60247 9.05595 4.70126C9.59343 4.80006 10.0699 5.10768 10.3812 5.55684L20.6867 20.49C20.9635 20.8905 21.0822 21.3794 21.0197 21.8622C20.9277 22.5745 21.1027 23.2956 21.511 23.8865L21.549 23.9411C21.036 24.0516 20.5581 24.2869 20.1578 24.6262C19.7251 22.8404 18.8059 21.2095 17.5021 19.9147C17.3079 19.7207 17.1076 19.5365 16.9014 19.3622C16.8547 19.3204 16.8 19.2885 16.7407 19.2682C16.6814 19.2479 16.6187 19.2398 16.5562 19.2442C16.4936 19.2486 16.4326 19.2655 16.3768 19.2939C16.3209 19.3223 16.2713 19.3617 16.2309 19.4096C16.1905 19.4575 16.1601 19.513 16.1415 19.5728C16.123 19.6327 16.1166 19.6957 16.1227 19.758C16.1289 19.8204 16.1476 19.8809 16.1775 19.9359C16.2075 19.991 16.2482 20.0394 16.2972 20.0785C16.365 20.1361 16.4314 20.1957 16.4979 20.256L13.3736 23.3747C12.7444 22.6546 12.286 21.8017 12.0327 20.8796C11.7793 19.9575 11.7375 18.9901 11.9103 18.0496ZM19.3782 25.4961C18.4355 25.6699 17.4658 25.629 16.5411 25.3764C15.6165 25.1238 14.7606 24.6661 14.0372 24.0372L17.1622 20.9175C18.3267 22.1983 19.0962 23.7883 19.3782 25.4961ZM10.4142 17.9261C10.6021 17.9261 10.7898 17.932 10.9774 17.9438C10.7877 19.0245 10.8449 20.1341 11.1447 21.1896C11.4445 22.2451 11.979 23.2191 12.7084 24.0388L10.4142 26.3287L4.32987 20.2553C5.9995 18.7521 8.16764 17.9221 10.4142 17.9261ZM1.32831 26.9911C1.32223 24.7456 2.15635 22.5791 3.66667 20.9175L9.75104 26.9911L7.46979 29.2682C6.64048 28.545 5.66083 28.0151 4.60168 27.7168C3.54253 27.4185 2.43033 27.3593 1.34549 27.5435C1.33448 27.3603 1.32831 27.1761 1.32831 26.9911ZM1.44932 28.4754C2.39405 28.2989 3.36646 28.3382 4.29386 28.5904C5.22126 28.8426 6.07965 29.3012 6.80487 29.9318L3.66651 33.0647C2.49977 31.7812 1.72969 30.1874 1.44932 28.4757V28.4754ZM8.92909 35.9344C7.21597 35.6552 5.61944 34.8887 4.33018 33.7266L7.46862 30.5938C8.09976 31.3158 8.55907 32.1715 8.81202 33.0966C9.06497 34.0216 9.105 34.9919 8.92909 35.9347V35.9344ZM9.8612 36.0384C10.0445 34.9559 9.98448 33.8461 9.68555 32.7897C9.38663 31.7333 8.85629 30.7566 8.133 29.9306L10.4142 27.6534L16.4986 33.7268C15.6014 34.534 14.5524 35.1542 13.4127 35.5511C12.273 35.9481 11.0657 36.1139 9.8612 36.0388V36.0384ZM17.1625 33.0643L11.0783 26.9911L13.3732 24.7003C14.7081 25.8845 16.4306 26.5386 18.2151 26.5388C18.6401 26.5384 19.0643 26.5016 19.4831 26.4288C19.4944 26.6153 19.5008 26.8027 19.5008 26.9913C19.5068 29.2366 18.6727 31.403 17.1625 33.0645V33.0643ZM23.597 35.0105C23.597 35.5193 23.4461 36.0167 23.1634 36.4397C22.8807 36.8628 22.4789 37.1925 22.0088 37.3872C21.5388 37.5819 21.0215 37.6328 20.5225 37.5336C20.0235 37.4343 19.5651 37.1893 19.2053 36.8295C18.8455 36.4697 18.6005 36.0114 18.5013 35.5123C18.402 35.0133 18.4529 34.4961 18.6476 34.026C18.8423 33.5559 19.1721 33.1541 19.5951 32.8714C20.0182 32.5888 20.5155 32.4379 21.0243 32.4379C21.7064 32.4386 22.3604 32.7099 22.8427 33.1923C23.325 33.6746 23.5963 34.3286 23.597 35.0107V35.0105ZM23.3067 31.1091L22.3149 30.8972L23.5883 24.9587L24.5801 25.1707L23.3067 31.1091ZM26.1664 33.5523L28.0033 34.5473L27.2232 35.0837L26.1664 33.5523ZM29.858 36.089L28.6252 36.9366C28.3519 37.1241 28.0154 37.1957 27.6895 37.1358C27.3635 37.0759 27.0745 36.8894 26.8857 36.617C26.8756 36.6024 26.8684 36.586 26.8647 36.5687C26.861 36.5514 26.8607 36.5335 26.8639 36.516C26.8672 36.4986 26.8738 36.482 26.8835 36.4671C26.8932 36.4523 26.9057 36.4395 26.9203 36.4295L28.9289 35.0484L30.1987 35.7359C30.1096 35.8748 29.9938 35.9947 29.858 36.0886V36.089ZM34.8746 35.2743L33.046 35.7665C32.6929 35.8622 32.3164 35.8181 31.9949 35.6432L24.1987 31.4205L24.5503 29.7799L32.9105 32.8111C33.1083 32.8825 33.2794 33.013 33.4003 33.185L34.8746 35.2743ZM36.5309 30.7233L33.4487 32.0255L24.749 28.8546L24.95 27.9171L34.0643 28.5811C34.1501 28.5809 34.2358 28.5751 34.3208 28.5636L36.5309 30.7233ZM34.3964 24.6822C34.7382 24.6562 35.0779 24.7542 35.3532 24.9583L36.8466 26.0641L34.6207 27.4829C34.4333 27.6018 34.2126 27.6575 33.9912 27.6415L25.1486 26.9919L25.5212 25.2548L34.3964 24.6822ZM25.8682 24.2932L25.1716 24.3382L24.4344 24.1806L26.1385 20.4899C26.3326 20.6046 26.5324 20.7094 26.7372 20.8036C26.9418 20.8976 27.1511 20.9808 27.3643 21.0529L25.8682 24.2932ZM37.5808 14.4407C35.4137 19.134 30.7253 21.6064 27.1291 19.9519C25.6864 19.2879 24.5978 18.0535 23.9807 16.3816C23.1032 14.0036 23.3064 11.1097 24.5384 8.44169C26.2489 4.73723 29.5302 2.41645 32.6053 2.41645C33.4281 2.41268 34.2419 2.58807 34.99 2.93044C36.4327 3.5945 37.5213 4.82887 38.1385 6.50075C39.0158 8.87872 38.8127 11.7727 37.5808 14.4407Z" fill="currentColor"/>
<path d="M8.45492 6.66323L8.36563 6.52917C8.33195 6.47695 8.28824 6.43195 8.23702 6.39678C8.1858 6.36161 8.12809 6.33697 8.06727 6.3243C8.00644 6.31163 7.9437 6.31118 7.8827 6.32298C7.8217 6.33477 7.76365 6.35858 7.71193 6.39301C7.6602 6.42744 7.61585 6.4718 7.58143 6.52353C7.54701 6.57526 7.52321 6.63332 7.51143 6.69432C7.49965 6.75533 7.50012 6.81807 7.5128 6.87889C7.52548 6.93971 7.55013 6.99741 7.58531 7.04862L7.67453 7.18269C7.70838 7.2345 7.75216 7.27911 7.80335 7.31392C7.85453 7.34873 7.91209 7.37305 7.97273 7.3855C8.03336 7.39794 8.09586 7.39825 8.15661 7.38642C8.21737 7.37458 8.27517 7.35083 8.3267 7.31653C8.37823 7.28223 8.42245 7.23807 8.45682 7.18659C8.49118 7.13511 8.51502 7.07734 8.52694 7.0166C8.53886 6.95586 8.53863 6.89336 8.52627 6.83271C8.51391 6.77206 8.48966 6.71446 8.45492 6.66323Z" fill="currentColor"/>
<path d="M9.24668 7.85314C9.17715 7.75116 9.07021 7.68071 8.94906 7.6571C8.82791 7.63348 8.70234 7.65861 8.5996 7.72701C8.49685 7.79541 8.42524 7.90158 8.4003 8.02246C8.37535 8.14334 8.3991 8.26919 8.46637 8.37267L11.8075 13.3917C11.8411 13.444 11.8849 13.489 11.9361 13.5241C11.9873 13.5593 12.045 13.5839 12.1058 13.5966C12.1666 13.6093 12.2294 13.6097 12.2904 13.5979C12.3514 13.5861 12.4094 13.5623 12.4612 13.5279C12.5129 13.4935 12.5572 13.4491 12.5917 13.3974C12.6261 13.3456 12.6499 13.2876 12.6617 13.2266C12.6734 13.1656 12.673 13.1028 12.6603 13.042C12.6476 12.9812 12.623 12.9235 12.5878 12.8723L9.24668 7.85314Z" fill="currentColor"/>
</svg>
