<svg width="24" height="24" viewBox="0 0 24 24" fill="none" xmlns="http://www.w3.org/2000/svg">
<path d="M18.4952 4.23599C17.588 3.33035 16.1188 3.33035 15.2116 4.23599L14.3896 5.06245L5.63993 13.8075L5.62134 13.8262C5.61683 13.8307 5.61683 13.8355 5.61204 13.8355C5.60274 13.8495 5.5888 13.8633 5.57964 13.8772C5.57964 13.8819 5.57485 13.8819 5.57485 13.8865C5.56555 13.9005 5.56105 13.9098 5.55161 13.9237C5.5471 13.9284 5.5471 13.9329 5.54245 13.9377C5.53781 13.9516 5.53316 13.9609 5.52836 13.9748C5.52836 13.9794 5.52386 13.9794 5.52386 13.9841L3.58257 19.8218C3.52562 19.988 3.56891 20.1721 3.69399 20.2954C3.78188 20.3821 3.90043 20.4307 4.02376 20.4302C4.07417 20.4294 4.12415 20.4215 4.17238 20.407L10.0056 18.461C10.0101 18.461 10.0101 18.461 10.0149 18.4565C10.0295 18.4522 10.0436 18.4459 10.0565 18.4378C10.0602 18.4374 10.0634 18.4358 10.066 18.4333C10.0798 18.424 10.0984 18.4146 10.1123 18.4053C10.1261 18.3961 10.1402 18.3822 10.1542 18.3729C10.1588 18.3681 10.1633 18.3681 10.1633 18.3636C10.1681 18.3589 10.1774 18.3544 10.1821 18.345L19.7537 8.77332C20.6593 7.86609 20.6593 6.39694 19.7537 5.48985L18.4952 4.23599ZM9.85694 17.3696L6.6246 14.1374L14.7147 6.04726L17.9471 9.27946L9.85694 17.3696ZM6.16931 14.9966L8.99314 17.8202L4.75289 19.232L6.16931 14.9966ZM19.099 8.12308L18.6066 8.62006L15.3741 5.38757L15.8713 4.89074C16.415 4.34741 17.2964 4.34741 17.8403 4.89074L19.1035 6.15389C19.6432 6.70012 19.6411 7.57946 19.099 8.12308Z" fill="currentColor"/>
</svg>