<svg width="24" height="24" viewBox="-3 -3 30 30" fill="none" xmlns="http://www.w3.org/2000/svg">
<path d="M19.4989 18.6365L18.9984 17.8007C18.0982 16.3165 16.8559 14.6131 15.2264 14.6131C14.9245 14.6131 14.6255 14.6738 14.3296 14.7968L13.4549 15.1719C13.3751 15.205 13.2974 15.2426 13.2153 15.2826C12.9914 15.3915 12.7376 15.5148 12.4765 15.5148C11.8325 15.5148 11.0862 14.6766 10.3756 13.1548C9.67816 11.6611 9.72265 10.8781 9.88274 10.4841C10.0594 10.0494 10.4702 9.86351 10.9115 9.69649C10.9729 9.67322 11.0283 9.65211 11.0822 9.62992L11.9679 9.25701C14.2752 8.29212 13.4168 4.92017 13.1354 3.81467L12.8967 2.86417C12.6927 2.0808 12.1517 0 10.3572 0C10.025 0 9.67058 0.0773953 9.30417 0.230129C9.06376 0.325601 5.75535 1.67607 4.55676 4.04858C3.12424 6.87259 3.38912 10.6595 5.34326 15.3019C7.2828 19.95 9.79788 22.7931 12.8187 23.7519C13.3368 23.9165 13.9224 23.9999 14.5594 23.9999C14.5594 23.9999 14.5596 23.9999 14.5597 23.9999C16.6444 23.9999 18.7022 23.1129 18.8692 23.0393C19.588 22.7348 20.0526 22.2721 20.25 21.6639C20.5847 20.6324 20.0233 19.5023 19.4989 18.6365ZM18.7055 21.1627C18.6596 21.304 18.5 21.4331 18.2316 21.5461C18.2271 21.548 18.2217 21.5503 18.2172 21.5524C18.1986 21.5606 16.3359 22.3764 14.5593 22.3763C14.0893 22.3763 13.6689 22.3185 13.31 22.2044C10.765 21.3966 8.58889 18.864 6.84062 14.6744C5.07936 10.4899 4.79793 7.16204 6.00529 4.78194C6.9428 2.9263 9.87787 1.74913 9.90666 1.73788C9.91251 1.73549 9.91824 1.73322 9.92398 1.73084C10.0911 1.6607 10.2409 1.62368 10.3572 1.62368C10.7149 1.62368 11.0405 2.17854 11.3235 3.26608L11.5611 4.21258C12.0737 6.22593 11.9957 7.48526 11.3394 7.75977L10.458 8.13105C10.4229 8.14555 10.3819 8.16082 10.3366 8.17803C9.84973 8.36237 8.83655 8.74577 8.37835 9.87282C7.96258 10.8955 8.13469 12.1938 8.90399 13.842C9.94011 16.0602 11.1086 17.1386 12.4763 17.1386C13.111 17.1386 13.6206 16.8909 13.9249 16.743C13.981 16.7158 14.0311 16.6908 14.085 16.6685L14.961 16.2928C15.0513 16.2552 15.1381 16.2369 15.2263 16.2369C15.6479 16.2369 16.4039 16.6544 17.6078 18.6389L18.108 19.4742C18.7244 20.492 18.7731 20.9542 18.7055 21.1627Z" fill="currentColor"/>
</svg>
