<svg width="24" height="24" viewBox="-3 -3 30 30" fill="none" xmlns="http://www.w3.org/2000/svg">
<path fill-rule="evenodd" clip-rule="evenodd" d="M9.32059 9.33333C9.19378 9.53261 9.12639 9.76386 9.12639 10C9.12639 10.2361 9.19378 10.4674 9.32059 10.6667C10.3038 12.3101 11.6795 13.6844 13.3246 14.6667C13.5254 14.7898 13.7564 14.8549 13.9919 14.8549C14.2275 14.8549 14.4585 14.7898 14.6593 14.6667L15.9939 14C16.6079 13.5733 17.1283 13.834 17.7757 14.2073C19.0461 14.9343 20.2479 15.7751 21.366 16.7193C22.6406 17.998 21.7997 19.4647 20.5051 20.754C19.2305 22.0307 18.2696 22.0834 17.382 21.954C16.708 21.8607 12.5104 20.5267 7.98592 16.0033C3.4614 11.48 2.13346 7.30002 2.04004 6.67468C1.94661 6.04935 1.78631 4.94999 3.23443 3.50932C4.52905 2.21599 5.99055 1.35399 7.27183 2.63399C8.21884 3.75108 9.06102 4.95281 9.78769 6.224C10.1614 6.872 10.415 7.38867 9.98792 8.00334L9.32059 9.33333ZM8.65326 8C8.76173 7.79449 8.81846 7.56566 8.81846 7.33333C8.81846 7.101 8.76173 6.87218 8.65326 6.66667C8.08543 5.70739 7.41409 4.81316 6.65125 4C5.81041 3.16067 4.94955 3.70067 3.98192 4.66667C2.86747 5.77867 3.24118 6.152 3.31459 6.66667C3.40134 7.256 4.40901 10.428 8.65326 14.6667C12.8975 18.9053 16.7881 20.588 17.3286 20.6667C18.1227 20.7853 18.3429 20.994 19.3306 20C20.2782 19.052 20.8321 18.1693 19.9979 17.3333C19.1843 16.5708 18.2892 15.9001 17.3286 15.3333C17.1231 15.2241 16.894 15.167 16.6613 15.167C16.4285 15.167 16.1994 15.2241 15.9939 15.3333L15.3266 16C14.6659 16.4793 12.5972 15.8333 11.9899 15.3333C10.7479 14.3599 9.62765 13.2408 8.65326 12C8.13941 11.4033 7.50544 9.33333 7.98592 8.66667L8.65326 8Z" fill="currentColor"/>
<path fill-rule="evenodd" clip-rule="evenodd" d="M8.6533 8C8.76177 7.79449 8.8185 7.56567 8.8185 7.33334C8.8185 7.10101 8.76177 6.87218 8.6533 6.66667C8.08547 5.70739 7.41413 4.81317 6.6513 4C5.81046 3.16067 4.9496 3.70067 3.98196 4.66667C2.86751 5.77867 3.24122 6.152 3.31463 6.66667C3.40138 7.256 4.40905 10.428 8.6533 14.6667C12.8975 18.9053 16.7881 20.588 17.3286 20.6667C18.1228 20.7853 18.343 20.994 19.3306 20C20.2783 19.052 20.8321 18.1693 19.998 17.3333C19.1844 16.5708 18.2892 15.9001 17.3286 15.3333C17.1232 15.2241 16.894 15.167 16.6613 15.167C16.4286 15.167 16.1994 15.2241 15.994 15.3333L15.3266 16C14.666 16.4793 12.5972 15.8333 11.99 15.3333C10.748 14.3599 9.62769 13.2408 8.6533 12C8.13945 11.4033 7.50549 9.33334 7.98597 8.66667L8.6533 8Z" fill="white"/>
</svg>
