<svg width="24" height="24" viewBox="0 0 24 24" fill="none" xmlns="http://www.w3.org/2000/svg">
<path d="M12 4.00006C7.58878 4.00006 4 7.58884 4 12C4 16.4112 7.58878 20 12 20C16.4112 20 19.9999 16.4112 19.9999 12C19.9999 7.58881 16.4112 4.00006 12 4.00006ZM12 19C8.14019 19 5 15.8598 5 12C5 8.14025 8.14019 5.00006 12 5.00006C15.8597 5.00006 18.9999 8.14022 18.9999 12C18.9999 15.8598 15.8597 19 12 19ZM16.4375 12C16.4375 12.2762 16.2136 12.5 15.9375 12.5H12.5V15.9375C12.5 16.2137 12.2761 16.4375 12 16.4375C11.7238 16.4375 11.5 16.2137 11.5 15.9375V12.5H8.06247C7.78634 12.5 7.56247 12.2762 7.56247 12C7.56247 11.7239 7.78634 11.5 8.06247 11.5H11.5V8.06253C11.5 7.78637 11.7238 7.56253 12 7.56253C12.2761 7.56253 12.5 7.78637 12.5 8.06253V11.5H15.9375C16.2136 11.5 16.4375 11.7239 16.4375 12Z" fill="currentColor"/>
</svg>
