<svg width="24" height="24" viewBox="0 0 24 24" fill="none" xmlns="http://www.w3.org/2000/svg">
<path d="M11.9999 1C9.82422 1 7.69751 1.6452 5.88854 2.85388C4.0797 4.06256 2.66981 5.78051 1.83728 7.79052C1.00475 9.8004 0.78695 12.0122 1.21136 14.1461C1.63573 16.2799 2.68339 18.2398 4.22168 19.7783C5.76014 21.3167 7.72001 22.3643 9.85387 22.7886C11.9877 23.2132 14.1991 22.9952 16.2095 22.1627C18.2194 21.3302 19.9373 19.9203 21.1461 18.1115C22.3548 16.3025 23 14.1759 23 12.0001C23 9.0829 21.841 6.2848 19.7782 4.22212C17.7152 2.15931 14.9174 1.00034 12.0002 1.00034L11.9999 1ZM16.9999 12.9998H12.9999V16.9999C12.9999 17.265 12.8946 17.5193 12.7071 17.7068C12.5196 17.8943 12.2651 17.9998 12 17.9998C11.7348 17.9998 11.4803 17.8943 11.2928 17.7068C11.1053 17.5193 11 17.265 11 16.9999V12.9998H6.99998C6.7348 12.9998 6.48051 12.8945 6.29302 12.707C6.10535 12.5195 6.00005 12.2651 6.00005 11.9999C6.00005 11.7347 6.10535 11.4802 6.29302 11.2927C6.48051 11.1052 6.73482 11 6.99998 11H11V6.9999C11 6.73473 11.1053 6.48044 11.2928 6.29294C11.4803 6.10528 11.7348 5.99998 12 5.99998C12.2651 5.99998 12.5196 6.10528 12.7071 6.29294C12.8946 6.48044 12.9999 6.73475 12.9999 6.9999V11H16.9999C17.2651 11 17.5194 11.1052 17.7069 11.2927C17.8944 11.4802 17.9998 11.7347 17.9998 11.9999C17.9998 12.2651 17.8944 12.5195 17.7069 12.707C17.5194 12.8945 17.2651 12.9998 16.9999 12.9998Z" fill="currentColor"/>
</svg>
