<svg width="24" height="24" viewBox="-3 -3 30 30" fill="none" xmlns="http://www.w3.org/2000/svg">
<path fill-rule="evenodd" clip-rule="evenodd" d="M7.6875 1.40625C6.52253 1.40625 5.57812 2.35065 5.57812 3.51562V6.04688H18.4219V3.51562C18.4219 2.35065 17.4775 1.40625 16.3125 1.40625H7.6875ZM19.8281 6.04688V3.51562C19.8281 1.574 18.2541 0 16.3125 0H7.6875C5.74588 0 4.17188 1.574 4.17188 3.51562V6.04688H3.51562C1.57386 6.04688 0 7.62074 0 9.5625V15.1875C0 17.1293 1.57386 18.7031 3.51562 18.7031H4.17188V21.8906C4.17188 23.0556 5.1163 24 6.28125 24H17.7188C18.8837 24 19.8281 23.0556 19.8281 21.8906V18.7031H20.4844C22.4261 18.7031 24 17.1293 24 15.1875V9.5625C24 7.62074 22.4261 6.04688 20.4844 6.04688H19.8281ZM19.8281 17.2969H20.4844C21.6495 17.2969 22.5938 16.3526 22.5938 15.1875V9.5625C22.5938 8.39739 21.6495 7.45312 20.4844 7.45312H3.51562C2.35051 7.45312 1.40625 8.39739 1.40625 9.5625V15.1875C1.40625 16.3526 2.35051 17.2969 3.51562 17.2969H4.17188V14.9531H3.75C3.36167 14.9531 3.04688 14.6383 3.04688 14.25C3.04688 13.8617 3.36167 13.5469 3.75 13.5469H20.25C20.6383 13.5469 20.9531 13.8617 20.9531 14.25C20.9531 14.6383 20.6383 14.9531 20.25 14.9531H19.8281V17.2969ZM18.4219 14.9531H5.57812V21.8906C5.57812 22.2789 5.89295 22.5938 6.28125 22.5938H17.7188C18.107 22.5938 18.4219 22.2789 18.4219 21.8906V14.9531ZM3.04688 9.75C3.04688 9.36168 3.36168 9.04688 3.75 9.04688H6C6.38833 9.04688 6.70313 9.36168 6.70313 9.75C6.70313 10.1383 6.38833 10.4531 6 10.4531H3.75C3.36168 10.4531 3.04688 10.1383 3.04688 9.75ZM9.42188 17.25C9.42188 16.8617 9.73668 16.5469 10.125 16.5469H13.875C14.2633 16.5469 14.5781 16.8617 14.5781 17.25C14.5781 17.6383 14.2633 17.9531 13.875 17.9531H10.125C9.73668 17.9531 9.42188 17.6383 9.42188 17.25ZM9.42188 20.25C9.42188 19.8617 9.73668 19.5469 10.125 19.5469H13.875C14.2633 19.5469 14.5781 19.8617 14.5781 20.25C14.5781 20.6383 14.2633 20.9531 13.875 20.9531H10.125C9.73668 20.9531 9.42188 20.6383 9.42188 20.25Z" fill="currentColor"/>
</svg>
