<svg width="24" height="24" viewBox="0 0 24 24" fill="none" xmlns="http://www.w3.org/2000/svg">
<path d="M21.5923 3.8877C20.3866 3.47351 19.4207 2.50214 19.0084 1.28925C18.7462 0.518005 18.0242 0 17.2115 0H6.74158C5.92914 0 5.20697 0.518005 4.94476 1.28925C4.53241 2.50214 3.56653 3.47351 2.36078 3.8877C1.59357 4.15137 1.07812 4.87555 1.07812 5.68982V8.33844C1.07812 11.7947 2.11377 15.1227 4.07318 17.9626C5.86597 20.5611 8.33643 22.5945 11.2178 23.8433C11.4589 23.9478 11.7177 24 11.9766 24C12.2353 24 12.494 23.9478 12.7352 23.8433C15.6165 22.5947 18.087 20.5611 19.8798 17.9626C21.8392 15.1227 22.875 11.7946 22.875 8.33844V5.68982C22.875 4.87555 22.3596 4.15137 21.5923 3.8877ZM21.4688 8.33844C21.4688 11.508 20.519 14.5598 18.7222 17.1641C17.0792 19.5456 14.8154 21.4091 12.176 22.5529C12.0494 22.6078 11.9039 22.608 11.777 22.5529C9.13733 21.4091 6.87378 19.5456 5.23077 17.1641C3.43414 14.56 2.48438 11.5082 2.48438 8.33844V5.68982C2.48438 5.47595 2.61841 5.28625 2.81781 5.21777C4.43188 4.66315 5.72479 3.36383 6.27612 1.74188C6.34442 1.5412 6.53137 1.40625 6.74158 1.40625H17.2115C17.4216 1.40625 17.6087 1.5412 17.677 1.74188C18.2283 3.36383 19.5212 4.66315 21.1353 5.21777C21.3347 5.28625 21.4688 5.47595 21.4688 5.68982V8.33844Z" fill="currentColor"/>
<path d="M14.9645 9.11646H14.9167V7.11401C14.9167 5.49298 13.5978 4.17407 11.9768 4.17407C10.3558 4.17407 9.03687 5.49298 9.03687 7.11401V9.11646H8.98907C8.05542 9.11646 7.2959 9.87616 7.2959 10.8098V14.8564C7.2959 16.5952 8.71057 18.0101 10.4492 18.0101H13.5045C15.2432 18.0101 16.6577 16.5952 16.6577 14.8564V10.8098C16.6577 9.87616 15.8982 9.11646 14.9645 9.11646ZM10.4431 7.11401C10.4431 6.26843 11.1312 5.58032 11.9768 5.58032C12.8224 5.58032 13.5105 6.26843 13.5105 7.11401V9.11664H10.4431V7.11401ZM15.2515 14.8564C15.2515 15.8199 14.4678 16.6036 13.5045 16.6036H10.4492C9.48584 16.6036 8.70215 15.8199 8.70215 14.8564V10.8098C8.70215 10.6516 8.83087 10.5229 8.98907 10.5229H14.9645C15.1227 10.5229 15.2515 10.6516 15.2515 10.8098V14.8564Z" fill="currentColor"/>
<path d="M11.9766 12.1959C11.5882 12.1959 11.2734 12.5107 11.2734 12.899V14.2275C11.2734 14.6158 11.5882 14.9306 11.9766 14.9306C12.3649 14.9306 12.6797 14.6158 12.6797 14.2275V12.899C12.6797 12.5107 12.3649 12.1959 11.9766 12.1959Z" fill="currentColor"/>
</svg>
