<svg width="24" height="24" viewBox="-3 -3 30 30" fill="none" xmlns="http://www.w3.org/2000/svg">
<path d="M6.61047 6.55601C8.05097 5.12595 10.0001 4.32608 12.0301 4.33232C14.0598 4.33841 16.0041 5.15002 17.4357 6.58896C18.8675 8.02774 19.6696 9.97614 19.6658 12.0058H23C23.0033 9.09211 21.8497 6.29631 19.7927 4.23257C17.7358 2.16895 14.9436 1.00626 12.0299 1.00003C9.11626 0.993779 6.31926 2.1446 4.25352 4.19946L1.72278 1.66856V9.30105H9.35526L6.61047 6.55601Z" fill="currentColor"/>
<path d="M17.4433 17.4025C16.3776 18.4817 15.0153 19.2203 13.5294 19.5243C12.0434 19.8285 10.5006 19.6847 9.09645 19.1109C7.69233 18.5373 6.49014 17.5595 5.6423 16.3019C4.79461 15.0443 4.33921 13.5631 4.33421 12.0461H1C1.01093 14.9537 2.17316 17.7384 4.23242 19.7913C6.29169 21.8443 9.08033 22.9972 11.9876 22.9987C14.8951 23.0001 17.6847 21.8498 19.7461 19.7993L22.2234 22.2363V14.7646H14.8184L17.4433 17.4025Z" fill="currentColor"/>
</svg>
