<svg width="24" height="24" viewBox="0 0 24 24" fill="none" xmlns="http://www.w3.org/2000/svg">
<path d="M21.4141 11.4141C21.0905 11.4141 20.8281 11.6764 20.8281 12C20.8281 16.8679 16.8679 20.8281 12 20.8281C7.13215 20.8281 3.17188 16.8679 3.17188 12C3.17188 7.13215 7.13215 3.17188 12 3.17188C13.9601 3.17188 15.8223 3.80687 17.3528 4.97863L16.3359 5.15832C16.0172 5.21461 15.8045 5.51859 15.8608 5.83727C15.9171 6.15594 16.2211 6.36863 16.5398 6.3123L18.7587 5.92023C19.0386 5.87078 19.2427 5.6275 19.2427 5.34324V3.12434C19.2427 2.80074 18.9803 2.5384 18.6567 2.5384C18.3331 2.5384 18.0708 2.80074 18.0708 3.12434V4.05234C16.3358 2.72121 14.2235 2 12 2C9.32891 2 6.8177 3.0402 4.92891 4.92891C3.0402 6.8177 2 9.32891 2 12C2 14.6711 3.0402 17.1823 4.92891 19.0711C6.8177 20.9598 9.32891 22 12 22C14.6711 22 17.1823 20.9598 19.0711 19.0711C20.9598 17.1823 22 14.6711 22 12C22 11.6764 21.7377 11.4141 21.4141 11.4141Z" fill="currentColor"/>
<path d="M12 5.55469C10.2769 5.55469 8.875 6.95656 8.875 8.67969V10.2422H8.48438C8.16078 10.2422 7.89844 10.5045 7.89844 10.8281V16.2969C7.89844 16.6205 8.16078 16.8828 8.48438 16.8828H15.5156C15.8392 16.8828 16.1016 16.6205 16.1016 16.2969V10.8281C16.1016 10.5045 15.8392 10.2422 15.5156 10.2422H15.125V8.67969C15.125 6.95656 13.7231 5.55469 12 5.55469ZM10.0469 8.67969C10.0469 7.60273 10.923 6.72656 12 6.72656C13.077 6.72656 13.9531 7.60273 13.9531 8.67969V10.2422H10.0469V8.67969ZM14.9297 15.7109H9.07031V11.4141H14.9297V15.7109Z" fill="currentColor"/>
<path d="M11.6094 14.1484H12.3906C12.7142 14.1484 12.9766 13.8861 12.9766 13.5625C12.9766 13.2389 12.7142 12.9766 12.3906 12.9766H11.6094C11.2858 12.9766 11.0234 13.2389 11.0234 13.5625C11.0234 13.8861 11.2858 14.1484 11.6094 14.1484Z" fill="currentColor"/>
</svg>
