<svg width="24" height="24" viewBox="0 0 24 24" fill="none" xmlns="http://www.w3.org/2000/svg">
<path d="M19.9975 7.95413C19.9888 7.86576 19.9544 7.77707 19.8939 7.70329C19.8706 7.67476 20.1093 7.91535 16.3313 4.13731C16.2412 4.04725 16.119 3.99997 15.9997 4C15.7154 4 5.68941 4 5.40623 4C4.63084 4 4 4.63084 4 5.40623V18.5935C4 19.3689 4.63084 19.9998 5.40623 19.9998H18.5935C19.3689 19.9998 19.9998 19.3689 19.9998 18.5935C19.9998 7.21289 20.0011 7.99007 19.9975 7.95413ZM14.7811 4.93749V7.99995C14.7811 8.25841 14.5709 8.46869 14.3124 8.46869H13.7186V4.93749H14.7811ZM12.7812 4.93749V8.46869H8.43747C8.179 8.46869 7.96873 8.25841 7.96873 7.99995V4.93749H12.7812ZM14.7811 14.0311H7.96873V13.4374C7.96873 13.1789 8.179 12.9686 8.43747 12.9686H14.3124C14.5709 12.9686 14.7811 13.1789 14.7811 13.4374V14.0311ZM7.96873 19.0623V14.9686H14.7811V19.0623H7.96873ZM19.0623 18.5935C19.0623 18.852 18.852 19.0623 18.5936 19.0623H15.7186C15.7186 18.4512 15.7186 14.134 15.7186 13.4374C15.7186 12.662 15.0878 12.0311 14.3124 12.0311H8.43747C7.66207 12.0311 7.03124 12.662 7.03124 13.4374V19.0623H5.40626C5.1478 19.0623 4.93752 18.852 4.93752 18.5935V5.40623C4.93752 5.14777 5.1478 4.93749 5.40626 4.93749H7.03124V7.99995C7.03124 8.77534 7.66207 9.40618 8.43747 9.40618H14.3124C15.0878 9.40618 15.7186 8.77534 15.7186 7.99995V4.93749H15.8057L19.0623 8.19413V18.5935Z" fill="currentColor"/>
</svg>