<svg width="24" height="24" viewBox="-3 -3 30 30" fill="none" xmlns="http://www.w3.org/2000/svg">
<path d="M2.92496 1C1.87278 1 1 1.87278 1 2.92496V21.075C1 22.1272 1.87278 23 2.92496 23H21.075C22.1272 23 23 22.1272 23 21.075V6.22497C23.0006 6.0061 22.9139 5.79586 22.7594 5.64069L18.3593 1.24058C18.2041 1.08616 17.9939 0.99945 17.7751 1.00003L2.92496 1ZM2.92496 2.65011H5.12502V9.52514C5.12502 9.74382 5.21191 9.95368 5.36672 10.1085C5.52133 10.2631 5.73119 10.35 5.95007 10.35H16.9501C17.1688 10.35 17.3787 10.2631 17.5335 10.1085C17.6881 9.95368 17.775 9.74382 17.7752 9.52514V2.99386L21.35 6.56873V21.075C21.35 21.2415 21.2416 21.3499 21.0751 21.3499H2.92506C2.75856 21.3499 2.65017 21.2415 2.65017 21.075V2.92496C2.65017 2.75846 2.75855 2.65007 2.92506 2.65007L2.92496 2.65011ZM6.77507 2.65011H16.1251V8.70013H6.77507V2.65011ZM12.0001 12.2751C10.0354 12.2751 8.42503 13.8853 8.42503 15.85C8.42503 17.8147 10.0354 19.4251 12.0001 19.4251C13.9648 19.4251 15.5752 17.8147 15.5752 15.85C15.5752 13.8853 13.9648 12.2751 12.0001 12.2751ZM12.0001 13.9251C13.073 13.9251 13.9251 14.7772 13.9251 15.85C13.9251 16.9231 13.0729 17.7752 12.0001 17.7752C10.9272 17.7752 10.0751 16.9231 10.0751 15.85C10.0751 14.7771 10.9272 13.9251 12.0001 13.9251Z" fill="currentColor"/>
</svg>
