<svg width="22" height="22" viewBox="0 0 22 22" fill="none" xmlns="http://www.w3.org/2000/svg">
<path fill-rule="evenodd" clip-rule="evenodd" d="M4.97688 21.9998V11.5761H0V21.9998H4.97688ZM10.6446 7.85634V0.456159C10.6446 0.396462 10.665 0.33676 10.6852 0.277063C10.7868 0.117918 11.0102 0.0582206 11.1727 0.157665C12.229 0.734561 13.1838 0.515703 14.1386 0.277063C14.9715 0.0781707 15.8044 -0.14068 16.7591 0.117918C16.9216 0.157665 17.0232 0.297013 17.0232 0.456159V4.13629C17.0232 4.17604 17.0232 4.21578 17.0028 4.23573C16.9622 4.43463 16.7591 4.53407 16.5762 4.49432C15.9871 4.33518 15.134 4.49432 14.2604 4.67342C13.2041 4.87231 12.1477 5.0712 11.3555 4.77286V7.85614H16.3119V21.9996H13.0819V18.6378C13.0819 18.0212 12.8178 17.484 12.4116 17.0862C12.0054 16.6885 11.4569 16.4299 10.8272 16.4299C10.2177 16.4299 9.649 16.6885 9.24278 17.0862C8.83657 17.484 8.59272 18.0212 8.59272 18.6378V21.9996H5.66758V7.85614L10.6446 7.85634ZM18.9326 15.2762V18.28H20.1108V15.2762H18.9326ZM17.0231 11.5762V22H22V11.5762H17.0231ZM20.4562 18.9764H18.5669C18.3638 18.9764 18.2215 18.8173 18.2215 18.6382V14.9183C18.2215 14.7392 18.3637 14.58 18.5669 14.58H20.4562C20.6593 14.58 20.8218 14.7392 20.8218 14.9183V18.6382C20.8218 18.8173 20.6593 18.9764 20.4562 18.9764ZM10.8274 17.1264C10.4212 17.1264 10.0352 17.3055 9.75075 17.5641C9.4663 17.8426 9.30377 18.2204 9.30377 18.6382V22H12.3712V18.6382C12.3712 18.2204 12.1883 17.8424 11.9242 17.5641C11.6398 17.3055 11.254 17.1264 10.8274 17.1264H10.8274ZM7.57721 10.6612H14.4229V9.6069H7.57721V10.6612ZM7.57721 14.1622H14.4229V13.1079H7.57721V14.1622ZM3.06733 18.28V15.2762H1.88913V18.28H3.06733ZM14.7884 14.8584H7.21132C7.02843 14.8584 6.86591 14.6993 6.86591 14.5004V12.7697C6.86591 12.5708 7.02843 12.4117 7.21132 12.4117H14.7884C14.9713 12.4117 15.1338 12.5708 15.1338 12.7697V14.5004C15.1338 14.6993 14.9713 14.8584 14.7884 14.8584ZM14.7884 11.3574H7.21132C7.02843 11.3574 6.86591 11.1982 6.86591 11.0192V9.26854C6.86591 9.06965 7.02843 8.91051 7.21132 8.91051H14.7884C14.9713 8.91051 15.1338 9.06965 15.1338 9.26854V11.0192C15.1338 11.1982 14.9713 11.3574 14.7884 11.3574ZM3.43282 18.9764H1.54357C1.34047 18.9764 1.17795 18.8173 1.17795 18.6382V14.9183C1.17795 14.7392 1.34047 14.58 1.54357 14.58H3.43282C3.61571 14.58 3.77823 14.7392 3.77823 14.9183V18.6382C3.77823 18.8173 3.61571 18.9764 3.43282 18.9764V18.9764Z" fill="currentColor"/>
</svg>
