<svg width="24" height="24" viewBox="0 0 24 24" fill="none" xmlns="http://www.w3.org/2000/svg">
<path d="M11.9998 10.1582C10.9846 10.1582 10.1587 10.9842 10.1587 11.9994C10.1587 13.0146 10.9846 13.8405 11.9998 13.8405C13.015 13.8405 13.841 13.0146 13.841 11.9994C13.841 10.9842 13.015 10.1582 11.9998 10.1582V10.1582ZM11.9998 12.6687C11.6308 12.6687 11.3306 12.3684 11.3306 11.9994C11.3306 11.6304 11.6308 11.3301 11.9998 11.3301C12.3688 11.3301 12.6691 11.6304 12.6691 11.9994C12.6691 12.3684 12.3688 12.6687 11.9998 12.6687Z" fill="currentColor"/>
<path d="M16.3931 13.2969C16.0695 13.2969 15.8071 13.5592 15.8071 13.8828V15.138C15.8071 15.4616 16.0695 15.7239 16.3931 15.7239C16.7167 15.7239 16.979 15.4616 16.979 15.138V13.8828C16.979 13.5592 16.7167 13.2969 16.3931 13.2969Z" fill="currentColor"/>
<path d="M5.09619 13.2969C4.7726 13.2969 4.51025 13.5592 4.51025 13.8828V15.138C4.51025 15.4616 4.7726 15.7239 5.09619 15.7239C5.41979 15.7239 5.68213 15.4616 5.68213 15.138V13.8828C5.68213 13.5592 5.41979 13.2969 5.09619 13.2969Z" fill="currentColor"/>
<path d="M16.3931 17.0625C16.0695 17.0625 15.8071 17.3248 15.8071 17.6484V18.9037C15.8071 19.2273 16.0695 19.4896 16.3931 19.4896C16.7167 19.4896 16.979 19.2273 16.979 18.9037V17.6484C16.979 17.3248 16.7167 17.0625 16.3931 17.0625Z" fill="currentColor"/>
<path d="M5.09619 17.0625C4.7726 17.0625 4.51025 17.3248 4.51025 17.6484V18.9037C4.51025 19.2273 4.7726 19.4896 5.09619 19.4896C5.41979 19.4896 5.68213 19.2273 5.68213 18.9037V17.6484C5.68213 17.3248 5.41979 17.0625 5.09619 17.0625Z" fill="currentColor"/>
<path d="M18.9038 15.7239C19.2274 15.7239 19.4897 15.4616 19.4897 15.138V13.8828C19.4897 13.5592 19.2274 13.2969 18.9038 13.2969C18.5802 13.2969 18.3179 13.5592 18.3179 13.8828V15.138C18.3179 15.4616 18.5802 15.7239 18.9038 15.7239Z" fill="currentColor"/>
<path d="M7.60693 13.2969C7.28334 13.2969 7.021 13.5592 7.021 13.8828V15.138C7.021 15.4616 7.28334 15.7239 7.60693 15.7239C7.93053 15.7239 8.19287 15.4616 8.19287 15.138V13.8828C8.19287 13.5592 7.93053 13.2969 7.60693 13.2969Z" fill="currentColor"/>
<path d="M18.9038 19.4896C19.2274 19.4896 19.4897 19.2272 19.4897 18.9036V17.6484C19.4897 17.3248 19.2274 17.0625 18.9038 17.0625C18.5802 17.0625 18.3179 17.3248 18.3179 17.6484V18.9037C18.3179 19.2273 18.5802 19.4896 18.9038 19.4896V19.4896Z" fill="currentColor"/>
<path d="M7.60693 17.0625C7.28334 17.0625 7.021 17.3248 7.021 17.6484V18.9037C7.021 19.2273 7.28334 19.4896 7.60693 19.4896C7.93053 19.4896 8.19287 19.2273 8.19287 18.9037V17.6484C8.19287 17.3248 7.93053 17.0625 7.60693 17.0625Z" fill="currentColor"/>
<path d="M21.4141 8.27605H14.1255L12.5859 6.73648V5.6823H15.7656C16.0892 5.6823 16.3516 5.41996 16.3516 5.09637V2.58594C16.3516 2.26234 16.0892 2 15.7656 2H12C11.6764 2 11.4141 2.26234 11.4141 2.58594V6.73648L9.87449 8.27605H2.58594C2.26234 8.27605 2 8.5384 2 8.86199V21.4141C2 21.7377 2.26234 22 2.58594 22H21.4141C21.7377 22 22 21.7377 22 21.4141V8.86199C22 8.5384 21.7377 8.27605 21.4141 8.27605V8.27605ZM20.8281 9.44793V10.7865H16.6359L15.2974 9.44793H20.8281ZM12.5859 3.17188H15.1797V4.51043H12.5859V3.17188ZM3.17188 9.44793H8.70258L7.36402 10.7865H3.17188V9.44793ZM10.7031 20.8281V16.3516H13.2969V20.8281H10.7031ZM20.8281 20.8281H14.4688V15.7656C14.4688 15.442 14.2064 15.1797 13.8828 15.1797H10.1172C9.79359 15.1797 9.53125 15.442 9.53125 15.7656V20.8281H3.17188V11.9584H7.60676C7.76219 11.9584 7.91117 11.8966 8.02105 11.7867L12 7.80781L15.9789 11.7867C16.0888 11.8966 16.2378 11.9584 16.3932 11.9584H20.8281V20.8281Z" fill="currentColor"/>
</svg>
