<svg width="40" height="40" viewBox="0 0 40 40" fill="none" xmlns="http://www.w3.org/2000/svg">
<path fill-rule="evenodd" clip-rule="evenodd" d="M29.2443 30.2763C28.9397 30.2763 28.7053 30.0185 28.7053 29.7139V20.6219L27.0416 21.7467C26.7838 21.9341 26.4323 21.8638 26.2683 21.6061C26.1043 21.3483 26.1511 21.0203 26.4089 20.8328L28.9397 19.0988C29.1037 18.9816 29.338 18.9816 29.5021 19.0753C29.6895 19.1691 29.8067 19.3565 29.8067 19.5674V29.7139C29.8067 30.0185 29.5489 30.2763 29.2443 30.2763ZM33.5325 12.7953H30.9315C30.6268 12.7953 30.3691 12.561 30.3691 12.2329V9.91305V7.56975C30.3691 7.26513 30.6268 7.00736 30.9315 7.00736H33.5325C33.8371 7.00736 34.0949 7.26513 34.0949 7.56975C34.0949 7.87438 33.8371 8.13214 33.5325 8.13214H31.4704V9.35066H33.5325C33.8371 9.35066 34.0949 9.60842 34.0949 9.91305C34.0949 10.2177 33.8371 10.452 33.5325 10.452H31.4704V11.6939H33.5325C33.8371 11.6939 34.0949 11.9283 34.0949 12.2329C34.0949 12.561 33.8371 12.7953 33.5325 12.7953ZM7.6157 12.7953C6.67838 12.7953 5.9051 12.022 5.9051 11.0847C5.9051 10.7801 6.13943 10.5223 6.44405 10.5223C6.77211 10.5223 7.00644 10.7801 7.00644 11.0847C7.00644 11.4128 7.28764 11.6939 7.6157 11.6939C7.94376 11.6939 8.22496 11.4128 8.22496 11.0847C8.22496 10.7566 7.94376 10.4754 7.6157 10.4754C6.67838 10.4754 5.9051 9.70215 5.9051 8.76483C5.9051 7.80408 6.67838 7.05423 7.6157 7.05423C8.55302 7.05423 9.3263 7.80408 9.3263 8.76483C9.3263 9.06946 9.09197 9.30379 8.76391 9.30379C8.45929 9.30379 8.22496 9.06946 8.22496 8.76483C8.22496 8.43677 7.94376 8.15558 7.6157 8.15558C7.28764 8.15558 7.00644 8.43677 7.00644 8.76483C7.00644 9.09289 7.28764 9.37409 7.6157 9.37409C8.55302 9.37409 9.3263 10.1239 9.3263 11.0847C9.3263 12.022 8.55302 12.7953 7.6157 12.7953ZM25.0732 12.7953C24.7686 12.7953 24.5108 12.561 24.5108 12.2329V10.1239V7.59319C24.5108 7.28856 24.7686 7.0308 25.0732 7.0308H26.5026C27.5103 7.0308 28.3304 7.85095 28.3304 8.85856C28.3304 9.58499 27.8852 10.2177 27.2525 10.4989L27.8852 12.022C28.0023 12.3266 27.8617 12.6313 27.5806 12.7484C27.5103 12.7953 27.44 12.7953 27.3697 12.7953C27.1588 12.7953 26.9479 12.6547 26.8541 12.4438L26.1277 10.6629H25.6122V12.2329C25.6122 12.561 25.3779 12.7953 25.0732 12.7953ZM25.6122 9.56155H26.4558H26.5261C26.901 9.53812 27.2056 9.23349 27.2056 8.85856C27.2056 8.46021 26.901 8.15558 26.5026 8.15558H25.6122V9.56155ZM20.082 12.7953C18.7698 12.7953 17.6919 11.7174 17.6919 10.4286V9.42096C17.6919 8.10871 18.7698 7.0308 20.082 7.0308C21.3943 7.0308 22.4722 8.10871 22.4722 9.42096V10.4286C22.4722 11.7174 21.3943 12.7953 20.082 12.7953ZM20.082 8.15558C19.379 8.15558 18.8166 8.71797 18.8166 9.42096V10.4286C18.8166 11.1081 19.379 11.6939 20.082 11.6939C20.785 11.6939 21.3474 11.1081 21.3474 10.4286V9.42096C21.3474 8.71797 20.785 8.15558 20.082 8.15558ZM13.7551 12.7953C12.4429 12.7953 11.3884 11.7174 11.3884 10.4286V9.42096C11.3884 8.10871 12.4429 7.0308 13.7551 7.0308C14.4112 7.0308 15.0439 7.31199 15.4892 7.78065C15.7001 8.01498 15.7001 8.36647 15.4657 8.57737C15.2548 8.78827 14.9033 8.76483 14.6924 8.55394C14.4581 8.27274 14.1066 8.13214 13.7551 8.13214C13.0521 8.13214 12.4897 8.71797 12.4897 9.42096V10.4051C12.4897 11.1081 13.0521 11.6939 13.7551 11.6939C14.1066 11.6939 14.4581 11.5534 14.6924 11.2722C14.9033 11.0613 15.2548 11.0378 15.4657 11.2487C15.7001 11.4596 15.7001 11.8111 15.4892 12.0454C15.0439 12.5141 14.4112 12.7953 13.7551 12.7953ZM37.0943 35.2909H2.90568C1.31224 35.2909 0 33.9787 0 32.3852V16.8961C0 15.3964 1.14821 14.1544 2.60105 14.0138V7.42916C2.60105 5.92945 3.81957 4.71094 5.34271 4.71094H34.6573C36.157 4.71094 37.3989 5.92945 37.3989 7.42916V14.0138C38.8518 14.1544 40 15.3964 40 16.8961V32.3852C40 33.9787 38.6878 35.2909 37.0943 35.2909ZM2.90568 15.0917C1.9215 15.0917 1.10135 15.9119 1.10135 16.8961V32.3852C1.10135 33.3694 1.9215 34.1896 2.90568 34.1896H37.0943C38.0785 34.1896 38.8752 33.3694 38.8752 32.3852V16.8961C38.8752 15.9119 38.0785 15.0917 37.0943 15.0917H2.90568ZM36.2742 32.1275H3.72583C3.42121 32.1275 3.16344 31.8697 3.16344 31.5651V17.7162C3.16344 17.4116 3.42121 17.1538 3.72583 17.1538H19.9883H20.0117H36.2742C36.5788 17.1538 36.8366 17.4116 36.8366 17.7162V31.5651C36.8131 31.8697 36.5788 32.1275 36.2742 32.1275ZM4.28822 31.0027H19.4493V18.2786H4.28822V31.0027ZM20.5507 31.0027H35.7118V18.2786H20.5507V31.0027ZM3.7024 13.9904H36.2742V7.42916C36.2742 6.53871 35.5477 5.81228 34.6573 5.81228H5.34271C4.45226 5.81228 3.7024 6.53871 3.7024 7.42916V13.9904ZM11.8571 30.2763C9.84183 30.2763 8.20152 28.636 8.20152 26.6207V22.6606C8.20152 20.6453 9.84183 19.005 11.8571 19.005C13.8723 19.005 15.5126 20.6453 15.5126 22.6606V26.6207C15.5126 28.636 13.8723 30.2763 11.8571 30.2763ZM11.8571 20.1298C10.4511 20.1298 9.3263 21.2546 9.3263 22.6606V26.6207C9.3263 28.0267 10.4511 29.1749 11.8571 29.1749C13.263 29.1749 14.4112 28.0267 14.4112 26.6207V22.6606C14.4112 21.2546 13.263 20.1298 11.8571 20.1298Z" fill="currentColor"/>
</svg>