<svg width="24" height="24" viewBox="-3 -3 30 30" fill="none" xmlns="http://www.w3.org/2000/svg">
<path d="M20.503 11.8587H20.4935C20.5 10.7375 20.5028 9.58419 20.4888 9.4169C20.4557 9.01954 20.2152 8.69493 19.8762 8.58988C19.5389 8.48544 19.1817 8.61402 18.921 8.9339C18.6513 9.26469 17.418 11.488 17.0464 12.1616C16.9463 12.3431 16.9495 12.564 17.0549 12.7425C17.1603 12.921 17.3522 13.0305 17.5595 13.0305H19.3137C19.3116 13.3108 19.3094 13.5793 19.3073 13.823C19.3045 14.1466 19.5646 14.4112 19.8882 14.414H19.8933C20.2146 14.414 20.4764 14.1549 20.4792 13.8331C20.4808 13.6402 20.4832 13.3591 20.4857 13.0305H20.5031C20.8267 13.0305 21.089 12.7682 21.089 12.4446C21.089 12.1209 20.8267 11.8587 20.503 11.8587ZM19.3213 11.8587H18.5555C18.8344 11.3606 19.1053 10.8832 19.3269 10.5007C19.3262 10.8937 19.3241 11.3678 19.3213 11.8587Z" fill="currentColor"/>
<path d="M6.23176 13.2316C6.22927 13.2316 6.22679 13.2316 6.22426 13.2316C5.80857 13.2368 5.36935 13.2405 4.98915 13.2417C5.23787 12.9072 5.5703 12.4505 6.0053 11.829C6.37271 11.2823 6.5873 10.8665 6.62269 10.317C6.62269 9.34528 5.8321 8.55469 4.86034 8.55469C4.0201 8.55469 3.29284 9.15244 3.13098 9.97608C3.06859 10.2936 3.27544 10.6016 3.59298 10.664C3.91055 10.7264 4.21848 10.5195 4.28087 10.202C4.33496 9.92648 4.57871 9.72656 4.86029 9.72656C5.17548 9.72656 5.43376 9.97481 5.44993 10.2861C5.41473 10.5776 5.26984 10.8202 5.04512 11.157C4.31752 12.1967 3.88351 12.765 3.6503 13.0703C3.35762 13.4535 3.21071 13.6458 3.30938 13.9666C3.36779 14.1565 3.51141 14.3022 3.70332 14.3662C3.78052 14.3919 3.85004 14.4151 4.75646 14.4151C5.10816 14.4151 5.58596 14.4116 6.23893 14.4034C6.56251 14.3993 6.82154 14.1338 6.81746 13.8102C6.81352 13.4891 6.55196 13.2316 6.23176 13.2316Z" fill="currentColor"/>
<path d="M14.5781 6.09375H9.42188C9.03356 6.09375 8.71875 6.40856 8.71875 6.79688C8.71875 7.18519 9.03356 7.5 9.42188 7.5H14.5781C14.9664 7.5 15.2812 7.18519 15.2812 6.79688C15.2812 6.40856 14.9664 6.09375 14.5781 6.09375Z" fill="currentColor"/>
<path d="M20.4375 6.09375H17.625C17.2367 6.09375 16.9219 6.40856 16.9219 6.79688C16.9219 7.18519 17.2367 7.5 17.625 7.5H20.4375C20.8258 7.5 21.1406 7.18519 21.1406 6.79688C21.1406 6.40856 20.8258 6.09375 20.4375 6.09375Z" fill="currentColor"/>
<path d="M6.375 6.09375H3.5625C3.17419 6.09375 2.85938 6.40856 2.85938 6.79688C2.85938 7.18519 3.17419 7.5 3.5625 7.5H6.375C6.76331 7.5 7.07812 7.18519 7.07812 6.79688C7.07812 6.40856 6.76331 6.09375 6.375 6.09375Z" fill="currentColor"/>
<path d="M12 10.7813C12.3883 10.7813 12.7031 10.4665 12.7031 10.0782C12.7031 9.68986 12.3883 9.37506 12 9.37506C11.6117 9.37506 11.2969 9.68986 11.2969 10.0782C11.2969 10.4665 11.6117 10.7813 12 10.7813Z" fill="currentColor"/>
<path d="M12 13.5938C12.3883 13.5938 12.7031 13.279 12.7031 12.8907C12.7031 12.5024 12.3883 12.1876 12 12.1876C11.6117 12.1876 11.2969 12.5024 11.2969 12.8907C11.2969 13.279 11.6117 13.5938 12 13.5938Z" fill="currentColor"/>
<path d="M21.8906 3.28125H2.10938C0.946266 3.28125 0 4.22752 0 5.39062V14.7656C0 15.9287 0.946266 16.875 2.10938 16.875H8.48438V19.3125H5.20312C4.81481 19.3125 4.5 19.6273 4.5 20.0156C4.5 20.4039 4.81481 20.7188 5.20312 20.7188H18.7969C19.1852 20.7188 19.5 20.4039 19.5 20.0156C19.5 19.6273 19.1852 19.3125 18.7969 19.3125H15.5156V16.875H21.8906C23.0537 16.875 24 15.9287 24 14.7656V5.39062C24 4.22752 23.0537 3.28125 21.8906 3.28125ZM14.1094 19.3125H9.89062V16.875H14.1094V19.3125ZM22.5938 14.7656C22.5938 15.1533 22.2783 15.4688 21.8906 15.4688H2.10938C1.72167 15.4688 1.40625 15.1533 1.40625 14.7656V5.39062C1.40625 5.00292 1.72167 4.6875 2.10938 4.6875H21.8906C22.2783 4.6875 22.5938 5.00292 22.5938 5.39062V14.7656Z" fill="currentColor"/>
</svg>
