<svg width="24" height="24" viewBox="0 0 24 24" fill="none" xmlns="http://www.w3.org/2000/svg">
<path d="M6.75 11.6719H5.25C4.86169 11.6719 4.54688 11.9867 4.54688 12.375C4.54688 12.7633 4.86169 13.0781 5.25 13.0781H6.75C7.13831 13.0781 7.45312 12.7633 7.45312 12.375C7.45312 11.9867 7.13831 11.6719 6.75 11.6719Z" fill="currentColor"/>
<path d="M6.75 14.6719H5.25C4.86169 14.6719 4.54688 14.9867 4.54688 15.375C4.54688 15.7633 4.86169 16.0781 5.25 16.0781H6.75C7.13831 16.0781 7.45312 15.7633 7.45312 15.375C7.45312 14.9867 7.13831 14.6719 6.75 14.6719Z" fill="currentColor"/>
<path d="M6.75 17.6719H5.25C4.86169 17.6719 4.54688 17.9867 4.54688 18.375C4.54688 18.7633 4.86169 19.0781 5.25 19.0781H6.75C7.13831 19.0781 7.45312 18.7633 7.45312 18.375C7.45312 17.9867 7.13831 17.6719 6.75 17.6719Z" fill="currentColor"/>
<path d="M12.75 11.6719H11.25C10.8617 11.6719 10.5469 11.9867 10.5469 12.375C10.5469 12.7633 10.8617 13.0781 11.25 13.0781H12.75C13.1383 13.0781 13.4531 12.7633 13.4531 12.375C13.4531 11.9867 13.1383 11.6719 12.75 11.6719Z" fill="currentColor"/>
<path d="M12.75 14.6719H11.25C10.8617 14.6719 10.5469 14.9867 10.5469 15.375C10.5469 15.7633 10.8617 16.0781 11.25 16.0781H12.75C13.1383 16.0781 13.4531 15.7633 13.4531 15.375C13.4531 14.9867 13.1383 14.6719 12.75 14.6719Z" fill="currentColor"/>
<path d="M12.75 17.6719H11.25C10.8617 17.6719 10.5469 17.9867 10.5469 18.375C10.5469 18.7633 10.8617 19.0781 11.25 19.0781H12.75C13.1383 19.0781 13.4531 18.7633 13.4531 18.375C13.4531 17.9867 13.1383 17.6719 12.75 17.6719Z" fill="currentColor"/>
<path d="M18.75 11.6719H17.25C16.8617 11.6719 16.5469 11.9867 16.5469 12.375C16.5469 12.7633 16.8617 13.0781 17.25 13.0781H18.75C19.1383 13.0781 19.4531 12.7633 19.4531 12.375C19.4531 11.9867 19.1383 11.6719 18.75 11.6719Z" fill="currentColor"/>
<path d="M18.75 14.6719H17.25C16.8617 14.6719 16.5469 14.9867 16.5469 15.375C16.5469 15.7633 16.8617 16.0781 17.25 16.0781H18.75C19.1383 16.0781 19.4531 15.7633 19.4531 15.375C19.4531 14.9867 19.1383 14.6719 18.75 14.6719Z" fill="currentColor"/>
<path d="M18.75 17.6719H17.25C16.8617 17.6719 16.5469 17.9867 16.5469 18.375C16.5469 18.7633 16.8617 19.0781 17.25 19.0781H18.75C19.1383 19.0781 19.4531 18.7633 19.4531 18.375C19.4531 17.9867 19.1383 17.6719 18.75 17.6719Z" fill="currentColor"/>
<path d="M21.8906 3.04688H20.2031V1.875C20.2031 1.48669 19.8883 1.17188 19.5 1.17188C19.1117 1.17188 18.7969 1.48669 18.7969 1.875V3.04688H12.7031V1.875C12.7031 1.48669 12.3883 1.17188 12 1.17188C11.6117 1.17188 11.2969 1.48669 11.2969 1.875V3.04688H5.20312V1.875C5.20312 1.48669 4.88831 1.17188 4.5 1.17188C4.11169 1.17188 3.79688 1.48669 3.79688 1.875V3.04688H2.10938C0.946266 3.04688 0 3.99314 0 5.15625V20.7188C0 21.8819 0.946266 22.8281 2.10938 22.8281H21.8906C23.0537 22.8281 24 21.8819 24 20.7188C24 20.2649 24 5.55117 24 5.15625C24 3.99314 23.0537 3.04688 21.8906 3.04688ZM1.40625 5.15625C1.40625 4.76855 1.72167 4.45312 2.10938 4.45312H3.79688V5.625C3.79688 6.01331 4.11169 6.32812 4.5 6.32812C4.88831 6.32812 5.20312 6.01331 5.20312 5.625V4.45312H11.2969V5.625C11.2969 6.01331 11.6117 6.32812 12 6.32812C12.3883 6.32812 12.7031 6.01331 12.7031 5.625V4.45312H18.7969V5.625C18.7969 6.01331 19.1117 6.32812 19.5 6.32812C19.8883 6.32812 20.2031 6.01331 20.2031 5.625V4.45312H21.8906C22.2783 4.45312 22.5938 4.76855 22.5938 5.15625V7.92188H1.40625V5.15625ZM21.8906 21.4219H2.10938C1.72167 21.4219 1.40625 21.1065 1.40625 20.7188V9.32812H22.5938V20.7188C22.5938 21.1065 22.2783 21.4219 21.8906 21.4219Z" fill="currentColor"/>
</svg>
