<svg width="24" height="24" viewBox="-3 -3 30 30" fill="none" xmlns="http://www.w3.org/2000/svg">
<path d="M5.13788 4.35267V1.77358C5.13788 1.34649 4.78173 1 4.34274 1C3.90337 1 3.54722 1.34649 3.54722 1.77358V4.35267C2.57156 4.58474 1.75459 5.23168 1.32342 6.11465C0.892192 6.99725 0.892192 8.02198 1.32342 8.90458C1.75465 9.78755 2.57166 10.4344 3.54722 10.6666V22.2264C3.54722 22.6535 3.90337 23 4.34274 23C4.78173 23 5.13788 22.6535 5.13788 22.2264V10.6666C6.11392 10.4345 6.93089 9.78755 7.36206 8.90458C7.79329 8.02198 7.79329 6.99725 7.36206 6.11465C6.93083 5.23169 6.11382 4.58479 5.13788 4.35267V4.35267ZM4.34274 9.21693C3.87711 9.21693 3.43072 9.03703 3.1016 8.7168C2.77281 8.39657 2.5879 7.96265 2.5879 7.50969C2.5879 7.05674 2.77281 6.62277 3.1016 6.30258C3.43076 5.98235 3.87715 5.80245 4.34274 5.80245C4.80799 5.80245 5.25438 5.98235 5.58349 6.30258C5.91265 6.62282 6.09757 7.05674 6.09757 7.50969C6.09609 7.96197 5.91079 8.39554 5.58201 8.71542C5.25323 9.03529 4.80758 9.21555 4.34268 9.21699L4.34274 9.21693ZM23 11.2081C22.9993 10.4795 22.7478 9.77245 22.2855 9.19925C21.8232 8.62607 21.1771 8.2202 20.45 8.04602V1.78896C20.45 1.36188 20.0938 1.01538 19.6544 1.01538C19.2154 1.01538 18.8593 1.36188 18.8593 1.78896V8.04602C17.8799 8.27522 17.0593 8.92251 16.6258 9.8069C16.1924 10.6917 16.1924 11.7193 16.6258 12.6036C17.0593 13.4884 17.8799 14.1354 18.8593 14.3649V22.226C18.8593 22.653 19.2154 22.9995 19.6544 22.9995C20.0938 22.9995 20.45 22.653 20.45 22.226V14.3649C21.1763 14.1918 21.8224 13.7867 22.2847 13.2146C22.747 12.6422 22.9989 11.9358 23 11.208L23 11.2081ZM19.6545 12.9103C19.1888 12.9103 18.7421 12.73 18.4129 12.4094C18.0838 12.0888 17.8992 11.6542 17.8996 11.2012C17.9 10.7479 18.0856 10.3136 18.4155 9.99374C18.7454 9.67387 19.1922 9.49469 19.6582 9.49541C20.1238 9.49649 20.5702 9.67747 20.8986 9.99877C21.2271 10.3197 21.4109 10.7551 21.4094 11.2081C21.4083 11.66 21.2226 12.0929 20.8938 12.412C20.5647 12.7311 20.119 12.9103 19.6545 12.9103L19.6545 12.9103ZM12.7936 13.6738V1.80997C12.7936 1.38253 12.4378 1.03603 11.9985 1.03603C11.5591 1.03603 11.2033 1.38253 11.2033 1.80997V13.6738C10.2273 13.9055 9.4103 14.5524 8.97914 15.4354C8.54791 16.318 8.54791 17.3427 8.97914 18.2257C9.41037 19.1083 10.2274 19.7552 11.2033 19.9873V22.2261C11.2033 22.6532 11.5591 22.9996 11.9985 22.9996C12.4378 22.9996 12.7936 22.6532 12.7936 22.2261V19.9873C13.7696 19.7552 14.5866 19.1083 15.0178 18.2257C15.449 17.3427 15.449 16.318 15.0178 15.4354C14.5866 14.5524 13.7695 13.9055 12.7936 13.6738ZM11.9985 18.5377C11.5328 18.5377 11.0868 18.3578 10.7577 18.0379C10.4285 17.7177 10.2436 17.2834 10.2436 16.8304C10.2436 16.3778 10.4285 15.9435 10.7577 15.6233C11.0869 15.3031 11.5329 15.1232 11.9985 15.1232C12.464 15.1232 12.9101 15.3031 13.2392 15.6233C13.5684 15.9436 13.7533 16.3778 13.7533 16.8304C13.7518 17.2831 13.5665 17.7163 13.2377 18.0362C12.909 18.356 12.4633 18.5367 11.9984 18.5377L11.9985 18.5377Z" fill="currentColor"/>
</svg>
