<svg width="40" height="40" viewBox="0 0 40 40" fill="none" xmlns="http://www.w3.org/2000/svg">
<path d="M38.8276 36.2922C38.8276 37.262 38.0386 38.0509 37.0689 38.0509H2.93112C1.96143 38.0509 1.17245 37.262 1.17245 36.2922V30.2444H0V36.2922C0 37.9085 1.31486 39.2234 2.93112 39.2234H37.0689C38.6851 39.2234 40 37.9085 40 36.2922V19.707H38.8276V36.2922Z" fill="currentColor"/>
<path d="M37.0689 3.13193H33.4099V0.777344H32.2375V3.13201H15.32V4.30446H32.2375V5.81152C31.191 6.07407 30.4137 7.02235 30.4137 8.14907C30.4137 9.47792 31.4948 10.5591 32.8237 10.5591C34.1525 10.5591 35.2337 9.47792 35.2337 8.14907C35.2337 7.02235 34.4564 6.07407 33.4099 5.81152V4.30438H37.0689C38.0386 4.30438 38.8276 5.09328 38.8276 6.06305V12.6971H1.17245V6.06305C1.17245 5.09328 1.96143 4.30438 2.93112 4.30438H6.44362V5.81144C5.39717 6.07407 4.61976 7.02235 4.61976 8.14907C4.61976 9.47792 5.70091 10.5591 7.02976 10.5591C8.35861 10.5591 9.43977 9.47792 9.43977 8.14907C9.43977 7.02235 8.66243 6.07407 7.61598 5.81152V4.30438H14.1378V3.13193H7.61606V0.777344H6.44362V3.13201H2.93112C1.31486 3.13201 0 4.44687 0 6.06313V29.0675H1.17245V13.8697H38.8276V18.5399H40V6.06305C40 4.44687 38.6851 3.13193 37.0689 3.13193ZM34.0612 8.14907C34.0612 8.83143 33.506 9.38663 32.8237 9.38663C32.1413 9.38663 31.5861 8.83143 31.5861 8.14907C31.5861 7.4667 32.1413 6.91151 32.8237 6.91151C33.506 6.91151 34.0612 7.4667 34.0612 8.14907ZM8.2674 8.14907C8.2674 8.83143 7.7122 9.38663 7.02984 9.38663C6.34747 9.38663 5.79228 8.83143 5.79228 8.14907C5.79228 7.4667 6.34747 6.91151 7.02984 6.91151C7.7122 6.91151 8.2674 7.4667 8.2674 8.14907Z" fill="currentColor"/>
<path d="M29.7869 35.0044C29.2512 35.0044 28.7348 34.7878 28.4059 34.4247L27.5371 35.212C28.0846 35.8162 28.9257 36.1769 29.7869 36.1769C30.8533 36.1769 31.7483 35.4988 31.9151 34.5647C32.0402 33.8643 31.7189 32.948 30.4421 32.477C29.792 32.2372 29.1875 31.9759 29.0129 31.8993C28.8903 31.8038 28.8313 31.6553 28.8544 31.4948C28.8693 31.3905 28.9441 31.1359 29.3143 31.0244C30.0899 30.7907 30.801 31.3622 30.8081 31.368L31.1823 30.9167L31.5595 30.468C31.5115 30.4276 30.366 29.4831 28.9761 29.9017C28.2814 30.111 27.79 30.6576 27.6938 31.3281C27.6038 31.9558 27.8757 32.5594 28.4036 32.9036L28.4425 32.9289L28.4849 32.9478C28.5149 32.9612 29.2304 33.2798 30.0364 33.577C30.2802 33.6669 30.8387 33.9231 30.761 34.3587C30.7041 34.6761 30.3244 35.0044 29.7869 35.0044Z" fill="currentColor"/>
<path d="M24.1082 36.0406L24.1148 32.9247L25.9882 30.3132L25.0356 29.6298L23.5284 31.7307L22.0056 29.6133L21.0537 30.2978L22.9424 32.924L22.9358 36.0382L24.1082 36.0406Z" fill="currentColor"/>
<path d="M15.4847 36.0416L15.9727 34.8662H18.8601L19.3429 36.0399L20.4272 35.5939L17.9487 29.5684L16.9021 29.5695L14.4019 35.5922L15.4847 36.0416ZM17.4231 31.3724L18.3779 33.6937H16.4594L17.4231 31.3724Z" fill="currentColor"/>
<path d="M8.0721 36.0767L8.6584 36.0745C8.70373 36.0743 9.77324 36.0702 10.2002 36.0628C11.7484 36.0357 12.8721 34.68 12.8721 32.839C12.8721 30.9038 11.7766 29.6035 10.1462 29.6035H8.05811L8.0721 36.0767ZM10.1462 30.776C11.2916 30.776 11.6996 31.8416 11.6996 32.839C11.6996 33.8142 11.224 34.8723 10.1798 34.8905C9.96529 34.8942 9.57338 34.8972 9.24048 34.8991C9.23845 34.2729 9.23391 31.4271 9.23274 30.776H10.1462V30.776Z" fill="currentColor"/>
<path d="M16.8828 17.3697H22.4051L17.8273 27.4167L18.8942 27.9028L23.7032 17.3486V16.1973H16.8828V17.3697Z" fill="currentColor"/>
<path d="M22.8832 8.61776H21.7108V7.44531H22.8832V8.61776ZM20.5383 8.61776H19.3659V7.44531H20.5383V8.61776ZM18.1934 8.61776H17.021V7.44531H18.1934V8.61776Z" fill="currentColor"/>
</svg>
