<svg width="24" height="24" viewBox="-3 -3 30 30" fill="none" xmlns="http://www.w3.org/2000/svg">
<path d="M2.0002 4.94099V11.773V11.7728C2.00158 13.9582 2.62055 16.0964 3.78266 17.9287C4.94459 19.7611 6.5998 21.2094 8.54793 22.0982L9.1889 22.3904C10.9792 23.2032 13.0212 23.2032 14.8113 22.3904L15.4523 22.0982C17.4004 21.2094 19.0557 19.7611 20.2175 17.9287C21.3797 16.0963 21.9986 13.9581 22 11.7728V4.94127C22 4.7713 21.9463 4.60589 21.847 4.46969C21.7478 4.3335 21.6083 4.23373 21.4492 4.18552C18.3503 3.31259 15.2989 2.27164 12.3076 1.06704C12.109 0.977653 11.8829 0.977653 11.684 1.06704C8.69552 2.27128 5.64665 3.31227 2.55083 4.18552C2.39166 4.23373 2.25223 4.3335 2.15299 4.46969C2.05374 4.60588 2 4.77128 2 4.94127L2.0002 4.94099ZM8.37954 10.6901C8.52359 10.5421 8.71917 10.4591 8.92314 10.4591C9.12711 10.4591 9.32269 10.5421 9.46674 10.6901L10.9745 12.2341L14.5334 8.58794C14.7298 8.40055 15.0073 8.3314 15.2657 8.40565C15.5239 8.48008 15.7259 8.68701 15.7985 8.95164C15.8709 9.21646 15.8035 9.50079 15.6206 9.7021L11.5181 13.9063C11.374 14.0544 11.1785 14.1376 10.9745 14.1376C10.7703 14.1376 10.5748 14.0544 10.4309 13.9063L8.37954 11.8041V11.8043C8.23531 11.6565 8.15409 11.456 8.15409 11.2472C8.15409 11.0381 8.23531 10.8377 8.37954 10.6901Z" fill="currentColor"/>
</svg>
