<svg width="16" height="16" viewBox="-5 -2 16 16" fill="none" xmlns="http://www.w3.org/2000/svg">
<path fill-rule="evenodd" clip-rule="evenodd" d="M0.316748 6.98308C0.0212016 6.87481 -0.0861626 7.01313 0.0757422 7.29032L2.70595 11.7918C2.86838 12.0698 3.13222 12.069 3.29412 11.7918L5.92433 7.29032C6.08676 7.01231 5.97914 6.87467 5.68333 6.98308L5.50016 7.05032C4.11935 7.55667 1.88113 7.55695 0.499785 7.05032L0.316748 6.98308ZM5.68325 5.01692C5.9788 5.12519 6.08616 4.98687 5.92426 4.70968L3.29405 0.208203C3.13162 -0.0698138 2.86778 -0.0689882 2.70588 0.208203L0.0756679 4.70968C-0.0867639 4.9877 0.0208635 5.12533 0.316674 5.01692L0.49984 4.94968C1.88065 4.44333 4.11887 4.44305 5.50022 4.94968L5.68325 5.01692Z" fill="currentColor"/>
</svg>
