<svg width="24" height="24" viewBox="0 0 24 24" fill="none" xmlns="http://www.w3.org/2000/svg">
<path d="M21.9322 6.96054L19.5041 2.35944C19.3532 2.07335 18.9989 1.96378 18.7128 2.11456L12 5.65308C11.7138 5.8039 11.6041 6.15804 11.7547 6.44429L12.3731 7.6196L10.2973 8.71081L9.67993 7.53749C9.52926 7.25128 9.17446 7.14089 8.88805 7.29214L5.65055 9.00019C2.20922 10.8142 0.953873 15.1379 2.95809 18.5286L2.51809 18.9684C1.83411 19.6521 1.83391 20.759 2.51809 21.4428C3.20036 22.1248 4.31044 22.1248 4.99274 21.4428L5.44868 20.9871C7.4959 22.1514 10.0552 22.2188 12.2364 20.9713C15.0806 19.3441 16.2552 16.0283 15.3957 13.1117C15.0928 12.0841 15.5581 10.952 16.5633 10.4332L21.6856 7.75323C21.973 7.6028 22.0836 7.24733 21.9322 6.96054V6.96054ZM4.16438 20.6139C3.93879 20.8393 3.57192 20.8393 3.34641 20.6139C3.12067 20.3882 3.12059 20.023 3.34641 19.7973L3.64766 19.4962C3.89915 19.7914 4.17379 20.0631 4.4693 20.3091L4.16438 20.6139ZM16.022 9.39378C14.5411 10.1567 13.8049 11.8594 14.2716 13.443C15.0161 15.9692 13.94 18.6466 11.6546 19.9541C8.88817 21.5364 5.40618 20.556 3.87579 17.7735C2.34817 14.9966 3.39231 11.5152 6.19708 10.0367L8.91606 8.60226L9.53305 9.77483C9.68372 10.0611 10.0379 10.1712 10.3241 10.0206L13.4371 8.38413C13.7233 8.23366 13.8337 7.87901 13.683 7.59261L13.0642 6.41671L18.741 3.42429L20.6213 6.98741L16.022 9.39378Z" fill="currentColor"/>
<path d="M12.3007 13.1874C11.3236 11.2938 8.97336 10.573 7.03972 11.6095C5.12796 12.6344 4.36636 15.0063 5.34187 16.897C6.31683 18.7864 8.66492 19.5137 10.6028 18.4749C12.5145 17.45 13.2761 15.0781 12.3007 13.1874ZM10.0492 17.442C8.6864 18.1726 7.05644 17.6643 6.3832 16.3596C5.69933 15.0342 6.24218 13.3667 7.59332 12.6424C8.94679 11.9168 10.5814 12.4111 11.2593 13.7248V13.7248C11.9432 15.0502 11.4003 16.7177 10.0492 17.442V17.442Z" fill="currentColor"/>
<path d="M8.90683 4.80788C9.05761 5.09437 9.41195 5.20421 9.69816 5.05355C9.98453 4.90288 10.0945 4.54851 9.94382 4.26214L9.07765 2.61593C8.92695 2.32956 8.57269 2.21956 8.28632 2.37027C7.99996 2.52093 7.88999 2.8753 8.04066 3.16167L8.90683 4.80788Z" fill="currentColor"/>
<path d="M6.33226 6.29932L8.10105 6.68346C8.4166 6.7521 8.72914 6.55198 8.79793 6.23522C8.8666 5.91897 8.66594 5.60694 8.34972 5.53827L6.58094 5.15413C6.26465 5.08534 5.95273 5.28616 5.88406 5.60237C5.81543 5.91862 6.01609 6.23065 6.33226 6.29932V6.29932Z" fill="currentColor"/>
<path d="M11.1829 4.98281C11.482 5.10543 11.8244 4.9623 11.9471 4.66265L12.6433 2.96246C12.7659 2.663 12.6226 2.32082 12.3231 2.1982C12.0236 2.07546 11.6815 2.2189 11.5589 2.51836L10.8627 4.21855C10.7401 4.518 10.8834 4.86019 11.1829 4.98281V4.98281Z" fill="currentColor"/>
</svg>
