<svg width="24" height="24" viewBox="-5 -5 40 40" fill="none" xmlns="http://www.w3.org/2000/svg">
<path d="M22.3085 9.11426C21.2682 9.12183 20.2672 8.71649 19.5251 7.98722C18.7832 7.25776 18.3608 6.26398 18.3506 5.22347C18.3747 3.82573 19.1345 2.54427 20.3493 1.85226C21.5639 1.16025 23.0536 1.16025 24.2682 1.85226C25.483 2.54427 26.2427 3.82578 26.2669 5.22347C26.2567 6.26393 25.8341 7.25797 25.0922 7.98722C24.35 8.71668 23.3489 9.1218 22.3084 9.11426H22.3085Z" fill="currentColor"/>
<path d="M13.7976 30.6665C13.6895 30.6665 13.5815 30.6561 13.4753 30.6356C13.1555 30.5775 12.86 30.4265 12.6255 30.2012C12.3912 29.9762 12.2284 29.6868 12.1576 29.3695C12.0849 29.0572 12.1058 28.7305 12.2177 28.4301C12.3296 28.1295 12.5275 27.8686 12.7869 27.6802L18.3566 23.1115L15.4971 18.913L12.4588 23.5073V23.5071C12.2258 23.8848 11.8601 24.1616 11.4335 24.2838C11.0069 24.4057 10.5502 24.364 10.1528 24.1667L2.28358 20.6852C1.84652 20.4761 1.52137 20.0882 1.39204 19.6212C1.30733 19.3149 1.31388 18.9904 1.41107 18.6876C1.50827 18.385 1.69181 18.1171 1.93918 17.9174C2.19106 17.7075 2.49883 17.5757 2.82453 17.5385C3.15028 17.501 3.47972 17.5597 3.77253 17.7073L10.4271 20.6116L14.4887 13.901L16.0051 11.1614L13.6761 9.72849L11.0171 13.3862C10.8268 13.6495 10.5643 13.8517 10.2613 13.9687C9.95824 14.0858 9.62778 14.1124 9.30982 14.0452C8.75411 13.9395 8.29127 13.5568 8.08253 13.031C7.87382 12.5053 7.9485 11.9093 8.28059 11.4512L11.7382 6.69429C12.0038 6.33397 12.395 6.08656 12.8343 6.00066C13.2736 5.91493 13.7293 5.99698 14.1109 6.23065L19.3349 9.44513C19.9995 9.81672 20.678 10.2069 21.3502 10.6067L21.8797 10.9245C22.2153 11.1267 22.551 11.3286 22.8894 11.5236L25.0389 12.7538L27.5855 9.02076V9.02097C27.7677 8.7521 28.024 8.54196 28.3234 8.41612C28.6229 8.29028 28.9524 8.25406 29.2718 8.31217C29.8306 8.40118 30.3051 8.7699 30.5295 9.2894C30.754 9.80892 30.6971 10.407 30.3789 10.875L27.067 15.7303C26.8121 16.0982 26.4282 16.357 25.9914 16.4556C25.5547 16.5543 25.0968 16.4853 24.7084 16.2627L20.6102 13.9037L18.4628 17.5501L21.8821 22.5564C22.1346 22.926 22.2338 23.379 22.1587 23.8203C22.0836 24.2615 21.8402 24.6564 21.4796 24.9216L14.8298 30.3189C14.5321 30.5432 14.1699 30.6651 13.7971 30.6662L13.7976 30.6665Z" fill="currentColor"/>
</svg>
