<svg width="24" height="24" viewBox="-3 -3 30 30"  fill="none" xmlns="http://www.w3.org/2000/svg">
<path d="M14.8969 15.7172C14.6297 15.7032 14.3766 15.8157 14.236 16.0407L12 19.5282L9.76402 16.0407C9.62344 15.8157 9.37031 15.6892 9.10312 15.7172C4.44844 16.2095 1.45312 17.7985 1.45312 19.7813C1.45312 22.5235 6.88125 24.0001 12 24.0001C17.1187 24.0001 22.5469 22.5235 22.5469 19.7813C22.5469 17.7985 19.5516 16.2095 14.8969 15.7172Z" fill="#E3E3E3"/>
<path d="M22.5469 19.7813C22.5469 22.5235 17.1187 24.0001 12 24.0001V19.5282L14.236 16.0407C14.3766 15.8157 14.6297 15.7031 14.8969 15.7172C19.5516 16.2095 22.5469 17.7985 22.5469 19.7813Z" fill="#E3E3E3"/>
<path d="M12 0C7.78125 0 4.26562 3.40308 4.26562 7.73438C4.26562 9.37964 4.75777 10.8562 5.71411 12.2344L11.4094 21.2156C11.55 21.4406 11.775 21.539 12 21.539C12.225 21.539 12.45 21.4406 12.5906 21.2156L18.3141 12.2062C19.2422 10.8844 19.7344 9.3375 19.7344 7.73438C19.7344 3.47339 16.261 0 12 0ZM12 11.25C10.0615 11.25 8.48438 9.67289 8.48438 7.73438C8.48438 5.79586 10.0615 4.21875 12 4.21875C13.9385 4.21875 15.5156 5.79586 15.5156 7.73438C15.5156 9.67289 13.9385 11.25 12 11.25Z" fill="currentColor"/>
<path d="M12 0V4.21875C13.9385 4.21875 15.5156 5.79586 15.5156 7.73438C15.5156 9.67289 13.9385 11.25 12 11.25V21.5391C12.225 21.5391 12.45 21.4406 12.5906 21.2157L18.3141 12.2062C19.2422 10.8844 19.7344 9.3375 19.7344 7.73438C19.7344 3.47339 16.261 0 12 0Z" fill="currentColor"/>
</svg>
