<svg width="24" height="24" viewBox="-3 -3 30 30"  fill="none" xmlns="http://www.w3.org/2000/svg">
<path d="M19.2014 12.4157C19.4218 13.7201 20.658 14.5987 21.9624 14.3783C23.2668 14.1578 24.1455 12.9216 23.925 11.6172C23.7046 10.3128 22.4684 9.43412 21.164 9.6546C20.1588 9.82453 19.3713 10.6121 19.2014 11.6172L16.3506 11.6174C16.2713 10.7367 15.9268 9.90092 15.3626 9.22015L20.4089 4.53432C21.576 5.18247 23.0474 4.76178 23.6956 3.59471C24.3437 2.42765 23.923 0.956174 22.756 0.308041C21.5889 -0.340091 20.1174 0.0805863 19.4693 1.24765C18.9702 2.14644 19.0942 3.26261 19.7784 4.02991L14.7986 8.65403C14.1143 8.07803 13.2698 7.72592 12.379 7.64524V4.79418C13.6834 4.5735 14.5619 3.33717 14.3412 2.03282C14.1205 0.728418 12.8842 -0.150063 11.5799 0.0706055C10.2755 0.291274 9.39702 1.5276 9.61768 2.83195C9.78775 3.83714 10.5753 4.62456 11.5806 4.79432V7.64524C10.6895 7.72583 9.84466 8.07793 9.1602 8.65407L4.18035 4.02996C5.05237 3.04683 4.96228 1.54297 3.97914 0.67098C2.99602 -0.201013 1.49216 -0.110889 0.620165 0.872238C-0.251827 1.85532 -0.161704 3.35917 0.821372 4.23117C1.575 4.8996 2.66786 5.02103 3.54984 4.53432L8.59611 9.22015C8.03192 9.90092 7.68738 10.7368 7.60814 11.6174H4.75745C4.53701 10.313 3.30092 9.4343 1.99657 9.65469C0.692174 9.87512 -0.186555 11.1112 0.0338637 12.4156C0.254282 13.72 1.49036 14.5987 2.79471 14.3783C3.7999 14.2084 4.58741 13.421 4.75735 12.4158H7.60818C7.69809 13.3975 8.11694 14.3199 8.79692 15.0336L4.0045 19.826C3.02875 18.9513 1.52864 19.0332 0.653899 20.0089C-0.220838 20.9847 -0.138898 22.4848 0.836843 23.3596C1.81259 24.2343 3.3127 24.1523 4.18744 23.1766C4.85834 22.4282 4.98494 21.3384 4.50342 20.4561L9.39812 15.5614C10.037 16.03 10.7915 16.3156 11.5805 16.3877V19.2384C10.2761 19.4587 9.39725 20.6947 9.61758 21.9991C9.83783 23.3035 11.0739 24.1824 12.3783 23.9621C13.6827 23.7418 14.5615 22.5058 14.3412 21.2014C14.1714 20.1962 13.3841 19.4086 12.379 19.2385V16.3877C13.2697 16.3069 14.1143 15.9548 14.7986 15.3789L19.7784 20.003C18.9064 20.9861 18.9965 22.4899 19.9796 23.3619C20.9627 24.2339 22.4666 24.1439 23.3386 23.1607C24.2106 22.1776 24.1205 20.6737 23.1374 19.8017C22.3837 19.1333 21.2909 19.0119 20.4089 19.4986L15.3626 14.8127C15.9268 14.1321 16.2712 13.2964 16.3506 12.4159L19.2014 12.4157ZM21.5607 10.4195C22.4426 10.4195 23.1575 11.1345 23.1575 12.0164C23.1575 12.8984 22.4426 13.6133 21.5607 13.6133C20.6787 13.6133 19.9638 12.8984 19.9638 12.0164C19.9647 11.1349 20.6791 10.4205 21.5607 10.4195ZM21.5607 0.838306C22.4426 0.838306 23.1575 1.55326 23.1575 2.43518C23.1575 3.3171 22.4426 4.03206 21.5607 4.03206C20.6787 4.03206 19.9638 3.3171 19.9638 2.43518C19.9647 1.55365 20.6791 0.839252 21.5607 0.838306ZM2.39814 4.03206C1.51662 4.03111 0.802209 3.31671 0.801263 2.43518C0.801263 1.55326 1.51621 0.838306 2.39814 0.838306C3.28006 0.838306 3.99502 1.55326 3.99502 2.43518C3.99502 3.3171 3.28006 4.03206 2.39814 4.03206ZM2.39814 13.6133C1.51621 13.6133 0.801263 12.8984 0.801263 12.0164C0.801263 11.1345 1.51621 10.4195 2.39814 10.4195C3.28006 10.4195 3.99502 11.1345 3.99502 12.0164C3.99407 12.898 3.27966 13.6124 2.39814 13.6133ZM2.39814 23.1946C1.51621 23.1946 0.801263 22.4796 0.801263 21.5977C0.801263 20.7158 1.51621 20.0008 2.39814 20.0008C3.28006 20.0008 3.99502 20.7158 3.99502 21.5977C3.99407 22.4792 3.27966 23.1936 2.39814 23.1946ZM21.5607 20.0008C22.4422 20.0018 23.1566 20.7161 23.1575 21.5977C23.1575 22.4796 22.4426 23.1946 21.5607 23.1946C20.6787 23.1946 19.9638 22.4796 19.9638 21.5977C19.9638 20.7158 20.6787 20.0008 21.5607 20.0008ZM10.3825 2.43518C10.3824 1.55326 11.0973 0.838204 11.9792 0.838103C12.8611 0.838006 13.5762 1.55286 13.5763 2.43478C13.5764 3.31671 12.8615 4.03176 11.9796 4.03186C11.0981 4.03091 10.3836 3.31666 10.3825 2.43518ZM13.5763 21.5977C13.5763 22.4796 12.8613 23.1946 11.9794 23.1946C11.0975 23.1946 10.3825 22.4796 10.3825 21.5977C10.3825 20.7158 11.0975 20.0008 11.9794 20.0008C12.8609 20.0018 13.5753 20.7161 13.5763 21.5977ZM11.9794 15.6094C9.99503 15.6094 8.38643 14.0008 8.38643 12.0164C8.38869 10.033 9.99595 8.4257 11.9794 8.42349C13.9638 8.42349 15.5724 10.0321 15.5724 12.0164C15.5724 14.0008 13.9637 15.6094 11.9794 15.6094Z" fill="#8C929A"/>
</svg>
