<svg width="24" height="24" viewBox="0 0 24 24" fill="none" xmlns="http://www.w3.org/2000/svg">
<path d="M12 2C10.9841 2 10.1577 2.82647 10.1577 3.84228V5.09823C10.2502 7.53857 13.7498 7.53853 13.8422 5.09819V3.84228C13.8422 2.82647 13.0158 2 12 2V2ZM12.6696 5.09823C12.6361 5.98509 11.3639 5.98552 11.3303 5.09823V3.84228C11.3303 3.47303 11.6307 3.17258 11.9999 3.17258C12.3692 3.17258 12.6696 3.47303 12.6696 3.84228V5.09823H12.6696Z" fill="currentColor"/>
<path d="M12 17.0723C10.9841 17.0723 10.1577 17.8987 10.1577 18.9145V20.1705C10.2502 22.6108 13.7498 22.6108 13.8422 20.1705V18.9145C13.8422 17.8987 13.0158 17.0723 12 17.0723ZM12.6696 20.1705C12.6361 21.0573 11.3639 21.0577 11.3303 20.1705V18.9145C11.3303 18.5453 11.6307 18.2448 11.9999 18.2448C12.3692 18.2448 12.6696 18.5453 12.6696 18.9145V20.1705H12.6696Z" fill="currentColor"/>
<path d="M20.1637 10.1641H18.9077C17.8919 10.1641 17.0654 10.9905 17.0654 12.0063C17.0654 13.0221 17.8919 13.8485 18.9077 13.8485H20.1637C22.604 13.7561 22.604 10.2564 20.1637 10.1641V10.1641ZM20.1637 12.676H18.9077C18.5385 12.676 18.238 12.3755 18.238 12.0063C18.238 11.6371 18.5385 11.3366 18.9077 11.3366H20.1637C21.0506 11.3701 21.051 12.6423 20.1637 12.676Z" fill="currentColor"/>
<path d="M6.93428 12.0063C6.93428 10.9905 6.10781 10.1641 5.092 10.1641H3.83609C1.39576 10.2565 1.3958 13.7562 3.83613 13.8486C3.83609 13.8486 5.09204 13.8486 5.09204 13.8486C6.10785 13.8485 6.93428 13.0221 6.93428 12.0063V12.0063ZM3.16639 12.0063C3.16639 11.6371 3.46685 11.3366 3.83609 11.3366H5.09204C5.9789 11.3702 5.97933 12.6423 5.09204 12.676H3.83609C3.46685 12.676 3.16639 12.3755 3.16639 12.0063V12.0063Z" fill="currentColor"/>
<path d="M18.187 8.42472L19.0751 7.53665C19.7934 6.81836 19.7934 5.64957 19.0751 4.93129C18.3568 4.21301 17.188 4.21301 16.4698 4.93129L15.5817 5.81936C13.9215 7.61032 16.3962 10.0849 18.187 8.42472ZM16.4108 6.64853L17.2989 5.76046C17.56 5.49937 17.9849 5.49933 18.246 5.76046C18.5071 6.02156 18.5071 6.44642 18.246 6.70752L17.3579 7.59559C16.7071 8.199 15.8072 7.29971 16.4108 6.64853Z" fill="currentColor"/>
<path d="M5.81254 15.5871L4.92447 16.4752C4.20619 17.1935 4.20615 18.3622 4.92447 19.0805C5.64275 19.7988 6.81154 19.7988 7.52983 19.0805L8.4179 18.1925C10.0781 16.4015 7.60342 13.9268 5.81254 15.5871V15.5871ZM7.58877 17.3633L6.70069 18.2514C6.4396 18.5125 6.01473 18.5125 5.7536 18.2514C5.49251 17.9903 5.49251 17.5654 5.7536 17.3043L6.64167 16.4162C7.29253 15.8128 8.19237 16.7121 7.58877 17.3633Z" fill="currentColor"/>
<path d="M18.1871 15.5871C16.3961 13.9269 13.9215 16.4015 15.5817 18.1924L16.4698 19.0805C17.1881 19.7988 18.3569 19.7988 19.0752 19.0805C19.7934 18.3622 19.7934 17.1934 19.0752 16.4751C19.0751 16.4751 18.1871 15.5871 18.1871 15.5871ZM18.246 18.2514C17.9849 18.5125 17.56 18.5125 17.2989 18.2514L16.4108 17.3632C15.8074 16.7124 16.7067 15.8126 17.3579 16.4162L18.246 17.3043C18.5071 17.5654 18.5071 17.9903 18.246 18.2514Z" fill="currentColor"/>
<path d="M7.52986 4.93081C5.73886 3.27063 3.26425 5.74528 4.92451 7.53616L5.81258 8.42424C6.53086 9.14252 7.69965 9.14256 8.41794 8.42424C9.13622 7.70595 9.13622 6.53716 8.41794 5.81888L7.52986 4.93081ZM7.58881 7.59511C7.32771 7.8562 6.90285 7.8562 6.64171 7.59511L5.75364 6.70699C5.15023 6.05617 6.04948 5.15633 6.70069 5.75994L7.58877 6.64801C7.8499 6.90915 7.8499 7.33401 7.58881 7.59511Z" fill="currentColor"/>
</svg>
