<svg width="30" height="30" viewBox="0 1 18 18" fill="none" xmlns="http://www.w3.org/2000/svg">
<g clip-path="url(#clip0_10247_55012)">
<path d="M6.75464 0V1.50154H8.25618V2.2523C8.78171 2.17723 9.23217 2.17723 9.75772 2.2523V1.50154H11.2593V0H6.75464Z" fill=""/>
<path d="M14.1121 4.95484L14.6377 4.42932L15.2383 5.02994L16.2894 3.97886L14.0371 1.72656L12.986 2.77765L13.5866 3.37823L12.9109 4.05392C9.30725 1.87669 4.65249 3.00284 2.55036 6.60651C0.44823 10.2102 1.57434 14.7148 5.10295 16.892C8.63156 19.0692 13.2863 17.9431 15.3885 14.3394C17.2654 11.2613 16.7398 7.3573 14.1121 4.95484ZM9.00692 15.6908C6.07894 15.6908 3.75157 13.3634 3.75157 10.4355C3.75157 7.50747 6.07894 5.18007 9.00692 5.18007V10.4354H14.2623C14.2623 13.3634 11.9349 15.6908 9.00692 15.6908Z" fill="currentColor"/>
</g>
<defs>
<clipPath id="clip0_10247_55012">
<rect width="18" height="18" fill="white"/>
</clipPath>
</defs>
</svg>
