<svg width="24" height="24" viewBox="-3 -3 30 30" fill="none" xmlns="http://www.w3.org/2000/svg">
<path d="M13.2 4.74V3.44444H14.4V1H9.6V3.44444H10.8V4.74C6.408 5.35111 3 9.18889 3 13.8333C3 18.8933 7.03191 23 12 23C16.9681 23 21 18.8934 21 13.8333C21 9.18889 17.592 5.35111 13.2 4.74ZM12 20.5556C8.35196 20.5556 5.4 17.5489 5.4 13.8333C5.4 10.1177 8.35196 7.11111 12 7.11111C15.648 7.11111 18.6 10.1177 18.6 13.8333C18.6 17.5489 15.648 20.5556 12 20.5556Z" fill="currentColor"/>
<path d="M3.02307 4.81318L4.72716 6.52425C5.68707 5.52198 6.81511 4.76425 8.08707 4.22643L7.1752 1.97754C5.61511 2.63758 4.19916 3.59092 3.02307 4.81314V4.81318Z" fill="currentColor"/>
<path d="M20.8573 4.69087C19.6813 3.51758 18.3373 2.61318 16.8253 1.97754L15.9132 4.22643C17.1372 4.73985 18.2412 5.47305 19.1772 6.42634L20.8573 4.69087Z" fill="currentColor"/>
<path d="M12.8509 14.695L11.1537 12.9665L14.7513 9.30176L16.4486 11.0302L12.8509 14.695Z" fill="currentColor"/>
</svg>
