<svg width="24" height="24" viewBox="0 0 24 24" fill="none" xmlns="http://www.w3.org/2000/svg">
<path d="M19.8994 7.55756L21.4714 5.32852C21.7211 4.97452 21.6365 4.48458 21.2824 4.23478L19.0924 2.69039C18.7384 2.44073 18.2485 2.52525 17.9987 2.87944L16.5997 4.86323C15.9295 4.51988 15.2162 4.24964 14.4703 4.06181V1.56975H15.8033C16.2367 1.56975 16.5881 1.21833 16.5881 0.784875C16.5881 0.351422 16.2367 0 15.8032 0C15.6079 0 8.46012 0 8.19649 0C7.76304 0 7.41162 0.351422 7.41162 0.784875C7.41162 1.21833 7.76304 1.56975 8.19649 1.56975H9.52943V4.06177C8.7836 4.24955 8.07021 4.51988 7.39999 4.86319L6.00096 2.87939C5.75135 2.52553 5.26141 2.4405 4.90723 2.69034L2.71727 4.23473C2.36304 4.48453 2.27838 4.97423 2.52823 5.32847L4.10023 7.55752C2.71057 9.29081 1.87793 11.489 1.87793 13.8782C1.87793 19.4594 6.41862 24 11.9998 24C17.581 24 22.1217 19.4594 22.1217 13.8781C22.1217 11.4889 21.289 9.29081 19.8994 7.55756ZM18.8291 4.42556L19.7362 5.06522L18.8051 6.38541C18.5304 6.13575 18.2423 5.90142 17.942 5.68336L18.8291 4.42556ZM11.0991 1.56975H12.9006V3.79617C12.6317 3.77236 12.302 3.75628 11.9999 3.75628C11.6987 3.75628 11.3697 3.77217 11.0992 3.79617V1.56975H11.0991ZM5.17043 4.42556L6.05749 5.68341C5.75726 5.90142 5.46916 6.1358 5.19443 6.38545L4.26335 5.06527L5.17043 4.42556ZM11.9998 22.4303C7.28412 22.4303 3.44768 18.5938 3.44768 13.8781C3.44768 8.67651 8.0922 4.62239 13.3167 5.42752C17.4094 6.06281 20.5519 9.61031 20.5519 13.8781C20.5519 18.5939 16.7154 22.4303 11.9998 22.4303Z" fill="currentColor"/>
<path d="M12.7852 12.6698V7.66964C12.7852 7.23619 12.4338 6.88477 12.0003 6.88477C11.5669 6.88477 11.2154 7.23619 11.2154 7.66964V12.6698C10.8208 12.9267 10.5596 13.3716 10.5596 13.8777C10.5596 14.6734 11.2046 15.3184 12.0003 15.3184C12.796 15.3184 13.4411 14.6734 13.4411 13.8777C13.4411 13.3717 13.1799 12.9268 12.7852 12.6698Z" fill="currentColor"/>
</svg>
