<svg width="24" height="24" viewBox="0 0 24 24" fill="none" xmlns="http://www.w3.org/2000/svg">
<path d="M19.0703 12.4755H17.1126C16.8461 12.4755 16.5882 12.5119 16.3427 12.5788C15.8584 11.6268 14.8696 10.9727 13.7303 10.9727H10.2697C9.13039 10.9727 8.14164 11.6268 7.65734 12.5788C7.41184 12.5119 7.15387 12.4755 6.88742 12.4755H4.92969C3.31426 12.4755 2 13.7897 2 15.4052V18.5348C2 19.504 2.78855 20.2926 3.75781 20.2926H20.2422C21.2114 20.2926 22 19.504 22 18.5348V15.4052C22 13.7897 20.6857 12.4755 19.0703 12.4755ZM7.34004 13.9024V19.1207H3.75781C3.43473 19.1207 3.17188 18.8579 3.17188 18.5348V15.4052C3.17188 14.4359 3.96043 13.6474 4.92969 13.6474H6.88742C7.04648 13.6474 7.20051 13.669 7.34715 13.7088C7.34293 13.7729 7.34004 13.8373 7.34004 13.9024ZM15.4881 19.1207H8.51191V13.9024C8.51191 12.9331 9.30047 12.1446 10.2697 12.1446H13.7303C14.6995 12.1446 15.4881 12.9331 15.4881 13.9024V19.1207ZM20.8281 18.5348C20.8281 18.8579 20.5653 19.1207 20.2422 19.1207H16.66V13.9024C16.66 13.8373 16.6571 13.7728 16.6529 13.7088C16.7995 13.669 16.9535 13.6473 17.1126 13.6473H19.0703C20.0396 13.6473 20.8281 14.4359 20.8281 15.4052V18.5348Z" fill="currentColor"/>
<path d="M5.90854 6.94141C4.47303 6.94141 3.30518 8.10926 3.30518 9.54477C3.30514 10.9803 4.47303 12.1481 5.90854 12.1481C7.344 12.1481 8.51189 10.9803 8.51189 9.54477C8.51189 8.10926 7.34404 6.94141 5.90854 6.94141ZM5.9085 10.9763C5.11916 10.9763 4.47701 10.3341 4.47701 9.54477C4.47701 8.75543 5.11916 8.11328 5.9085 8.11328C6.69783 8.11328 7.33998 8.75543 7.33998 9.54477C7.33998 10.3341 6.69783 10.9763 5.9085 10.9763Z" fill="currentColor"/>
<path d="M12 3.70898C10.0822 3.70898 8.52197 5.26922 8.52197 7.18703C8.52197 9.10484 10.0822 10.6651 12 10.6651C13.9178 10.6651 15.4781 9.10484 15.4781 7.18703C15.4781 5.26926 13.9178 3.70898 12 3.70898ZM12 9.4932C10.7284 9.4932 9.69385 8.45867 9.69385 7.18703C9.69385 5.91543 10.7284 4.88086 12 4.88086C13.2717 4.88086 14.3062 5.91539 14.3062 7.18703C14.3062 8.45867 13.2717 9.4932 12 9.4932Z" fill="currentColor"/>
<path d="M18.0916 6.94141C16.6562 6.94141 15.4883 8.10926 15.4883 9.54477C15.4883 10.9803 16.6562 12.1481 18.0916 12.1481C19.5271 12.1481 20.695 10.9803 20.695 9.54477C20.695 8.10926 19.5271 6.94141 18.0916 6.94141ZM18.0916 10.9763C17.3023 10.9763 16.6602 10.3341 16.6602 9.54477C16.6602 8.75543 17.3023 8.11328 18.0916 8.11328C18.881 8.11328 19.5231 8.75543 19.5231 9.54477C19.5231 10.3341 18.881 10.9763 18.0916 10.9763Z" fill="currentColor"/>
</svg>
