<svg width="24" height="24" viewBox="0 0 24 24" fill="none" xmlns="http://www.w3.org/2000/svg">
<path d="M3.48415 20.3367H13.6077C14.925 22.1419 17.462 22.5322 19.2672 21.2393C21.0724 19.922 21.4627 17.385 20.1698 15.5798C19.2672 14.3358 17.7304 13.7015 16.1936 13.9698C15.3154 12.6037 13.9737 11.6036 12.4125 11.1157C14.7787 9.89596 15.7057 6.9687 14.4616 4.60243C13.2175 2.23615 10.3146 1.30921 7.9483 2.5533C5.58203 3.79738 4.67949 6.7003 5.89918 9.06652C6.36267 9.94471 7.07011 10.6522 7.9483 11.1156C5.04539 12.0182 3.06946 14.7016 3.06946 17.7265V19.8975C3.06946 20.1415 3.26461 20.3367 3.48415 20.3367ZM16.096 14.8724C17.8035 14.4333 19.5356 15.4822 19.9747 17.1898C20.4138 18.8975 19.3648 20.6294 17.6572 21.0685C15.6569 21.5564 13.7053 20.0196 13.7053 17.9461C13.7053 16.4824 14.6811 15.2139 16.096 14.8724ZM6.21632 6.87105C6.21632 4.67557 7.9727 2.8948 10.1682 2.8948C12.3637 2.8948 14.1444 4.65117 14.1444 6.84665C14.1444 9.04212 12.3881 10.8229 10.1682 10.8229C7.9971 10.8229 6.21632 9.04217 6.21632 6.87105ZM3.92325 17.7265C3.92325 14.3845 6.63102 11.6767 9.99743 11.6523H10.4121C12.3637 11.6523 14.2176 12.6037 15.3642 14.2137C13.9005 14.8235 12.8759 16.2872 12.8759 17.946C12.8759 18.4339 12.9735 18.9705 13.1687 19.4828H3.92325V17.7265Z" fill="currentColor"/>
<path d="M15.2422 18.3851H16.4619V19.6049C16.4619 19.8488 16.6571 20.044 16.901 20.044C17.145 20.044 17.3401 19.8488 17.3401 19.6049V18.3851H18.5599C18.8038 18.3851 18.999 18.19 18.999 17.946C18.999 17.7021 18.8038 17.5069 18.5599 17.5069H17.3401V16.3116C17.3401 16.0676 17.145 15.8725 16.901 15.8725C16.6571 15.8725 16.4619 16.0676 16.4619 16.3116V17.5069H15.2422C14.9982 17.5069 14.8031 17.7021 14.8031 17.946C14.8031 18.19 14.9982 18.3851 15.2422 18.3851Z" fill="currentColor"/>
</svg>
