<svg width="24" height="24" viewBox="0 0 24 24" fill="none" xmlns="http://www.w3.org/2000/svg">
<path d="M22.3619 8.48714L21.3844 7.99842C24.0954 6.1913 22.8343 1.89708 19.5313 1.8833C16.2279 1.89722 14.9672 6.19247 17.6787 7.99871L16.6997 8.48836C16.5986 8.53894 16.5015 8.59491 16.4084 8.65533C16.2289 7.7745 15.6583 7.01841 14.8307 6.60502L13.8532 6.11635C16.5642 4.30917 15.303 0.0150488 12 0.0012207C8.69663 0.0151426 7.43597 4.31053 10.1476 6.11672L9.16866 6.60656C8.34211 7.01986 7.77206 7.77502 7.5922 8.65467C7.49859 8.59402 7.40105 8.53786 7.29947 8.4871L6.32194 7.99838C9.03281 6.1913 7.77169 1.89713 4.46869 1.88335C1.16531 1.89727 -0.0953438 6.19252 2.61614 7.99875L1.63716 8.48841C0.627328 8.99377 0 10.0091 0 11.1382V14.2606C0 14.649 0.314812 14.9638 0.703125 14.9638H3.01252V21.7731C3.01252 22.0057 3.12755 22.2232 3.31978 22.3542C3.51206 22.4851 3.75656 22.5126 3.97303 22.4274C3.98677 22.422 5.43572 21.8621 7.10278 21.7676C9.17733 21.65 10.6188 22.2813 11.3877 23.6437C11.6473 24.1169 12.3529 24.117 12.6124 23.6437C13.3813 22.2813 14.8228 21.65 16.8974 21.7676C18.5644 21.8621 20.0133 22.422 20.0271 22.4274C20.2436 22.5126 20.4881 22.4851 20.6804 22.3542C20.8726 22.2232 20.9876 22.0057 20.9876 21.7731V14.9638H23.2969C23.6852 14.9638 24 14.649 24 14.2606V11.137C24 10.0072 23.3722 8.9918 22.3619 8.48714ZM17.5985 5.22239C17.5985 4.15664 18.4655 3.2896 19.5313 3.2896C22.0919 3.38677 22.0912 7.05844 19.5312 7.15524C18.4655 7.15519 17.5985 6.28814 17.5985 5.22239ZM10.0672 3.34031C10.0672 2.27456 10.9342 1.40752 12 1.40752C14.5606 1.50469 14.5599 5.17636 12 5.27316C10.9342 5.27316 10.0672 4.40611 10.0672 3.34031ZM2.53594 5.22239C2.53594 4.15664 3.40298 3.2896 4.46873 3.2896C7.02938 3.38677 7.02867 7.05844 4.46869 7.15524C3.40298 7.15519 2.53594 6.28814 2.53594 5.22239ZM3.4583 12.0688C3.18933 12.1746 3.01252 12.4341 3.01252 12.7231V13.5575H1.40625V11.1382C1.40625 10.545 1.73587 10.0115 2.26636 9.74602L4.46887 8.64441L6.67073 9.74503C7.20155 10.0102 7.53127 10.5435 7.53127 11.137V11.2985C7.35323 11.2993 7.17202 11.3048 6.98714 11.316C5.10253 11.4293 3.52453 12.0428 3.4583 12.0688ZM11.2969 21.4401C10.2135 20.627 8.75611 20.2592 6.98709 20.3657C5.98327 20.4262 5.06648 20.6285 4.41872 20.8083V13.2255C4.97531 13.051 5.99044 12.7808 7.10269 12.7178C9.09811 12.6049 10.508 13.1846 11.2969 14.4416V21.4401ZM12 13.0395C11.2414 12.1817 10.2079 11.6333 8.93752 11.4111V9.25608C8.93752 8.66288 9.26705 8.12958 9.79777 7.86422L12.0001 6.76233L14.202 7.86296C14.7328 8.12808 15.0625 8.66147 15.0625 9.25496V11.4111C13.7921 11.6334 12.7586 12.1818 12 13.0395ZM19.5812 20.8083C18.9335 20.6285 18.0167 20.4262 17.0129 20.3657C15.2438 20.2593 13.7864 20.627 12.7031 21.4401V14.4417C13.4919 13.1847 14.9018 12.6049 16.8973 12.7179C18.0095 12.7809 19.0246 13.051 19.5812 13.2255V20.8083ZM22.5938 13.5575H20.9875V12.7231C20.9875 12.4341 20.8107 12.1746 20.5417 12.0688C20.4755 12.0428 18.8975 11.4293 17.0129 11.316C16.828 11.3048 16.6468 11.2994 16.4687 11.2985V11.1382C16.4687 10.545 16.7984 10.0115 17.3288 9.74602L19.5314 8.64441L21.7333 9.74503C22.264 10.0102 22.5938 10.5435 22.5938 11.137V13.5575Z" fill="currentColor"/>
<path d="M9.12899 17.4802C8.38785 17.3285 7.55886 17.2926 6.66514 17.3735C6.27838 17.4086 5.99328 17.7505 6.0283 18.1372C6.06336 18.524 6.40555 18.8091 6.79199 18.7741C7.54888 18.7055 8.24028 18.7337 8.84689 18.8579C9.3838 18.9676 9.63702 18.5042 9.67677 18.3101C9.75467 17.9296 9.50943 17.5581 9.12899 17.4802Z" fill="currentColor"/>
<path d="M9.12862 14.4639C8.38659 14.312 7.55766 14.276 6.66478 14.3568C5.73966 14.4754 5.8613 15.8071 6.79162 15.7573C7.54772 15.6888 8.23913 15.7172 8.84658 15.8416C9.38353 15.9513 9.6367 15.4879 9.67645 15.2937C9.75431 14.9133 9.50906 14.5417 9.12862 14.4639Z" fill="currentColor"/>
<path d="M17.3357 17.3735C16.4419 17.2926 15.613 17.3285 14.8718 17.4802C14.4914 17.5581 14.2461 17.9296 14.324 18.3101C14.3637 18.5042 14.617 18.9676 15.1539 18.8579C15.7605 18.7337 16.4518 18.7055 17.2088 18.7741C17.5952 18.8091 17.9374 18.524 17.9725 18.1372C18.0075 17.7505 17.7224 17.4085 17.3357 17.3735Z" fill="currentColor"/>
<path d="M14.8718 14.4639C14.4914 14.5418 14.2461 14.9133 14.324 15.2937C14.3638 15.4879 14.6169 15.9513 15.1539 15.8416C15.7613 15.7172 16.4527 15.6888 17.2088 15.7573C18.1399 15.8068 18.2601 14.475 17.3357 14.3568C16.4428 14.276 15.6139 14.3119 14.8718 14.4639Z" fill="currentColor"/>
</svg>
