<svg width="24" height="24" viewBox="-2 -2 17 17"  fill="none" xmlns="http://www.w3.org/2000/svg">
<path d="M7.82216 3.06077C7.82216 4.15529 6.94015 5.03822 5.85737 5.03822C4.77468 5.03822 3.89258 4.15528 3.89258 3.06077C3.89258 1.96616 4.77467 1.08331 5.85737 1.08331C6.94017 1.08331 7.82216 1.96614 7.82216 3.06077Z" fill="currentColor" stroke="currentColor"/>
<path d="M10.7874 8.13129C9.34133 8.13129 8.1582 9.32046 8.1582 10.774C8.1582 12.2275 9.3413 13.4166 10.7874 13.4166C12.2334 13.4166 13.4165 12.2275 13.4165 10.774C13.4165 9.32046 12.2334 8.13129 10.7874 8.13129ZM11.9212 11.1042H11.116V11.9136C11.116 12.0952 10.9681 12.2439 10.7874 12.2439C10.6066 12.2439 10.4588 12.0952 10.4588 11.9136V11.1042H9.6536C9.47284 11.1042 9.32499 10.9556 9.32499 10.7739C9.32499 10.5922 9.47285 10.4436 9.6536 10.4436H10.4588V9.63431C10.4588 9.45262 10.6067 9.30401 10.7874 9.30401C10.9682 9.30401 11.116 9.45263 11.116 9.63431V10.4436H11.9212C12.102 10.4436 12.2498 10.5923 12.2498 10.7739C12.2498 10.9556 12.102 11.1042 11.9212 11.1042Z" fill="currentColor"/>
<path d="M10.0642 7.55323C9.35766 6.81003 8.37168 6.33099 7.27077 6.33099H4.42808C2.30842 6.33099 0.583008 8.06524 0.583008 10.1958C0.583008 10.7574 1.0431 11.2198 1.60176 11.2198H7.53368C7.51729 11.0712 7.50079 10.9226 7.50079 10.774C7.50079 9.20493 8.60173 7.88359 10.0641 7.55326L10.0642 7.55323Z" fill="currentColor"/>
</svg>
