<svg width="24" height="24" viewBox="-3 -3 30 30" fill="none" xmlns="http://www.w3.org/2000/svg">
<path d="M23 9.98767C23.0024 9.62462 22.9081 9.2675 22.7271 8.95372C22.5461 8.63974 22.2848 8.38056 21.9706 8.20299L13.6802 3.44618C12.6376 2.85127 11.3615 2.85127 10.319 3.44618L2.02951 8.20357C1.61073 8.44383 1.29012 8.82582 1.12431 9.28168C0.95869 9.73755 0.958501 10.2379 1.12412 10.694C1.28974 11.1499 1.61019 11.5321 2.02874 11.7723L4.81125 13.3691V16.2736C4.80916 17.3371 5.29882 18.3413 6.13563 18.9893C7.81661 20.2932 9.8783 21 11.9996 21C14.1206 20.9998 16.1821 20.2926 17.863 18.9887C18.7 18.3409 19.1897 17.3371 19.1874 16.2736V13.3691L20.7545 12.4697V18.8706C20.7545 19.2486 21.0586 19.5551 21.4337 19.5551C21.8089 19.5551 22.1128 19.2486 22.1128 18.8706V11.6635C22.6673 11.2888 22.9998 10.6605 22.9996 9.98787L23 9.98767ZM2.35783 9.98767C2.35499 9.74092 2.48668 9.51251 2.70062 9.39276H2.70138L10.9918 4.63596C11.6171 4.27863 12.3827 4.27863 13.008 4.63596L21.2989 9.39335H21.2991C21.5109 9.51501 21.6417 9.74208 21.6417 9.98787C21.6417 10.2337 21.5109 10.4607 21.2991 10.5826L13.0082 15.3403C12.3828 15.6973 11.6173 15.6973 10.992 15.3403L2.70109 10.5826C2.48715 10.4628 2.35545 10.2344 2.35829 9.98767H2.35783ZM17.8297 16.2737C17.8305 16.9136 17.5356 17.5174 17.032 17.9067C15.589 19.0247 13.82 19.6309 12 19.6309C10.1799 19.6309 8.411 19.0248 6.96801 17.9067C6.46452 17.5169 6.16948 16.9131 6.17026 16.2731V14.1495L10.3194 16.5305V16.5303C11.3622 17.1248 12.6379 17.1248 13.6806 16.5303L17.8298 14.1491L17.8297 16.2737Z" fill="currentColor"/>
</svg>
