<svg width="24" height="24" viewBox="0 0 24 24" fill="none" xmlns="http://www.w3.org/2000/svg">
<path d="M20.7809 2.25183H3.21914C1.44408 2.25183 0 3.69596 0 5.47102V18.529C0 20.3041 1.44408 21.7482 3.21914 21.7482H20.7809C22.5559 21.7482 24 20.3041 24 18.529V5.47102C24 3.69596 22.5559 2.25183 20.7809 2.25183ZM22.2222 18.529C22.2222 19.3238 21.5756 19.9703 20.7809 19.9703H3.21914C2.42438 19.9703 1.77778 19.3238 1.77778 18.529V13.037H22.2222V18.529ZM22.2222 11.2593H1.77778V8.59261H22.2222V11.2593ZM22.2222 6.81483H1.77778V5.47102C1.77778 4.67625 2.42438 4.02966 3.21914 4.02966H20.7809C21.5756 4.02966 22.2222 4.67625 22.2222 5.47102V6.81483Z" fill="currentColor"/>
<path d="M19.9108 16.6519H11.4367C10.9458 16.6519 10.5479 17.0498 10.5479 17.5407C10.5479 18.0317 10.9458 18.4296 11.4367 18.4296H19.9108C20.4017 18.4296 20.7997 18.0317 20.7997 17.5407C20.7997 17.0499 20.4017 16.6519 19.9108 16.6519Z" fill="currentColor"/>
</svg>
