<svg width="24" height="24" viewBox="0 0 24 24" fill="none" xmlns="http://www.w3.org/2000/svg">
<path d="M23.9279 12.4303L21.0162 1.56365C20.7151 0.440193 19.5562 -0.228948 18.4327 0.0721301L3.0383 4.19704C1.9148 4.49807 1.2457 5.657 1.54673 6.78046L2.01647 8.53358C0.896297 8.58243 0 9.50868 0 10.6406V21.8906C0 23.0537 0.946266 24 2.10938 24H18.0469C19.21 24 20.1562 23.0537 20.1562 21.8906V15.6247L22.4363 15.0138C23.5598 14.7127 24.2289 13.5538 23.9279 12.4303ZM20.4464 4.87068L20.8104 6.22902L12.2183 8.53124H6.78502L20.4464 4.87068ZM3.40228 5.55538L18.7967 1.43043C19.1713 1.33007 19.5575 1.5531 19.6579 1.92763L20.0825 3.51233L3.32967 8.00122L2.90503 6.41652C2.80472 6.04204 3.02775 5.65574 3.40228 5.55538ZM18.75 21.8906C18.75 22.2783 18.4346 22.5937 18.0469 22.5937H2.10938C1.72167 22.5937 1.40625 22.2783 1.40625 21.8906V10.6406C1.40625 10.2529 1.72167 9.93749 2.10938 9.93749H18.0469C18.4346 9.93749 18.75 10.2529 18.75 10.6406V21.8906ZM22.0724 13.6555L20.1562 14.1689V10.6406C20.1562 9.4775 19.21 8.53124 18.0469 8.53124H17.6517L21.1743 7.58736L22.5695 12.7943C22.6699 13.1688 22.4468 13.5551 22.0724 13.6555Z" fill="currentColor"/>
<path d="M3.51562 15.5625H8.20312C8.59144 15.5625 8.90625 15.2477 8.90625 14.8594V12.0469C8.90625 11.6586 8.59144 11.3438 8.20312 11.3438H3.51562C3.12731 11.3438 2.8125 11.6586 2.8125 12.0469V14.8594C2.8125 15.2477 3.12731 15.5625 3.51562 15.5625ZM4.21875 12.75H7.5V14.1562H4.21875V12.75Z" fill="currentColor"/>
<path d="M16.6406 11.3438H14.2969C13.9086 11.3438 13.5938 11.6586 13.5938 12.0469C13.5938 12.4352 13.9086 12.75 14.2969 12.75H16.6406C17.0289 12.75 17.3438 12.4352 17.3438 12.0469C17.3438 11.6586 17.0289 11.3438 16.6406 11.3438Z" fill="currentColor"/>
<path d="M16.6406 14.1562H14.2969C13.9086 14.1562 13.5938 14.4711 13.5938 14.8594C13.5938 15.2477 13.9086 15.5625 14.2969 15.5625H16.6406C17.0289 15.5625 17.3438 15.2477 17.3438 14.8594C17.3438 14.4711 17.0289 14.1562 16.6406 14.1562Z" fill="currentColor"/>
<path d="M8.20312 19.7812H3.51562C3.12731 19.7812 2.8125 20.0961 2.8125 20.4844C2.8125 20.8727 3.12731 21.1875 3.51562 21.1875H8.20312C8.59144 21.1875 8.90625 20.8727 8.90625 20.4844C8.90625 20.0961 8.59144 19.7812 8.20312 19.7812Z" fill="currentColor"/>
<path d="M3.51562 18.375H4.92188C5.31019 18.375 5.625 18.0602 5.625 17.6719C5.625 17.2836 5.31019 16.9688 4.92188 16.9688H3.51562C3.12731 16.9688 2.8125 17.2836 2.8125 17.6719C2.8125 18.0602 3.12731 18.375 3.51562 18.375Z" fill="currentColor"/>
<path d="M9.14062 16.9688H7.73438C7.34606 16.9688 7.03125 17.2836 7.03125 17.6719C7.03125 18.0602 7.34606 18.375 7.73438 18.375H9.14062C9.52894 18.375 9.84375 18.0602 9.84375 17.6719C9.84375 17.2836 9.52894 16.9688 9.14062 16.9688Z" fill="currentColor"/>
<path d="M13.3594 16.9688H11.9531C11.5648 16.9688 11.25 17.2836 11.25 17.6719C11.25 18.0602 11.5648 18.375 11.9531 18.375H13.3594C13.7477 18.375 14.0625 18.0602 14.0625 17.6719C14.0625 17.2836 13.7477 16.9688 13.3594 16.9688Z" fill="currentColor"/>
</svg>