<svg width="24" height="24" viewBox="-3 -3 30 30" fill="none" xmlns="http://www.w3.org/2000/svg">
<path d="M10.2608 10.9C10.1717 10.9 10.0827 10.8641 10.0149 10.7926L7.23222 7.85924C7.09626 7.71591 7.09626 7.48419 7.23222 7.34071C7.36819 7.19738 7.58801 7.19738 7.72411 7.34071L10.5068 10.2741C10.6427 10.4174 10.6427 10.6491 10.5068 10.7926C10.4389 10.8641 10.3498 10.9 10.2607 10.9H10.2608Z" fill="currentColor"/>
<path d="M7.47847 10.9C7.38938 10.9 7.30043 10.8641 7.23259 10.7926C7.09662 10.6493 7.09662 10.4176 7.23259 10.2741L10.0152 7.34071C10.1512 7.19738 10.371 7.19738 10.5071 7.34071C10.6431 7.48404 10.6431 7.71577 10.5071 7.85924L7.72448 10.7926C7.65649 10.8641 7.5674 10.9 7.47845 10.9H7.47847Z" fill="currentColor"/>
<path d="M16.5217 19.7C16.4326 19.7 16.3437 19.6641 16.2758 19.5926L14.8846 18.126C14.7486 17.9826 14.7486 17.7509 14.8846 17.6074C15.0205 17.4641 15.2404 17.4641 15.3765 17.6074L16.7677 19.074C16.9037 19.2174 16.9037 19.4491 16.7677 19.5926C16.6999 19.6641 16.6108 19.7 16.5217 19.7H16.5217Z" fill="currentColor"/>
<path d="M15.1304 19.7C15.0414 19.7 14.9524 19.6641 14.8846 19.5926C14.7486 19.4492 14.7486 19.2175 14.8846 19.074L16.2758 17.6074C16.4118 17.4641 16.6316 17.4641 16.7677 17.6074C16.9037 17.7508 16.9037 17.9825 16.7677 18.126L15.3765 19.5926C15.3085 19.6641 15.2195 19.7 15.1304 19.7H15.1304Z" fill="currentColor"/>
<path d="M9.2173 18.9665C8.44997 18.9665 7.82605 18.3088 7.82605 17.4999C7.82605 16.691 8.44997 16.0333 9.2173 16.0333C9.98463 16.0333 10.6086 16.691 10.6086 17.4999C10.6087 18.3088 9.98463 18.9665 9.2173 18.9665ZM9.2173 16.7666C8.83371 16.7666 8.5216 17.0954 8.5216 17.4999C8.5216 17.9043 8.83357 18.2333 9.2173 18.2333C9.60089 18.2333 9.913 17.9045 9.913 17.4999C9.913 17.0956 9.60104 16.7666 9.2173 16.7666Z" fill="currentColor"/>
<path d="M14.7827 16.0335C14.0154 16.0335 13.3915 15.3758 13.3915 14.5669C13.3915 13.758 14.0154 13.1003 14.7827 13.1003C15.5501 13.1003 16.174 13.758 16.174 14.5669C16.174 15.3756 15.5501 16.0335 14.7827 16.0335ZM14.7827 13.8335C14.3991 13.8335 14.087 14.1624 14.087 14.5669C14.087 14.9713 14.399 15.3003 14.7827 15.3003C15.1663 15.3003 15.4784 14.9714 15.4784 14.5669C15.4783 14.1624 15.1663 13.8335 14.7827 13.8335Z" fill="currentColor"/>
<path d="M9.21728 14.2C9.02527 14.2 8.86951 14.0361 8.86951 13.8334C8.86951 13.6307 9.02527 13.4668 9.21728 13.4668C11.9026 13.4668 14.087 11.1641 14.087 8.33335C14.087 8.13063 14.2427 7.96674 14.4347 7.96674C14.6268 7.96674 14.7825 8.13063 14.7825 8.33335C14.7827 11.568 12.2859 14.1999 9.21743 14.1999L9.21728 14.2Z" fill="currentColor"/>
<path d="M15.8263 10.1666C15.7372 10.1666 15.6483 10.1307 15.5804 10.0592L14.4349 8.85176L13.2895 10.0592C13.1536 10.2025 12.9338 10.2025 12.7977 10.0592C12.6617 9.91583 12.6617 9.6841 12.7977 9.54063L14.1889 8.07402C14.3249 7.93069 14.5447 7.93069 14.6808 8.07402L16.072 9.54063C16.208 9.68396 16.208 9.91568 16.072 10.0592C16.0044 10.1307 15.9153 10.1666 15.8263 10.1666H15.8263Z" fill="currentColor"/>
<path d="M15.8262 5.7666H8.17383C7.98181 5.7666 7.82605 5.6027 7.82605 5.39998V3.39426C7.82605 2.68083 8.3766 2.1 9.05381 2.1H9.94386C10.2027 2.1 10.4499 1.96725 10.6055 1.74474C10.9311 1.27869 11.4525 1 12 1C12.5474 1 13.0688 1.27868 13.3944 1.74474C13.5499 1.96725 13.7972 2.1 14.0559 2.1H14.946C15.6233 2.1 16.1739 2.68083 16.1739 3.39426V5.39998C16.1739 5.60271 16.0181 5.7666 15.8261 5.7666H15.8262ZM8.5219 5.03337H15.4785L15.4784 3.39426C15.4784 3.08519 15.2395 2.83338 14.9463 2.83338H14.0563C13.5773 2.83338 13.1207 2.58923 12.8348 2.17963C12.6364 1.89573 12.3324 1.73338 12.0002 1.73338C11.6679 1.73338 11.364 1.89574 11.166 2.17963C10.8798 2.58906 10.4232 2.83338 9.94424 2.83338H9.05404C8.76085 2.83338 8.52198 3.08521 8.52198 3.39426L8.5219 5.03337Z" fill="currentColor"/>
<path d="M18.2609 23H5.73918C4.7803 23 4 22.1776 4 21.1666V4.66669C4 3.65587 4.78015 2.83331 5.73918 2.83331H8.17391C8.36592 2.83331 8.52168 2.99721 8.52168 3.19993V5.0333H15.4783V3.20008C15.4783 2.99736 15.6341 2.83347 15.8261 2.83347H18.2608C19.2197 2.83347 20 3.65587 20 4.66685V21.1668C20.0001 22.1776 19.2199 23 18.261 23H18.2609ZM5.73918 3.56662C5.16385 3.56662 4.6957 4.06012 4.6957 4.66661V21.1666C4.6957 21.773 5.16385 22.2665 5.73918 22.2665H18.2609C18.8362 22.2665 19.3044 21.773 19.3044 21.1666V4.66661C19.3044 4.06012 18.8362 3.56662 18.2609 3.56662H16.1739V5.4C16.1739 5.60272 16.0182 5.76661 15.8262 5.76661H8.17376C7.98175 5.76661 7.82598 5.60271 7.82598 5.4V3.56662H5.73918Z" fill="currentColor"/>
<path d="M17.5651 21.5335H6.43496C5.85963 21.5335 5.39148 21.0399 5.39148 20.4335V5.40004C5.39148 4.79355 5.85963 4.30005 6.43496 4.30005H8.17413C8.36614 4.30005 8.52191 4.46394 8.52191 4.66666V5.03327H15.4785V4.66666C15.4785 4.46394 15.6343 4.30005 15.8263 4.30005H17.5655C18.1408 4.30005 18.609 4.79355 18.609 5.40004V20.4335C18.6088 21.0399 18.1407 21.5335 17.5653 21.5335H17.5651ZM6.43496 5.03351C6.24324 5.03351 6.08718 5.19771 6.08718 5.40012V20.4335C6.08718 20.6359 6.24338 20.8001 6.43496 20.8001H17.5655C17.7572 20.8001 17.9133 20.6359 17.9133 20.4335V5.40012C17.9133 5.19771 17.7571 5.03351 17.5655 5.03351H16.1742V5.40012C16.1742 5.60284 16.0185 5.76674 15.8265 5.76674H8.17406C7.98205 5.76674 7.82628 5.60284 7.82628 5.40012V5.03351H6.43496Z" fill="currentColor"/>
<path d="M12.3495 4.66667H11.6503C11.2678 4.66667 10.9565 4.33857 10.9565 3.93529V3.19821C10.9565 2.79491 11.2678 2.46667 11.6505 2.46667H12.3497C12.7323 2.46667 13.0435 2.79493 13.0435 3.19821V3.93529C13.0435 4.33859 12.7323 4.66667 12.3495 4.66667ZM12.3478 3.19821L11.6505 3.20005L11.6522 3.93528L12.3482 3.93344L12.3478 3.19821Z" fill="currentColor"/>
</svg>
