<svg width="24" height="24" viewBox="-3 -3 30 30" fill="none" xmlns="http://www.w3.org/2000/svg">
<path fill-rule="evenodd" clip-rule="evenodd" d="M6.61523 17.3627C6.61523 18.1343 7.24076 18.7599 8.01245 18.7599C8.78414 18.7599 9.40971 18.1343 9.40971 17.3627C9.40971 16.591 8.78414 15.9654 8.01245 15.9654C7.24076 15.9654 6.61523 16.591 6.61523 17.3627ZM8.01245 18.0568C7.62914 18.0568 7.31834 17.746 7.31834 17.3627C7.31834 16.9793 7.62914 16.6685 8.01245 16.6685C8.3958 16.6685 8.70656 16.9793 8.70656 17.3627C8.70656 17.746 8.3958 18.0568 8.01245 18.0568Z" fill="#8C929A"/>
<path fill-rule="evenodd" clip-rule="evenodd" d="M8.613 15.2104C8.80094 15.2592 8.99284 15.1463 9.04158 14.9584C9.35944 13.7325 9.98187 12.276 11.192 11.2137C12.3896 10.1623 14.2044 9.46044 16.9894 9.80964C17.182 9.83378 17.3578 9.69716 17.382 9.50451C17.4061 9.31187 17.2695 9.13611 17.0768 9.11198C14.1219 8.74145 12.0979 9.48278 10.7281 10.6853C9.37089 11.8767 8.69732 13.4847 8.36095 14.7819C8.31221 14.9698 8.42506 15.1617 8.613 15.2104Z" fill="#8C929A"/>
<path fill-rule="evenodd" clip-rule="evenodd" d="M15.7987 10.8424C15.9435 10.9717 16.1657 10.9592 16.2951 10.8145L17.2953 9.69499C17.4231 9.55196 17.4126 9.33287 17.2718 9.20267L16.1767 8.18991C16.0341 8.0581 15.8117 8.06678 15.6799 8.20935C15.5481 8.35187 15.5567 8.57433 15.6993 8.70615L16.5407 9.48425L15.7708 10.346C15.6414 10.4908 15.6539 10.7131 15.7987 10.8424Z" fill="#8C929A"/>
<path fill-rule="evenodd" clip-rule="evenodd" d="M16.8857 18.0827C17.0229 17.9454 17.0229 17.7229 16.8857 17.5855L14.9863 15.6861C14.849 15.5488 14.6264 15.5488 14.4891 15.6861C14.3518 15.8234 14.3518 16.0459 14.4891 16.1833L16.3885 18.0827C16.5258 18.22 16.7484 18.22 16.8857 18.0827Z" fill="#8C929A"/>
<path fill-rule="evenodd" clip-rule="evenodd" d="M14.4891 18.0827C14.6264 18.22 14.849 18.22 14.9863 18.0827L16.8857 16.1833C17.0229 16.0459 17.0229 15.8234 16.8857 15.6861C16.7484 15.5488 16.5258 15.5488 16.3885 15.6861L14.4891 17.5855C14.3518 17.7229 14.3518 17.9454 14.4891 18.0827Z" fill="#8C929A"/>
<path fill-rule="evenodd" clip-rule="evenodd" d="M9.5047 8.53643C9.64201 8.39917 9.64201 8.17657 9.5047 8.03926L7.60529 6.13985C7.46798 6.00254 7.24538 6.00254 7.10807 6.13985C6.97081 6.27715 6.97081 6.49975 7.10807 6.63702L9.00753 8.53643C9.1448 8.67374 9.3674 8.67374 9.5047 8.53643Z" fill="#8C929A"/>
<path fill-rule="evenodd" clip-rule="evenodd" d="M7.10807 8.53643C7.24538 8.67374 7.46798 8.67374 7.60529 8.53643L9.5047 6.63702C9.64201 6.49975 9.64201 6.27715 9.5047 6.13985C9.3674 6.00254 9.1448 6.00254 9.00753 6.13985L7.10807 8.03926C6.97081 8.17657 6.97081 8.39917 7.10807 8.53643Z" fill="#8C929A"/>
<path fill-rule="evenodd" clip-rule="evenodd" d="M4.77112 22.1484C4.77112 22.3426 4.9285 22.5 5.12267 22.5H18.8775C19.0717 22.5 19.229 22.3426 19.229 22.1484V2.42559C19.229 2.23143 19.0717 2.07404 18.8775 2.07404C18.6833 2.07404 18.5259 2.23143 18.5259 2.42559V21.7969H5.47423V2.42559C5.47423 2.23143 5.31684 2.07404 5.12267 2.07404C4.9285 2.07404 4.77112 2.23143 4.77112 2.42559V22.1484Z" fill="#8C929A"/>
<path fill-rule="evenodd" clip-rule="evenodd" d="M8.87223 3.11358C8.75735 3.11358 8.66421 3.02044 8.66421 2.90555V1.94536C8.66421 1.83048 8.75735 1.73733 8.87223 1.73733H10.8887C11.0733 1.73733 11.2264 1.59463 11.2394 1.41054C11.2673 1.01519 11.5973 0.702852 12 0.702852C12.4026 0.702852 12.7326 1.01518 12.7606 1.41054C12.7735 1.59463 12.9267 1.73733 13.1112 1.73733H15.1277C15.2426 1.73733 15.3358 1.83048 15.3358 1.94536V2.90555C15.3358 3.02044 15.2426 3.11358 15.1277 3.11358H8.87223ZM7.96106 2.90555C7.96106 3.40876 8.36901 3.81671 8.87223 3.81671H15.1277C15.631 3.81671 16.0389 3.40876 16.0389 2.90555V1.94536C16.0389 1.44216 15.631 1.03421 15.1277 1.03421H13.4011C13.2169 0.435117 12.6595 -0.000274658 12 -0.000274658C11.3405 -0.000274658 10.783 0.435111 10.5988 1.03421H8.87223C8.36901 1.03421 7.96106 1.44216 7.96106 1.94536V2.90555Z" fill="#8C929A"/>
<path fill-rule="evenodd" clip-rule="evenodd" d="M4.4737 23.2969C4.19788 23.2969 3.97424 23.0733 3.97424 22.7974V3.27675C3.97424 3.00091 4.19788 2.7773 4.4737 2.7773H6.90624C7.10041 2.7773 7.2578 2.6199 7.2578 2.42574C7.2578 2.23158 7.10041 2.07417 6.90624 2.07417H4.4737C3.80958 2.07417 3.27112 2.61256 3.27112 3.27675V22.7974C3.27112 23.4616 3.80958 24 4.4737 24H19.5262C20.1904 24 20.7288 23.4616 20.7288 22.7974V3.27675C20.7288 2.61257 20.1904 2.07417 19.5262 2.07417H17.113C16.9189 2.07417 16.7615 2.23158 16.7615 2.42574C16.7615 2.6199 16.9189 2.7773 17.113 2.7773H19.5262C19.802 2.7773 20.0257 3.0009 20.0257 3.27675V22.7974C20.0257 23.0733 19.802 23.2969 19.5262 23.2969H4.4737Z" fill="#8C929A"/>
</svg>
