<svg width="40" height="40" viewBox="0 0 40 40" fill="none" xmlns="http://www.w3.org/2000/svg">
<path d="M6.64011 13.6562C6.3198 13.5702 5.99949 13.7499 5.90574 14.0702L5.76511 14.5937C5.73386 14.8984 5.92136 15.1796 6.21042 15.2499C6.51511 15.3281 6.83542 15.1484 6.93699 14.8359L7.06199 14.3906C7.14011 14.0702 6.95261 13.7499 6.64011 13.6562Z" fill="currentColor"/>
<path d="M10.4997 8.04617C10.3669 7.74148 10.0232 7.60086 9.71848 7.73367C8.58566 8.22586 7.69504 9.11648 7.21066 10.2493C6.96848 10.8118 6.72629 11.4602 6.49191 12.179C6.39035 12.4915 6.55441 12.8274 6.86691 12.929C6.92941 12.9524 6.99191 12.9602 7.05441 12.9602C7.30441 12.9602 7.53879 12.804 7.61691 12.554C7.83566 11.9055 8.06223 11.2884 8.30441 10.7102C8.66379 9.85867 9.33566 9.18679 10.1872 8.82742C10.4841 8.69461 10.6247 8.34304 10.4997 8.04617Z" fill="currentColor"/>
<path d="M37.7812 18.9453C37.7421 18.7109 36.7265 13.1016 35.0937 9.27344C34.3593 7.54687 33.0078 6.1875 31.2812 5.45313C29.9843 4.89063 28.4843 4.22656 27.1953 3.58594C26.0781 3.03125 24.9687 2.625 23.8984 2.35938C22.6484 2.05469 21.414 1.91406 20 1.91406C18.5859 1.91406 17.3515 2.05469 16.1015 2.35938C15.0312 2.625 13.914 3.03125 12.8046 3.58594C11.5156 4.22656 10.0156 4.89063 8.71871 5.45313C6.99996 6.19531 5.64058 7.55469 4.90621 9.28125C3.26558 13.1172 2.25777 18.7109 2.21871 18.9453C2.17964 19.1719 2.27339 19.3984 2.46089 19.5312C4.71871 21.1328 7.39058 21.5703 8.85933 21.6875V36.4844C8.85933 37.3828 9.58589 38.1094 10.4843 38.1094H29.5156C30.414 38.1094 31.1406 37.3828 31.1406 36.4844V21.6797C32.7656 21.5547 35.3359 21.1016 37.539 19.5312C37.7265 19.3984 37.8203 19.1641 37.7812 18.9453ZM16.3828 3.50781C17.539 3.22656 18.6875 3.09375 20 3.09375C21.3125 3.09375 22.4609 3.22656 23.6171 3.50781C24.2187 3.65625 24.8359 3.875 25.4609 4.125C24.6484 6.4375 22.4843 8.01562 20 8.01562C17.5156 8.01562 15.3437 6.4375 14.539 4.125C15.164 3.86719 15.7812 3.65625 16.3828 3.50781ZM13.3281 4.64063C13.3671 4.625 13.4062 4.60937 13.4453 4.59375C14.4453 7.32812 17.0312 9.19531 20 9.19531C22.9687 9.19531 25.5546 7.32812 26.5546 4.58594C26.5937 4.60156 26.6328 4.61719 26.6718 4.64063C26.9687 4.78906 27.2734 4.92969 27.5781 5.07812C26.3906 8.1875 23.3593 10.3359 20 10.3359C16.6406 10.3359 13.6015 8.19531 12.4218 5.07812C12.7343 4.9375 13.039 4.78906 13.3281 4.64063ZM31.1406 20.4844V16.0469C31.1406 15.7187 30.875 15.4531 30.5468 15.4531C30.2187 15.4531 29.9531 15.7187 29.9531 16.0469V36.4687C29.9531 36.7109 29.7578 36.9062 29.5156 36.9062H10.4843C10.2421 36.9062 10.0468 36.7109 10.0468 36.4687V16.0469C10.0468 15.7187 9.78121 15.4531 9.45308 15.4531C9.12496 15.4531 8.85933 15.7187 8.85933 16.0469V20.4844C7.57808 20.375 5.37496 20.0078 3.46089 18.7656C3.71871 17.4375 4.65621 12.8906 5.99996 9.73437C6.61714 8.28906 7.74996 7.15625 9.18746 6.53125C9.86714 6.23437 10.6093 5.90625 11.3437 5.57813C12.7187 9.10156 16.1718 11.5234 20 11.5234C23.8281 11.5234 27.2812 9.10156 28.6562 5.57813C29.3906 5.91406 30.1328 6.23437 30.8125 6.53125C32.25 7.14844 33.3828 8.28906 34 9.73437C35.3437 12.8828 36.2812 17.4453 36.539 18.7734C34.6328 20.0078 32.4296 20.375 31.1406 20.4844Z" fill="currentColor"/>
<path d="M27.3516 16.6484H23.1328C22.4219 16.6484 21.8438 17.2266 21.8438 17.9375V21.5859C21.8438 22.0937 22.1406 22.5547 22.6094 22.7578L24.7187 23.7031C24.8828 23.7734 25.0625 23.8125 25.2422 23.8125C25.4219 23.8125 25.6016 23.7734 25.7656 23.7031L27.875 22.7656C28.3437 22.5625 28.6406 22.1016 28.6406 21.5859V17.9375C28.6406 17.2266 28.0625 16.6484 27.3516 16.6484ZM27.4531 21.5781C27.4531 21.6172 27.4297 21.6562 27.3906 21.6719L25.2031 22.6094L23.0312 21.5781V17.9297C23.0312 17.875 23.0781 17.8281 23.1328 17.8281H27.3516C27.4062 17.8281 27.4531 17.875 27.4531 17.9297V21.5781Z" fill="currentColor"/>
<path d="M6.375 27.3906L7.53906 26.8828C7.63281 26.8438 7.63281 26.7031 7.53906 26.6641L6.375 26.1562C6.34375 26.1406 6.32813 26.125 6.3125 26.0937L5.80469 24.9219C5.76563 24.8281 5.625 24.8281 5.58594 24.9219L5.07813 26.0859C5.0625 26.1172 5.04687 26.1328 5.01562 26.1484L3.85156 26.6563C3.75781 26.6953 3.75781 26.8359 3.85156 26.875L5.01562 27.3828C5.04687 27.3984 5.0625 27.4141 5.07813 27.4453L5.58594 28.6094C5.625 28.7031 5.76563 28.7031 5.80469 28.6094L6.3125 27.4453C6.32813 27.4297 6.35156 27.4063 6.375 27.3906Z" fill="currentColor"/>
<path d="M33.6875 3.71094L34.3984 3.39844C34.4609 3.375 34.4609 3.28906 34.3984 3.26563L33.6875 2.95312C33.6719 2.94531 33.6563 2.92969 33.6484 2.91406L33.3359 2.20313C33.3125 2.14062 33.2266 2.14062 33.2031 2.20313L32.8906 2.91406C32.8828 2.92969 32.8672 2.94531 32.8516 2.95312L32.1406 3.26563C32.0781 3.28906 32.0781 3.375 32.1406 3.39844L32.8516 3.71094C32.8672 3.71875 32.8828 3.73438 32.8906 3.75L33.2031 4.46094C33.2266 4.52344 33.3125 4.52344 33.3359 4.46094L33.6484 3.75C33.6563 3.73438 33.6719 3.71875 33.6875 3.71094Z" fill="currentColor"/>
<path d="M34.5312 25.625L35.2422 25.3125C35.3047 25.2891 35.3047 25.2031 35.2422 25.1797L34.5312 24.8672C34.5156 24.8594 34.5 24.8437 34.4922 24.8281L34.1797 24.1172C34.1562 24.0547 34.0703 24.0547 34.0469 24.1172L33.7344 24.8281C33.7266 24.8437 33.7109 24.8594 33.6953 24.8672L32.9844 25.1797C32.9219 25.2031 32.9219 25.2891 32.9844 25.3125L33.6953 25.625C33.7109 25.6328 33.7266 25.6484 33.7344 25.6641L34.0469 26.375C34.0703 26.4375 34.1562 26.4375 34.1797 26.375L34.4922 25.6641C34.5 25.6484 34.5156 25.6328 34.5312 25.625Z" fill="currentColor"/>
<path d="M5.32812 33.2031C5.5266 33.2031 5.6875 33.0422 5.6875 32.8438C5.6875 32.6453 5.5266 32.4844 5.32812 32.4844C5.12965 32.4844 4.96875 32.6453 4.96875 32.8438C4.96875 33.0422 5.12965 33.2031 5.32812 33.2031Z" fill="currentColor"/>
<path d="M36.8594 7.14063C37.3728 7.14063 37.7891 6.72439 37.7891 6.21094C37.7891 5.69749 37.3728 5.28125 36.8594 5.28125C36.3459 5.28125 35.9297 5.69749 35.9297 6.21094C35.9297 6.72439 36.3459 7.14063 36.8594 7.14063Z" fill="currentColor"/>
</svg>