<svg width="24" height="24" viewBox="-3 -3 24 24" fill="none" xmlns="http://www.w3.org/2000/svg">
  <path d="M9.07745 2.12792C9.93937 2.12792 10.6443 1.42679 10.649 0.564941H7.50183C7.50458 0.583357 7.50648 0.602055 7.50725 0.621069C7.54208 1.46601 8.23177 2.12792 9.07745 2.12792Z" fill="currentColor"/>
  <path d="M15.7238 1.54945L14.8845 1.2417L3.86841 15.6416C3.86841 15.6416 3.86936 17.1765 3.86936 17.311L15.9131 1.67044C15.8599 1.61727 15.7955 1.57572 15.7238 1.54945V1.54945Z" fill="currentColor"/>
  <path d="M17.9329 5.22556L16.4829 2.64453L5.11487 17.435H13.6088C13.8975 17.435 14.1316 17.2009 14.1316 16.9122V7.41151L14.598 7.9349C14.7866 8.14659 15.1095 8.16927 15.3259 7.98623L17.8148 5.88064C18.0061 5.7188 18.0557 5.44401 17.9329 5.22556Z" fill="currentColor"/>
  <path d="M3.86837 13.9206L13.8565 0.864488L13.1267 0.596879C13.069 0.575751 13.0081 0.564941 12.9467 0.564941H12.7899H11.6942C11.6942 0.566772 11.6945 0.568533 11.6945 0.570364C11.6869 2.0057 10.5129 3.17347 9.07751 3.17347C7.66921 3.17347 6.52067 2.07123 6.46271 0.664098C6.46134 0.630295 6.46345 0.597231 6.46827 0.564977H5.21009H5.05325C4.99184 0.564977 4.93093 0.575787 4.87329 0.596914L2.2762 1.54922C2.15926 1.59211 2.06144 1.67535 2.00042 1.78397L0.0670122 5.22537C-0.055701 5.44382 -0.006158 5.71865 0.185148 5.88048L2.67402 7.98608C2.89047 8.16907 3.21333 8.14636 3.40192 7.93474L3.86834 7.41135V13.9206H3.86837Z" fill="currentColor"/>
</svg>
