<svg width="24" height="24" viewBox="0 0 24 24" fill="none" xmlns="http://www.w3.org/2000/svg">
<path d="M23.9106 6.96779L21.3328 2.37927C21.2514 2.23441 21.121 2.12344 20.965 2.06627L17.5023 0.796505C17.4254 0.76834 17.3441 0.753906 17.2623 0.753906H17.0532H6.73767C6.6558 0.753906 6.57459 0.76834 6.49773 0.796505L3.03496 2.06627C2.879 2.12344 2.74862 2.23441 2.66722 2.37927L0.089365 6.96779C-0.0742816 7.25905 -0.0082043 7.62547 0.246873 7.84128L3.5654 10.6487C3.85399 10.8927 4.28447 10.8625 4.53594 10.5803L5.15782 9.88245V22.5501C5.15782 22.935 5.46988 23.2471 5.85481 23.2471H18.1452C18.5301 23.2471 18.8422 22.935 18.8422 22.5501V9.88245L19.4641 10.5803C19.7155 10.8626 20.1461 10.8928 20.4346 10.6487L23.7531 7.84128C24.0082 7.62552 24.0743 7.25909 23.9106 6.96779ZM20.3041 3.39423L6.55181 21.2252V18.9427L18.9832 2.82428L20.2435 3.2864L20.3041 3.39423ZM14.1543 2.1479C13.9549 3.0973 13.1094 3.8137 12.1034 3.8137C11.0933 3.8137 10.2506 3.10532 10.0525 2.1479H14.1543ZM3.9471 9.14576L1.5866 7.14878L3.75646 3.28644L6.86139 2.14795H8.64121C8.85369 3.88517 10.3222 5.20775 12.1033 5.20775C13.878 5.20775 15.3521 3.86863 15.5653 2.14795H17.1386L17.6108 2.32111L6.55181 16.6601V8.05263C6.55181 7.76339 6.37317 7.50423 6.10291 7.40128C5.83269 7.29841 5.52687 7.37297 5.33444 7.58892L3.9471 9.14576ZM7.82804 21.853L17.4482 9.3797V21.8531H7.82804V21.853ZM20.0528 9.14576L18.7533 7.68747L21.046 4.71484L22.4133 7.14878L20.0528 9.14576Z" fill="currentColor"/>
</svg>
