<svg width="24" height="24" viewBox="0 0 24 24" fill="none" xmlns="http://www.w3.org/2000/svg">
<path d="M20.4844 12.57H18.1351C17.8154 12.57 17.5058 12.6137 17.2112 12.694C16.63 11.5516 15.4435 10.7666 14.0763 10.7666H9.92367C8.55647 10.7666 7.36997 11.5516 6.78881 12.694C6.4942 12.6137 6.18464 12.57 5.86491 12.57H3.51562C1.57711 12.57 0 14.1471 0 16.0856V19.8411C0 21.0042 0.946266 21.9505 2.10938 21.9505H21.8906C23.0537 21.9505 24 21.0042 24 19.8411V16.0856C24 14.1471 22.4229 12.57 20.4844 12.57ZM6.40805 14.2823V20.5443H2.10938C1.72167 20.5443 1.40625 20.2289 1.40625 19.8412V16.0856C1.40625 14.9225 2.35252 13.9763 3.51562 13.9763H5.86491C6.05578 13.9763 6.24061 14.0022 6.41658 14.05C6.41152 14.1269 6.40805 14.2042 6.40805 14.2823ZM16.1857 20.5443H7.8143V14.2823C7.8143 13.1192 8.76056 12.1729 9.92367 12.1729H14.0763C15.2394 12.1729 16.1857 13.1192 16.1857 14.2823V20.5443ZM22.5938 19.8412C22.5938 20.2289 22.2783 20.5443 21.8906 20.5443H17.592V14.2823C17.592 14.2041 17.5885 14.1268 17.5834 14.0499C17.7594 14.0022 17.9442 13.9762 18.1351 13.9762H20.4844C21.6475 13.9762 22.5938 14.9225 22.5938 16.0856V19.8412Z" fill="currentColor"/>
<path d="M4.69044 5.92969C2.96783 5.92969 1.56641 7.33111 1.56641 9.05372C1.56636 10.7763 2.96783 12.1777 4.69044 12.1777C6.413 12.1777 7.81447 10.7763 7.81447 9.05372C7.81447 7.33111 6.41305 5.92969 4.69044 5.92969ZM4.69039 10.7715C3.74319 10.7715 2.97261 10.0009 2.97261 9.05372C2.97261 8.10652 3.74319 7.33594 4.69039 7.33594C5.63759 7.33594 6.40817 8.10652 6.40817 9.05372C6.40817 10.0009 5.63759 10.7715 4.69039 10.7715Z" fill="currentColor"/>
<path d="M11.9998 2.0498C9.69845 2.0498 7.82617 3.92209 7.82617 6.22346C7.82617 8.52484 9.69845 10.3971 11.9998 10.3971C14.3012 10.3971 16.1735 8.52484 16.1735 6.22346C16.1735 3.92213 14.3012 2.0498 11.9998 2.0498ZM11.9998 8.99087C10.4739 8.99087 9.23242 7.74943 9.23242 6.22346C9.23242 4.69754 10.4739 3.45605 11.9998 3.45605C13.5258 3.45605 14.7672 4.69749 14.7672 6.22346C14.7672 7.74943 13.5258 8.99087 11.9998 8.99087Z" fill="currentColor"/>
<path d="M19.3096 5.92969C17.587 5.92969 16.1855 7.33111 16.1855 9.05372C16.1856 10.7763 17.587 12.1777 19.3096 12.1777C21.0322 12.1777 22.4336 10.7763 22.4336 9.05372C22.4336 7.33111 21.0322 5.92969 19.3096 5.92969ZM19.3096 10.7715C18.3624 10.7715 17.5918 10.0009 17.5918 9.05372C17.5918 8.10652 18.3624 7.33594 19.3096 7.33594C20.2568 7.33594 21.0274 8.10652 21.0274 9.05372C21.0274 10.0009 20.2568 10.7715 19.3096 10.7715Z" fill="currentColor"/>
</svg>
