<svg width="24" height="24" viewBox="0 0 24 24" fill="none" xmlns="http://www.w3.org/2000/svg">
<path fill-rule="evenodd" clip-rule="evenodd" d="M8.74065 0.0447688C8.81959 0.0151643 8.90322 0 8.98753 0H15.0126C15.0969 0 15.1805 0.0151643 15.2594 0.0447688L21.2844 2.30414C21.6308 2.43405 21.8173 2.81018 21.711 3.16454L19.4813 10.597V23.2969C19.4813 23.6852 19.1665 24 18.7782 24H5.22192C4.8336 24 4.5188 23.6852 4.5188 23.2969V10.597L2.28908 3.16454C2.18277 2.81018 2.36925 2.43405 2.71566 2.30414L8.74065 0.0447688ZM9.11503 1.40625L3.8249 3.39006L5.89539 10.2917C5.91506 10.3573 5.92505 10.4253 5.92505 10.4938V22.5938H18.075V10.4938C18.075 10.4253 18.085 10.3573 18.1047 10.2917L20.1752 3.39006L14.8851 1.40625H9.11503Z" fill="currentColor"/>
<path fill-rule="evenodd" clip-rule="evenodd" d="M8.2843 0.703125C8.2843 0.3148 8.5991 0 8.98743 0H15.0125C15.4008 0 15.7156 0.3148 15.7156 0.703125C15.7156 2.75508 14.052 4.41877 11.9999 4.41877C9.94792 4.41877 8.2843 2.75508 8.2843 0.703125ZM9.79956 1.40625C10.097 2.33781 10.9698 3.01252 11.9999 3.01252C13.0301 3.01252 13.9028 2.33781 14.2003 1.40625H9.79956Z" fill="currentColor"/>
<path fill-rule="evenodd" clip-rule="evenodd" d="M3.27486 2.33259C3.44928 2.41908 3.58003 2.57401 3.63597 2.76048L5.89535 10.2918C5.95921 10.5046 5.91866 10.7352 5.78599 10.9135C5.65331 11.0918 5.44414 11.1969 5.22188 11.1969H0.703125C0.3148 11.1969 0 10.8821 0 10.4938H0.703125C0 10.4938 0 10.4938 0 10.4938V6.22245C0 4.47803 1.08221 2.91653 2.71568 2.30415C2.89797 2.2358 3.10044 2.2461 3.27486 2.33259ZM1.40625 9.79067H4.27685L2.53553 3.98625C1.83727 4.50124 1.40625 5.32543 1.40625 6.22245V9.79067Z" fill="currentColor"/>
<path fill-rule="evenodd" clip-rule="evenodd" d="M20.7251 2.33259C20.8995 2.2461 21.102 2.2358 21.2843 2.30415C22.9177 2.91653 24 4.47803 24 6.22245V10.4938C24 10.4938 24 10.4938 23.2968 10.4938L24 10.4938C24 10.8821 23.6852 11.1969 23.2968 11.1969H18.7781C18.5558 11.1969 18.3466 11.0918 18.214 10.9135C18.0813 10.7352 18.0407 10.5046 18.1046 10.2918L20.364 2.76048C20.4199 2.57401 20.5507 2.41908 20.7251 2.33259ZM22.5937 9.79067V6.22245C22.5937 5.32543 22.1627 4.50124 21.4644 3.98625L19.7231 9.79067H22.5937Z" fill="currentColor"/>
<path fill-rule="evenodd" clip-rule="evenodd" d="M12.8031 7.48126C12.8031 7.09294 13.1179 6.77814 13.5062 6.77814H16.5187C16.9071 6.77814 17.2219 7.09294 17.2219 7.48126V8.61095C17.2219 9.48969 16.6472 10.1389 16.2286 10.5051C16.0046 10.7012 15.7838 10.8526 15.6205 10.9547C15.5381 11.0062 15.4685 11.0463 15.4178 11.0744C15.3924 11.0884 15.3716 11.0995 15.3563 11.1076C15.3486 11.1116 15.3422 11.1149 15.3373 11.1174C15.3349 11.1187 15.3328 11.1197 15.331 11.1206L15.3287 11.1218L15.3273 11.1225C15.3272 11.1226 15.327 11.1227 15.0125 10.4938C14.725 11.1355 14.7248 11.1354 14.7246 11.1353L14.7241 11.135L14.7231 11.1346L14.7206 11.1334C14.7187 11.1326 14.7165 11.1316 14.7139 11.1304C14.7087 11.128 14.702 11.1249 14.694 11.1211C14.6781 11.1135 14.6567 11.1031 14.6307 11.09C14.5787 11.0637 14.5076 11.0261 14.4236 10.9772C14.2572 10.8805 14.0325 10.7351 13.8043 10.5414C13.3682 10.1712 12.8031 9.52219 12.8031 8.61095V7.48126ZM15.0125 10.4938L14.725 11.1355C14.9174 11.2217 15.1384 11.217 15.327 11.1227L15.0125 10.4938ZM14.9995 9.68084C15.0937 9.61633 15.1989 9.53759 15.3026 9.44685C15.6372 9.15411 15.8156 8.8619 15.8156 8.61095V8.18439H14.2094V8.61095C14.2094 8.90772 14.3974 9.20017 14.7144 9.46936C14.8116 9.5519 14.9103 9.62279 14.9995 9.68084ZM14.6963 9.86575C14.6959 9.86595 14.6959 9.86598 14.6962 9.86584L14.6963 9.86575Z" fill="currentColor"/>
</svg>
