<svg width="40" height="40" viewBox="0 0 40 40" fill="none" xmlns="http://www.w3.org/2000/svg">
<path d="M39.8511 11.6123L35.5546 3.96479C35.419 3.72337 35.2017 3.53841 34.9417 3.44313L29.1704 1.32686C29.0423 1.27992 28.9069 1.25586 28.7705 1.25586H28.422H11.2295C11.093 1.25586 10.9576 1.27992 10.8296 1.32686L5.05826 3.44313C4.79833 3.53841 4.58104 3.72337 4.44537 3.96479L0.148942 11.6123C-0.123803 12.0978 -0.0136738 12.7085 0.411454 13.0681L5.94234 17.7472C6.42331 18.1539 7.14079 18.1034 7.5599 17.6332L8.59636 16.4701V37.5828C8.59636 38.2244 9.11647 38.7445 9.75802 38.7445H30.242C30.8835 38.7445 31.4036 38.2244 31.4036 37.5828V16.4701L32.4401 17.6332C32.8592 18.1036 33.5768 18.154 34.0577 17.7472L39.5885 13.0681C40.0137 12.7085 40.1238 12.0978 39.8511 11.6123V11.6123ZM33.8401 5.6564L10.9197 35.3748V31.5705L31.6387 4.70648L33.7392 5.47668L33.8401 5.6564ZM23.5904 3.57919C23.2582 5.16152 21.849 6.35552 20.1723 6.35552C18.4889 6.35552 17.0844 5.17488 16.7542 3.57919H23.5904ZM6.57851 15.2423L2.64433 11.914L6.26077 5.47676L11.4357 3.57926H14.402C14.7561 6.47463 17.2037 8.67893 20.1722 8.67893C23.1301 8.67893 25.5868 6.44706 25.9421 3.57926H28.5643L29.3514 3.86786L10.9197 27.7663V13.4204C10.9197 12.9383 10.6219 12.5064 10.1715 12.3348C9.72116 12.1634 9.21144 12.2876 8.89074 12.6475L6.57851 15.2423ZM13.0467 36.4211L29.0803 15.6322V36.4211H13.0467V36.4211ZM33.4214 15.2423L31.2555 12.8118L35.0766 7.85741L37.3556 11.914L33.4214 15.2423Z" fill="currentColor"/>
</svg>
