<svg width="24" height="24" viewBox="-3 -3 30 30" fill="none" xmlns="http://www.w3.org/2000/svg">
<path d="M17.4999 16.5V17H6.49995V16.5C6.49995 15.3065 7.07942 14.1619 8.1109 13.3181C9.14226 12.4741 10.5412 12 11.9999 12C13.4585 12 14.8575 12.4741 15.8888 13.3181C16.9203 14.1619 17.4998 15.3065 17.4998 16.5H17.4999ZM11.9999 10.9999C12.8103 10.9999 13.5876 10.7366 14.1605 10.2678C14.7336 9.79891 15.0555 9.16297 15.0555 8.49992C15.0555 7.83698 14.7336 7.20104 14.1605 6.73216C13.5876 6.26339 12.8103 6 11.9999 6C11.1895 6 10.4123 6.26337 9.83934 6.73216C9.26628 7.20104 8.94436 7.83698 8.94436 8.49992C8.94436 9.16297 9.26625 9.79891 9.83934 10.2678C10.4123 10.7366 11.1895 10.9999 11.9999 10.9999ZM5.27769 12.9999C4.14319 12.9999 3.05511 13.3688 2.25296 14.0251C1.45068 14.6815 1 15.5717 1 16.5V17H5.27772V16.5C5.27601 15.302 5.75236 14.1362 6.63443 13.18C6.19688 13.0612 5.73884 13.0004 5.27772 13L5.27769 12.9999ZM5.27769 11.9999V12C5.92603 12 6.54784 11.7892 7.00626 11.4142C7.46467 11.0391 7.72223 10.5305 7.72223 9.99999C7.72223 9.46953 7.46466 8.96087 7.00626 8.5857C6.54784 8.21063 5.92603 8.00001 5.27769 8.00001C4.62948 8.00001 4.00767 8.21064 3.54926 8.5857C3.09084 8.96087 2.83328 9.46953 2.83328 9.99999C2.83328 10.5305 3.09085 11.0391 3.54926 11.4142C4.00767 11.7892 4.62948 12 5.27769 12V11.9999ZM18.7222 12.9999H18.7223C18.2612 13.0003 17.8031 13.0611 17.3656 13.1799C18.2476 14.1362 18.724 15.302 18.7223 16.4999V16.9999H23V16.4999C23 15.5717 22.5493 14.6814 21.747 14.025C20.9449 13.3687 19.8568 12.9999 18.7223 12.9999L18.7222 12.9999ZM18.7222 11.9999L18.7223 12C19.3705 12 19.9923 11.7892 20.4507 11.4142C20.9091 11.0391 21.1667 10.5305 21.1667 9.99999C21.1667 9.46953 20.9091 8.96087 20.4507 8.5857C19.9923 8.21063 19.3705 8.00001 18.7223 8.00001C18.0739 8.00001 17.4521 8.21064 16.9937 8.5857C16.5353 8.96087 16.2777 9.46953 16.2777 9.99999C16.2777 10.5305 16.5353 11.0391 16.9937 11.4142C17.4521 11.7892 18.0739 12 18.7223 12L18.7222 11.9999Z" fill="currentColor"/>
</svg>
