<svg width="24" height="24" viewBox="-3 -3 30 30" fill="none" xmlns="http://www.w3.org/2000/svg">
<path fill-rule="evenodd" clip-rule="evenodd" d="M3.2 10.0002C2.61653 10.0002 2.05686 10.2109 1.64436 10.586C1.23171 10.961 1 11.4697 1 12.0001C1 12.5305 1.23172 13.0393 1.64436 13.4142C2.05686 13.7894 2.61653 14 3.2 14C3.78347 14 4.34314 13.7894 4.75564 13.4142C5.16829 13.0393 5.4 12.5305 5.4 12.0001C5.4 11.4697 5.16828 10.961 4.75564 10.586C4.34314 10.2109 3.78347 10.0002 3.2 10.0002V10.0002ZM12 10.0002C11.4165 10.0002 10.8569 10.2109 10.4444 10.586C10.0317 10.961 9.8 11.4697 9.8 12.0001C9.8 12.5305 10.0317 13.0393 10.4444 13.4142C10.8569 13.7894 11.4165 14 12 14C12.5835 14 13.1431 13.7894 13.5556 13.4142C13.9683 13.0393 14.2 12.5305 14.2 12.0001C14.2 11.4674 13.9663 10.9566 13.5504 10.5813C13.1347 10.2059 12.5713 9.99676 11.9853 10.0002H12ZM20.8 10.0002C20.2165 10.0002 19.6569 10.2109 19.2444 10.586C18.8317 10.961 18.6 11.4697 18.6 12.0001C18.6 12.5305 18.8317 13.0393 19.2444 13.4142C19.6569 13.7894 20.2165 14 20.8 14C21.3835 14 21.9431 13.7894 22.3556 13.4142C22.7683 13.0393 23 12.5305 23 12.0001C23 11.4644 22.7638 10.9512 22.344 10.5753C21.9242 10.1993 21.3561 9.99216 20.767 10.0002H20.8Z" fill="currentColor"/>
</svg>
