<svg width="24" height="24" viewBox="0 0 24 24" fill="none" xmlns="http://www.w3.org/2000/svg">
<path d="M12 4C7.58172 4 4 7.58172 4 12C4 16.4182 7.58172 20 12 20C16.4182 20 20 16.4182 20 12C19.9953 7.58369 16.4163 4.00472 12 4ZM12 18.8571C8.21289 18.8571 5.14285 15.7871 5.14285 12C5.14285 8.21289 8.21289 5.14285 12 5.14285C15.7871 5.14285 18.8571 8.21289 18.8571 12C18.853 15.7854 15.7854 18.853 12 18.8571Z" fill="currentColor"/>
<path d="M16.3898 8.73854C16.1683 8.52465 15.8173 8.52465 15.5958 8.73854L10.2856 14.0488L8.40382 12.1671C8.18458 11.9401 7.82281 11.9338 7.59583 12.153C7.36882 12.3723 7.36256 12.7341 7.5818 12.961C7.58639 12.9658 7.59108 12.9705 7.59583 12.9751L9.88156 15.2608C10.1047 15.4839 10.4664 15.4839 10.6895 15.2608L16.4038 9.54649C16.6231 9.31952 16.6168 8.95778 16.3898 8.73854Z" fill="currentColor"/>
</svg>
