<svg width="24" height="24" viewBox="-5 -5 40 40" fill="none" xmlns="http://www.w3.org/2000/svg">
<path d="M29.0027 26.8576C28.9302 26.6759 28.8046 26.5202 28.6424 26.4107C28.4801 26.3014 28.2886 26.2435 28.093 26.2446H25.7532V19.4C25.7532 19.011 25.5987 18.638 25.3237 18.3628C25.0487 18.0878 24.6755 17.9333 24.2866 17.9333H18.9094V16.9555C18.9082 16.6532 18.8135 16.3588 18.6385 16.1122C18.4634 15.8659 18.2166 15.6795 17.9316 15.5788V14.9999C17.9304 14.6977 17.8357 14.4032 17.6607 14.1567C17.4858 13.9103 17.2388 13.7239 16.9538 13.6232V11.6931C18.5174 11.0785 19.7055 9.77059 20.1677 8.15538H20.8648C21.5128 8.15476 22.1342 7.89695 22.5923 7.4386C23.0506 6.98027 23.3084 6.35908 23.3092 5.71108V3.26657C23.3092 2.87761 23.1545 2.50459 22.8795 2.22938C22.6046 1.95438 22.2316 1.7999 21.8426 1.7999H20.376V1.31109C20.376 1.05164 20.2729 0.803034 20.0896 0.619712C19.9063 0.436175 19.6575 0.333252 19.3982 0.333252H10.5987C10.3395 0.333252 10.0907 0.43617 9.90734 0.619712C9.72402 0.803045 9.6209 1.05165 9.6209 1.31109V1.7999H8.1543C7.76535 1.7999 7.39236 1.95438 7.11737 2.22938C6.84238 2.50459 6.68771 2.8776 6.68771 3.26657V5.71108C6.68852 6.35908 6.94632 6.98027 7.40466 7.4386C7.86277 7.89693 8.48412 8.15475 9.1321 8.15538H9.8292C10.2914 9.77059 11.4795 11.0785 13.0431 11.6931V13.6232C12.7581 13.7239 12.5111 13.9103 12.3362 14.1567C12.1612 14.4032 12.0665 14.6977 12.0653 14.9999V15.5788C11.7803 15.6794 11.5335 15.8659 11.3584 16.1122C11.1835 16.3588 11.0887 16.6532 11.0875 16.9555V20.3776L5.71034 20.3778C5.32139 20.3778 4.94818 20.5323 4.6732 20.8073C4.39821 21.0823 4.24374 21.4555 4.24374 21.8445V26.2444H1.90389C1.70829 26.2432 1.51699 26.3011 1.35476 26.4106C1.19251 26.5199 1.06709 26.6758 0.994658 26.8575L0.402731 28.3319C0.282627 28.6308 0.31925 28.9699 0.500532 29.2363C0.682222 29.5054 0.985848 29.6666 1.31056 29.6666H28.6866C29.0121 29.6672 29.3163 29.506 29.4987 29.2363C29.6802 28.9699 29.7168 28.6305 29.5965 28.3315L29.0027 26.8576ZM21.8426 2.77814C21.9721 2.77814 22.0965 2.8295 22.1881 2.92117C22.2798 3.01304 22.3314 3.13724 22.3314 3.26696V5.71147C22.3314 6.10044 22.1769 6.47345 21.9019 6.74845C21.6267 7.02345 21.2537 7.17813 20.8648 7.17813H20.351C20.3657 7.0169 20.376 6.85444 20.376 6.68932V2.77815L21.8426 2.77814ZM24.287 18.9114H24.2867C24.4165 18.9114 24.5409 18.9628 24.6325 19.0544C24.7242 19.1463 24.7758 19.2705 24.7758 19.4002V26.2448H18.9094V18.9115L24.287 18.9114ZM9.13182 7.17812C8.74287 7.17812 8.36987 7.02344 8.09468 6.74844C7.81969 6.47344 7.66522 6.10044 7.66522 5.71146V3.26695C7.66522 2.99687 7.88414 2.77813 8.15401 2.77813H9.6206V6.6893C9.6206 6.85463 9.63083 7.01689 9.64556 7.17812L9.13182 7.17812ZM10.5984 6.68931V1.31137H19.398V6.68878C19.398 8.26083 18.5593 9.71335 17.1981 10.4993C15.8369 11.2854 14.1595 11.2854 12.7983 10.4993C11.4371 9.71335 10.5984 8.26083 10.5984 6.68878V6.68931ZM14.9982 12.0672V12.067C15.3262 12.0658 15.6535 12.0345 15.976 11.9737V13.5337H14.0204V11.9737C14.3428 12.0345 14.6702 12.0658 14.9982 12.067V12.0672ZM13.0428 15.0006V15.0004C13.0428 14.7303 13.2615 14.5115 13.5316 14.5115H16.4648C16.5945 14.5115 16.7187 14.5629 16.8106 14.6546C16.9022 14.7464 16.9536 14.8706 16.9536 15.0004V15.4892H13.0428L13.0428 15.0006ZM12.554 16.4672L17.4426 16.467C17.5721 16.467 17.6965 16.5186 17.7882 16.6103C17.8798 16.7019 17.9314 16.8263 17.9314 16.9558V26.245H12.065V16.9558C12.065 16.686 12.2839 16.467 12.5538 16.467L12.554 16.4672ZM5.22105 21.8446C5.22105 21.5745 5.43997 21.3556 5.71005 21.3556H11.0872V26.2446H5.22083L5.22105 21.8446ZM28.6865 28.6887L1.31048 28.695L1.90382 27.222H28.0956L28.6865 28.6887Z" fill="currentColor"/>
</svg>
