<svg width="24" height="24" viewBox="-3 -3 30 30"  fill="none" xmlns="http://www.w3.org/2000/svg">
<path d="M9.24974 4.49363C9.53515 5.10106 10.0434 5.57534 10.6691 5.81811C10.7328 5.84718 10.7864 5.89454 10.8231 5.95422C10.8597 6.01385 10.8778 6.08303 10.875 6.153V7.194C10.6564 7.27126 10.467 7.4142 10.3328 7.60325C10.1985 7.79225 10.126 8.01817 10.125 8.25V8.625C10.125 8.72446 10.1645 8.81986 10.2348 8.89015C10.3051 8.96049 10.4005 9 10.5 9H13.5C13.5995 9 13.6949 8.96049 13.7652 8.89015C13.8355 8.81986 13.875 8.72446 13.875 8.625V8.25C13.874 8.01817 13.8015 7.79225 13.6672 7.60325C13.533 7.4142 13.3436 7.27126 13.125 7.194V6.153C13.1222 6.08303 13.1403 6.01385 13.1769 5.95422C13.2136 5.89454 13.2672 5.84718 13.3309 5.81811C13.9566 5.57534 14.4648 5.10106 14.7503 4.49363C15.4234 4.46147 16.0584 4.17164 16.5238 3.68417C16.9891 3.1967 17.2491 2.54892 17.25 1.875C17.25 1.57663 17.1315 1.29048 16.9205 1.07951C16.7095 0.868528 16.4234 0.75 16.125 0.75H15V0.375C15 0.275544 14.9605 0.180161 14.8902 0.109835C14.8199 0.0395088 14.7245 0 14.625 0H9.375C9.27554 0 9.18014 0.0395088 9.10985 0.109835C9.03951 0.180161 9 0.275544 9 0.375V0.75H7.875C7.57662 0.75 7.29046 0.868528 7.07949 1.07951C6.86852 1.29048 6.75 1.57663 6.75 1.875C6.75088 2.54892 7.01091 3.1967 7.47623 3.68417C7.9416 4.17164 8.57658 4.46147 9.24974 4.49363ZM10.875 8.25C10.875 8.15054 10.9145 8.05514 10.9848 7.98485C11.0551 7.91451 11.1505 7.875 11.25 7.875H12.75C12.8495 7.875 12.9449 7.91451 13.0152 7.98485C13.0855 8.05514 13.125 8.15054 13.125 8.25H10.875ZM16.125 1.5C16.2245 1.5 16.3199 1.53951 16.3902 1.60984C16.4605 1.68016 16.5 1.77554 16.5 1.875C16.4994 2.31123 16.3468 2.73362 16.0684 3.06942C15.7899 3.40523 15.4031 3.63344 14.9745 3.71475C14.9902 3.60216 14.9987 3.48868 15 3.375V1.5H16.125ZM9.75 0.75H14.25V3.375C14.2513 3.75229 14.138 4.12109 13.925 4.43255C13.7121 4.74402 13.4095 4.98342 13.0575 5.11911C12.8536 5.20375 12.6797 5.34743 12.5581 5.53163C12.4365 5.71588 12.3727 5.93225 12.375 6.153V7.125H11.625V6.153C11.6273 5.93225 11.5635 5.71588 11.4419 5.53163C11.3203 5.34743 11.1464 5.20375 10.9425 5.11911C10.5905 4.98342 10.2879 4.74402 10.075 4.43255C9.86202 4.12109 9.74871 3.75229 9.75 3.375V0.75ZM7.875 1.5H9V3.375C9.00129 3.48868 9.00978 3.60216 9.02552 3.71475C8.59689 3.63344 8.21008 3.40523 7.93163 3.06942C7.65318 2.73362 7.50055 2.31123 7.5 1.875C7.5 1.77554 7.53951 1.68016 7.60985 1.60984C7.68014 1.53951 7.77554 1.5 7.875 1.5Z" fill="#8C929A"/>
<path d="M22.125 21H21.375V19.125C21.375 19.0255 21.3355 18.9301 21.2652 18.8598C21.1949 18.7895 21.0995 18.75 21 18.75H18.375V17.25H19.125C19.4234 17.25 19.7095 17.1315 19.9205 16.9205C20.1315 16.7095 20.25 16.4234 20.25 16.125V15.375C20.25 15.0766 20.1315 14.7905 19.9205 14.5795C19.7095 14.3685 19.4234 14.25 19.125 14.25H18.375V12.375C18.375 12.2755 18.3355 12.1801 18.2652 12.1098C18.1949 12.0395 18.0995 12 18 12H12.375V10.125C12.375 10.0255 12.3355 9.93014 12.2652 9.85985C12.1949 9.78951 12.0995 9.75 12 9.75C11.9005 9.75 11.8051 9.78951 11.7348 9.85985C11.6645 9.93014 11.625 10.0255 11.625 10.125V12H6C5.90054 12 5.80514 12.0395 5.73485 12.1098C5.66451 12.1801 5.625 12.2755 5.625 12.375V14.25H4.875C4.57663 14.25 4.29048 14.3685 4.07951 14.5795C3.86853 14.7905 3.75 15.0766 3.75 15.375V16.125C3.75 16.4234 3.86853 16.7095 4.07951 16.9205C4.29048 17.1315 4.57663 17.25 4.875 17.25H5.625V18.75H3C2.90054 18.75 2.80516 18.7895 2.73484 18.8598C2.66451 18.9301 2.625 19.0255 2.625 19.125V21H1.875C1.57663 21 1.29048 21.1185 1.07951 21.3295C0.868528 21.5405 0.75 21.8266 0.75 22.125V22.875C0.75 23.1734 0.868528 23.4595 1.07951 23.6705C1.29048 23.8815 1.57663 24 1.875 24H4.125C4.42337 24 4.70954 23.8815 4.92051 23.6705C5.13148 23.4595 5.25 23.1734 5.25 22.875V22.125C5.25 21.8266 5.13148 21.5405 4.92051 21.3295C4.70954 21.1185 4.42337 21 4.125 21H3.375V19.5H8.625V21H7.875C7.57662 21 7.29046 21.1185 7.07949 21.3295C6.86852 21.5405 6.75 21.8266 6.75 22.125V22.875C6.75 23.1734 6.86852 23.4595 7.07949 23.6705C7.29046 23.8815 7.57662 24 7.875 24H10.125C10.4234 24 10.7095 23.8815 10.9205 23.6705C11.1315 23.4595 11.25 23.1734 11.25 22.875V22.125C11.25 21.8266 11.1315 21.5405 10.9205 21.3295C10.7095 21.1185 10.4234 21 10.125 21H9.375V19.125C9.375 19.0255 9.33549 18.9301 9.26515 18.8598C9.19486 18.7895 9.09946 18.75 9 18.75H6.375V17.25H7.125C7.42338 17.25 7.70954 17.1315 7.92051 16.9205C8.13148 16.7095 8.25 16.4234 8.25 16.125V15.375C8.25 15.0766 8.13148 14.7905 7.92051 14.5795C7.70954 14.3685 7.42338 14.25 7.125 14.25H6.375V12.75H17.625V14.25H16.875C16.5766 14.25 16.2905 14.3685 16.0795 14.5795C15.8685 14.7905 15.75 15.0766 15.75 15.375V16.125C15.75 16.4234 15.8685 16.7095 16.0795 16.9205C16.2905 17.1315 16.5766 17.25 16.875 17.25H17.625V18.75H15C14.9005 18.75 14.8051 18.7895 14.7348 18.8598C14.6645 18.9301 14.625 19.0255 14.625 19.125V21H13.875C13.5766 21 13.2905 21.1185 13.0795 21.3295C12.8685 21.5405 12.75 21.8266 12.75 22.125V22.875C12.75 23.1734 12.8685 23.4595 13.0795 23.6705C13.2905 23.8815 13.5766 24 13.875 24H16.125C16.4234 24 16.7095 23.8815 16.9205 23.6705C17.1315 23.4595 17.25 23.1734 17.25 22.875V22.125C17.25 21.8266 17.1315 21.5405 16.9205 21.3295C16.7095 21.1185 16.4234 21 16.125 21H15.375V19.5H20.625V21H19.875C19.5766 21 19.2905 21.1185 19.0795 21.3295C18.8685 21.5405 18.75 21.8266 18.75 22.125V22.875C18.75 23.1734 18.8685 23.4595 19.0795 23.6705C19.2905 23.8815 19.5766 24 19.875 24H22.125C22.4234 24 22.7095 23.8815 22.9205 23.6705C23.1315 23.4595 23.25 23.1734 23.25 22.875V22.125C23.25 21.8266 23.1315 21.5405 22.9205 21.3295C22.7095 21.1185 22.4234 21 22.125 21ZM4.5 22.125V22.875C4.5 22.9745 4.46049 23.0699 4.39016 23.1402C4.31984 23.2105 4.22446 23.25 4.125 23.25H1.875C1.77554 23.25 1.68016 23.2105 1.60984 23.1402C1.53951 23.0699 1.5 22.9745 1.5 22.875V22.125C1.5 22.0255 1.53951 21.9301 1.60984 21.8598C1.68016 21.7895 1.77554 21.75 1.875 21.75H4.125C4.22446 21.75 4.31984 21.7895 4.39016 21.8598C4.46049 21.9301 4.5 22.0255 4.5 22.125ZM10.5 22.125V22.875C10.5 22.9745 10.4605 23.0699 10.3902 23.1402C10.3199 23.2105 10.2245 23.25 10.125 23.25H7.875C7.77554 23.25 7.68014 23.2105 7.60985 23.1402C7.53951 23.0699 7.5 22.9745 7.5 22.875V22.125C7.5 22.0255 7.53951 21.9301 7.60985 21.8598C7.68014 21.7895 7.77554 21.75 7.875 21.75H10.125C10.2245 21.75 10.3199 21.7895 10.3902 21.8598C10.4605 21.9301 10.5 22.0255 10.5 22.125ZM7.5 15.375V16.125C7.5 16.2245 7.46049 16.3199 7.39015 16.3902C7.31986 16.4605 7.22446 16.5 7.125 16.5H4.875C4.77554 16.5 4.68014 16.4605 4.60984 16.3902C4.53951 16.3199 4.5 16.2245 4.5 16.125V15.375C4.5 15.2755 4.53951 15.1801 4.60984 15.1098C4.68014 15.0395 4.77554 15 4.875 15H7.125C7.22446 15 7.31986 15.0395 7.39015 15.1098C7.46049 15.1801 7.5 15.2755 7.5 15.375ZM16.5 16.125V15.375C16.5 15.2755 16.5395 15.1801 16.6098 15.1098C16.6801 15.0395 16.7755 15 16.875 15H19.125C19.2245 15 19.3199 15.0395 19.3902 15.1098C19.4605 15.1801 19.5 15.2755 19.5 15.375V16.125C19.5 16.2245 19.4605 16.3199 19.3902 16.3902C19.3199 16.4605 19.2245 16.5 19.125 16.5H16.875C16.7755 16.5 16.6801 16.4605 16.6098 16.3902C16.5395 16.3199 16.5 16.2245 16.5 16.125ZM16.5 22.125V22.875C16.5 22.9745 16.4605 23.0699 16.3902 23.1402C16.3199 23.2105 16.2245 23.25 16.125 23.25H13.875C13.7755 23.25 13.6801 23.2105 13.6098 23.1402C13.5395 23.0699 13.5 22.9745 13.5 22.875V22.125C13.5 22.0255 13.5395 21.9301 13.6098 21.8598C13.6801 21.7895 13.7755 21.75 13.875 21.75H16.125C16.2245 21.75 16.3199 21.7895 16.3902 21.8598C16.4605 21.9301 16.5 22.0255 16.5 22.125ZM22.5 22.875C22.5 22.9745 22.4605 23.0699 22.3902 23.1402C22.3199 23.2105 22.2245 23.25 22.125 23.25H19.875C19.7755 23.25 19.6801 23.2105 19.6098 23.1402C19.5395 23.0699 19.5 22.9745 19.5 22.875V22.125C19.5 22.0255 19.5395 21.9301 19.6098 21.8598C19.6801 21.7895 19.7755 21.75 19.875 21.75H22.125C22.2245 21.75 22.3199 21.7895 22.3902 21.8598C22.4605 21.9301 22.5 22.0255 22.5 22.125V22.875Z" fill="#8C929A"/>
</svg>
