<svg width="24" height="24" viewBox="-3 -3 30 30" fill="none" xmlns="http://www.w3.org/2000/svg">
  <path d="M22.5023 20.8932C22.4479 20.757 22.3537 20.6402 22.232 20.5581C22.1103 20.4761 21.9667 20.4327 21.82 20.4335H20.0651V15.3C20.0651 15.0083 19.9493 14.7285 19.743 14.5221C19.5368 14.3159 19.2569 14.2 18.9652 14.2H14.9323V13.4666C14.9314 13.24 14.8603 13.0191 14.7291 12.8342C14.5978 12.6495 14.4127 12.5097 14.199 12.4341V12C14.198 11.7733 14.127 11.5525 13.9958 11.3676C13.8646 11.1828 13.6794 11.043 13.4656 10.9675V9.5199C14.6383 9.05892 15.5294 8.078 15.876 6.86659H16.3989C16.8848 6.86613 17.3509 6.67277 17.6944 6.32901C18.0382 5.98526 18.2315 5.51937 18.2322 5.03337V3.19999C18.2322 2.90827 18.1161 2.6285 17.9099 2.4221C17.7037 2.21585 17.4239 2.09999 17.1322 2.09999H16.0323V1.73338C16.0323 1.53879 15.9549 1.35234 15.8174 1.21484C15.6799 1.07719 15.4933 1 15.2989 1H8.69926C8.50483 1 8.31824 1.07719 8.18075 1.21484C8.04326 1.35234 7.96592 1.5388 7.96592 1.73338V2.09999H6.86597C6.57426 2.09999 6.29451 2.21585 6.08827 2.4221C5.88203 2.6285 5.76602 2.90826 5.76602 3.19999V5.03337C5.76664 5.51937 5.95999 5.98526 6.30374 6.32901C6.64732 6.67276 7.11334 6.86612 7.59932 6.86659H8.12214C8.46879 8.078 9.35989 9.05892 10.5326 9.5199V10.9675C10.3188 11.043 10.1336 11.1828 10.0024 11.3676C9.87118 11.5525 9.80013 11.7733 9.79921 12V12.4341C9.58545 12.5096 9.4004 12.6495 9.26904 12.8342C9.13784 13.0191 9.06679 13.24 9.06586 13.4666V16.0333L5.033 16.0334C4.74129 16.0334 4.46138 16.1493 4.25514 16.3555C4.0489 16.5618 3.93305 16.8417 3.93305 17.1334V20.4334H2.17816C2.03146 20.4325 1.88799 20.4759 1.76631 20.558C1.64462 20.64 1.55056 20.7569 1.49624 20.8932L1.05229 21.999C0.962215 22.2232 0.989682 22.4775 1.12564 22.6773C1.26191 22.8791 1.48963 23 1.73317 23H22.2652C22.5093 23.0005 22.7375 22.8795 22.8742 22.6773C23.0104 22.4775 23.0378 22.2229 22.9476 21.9987L22.5023 20.8932ZM17.1322 2.83367C17.2293 2.83367 17.3226 2.87218 17.3913 2.94094C17.4601 3.00984 17.4988 3.10299 17.4988 3.20028V5.03366C17.4988 5.32539 17.3829 5.60515 17.1767 5.8114C16.9703 6.01765 16.6905 6.13366 16.3988 6.13366H16.0135C16.0245 6.01274 16.0322 5.89089 16.0322 5.76705V2.83367L17.1322 2.83367ZM18.9655 14.9336H18.9653C19.0626 14.9336 19.1559 14.9721 19.2246 15.0409C19.2934 15.1098 19.3321 15.2029 19.3321 15.3002V20.4337H14.9323V14.9337L18.9655 14.9336ZM7.59911 6.13365C7.3074 6.13365 7.02765 6.01764 6.82125 5.81139C6.61501 5.60514 6.49916 5.32539 6.49916 5.03365V3.20027C6.49916 2.99771 6.66335 2.83366 6.86575 2.83366H7.9657V5.76704C7.9657 5.89103 7.97337 6.01273 7.98442 6.13365L7.59911 6.13365ZM8.69905 5.76704V1.73359H15.2987V5.76665C15.2987 6.94569 14.6697 8.03508 13.6488 8.62452C12.6279 9.21411 11.3699 9.21411 10.349 8.62452C9.32806 8.03508 8.69905 6.94569 8.69905 5.76665V5.76704ZM11.9989 9.80049V9.80034C12.2449 9.79942 12.4904 9.77594 12.7322 9.73036V10.9003H11.2655V9.73036C11.5074 9.77594 11.7529 9.79942 11.9989 9.80034V9.80049ZM10.5323 12.0005V12.0003C10.5323 11.7978 10.6964 11.6337 10.8989 11.6337H13.0988C13.1961 11.6337 13.2893 11.6722 13.3582 11.741C13.4269 11.8099 13.4654 11.903 13.4654 12.0003V12.3669H10.5323L10.5323 12.0005ZM10.1658 13.1005L13.8322 13.1003C13.9293 13.1003 14.0226 13.139 14.0914 13.2077C14.1601 13.2765 14.1988 13.3698 14.1988 13.4669V20.4338H9.799V13.4669C9.799 13.2645 9.9632 13.1003 10.1656 13.1003L10.1658 13.1005ZM4.66603 17.1335C4.66603 16.931 4.83022 16.7668 5.03278 16.7668H9.06564V20.4335H4.66587L4.66603 17.1335ZM22.2651 22.2666L1.73311 22.2713L2.17811 21.1666H21.8219L22.2651 22.2666Z" fill="currentColor"/>
  <path d="M12.5458 6.90329C12.6482 6.97409 12.7645 7.00723 12.8812 6.99868C12.998 6.99014 13.1104 6.94026 13.2055 6.85498C13.3048 6.7669 13.3822 6.64552 13.4286 6.50496C13.4749 6.36422 13.4886 6.20988 13.4676 6.05989L13.3607 5.24475L13.8125 4.67065C13.8971 4.56374 13.9564 4.42946 13.9834 4.28279C14.0105 4.13629 14.0043 3.98317 13.9657 3.84051C13.9296 3.70117 13.8631 3.57717 13.7738 3.48213C13.6846 3.38708 13.5761 3.325 13.4602 3.30267L12.8466 3.18635L12.5694 2.45509C12.5022 2.27285 12.3817 2.13002 12.2328 2.05572C12.0837 1.98143 11.9176 1.98143 11.7687 2.05572C11.6197 2.13002 11.4992 2.27285 11.432 2.45509L11.1548 3.18635L10.5411 3.30267C10.4251 3.32465 10.3162 3.38673 10.2268 3.48178C10.1373 3.57665 10.0707 3.701 10.0344 3.84052C9.99579 3.983 9.98951 4.13612 10.0164 4.28262C10.0433 4.42929 10.1022 4.56357 10.1867 4.67065L10.6387 5.24493L10.5342 6.05954C10.5132 6.20952 10.5268 6.36387 10.5732 6.50461C10.6196 6.64552 10.697 6.7669 10.7963 6.85498C10.8915 6.93991 11.0039 6.98961 11.1206 6.99816C11.2373 7.0067 11.3536 6.97391 11.456 6.90328L12.0017 6.52833L12.5458 6.90329ZM12.2665 2.63348L11.9667 2.81137L12.2665 2.63348ZM11.7001 5.78415L11.1973 6.12841L11.3232 5.17008L11.3234 5.16973C11.3407 5.03841 11.3068 4.90465 11.2322 4.80978L10.6874 4.11759L11.429 3.97667V3.97685C11.5385 3.9561 11.6328 3.86872 11.6802 3.7435L12 2.89961L12.3199 3.74332V3.7435C12.3673 3.86872 12.4616 3.95609 12.571 3.97684L13.3127 4.11776L12.7662 4.81066C12.6916 4.90553 12.6577 5.0393 12.675 5.17062L12.8153 6.13819L12.299 5.78433L12.2988 5.7845C12.1122 5.6551 11.8857 5.6551 11.6991 5.7845L11.7001 5.78415Z" fill="currentColor"/>
</svg>
