<svg width="24" height="24" viewBox="0 0 24 24" fill="none" xmlns="http://www.w3.org/2000/svg">
<path d="M21.3463 14.0726H13.5616C12.8737 14.0726 12.3141 13.513 12.3141 12.8251V12.7208C12.3141 12.0329 12.8737 11.4732 13.5616 11.4732H20.893C21.4784 11.4732 21.9946 11.1209 22.2079 10.5757L23.763 6.60072C24.1344 5.65155 24.0131 4.58224 23.4384 3.74036C22.8638 2.89853 21.9122 2.39594 20.893 2.39594C19.8737 2.39594 18.9222 2.89853 18.3475 3.74036C17.7729 4.58224 17.6515 5.6515 18.0229 6.60072L19.379 10.067H13.5616C12.0983 10.067 10.9078 11.2575 10.9078 12.7208V12.8251C10.9078 14.2884 12.0983 15.4789 13.5616 15.4789H21.3462C22.0341 15.4789 22.5937 16.0385 22.5937 16.7264C22.5937 17.4143 22.0341 17.9739 21.3462 17.9739H9.70221C9.47805 17.3924 8.97246 16.8773 8.22466 16.4827C7.92906 16.3267 7.60248 16.1944 7.25369 16.0864L8.93594 11.7865C9.45597 10.4573 9.28605 8.95995 8.48135 7.78113C7.67669 6.60232 6.34417 5.89849 4.91692 5.89849C3.48962 5.89849 2.1571 6.60227 1.35249 7.78113C0.547782 8.95995 0.37786 10.4573 0.897892 11.7865L2.58015 16.0864C2.23135 16.1944 1.90477 16.3267 1.60917 16.4827C0.571454 17.0303 0 17.8096 0 18.6771C0 19.5445 0.571454 20.3238 1.60913 20.8714C2.50435 21.3439 3.67904 21.6041 4.91687 21.6041C6.1547 21.6041 7.32944 21.3439 8.22461 20.8714C8.97241 20.4767 9.478 19.9617 9.70216 19.3802H21.3462C22.8095 19.3802 24 18.1897 24 16.7264C24 15.2631 22.8096 14.0726 21.3463 14.0726ZM19.3325 6.08838C19.1277 5.56455 19.192 4.99769 19.509 4.53316C19.8261 4.06863 20.3305 3.80219 20.893 3.80219C21.4554 3.80219 21.9599 4.06863 22.2769 4.53316C22.594 4.99769 22.6583 5.56455 22.4535 6.08838L20.8983 10.0633C20.8978 10.0647 20.8973 10.0658 20.8969 10.0668C20.8944 10.067 20.8916 10.067 20.8891 10.0668C20.8886 10.0658 20.8882 10.0647 20.8876 10.0633L19.3325 6.08838ZM2.20744 11.2742C1.85166 10.3647 1.96336 9.38046 2.51391 8.57388C3.06446 7.7673 3.94032 7.30469 4.91692 7.30469C5.89346 7.30469 6.76933 7.7673 7.31992 8.57388C7.87047 9.38046 7.98217 10.3647 7.62639 11.2741L5.26468 17.3107C5.18087 17.5249 4.99356 17.548 4.91692 17.548C4.84028 17.548 4.65296 17.5249 4.56915 17.3107L2.20744 11.2742ZM7.56826 19.6277C6.88183 19.99 5.9154 20.1978 4.91687 20.1978C3.91834 20.1978 2.95191 19.99 2.26547 19.6277C1.72749 19.3438 1.40625 18.9884 1.40625 18.6771C1.40625 18.3657 1.72749 18.0103 2.26552 17.7264C2.50988 17.5974 2.79024 17.4884 3.09446 17.401L3.25955 17.823C3.52838 18.5102 4.17891 18.9543 4.91687 18.9543C5.65482 18.9543 6.30536 18.5102 6.57418 17.823L6.73928 17.401C7.04345 17.4884 7.32381 17.5974 7.56822 17.7264C8.10634 18.0104 8.42753 18.3658 8.42753 18.6771C8.42753 18.9884 8.1063 19.3438 7.56826 19.6277Z" fill="currentColor"/>
</svg>
