<svg width="24" height="24" viewBox="0 0 24 24" fill="none" xmlns="http://www.w3.org/2000/svg">
<path d="M21.3463 14.0727H13.5616C12.8737 14.0727 12.3141 13.513 12.3141 12.8251V12.7208C12.3141 12.033 12.8737 11.4733 13.5616 11.4733H20.893C21.4784 11.4733 21.9946 11.121 22.2079 10.5757L23.763 6.60079C24.1344 5.65161 24.0131 4.5823 23.4384 3.74042C22.8638 2.89859 21.9122 2.396 20.893 2.396C19.8737 2.396 18.9222 2.89859 18.3475 3.74042C17.7729 4.5823 17.6515 5.65157 18.0229 6.60079L19.379 10.0671H13.5616C12.0983 10.0671 10.9078 11.2575 10.9078 12.7208V12.8251C10.9078 14.2884 12.0983 15.4789 13.5616 15.4789H21.3462C22.0341 15.4789 22.5937 16.0386 22.5937 16.7265C22.5937 17.4144 22.0341 17.974 21.3462 17.974H9.70221C9.47805 17.3924 8.97246 16.8774 8.22466 16.4828C7.92906 16.3268 7.60248 16.1944 7.25369 16.0864L8.93594 11.7866C9.45597 10.4574 9.28605 8.96001 8.48135 7.78119C7.67669 6.60238 6.34417 5.89855 4.91692 5.89855C3.48962 5.89855 2.1571 6.60233 1.35249 7.78119C0.547782 8.96001 0.37786 10.4574 0.897892 11.7866L2.58015 16.0864C2.23135 16.1944 1.90477 16.3268 1.60917 16.4828C0.571454 17.0304 0 17.8097 0 18.6771C0 19.5445 0.571454 20.3238 1.60913 20.8715C2.50435 21.3439 3.67904 21.6041 4.91687 21.6041C6.1547 21.6041 7.32944 21.3439 8.22461 20.8715C8.97241 20.4768 9.478 19.9618 9.70216 19.3802H21.3462C22.8095 19.3802 24 18.1898 24 16.7265C24 15.2632 22.8096 14.0727 21.3463 14.0727ZM19.3325 6.08844C19.1277 5.56461 19.192 4.99775 19.509 4.53322C19.8261 4.06869 20.3305 3.80225 20.893 3.80225C21.4554 3.80225 21.9599 4.06869 22.2769 4.53322C22.594 4.99775 22.6583 5.56461 22.4535 6.08844L20.8983 10.0634C20.8978 10.0647 20.8973 10.0659 20.8969 10.0668C20.8944 10.0671 20.8916 10.0671 20.8891 10.0668C20.8886 10.0658 20.8882 10.0647 20.8876 10.0634L19.3325 6.08844ZM2.20744 11.2742C1.85166 10.3647 1.96336 9.38053 2.51391 8.57395C3.06446 7.76737 3.94032 7.30476 4.91692 7.30476C5.89346 7.30476 6.76933 7.76737 7.31992 8.57395C7.87047 9.38053 7.98217 10.3647 7.62639 11.2742L5.26468 17.3107C5.18087 17.5249 4.99356 17.548 4.91692 17.548C4.84028 17.548 4.65296 17.5249 4.56915 17.3107L2.20744 11.2742ZM7.56826 19.6278C6.88183 19.9901 5.9154 20.1979 4.91687 20.1979C3.91834 20.1979 2.95191 19.9901 2.26547 19.6278C1.72749 19.3439 1.40625 18.9885 1.40625 18.6771C1.40625 18.3658 1.72749 18.0104 2.26552 17.7264C2.50988 17.5974 2.79024 17.4885 3.09446 17.401L3.25955 17.8231C3.52838 18.5103 4.17891 18.9543 4.91687 18.9543C5.65482 18.9543 6.30536 18.5103 6.57418 17.8231L6.73928 17.401C7.04345 17.4885 7.32381 17.5974 7.56822 17.7264C8.10634 18.0104 8.42753 18.3658 8.42753 18.6771C8.42753 18.9885 8.1063 19.3439 7.56826 19.6278Z" fill="currentColor"/>
</svg>
