<svg width="24" height="24" viewBox="-3 -3 30 30" fill="none" xmlns="http://www.w3.org/2000/svg">
<path fill-rule="evenodd" clip-rule="evenodd" d="M1 5.9504L1.88 10.7901L5.73314 9.9619V14.009H18.27V9.9619L22.12 10.7901L23 5.9504L15.9883 3.09058C15.872 4.01905 15.454 4.8537 14.838 5.48131C14.1057 6.22538 13.1031 6.68799 12 6.68799C10.8969 6.68799 9.89429 6.22861 9.16514 5.48454C8.546 4.8537 8.128 4.02229 8.01486 3.09382L1 5.9504ZM18.27 16.9853H5.73314V21H18.27V16.9853ZM18.27 14.7175H5.73314V16.2768H18.27V14.7175ZM9.64914 4.98311C10.2494 5.59777 11.0823 5.97951 12 5.97951C12.9177 5.97951 13.7506 5.59777 14.354 4.98311C14.86 4.46226 15.2089 3.76995 15.3031 3C14.2063 3.17146 13.1031 3.26204 12 3.26204C10.8969 3.26204 9.79686 3.17793 8.69686 3C8.788 3.77318 9.13686 4.46226 9.64914 4.98311Z" fill="currentColor"/>
<path d="M18.2693 13.3457H5.73242V18.1983H18.2693V13.3457Z" fill="currentColor"/>
</svg>
