<svg width="24" height="24" viewBox="0 0 24 24" fill="none" xmlns="http://www.w3.org/2000/svg">
<path d="M17.276 8.94275C16.7618 7.98343 16.0149 7.168 15.0978 6.56894C14.0428 5.87985 12.8167 5.51562 11.5515 5.51562C8.40656 5.51562 5.7413 7.75729 5.17108 10.8016C3.3588 11.1376 2 12.7301 2 14.6186C2 16.7595 3.74179 18.5013 5.88275 18.5013H17.2205C19.856 18.5013 22 16.3573 22 13.7218C22 11.1049 19.886 8.9725 17.276 8.94275ZM17.2205 17.3294H12.5859V13.5863L13.8274 14.8278C13.9418 14.9422 14.0918 14.9994 14.2418 14.9994C14.3917 14.9994 14.5417 14.9422 14.6561 14.8278C14.885 14.5989 14.885 14.2279 14.6561 13.9992L12.4143 11.7574C12.1855 11.5285 11.8145 11.5285 11.5857 11.7574L9.3439 13.9992C9.11502 14.2279 9.11502 14.5989 9.3439 14.8278C9.57263 15.0566 9.94373 15.0566 10.1726 14.8278L11.4141 13.5863V17.3294H5.88275C4.388 17.3294 3.17188 16.1133 3.17188 14.6186C3.17188 13.1865 4.29065 11.9982 5.71872 11.9132C6.00284 11.8962 6.23355 11.6777 6.26605 11.395C6.57382 8.71127 8.84601 6.6875 11.5515 6.6875C13.6219 6.6875 15.5197 7.90302 16.3866 9.78442C16.4887 10.0058 16.7173 10.141 16.9605 10.1236C17.0484 10.1174 17.1358 10.1142 17.2205 10.1142C19.2098 10.1142 20.8281 11.7325 20.8281 13.7218C20.8281 15.7111 19.2098 17.3294 17.2205 17.3294Z" fill="currentColor"/>
</svg>
