<svg width="24" height="24" viewBox="-3 -3 30 30" fill="none" xmlns="http://www.w3.org/2000/svg">
<path d="M19.8766 10.2692H19.658H19.6581C20.1006 8.8467 19.9617 7.30532 19.2721 5.98649C18.5824 4.66779 17.3992 3.68096 15.9848 3.24484C14.5704 2.80872 13.0417 2.95942 11.738 3.66343C10.4343 4.36745 9.46322 5.56654 9.04016 6.995C7.97546 6.75168 6.8583 6.96664 5.95747 7.58799C5.05665 8.20935 4.45339 9.18092 4.29293 10.2692H4.12327C3.00746 10.2692 1.97633 10.869 1.41843 11.8428C0.860524 12.8168 0.860524 14.0166 1.41843 14.9904C1.97633 15.9644 3.00741 16.5642 4.12327 16.5642H8.68743C8.96417 16.5642 9.21993 16.4154 9.35839 16.1738C9.49667 15.9324 9.49667 15.6347 9.35839 15.3931C9.21993 15.1517 8.96417 15.0029 8.68743 15.0029H4.12327C3.56091 15.0029 3.04138 14.7005 2.76018 14.2097C2.479 13.719 2.479 13.1143 2.76018 12.6235C3.04135 12.1327 3.56091 11.8305 4.12327 11.8305H5.03143C5.24508 11.8303 5.44918 11.7414 5.59566 11.5846C5.74196 11.4277 5.81767 11.2168 5.80454 11.002C5.8013 10.9503 5.7996 10.8996 5.7996 10.851H5.79977C5.80045 10.2167 6.05076 9.60862 6.49578 9.15996C6.94098 8.71148 7.54428 8.45919 8.17378 8.45853C8.55197 8.45716 8.92488 8.54823 9.2606 8.7235C9.48619 8.84087 9.75473 8.83932 9.97914 8.71921C10.2034 8.59926 10.3551 8.37588 10.385 8.12173C10.529 6.91578 11.2048 5.83956 12.2245 5.19206C13.2441 4.54439 14.4991 4.39456 15.6409 4.78378C16.7824 5.17317 17.6892 6.0602 18.1092 7.19876C18.5292 8.33719 18.4175 9.60587 17.8055 10.6522C17.7122 10.811 17.6778 10.9979 17.7083 11.1799C17.7388 11.3619 17.8323 11.527 17.9721 11.6461C18.1119 11.7652 18.2893 11.8305 18.4722 11.8305H19.8766C20.4389 11.8305 20.9586 12.1327 21.2398 12.6235C21.5209 13.1142 21.521 13.7189 21.2398 14.2097C20.9586 14.7005 20.4389 15.0029 19.8766 15.0029H15.3128C15.0361 15.0029 14.7803 15.1517 14.6419 15.3932C14.5036 15.6348 14.5036 15.9324 14.6419 16.1738C14.7803 16.4154 15.0361 16.5642 15.3128 16.5642H19.8766C20.9925 16.5642 22.0237 15.9643 22.5816 14.9904C23.1395 14.0166 23.1395 12.8168 22.5816 11.8428C22.0237 10.869 20.9926 10.2692 19.8766 10.2692L19.8766 10.2692Z" fill="currentColor"/>
<path d="M14.765 13.8082C14.9099 13.9567 15.1076 14.0405 15.314 14.0412C15.5205 14.0421 15.7188 13.9598 15.8648 13.8125C16.0109 13.6654 16.0926 13.4656 16.0917 13.2575C16.0909 13.0494 16.0075 12.8501 15.8604 12.7042L12.5481 9.36587C12.4027 9.21947 12.2058 9.13733 12.0003 9.13733C11.7948 9.13733 11.5979 9.21947 11.4524 9.36587L8.14022 12.7042C7.94703 12.902 7.87268 13.1881 7.94447 13.4558C8.01642 13.7235 8.22394 13.9328 8.48976 14.0053C8.75541 14.0778 9.03933 14.0029 9.23558 13.8082L11.2256 11.8027V20.2194C11.2256 20.4983 11.3733 20.756 11.6129 20.8954C11.8526 21.0349 12.1479 21.0349 12.3877 20.8954C12.6272 20.756 12.7749 20.4982 12.7749 20.2194V11.8027L14.765 13.8082Z" fill="currentColor"/>
</svg>
