<svg width="24" height="24" viewBox="0 0 24 24" fill="none" xmlns="http://www.w3.org/2000/svg">
<path d="M20.4844 12.5696H18.1351C17.8154 12.5696 17.5058 12.6133 17.2112 12.6936C16.63 11.5512 15.4435 10.7662 14.0763 10.7662H9.92367C8.55647 10.7662 7.36997 11.5512 6.78881 12.6936C6.4942 12.6133 6.18464 12.5696 5.86491 12.5696H3.51562C1.57711 12.5696 0 14.1467 0 16.0852V19.8408C0 21.0039 0.946266 21.9501 2.10938 21.9501H21.8906C23.0537 21.9501 24 21.0039 24 19.8408V16.0852C24 14.1467 22.4229 12.5696 20.4844 12.5696ZM6.40805 14.282V20.5439H2.10938C1.72167 20.5439 1.40625 20.2285 1.40625 19.8408V16.0853C1.40625 14.9222 2.35252 13.9759 3.51562 13.9759H5.86491C6.05578 13.9759 6.24061 14.0018 6.41658 14.0496C6.41152 14.1265 6.40805 14.2039 6.40805 14.282ZM16.1857 20.5439H7.8143V14.2819C7.8143 13.1188 8.76056 12.1725 9.92367 12.1725H14.0763C15.2394 12.1725 16.1857 13.1188 16.1857 14.2819V20.5439ZM22.5938 19.8408C22.5938 20.2285 22.2783 20.5439 21.8906 20.5439H17.592V14.2819C17.592 14.2038 17.5885 14.1264 17.5834 14.0495C17.7594 14.0018 17.9442 13.9759 18.1351 13.9759H20.4844C21.6475 13.9759 22.5938 14.9221 22.5938 16.0852V19.8408Z" fill="currentColor"/>
<path d="M4.69044 5.92987C2.96783 5.92987 1.56641 7.33129 1.56641 9.0539C1.56636 10.7765 2.96783 12.1779 4.69044 12.1779C6.413 12.1779 7.81447 10.7765 7.81447 9.0539C7.81447 7.33129 6.41305 5.92987 4.69044 5.92987ZM4.69039 10.7717C3.74319 10.7717 2.97261 10.0011 2.97261 9.0539C2.97261 8.1067 3.74319 7.33612 4.69039 7.33612C5.63759 7.33612 6.40817 8.1067 6.40817 9.0539C6.40817 10.0011 5.63759 10.7717 4.69039 10.7717Z" fill="currentColor"/>
<path d="M11.9998 2.0498C9.69845 2.0498 7.82617 3.92209 7.82617 6.22346C7.82617 8.52484 9.69845 10.3971 11.9998 10.3971C14.3012 10.3971 16.1735 8.52484 16.1735 6.22346C16.1735 3.92213 14.3012 2.0498 11.9998 2.0498ZM11.9998 8.99087C10.4739 8.99087 9.23242 7.74943 9.23242 6.22346C9.23242 4.69754 10.4739 3.45605 11.9998 3.45605C13.5258 3.45605 14.7672 4.69749 14.7672 6.22346C14.7672 7.74943 13.5258 8.99087 11.9998 8.99087Z" fill="currentColor"/>
<path d="M19.3096 5.92987C17.587 5.92987 16.1855 7.33129 16.1855 9.0539C16.1856 10.7765 17.587 12.1779 19.3096 12.1779C21.0322 12.1779 22.4336 10.7765 22.4336 9.0539C22.4336 7.33129 21.0322 5.92987 19.3096 5.92987ZM19.3096 10.7717C18.3624 10.7717 17.5918 10.0011 17.5918 9.0539C17.5918 8.1067 18.3624 7.33612 19.3096 7.33612C20.2568 7.33612 21.0274 8.1067 21.0274 9.0539C21.0274 10.0011 20.2568 10.7717 19.3096 10.7717Z" fill="currentColor"/>
</svg>
