<svg width="64" height="64" viewBox="0 0 64 64" fill="none" xmlns="http://www.w3.org/2000/svg">
<path d="M56.7128 28.0734C56.1816 28.0734 55.7021 27.7251 55.53 27.2248C55.3675 26.7526 55.514 26.2129 55.8885 25.8839C56.2968 25.5253 56.9105 25.4743 57.3723 25.7614C57.8035 26.0296 58.0326 26.5481 57.9414 27.0471C57.8344 27.6329 57.3095 28.0734 56.7128 28.0734Z" fill="currentColor"/>
<path d="M37.6253 29.8814C32.7626 29.8814 28.8066 25.9251 28.8066 21.0618C28.8066 16.1987 32.7626 12.2422 37.6253 12.2422C42.4879 12.2422 46.4439 16.1987 46.4439 21.0618C46.444 25.9251 42.4879 29.8814 37.6253 29.8814ZM37.6253 14.7422C34.1411 14.7422 31.3066 17.5772 31.3066 21.0618C31.3066 24.5464 34.1411 27.3814 37.6253 27.3814C41.1094 27.3814 43.9439 24.5464 43.9439 21.0618C43.944 17.5772 41.1094 14.7422 37.6253 14.7422Z" fill="currentColor"/>
<path d="M56.0633 31.485C55.4114 31.2573 54.6986 31.6015 54.4713 32.2533C53.5831 34.7983 52.158 37.064 50.2359 38.9873C49.5706 39.6525 48.8584 40.2618 48.1056 40.8103V35.1999C48.1056 33.1192 46.4129 31.4263 44.3324 31.4263H30.9183C28.8376 31.4263 27.145 33.1192 27.145 35.1999V40.8319C26.3869 40.2809 25.6701 39.6688 25.0018 39.0003C18.0481 32.0458 18.054 20.7243 25.0149 13.7627C28.3869 10.3902 32.8689 8.53155 37.6353 8.5293H37.6439C42.4064 8.5293 46.8826 10.383 50.2488 13.7495C52.1828 15.6838 53.6118 17.9664 54.4961 20.5339C54.721 21.1867 55.4324 21.5335 56.085 21.3088C56.7378 21.0839 57.0846 20.3725 56.8599 19.7199C55.8509 16.7904 54.2214 14.1869 52.0166 11.9819C48.1781 8.14292 43.0748 6.0293 37.6439 6.0293H37.634C32.2003 6.03192 27.0908 8.15055 23.2469 11.9949C15.3115 19.9313 15.3056 32.8388 23.2338 40.7679C24.5915 42.1259 26.1249 43.2805 27.791 44.1999C27.7914 44.2002 27.7918 44.2003 27.7921 44.2004C30.781 45.849 34.174 46.7202 37.6065 46.7202H37.6264C41.0653 46.7168 44.4654 45.8389 47.4593 44.1814C47.4596 44.1812 47.46 44.181 47.4604 44.1808C49.1193 43.2634 50.6478 42.1108 52.0038 40.7545C54.194 38.5629 55.8184 35.9798 56.8314 33.0768C57.059 32.4253 56.715 31.7125 56.0633 31.485ZM29.645 42.35V35.2C29.645 34.4978 30.2161 33.9264 30.9183 33.9264H44.3323C45.0344 33.9264 45.6055 34.4978 45.6055 35.2V42.333C40.6203 44.827 34.631 44.8334 29.645 42.35Z" fill="currentColor"/>
<path d="M37.6231 0C23.083 0 11.2538 11.8308 11.2538 26.3726C11.2538 32.0956 13.0863 37.3985 16.1948 41.7257L13.7972 44.1236L13.2007 43.527C12.9662 43.2926 12.6483 43.1609 12.3167 43.1609C11.9852 43.1609 11.6672 43.2926 11.4327 43.527L7.79784 47.1625C7.79747 47.1629 7.7971 47.1634 7.79672 47.1637L1.87747 53.0838C-0.615406 55.577 -0.615406 59.6337 1.87747 62.127C3.08509 63.3349 4.69084 64 6.39872 64C8.10659 64 9.71234 63.3347 10.9198 62.127L16.8403 56.2057H16.8405L20.4753 52.5704C20.9633 52.0822 20.9633 51.2909 20.4753 50.8027L19.8786 50.206L22.277 47.8074C26.6028 50.9141 31.9031 52.7454 37.6232 52.7454C52.1633 52.7454 63.9926 40.9146 63.9926 26.3727C63.9926 11.8309 52.1632 0 37.6231 0ZM9.15197 60.3594C8.41659 61.0949 7.43872 61.5 6.39872 61.5C5.35859 61.5 4.38072 61.0949 3.64534 60.3594C2.12697 58.8407 2.12697 56.37 3.64534 54.8514L8.68184 49.8141L11.4325 52.565L14.1888 55.3218L9.15197 60.3594ZM15.9565 53.554L13.2058 50.8031L10.4495 48.0464L12.3167 46.1789L17.8237 51.6865L15.9565 53.554ZM18.1108 48.438L16.8383 47.1654L15.5647 45.8916L17.7582 43.6979C18.5485 44.603 19.3993 45.4539 20.3046 46.244L18.1108 48.438ZM37.6231 50.2453C24.4615 50.2453 13.7537 39.536 13.7537 26.3726C13.7538 13.2093 24.4616 2.5 37.6231 2.5C50.7846 2.5 61.4925 13.2093 61.4925 26.3726C61.4925 39.536 50.7847 50.2453 37.6231 50.2453Z" fill="currentColor"/>
</svg>
