<svg width="24" height="24" viewBox="0 0 24 24" fill="none" xmlns="http://www.w3.org/2000/svg">
<path d="M12 14.9648C11.5527 14.9648 11.1777 15.3398 11.1777 15.7871C11.1777 16.2344 11.5527 16.6094 12 16.6094C12.4309 16.6094 12.8223 16.2344 12.8025 15.8068C12.8223 15.3365 12.4506 14.9648 12 14.9648Z" fill="currentColor"/>
<path d="M19.6107 17.8799C20.127 16.9885 20.1303 15.9262 19.6172 15.0381L14.4666 6.11824C13.9568 5.22033 13.0359 4.6875 12.0031 4.6875C10.9703 4.6875 10.0494 5.22361 9.53959 6.11495L4.38237 15.0447C3.86928 15.9426 3.87257 17.0116 4.39223 17.9029C4.90533 18.7844 5.82297 19.3139 6.84915 19.3139H17.1373C18.1668 19.3139 19.091 18.7778 19.6107 17.8799ZM18.4924 17.2352C18.2062 17.7286 17.6997 18.0213 17.134 18.0213H6.84586C6.28673 18.0213 5.7835 17.7352 5.50393 17.2517C5.22107 16.7616 5.21779 16.1761 5.50064 15.6828L10.6579 6.75631C10.9374 6.26624 11.4374 5.97681 12.0031 5.97681C12.5655 5.97681 13.0687 6.26953 13.3483 6.7596L18.5022 15.6861C18.7785 16.1663 18.7752 16.7451 18.4924 17.2352Z" fill="currentColor"/>
<path d="M11.7959 9.19314C11.4045 9.30496 11.1611 9.66018 11.1611 10.091C11.1809 10.3509 11.1973 10.614 11.217 10.8738C11.273 11.8638 11.3289 12.8341 11.3848 13.8241C11.4045 14.1596 11.6644 14.403 11.9998 14.403C12.3353 14.403 12.5984 14.1432 12.6149 13.8044C12.6149 13.6005 12.6149 13.413 12.6346 13.2058C12.6708 12.571 12.7103 11.9362 12.7465 11.3014C12.7662 10.8903 12.8024 10.4792 12.8221 10.068C12.8221 9.92001 12.8024 9.78845 12.7465 9.65689C12.5787 9.28852 12.1873 9.10104 11.7959 9.19314Z" fill="currentColor"/>
</svg>
