<svg width="40" height="40" viewBox="0 0 40 40" fill="none" xmlns="http://www.w3.org/2000/svg">
<path d="M39.2813 30.0488L24.5904 4.60357C23.6325 2.94403 21.9162 1.95312 20 1.95312C18.0835 1.95312 16.3675 2.94403 15.4095 4.60357L0.718688 30.0488C-0.239563 31.7084 -0.239563 33.6899 0.718688 35.3494C1.67663 37.0089 3.39294 37.9999 5.30914 37.9999H34.6908C36.607 37.9999 38.3233 37.0089 39.2813 35.3494C40.2395 33.6899 40.2395 31.7084 39.2813 30.0488ZM38.2614 34.7604C37.5161 36.0513 36.1813 36.8219 34.6908 36.8219H5.30914C3.81866 36.8219 2.48382 36.0513 1.73859 34.7604C0.993346 33.4698 0.993346 31.9287 1.73859 30.6378L16.4294 5.19256C17.1747 3.90167 18.5095 3.1311 20 3.1311C21.4905 3.1311 22.825 3.90167 23.5702 5.19256L38.2611 30.6378C39.0066 31.9287 39.0066 33.4698 38.2614 34.7604Z" fill="currentColor"/>
<path d="M22.5502 5.78107C21.783 4.45203 20.511 4.30859 19.9998 4.30859C19.4887 4.30859 18.2167 4.45203 17.4495 5.78107L2.75863 31.2263C1.99142 32.5553 2.5032 33.7284 2.75863 34.1709C3.01437 34.6137 3.77456 35.6434 5.30899 35.6434H34.6907C36.2254 35.6434 36.9853 34.6137 37.241 34.1709C37.4965 33.7281 38.0082 32.555 37.241 31.2263L22.5502 5.78107ZM36.2208 33.5823C36.0304 33.9121 35.5781 34.4654 34.6907 34.4654H5.30899C4.42123 34.4654 3.96927 33.9121 3.77884 33.5823C3.58841 33.2524 3.33481 32.584 3.77884 31.8153L18.4697 6.36975C18.9134 5.60132 19.619 5.48657 19.9998 5.48657C20.3807 5.48657 21.0863 5.60132 21.53 6.37005L36.2208 31.8153C36.6646 32.5837 36.4113 33.2521 36.2208 33.5823Z" fill="currentColor"/>
<path d="M17.5709 26.5347H22.4287L23.5035 12.9492H16.4961L17.5709 26.5347ZM22.2288 14.1272L21.3404 25.3567H18.6595L17.7708 14.1272H22.2288Z" fill="currentColor"/>
<path d="M19.9996 27.5547C18.3758 27.5547 17.0547 28.8755 17.0547 30.4993C17.0547 32.1232 18.3758 33.4443 19.9996 33.4443C21.6235 33.4443 22.9446 32.1232 22.9446 30.4993C22.9446 28.8755 21.6235 27.5547 19.9996 27.5547ZM19.9996 32.2663C19.0252 32.2663 18.2327 31.4738 18.2327 30.4993C18.2327 29.5252 19.0252 28.7327 19.9996 28.7327C20.9741 28.7327 21.7666 29.5252 21.7666 30.4993C21.7666 31.4738 20.9738 32.2663 19.9996 32.2663Z" fill="currentColor"/>
<path d="M19.4111 9.06055H20.5891V10.2385H19.4111V9.06055Z" fill="currentColor"/>
<path d="M7.08203 31.127H8.2597V32.3049H7.08203V31.127Z" fill="currentColor"/>
<path d="M31.5049 31.127H32.6829V32.3049H31.5049V31.127Z" fill="currentColor"/>
</svg>