<svg width="24" height="24" viewBox="0 0 24 24" fill="none" xmlns="http://www.w3.org/2000/svg">
<path d="M8.66229 4.80683C8.5195 4.57022 8.23394 4.52303 7.99584 4.66493C7.75774 4.80683 7.71027 5.09062 7.85305 5.32724L9.23355 7.31414C9.37634 7.55074 9.6619 7.59793 9.9 7.45603C10.1381 7.31414 10.1856 7.03035 10.0428 6.79372L8.66229 4.80683Z" fill="currentColor"/>
<path d="M13.5177 3.52953C13.2796 3.48217 12.9941 3.67143 12.9464 3.90803L12.5181 6.27343C12.4704 6.51004 12.6609 6.79382 12.899 6.84117C13.1845 6.88852 13.4226 6.69927 13.4702 6.46266L13.8986 4.09727C13.9462 3.8133 13.8033 3.57688 13.5177 3.52953V3.52953Z" fill="currentColor"/>
<path d="M11.0899 3.34022C11.0425 3.10378 10.8044 2.96172 10.5188 3.00907C10.2807 3.05643 10.0904 3.29287 10.1379 3.57681L10.6616 5.94221C10.7092 6.17882 10.9948 6.3679 11.2328 6.32071C11.4709 6.27336 11.6612 6.03692 11.6137 5.75298L11.0899 3.34022Z" fill="currentColor"/>
<path d="M22.9908 10.1999L22.2291 6.60447C22.1814 6.32067 21.8958 6.17878 21.6578 6.22597L8.66248 8.96987C6.04421 9.67954 4.23536 11.903 4.09255 14.5049C3.66421 14.2683 3.14057 14.1738 2.61689 14.2683C1.52193 14.5049 0.807879 15.5931 1.04577 16.7284C1.28385 17.7692 2.33097 18.5734 3.52106 18.3368C3.99705 18.2422 4.42557 17.9583 4.71114 17.5798C5.99635 20.1344 8.9002 21.5536 11.804 20.7967C15.2315 19.8978 17.1356 16.2552 16.2312 13.3694C16.136 12.849 16.3739 12.3285 16.9929 12.1867L22.6101 10.7202C22.8958 10.673 23.0386 10.4364 22.991 10.1999L22.9908 10.1999ZM3.3306 17.3907C2.7118 17.5326 2.09287 17.1069 1.9501 16.4918C1.80732 15.9241 2.18819 15.2618 2.85461 15.1199C3.5687 14.978 4.09234 15.4511 4.23511 16.0188C4.33024 16.6811 3.94937 17.2962 3.3306 17.3907ZM10.3283 18.4316C8.66222 18.4316 7.18639 17.2489 6.80569 15.5931C6.3297 13.3696 8.04342 11.2881 10.3283 11.2881C11.9944 11.2881 13.4702 12.4708 13.8034 14.1265C14.3269 16.35 12.6132 18.4316 10.3283 18.4316ZM10.3759 12.2342C8.70987 12.2342 7.47214 13.7481 7.80537 15.4038C8.04345 16.5865 9.13822 17.4854 10.3759 17.4854C12.042 17.4854 13.2798 15.9715 12.9465 14.3158C12.6608 13.1329 11.566 12.2342 10.3759 12.2342Z" fill="currentColor"/>
</svg>
