<svg width="24" height="24" viewBox="0 0 24 24" fill="none" xmlns="http://www.w3.org/2000/svg">
  <path d="M23.9186 5.95206L21.0049 0.430746C20.8238 0.087434 20.3987 -0.0440504 20.0553 0.136887L12 4.38311C11.6566 4.56409 11.5249 4.98906 11.7056 5.33256L12.4477 6.74293L9.95677 8.05239L9.21591 6.6444C9.03512 6.30095 8.60935 6.16848 8.26566 6.34998L4.38066 8.39964C0.251069 10.5764 -1.25535 15.7649 1.14971 19.8338L0.62171 20.3615C-0.199071 21.182 -0.199306 22.5102 0.62171 23.3308C1.44043 24.1491 2.77252 24.1492 3.59129 23.3308L4.13841 22.7839C6.59509 24.1811 9.66629 24.2619 12.2837 22.7649C15.6968 20.8124 17.1063 16.8334 16.0748 13.3335C15.7113 12.1003 16.2697 10.7418 17.4759 10.1192L23.6228 6.90329C23.9676 6.72278 24.1003 6.29622 23.9186 5.95206ZM2.59726 22.3361C2.32655 22.6066 1.8863 22.6066 1.61569 22.3361C1.3448 22.0653 1.34471 21.6271 1.61569 21.3562L1.97719 20.9948C2.27898 21.349 2.60855 21.6752 2.96316 21.9704L2.59726 22.3361ZM16.8264 8.87195C15.0493 9.78751 14.1659 11.8307 14.726 13.7311C15.6194 16.7625 14.328 19.9754 11.5855 21.5443C8.2658 23.4431 4.08741 22.2666 2.25094 18.9277C0.417804 15.5953 1.67077 11.4177 5.03649 9.64351L8.29927 7.92212L9.03966 9.32922C9.22046 9.67276 9.64552 9.80486 9.98898 9.62415L13.7245 7.66037C14.068 7.47981 14.2005 7.05423 14.0196 6.71054L13.2771 5.29947L20.0892 1.70856L22.3456 5.98431L16.8264 8.87195Z" fill="currentColor"/>
  <path d="M12.3614 13.4241C11.1888 11.1518 8.36861 10.2868 6.04825 11.5307C3.75414 12.7605 2.84022 15.6068 4.01083 17.8756C5.18078 20.1429 7.99849 21.0157 10.324 19.7691C12.618 18.5393 13.5319 15.693 12.3614 13.4241ZM9.6596 18.5297C8.02427 19.4064 6.06832 18.7964 5.26042 17.2308C4.43978 15.6403 5.09121 13.6393 6.71257 12.7701C8.33674 11.8993 10.2983 12.4925 11.1117 14.069V14.069C11.9324 15.6595 11.281 17.6605 9.6596 18.5297Z" fill="currentColor"/>
  <path d="M8.28839 3.36897C8.46933 3.71275 8.89453 3.84456 9.23799 3.66377C9.58163 3.48297 9.71358 3.05772 9.53278 2.71408L8.49338 0.738627C8.31253 0.394987 7.88742 0.262987 7.54378 0.44383C7.20014 0.624627 7.06819 1.04988 7.24899 1.39352L8.28839 3.36897Z" fill="currentColor"/>
  <path d="M5.19852 5.15948L7.32107 5.62045C7.69972 5.70281 8.07477 5.46267 8.15732 5.08256C8.23972 4.70306 7.99893 4.32862 7.61947 4.24621L5.49693 3.78525C5.11738 3.7027 4.74308 3.94368 4.66068 4.32314C4.57832 4.70264 4.81912 5.07707 5.19852 5.15948Z" fill="currentColor"/>
  <path d="M11.0188 3.5783C11.3779 3.72544 11.7887 3.55369 11.9359 3.19411L12.7714 1.15387C12.9185 0.794531 12.7465 0.383906 12.3872 0.236765C12.0277 0.0894838 11.6172 0.261609 11.4701 0.620952L10.6347 2.66119C10.4875 3.02053 10.6595 3.43116 11.0188 3.5783Z" fill="currentColor"/>
</svg>
