<svg width="38" height="38" viewBox="0 0 38 38" fill="none" xmlns="http://www.w3.org/2000/svg">
<path d="M36.5036 33.8222C36.4131 33.595 36.256 33.4004 36.0532 33.2636C35.8504 33.127 35.611 33.0546 35.3665 33.0559H32.4417V24.5001C32.4417 24.0139 32.2486 23.5477 31.9049 23.2036C31.5612 22.8599 31.0947 22.6668 30.6085 22.6668H23.887V21.4445C23.8855 21.0667 23.7671 20.6987 23.5484 20.3905C23.3295 20.0825 23.021 19.8495 22.6648 19.7237V19.0001C22.6633 18.6223 22.5448 18.2542 22.3262 17.946C22.1075 17.6381 21.7988 17.4051 21.4425 17.2792V14.8666C23.397 14.0983 24.8822 12.4634 25.4599 10.4444H26.3313C27.1412 10.4436 27.9179 10.1214 28.4906 9.54843C29.0635 8.97551 29.3857 8.19904 29.3868 7.38903V4.3334C29.3868 3.84719 29.1934 3.38092 28.8497 3.03691C28.5059 2.69316 28.0397 2.50006 27.5535 2.50006H25.7203V1.88904C25.7203 1.56473 25.5914 1.25398 25.3622 1.02482C25.1331 0.795402 24.8221 0.666748 24.498 0.666748H13.4986C13.1746 0.666748 12.8636 0.795395 12.6344 1.02482C12.4053 1.25399 12.2764 1.56474 12.2764 1.88904V2.50006H10.4431C9.95694 2.50006 9.49069 2.69316 9.14696 3.03691C8.80323 3.38092 8.60988 3.84718 8.60988 4.3334V7.38903C8.6109 8.19904 8.93315 8.97551 9.50607 9.54843C10.0787 10.1213 10.8554 10.4436 11.6654 10.4444H12.5367C13.1145 12.4634 14.5997 14.0983 16.5541 14.8666V17.2792C16.1978 17.4051 15.8891 17.6381 15.6705 17.946C15.4518 18.2542 15.3334 18.6223 15.3319 19.0001V19.7237C14.9756 19.8495 14.6672 20.0825 14.4482 20.3905C14.2296 20.6987 14.1111 21.0667 14.1096 21.4445V25.7222L7.38817 25.7224C6.90198 25.7224 6.43547 25.9155 6.09174 26.2593C5.74801 26.603 5.55491 27.0695 5.55491 27.5558V33.0557H2.63011C2.38561 33.0542 2.14648 33.1266 1.94369 33.2634C1.74088 33.4 1.5841 33.5949 1.49357 33.822L0.753658 35.665C0.603528 36.0387 0.649307 36.4625 0.875909 36.7955C1.10302 37.1319 1.48255 37.3334 1.88845 37.3334H36.1085C36.5154 37.3342 36.8957 37.1326 37.1236 36.7955C37.3504 36.4625 37.3962 36.0382 37.2458 35.6646L36.5036 33.8222ZM27.5534 3.72286C27.7153 3.72286 27.8708 3.78705 27.9854 3.90164C28.1 4.01648 28.1644 4.17173 28.1644 4.33389V7.38952C28.1644 7.87573 27.9714 8.342 27.6276 8.68575C27.2836 9.02949 26.8174 9.22285 26.3312 9.22285H25.689C25.7074 9.02131 25.7202 8.81823 25.7202 8.61183V3.72287L27.5534 3.72286ZM30.6089 23.8895H30.6087C30.7708 23.8895 30.9263 23.9536 31.0409 24.0682C31.1555 24.1831 31.2199 24.3383 31.2199 24.5005V33.0562H23.887V23.8896L30.6089 23.8895ZM11.665 9.22284C11.1788 9.22284 10.7126 9.02948 10.3686 8.68573C10.0249 8.34198 9.83177 7.87573 9.83177 7.3895V4.33387C9.83177 3.99627 10.1054 3.72285 10.4428 3.72285H12.276V8.61181C12.276 8.81846 12.2888 9.02129 12.3072 9.22283L11.665 9.22284ZM13.4983 8.61182V1.8894H24.4977V8.61116C24.4977 10.5762 23.4493 12.3919 21.7478 13.3743C20.0463 14.3569 17.9496 14.3569 16.2481 13.3743C14.5466 12.3919 13.4983 10.5762 13.4983 8.61116V8.61182ZM18.998 15.3342V15.334C19.4079 15.3324 19.8172 15.2933 20.2202 15.2174V17.1673H17.7757V15.2174C18.1788 15.2933 18.588 15.3324 18.998 15.334V15.3342ZM16.5537 19.0009V19.0006C16.5537 18.663 16.8271 18.3896 17.1647 18.3896H20.8312C20.9934 18.3896 21.1486 18.4538 21.2634 18.5684C21.378 18.6832 21.4422 18.8385 21.4422 19.0006V19.6117H16.5538L16.5537 19.0009ZM15.9428 20.8342L22.0535 20.834C22.2154 20.834 22.3709 20.8984 22.4854 21.013C22.6 21.1276 22.6645 21.2831 22.6645 21.445V33.0565H15.3315V21.445C15.3315 21.1076 15.6052 20.834 15.9425 20.834L15.9428 20.8342ZM6.77655 27.556C6.77655 27.2184 7.05021 26.9447 7.3878 26.9447H14.1092V33.056H6.77628L6.77655 27.556ZM36.1084 36.1111L1.88835 36.119L2.63002 34.2777H35.3697L36.1084 36.1111Z" fill="#94A3B8"/>
</svg>
