<svg width="40" height="40" viewBox="0 0 40 40" fill="none" xmlns="http://www.w3.org/2000/svg">
<path d="M17.1013 18.1668C16.9528 18.1668 16.8046 18.1069 16.6915 17.9878L12.0537 13.0988C11.8271 12.8599 11.8271 12.4737 12.0537 12.2346C12.2804 11.9957 12.6467 11.9957 12.8736 12.2346L17.5113 17.1235C17.7379 17.3624 17.7379 17.7486 17.5113 17.9878C17.3983 18.1069 17.2498 18.1668 17.1013 18.1668H17.1013Z" fill="#94A3B8"/>
<path d="M12.464 18.1668C12.3155 18.1668 12.1673 18.1069 12.0542 17.9878C11.8276 17.7489 11.8276 17.3627 12.0542 17.1235L16.692 12.2346C16.9186 11.9957 17.285 11.9957 17.5118 12.2346C17.7384 12.4735 17.7384 12.8597 17.5118 13.0988L12.874 17.9878C12.7607 18.1069 12.6123 18.1668 12.464 18.1668H12.464Z" fill="#94A3B8"/>
<path d="M27.5357 32.8335C27.3872 32.8335 27.239 32.7737 27.1259 32.6545L24.8072 30.2101C24.5806 29.9712 24.5806 29.585 24.8072 29.3459C25.0338 29.107 25.4001 29.107 25.627 29.3459L27.9457 31.7903C28.1723 32.0291 28.1723 32.4154 27.9457 32.6545C27.8327 32.7737 27.6842 32.8335 27.5357 32.8335H27.5357Z" fill="#94A3B8"/>
<path d="M25.2174 32.8335C25.069 32.8335 24.9207 32.7737 24.8077 32.6545C24.581 32.4156 24.581 32.0294 24.8077 31.7903L27.1264 29.3459C27.353 29.107 27.7194 29.107 27.9462 29.3459C28.1728 29.5848 28.1728 29.971 27.9462 30.2101L25.6275 32.6545C25.5142 32.7737 25.3659 32.8335 25.2174 32.8335H25.2174Z" fill="#94A3B8"/>
<path d="M15.3622 31.6111C14.0833 31.6111 13.0435 30.5149 13.0435 29.1668C13.0435 27.8186 14.0833 26.7224 15.3622 26.7224C16.6411 26.7224 17.681 27.8186 17.681 29.1668C17.6812 30.5149 16.6411 31.6111 15.3622 31.6111ZM15.3622 27.9445C14.7229 27.9445 14.2027 28.4926 14.2027 29.1668C14.2027 29.8407 14.7227 30.3891 15.3622 30.3891C16.0015 30.3891 16.5217 29.841 16.5217 29.1668C16.5217 28.4928 16.0018 27.9445 15.3622 27.9445Z" fill="#94A3B8"/>
<path d="M24.6376 26.7224C23.3587 26.7224 22.3188 25.6262 22.3188 24.2781C22.3188 22.9299 23.3587 21.8337 24.6376 21.8337C25.9165 21.8337 26.9564 22.9299 26.9564 24.2781C26.9564 25.626 25.9165 26.7224 24.6376 26.7224ZM24.6376 23.0558C23.9983 23.0558 23.4781 23.6039 23.4781 24.2781C23.4781 24.952 23.998 25.5004 24.6376 25.5004C25.2769 25.5004 25.7971 24.9523 25.7971 24.2781C25.7969 23.6039 25.2769 23.0558 24.6376 23.0558Z" fill="#94A3B8"/>
<path d="M15.3619 23.6669C15.0418 23.6669 14.7822 23.3937 14.7822 23.0559C14.7822 22.718 15.0418 22.4448 15.3619 22.4448C19.8373 22.4448 23.478 18.6071 23.478 13.8891C23.478 13.5512 23.7376 13.2781 24.0576 13.2781C24.3776 13.2781 24.6372 13.5512 24.6372 13.8891C24.6375 19.2801 20.4763 23.6666 15.3621 23.6666L15.3619 23.6669Z" fill="#94A3B8"/>
<path d="M26.3769 16.9444C26.2284 16.9444 26.0801 16.8845 25.9671 16.7653L24.0579 14.753L22.1489 16.7653C21.9223 17.0042 21.556 17.0042 21.3291 16.7653C21.1025 16.5264 21.1025 16.1402 21.3291 15.9011L23.6479 13.4567C23.8745 13.2179 24.2409 13.2179 24.4677 13.4567L26.7865 15.9011C27.0131 16.14 27.0131 16.5262 26.7865 16.7653C26.6736 16.8845 26.5252 16.9444 26.3769 16.9444H26.3769Z" fill="#94A3B8"/>
<path d="M26.3771 9.61108H13.6231C13.3031 9.61108 13.0435 9.33792 13.0435 9.00006V5.65718C13.0435 4.46814 13.961 3.50007 15.0897 3.50007H16.5731C17.0045 3.50007 17.4165 3.27884 17.6759 2.90798C18.2186 2.13123 19.0875 1.66675 20 1.66675C20.9125 1.66675 21.7813 2.13122 22.3241 2.90798C22.5832 3.27884 22.9954 3.50007 23.4265 3.50007H24.91C26.0389 3.50007 26.9565 4.46814 26.9565 5.65718V9.00006C26.9565 9.33792 26.6969 9.61108 26.3769 9.61108H26.3771ZM14.2032 8.38903H25.7976L25.7974 5.65718C25.7974 5.14207 25.3992 4.72238 24.9106 4.72238H23.4272C22.6289 4.72238 21.8679 4.31546 21.3913 3.63279C21.0606 3.15963 20.5541 2.88905 20.0003 2.88905C19.4466 2.88905 18.9401 3.15965 18.6101 3.63279C18.1331 4.31519 17.372 4.72238 16.5738 4.72238H15.0901C14.6015 4.72238 14.2033 5.14209 14.2033 5.65718L14.2032 8.38903Z" fill="#94A3B8"/>
<path d="M30.4347 38.3333H9.56513C7.967 38.3333 6.6665 36.9627 6.6665 35.2777V7.7778C6.6665 6.0931 7.96675 4.72217 9.56513 4.72217H13.623C13.943 4.72217 14.2026 4.99533 14.2026 5.33319V8.38882H25.797V5.33345C25.797 4.99558 26.0566 4.72243 26.3767 4.72243H30.4345C32.0327 4.72243 33.3332 6.0931 33.3332 7.77806V35.278C33.3334 36.9627 32.0329 38.3333 30.4348 38.3333H30.4347ZM9.56513 5.94434C8.60625 5.94434 7.826 6.76685 7.826 7.77767V35.2776C7.826 36.2884 8.60625 37.1109 9.56513 37.1109H30.4347C31.3935 37.1109 32.1738 36.2884 32.1738 35.2776V7.77767C32.1738 6.76685 31.3935 5.94434 30.4347 5.94434H26.9564V8.99997C26.9564 9.33784 26.6968 9.611 26.3768 9.611H13.6228C13.3027 9.611 13.0431 9.33784 13.0431 8.99997V5.94434H9.56513Z" fill="#94A3B8"/>
<path d="M29.2752 35.8891H10.725C9.76609 35.8891 8.98584 35.0666 8.98584 34.0558V9.00007C8.98584 7.98926 9.76609 7.16675 10.725 7.16675H13.6236C13.9436 7.16675 14.2032 7.43991 14.2032 7.77777V8.38879H25.7976V7.77777C25.7976 7.4399 26.0572 7.16675 26.3772 7.16675H29.2759C30.2348 7.16675 31.015 7.98926 31.015 9.00007V34.0558C31.0148 35.0666 30.2345 35.8891 29.2756 35.8891H29.2752ZM10.725 8.38918C10.4054 8.38918 10.1453 8.66285 10.1453 9.00021V34.0559C10.1453 34.3932 10.4057 34.6669 10.725 34.6669H29.2759C29.5954 34.6669 29.8555 34.3932 29.8555 34.0559V9.00021C29.8555 8.66285 29.5952 8.38918 29.2759 8.38918H26.9571V9.00021C26.9571 9.33807 26.6975 9.61123 26.3775 9.61123H13.6235C13.3035 9.61123 13.0438 9.33807 13.0438 9.00021V8.38918H10.725Z" fill="#94A3B8"/>
<path d="M20.5824 7.77798H19.4171C18.7794 7.77798 18.2607 7.23115 18.2607 6.55902V5.33056C18.2607 4.65838 18.7795 4.11133 19.4173 4.11133H20.5827C21.2203 4.11133 21.739 4.65841 21.739 5.33056V6.55902C21.739 7.23119 21.2203 7.77798 20.5824 7.77798ZM20.5795 5.33056L19.4173 5.33362L19.4202 6.55901L20.5802 6.55594L20.5795 5.33056Z" fill="#94A3B8"/>
</svg>
