<svg width="1712" height="1736" viewBox="0 0 1712 1736" fill="none" xmlns="http://www.w3.org/2000/svg">
<path d="M0 840.587C0 376.347 376.343 0.000244141 840.584 0.000244141C1304.83 0.000244141 1681.17 376.347 1681.17 840.587C1681.17 1304.83 1304.83 1681.17 840.584 1681.17C376.343 1681.17 0 1304.83 0 840.587Z" fill="#DADFE6"/>
<path d="M1204.29 1353.47L812.649 886.707L874.135 835.12L1265.79 1301.87L1204.29 1353.47Z" fill="#C4C4C4"/>
<path d="M822.931 887.613L1205.2 1343.19L1255.51 1300.97L873.242 845.399L822.931 887.613ZM1203.4 1363.75L802.371 885.813L875.042 824.839L1276.07 1302.77L1203.4 1363.75Z" fill="#393939"/>
<path d="M1429.55 1704.2L1145.41 1365.59C1135.4 1353.65 1136.96 1335.85 1148.89 1325.83L1248.19 1242.51C1260.13 1232.49 1277.93 1234.04 1287.96 1245.99L1572.08 1584.6C1595.55 1612.56 1591.89 1654.24 1563.95 1677.69L1522.64 1712.35C1494.68 1735.8 1453 1732.16 1429.55 1704.2Z" fill="#9E9E9E"/>
<path d="M1266.32 1243.21C1261.58 1243.21 1256.8 1244.81 1252.88 1248.09L1153.59 1331.41C1144.75 1338.84 1143.59 1352.07 1151.02 1360.91L1435.14 1699.52C1445.23 1711.55 1459.4 1718.92 1475.04 1720.29C1490.7 1721.67 1505.92 1716.85 1517.95 1706.76L1559.26 1672.11C1584.08 1651.27 1587.34 1614.12 1566.5 1589.29L1282.38 1250.68C1278.24 1245.75 1272.3 1243.21 1266.32 1243.21ZM1480.23 1735.08C1459.27 1735.08 1438.46 1726.17 1423.96 1708.89L1139.83 1370.28C1127.24 1355.28 1129.2 1332.83 1144.2 1320.24L1243.51 1236.92C1258.51 1224.33 1280.96 1226.29 1293.55 1241.29L1577.68 1579.91C1590.28 1594.92 1596.27 1613.95 1594.56 1633.47C1592.86 1653 1583.64 1670.68 1568.63 1683.28L1527.34 1717.93C1513.62 1729.45 1496.87 1735.07 1480.23 1735.08Z" fill="#393939"/>
<path d="M450.438 1144.69C278.82 940.161 305.498 635.241 510.024 463.614C714.55 292.001 1019.48 318.681 1191.09 523.201C1362.71 727.734 1336.03 1032.65 1131.51 1204.28C926.974 1375.89 622.056 1349.21 450.438 1144.69Z" fill="#E1E3E6"/>
<path d="M819.95 357.774C708.306 357.774 601.259 396.587 514.715 469.214C313.598 637.96 287.271 938.88 456.028 1140C550.068 1252.07 685.17 1309.87 821.15 1309.87C929.188 1309.88 1037.78 1273.4 1126.82 1198.68C1224.24 1116.93 1284 1002.13 1295.08 875.44C1306.18 748.747 1267.26 625.32 1185.51 527.894C1103.75 430.467 988.962 370.707 862.268 359.627C848.112 358.387 833.987 357.774 819.95 357.774ZM821.384 1324.71C806.962 1324.71 792.496 1324.08 777.996 1322.8C714.508 1317.25 653.671 1299.79 597.175 1270.92C538.679 1241.01 487.43 1200.12 444.848 1149.37C402.268 1098.63 370.899 1041.07 351.611 978.267C332.983 917.614 326.354 854.667 331.908 791.174C337.463 727.694 354.922 666.854 383.799 610.36C413.698 551.867 454.588 500.614 505.334 458.027C556.08 415.454 613.651 384.08 676.45 364.787C737.102 346.16 800.044 339.534 863.535 345.094C927.028 350.64 987.855 368.107 1044.36 396.974C1102.86 426.88 1154.11 467.774 1196.68 518.52C1239.27 569.267 1270.63 626.827 1289.92 689.627C1308.55 750.28 1315.18 813.227 1309.63 876.72C1304.07 940.2 1286.61 1001.04 1257.73 1057.53C1227.84 1116.03 1186.95 1167.28 1136.2 1209.87C1085.46 1252.44 1027.88 1283.81 965.082 1303.11C918.282 1317.48 870.108 1324.71 821.384 1324.71Z" fill="#393939"/>
<path d="M522.706 1084.05C384.581 919.439 406.052 674.013 570.665 535.893C735.278 397.759 980.694 419.226 1118.83 583.839C1256.95 748.466 1235.48 993.879 1070.87 1132C906.254 1270.13 660.834 1248.67 522.706 1084.05Z" fill="#FCFCFC"/>
<path d="M528.297 1079.36C593.848 1157.48 685.898 1205.4 787.49 1214.28C889.081 1223.17 988.055 1191.97 1066.17 1126.41C1227.44 991.093 1248.55 749.799 1113.23 588.533C977.908 427.266 736.622 406.159 575.354 541.479C414.088 676.799 392.978 918.093 528.297 1079.36ZM821.448 1230.36C809.754 1230.36 798.007 1229.85 786.219 1228.83C680.743 1219.6 585.175 1169.84 517.117 1088.73C449.061 1007.63 416.661 904.879 425.889 799.399C435.117 693.919 484.868 598.359 565.974 530.293C647.082 462.239 749.844 429.839 855.308 439.066C960.788 448.293 1056.36 498.053 1124.41 579.159C1192.47 660.266 1224.87 763.013 1215.64 868.493C1206.41 973.973 1156.67 1069.53 1075.56 1137.6C1003.51 1198.05 914.388 1230.36 821.448 1230.36Z" fill="#393939"/>
<path d="M1497.21 1581.92C1493.64 1581.92 1490.08 1580.43 1487.55 1577.51L1256.13 1310.23C1251.52 1304.89 1252.09 1296.83 1257.43 1292.21C1262.76 1287.6 1270.83 1288.17 1275.44 1293.51L1506.85 1560.79C1511.48 1566.12 1510.89 1574.19 1505.56 1578.8C1503.15 1580.89 1500.17 1581.92 1497.21 1581.92Z" fill="#E6E6E6"/>
<path d="M1704.24 350.508V558.574C1704.24 664.348 1618.51 750.068 1512.75 750.068H1483.11L1398.03 826.801C1387.25 836.521 1370.07 828.881 1370.07 814.374V750.068H1158.73C1052.97 750.068 967.241 664.334 967.241 558.574V350.508C967.241 244.748 1052.96 159.014 1158.73 159.014H1512.75C1618.51 159.014 1704.24 244.748 1704.24 350.508Z" fill="white"/>
<path d="M1158.73 166.307C1057.17 166.307 974.535 248.934 974.535 350.507V558.574C974.535 660.147 1057.17 742.774 1158.73 742.774H1377.37V814.374C1377.37 818.214 1379.47 821.44 1382.97 823C1386.48 824.56 1390.28 823.96 1393.13 821.387L1480.29 742.774H1512.75C1614.32 742.774 1696.95 660.147 1696.95 558.574V350.507C1696.95 248.934 1614.32 166.307 1512.75 166.307H1158.73ZM1386.91 838.467C1383.6 838.467 1380.24 837.76 1377.04 836.333C1368.24 832.427 1362.77 824.014 1362.77 814.374V757.36H1158.73C1049.12 757.36 959.948 668.187 959.948 558.574V350.507C959.948 240.894 1049.12 151.707 1158.73 151.707H1512.75C1622.36 151.707 1711.53 240.894 1711.53 350.507V558.574C1711.53 668.187 1622.36 757.36 1512.75 757.36H1485.91L1402.91 832.227C1398.36 836.333 1392.69 838.467 1386.91 838.467Z" fill="#393939"/>
<path d="M1419.2 580.133C1411.04 580.133 1402.88 577.013 1396.67 570.799L1229.76 403.893C1217.31 391.44 1217.31 371.266 1229.76 358.826C1242.2 346.373 1262.37 346.373 1274.81 358.826L1441.73 525.733C1454.17 538.173 1454.17 558.346 1441.73 570.799C1435.51 577.013 1427.35 580.133 1419.2 580.133Z" fill="#FF2A0C"/>
<path d="M1252.29 580.133C1244.13 580.133 1235.97 577.013 1229.76 570.799C1217.31 558.346 1217.31 538.173 1229.76 525.733L1396.67 358.826C1409.11 346.373 1429.28 346.373 1441.73 358.826C1454.17 371.266 1454.17 391.44 1441.73 403.893L1274.81 570.799C1268.6 577.013 1260.44 580.133 1252.29 580.133Z" fill="#FF2A0C"/>
</svg>
