<svg width="38" height="34" viewBox="0 0 38 34" fill="none" xmlns="http://www.w3.org/2000/svg">
<path d="M18.8576 5.26562C18.8392 5.27782 18.8233 5.28846 18.8135 5.2952C18.822 5.2895 18.836 5.2799 18.8576 5.26562Z" fill="#94A3B8"/>
<path d="M18.9587 5.20253L18.9624 5.2002L18.9551 5.20519L18.9587 5.20253Z" fill="#94A3B8"/>
<path d="M36.3349 12.3115L19.0007 1.31978L10.3269 6.81973V0.333008H4.62317V10.4368L1.66546 12.3125C0.652482 12.9596 0.343938 14.2719 1.04896 15.2746C1.73732 16.2539 3.13411 16.5185 4.17505 15.861L4.19477 15.8485V31.2621H1.51751V32.3306H13.6128V33.6663H25.7307V32.3306H36.4617V31.2621H33.7844L33.7847 15.8346L33.827 15.8614C34.8612 16.5148 36.2603 16.2607 36.9521 15.2765C37.6446 14.2991 37.3679 12.969 36.3349 12.3115ZM5.7502 1.40164H9.19965V7.53302L5.7502 9.71984V1.40164ZM24.6029 32.5972H14.7402V31.5235H24.6029V32.5972ZM18.826 25.3662C18.8346 25.3674 18.8437 25.3669 18.8525 25.3679C19.121 25.4026 19.3945 25.4218 19.6716 25.4218C19.9493 25.4218 20.2228 25.4026 20.4911 25.3679C20.4996 25.3667 20.5084 25.3674 20.517 25.3662V28.3123H18.8263L18.826 25.3662ZM14.7624 19.6992V15.8951H24.58V19.6992C24.58 22.4845 21.9988 24.6802 19.0299 24.3134C16.671 24.0207 14.7624 22.0975 14.7624 19.6992ZM23.0077 29.3812V30.4554H16.3347V29.3812H23.0077ZM32.6566 31.2568H25.7298V30.4553H24.1348V28.3126H21.6436V25.0964C23.2926 24.5584 24.6096 23.3718 25.2589 21.8307C27.4758 20.9189 28.8972 18.8804 28.8972 16.5684V16.0341H25.707V14.8268H13.6349V16.0341L10.4393 16.0344V16.5686C10.4393 18.844 11.8926 20.9267 14.0774 21.8305C14.7569 23.4223 16.0716 24.5612 17.6983 25.0945V28.3126H15.2074V30.4554H13.6124V31.2568H5.32189V15.1342L19.0001 6.46293L32.6564 15.1197L32.6566 31.2568ZM25.6608 20.408C25.6683 20.3529 25.7075 19.9556 25.7075 19.6995V17.103H27.7389C27.5795 18.4539 26.8193 19.6487 25.6608 20.408ZM13.675 20.3271C13.6779 20.3524 13.6766 20.3787 13.68 20.404C12.5347 19.6425 11.764 18.4354 11.6001 17.1029H13.6354V19.6995C13.6354 19.9113 13.6514 20.1199 13.675 20.3271ZM36.0151 14.6822C35.6832 15.154 34.9551 15.2903 34.4526 14.9729C31.4118 13.0449 19.5886 5.54859 19.0008 5.17579C18.9964 5.17874 18.9927 5.18096 18.9886 5.18366C18.9886 5.18366 18.9831 5.18711 18.9774 5.19055L18.9792 5.18932L18.9756 5.19154C18.9717 5.194 18.9668 5.19719 18.9608 5.20088C18.9639 5.19892 18.9668 5.19719 18.9696 5.19523C18.9658 5.19769 18.9616 5.20039 18.958 5.20261C18.9515 5.20679 18.9437 5.21171 18.9349 5.21736C18.9421 5.21269 18.9489 5.20851 18.9551 5.20457C18.9131 5.23114 18.8812 5.25131 18.8578 5.26632C18.8609 5.26435 18.8643 5.26213 18.8677 5.25992C18.8511 5.2705 18.8321 5.28255 18.8114 5.29559L18.8134 5.29411C18.8083 5.29731 18.8036 5.30051 18.8036 5.30051L18.809 5.29706C18.1142 5.73762 15.0454 7.68338 3.54989 14.9721C3.04522 15.2904 2.31817 15.1531 1.98685 14.682C1.62904 14.1731 1.79302 13.5193 2.29406 13.2L19.0006 2.60562L35.7071 13.1994C36.2235 13.5278 36.362 14.1925 36.0151 14.6822Z" fill="#94A3B8"/>
<path d="M21.5478 22.8109C21.7212 22.6913 21.8081 22.4886 21.7718 22.2884L21.5268 20.934L22.5655 19.9749C22.7191 19.833 22.7741 19.6207 22.708 19.4271C22.6413 19.2338 22.4654 19.0926 22.2528 19.0636L20.8185 18.8661L20.1768 17.6339C19.9874 17.2692 19.3556 17.2692 19.1661 17.6339L18.5244 18.8661L17.0901 19.0636C16.8776 19.0929 16.7014 19.234 16.635 19.4271C16.5688 19.6207 16.6241 19.833 16.7774 19.9749L17.8161 20.934L17.5706 22.2882C17.5343 22.4889 17.6212 22.6913 17.7946 22.8109C18.2904 23.1528 18.7715 22.5491 19.6713 22.2121C20.6949 22.6441 21.0857 23.1297 21.5478 22.8109ZM19.4096 21.1355L18.875 21.4019L18.9768 20.8381C19.0081 20.6647 18.9477 20.4878 18.8148 20.3648L18.3823 19.9654L18.9796 19.8832C19.1633 19.8579 19.3218 19.7487 19.4038 19.5907L19.6714 19.0774L19.9389 19.5907C20.0209 19.7487 20.1794 19.8579 20.3631 19.8832L20.9604 19.9654L20.5279 20.3648C20.3953 20.4878 20.3346 20.6647 20.366 20.8379L20.4677 21.4019L19.9337 21.1355C19.7689 21.0536 19.5735 21.0536 19.4096 21.1355Z" fill="#94A3B8"/>
</svg>
