<svg width="40" height="40" viewBox="0 0 40 40" fill="none" xmlns="http://www.w3.org/2000/svg">
<path d="M36.6289 11.3128C36.5731 11.3136 36.5177 11.3225 36.464 11.3393V6.81787C36.4645 6.60343 36.441 6.38951 36.3944 6.18055C36.3972 6.13557 36.3972 6.09033 36.3944 6.04535C36.4054 3.63105 29.0576 1.6665 19.9904 1.6665C10.9232 1.6665 3.57584 3.63105 3.57584 6.0493C3.57302 6.09428 3.57302 6.13927 3.57584 6.18424C3.52701 6.39189 3.50119 6.60424 3.49889 6.8179V11.3393C3.44546 11.3225 3.38998 11.3137 3.334 11.3129C2.42139 11.3129 1.6665 13.6038 1.6665 16.4269C1.6665 19.25 2.42139 21.5443 3.35246 21.5443C3.40205 21.542 3.45139 21.5331 3.49894 21.5182V31.7533C3.50099 32.5224 3.80034 33.2593 4.33184 33.803C4.86357 34.3467 5.58397 34.6532 6.33552 34.6551H6.81919V34.7226V36.4324C6.82021 36.935 7.01603 37.417 7.36344 37.7727C7.71111 38.1281 8.18227 38.3284 8.67362 38.3295H10.4621C10.9498 38.3224 11.4153 38.1197 11.7582 37.7648C12.101 37.41 12.2937 36.9314 12.2945 36.4324V34.7226V34.6551H27.6868V34.7226V36.4324C27.6866 36.9319 27.8788 37.4115 28.2219 37.7672C28.5647 38.1229 29.0307 38.3264 29.5192 38.3332H31.2821H31.2819C31.7735 38.3321 32.2446 38.1321 32.5921 37.7764C32.9397 37.421 33.1353 36.939 33.1363 36.4361V34.7226V34.6551H33.6202C34.3762 34.6601 35.1032 34.357 35.6403 33.8125C36.1774 33.2678 36.4803 32.5269 36.4823 31.7533V21.5182C36.5358 21.5349 36.5912 21.5438 36.6472 21.5443C37.578 21.5443 38.3332 19.2537 38.3332 16.4306C38.3332 13.6075 37.5599 11.313 36.6288 11.313L36.6289 11.3128ZM13.7204 3.91635H26.2613C26.633 3.91635 26.9769 4.11928 27.1626 4.44854C27.3485 4.77805 27.3485 5.1839 27.1626 5.51342C26.9768 5.84268 26.633 6.04561 26.2613 6.04561H13.7204C13.3487 6.04561 13.0048 5.84268 12.819 5.51342C12.6332 5.18391 12.6332 4.77806 12.819 4.44854C13.0049 4.11928 13.3487 3.91635 13.7204 3.91635ZM9.54984 31.7047C9.01607 31.7047 8.50425 31.4879 8.12697 31.1019C7.74969 30.7159 7.53773 30.1924 7.53773 29.6466C7.53773 29.1006 7.74965 28.577 8.12697 28.191C8.50429 27.8051 9.01609 27.5882 9.54984 27.5882C10.0834 27.5882 10.5952 27.805 10.9725 28.191C11.3498 28.577 11.5617 29.1006 11.5617 29.6466C11.5617 30.1924 11.3498 30.716 10.9725 31.1019C10.5951 31.4879 10.0833 31.7047 9.54984 31.7047ZM30.4394 31.7047C29.9059 31.7047 29.3941 31.4879 29.0168 31.1019C28.6395 30.7159 28.4273 30.1924 28.4273 29.6466C28.4273 29.1006 28.6395 28.577 29.0168 28.191C29.3941 27.8051 29.9059 27.5882 30.4394 27.5882C30.9729 27.5882 31.4847 27.805 31.862 28.191C32.2393 28.577 32.4513 29.1006 32.4513 29.6466C32.4513 30.1937 32.2383 30.7183 31.8595 31.1046C31.4806 31.4908 30.967 31.7068 30.432 31.7047L30.4394 31.7047ZM33.4667 22.834H33.4664C33.4646 23.413 33.2389 23.968 32.8386 24.3775C32.4383 24.7868 31.8961 25.0177 31.33 25.0198H8.65584C8.0896 25.0177 7.54736 24.7868 7.14704 24.3775C6.74671 23.968 6.52098 23.4131 6.51919 22.834V10.0234C6.52098 9.44441 6.74671 8.88943 7.14704 8.47991C7.54737 8.07063 8.08956 7.83971 8.65584 7.83761H31.3261C31.8924 7.8397 32.4346 8.07063 32.8349 8.47991C33.2352 8.88944 33.461 9.44437 33.4628 10.0234V22.834H33.4667Z" fill="#94A3B8"/>
</svg>
