<svg width="40" height="40" viewBox="0 0 40 40" fill="none" xmlns="http://www.w3.org/2000/svg">
<path d="M4.7619 15.2383C2.13619 15.2383 0 17.3745 0 20.0002C0 22.6259 2.13619 24.7621 4.7619 24.7621C7.38762 24.7621 9.52381 22.6259 9.52381 20.0002C9.52381 17.3745 7.38762 15.2383 4.7619 15.2383Z" fill="#94A3B8"/>
<path d="M20.0002 15.2383C17.3745 15.2383 15.2383 17.3745 15.2383 20.0002C15.2383 22.6259 17.3745 24.7621 20.0002 24.7621C22.6259 24.7621 24.7621 22.6259 24.7621 20.0002C24.7621 17.3745 22.6259 15.2383 20.0002 15.2383Z" fill="#94A3B8"/>
<path d="M35.2385 15.2383C32.6128 15.2383 30.4766 17.3745 30.4766 20.0002C30.4766 22.6259 32.6128 24.7621 35.2385 24.7621C37.8642 24.7621 40.0004 22.6259 40.0004 20.0002C40.0004 17.3745 37.8642 15.2383 35.2385 15.2383Z" fill="#94A3B8"/>
</svg>
