<svg width="52" height="52" viewBox="0 0 52 52" fill="none" xmlns="http://www.w3.org/2000/svg">
<path d="M42.1526 40.9369C45.9301 36.8598 48.0001 31.5891 48.0001 26C48.0001 20.1237 45.7116 14.599 41.5564 10.4437C37.4011 6.28845 31.8764 4 26 4C21.5214 4 17.2115 5.33771 13.5365 7.86855C13.1456 8.13785 13.0469 8.673 13.3161 9.06401C13.5854 9.45501 14.1205 9.55352 14.5115 9.28439C17.8985 6.95193 21.8711 5.71909 26 5.71909C31.4172 5.71909 36.5102 7.82867 40.3409 11.6591C44.1714 15.4897 46.281 20.5827 46.281 26C46.281 31.4172 44.1714 36.5101 40.3409 40.3407C40.0052 40.6763 40.0052 41.2206 40.3409 41.5563L41.1478 42.3633H35.5152V38.898C35.5152 38.8969 35.5152 38.8959 35.5152 38.8948V36.7173L36.3867 37.5808C36.7234 37.9143 37.2663 37.9125 37.6006 37.5768C40.6885 34.477 42.389 30.3656 42.389 26C42.389 21.6223 40.6842 17.5066 37.5888 14.4112C34.4935 11.3158 30.3776 9.61111 26 9.61111C16.9632 9.61111 9.61119 16.9631 9.61119 26C9.61119 30.3777 11.3159 34.4934 14.4114 37.5888C17.5069 40.6842 21.6225 42.389 26.0001 42.3889C28.7457 42.3889 31.4115 41.7117 33.7961 40.4192V43.2228C33.7961 43.6975 34.1809 44.0824 34.6557 44.0824H35.1952C32.3645 45.5268 29.2349 46.2809 26 46.2809C20.5828 46.2809 15.4898 44.1713 11.6592 40.3408C7.82867 36.5102 5.71909 31.4172 5.71909 26C5.71909 21.871 6.95202 17.8983 9.28457 14.5115C9.55377 14.1204 9.45519 13.5853 9.06418 13.3161C8.67317 13.0468 8.1381 13.1454 7.86872 13.5364C5.33779 17.2114 4 21.5212 4 26C4 31.8764 6.28845 37.4011 10.4437 41.5563C14.599 45.7116 20.1236 48 26 48C30.5155 48 34.8424 46.6458 38.533 44.0824H43.2228C43.5704 44.0824 43.8839 43.8729 44.017 43.5518C44.15 43.2306 44.0764 42.8609 43.8307 42.615L42.1526 40.9369ZM26 40.6698C22.0816 40.6698 18.3977 39.1439 15.6269 36.3732C12.8561 33.6024 11.3302 29.9185 11.3302 26C11.3302 17.9111 17.911 11.3302 26 11.3302C29.9184 11.3302 33.6023 12.8561 36.373 15.6269C39.1438 18.3976 40.6697 22.0815 40.6697 26C40.6697 29.6213 39.3621 33.0476 36.9702 35.7391L35.2605 34.045C35.0141 33.8008 34.6452 33.7287 34.3247 33.8623C34.0045 33.9958 33.7959 34.3087 33.7959 34.6556V38.4286C31.4624 39.896 28.7771 40.6698 26 40.6698Z" fill="#8C929A"/>
<path d="M21.3023 21.6874C21.2993 21.6795 21.2962 21.6716 21.293 21.6639C21.1309 21.27 20.7511 21.0156 20.3252 21.0156C20.3249 21.0156 20.3245 21.0156 20.3242 21.0156C19.8979 21.0161 19.518 21.2713 19.3565 21.6659C19.3538 21.6724 19.3513 21.6788 19.3488 21.6855L16.2504 29.8208C16.0814 30.2644 16.3041 30.7611 16.7477 30.93C17.1914 31.0989 17.6879 30.8763 17.8569 30.4327L18.4177 28.9601H22.2095L22.7643 30.4302C22.8941 30.7745 23.2212 30.9866 23.5685 30.9866C23.6694 30.9866 23.772 30.9687 23.8719 30.931C24.316 30.7635 24.5402 30.2675 24.3726 29.8233L21.3023 21.6874ZM19.0724 27.241L20.3223 23.9594L21.5607 27.241H19.0724Z" fill="#8C929A"/>
<path d="M29.2439 29.2602C29.2416 29.2602 29.2392 29.2602 29.2369 29.2602C28.8298 29.2635 28.3983 29.2659 28.0404 29.2668V21.8752C28.0404 21.4005 27.6556 21.0156 27.1808 21.0156C26.7061 21.0156 26.3213 21.4005 26.3213 21.8752V30.1198C26.3213 30.5157 26.5917 30.8603 26.9763 30.9546C27.0622 30.9757 27.1095 30.9873 27.7902 30.9873C28.1119 30.9873 28.575 30.9847 29.2505 30.9793C29.7253 30.9755 30.107 30.5875 30.1032 30.1129C30.0995 29.6405 29.7154 29.2602 29.2439 29.2602Z" fill="#8C929A"/>
<path d="M35.8058 30.1129C35.8021 29.6406 35.418 29.2602 34.9465 29.2602C34.9441 29.2602 34.9418 29.2602 34.9395 29.2602C34.5324 29.2635 34.1009 29.2659 33.743 29.2668V21.8752C33.743 21.4005 33.3582 21.0156 32.8835 21.0156C32.4087 21.0156 32.0239 21.4005 32.0239 21.8752V30.1198C32.0239 30.5157 32.2944 30.8604 32.6791 30.9546C32.765 30.9757 32.8121 30.9873 33.4926 30.9873C33.8143 30.9873 34.2777 30.9847 34.9533 30.9793C35.4279 30.9755 35.8097 30.5875 35.8058 30.1129Z" fill="#8C929A"/>
<path d="M11.0514 11.9105C11.5262 11.9105 11.911 11.5257 11.911 11.051C11.911 10.5762 11.5262 10.1914 11.0514 10.1914C10.5767 10.1914 10.1919 10.5762 10.1919 11.051C10.1919 11.5257 10.5767 11.9105 11.0514 11.9105Z" fill="#8C929A"/>
</svg>
