<svg width="40" height="40" viewBox="0 0 40 40" fill="none" xmlns="http://www.w3.org/2000/svg">
<path d="M9.41156 1.17651C8.82333 1.17651 8.23509 1.6471 8.23509 2.35298V3.52945H4.70568C2.82333 3.52945 1.17627 5.05887 1.17627 7.05887V11.7647V35.2942C1.17627 37.2942 2.70568 38.8236 4.70568 38.8236H35.2939C37.2939 38.8236 38.8233 37.2942 38.8233 35.2942V11.7647V7.05887C38.8233 5.05887 37.2939 3.52945 35.2939 3.52945H31.7645V2.35298C31.7645 1.6471 31.2939 1.17651 30.588 1.17651C29.8822 1.17651 29.4116 1.6471 29.4116 2.35298V3.52945H10.588V2.35298C10.588 1.6471 10.1174 1.17651 9.41156 1.17651ZM36.4704 35.2942C36.4704 36 35.9998 36.4706 35.2939 36.4706H4.70568C3.9998 36.4706 3.52921 36 3.52921 35.2942V12.9412H36.4704V35.2942ZM29.4116 5.8824V7.05887C29.4116 7.76475 29.8822 8.23534 30.588 8.23534C31.2939 8.23534 31.7645 7.76475 31.7645 7.05887V5.8824H35.2939C35.9998 5.8824 36.4704 6.35298 36.4704 7.05887V10.5883H3.52921V7.05887C3.52921 6.35298 3.9998 5.8824 4.70568 5.8824H8.23509V7.05887C8.23509 7.76475 8.70568 8.23534 9.41156 8.23534C10.1174 8.23534 10.588 7.76475 10.588 7.05887V5.8824H29.4116Z" fill="#75DDDD"/>
<path d="M8.35274 22.9413H13.0586C13.7645 22.9413 14.2351 22.4707 14.2351 21.7648V17.0589C14.2351 16.353 13.7645 15.8824 13.0586 15.8824H8.35274C7.64686 15.8824 7.17627 16.353 7.17627 17.0589V21.7648C7.17627 22.4707 7.64686 22.9413 8.35274 22.9413ZM9.52921 18.2354H11.8822V20.5883H9.52921V18.2354Z" fill="#75DDDD"/>
<path d="M17.7644 22.9413H22.4702C23.1761 22.9413 23.6467 22.4707 23.6467 21.7648V17.0589C23.6467 16.353 23.1761 15.8824 22.4702 15.8824H17.7644C17.0585 15.8824 16.5879 16.353 16.5879 17.0589V21.7648C16.5879 22.4707 17.0585 22.9413 17.7644 22.9413ZM18.9408 18.2354H21.2938V20.5883H18.9408V18.2354Z" fill="#75DDDD"/>
<path d="M27.1765 22.9413H31.8824C32.5882 22.9413 33.0588 22.4707 33.0588 21.7648V17.0589C33.0588 16.353 32.5882 15.8824 31.8824 15.8824H27.1765C26.4706 15.8824 26 16.353 26 17.0589V21.7648C26 22.4707 26.4706 22.9413 27.1765 22.9413ZM28.3529 18.2354H30.7059V20.5883H28.3529V18.2354Z" fill="#75DDDD"/>
<path d="M8.35274 33.5294H13.0586C13.7645 33.5294 14.2351 33.0588 14.2351 32.3529V27.6471C14.2351 26.9412 13.7645 26.4706 13.0586 26.4706H8.35274C7.64686 26.4706 7.17627 26.9412 7.17627 27.6471V32.3529C7.17627 33.0588 7.64686 33.5294 8.35274 33.5294ZM9.52921 28.8235H11.8822V31.1765H9.52921V28.8235Z" fill="#75DDDD"/>
<path d="M17.7644 33.5294H22.4702C23.1761 33.5294 23.6467 33.0588 23.6467 32.3529V27.6471C23.6467 26.9412 23.1761 26.4706 22.4702 26.4706H17.7644C17.0585 26.4706 16.5879 26.9412 16.5879 27.6471V32.3529C16.5879 33.0588 17.0585 33.5294 17.7644 33.5294ZM18.9408 28.8235H21.2938V31.1765H18.9408V28.8235Z" fill="#75DDDD"/>
<path d="M27.1765 33.5294H31.8824C32.5882 33.5294 33.0588 33.0588 33.0588 32.3529V27.6471C33.0588 26.9412 32.5882 26.4706 31.8824 26.4706H27.1765C26.4706 26.4706 26 26.9412 26 27.6471V32.3529C26 33.0588 26.4706 33.5294 27.1765 33.5294ZM28.3529 28.8235H30.7059V31.1765H28.3529V28.8235Z" fill="#75DDDD"/>
</svg>
