<svg width="24" height="24" viewBox="0 0 24 24" fill="none" xmlns="http://www.w3.org/2000/svg">
<path d="M10.2608 10.9002C10.1717 10.9002 10.0827 10.8643 10.0149 10.7928L7.23222 7.85943C7.09626 7.7161 7.09626 7.48437 7.23222 7.3409C7.36819 7.19757 7.58801 7.19757 7.72411 7.3409L10.5068 10.2743C10.6427 10.4176 10.6427 10.6493 10.5068 10.7928C10.4389 10.8643 10.3498 10.9002 10.2607 10.9002H10.2608Z" fill="#027AFF"/>
<path d="M7.47845 10.9002C7.38936 10.9002 7.30041 10.8643 7.23257 10.7928C7.09661 10.6495 7.09661 10.4177 7.23257 10.2743L10.0152 7.3409C10.1512 7.19757 10.371 7.19757 10.5071 7.3409C10.6431 7.48423 10.6431 7.71595 10.5071 7.85943L7.72446 10.7928C7.65648 10.8643 7.56739 10.9002 7.47844 10.9002H7.47845Z" fill="#027AFF"/>
<path d="M16.5216 19.7001C16.4326 19.7001 16.3436 19.6641 16.2758 19.5926L14.8845 18.126C14.7486 17.9827 14.7486 17.751 14.8845 17.6075C15.0205 17.4642 15.2403 17.4642 15.3764 17.6075L16.7677 19.0741C16.9036 19.2174 16.9036 19.4492 16.7677 19.5926C16.6998 19.6641 16.6107 19.7001 16.5216 19.7001H16.5216Z" fill="#027AFF"/>
<path d="M15.1305 19.7001C15.0414 19.7001 14.9524 19.6641 14.8846 19.5926C14.7486 19.4493 14.7486 19.2176 14.8846 19.0741L16.2758 17.6075C16.4118 17.4642 16.6316 17.4642 16.7677 17.6075C16.9037 17.7508 16.9037 17.9826 16.7677 18.126L15.3765 19.5926C15.3085 19.6641 15.2195 19.7001 15.1304 19.7001H15.1305Z" fill="#027AFF"/>
<path d="M9.21729 18.9664C8.44996 18.9664 7.82603 18.3087 7.82603 17.4998C7.82603 16.6909 8.44996 16.0332 9.21729 16.0332C9.98461 16.0332 10.6085 16.6909 10.6085 17.4998C10.6087 18.3087 9.98461 18.9664 9.21729 18.9664ZM9.21729 16.7664C8.8337 16.7664 8.52159 17.0953 8.52159 17.4998C8.52159 17.9042 8.83355 18.2332 9.21729 18.2332C9.60088 18.2332 9.91299 17.9043 9.91299 17.4998C9.91299 17.0954 9.60102 16.7664 9.21729 16.7664Z" fill="#027AFF"/>
<path d="M14.7828 16.0333C14.0154 16.0333 13.3915 15.3756 13.3915 14.5667C13.3915 13.7578 14.0154 13.1001 14.7828 13.1001C15.5501 13.1001 16.174 13.7578 16.174 14.5667C16.174 15.3754 15.5501 16.0333 14.7828 16.0333ZM14.7828 13.8333C14.3992 13.8333 14.0871 14.1622 14.0871 14.5667C14.0871 14.9711 14.399 15.3001 14.7828 15.3001C15.1664 15.3001 15.4785 14.9712 15.4785 14.5667C15.4783 14.1622 15.1664 13.8333 14.7828 13.8333Z" fill="#027AFF"/>
<path d="M9.21731 14.2001C9.0253 14.2001 8.86954 14.0362 8.86954 13.8335C8.86954 13.6307 9.0253 13.4669 9.21731 13.4669C11.9026 13.4669 14.087 11.1642 14.087 8.33341C14.087 8.13069 14.2428 7.9668 14.4348 7.9668C14.6268 7.9668 14.7825 8.13069 14.7825 8.33341C14.7827 11.568 12.286 14.1999 9.21746 14.1999L9.21731 14.2001Z" fill="#027AFF"/>
<path d="M15.8262 10.1664C15.7372 10.1664 15.6482 10.1305 15.5804 10.0589L14.4349 8.85154L13.2895 10.0589C13.1535 10.2023 12.9337 10.2023 12.7976 10.0589C12.6616 9.91562 12.6616 9.68389 12.7976 9.54041L14.1889 8.07381C14.3248 7.93048 14.5446 7.93048 14.6807 8.07381L16.072 9.54041C16.208 9.68374 16.208 9.91547 16.072 10.0589C16.0043 10.1305 15.9152 10.1664 15.8263 10.1664H15.8262Z" fill="#027AFF"/>
<path d="M15.8262 5.7666H8.17381C7.9818 5.7666 7.82603 5.6027 7.82603 5.39998V3.39426C7.82603 2.68083 8.37658 2.1 9.0538 2.1H9.94384C10.2027 2.1 10.4499 1.96725 10.6055 1.74474C10.9311 1.27869 11.4525 1 11.9999 1C12.5474 1 13.0688 1.27868 13.3944 1.74474C13.5499 1.96725 13.7972 2.1 14.0559 2.1H14.9459C15.6233 2.1 16.1738 2.68083 16.1738 3.39426V5.39998C16.1738 5.60271 16.0181 5.7666 15.8261 5.7666H15.8262ZM8.52188 5.03337H15.4785L15.4784 3.39426C15.4784 3.08519 15.2395 2.83338 14.9463 2.83338H14.0563C13.5773 2.83338 13.1207 2.58923 12.8348 2.17963C12.6363 1.89573 12.3324 1.73338 12.0002 1.73338C11.6679 1.73338 11.364 1.89574 11.166 2.17963C10.8798 2.58906 10.4231 2.83338 9.94422 2.83338H9.05402C8.76084 2.83338 8.52196 3.08521 8.52196 3.39426L8.52188 5.03337Z" fill="#027AFF"/>
<path d="M18.2609 23.0002H5.73918C4.7803 23.0002 4 22.1778 4 21.1668V4.66688C4 3.65606 4.78015 2.8335 5.73918 2.8335H8.17391C8.36592 2.8335 8.52168 2.99739 8.52168 3.20011V5.03349H15.4783V3.20027C15.4783 2.99754 15.6341 2.83365 15.8261 2.83365H18.2608C19.2197 2.83365 20 3.65606 20 4.66703V21.167C20.0001 22.1778 19.2199 23.0002 18.261 23.0002H18.2609ZM5.73918 3.5668C5.16385 3.5668 4.6957 4.06031 4.6957 4.6668V21.1667C4.6957 21.7732 5.16385 22.2667 5.73918 22.2667H18.2609C18.8362 22.2667 19.3044 21.7732 19.3044 21.1667V4.6668C19.3044 4.06031 18.8362 3.5668 18.2609 3.5668H16.1739V5.40018C16.1739 5.6029 16.0182 5.76679 15.8262 5.76679H8.17376C7.98175 5.76679 7.82598 5.6029 7.82598 5.40018V3.5668H5.73918Z" fill="#027AFF"/>
<path d="M17.5651 21.5337H6.43497C5.85964 21.5337 5.39149 21.0402 5.39149 20.4337V5.40029C5.39149 4.7938 5.85964 4.30029 6.43497 4.30029H8.17415C8.36616 4.30029 8.52193 4.46419 8.52193 4.66691V5.03352H15.4786V4.66691C15.4786 4.46418 15.6343 4.30029 15.8263 4.30029H17.5655C18.1408 4.30029 18.609 4.7938 18.609 5.40029V20.4337C18.6088 21.0402 18.1407 21.5337 17.5654 21.5337H17.5651ZM6.43497 5.03375C6.24325 5.03375 6.0872 5.19796 6.0872 5.40037V20.4338C6.0872 20.6362 6.2434 20.8004 6.43497 20.8004H17.5655C17.7572 20.8004 17.9133 20.6362 17.9133 20.4338V5.40037C17.9133 5.19796 17.7571 5.03375 17.5655 5.03375H16.1743V5.40037C16.1743 5.60309 16.0185 5.76698 15.8265 5.76698H8.17407C7.98206 5.76698 7.8263 5.60309 7.8263 5.40037V5.03375H6.43497Z" fill="#027AFF"/>
<path d="M12.3496 4.66679H11.6504C11.2678 4.66679 10.9566 4.33869 10.9566 3.93541V3.19833C10.9566 2.79503 11.2678 2.4668 11.6505 2.4668H12.3497C12.7323 2.4668 13.0435 2.79505 13.0435 3.19833V3.93541C13.0435 4.33871 12.7323 4.66679 12.3496 4.66679ZM12.3478 3.19833L11.6505 3.20017L11.6523 3.9354L12.3483 3.93356L12.3478 3.19833Z" fill="#027AFF"/>
</svg>
