<svg width="40" height="40" viewBox="0 0 40 40" fill="none" xmlns="http://www.w3.org/2000/svg">
<path d="M34.1406 20.95H30.2252C29.6923 20.95 29.1763 21.0228 28.6853 21.1567C27.7167 19.2526 25.7392 17.9443 23.4605 17.9443H16.5395C14.2608 17.9443 12.2833 19.2526 11.3147 21.1567C10.8237 21.0228 10.3077 20.95 9.77484 20.95H5.85938C2.62852 20.95 0 23.5785 0 26.8093V33.0686C0 35.0071 1.57711 36.5842 3.51562 36.5842H36.4844C38.4229 36.5842 40 35.0071 40 33.0686V26.8093C40 23.5785 37.3715 20.95 34.1406 20.95ZM10.6801 23.8039V34.2405H3.51562C2.86945 34.2405 2.34375 33.7148 2.34375 33.0686V26.8094C2.34375 24.8709 3.92086 23.2938 5.85938 23.2938H9.77484C10.093 23.2938 10.401 23.337 10.6943 23.4166C10.6859 23.5448 10.6801 23.6737 10.6801 23.8039ZM26.9762 34.2405H13.0238V23.8038C13.0238 21.8653 14.6009 20.2882 16.5395 20.2882H23.4605C25.3991 20.2882 26.9762 21.8653 26.9762 23.8038V34.2405ZM37.6562 33.0686C37.6562 33.7148 37.1305 34.2405 36.4844 34.2405H29.3199V23.8038C29.3199 23.6736 29.3141 23.5446 29.3057 23.4165C29.599 23.337 29.907 23.2937 30.2252 23.2937H34.1406C36.0791 23.2937 37.6562 24.8708 37.6562 26.8093V33.0686Z" fill="#16417D"/>
<path d="M7.81707 9.88318C4.94605 9.88318 2.61035 12.2189 2.61035 15.0899C2.61027 17.9609 4.94605 20.2966 7.81707 20.2966C10.688 20.2966 13.0238 17.9609 13.0238 15.0899C13.0238 12.2189 10.6881 9.88318 7.81707 9.88318ZM7.81699 17.9529C6.23832 17.9529 4.95402 16.6686 4.95402 15.0899C4.95402 13.5112 6.23832 12.2269 7.81699 12.2269C9.39566 12.2269 10.68 13.5112 10.68 15.0899C10.68 16.6686 9.39566 17.9529 7.81699 17.9529Z" fill="#16417D"/>
<path d="M20 3.41638C16.1644 3.41638 13.0439 6.53685 13.0439 10.3725C13.0439 14.2081 16.1644 17.3286 20 17.3286C23.8357 17.3286 26.9561 14.2081 26.9561 10.3725C26.9561 6.53693 23.8357 3.41638 20 3.41638ZM20 14.9848C17.4568 14.9848 15.3877 12.9158 15.3877 10.3725C15.3877 7.82927 17.4568 5.76013 20 5.76013C22.5433 5.76013 24.6124 7.82919 24.6124 10.3725C24.6124 12.9158 22.5433 14.9848 20 14.9848Z" fill="#16417D"/>
<path d="M32.1828 9.88318C29.3119 9.88318 26.9761 12.2189 26.9761 15.0899C26.9762 17.9609 29.3119 20.2966 32.1828 20.2966C35.0538 20.2966 37.3895 17.9609 37.3895 15.0899C37.3895 12.2189 35.0538 9.88318 32.1828 9.88318ZM32.1828 17.9529C30.6042 17.9529 29.3198 16.6686 29.3198 15.0899C29.3199 13.5112 30.6042 12.2269 32.1828 12.2269C33.7615 12.2269 35.0458 13.5112 35.0458 15.0899C35.0458 16.6686 33.7615 17.9529 32.1828 17.9529Z" fill="#16417D"/>
</svg>
