<svg width="40" height="40" viewBox="0 0 40 40" fill="none" xmlns="http://www.w3.org/2000/svg">
<g clip-path="url(#clip0_12368_53349)">
<path d="M9.16121 0H2.54478C1.14155 0 0 1.14155 0 2.54478V9.16108C0 10.5643 1.14155 11.7059 2.54478 11.7059H9.16108C10.5643 11.7059 11.7059 10.5643 11.7059 9.16108V2.54478C11.706 1.14155 10.5644 0 9.16121 0ZM9.04377 9.04377H2.66222V2.66222H9.04377V9.04377Z" fill="#FE5F55"/>
<path d="M23.3081 0H16.6918C15.2885 0 14.147 1.14155 14.147 2.54478V9.16108C14.147 10.5643 15.2885 11.7059 16.6918 11.7059H23.3081C24.7113 11.7059 25.8528 10.5643 25.8528 9.16108V2.54478C25.853 1.14155 24.7113 0 23.3081 0ZM23.1907 9.04377H16.8092V2.66222H23.1907V9.04377Z" fill="#FE5F55"/>
<path d="M9.16121 14.147H2.54478C1.14155 14.147 0 15.2887 0 16.6919V23.3082C0 24.7114 1.14155 25.853 2.54478 25.853H9.16108C10.5643 25.853 11.7059 24.7114 11.7059 23.3082V16.6919C11.706 15.2887 10.5644 14.147 9.16121 14.147ZM9.04377 23.1909H2.66222V16.8093H9.04377V23.1909Z" fill="#FE5F55"/>
<path d="M23.3081 14.147H16.6918C15.2885 14.147 14.147 15.2885 14.147 16.6918V23.3081C14.147 24.7113 15.2885 25.8528 16.6918 25.8528H23.3081C24.7113 25.8528 25.8528 24.7113 25.8528 23.3081V16.6918C25.853 15.2887 24.7113 14.147 23.3081 14.147ZM23.1907 23.1909H16.8092V16.8093H23.1907V23.1909Z" fill="#FE5F55"/>
<path d="M37.455 0H30.8387C29.4355 0 28.2939 1.14155 28.2939 2.54478V9.16108C28.2939 10.5643 29.4355 11.7059 30.8387 11.7059H37.455C38.8583 11.7059 39.9998 10.5643 39.9998 9.16108V2.54478C39.9998 1.14155 38.8583 0 37.455 0ZM37.3376 9.04377H30.956V2.66222H37.3376V9.04377Z" fill="#FE5F55"/>
<path d="M37.455 14.147H30.8387C29.4355 14.147 28.2939 15.2885 28.2939 16.6918V23.3081C28.2939 24.7113 29.4355 25.8528 30.8387 25.8528H37.455C38.8583 25.8528 39.9998 24.7113 39.9998 23.3081V16.6918C39.9998 15.2887 38.8583 14.147 37.455 14.147ZM37.3376 23.1909H30.956V16.8093H37.3376V23.1909Z" fill="#FE5F55"/>
<path d="M9.16121 28.2939H2.54478C1.14155 28.2939 0 29.4355 0 30.8387V37.455C0 38.8584 1.14155 39.9999 2.54478 39.9999H9.16108C10.5643 39.9999 11.7059 38.8584 11.7059 37.4552V30.8389C11.706 29.4355 10.5644 28.2939 9.16121 28.2939ZM9.04377 37.3377H2.66222V30.9562H9.04377V37.3377Z" fill="#FE5F55"/>
<path d="M23.3081 28.2939H16.6918C15.2885 28.2939 14.147 29.4355 14.147 30.8387V37.455C14.147 38.8583 15.2885 39.9998 16.6918 39.9998H23.3081C24.7113 39.9998 25.8528 38.8583 25.8528 37.455V30.8387C25.853 29.4355 24.7113 28.2939 23.3081 28.2939ZM23.1907 37.3377H16.8092V30.9562H23.1907V37.3377Z" fill="#FE5F55"/>
<path d="M37.455 28.2939H30.8387C29.4355 28.2939 28.2939 29.4355 28.2939 30.8387V37.455C28.2939 38.8583 29.4355 39.9998 30.8387 39.9998H37.455C38.8583 39.9998 39.9998 38.8583 39.9998 37.455V30.8387C39.9998 29.4355 38.8583 28.2939 37.455 28.2939ZM37.3376 37.3377H30.956V30.9562H37.3376V37.3377Z" fill="#FE5F55"/>
</g>
<defs>
<clipPath id="clip0_12368_53349">
<rect width="40" height="40" fill="white"/>
</clipPath>
</defs>
</svg>
