<svg width="40" height="40" viewBox="0 0 40 40" fill="none" xmlns="http://www.w3.org/2000/svg">
<path d="M8.55322 0.666754C8.17238 0.665294 7.86234 0.957001 7.86111 1.3182V3.88227H0.686884C0.665025 3.88139 0.642857 3.88139 0.620997 3.88227C0.268162 3.91585 -0.000307125 4.19763 2.63696e-07 4.53371V26.682C0.00153965 27.0411 0.308193 27.3319 0.686881 27.3334H39.3076C39.6884 27.3349 39.9985 27.0432 40 26.682V4.53371C39.9985 4.17251 39.6884 3.8808 39.3076 3.88227H32.1336V1.3182C32.132 0.959041 31.8254 0.668211 31.4467 0.666754H27.8623C27.4815 0.665294 27.1714 0.957001 27.1699 1.3182V3.88227H12.8243V1.3182C12.8227 0.958458 12.5155 0.667628 12.1361 0.666754H8.55322ZM9.24011 1.97491H11.4439V7.0925H9.24042L9.24011 1.97491ZM28.5505 1.97491H30.7543V7.0925H28.5505V1.97491ZM1.37961 5.19044H7.86143V7.7492C7.86173 7.92294 7.9347 8.08938 8.06463 8.21173C8.19455 8.33436 8.37035 8.40269 8.55354 8.40211H12.1367C12.5163 8.40124 12.8242 8.10953 12.8248 7.7492V5.19044H19.3106V10.5404H1.37959L1.37961 5.19044ZM20.69 5.19044H27.1703V7.7492C27.1706 7.92294 27.2439 8.08938 27.3738 8.21173C27.5037 8.33436 27.6795 8.40269 27.8627 8.40211H31.4471C31.8264 8.40065 32.1334 8.10894 32.134 7.7492V5.19044H38.6211V10.5404H20.69L20.69 5.19044ZM1.37961 11.8489H19.3106V26.0248H1.37961V11.8489ZM20.69 11.8489H38.621V26.0248H20.69V11.8489ZM10.3451 14.2494C8.19459 14.2494 6.45106 15.9249 6.45106 17.9759V19.8935C6.45106 21.9445 8.19459 23.6249 10.3451 23.6249C12.4957 23.6249 14.2392 21.9445 14.2392 19.8935V17.9759C14.2392 15.9249 12.4957 14.2494 10.3451 14.2494ZM29.6555 14.2494C27.5049 14.2494 25.7601 15.9249 25.7601 17.9759V19.8935C25.7601 21.9445 27.5052 23.6249 29.6555 23.6249C31.806 23.6249 33.5495 21.9445 33.5495 19.8935V17.9759C33.5495 15.9249 31.806 14.2494 29.6555 14.2494ZM10.3451 15.5576C11.7466 15.5576 12.8599 16.619 12.8599 17.9759V19.8935C12.8599 21.2504 11.7466 22.3168 10.3451 22.3168C8.94367 22.3168 7.82478 21.2504 7.82478 19.8935V17.9759C7.82478 16.619 8.94328 15.5576 10.3451 15.5576ZM29.6555 15.5576C31.0569 15.5576 32.1702 16.619 32.1702 17.9759V19.8935C32.1702 21.2504 31.0569 22.3168 29.6555 22.3168C28.254 22.3168 27.1407 21.2504 27.1407 19.8935V17.9759C27.1407 16.619 28.254 15.5576 29.6555 15.5576Z" fill="#CE1B1B"/>
</svg>
