<svg width="24" height="24" viewBox="0 0 24 24" fill="none" xmlns="http://www.w3.org/2000/svg">
<path d="M12.0007 20.8986V2.50796C12.0007 2.50796 16.6981 2.77528 20.262 3.82939C20.262 3.82939 20.2194 7.12019 20.22 10.385C20.2212 14.9347 16.1846 19.8039 12.0005 20.709L12.0007 20.8986ZM22 2.6361C17.6862 1.35909 12.2794 1 12 1C11.6893 1 6.31369 1.35906 2 2.6361C2 2.6361 2.03087 6.61938 2.02968 10.5718C2.02868 16.0795 6.93458 21.905 12.0001 23C17.065 21.9049 21.9639 16.0795 21.9629 10.5718C21.9621 6.61938 21.9999 2.6361 21.9999 2.6361" fill="#42E78C"/>
</svg>
