<svg width="40" height="40" viewBox="0 0 40 40" fill="none" xmlns="http://www.w3.org/2000/svg">
<g clip-path="url(#clip0_12368_53343)">
<path d="M39.8644 9.91998L35.0082 0.717789C34.7063 0.145601 33.9978 -0.0735395 33.4256 0.228023L19.9999 7.30505C19.4277 7.60669 19.2081 8.31498 19.5093 8.88748L20.7462 11.2381L16.5946 13.4205L15.3599 11.0739C15.0585 10.5015 14.3489 10.2807 13.7761 10.5832L7.3011 13.9993C0.418449 17.6272 -2.09225 26.2747 1.91618 33.0561L1.03618 33.9358C-0.331786 35.3032 -0.332176 37.5169 1.03618 38.8845C2.40071 40.2484 4.62087 40.2485 5.98548 38.8845L6.89735 37.9731C10.9918 40.3018 16.1105 40.4365 20.4728 37.9415C26.1613 34.6872 28.5105 28.0556 26.7913 22.2224C26.1856 20.167 27.1162 17.9029 29.1266 16.8652L39.3713 11.5054C39.9459 11.2045 40.1671 10.4936 39.8644 9.91998ZM4.32876 37.2268C3.87759 37.6776 3.14384 37.6776 2.69282 37.2268C2.24134 36.7754 2.24118 36.045 2.69282 35.5935L3.29532 34.9912C3.79829 35.5816 4.34759 36.1251 4.9386 36.6172L4.32876 37.2268ZM28.044 14.7865C25.0821 16.3124 23.6099 19.7176 24.5433 22.885C26.0323 27.9373 23.8799 33.2922 19.3092 35.907C13.7763 39.0718 6.81235 37.1108 3.75157 31.546C0.69634 25.9921 2.78462 19.0294 8.39415 16.0724L13.8321 13.2034L15.0661 15.5486C15.3674 16.1211 16.0759 16.3413 16.6483 16.0401L22.8742 12.7672C23.4467 12.4662 23.6674 11.7569 23.3659 11.1841L22.1284 8.83232L33.482 2.84748L37.2427 9.97373L28.044 14.7865Z" fill="#4368FA"/>
<path d="M20.6018 22.3734C18.6476 18.5861 13.9472 17.1445 10.0799 19.2176C6.25642 21.2673 4.73321 26.0112 6.68423 29.7925C8.63415 33.5713 13.3303 35.026 17.2061 32.9483C21.0295 30.8986 22.5527 26.1548 20.6018 22.3734ZM16.0988 30.8826C13.3733 32.3438 10.1134 31.3272 8.76689 28.7178C7.39915 26.067 8.48486 22.732 11.1871 21.2834C13.8941 19.8321 17.1633 20.8207 18.5191 23.4482V23.4482C19.8868 26.0989 18.8011 29.434 16.0988 30.8826Z" fill="#4368FA"/>
<path d="M13.8132 5.61467C14.1147 6.18764 14.8234 6.40732 15.3958 6.106C15.9686 5.80467 16.1885 5.09592 15.8872 4.52318L14.1548 1.23076C13.8534 0.658026 13.1449 0.438026 12.5722 0.739433C11.9994 1.04076 11.7795 1.74951 12.0808 2.32225L13.8132 5.61467Z" fill="#4368FA"/>
<path d="M8.66404 8.59926L12.2016 9.36754C12.8327 9.5048 13.4578 9.10457 13.5954 8.47105C13.7327 7.83855 13.3314 7.21449 12.699 7.07715L9.16138 6.30887C8.52881 6.17129 7.90498 6.57293 7.76763 7.20535C7.63037 7.83785 8.0317 8.46191 8.66404 8.59926Z" fill="#4368FA"/>
<path d="M18.3652 5.96379C18.9636 6.20902 19.6484 5.92277 19.8937 5.32347L21.2861 1.92308C21.5313 1.32418 21.2447 0.639802 20.6458 0.394568C20.0467 0.149099 19.3626 0.435974 19.1173 1.03488L17.7249 4.43527C17.4797 5.03418 17.7663 5.71855 18.3652 5.96379Z" fill="#4368FA"/>
</g>
<defs>
<clipPath id="clip0_12368_53343">
<rect width="40" height="40" fill="white"/>
</clipPath>
</defs>
</svg>
