<svg width="24" height="24" viewBox="0 0 24 24" fill="none" xmlns="http://www.w3.org/2000/svg">
<path d="M9.73893 17.1276C9.85097 16.8134 9.89726 16.4784 9.87474 16.1446C9.86474 15.986 9.79576 15.8376 9.68211 15.7301L8.72538 14.8245H8.72555C8.60994 14.7203 8.46216 14.6618 8.30848 14.6598C7.98271 14.6649 7.66176 14.741 7.36656 14.8829C7.19752 14.5966 6.97129 14.3504 6.70288 14.1605C6.57636 14.0699 6.42054 14.033 6.26811 14.0573L4.98438 14.2631H4.98456C4.83213 14.2871 4.69471 14.3708 4.60072 14.4965C4.40022 14.7609 4.25691 15.0661 4.18042 15.3921C3.85806 15.3493 3.53069 15.3774 3.21975 15.4745C3.07179 15.5195 2.9467 15.6215 2.87023 15.7593L2.22301 16.9198C2.14688 17.0569 2.12473 17.2189 2.16136 17.3726C2.23766 17.6984 2.38044 18.0038 2.58004 18.2686C2.34613 18.5018 2.16296 18.7833 2.04289 19.0948C1.9857 19.242 1.9857 19.4061 2.04289 19.5533L2.52322 20.7952C2.58023 20.9424 2.68994 21.0615 2.82986 21.1278C3.12597 21.2671 3.44652 21.3426 3.77214 21.3496C3.80377 21.6831 3.90366 22.0056 4.06557 22.2964C4.14115 22.4349 4.26571 22.5382 4.41331 22.5845L5.65614 22.9732C5.71297 22.9908 5.77194 22.9998 5.83109 23C5.9249 23 6.01729 22.9774 6.10092 22.934C6.39255 22.7854 6.65024 22.575 6.85696 22.3166C7.13037 22.4992 7.43808 22.6202 7.76008 22.6714C7.91233 22.6961 8.06798 22.6597 8.19521 22.5702L9.26558 21.8132C9.39263 21.723 9.48109 21.5861 9.51254 21.4308C9.58098 21.1033 9.58098 20.7645 9.51254 20.437C9.8215 20.3313 10.1053 20.1595 10.3451 19.9327C10.4587 19.8262 10.5284 19.679 10.54 19.5211L10.6313 18.1883H10.6312C10.6421 18.0302 10.5933 17.8738 10.4952 17.7516C10.289 17.4907 10.0313 17.2781 9.73894 17.1275L9.73893 17.1276ZM9.35992 19.1536C9.31399 19.1849 9.26592 19.2122 9.21589 19.2359C8.97501 19.204 8.7393 19.3253 8.61977 19.5426L8.31152 20.0976L8.3117 20.0974C8.19161 20.3136 8.20948 20.5826 8.35691 20.78C8.36245 20.8367 8.36388 20.8939 8.36084 20.9509L7.73558 21.393C7.68304 21.3754 7.63176 21.3539 7.58226 21.3287C7.45556 21.1166 7.21771 21.0032 6.97827 21.0405L6.36426 21.1385C6.12445 21.1765 5.93057 21.3594 5.87267 21.6016C5.83336 21.6411 5.79101 21.6775 5.74616 21.7104L5.01957 21.4836L5.01975 21.4834C5.00045 21.4298 4.98508 21.3748 4.97329 21.3188C5.05621 21.0846 4.99402 20.822 4.8155 20.6532L4.35804 20.2206C4.17952 20.0523 3.92024 20.0102 3.70007 20.114C3.64521 20.107 3.59107 20.0958 3.53781 20.0802L3.25762 19.3545C3.28585 19.3058 3.31766 19.2593 3.35251 19.2154C3.58231 19.1358 3.74314 18.9221 3.76011 18.6733L3.80372 18.036C3.82087 17.7875 3.69096 17.5528 3.47456 17.4408C3.44597 17.3923 3.42077 17.3417 3.39933 17.2894L3.77602 16.6118C3.83088 16.6043 3.8861 16.6008 3.94132 16.6012C4.14485 16.7362 4.40738 16.7324 4.60697 16.5913L5.11928 16.229H5.11946C5.31924 16.0877 5.41681 15.8367 5.36677 15.5927C5.38572 15.5394 5.40859 15.4879 5.43521 15.4383L6.18536 15.3185C6.22521 15.3578 6.2622 15.4001 6.29615 15.4449C6.32046 15.6928 6.48736 15.9014 6.71931 15.9738L7.31364 16.1594C7.54559 16.2318 7.79718 16.1537 7.95139 15.9615C8.00375 15.9439 8.05718 15.9301 8.1115 15.9203L8.67189 16.4492C8.66689 16.5056 8.65778 16.5617 8.64455 16.6168C8.47121 16.791 8.41671 17.0553 8.5066 17.287L8.73604 17.8809H8.73587C8.82539 18.1123 9.04144 18.2657 9.2834 18.27C9.32986 18.301 9.37382 18.3356 9.4151 18.3732L9.35992 19.1536ZM7.18034 16.9308C6.69502 16.6461 6.10869 16.6092 5.59317 16.831C5.07761 17.0526 4.69129 17.5078 4.54764 18.0631C4.40379 18.6183 4.51869 19.2108 4.85858 19.6669C5.19846 20.1228 5.72506 20.3909 6.28385 20.3922C6.60174 20.392 6.91409 20.3056 7.18912 20.1417C7.46431 19.9776 7.69233 19.7418 7.85047 19.4583C8.0876 19.0318 8.15014 18.5257 8.02452 18.0518C7.8989 17.5779 7.59529 17.1746 7.18037 16.9308L7.18034 16.9308ZM6.80722 18.8452H6.8074C6.64282 19.1413 6.27615 19.244 5.98845 19.0749C5.70075 18.9055 5.60104 18.5282 5.7658 18.2324C5.84443 18.0902 5.97523 17.9863 6.12891 17.9442C6.36336 17.8779 6.61354 17.9635 6.76258 18.1611C6.91162 18.3586 6.93002 18.6291 6.8094 18.8461L6.80722 18.8452ZM13.8412 11.1262C15.1471 11.1268 16.3997 10.5937 17.3234 9.64454C18.2471 8.69519 18.7662 7.40736 18.7666 6.06439C18.7669 4.72142 18.2485 3.4334 17.3252 2.48372C16.402 1.53386 15.1497 1.00019 13.8438 1C12.5379 0.999816 11.2854 1.5331 10.3619 2.48264C9.43859 3.43218 8.91969 4.72015 8.91969 6.06312C8.92094 7.40515 9.43969 8.69209 10.3623 9.64125C11.2849 10.5904 12.5362 11.1244 13.8412 11.1262ZM13.8412 2.23773V2.23755C14.8286 2.237 15.7757 2.64 16.4743 3.35762C17.1728 4.07542 17.5654 5.049 17.5657 6.06449C17.5661 7.07998 17.1742 8.05394 16.4762 8.77211C15.7781 9.49029 14.8313 9.89383 13.8439 9.89402C12.8564 9.89421 11.9095 9.49102 11.2111 8.77306C10.5129 8.05507 10.1205 7.0813 10.1205 6.06581C10.1214 5.05125 10.5137 4.07838 11.2111 3.36058C11.9086 2.64297 12.8544 2.23905 13.8412 2.23759V2.23773ZM22 20.0693C21.9955 20.4071 21.728 20.6785 21.3996 20.6785H21.3919C21.2327 20.6765 21.0806 20.6094 20.9695 20.492C20.8583 20.3747 20.797 20.2167 20.7992 20.0528C20.7992 20.0239 20.8043 17.0528 18.8823 15.0948C17.6954 13.8854 16.0074 13.3009 13.8543 13.3351V13.3353C12.631 13.2785 11.4117 13.5141 10.2918 14.0235C10.1478 14.0977 9.98074 14.1093 9.82812 14.0556C9.67569 14.002 9.5506 13.8875 9.48109 13.7379C9.41158 13.5883 9.40336 13.4163 9.4584 13.2605C9.51343 13.1048 9.62726 12.9784 9.77379 12.9097C11.054 12.3134 12.4528 12.0363 13.8566 12.1008C16.326 12.0456 18.3117 12.7673 19.7405 14.2269C22.0185 16.5596 22.0018 19.9258 21.9998 20.0693L22 20.0693Z" fill="#8C929A"/>
</svg>
