<svg width="24" height="24" viewBox="-4 -8 45 45" fill="none" xmlns="http://www.w3.org/2000/svg">
<path d="M19.0003 27.3332C15.0261 27.3224 11.1501 26.0882 7.89018 23.7956C4.6303 21.5032 2.14247 18.2615 0.759584 14.5043C0.636128 14.1672 0.636128 13.7966 0.759584 13.4592C2.14187 9.70445 4.63023 6.46611 7.89084 4.17934C11.1515 1.89249 15.0281 0.666504 19.0003 0.666504C22.9725 0.666504 26.8485 1.89243 30.1098 4.17934C33.3708 6.46598 35.8591 9.70452 37.2411 13.4592C37.3645 13.7966 37.3645 14.1672 37.2411 14.5043C35.858 18.2614 33.3702 21.5034 30.1105 23.7956C26.8509 26.0882 22.9745 27.3224 19.0003 27.3332ZM3.76764 13.9952C5.00687 17.0425 7.11678 19.6491 9.82937 21.4835C12.5417 23.3182 15.734 24.2978 18.9999 24.2978C22.2658 24.2978 25.4583 23.3182 28.1703 21.4835C30.8829 19.6488 32.9928 17.0421 34.2321 13.9952C32.9928 10.948 30.8829 8.34135 28.1703 6.50694C25.458 4.67227 22.2658 3.69261 18.9999 3.69261C15.734 3.69261 12.5414 4.6722 9.82937 6.50694C7.11678 8.34162 5.00687 10.9483 3.76764 13.9952ZM19.0003 20.7417C17.226 20.7417 15.5244 20.0308 14.2697 18.7656C13.0151 17.5005 12.3101 15.7845 12.3101 13.9953C12.3101 12.2061 13.0151 10.4901 14.2697 9.22493C15.5243 7.95979 17.226 7.2489 19.0003 7.2489C20.7746 7.2489 22.4763 7.95979 23.731 9.22493C24.9856 10.4901 25.6905 12.2061 25.6905 13.9953C25.6884 15.7839 24.983 17.4986 23.7289 18.7636C22.4746 20.0282 20.7741 20.7396 19.0003 20.7417ZM19.0003 10.2673C18.0197 10.2673 17.0796 10.6599 16.3864 11.3592C15.6929 12.0583 15.3035 13.0063 15.3035 13.9951C15.3035 14.9839 15.6929 15.9319 16.3864 16.6309C17.0796 17.3302 18.0197 17.7229 19.0003 17.7229C19.9809 17.7229 20.921 17.3302 21.6142 16.6309C22.3077 15.9319 22.6971 14.9839 22.6971 13.9951C22.6961 13.0068 22.3064 12.0591 21.6132 11.3603C20.9202 10.6613 19.9803 10.2683 19.0003 10.2673Z" fill="#64748B"/>
</svg>
