<svg width="24" height="24" viewBox="0 0 24 24" fill="none" xmlns="http://www.w3.org/2000/svg">
<path d="M17.0432 12.217L22.6578 10.7532C22.8958 10.7059 23.0385 10.4227 22.9909 10.1865L22.2295 6.69227C22.2295 6.645 22.2295 6.55063 22.1819 6.50336C22.0868 6.31446 21.9439 6.22009 21.7537 6.22009C21.6586 6.22009 21.5634 6.26736 21.5157 6.31446L8.71641 8.95875C6.09936 9.61984 4.29137 11.8865 4.14862 14.4835C3.86319 14.2946 3.48249 14.2003 3.1018 14.2003C2.95908 14.2003 2.81636 14.2002 2.67365 14.2475C2.10263 14.3419 1.67445 14.6724 1.34142 15.1447C1.05599 15.6169 0.913276 16.1836 1.05599 16.7031C1.24633 17.6474 2.10281 18.3557 3.10197 18.3557C3.24469 18.3557 3.38741 18.3557 3.53012 18.3085C4.00589 18.2141 4.4342 17.9307 4.71965 17.5528C5.71885 19.5833 7.86009 21 10.2391 21C10.7625 21 11.2859 20.9527 11.7617 20.8111C14.9972 20.0084 16.9956 16.7029 16.2343 13.492C16.2343 13.4447 16.2343 13.3976 16.1867 13.3976C16.139 13.1143 16.1867 12.8782 16.3294 12.642C16.567 12.4058 16.805 12.2642 17.043 12.2171L17.0432 12.217ZM4.10117 16.8918C3.91082 17.128 3.67302 17.3167 3.38741 17.364C2.76889 17.5056 2.15025 17.0807 2.00755 16.4667C1.95992 16.1835 2.00755 15.8529 2.15027 15.6168C2.34062 15.3806 2.57842 15.1919 2.86403 15.1446C2.95912 15.1446 3.00675 15.0973 3.102 15.0973C3.6254 15.0973 4.10121 15.4751 4.24391 15.9946C4.339 16.3251 4.29154 16.6556 4.10119 16.8918L4.10117 16.8918ZM15.6158 12.1226C15.3304 12.5474 15.2351 13.1142 15.3778 13.6336V13.6809C15.9963 16.4197 14.331 19.1584 11.5712 19.8667C11.1431 19.9611 10.7148 20.0084 10.2866 20.0084C7.81251 20.0084 5.67127 18.2612 5.19546 15.9001C4.62445 13.2086 6.28991 10.517 8.95437 9.85596L21.4682 7.25893L22.0392 9.90322L16.8529 11.2726C16.3293 11.3671 15.901 11.6977 15.6156 12.1226L15.6158 12.1226Z" fill="#64748B"/>
<path d="M10.4294 11.2726C10.1915 11.2726 9.95368 11.3198 9.66806 11.367C7.71715 11.7918 6.48017 13.6336 6.90831 15.5696C7.24137 17.2222 8.71636 18.4027 10.3818 18.4027C10.6198 18.4027 10.8576 18.3555 11.1432 18.3084C13.0941 17.8835 14.3311 16.0417 13.903 14.1058C13.5697 12.4531 12.0948 11.2726 10.4294 11.2726ZM12.6182 16.2779C12.2375 16.8446 11.6666 17.2696 10.9529 17.4112C10.7625 17.4584 10.5722 17.4584 10.4295 17.4584C9.19234 17.4584 8.09806 16.6085 7.86011 15.3807C7.57467 13.964 8.47862 12.5948 9.9061 12.3113C10.0964 12.2641 10.2868 12.2641 10.4295 12.2641C11.6666 12.2641 12.7609 13.114 12.9989 14.3418C13.1416 15.0029 12.9987 15.6639 12.6182 16.2779H12.6182Z" fill="#64748B"/>
<path d="M9.71575 7.54221C9.81084 7.54221 9.9061 7.49494 10.0012 7.44784C10.2392 7.3062 10.2866 7.02294 10.1439 6.78676L8.71656 4.80355C8.57384 4.56738 8.28841 4.52028 8.05042 4.66191C7.81243 4.80355 7.76499 5.08681 7.90771 5.323L9.28756 7.3062C9.38265 7.44784 9.57299 7.54221 9.7157 7.54221H9.71575Z" fill="#64748B"/>
<path d="M13.0464 6.83391C13.2844 6.83391 13.4746 6.69228 13.5222 6.45611L13.9503 4.0951C13.998 3.85893 13.8076 3.57568 13.5696 3.52841C13.3317 3.48115 13.0463 3.67005 12.9986 3.90621L12.5705 6.26723C12.523 6.5505 12.7134 6.78665 12.9988 6.83391H13.0464H13.0464Z" fill="#64748B"/>
<path d="M11.1907 6.31445H11.2858C11.5238 6.26719 11.7139 6.03118 11.6665 5.74777L11.1431 3.38676C11.0956 3.10349 10.8577 2.96169 10.5722 3.00896C10.3342 3.05622 10.1441 3.29223 10.1915 3.57564L10.7149 5.93665C10.7625 6.12556 10.9527 6.31445 11.1907 6.31445H11.1907Z" fill="#64748B"/>
</svg>
