<svg width="165" height="198" viewBox="0 0 165 198" fill="none" xmlns="http://www.w3.org/2000/svg">
<path fill-rule="evenodd" clip-rule="evenodd" d="M131.595 105.295C132.314 105.827 133.02 106.383 133.715 106.963C152.639 122.792 155.045 150.989 139.088 169.945C123.131 188.9 94.8544 191.435 75.9298 175.606C57.0051 159.778 54.5992 131.58 70.556 112.625C71.199 111.861 71.8619 111.124 72.5434 110.414L120.875 53L153 79.8685L131.595 105.295ZM116.407 150.291C121.368 144.361 120.595 135.518 114.679 130.539C108.763 125.561 99.945 126.332 94.9836 132.262C90.0221 138.193 90.7958 147.036 96.7116 152.014C102.628 156.993 111.445 156.222 116.407 150.291Z" fill="white" fill-opacity="0.1"/>
<path d="M22.3836 70.9776C6.62919 89.8098 9.07815 117.886 27.8536 133.689L47.2343 150C40.8418 135.966 43.8326 117.049 56.1404 102.337C56.8453 101.494 57.5691 100.679 58.31 99.8926L107 41.6907L71.7226 12L22.3836 70.9776Z" fill="white" fill-opacity="0.1"/>
</svg>
