<svg width="153" height="42" viewBox="0 0 153 42" fill="none" xmlns="http://www.w3.org/2000/svg">
<path fill-rule="evenodd" clip-rule="evenodd" d="M28.9365 22.5823C29.1064 22.7102 29.2736 22.844 29.4379 22.9837C33.9147 26.792 34.4838 33.5764 30.7091 38.1371C26.9343 42.6977 20.2451 43.3076 15.7683 39.4993C11.2915 35.6909 10.7224 28.9065 14.4971 24.3458C14.6492 24.1621 14.806 23.9847 14.9673 23.8138L26.4006 10L34 16.4646L28.9365 22.5823ZM25.5414 33.8489C26.7694 32.356 26.5744 30.1269 25.1059 28.8699C23.6374 27.613 21.4514 27.8042 20.2235 29.297C18.9955 30.7898 19.1905 33.019 20.659 34.2759C22.1275 35.5329 24.3134 35.3417 25.5414 33.8489Z" fill="#69C774"/>
<path d="M2.51393 14.1034C-1.3003 18.6067 -0.707395 25.3207 3.83823 29.0994L8.5304 33C6.98276 29.6441 7.70683 25.1204 10.6866 21.6023C10.8573 21.4008 11.0325 21.2059 11.2119 21.0178L23 7.09996L14.4592 0L2.51393 14.1034Z" fill="#47A6EA"/>
<path d="M51.2985 15.426C51.2985 12.8589 52.2619 11.8963 54.7907 11.8963H63.2602V6.68188H54.7505C49.0506 6.68188 46 10.2116 46 15.5463V34.5187H51.2985V23.1272H61.173V18.1936H51.2985V15.426Z" fill="#333333"/>
<path d="M71.1108 11.6155V8.6473C71.1108 7.16321 69.9066 6 68.4615 6C66.9763 6 65.7721 7.16321 65.7721 8.6473V11.6155H71.1108ZM71.1108 13.8617H65.8123V34.5187H71.1108V13.8617Z" fill="#333333"/>
<path d="M89.5667 24.1701C91.3329 22.6459 92.4167 20.3997 92.4167 17.592V13.8617H87.1182V17.8728C87.1182 20.1992 85.6731 21.8036 83.5859 21.8036C81.5387 21.8036 80.0937 20.1992 80.0937 17.8728V13.8617H74.7952V17.592C74.7952 20.4398 75.7585 22.686 77.4444 24.1701C75.7585 25.6542 74.7952 27.9004 74.7952 30.7483V34.5187H80.0937V30.4675C80.0937 28.1411 81.5387 26.5367 83.5859 26.5367C85.6731 26.5367 87.1182 28.1411 87.1182 30.4675V34.5187H92.4167V30.7483C92.4167 27.9806 91.3329 25.6943 89.5667 24.1701Z" fill="#333333"/>
<path d="M104.974 29.6653C102.324 29.8257 101 28.7427 101 25.8548V18.5546H104.733V13.8617H101V8.60719H95.7013V25.8147C95.7013 31.4703 98.9125 35.1203 104.974 34.4786V29.6653Z" fill="#333333"/>
<path d="M126.062 25.7745V13.8617H120.763V25.935C120.763 28.2213 119.077 29.8658 116.749 29.8658C113.257 29.8658 112.856 27.0982 112.856 25.935V13.8617H107.557V25.7745C107.557 31.1895 110.969 35 116.749 35C122.369 35 126.062 31.029 126.062 25.7745Z" fill="#333333"/>
<path d="M140.245 13.4606C133.382 12.6183 129.327 16.7095 129.327 22.5657V34.5187H134.626V22.5657C134.626 19.6376 136.874 17.8326 140.245 18.4343V13.4606Z" fill="#333333"/>
<path d="M153 13.4606C146.136 12.6183 142.082 16.7095 142.082 22.5657V34.5187H147.38V22.5657C147.38 19.6376 149.628 17.8326 153 18.4343V13.4606Z" fill="#333333"/>
</svg>
