<svg width="249" height="64" viewBox="0 0 249 64" fill="none" xmlns="http://www.w3.org/2000/svg">
<path fill-rule="evenodd" clip-rule="evenodd" d="M44.1746 34.2667C44.4372 34.4625 44.6956 34.6673 44.9494 34.8812C51.8681 40.7127 52.7477 51.1014 46.914 58.0849C41.0803 65.0684 30.7425 66.0023 23.8238 60.1707C16.9051 54.3392 16.0255 43.9506 21.8592 36.9671C22.0942 36.6857 22.3366 36.4141 22.5858 36.1525L40.2555 15L52 24.8989L44.1746 34.2667ZM37.8205 50.621C39.5844 48.4963 39.3071 45.3261 37.201 43.54C35.095 41.7539 31.9578 42.0284 30.1938 44.153C28.4299 46.2776 28.7073 49.4479 30.8133 51.234C32.9194 53.0201 36.0566 52.7456 37.8205 50.621Z" fill="#75DDDD"/>
<path d="M73.1161 57.0006V40.4353H90.9271V32.077H73.1161V22.0227H92.8527V13.5735H64V57.0006H73.1161Z" fill="#16417D"/>
<path d="M97.1249 15.33C97.1249 16.8744 97.6364 18.1464 98.6894 19.1457C99.7123 20.1451 101.006 20.6599 102.54 20.6599C104.075 20.6599 105.369 20.1451 106.422 19.1457C107.444 18.1464 107.956 16.8744 107.956 15.33C107.956 13.7552 107.444 12.4833 106.422 11.4839C105.399 10.4845 104.105 10 102.54 10C100.976 10 99.6822 10.4845 98.6593 11.4839C97.6364 12.4833 97.1249 13.7552 97.1249 15.33ZM106.903 57.0006V26.6864H98.2983V57.0006H106.903Z" fill="#16417D"/>
<path d="M120.953 57.0006L127.241 46.8252L133.65 57.0006H143.578L133.529 41.4347L142.886 26.6864H133.108L127.362 36.1653L121.585 26.6864H111.717L121.194 41.3741L111.025 57.0006H120.953Z" fill="#16417D"/>
<path d="M150.107 33.8637V48.0669C150.107 55.123 154.83 57.9394 160.276 57.9394C162.171 57.9394 163.886 57.6972 165.451 57.2429V49.7325C164.458 50.005 163.615 50.1262 162.984 50.1262C160.125 50.1262 158.711 48.7634 158.711 46.0379V33.8637H165.451V26.6864H158.711V15.33L150.408 18.4189V26.6864H144.992V33.8637H150.107Z" fill="#16417D"/>
<path d="M170.806 46.8858C170.806 49.1571 171.348 51.1558 172.401 52.882C174.537 56.3344 177.966 58 181.818 58C185.097 58 187.925 56.8492 190.272 54.5779V57.0006H198.756V26.6864H190.151V46.8858C188.617 48.9754 186.722 50.005 184.465 50.005C181.487 50.005 179.411 47.9457 179.411 44.7054V26.6864H170.806V46.8858Z" fill="#16417D"/>
<path d="M214.521 57.0006V39.436C214.912 37.9823 215.755 36.771 217.079 35.8019C218.402 34.8328 219.877 34.3483 221.531 34.3483C222.735 34.3483 223.788 34.4694 224.69 34.6814V25.8688C223.968 25.7476 223.216 25.6871 222.464 25.6871C218.703 25.6871 215.875 27.6555 214.401 31.0776V26.6864H205.886V57.0006H214.521Z" fill="#16417D"/>
<path d="M238.831 57.0006V39.436C239.222 37.9823 240.064 36.771 241.388 35.8019C242.712 34.8328 244.186 34.3483 245.841 34.3483C247.044 34.3483 248.097 34.4694 249 34.6814V25.8688C248.278 25.7476 247.526 25.6871 246.774 25.6871C243.013 25.6871 240.185 27.6555 238.711 31.0776V26.6864H230.196V57.0006H238.831Z" fill="#16417D"/>
<path d="M3.82555 21.7961C-1.97872 28.7558 -1.07647 39.132 5.84079 44.9718L12.981 51C10.6259 45.8136 11.7278 38.8225 16.2622 33.3854C16.522 33.0739 16.7886 32.7728 17.0616 32.4821L35 10.9727L22.0031 0L3.82555 21.7961Z" fill="#4368FA"/>
</svg>
