<svg width="40" height="40" viewBox="0 0 40 40" fill="none" xmlns="http://www.w3.org/2000/svg">
  <path d="M23.5156 27.0576H16.4844C15.8372 27.0576 15.3125 27.5828 15.3125 28.2307C15.3125 28.8785 15.8372 29.4037 16.4844 29.4037H23.5156C24.1628 29.4037 24.6875 28.8786 24.6875 28.2307C24.6875 27.5829 24.1628 27.0576 23.5156 27.0576Z" fill="#94A3B8"/>
  <path d="M39.6567 7.06891L37.7036 5.11391C37.4838 4.89391 37.1858 4.77031 36.875 4.77031H35.3801C35.218 2.11266 33.0076 0 30.3125 0H9.6875C6.99242 0 4.78203 2.11266 4.61992 4.77031H3.125C2.81414 4.77031 2.51609 4.89391 2.29641 5.11391L0.343281 7.06891C0.123438 7.28891 0 7.58727 0 7.89836V13.7634C0 14.4113 0.524687 14.9365 1.17188 14.9365C1.81906 14.9365 2.34375 14.4113 2.34375 13.7634V8.38422L3.61039 7.11633H4.60938V33.3137C4.60938 34.173 5.16625 34.904 5.9375 35.1655V38.0449C5.9375 39.123 6.81367 40 7.89062 40H11.5625C12.6395 40 13.5156 39.123 13.5156 38.045V35.2688H26.4844V38.045C26.4844 39.123 27.3605 40 28.4375 40H32.1094C33.1863 40 34.0625 39.123 34.0625 38.045V35.1656C34.8338 34.9041 35.3906 34.1731 35.3906 33.3138V7.11633H36.3896L37.6562 8.38422V13.7634C37.6562 14.4113 38.1809 14.9365 38.8281 14.9365C39.4753 14.9365 40 14.4113 40 13.7634V7.89836C40 7.58727 39.8766 7.28891 39.6567 7.06891ZM33.0469 32.9228H28.6354L29.1035 31.4547L33.0469 30.7705V32.9228ZM13.8248 32.9228L12.9133 30.0638C12.7805 29.6473 12.4273 29.3393 11.997 29.2646L6.95312 28.3894V23.6707C11.9062 24.5376 28.103 24.536 33.0469 23.6707V28.3894L28.003 29.2645C27.5726 29.3392 27.2195 29.6472 27.0866 30.0637L26.1751 32.9227H13.8248V32.9228ZM6.95312 32.9228V30.7705L10.8966 31.4547L11.3647 32.9228H6.95312ZM9.6875 2.34602H30.3125C31.8202 2.34602 33.0469 3.57383 33.0469 5.08305V21.2855C28.9133 22.204 11.0841 22.2034 6.95312 21.2855V5.08313C6.95312 3.57383 8.17977 2.34602 9.6875 2.34602ZM8.28125 37.654V35.2688H11.1719V37.654H8.28125ZM28.8281 37.654V35.2688H31.7188V37.654H28.8281Z" fill="#94A3B8"/>
</svg>
