<svg width="52" height="52" viewBox="0 0 52 52" fill="none" xmlns="http://www.w3.org/2000/svg">
<path d="M37.9615 4.17969H14.114C13.5419 4.17969 13.0781 4.64344 13.0781 5.21554V8.94173C13.0781 9.51383 13.5419 9.97758 14.114 9.97758H37.9615C38.5335 9.97758 38.9973 9.51383 38.9973 8.94173V5.21554C38.9973 4.64344 38.5335 4.17969 37.9615 4.17969ZM36.9256 7.90587H15.1498V6.2514H36.9256V7.90587Z" fill="#94A3B8"/>
<path d="M9.27023 17.1811H24.1749C24.747 17.1811 25.2107 16.7173 25.2107 16.1452C25.2107 15.5731 24.747 15.1094 24.1749 15.1094H9.27023C8.69813 15.1094 8.23438 15.5731 8.23438 16.1452C8.23438 16.7173 8.69813 17.1811 9.27023 17.1811Z" fill="#94A3B8"/>
<path d="M28.3977 17.1811H30.2608C30.8328 17.1811 31.2966 16.7173 31.2966 16.1452C31.2966 15.5731 30.8328 15.1094 30.2608 15.1094H28.3977C27.8257 15.1094 27.3618 15.5731 27.3618 16.1452C27.3618 16.7173 27.8257 17.1811 28.3977 17.1811Z" fill="#94A3B8"/>
<path d="M12.2174 40.0744C14.0219 40.0744 15.49 38.6063 15.49 36.8019C15.49 34.9974 14.022 33.5293 12.2174 33.5293C10.4128 33.5293 8.94482 34.9973 8.94482 36.8019C8.94482 38.6063 10.4128 40.0744 12.2174 40.0744ZM12.2174 35.601C12.8795 35.601 13.4183 36.1398 13.4183 36.8019C13.4183 37.464 12.8795 38.0026 12.2174 38.0026C11.5553 38.0026 11.0165 37.464 11.0165 36.8019C11.0165 36.1398 11.5553 35.601 12.2174 35.601Z" fill="#94A3B8"/>
<path d="M39.7827 40.0744C41.5872 40.0744 43.0553 38.6063 43.0553 36.8019C43.0553 34.9974 41.5872 33.5293 39.7827 33.5293C37.9783 33.5293 36.5103 34.9973 36.5103 36.8019C36.5103 38.6063 37.9783 40.0744 39.7827 40.0744ZM39.7827 35.601C40.445 35.601 40.9836 36.1398 40.9836 36.8019C40.9836 37.464 40.445 38.0026 39.7827 38.0026C39.1206 38.0026 38.582 37.464 38.582 36.8019C38.582 36.1398 39.1206 35.601 39.7827 35.601Z" fill="#94A3B8"/>
<path d="M50.9641 19.3842H47.8159V6.04148C47.8159 3.18946 45.4957 0.869141 42.6435 0.869141H9.35648C6.50445 0.869141 4.18414 3.18946 4.18414 6.04148V19.3842H1.03586C0.463753 19.3842 0 19.848 0 20.4201V29.7817C0 30.3538 0.463753 30.8175 1.03586 30.8175H4.18414V43.5953C4.18414 44.1674 4.64789 44.6312 5.21999 44.6312H6.02288V47.6726C6.02288 49.5793 7.57408 51.1304 9.48078 51.1304H10.1018C12.0085 51.1304 13.5597 49.5792 13.5597 47.6726V44.6312H38.4404V47.6726C38.4404 49.5793 39.9916 51.1304 41.8983 51.1304H42.5193C44.426 51.1304 45.9772 49.5792 45.9772 47.6726V44.6312H46.7801C47.3521 44.6312 47.816 44.1674 47.816 43.5953V30.8175H50.9641C51.5361 30.8175 52 30.3538 52 29.7817V20.4201C52 19.848 51.5361 19.3842 50.9641 19.3842ZM4.16073 28.7458H2.07171V21.456H4.16073V28.7458ZM11.4879 47.6727C11.4879 48.4369 10.866 49.0587 10.1017 49.0587H9.48068C8.71632 49.0587 8.09449 48.4369 8.09449 47.6727V44.6313H11.4879C11.4879 44.6313 11.4879 47.6727 11.4879 47.6727ZM43.9054 47.6727C43.9054 48.4369 43.2836 49.0587 42.5192 49.0587H41.8982C41.1339 49.0587 40.512 48.4369 40.512 47.6727V44.6313H43.9054V47.6727ZM45.7443 42.5596H6.25585V30.8446H45.7443V42.5596ZM45.7443 28.7728H45.7442H41.1844C41.1295 28.7434 41.0717 28.7178 41.0103 28.6982L27.8447 24.4751C27.2997 24.3002 26.7165 24.6003 26.5419 25.1451C26.3672 25.6898 26.6671 26.2731 27.2118 26.4478L34.4605 28.7727H23.9199L10.58 24.4751C10.0351 24.3002 9.45198 24.6002 9.27734 25.1451C9.10259 25.6898 9.40257 26.2731 9.94733 26.4478L17.1959 28.7727H6.25585V13.3315H45.7443V28.7728ZM45.7443 11.2598H6.25585V6.04148C6.25585 4.3318 7.6468 2.94085 9.35648 2.94085H42.6436C44.3533 2.94085 45.7443 4.3318 45.7443 6.04148V11.2598ZM49.9283 28.7458H47.8393V21.456H49.9283V28.7458Z" fill="#94A3B8"/>
</svg>
