<svg width="40" height="40" viewBox="0 0 40 40" fill="none" xmlns="http://www.w3.org/2000/svg">
<path d="M19.9998 38.3332C9.86526 38.3332 1.6665 30.0965 1.6665 19.9998C1.6665 9.90322 9.86526 1.6665 19.9998 1.6665C30.1344 1.6665 38.3332 9.90322 38.3332 19.9998C38.3332 30.0965 30.0965 38.3332 19.9998 38.3332ZM19.9998 3.90598C11.1178 3.90598 3.94394 11.1179 3.94394 19.9998C3.94394 28.8439 11.1558 36.0557 19.9998 36.0557C28.8439 36.0557 36.0557 28.8439 36.0557 19.9998C36.0557 11.1179 28.8439 3.90598 19.9998 3.90598Z" fill="#94A3B8"/>
<path d="M20.1896 10.2446C16.7355 10.2446 13.8887 13.0535 13.8887 16.5456C13.8887 17.1148 14.3441 17.5705 14.9136 17.5705C15.4828 17.5705 15.9385 17.1151 15.9385 16.5456C15.9385 14.1923 17.8364 12.2945 20.1896 12.2945C22.5429 12.2942 24.4408 14.192 24.4408 16.5456C24.4408 18.8989 22.5429 20.7967 20.1896 20.7967C19.6204 20.7967 19.1647 21.2521 19.1647 21.8216V24.8961C19.1647 25.4654 19.6201 25.921 20.1896 25.921C20.7589 25.921 21.2146 25.4656 21.2146 24.8961V22.7324C24.213 22.2389 26.4906 19.658 26.4906 16.5074C26.4906 13.0533 23.6817 10.2446 20.1896 10.2446Z" fill="#94A3B8"/>
<path d="M21.632 29.0338C21.632 29.8304 20.9862 30.4762 20.1895 30.4762C19.3928 30.4762 18.7471 29.8304 18.7471 29.0338C18.7471 28.2371 19.3928 27.5913 20.1895 27.5913C20.9862 27.5913 21.632 28.2371 21.632 29.0338Z" fill="#94A3B8"/>
</svg>
