<svg width="1934" height="1728" viewBox="0 0 1934 1728" fill="none" xmlns="http://www.w3.org/2000/svg">
<path d="M1340.26 283.481C1340.26 283.481 973.182 293.268 791.978 90.2412C502.209 -234.426 -325.201 381.348 138.006 1058.28C601.214 1735.21 1760.98 1449.77 1761 882.935C1761.02 259.375 1340.26 283.481 1340.26 283.481Z" fill="#DADFE6"/>
<path d="M1731.42 1495.15H666.261C561.006 1495.15 475.679 1409.83 475.679 1304.56V699.549C475.679 594.295 561.006 508.975 666.261 508.975H1731.42C1836.68 508.975 1922 594.295 1922 699.549V1304.56C1922 1409.83 1836.68 1495.15 1731.42 1495.15Z" fill="white"/>
<path d="M781.047 1495.15H1065.12L780.94 1715.47L781.047 1495.15Z" fill="white"/>
<path d="M781.034 1532.59C781.032 1532.59 781.03 1532.59 781.028 1532.59C774.611 1532.59 769.412 1527.38 769.415 1520.96L769.422 1506.76H755.226C748.81 1506.76 743.608 1501.56 743.608 1495.15C743.608 1488.74 748.81 1483.54 755.226 1483.54H781.046C784.128 1483.54 787.086 1484.75 789.263 1486.94C791.443 1489.11 792.667 1492.07 792.666 1495.15L792.652 1520.98C792.65 1527.39 787.448 1532.59 781.034 1532.59Z" fill="#393939"/>
<path d="M780.981 1645.04C780.98 1645.04 780.977 1645.04 780.976 1645.04C774.56 1645.04 769.36 1639.84 769.362 1633.42L769.389 1577.19C769.392 1570.78 774.593 1565.58 781.008 1565.58C781.009 1565.58 781.012 1565.58 781.013 1565.58C787.43 1565.58 792.629 1570.79 792.626 1577.2L792.6 1633.43C792.597 1639.84 787.396 1645.04 780.981 1645.04Z" fill="#393939"/>
<path d="M780.939 1727.1C779.198 1727.1 777.448 1726.7 775.826 1725.91C771.843 1723.95 769.319 1719.9 769.322 1715.47L769.334 1689.64C769.337 1683.23 774.538 1678.03 780.953 1678.03C780.954 1678.03 780.956 1678.03 780.959 1678.03C787.375 1678.04 792.574 1683.24 792.571 1689.66L792.57 1691.75L794.226 1690.47C799.292 1686.54 806.595 1687.46 810.527 1692.54C814.459 1697.6 813.536 1704.9 808.464 1708.83L788.059 1724.66C785.983 1726.27 783.471 1727.1 780.939 1727.1Z" fill="#393939"/>
<path d="M808.879 520.589H757.623C751.206 520.589 746.005 515.389 746.005 508.976C746.005 502.562 751.206 497.349 757.623 497.349H808.879C815.297 497.349 820.498 502.562 820.498 508.976C820.498 515.389 815.297 520.589 808.879 520.589ZM911.39 520.589H860.134C853.717 520.589 848.515 515.389 848.515 508.976C848.515 502.562 853.717 497.349 860.134 497.349H911.39C917.807 497.349 923.009 502.562 923.009 508.976C923.009 515.389 917.807 520.589 911.39 520.589ZM1013.9 520.589H962.644C956.227 520.589 951.026 515.389 951.026 508.976C951.026 502.562 956.227 497.349 962.644 497.349H1013.9C1020.32 497.349 1025.52 502.562 1025.52 508.976C1025.52 515.389 1020.32 520.589 1013.9 520.589ZM1116.41 520.589H1065.16C1058.74 520.589 1053.54 515.389 1053.54 508.976C1053.54 502.562 1058.74 497.349 1065.16 497.349H1116.41C1122.82 497.349 1128.04 502.562 1128.04 508.976C1128.04 515.389 1122.82 520.589 1116.41 520.589ZM1218.92 520.589H1167.66C1161.25 520.589 1156.05 515.389 1156.05 508.976C1156.05 502.562 1161.25 497.349 1167.66 497.349H1218.92C1225.34 497.349 1230.54 502.562 1230.54 508.976C1230.54 515.389 1225.34 520.589 1218.92 520.589ZM1321.44 520.589H1270.18C1263.76 520.589 1258.56 515.389 1258.56 508.976C1258.56 502.562 1263.76 497.349 1270.18 497.349H1321.44C1327.85 497.349 1333.05 502.562 1333.05 508.976C1333.05 515.389 1327.85 520.589 1321.44 520.589ZM1423.94 520.589H1372.69C1366.28 520.589 1361.08 515.389 1361.08 508.976C1361.08 502.562 1366.28 497.349 1372.69 497.349H1423.94C1430.36 497.349 1435.56 502.562 1435.56 508.976C1435.56 515.389 1430.36 520.589 1423.94 520.589ZM1526.45 520.589H1475.2C1468.78 520.589 1463.58 515.389 1463.58 508.976C1463.58 502.562 1468.78 497.349 1475.2 497.349H1526.45C1532.88 497.349 1538.08 502.562 1538.08 508.976C1538.08 515.389 1532.88 520.589 1526.45 520.589ZM1628.95 520.589H1577.7C1571.29 520.589 1566.09 515.389 1566.09 508.976C1566.09 502.562 1571.29 497.349 1577.7 497.349H1628.95C1635.38 497.349 1640.58 502.562 1640.58 508.976C1640.58 515.389 1635.38 520.589 1628.95 520.589ZM1731.48 520.589H1680.22C1673.8 520.589 1668.6 515.389 1668.6 508.976C1668.6 502.562 1673.8 497.349 1680.22 497.349H1731.42C1737.83 497.349 1743.06 502.562 1743.06 508.976C1743.06 515.389 1737.89 520.589 1731.48 520.589ZM655.114 520.909C649.003 520.909 643.883 516.136 643.525 509.963C643.155 503.563 648.048 498.069 654.454 497.696C658.352 497.469 662.326 497.349 666.262 497.349H706.369C712.786 497.349 717.987 502.562 717.987 508.976C717.987 515.389 712.786 520.589 706.369 520.589H666.262C662.771 520.589 659.25 520.696 655.795 520.896C655.567 520.909 655.339 520.909 655.114 520.909ZM1829.06 547.483C1827.04 547.483 1824.98 546.949 1823.12 545.843C1809.32 537.589 1794.47 531.243 1779.02 526.989C1772.83 525.283 1769.2 518.896 1770.9 512.709C1772.61 506.509 1779.01 502.883 1785.18 504.589C1802.66 509.389 1819.44 516.563 1835.04 525.896C1840.54 529.189 1842.34 536.323 1839.05 541.829C1836.88 545.469 1833.02 547.483 1829.06 547.483ZM559.261 553.456C555.542 553.456 551.89 551.669 549.642 548.363C546.034 543.056 547.413 535.829 552.719 532.216C567.758 522.003 584.086 513.856 601.247 508.042C607.319 505.976 613.922 509.229 615.983 515.309C618.046 521.389 614.79 527.976 608.714 530.042C593.535 535.189 579.09 542.389 565.782 551.443C563.782 552.802 561.51 553.456 559.261 553.456ZM1899.16 620.603C1895.02 620.603 1891.04 618.402 1888.93 614.509C1881.29 600.402 1871.77 587.363 1860.63 575.749C1856.19 571.109 1856.36 563.763 1860.98 559.323C1865.64 554.869 1872.98 555.029 1877.42 559.669C1889.98 572.776 1900.73 587.509 1909.37 603.456C1912.42 609.096 1910.32 616.149 1904.68 619.203C1902.92 620.149 1901.02 620.603 1899.16 620.603ZM493.538 630.509C491.889 630.509 490.215 630.149 488.621 629.403C482.809 626.682 480.302 619.776 483.021 613.963C490.698 597.549 500.57 582.229 512.365 568.389C516.531 563.509 523.867 562.936 528.746 567.096C533.627 571.256 534.21 578.589 530.046 583.483C519.6 595.723 510.862 609.283 504.069 623.802C502.094 628.029 497.907 630.509 493.538 630.509ZM1922 719.283C1915.58 719.283 1910.38 714.083 1910.38 707.669V699.549C1910.38 685.989 1908.86 672.469 1905.86 659.389C1904.42 653.136 1908.33 646.896 1914.58 645.469C1920.85 644.029 1927.07 647.936 1928.5 654.189C1931.9 668.976 1933.62 684.243 1933.62 699.549V707.669C1933.62 714.083 1928.41 719.283 1922 719.283ZM475.679 730.363C469.262 730.363 464.061 725.163 464.061 718.749V699.549C464.061 688.203 465.01 676.816 466.881 665.723C467.949 659.389 473.942 655.136 480.27 656.189C486.598 657.256 490.863 663.256 489.797 669.576C488.138 679.416 487.299 689.496 487.299 699.549V718.749C487.299 725.163 482.096 730.363 475.679 730.363ZM1922 821.789C1915.58 821.789 1910.38 816.589 1910.38 810.176V758.923C1910.38 752.509 1915.58 747.309 1922 747.309C1928.41 747.309 1933.62 752.509 1933.62 758.923V810.176C1933.62 816.589 1928.41 821.789 1922 821.789ZM475.679 832.883C469.262 832.883 464.061 827.669 464.061 821.256V770.003C464.061 763.589 469.262 758.376 475.679 758.376C482.096 758.376 487.299 763.589 487.299 770.003V821.256C487.299 827.669 482.096 832.883 475.679 832.883ZM1922 924.309C1915.58 924.309 1910.38 919.109 1910.38 912.683V861.429C1910.38 855.016 1915.58 849.816 1922 849.816C1928.41 849.816 1933.62 855.016 1933.62 861.429V912.683C1933.62 919.109 1928.41 924.309 1922 924.309ZM475.679 935.389C469.262 935.389 464.061 930.189 464.061 923.763V872.509C464.061 866.096 469.262 860.896 475.679 860.896C482.096 860.896 487.299 866.096 487.299 872.509V923.763C487.299 930.189 482.096 935.389 475.679 935.389ZM1922 1026.82C1915.58 1026.82 1910.38 1021.62 1910.38 1015.2V963.936C1910.38 957.523 1915.58 952.323 1922 952.323C1928.41 952.323 1933.62 957.523 1933.62 963.936V1015.2C1933.62 1021.62 1928.41 1026.82 1922 1026.82ZM475.679 1037.9C469.262 1037.9 464.061 1032.7 464.061 1026.28V975.029C464.061 968.603 469.262 963.403 475.679 963.403C482.096 963.403 487.299 968.603 487.299 975.029V1026.28C487.299 1032.7 482.096 1037.9 475.679 1037.9ZM1922 1129.32C1915.58 1129.32 1910.38 1124.12 1910.38 1117.71V1066.46C1910.38 1060.04 1915.58 1054.83 1922 1054.83C1928.41 1054.83 1933.62 1060.04 1933.62 1066.46V1117.71C1933.62 1124.12 1928.41 1129.32 1922 1129.32ZM475.679 1140.4C469.262 1140.4 464.061 1135.2 464.061 1128.79V1077.54C464.061 1071.11 469.262 1065.91 475.679 1065.91C482.096 1065.91 487.299 1071.11 487.299 1077.54V1128.79C487.299 1135.2 482.096 1140.4 475.679 1140.4ZM1922 1231.84C1915.58 1231.84 1910.38 1226.63 1910.38 1220.22V1168.96C1910.38 1162.55 1915.58 1157.35 1922 1157.35C1928.41 1157.35 1933.62 1162.55 1933.62 1168.96V1220.22C1933.62 1226.63 1928.41 1231.84 1922 1231.84ZM475.679 1242.92C469.262 1242.92 464.061 1237.71 464.061 1231.3V1180.04C464.061 1173.63 469.262 1168.43 475.679 1168.43C482.096 1168.43 487.299 1173.63 487.299 1180.04V1231.3C487.299 1237.71 482.096 1242.92 475.679 1242.92ZM1921.16 1334.31C1920.8 1334.31 1920.44 1334.3 1920.06 1334.27C1913.68 1333.66 1908.98 1327.99 1909.58 1321.6C1910.12 1315.99 1910.38 1310.26 1910.38 1304.56V1271.47C1910.38 1265.06 1915.58 1259.86 1922 1259.86C1928.41 1259.86 1933.62 1265.06 1933.62 1271.47V1304.56C1933.62 1310.98 1933.32 1317.44 1932.72 1323.79C1932.16 1329.8 1927.09 1334.31 1921.16 1334.31ZM477.874 1345.31C472.235 1345.31 467.286 1341.19 466.405 1335.44C464.85 1325.3 464.061 1314.91 464.061 1304.56V1282.55C464.061 1276.14 469.262 1270.94 475.679 1270.94C482.096 1270.94 487.299 1276.14 487.299 1282.55V1304.56C487.299 1313.74 487.997 1322.94 489.375 1331.92C490.347 1338.27 485.993 1344.19 479.65 1345.16C479.054 1345.26 478.461 1345.31 477.874 1345.31ZM1885.1 1428.91C1882.71 1428.91 1880.3 1428.18 1878.22 1426.66C1873.06 1422.86 1871.94 1415.58 1875.74 1410.42C1885.28 1397.44 1892.99 1383.28 1898.7 1368.31C1900.98 1362.31 1907.69 1359.3 1913.69 1361.59C1919.69 1363.87 1922.7 1370.59 1920.41 1376.59C1913.97 1393.51 1905.24 1409.51 1894.46 1424.18C1892.2 1427.27 1888.67 1428.91 1885.1 1428.91ZM519.412 1437.67C516.071 1437.67 512.757 1436.23 510.458 1433.46C498.862 1419.46 489.212 1403.98 481.779 1387.46C479.144 1381.6 481.755 1374.72 487.606 1372.1C493.462 1369.46 500.337 1372.07 502.97 1377.92C509.547 1392.54 518.089 1406.24 528.355 1418.63C532.447 1423.58 531.759 1430.9 526.817 1434.99C524.65 1436.79 522.024 1437.67 519.412 1437.67ZM1805.7 1491.75C1801.17 1491.75 1796.88 1489.1 1795 1484.67C1792.49 1478.76 1795.25 1471.94 1801.16 1469.43C1815.93 1463.18 1829.81 1454.94 1842.42 1444.95C1847.45 1440.96 1854.76 1441.82 1858.74 1446.84C1862.73 1451.88 1861.88 1459.19 1856.85 1463.18C1842.6 1474.46 1826.92 1483.76 1810.22 1490.83C1808.74 1491.46 1807.21 1491.75 1805.7 1491.75ZM602.315 1495.78C601.022 1495.78 599.707 1495.56 598.419 1495.1C581.355 1489.03 565.157 1480.66 550.274 1470.22C545.021 1466.52 543.749 1459.28 547.434 1454.03C551.117 1448.78 558.365 1447.5 563.617 1451.19C576.789 1460.43 591.119 1467.84 606.212 1473.22C612.256 1475.36 615.413 1482 613.261 1488.06C611.567 1492.8 607.091 1495.78 602.315 1495.78ZM703.55 1506.76H666.262C661.318 1506.76 656.346 1506.59 651.474 1506.23C645.073 1505.78 640.259 1500.2 640.722 1493.8C641.183 1487.4 646.769 1482.59 653.147 1483.06C657.47 1483.36 661.883 1483.52 666.267 1483.54H703.55C709.967 1483.54 715.169 1488.74 715.169 1495.15C715.169 1501.56 709.967 1506.76 703.55 1506.76ZM1141.4 1506.76H1090.14C1083.73 1506.76 1078.53 1501.56 1078.53 1495.15C1078.53 1488.74 1083.73 1483.54 1090.14 1483.54H1141.4C1147.81 1483.54 1153.02 1488.74 1153.02 1495.15C1153.02 1501.56 1147.81 1506.76 1141.4 1506.76ZM1243.92 1506.76H1192.65C1186.24 1506.76 1181.04 1501.56 1181.04 1495.15C1181.04 1488.74 1186.24 1483.54 1192.65 1483.54H1243.92C1250.33 1483.54 1255.53 1488.74 1255.53 1495.15C1255.53 1501.56 1250.33 1506.76 1243.92 1506.76ZM1346.42 1506.76H1295.17C1288.74 1506.76 1283.54 1501.56 1283.54 1495.15C1283.54 1488.74 1288.74 1483.54 1295.17 1483.54H1346.42C1352.84 1483.54 1358.04 1488.74 1358.04 1495.15C1358.04 1501.56 1352.84 1506.76 1346.42 1506.76ZM1448.93 1506.76H1397.68C1391.26 1506.76 1386.06 1501.56 1386.06 1495.15C1386.06 1488.74 1391.26 1483.54 1397.68 1483.54H1448.93C1455.34 1483.54 1460.56 1488.74 1460.56 1495.15C1460.56 1501.56 1455.34 1506.76 1448.93 1506.76ZM1551.44 1506.76H1500.18C1493.77 1506.76 1488.57 1501.56 1488.57 1495.15C1488.57 1488.74 1493.77 1483.54 1500.18 1483.54H1551.44C1557.86 1483.54 1563.06 1488.74 1563.06 1495.15C1563.06 1501.56 1557.86 1506.76 1551.44 1506.76ZM1653.95 1506.76H1602.69C1596.28 1506.76 1591.08 1501.56 1591.08 1495.15C1591.08 1488.74 1596.28 1483.54 1602.69 1483.54H1653.95C1660.37 1483.54 1665.57 1488.74 1665.57 1495.15C1665.57 1501.56 1660.37 1506.76 1653.95 1506.76ZM1731.42 1506.76H1705.21C1698.78 1506.76 1693.58 1501.56 1693.58 1495.15C1693.58 1488.74 1698.78 1483.54 1705.21 1483.54H1731.42C1739.26 1483.54 1747.16 1483.02 1754.88 1482C1761.25 1481.16 1767.08 1485.66 1767.9 1492.02C1768.74 1498.38 1764.25 1504.22 1757.89 1505.04C1749.17 1506.19 1740.26 1506.76 1731.42 1506.76ZM1003.89 1554.24C1000.42 1554.24 996.988 1552.7 994.698 1549.75C990.767 1544.67 991.691 1537.38 996.762 1533.44L1037.28 1502.04C1042.34 1498.11 1049.64 1499.03 1053.57 1504.11C1057.5 1509.18 1056.58 1516.47 1051.52 1520.4L1011 1551.8C1008.89 1553.46 1006.38 1554.24 1003.89 1554.24ZM922.875 1617.06C919.407 1617.06 915.975 1615.51 913.686 1612.55C909.753 1607.48 910.678 1600.19 915.748 1596.26L956.255 1564.84C961.33 1560.92 968.625 1561.84 972.557 1566.91C976.489 1571.99 975.564 1579.28 970.494 1583.22L929.986 1614.62C927.868 1616.26 925.362 1617.06 922.875 1617.06ZM841.86 1679.87C838.392 1679.87 834.96 1678.32 832.671 1675.36C828.739 1670.3 829.663 1663 834.734 1659.07L875.241 1627.66C880.311 1623.72 887.61 1624.64 891.542 1629.72C895.475 1634.79 894.55 1642.1 889.479 1646.03L848.973 1677.43C846.855 1679.07 844.348 1679.87 841.86 1679.87Z" fill="#393939"/>
<path d="M338 550.993C338 409.612 452.622 295 594 295C735.378 295 850 409.612 850 550.993C850 692.388 735.378 807 594 807C452.622 807 338 692.388 338 550.993Z" fill="#FF2A0C"/>
<path d="M593.574 702.562C585.167 702.562 577.827 699.866 571.568 694.461C565.295 689.055 562.159 681.49 562.159 671.778C562.159 663.296 565.15 656.071 571.146 650.116C577.142 644.174 584.482 641.189 593.152 641.189C601.836 641.189 609.242 644.174 615.369 650.116C621.497 656.071 624.567 663.296 624.567 671.778C624.567 681.359 621.47 688.885 615.264 694.356C609.071 699.827 601.836 702.562 593.574 702.562ZM570.632 567.5L564.017 469.177C562.779 450.028 562.159 436.272 562.159 427.921C562.159 416.56 565.15 407.699 571.146 401.338C577.142 394.977 585.022 391.796 594.813 391.796C606.659 391.796 614.579 395.867 618.571 404.008C622.564 412.149 624.567 423.89 624.567 439.217C624.567 448.248 624.08 457.41 623.118 466.716L614.236 567.919C613.274 579.96 611.205 589.188 608.03 595.627C604.867 602.054 599.636 605.274 592.335 605.274C584.89 605.274 579.725 602.159 576.826 595.928C573.94 589.711 571.871 580.235 570.632 567.5Z" fill="white"/>
</svg>
