<svg width="153" height="110" viewBox="0 0 153 110" fill="none" xmlns="http://www.w3.org/2000/svg">
<path d="M76.5906 109.667C104.629 109.667 127.359 86.8718 127.359 58.7523C127.359 30.6328 104.629 7.8374 76.5906 7.8374C48.5521 7.8374 25.8225 30.6328 25.8225 58.7523C25.8225 86.8718 48.5521 109.667 76.5906 109.667Z" fill="#EAEEF9"/>
<path d="M134.672 33.7556C136.254 32.3052 136.365 29.8428 134.919 28.2557C133.473 26.6686 131.017 26.5577 129.435 28.0081C127.852 29.4585 127.742 31.9209 129.188 33.508C130.634 35.0951 133.089 35.206 134.672 33.7556Z" fill="#EAEEF9"/>
<path d="M47.2505 12.207C48.5917 11.7698 49.3256 10.3249 48.8897 8.97977C48.4537 7.63462 47.013 6.89858 45.6718 7.3358C44.3305 7.77301 43.5966 9.2179 44.0325 10.5631C44.4685 11.9082 45.9092 12.6442 47.2505 12.207Z" fill="#EAEEF9"/>
<path d="M52.8248 3.85078C53.7369 3.55348 54.236 2.57096 53.9395 1.65626C53.6431 0.741553 52.6634 0.241049 51.7513 0.53835C50.8392 0.83565 50.3402 1.81817 50.6366 2.73288C50.9331 3.64758 51.9128 4.14809 52.8248 3.85078Z" fill="#EAEEF9"/>
<path d="M134.965 16.3025C135.631 15.6918 135.678 14.655 135.069 13.9868C134.46 13.3185 133.426 13.2718 132.76 13.8825C132.094 14.4932 132.047 15.53 132.656 16.1983C133.265 16.8665 134.299 16.9132 134.965 16.3025Z" fill="#EAEEF9"/>
<path d="M94.6423 4.08324C95.1004 3.66339 95.1324 2.95058 94.7138 2.49114C94.2951 2.0317 93.5844 1.99962 93.1263 2.41947C92.6682 2.83933 92.6362 3.55214 93.0549 4.01157C93.4735 4.47101 94.1842 4.5031 94.6423 4.08324Z" fill="#EAEEF9"/>
<path d="M1 100.549H149.627" stroke="#D6DCE8" stroke-width="2" stroke-miterlimit="10"/>
<path d="M105.217 99.6048H13.6575L30.3876 22.0605H122.049L105.217 99.6048Z" fill="white"/>
<path d="M105.217 99.6048H13.6575L30.3876 22.0605H122.049L105.217 99.6048Z" fill="#D5DAE8"/>
<path d="M52.3902 99.6048H33.4294C29.9819 99.6048 27.1429 96.6419 27.3457 93.1683L30.3875 22.0605H34.9503L52.3902 99.6048Z" fill="url(#paint0_linear_12002_53643)"/>
<path d="M142.124 99.6048H50.5648L35.0514 40.0418L34.95 39.6332L30.3872 22.0605H122.048L126.003 37.2833L126.611 39.6332L126.712 40.0418L142.124 99.6048Z" fill="white"/>
<path d="M126.611 39.6332H34.95L30.3872 22.0605H122.048L126.003 37.2833L126.611 39.6332Z" fill="#EFF3FB"/>
<path opacity="0.3" d="M54.5193 34.627C56.3113 34.627 57.7639 33.1633 57.7639 31.3577C57.7639 29.5521 56.3113 28.0884 54.5193 28.0884C52.7273 28.0884 51.2747 29.5521 51.2747 31.3577C51.2747 33.1633 52.7273 34.627 54.5193 34.627Z" fill="#ADB6C8"/>
<path opacity="0.3" d="M108.056 34.627C109.848 34.627 111.3 33.1633 111.3 31.3577C111.3 29.5521 109.848 28.0884 108.056 28.0884C106.264 28.0884 104.811 29.5521 104.811 31.3577C104.811 33.1633 106.264 34.627 108.056 34.627Z" fill="#ADB6C8"/>
<path d="M53.7081 32.6857C53.0997 32.6857 52.5927 32.1749 52.5927 31.5619C52.5927 30.9489 53.0997 30.438 53.7081 30.438C55.9388 30.438 58.2708 27.2709 58.2708 22.4691C58.2708 22.3669 58.2708 22.1626 58.2708 22.0604C58.1695 17.3608 55.8374 14.5001 53.7081 14.5001C51.6802 14.5001 49.4495 17.2586 49.1453 21.5496H46.8132C47.1174 16.2369 50.0579 12.2524 53.6067 12.2524C57.3583 12.2524 60.2987 16.6456 60.5015 22.2647C60.5015 22.3669 60.5015 22.4691 60.5015 22.5712C60.6029 28.1904 57.5611 32.6857 53.7081 32.6857Z" fill="#ADB6C8"/>
<path d="M106.941 32.6857C106.332 32.6857 105.825 32.1749 105.825 31.5619C105.825 30.9489 106.332 30.438 106.941 30.438C109.171 30.438 111.503 27.2709 111.503 22.4691C111.503 22.3669 111.503 22.1626 111.503 22.0604C111.402 17.3608 109.07 14.5001 106.941 14.5001C104.913 14.5001 102.682 17.2586 102.378 21.5496H100.046C100.35 16.2369 103.29 12.2524 106.839 12.2524C110.591 12.2524 113.531 16.6456 113.734 22.2647C113.734 22.3669 113.734 22.4691 113.734 22.5712C113.835 28.1904 110.794 32.6857 106.941 32.6857Z" fill="#ADB6C8"/>
<path d="M1.99683 99.5024H149.526" stroke="#D5DAE8" stroke-width="2" stroke-miterlimit="10" stroke-linecap="round" stroke-linejoin="round"/>
<path opacity="0.3" d="M108.563 62.6205C107.954 62.6205 107.549 62.1096 107.549 61.5988C107.549 60.9858 107.954 60.5771 108.563 60.5771H111.706C112.314 60.5771 112.72 61.088 112.72 61.5988C112.72 62.2118 112.213 62.6205 111.706 62.6205H108.563Z" fill="#D5DAE8"/>
<path d="M65.3686 91.4314C64.963 91.4314 64.5574 91.1249 64.3546 90.7163L62.7323 84.6885H54.7221C54.1138 84.6885 53.7082 84.1776 53.7082 83.6668C53.7082 83.0538 54.2152 82.6451 54.7221 82.6451H62.1239L59.5891 73.6545H51.8831C51.2747 73.6545 50.8691 73.1437 50.8691 72.6328C50.8691 72.0198 51.2747 71.6112 51.8831 71.6112H58.9807L56.4458 62.6205H49.1454C48.537 62.6205 48.1315 62.1097 48.1315 61.5989C48.1315 60.9859 48.537 60.5772 49.1454 60.5772H55.9389L53.404 51.5866H46.4077C45.7994 51.5866 45.3938 51.0758 45.3938 50.5649C45.3938 49.9519 45.7994 49.5433 46.4077 49.5433H52.7956L51.7817 45.8653C51.6803 45.3544 51.9845 44.7414 52.4914 44.6393C52.5928 44.6393 52.6942 44.6393 52.7956 44.6393C53.2012 44.6393 53.6068 44.9458 53.8096 45.3544L55.0263 49.5433H63.1379C63.7463 49.5433 64.1518 49.9519 64.1518 50.5649C64.1518 51.1779 63.7463 51.5866 63.1379 51.5866H55.6347L58.1696 60.5772H70.9453L66.8895 45.8653C66.7881 45.3544 67.0923 44.7414 67.5993 44.6393C67.7007 44.6393 67.8021 44.6393 67.9035 44.6393C68.309 44.6393 68.7146 44.9458 68.9174 45.3544L70.1341 49.5433H74.4941C75.1025 49.5433 75.5081 49.9519 75.5081 50.5649C75.5081 51.1779 75.0011 51.5866 74.4941 51.5866H70.7425L73.2774 60.5772H81.896C82.5043 60.5772 82.9099 61.0881 82.9099 61.5989C82.9099 62.2119 82.5043 62.6205 81.896 62.6205H73.8858L76.4206 71.6112H89.2978L83.7211 51.5866H80.9834C80.375 51.5866 79.9694 51.0758 79.9694 50.5649C79.9694 49.9519 80.4764 49.5433 80.9834 49.5433H83.1127L82.0987 45.8653C81.9973 45.5588 82.0987 45.3544 82.2001 45.0479C82.3015 44.8436 82.5043 44.6393 82.8085 44.5371C82.9099 44.5371 83.0113 44.5371 83.1127 44.5371C83.5183 44.5371 83.9238 44.8436 84.1266 45.2523L85.3434 49.4411H87.4727C88.081 49.4411 88.4866 49.8498 88.4866 50.4628C88.4866 51.0758 88.081 51.4844 87.4727 51.4844H85.9517L88.4866 60.4751H101.364L98.8289 51.4844H92.2382C91.6299 51.4844 91.2243 50.9736 91.2243 50.4628C91.2243 49.8498 91.7313 49.4411 92.2382 49.4411H97.9163L96.9024 45.7631C96.801 45.2523 97.1052 44.6393 97.6122 44.5371C97.7135 44.5371 97.8149 44.5371 97.9163 44.5371C98.3219 44.5371 98.7275 44.8436 98.9303 45.2523L100.147 49.4411H113.024L112.01 45.7631C111.909 45.2523 112.213 44.6393 112.72 44.5371C112.821 44.5371 112.923 44.5371 113.024 44.5371C113.43 44.5371 113.835 44.8436 114.038 45.2523L115.255 49.4411H123.164C123.772 49.4411 124.178 49.8498 124.178 50.4628C124.178 51.0758 123.772 51.4844 123.164 51.4844H115.559L118.094 60.4751H125.699C126.307 60.4751 126.712 60.9859 126.712 61.4967C126.712 62.1097 126.307 62.5184 125.699 62.5184H118.702L121.237 71.509H128.538C129.146 71.509 129.552 72.0198 129.552 72.5307C129.552 73.1437 129.146 73.5523 128.538 73.5523H121.846L124.38 82.543H131.275C131.884 82.543 132.289 83.0538 132.289 83.5646C132.289 84.1776 131.782 84.5863 131.275 84.5863H124.887L126.408 90.0011C126.51 90.5119 126.205 91.1249 125.699 91.2271C125.597 91.2271 125.496 91.2271 125.394 91.2271C124.989 91.2271 124.583 90.9206 124.38 90.5119L122.758 84.5863H109.881L111.402 89.8989C111.503 90.2054 111.402 90.4098 111.3 90.7163C111.199 90.9206 110.996 91.1249 110.692 91.2271C110.591 91.2271 110.489 91.2271 110.388 91.2271C109.982 91.2271 109.577 90.9206 109.374 90.5119L107.752 84.6885H94.8745L96.3954 90.0011C96.4968 90.5119 96.1926 91.1249 95.6856 91.2271C95.5843 91.2271 95.4829 91.2271 95.3815 91.2271C94.9759 91.2271 94.5703 90.9206 94.3675 90.5119L92.7452 84.6885H79.8681L81.389 90.0011C81.4904 90.5119 81.1862 91.1249 80.6792 91.2271C80.5778 91.2271 80.4764 91.2271 80.375 91.2271C79.9694 91.2271 79.5639 90.9206 79.3611 90.5119L77.7388 84.6885H64.8616L66.3825 90.1033C66.4839 90.4098 66.3825 90.6141 66.2811 90.9206C66.1797 91.1249 65.977 91.3293 65.6728 91.4314C65.5714 91.4314 65.47 91.4314 65.3686 91.4314ZM94.2661 82.6451H122.15L119.615 73.6545H106.738L107.65 76.9238C107.752 77.2303 107.65 77.4347 107.549 77.7412C107.447 77.9455 107.245 78.1498 106.94 78.252C106.839 78.252 106.738 78.252 106.636 78.252C106.231 78.252 105.825 77.9455 105.622 77.5368L104.608 73.7567H100.755C100.147 73.7567 99.7414 73.2458 99.7414 72.735C99.7414 72.122 100.147 71.7134 100.755 71.7134H104L101.465 62.7227H88.6894L91.2243 71.7134H94.3675C94.9759 71.7134 95.3815 72.2242 95.3815 72.735C95.3815 73.348 94.9759 73.7567 94.3675 73.7567H91.7312L94.2661 82.6451ZM79.2597 82.6451H92.1368L89.602 73.6545H76.7248L79.2597 82.6451ZM64.2532 82.6451H77.1304L74.5955 73.6545H70.8439C70.2355 73.6545 69.83 73.1437 69.83 72.6328C69.83 72.0198 70.3369 71.6112 70.8439 71.6112H74.0885L71.5537 62.6205H58.6765L61.2114 71.6112H64.5574C65.1658 71.6112 65.5714 72.122 65.5714 72.6328C65.5714 73.2458 65.0644 73.6545 64.5574 73.6545H61.8198L64.2532 82.6451ZM106.231 71.6112H119.108L113.531 51.5866H100.553L106.231 71.6112Z" fill="#D5DAE8"/>
<path d="M152.536 93.4574C152.112 95.2563 151.477 97.161 150.736 98.7483C148.724 102.664 145.548 105.732 141.631 107.743C137.608 109.753 132.843 110.6 128.079 109.542C116.856 107.214 109.657 96.2087 111.986 84.9919C114.315 73.775 125.22 66.4735 136.443 68.9074C140.466 69.7539 143.96 71.7645 146.924 74.5158C151.9 79.4893 154.018 86.685 152.536 93.4574Z" fill="url(#paint1_linear_12002_53643)"/>
<path d="M138.878 87.4255H134.114V82.6637C134.114 81.7113 133.372 80.8647 132.314 80.8647C131.361 80.8647 130.514 81.6055 130.514 82.6637V87.4255H125.75C124.797 87.4255 123.95 88.1663 123.95 89.2244C123.95 90.2826 124.691 91.0234 125.75 91.0234H130.514V95.7852C130.514 96.7376 131.255 97.5842 132.314 97.5842C133.267 97.5842 134.114 96.8434 134.114 95.7852V91.0234H138.878C139.831 91.0234 140.678 90.2826 140.678 89.2244C140.678 88.1663 139.831 87.4255 138.878 87.4255Z" fill="white"/>
<defs>
<linearGradient id="paint0_linear_12002_53643" x1="27.3271" y1="60.821" x2="52.4276" y2="60.821" gradientUnits="userSpaceOnUse">
<stop stop-color="#D5DAE8"/>
<stop offset="1" stop-color="#9AA3BA"/>
</linearGradient>
<linearGradient id="paint1_linear_12002_53643" x1="111.53" y1="89.224" x2="153.008" y2="89.224" gradientUnits="userSpaceOnUse">
<stop stop-color="#B0BACC"/>
<stop offset="1" stop-color="#969EAE"/>
</linearGradient>
</defs>
</svg>
