<svg width="120" height="120" viewBox="0 0 120 120" fill="none" xmlns="http://www.w3.org/2000/svg">
<path d="M10.7999 85.8239V41.1647H101.52V65.7047L104.4 70.6919V29.6855C104.992 30.1062 105.476 30.6625 105.81 31.3079C106.144 31.9533 106.319 32.6692 106.32 33.3959V74.0183L109.2 79.0055V33.4055C109.2 31.8651 108.722 30.3628 107.831 29.1058C106.941 27.8488 105.683 26.8992 104.23 26.3879C103.87 24.727 102.953 23.2392 101.63 22.1721C100.307 21.1049 98.6593 20.5227 96.9599 20.5223H88.8599V17.9783C88.8599 16.3233 88.2025 14.7362 87.0323 13.5659C85.862 12.3957 84.2749 11.7383 82.6199 11.7383H76.6079C74.953 11.7383 73.3658 12.3957 72.1956 13.5659C71.0253 14.7362 70.3679 16.3233 70.3679 17.9783V20.5223H41.9423V17.9783C41.9423 16.3233 41.2849 14.7362 40.1147 13.5659C38.9444 12.3957 37.3573 11.7383 35.7023 11.7383H29.6879C28.033 11.7383 26.4458 12.3957 25.2756 13.5659C24.1053 14.7362 23.4479 16.3233 23.4479 17.9783V20.5223H15.3599C13.3867 20.5223 11.4943 21.3061 10.099 22.7014C8.70378 24.0967 7.91992 25.9891 7.91992 27.9623V85.8239C7.92156 87.4197 8.43545 88.9729 9.38595 90.2548C10.3365 91.5367 11.6734 92.4796 13.1999 92.9447C13.7358 94.3566 14.6886 95.572 15.9319 96.4294C17.1751 97.2868 18.6497 97.7455 20.1599 97.7447H52.6103C52.6156 96.7732 52.7398 95.806 52.9799 94.8647H20.1599C19.5031 94.8636 18.8542 94.7207 18.2577 94.4457C17.6612 94.1706 17.1312 93.77 16.7039 93.2711H53.5007C53.7155 92.7409 53.9665 92.2261 54.2519 91.7303L55.0247 90.3911H15.3599C14.7605 90.3911 14.1669 90.2729 13.6132 90.0433C13.0595 89.8137 12.5565 89.4771 12.133 89.0529C11.7094 88.6287 11.3737 88.1252 11.145 87.5711C10.9162 87.0171 10.799 86.4233 10.7999 85.8239ZM73.2479 17.9783C73.2479 17.0872 73.6019 16.2325 74.232 15.6024C74.8622 14.9723 75.7168 14.6183 76.6079 14.6183H82.6223C83.5135 14.6183 84.3681 14.9723 84.9982 15.6024C85.6283 16.2325 85.9823 17.0872 85.9823 17.9783V20.4983H82.8623V17.9783C82.8623 17.5964 82.7106 17.2301 82.4406 16.96C82.1705 16.69 81.8042 16.5383 81.4223 16.5383H77.8079C77.426 16.5383 77.0597 16.69 76.7897 16.96C76.5196 17.2301 76.3679 17.5964 76.3679 17.9783V28.5383C76.3679 28.9202 76.5196 29.2865 76.7897 29.5565C77.0597 29.8266 77.426 29.9783 77.8079 29.9783H80.5679C80.8225 29.9783 81.0667 30.0794 81.2467 30.2595C81.4268 30.4395 81.5279 30.6837 81.5279 30.9383C81.5279 31.1929 81.4268 31.4371 81.2467 31.6171C81.0667 31.7971 80.8225 31.8983 80.5679 31.8983H76.6079C75.7168 31.8983 74.8622 31.5443 74.232 30.9142C73.6019 30.284 73.2479 29.4294 73.2479 28.5383V17.9783ZM79.9823 19.4183V20.5247H79.2479V19.4183H79.9823ZM26.3303 17.9783C26.3303 17.0872 26.6843 16.2325 27.3144 15.6024C27.9446 14.9723 28.7992 14.6183 29.6903 14.6183H35.7047C36.5959 14.6183 37.4505 14.9723 38.0806 15.6024C38.7107 16.2325 39.0647 17.0872 39.0647 17.9783V20.4983H35.9447V17.9783C35.9447 17.5964 35.793 17.2301 35.523 16.96C35.2529 16.69 34.8866 16.5383 34.5047 16.5383H30.8879C30.506 16.5383 30.1397 16.69 29.8697 16.96C29.5996 17.2301 29.4479 17.5964 29.4479 17.9783V28.5383C29.4479 28.9202 29.5996 29.2865 29.8697 29.5565C30.1397 29.8266 30.506 29.9783 30.8879 29.9783H33.6479C33.9025 29.9783 34.1467 30.0794 34.3267 30.2595C34.5068 30.4395 34.6079 30.6837 34.6079 30.9383C34.6079 31.1929 34.5068 31.4371 34.3267 31.6171C34.1467 31.7971 33.9025 31.8983 33.6479 31.8983H29.6879C28.7968 31.8983 27.9422 31.5443 27.312 30.9142C26.6819 30.284 26.3279 29.4294 26.3279 28.5383L26.3303 17.9783ZM33.0647 19.4183V20.5247H32.3279V19.4183H33.0647ZM10.7999 27.9623C10.7999 26.7529 11.2803 25.593 12.1355 24.7379C12.9907 23.8827 14.1505 23.4023 15.3599 23.4023H23.4479V28.5359C23.4479 30.1908 24.1053 31.778 25.2756 32.9482C26.4458 34.1185 28.033 34.7759 29.6879 34.7759H33.6479C34.6664 34.7759 35.6431 34.3713 36.3632 33.6512C37.0834 32.931 37.4879 31.9543 37.4879 30.9359C37.4879 29.9174 37.0834 28.9407 36.3632 28.2206C35.6431 27.5005 34.6664 27.0959 33.6479 27.0959H32.3279V23.4023H70.3679V28.5359C70.3679 30.1908 71.0253 31.778 72.1956 32.9482C73.3658 34.1185 74.953 34.7759 76.6079 34.7759H80.5679C81.5864 34.7759 82.5631 34.3713 83.2832 33.6512C84.0034 32.931 84.4079 31.9543 84.4079 30.9359C84.4079 29.9174 84.0034 28.9407 83.2832 28.2206C82.5631 27.5005 81.5864 27.0959 80.5679 27.0959H79.2479V23.4023H96.9599C98.1693 23.4023 99.3292 23.8827 100.184 24.7379C101.039 25.593 101.52 26.7529 101.52 27.9623V38.2823H10.7999V27.9623Z" fill="#334155"/>
<path d="M72.516 45.8834C72.516 45.5014 72.3643 45.1352 72.0943 44.8651C71.8242 44.5951 71.458 44.4434 71.076 44.4434H64.584C64.2021 44.4434 63.8359 44.5951 63.5658 44.8651C63.2958 45.1352 63.144 45.5014 63.144 45.8834V52.3754C63.144 52.7573 63.2958 53.1235 63.5658 53.3936C63.8359 53.6636 64.2021 53.8154 64.584 53.8154H71.076C71.458 53.8154 71.8242 53.6636 72.0943 53.3936C72.3643 53.1235 72.516 52.7573 72.516 52.3754V45.8834ZM69.636 50.9354H66.024V47.3234H69.636V50.9354Z" fill="#334155"/>
<path d="M72.516 60.0889V57.0601C72.516 56.6782 72.3643 56.3119 72.0943 56.0419C71.8242 55.7718 71.458 55.6201 71.076 55.6201H64.584C64.2021 55.6201 63.8359 55.7718 63.5658 56.0419C63.2958 56.3119 63.144 56.6782 63.144 57.0601V63.5521C63.144 63.934 63.2958 64.3003 63.5658 64.5703C63.8359 64.8404 64.2021 64.9921 64.584 64.9921H69.684L72.516 60.0889ZM69.636 62.1121H66.024V58.5001H69.636V62.1121Z" fill="#334155"/>
<path d="M84.1921 49.9634V45.8834C84.1921 45.5014 84.0404 45.1352 83.7703 44.8651C83.5002 44.5951 83.134 44.4434 82.7521 44.4434H76.2601C75.8782 44.4434 75.5119 44.5951 75.2418 44.8651C74.9718 45.1352 74.8201 45.5014 74.8201 45.8834V52.3754C74.8201 52.7573 74.9718 53.1235 75.2418 53.3936C75.5119 53.6636 75.8782 53.8154 76.2601 53.8154H76.4713C77.5865 52.5878 78.946 51.6068 80.4625 50.9354H77.7001V47.3234H81.3121V50.597C82.2427 50.2694 83.2099 50.0566 84.1921 49.9634Z" fill="#334155"/>
<path d="M90.3313 50.9354C91.8478 51.6068 93.2073 52.5878 94.3225 53.8154H94.4257C94.8076 53.8154 95.1739 53.6636 95.4439 53.3936C95.714 53.1235 95.8657 52.7573 95.8657 52.3754V45.8834C95.8657 45.5014 95.714 45.1352 95.4439 44.8651C95.1739 44.5951 94.8076 44.4434 94.4257 44.4434H87.9361C87.5542 44.4434 87.1879 44.5951 86.9179 44.8651C86.6478 45.1352 86.4961 45.5014 86.4961 45.8834V49.9634C87.477 50.0476 88.4441 50.2507 89.3761 50.5682V47.3234H92.9881V50.9354H90.3313Z" fill="#334155"/>
<path d="M25.8144 57.0601C25.8144 56.6782 25.6627 56.3119 25.3926 56.0419C25.1226 55.7718 24.7563 55.6201 24.3744 55.6201H17.8824C17.5005 55.6201 17.1342 55.7718 16.8641 56.0419C16.5941 56.3119 16.4424 56.6782 16.4424 57.0601V63.5521C16.4424 63.934 16.5941 64.3003 16.8641 64.5703C17.1342 64.8404 17.5005 64.9921 17.8824 64.9921H24.3744C24.7563 64.9921 25.1226 64.8404 25.3926 64.5703C25.6627 64.3003 25.8144 63.934 25.8144 63.5521V57.0601ZM22.9344 62.1121H19.3224V58.5001H22.9344V62.1121Z" fill="#334155"/>
<path d="M37.4904 57.0601C37.4904 56.6782 37.3387 56.3119 37.0686 56.0419C36.7986 55.7718 36.4323 55.6201 36.0504 55.6201H29.5584C29.1765 55.6201 28.8102 55.7718 28.5402 56.0419C28.2701 56.3119 28.1184 56.6782 28.1184 57.0601V63.5521C28.1184 63.934 28.2701 64.3003 28.5402 64.5703C28.8102 64.8404 29.1765 64.9921 29.5584 64.9921H36.0504C36.4323 64.9921 36.7986 64.8404 37.0686 64.5703C37.3387 64.3003 37.4904 63.934 37.4904 63.5521V57.0601ZM34.6104 62.1121H30.9984V58.5001H34.6104V62.1121Z" fill="#334155"/>
<path d="M49.1664 57.0601C49.1664 56.6782 49.0147 56.3119 48.7446 56.0419C48.4746 55.7718 48.1083 55.6201 47.7264 55.6201H41.232C40.8501 55.6201 40.4838 55.7718 40.2138 56.0419C39.9437 56.3119 39.792 56.6782 39.792 57.0601V63.5521C39.792 63.934 39.9437 64.3003 40.2138 64.5703C40.4838 64.8404 40.8501 64.9921 41.232 64.9921H47.724C48.1059 64.9921 48.4722 64.8404 48.7422 64.5703C49.0123 64.3003 49.164 63.934 49.164 63.5521L49.1664 57.0601ZM46.2864 62.1121H42.672V58.5001H46.284L46.2864 62.1121Z" fill="#334155"/>
<path d="M60.84 57.0601C60.84 56.6782 60.6883 56.3119 60.4183 56.0419C60.1482 55.7718 59.7819 55.6201 59.4 55.6201H52.908C52.5261 55.6201 52.1598 55.7718 51.8898 56.0419C51.6197 56.3119 51.468 56.6782 51.468 57.0601V63.5521C51.468 63.934 51.6197 64.3003 51.8898 64.5703C52.1598 64.8404 52.5261 64.9921 52.908 64.9921H59.4C59.7819 64.9921 60.1482 64.8404 60.4183 64.5703C60.6883 64.3003 60.84 63.934 60.84 63.5521V57.0601ZM57.96 62.1121H54.348V58.5001H57.96V62.1121Z" fill="#334155"/>
<path d="M25.8144 68.2369C25.8144 67.855 25.6627 67.4887 25.3926 67.2186C25.1226 66.9486 24.7563 66.7969 24.3744 66.7969H17.8824C17.5005 66.7969 17.1342 66.9486 16.8641 67.2186C16.5941 67.4887 16.4424 67.855 16.4424 68.2369V74.7289C16.4424 75.1108 16.5941 75.4771 16.8641 75.7471C17.1342 76.0172 17.5005 76.1689 17.8824 76.1689H24.3744C24.7563 76.1689 25.1226 76.0172 25.3926 75.7471C25.6627 75.4771 25.8144 75.1108 25.8144 74.7289V68.2369ZM22.9344 73.2889H19.3224V69.6769H22.9344V73.2889Z" fill="#334155"/>
<path d="M37.4904 68.2369C37.4904 67.855 37.3387 67.4887 37.0686 67.2186C36.7986 66.9486 36.4323 66.7969 36.0504 66.7969H29.5584C29.1765 66.7969 28.8102 66.9486 28.5402 67.2186C28.2701 67.4887 28.1184 67.855 28.1184 68.2369V74.7289C28.1184 75.1108 28.2701 75.4771 28.5402 75.7471C28.8102 76.0172 29.1765 76.1689 29.5584 76.1689H36.0504C36.4323 76.1689 36.7986 76.0172 37.0686 75.7471C37.3387 75.4771 37.4904 75.1108 37.4904 74.7289V68.2369ZM34.6104 73.2889H30.9984V69.6769H34.6104V73.2889Z" fill="#334155"/>
<path d="M49.1664 68.2369C49.1664 67.855 49.0147 67.4887 48.7446 67.2186C48.4746 66.9486 48.1083 66.7969 47.7264 66.7969H41.232C40.8501 66.7969 40.4838 66.9486 40.2138 67.2186C39.9437 67.4887 39.792 67.855 39.792 68.2369V74.7289C39.792 75.1108 39.9437 75.4771 40.2138 75.7471C40.4838 76.0172 40.8501 76.1689 41.232 76.1689H47.724C48.1059 76.1689 48.4722 76.0172 48.7422 75.7471C49.0123 75.4771 49.164 75.1108 49.164 74.7289L49.1664 68.2369ZM46.2864 73.2889H42.672V69.6769H46.284L46.2864 73.2889Z" fill="#334155"/>
<path d="M60.84 68.2369C60.84 67.855 60.6883 67.4887 60.4183 67.2186C60.1482 66.9486 59.7819 66.7969 59.4 66.7969H52.908C52.5261 66.7969 52.1598 66.9486 51.8898 67.2186C51.6197 67.4887 51.468 67.855 51.468 68.2369V74.7289C51.468 75.1108 51.6197 75.4771 51.8898 75.7471C52.1598 76.0172 52.5261 76.1689 52.908 76.1689H59.4C59.7819 76.1689 60.1482 76.0172 60.4183 75.7471C60.6883 75.4771 60.84 75.1108 60.84 74.7289V68.2369ZM57.96 73.2889H54.348V69.6769H57.96V73.2889Z" fill="#334155"/>
<path d="M63.144 68.2369V74.7289C63.1442 75.0831 63.2749 75.4249 63.5112 75.6889L66.024 71.3353V69.6769H66.984L68.6472 66.7969H64.584C64.2021 66.7969 63.8359 66.9486 63.5658 67.2186C63.2958 67.4887 63.144 67.855 63.144 68.2369Z" fill="#334155"/>
<path d="M24.3744 77.9736H17.8824C17.5005 77.9736 17.1342 78.1253 16.8641 78.3954C16.5941 78.6655 16.4424 79.0317 16.4424 79.4136V85.9056C16.4424 86.2875 16.5941 86.6538 16.8641 86.9239C17.1342 87.1939 17.5005 87.3456 17.8824 87.3456H24.3744C24.7563 87.3456 25.1226 87.1939 25.3926 86.9239C25.6627 86.6538 25.8144 86.2875 25.8144 85.9056V79.4136C25.8144 79.0317 25.6627 78.6655 25.3926 78.3954C25.1226 78.1253 24.7563 77.9736 24.3744 77.9736ZM22.9344 84.4656H19.3224V80.8536H22.9344V84.4656Z" fill="#334155"/>
<path d="M36.0504 77.9736H29.5584C29.1765 77.9736 28.8102 78.1253 28.5402 78.3954C28.2701 78.6655 28.1184 79.0317 28.1184 79.4136V85.9056C28.1184 86.2875 28.2701 86.6538 28.5402 86.9239C28.8102 87.1939 29.1765 87.3456 29.5584 87.3456H36.0504C36.4323 87.3456 36.7986 87.1939 37.0686 86.9239C37.3387 86.6538 37.4904 86.2875 37.4904 85.9056V79.4136C37.4904 79.0317 37.3387 78.6655 37.0686 78.3954C36.7986 78.1253 36.4323 77.9736 36.0504 77.9736ZM34.6104 84.4656H30.9984V80.8536H34.6104V84.4656Z" fill="#334155"/>
<path d="M47.7264 77.9736H41.232C40.8501 77.9736 40.4838 78.1253 40.2138 78.3954C39.9437 78.6655 39.792 79.0317 39.792 79.4136V85.9056C39.792 86.2875 39.9437 86.6538 40.2138 86.9239C40.4838 87.1939 40.8501 87.3456 41.232 87.3456H47.724C48.1059 87.3456 48.4722 87.1939 48.7422 86.9239C49.0123 86.6538 49.164 86.2875 49.164 85.9056V79.4136C49.164 79.0321 49.0126 78.6662 48.7431 78.3962C48.4735 78.1263 48.1079 77.9743 47.7264 77.9736ZM46.2864 84.4656H42.672V80.8536H46.284L46.2864 84.4656Z" fill="#334155"/>
<path d="M59.4 77.9736H52.908C52.5261 77.9736 52.1598 78.1253 51.8898 78.3954C51.6197 78.6655 51.468 79.0317 51.468 79.4136V85.9056C51.468 86.2875 51.6197 86.6538 51.8898 86.9239C52.1598 87.1939 52.5261 87.3456 52.908 87.3456H56.7792L60.84 80.3112V79.4136C60.84 79.0317 60.6883 78.6655 60.4183 78.3954C60.1482 78.1253 59.7819 77.9736 59.4 77.9736ZM57.96 84.4656H54.348V80.8536H57.96V84.4656Z" fill="#334155"/>
<path d="M114.048 93.1634L93.408 57.4034C92.5969 55.9989 91.4305 54.8327 90.026 54.0219C88.6214 53.211 87.0282 52.7842 85.4064 52.7842C83.7846 52.7842 82.1914 53.211 80.7868 54.0219C79.3822 54.8327 78.2158 55.9989 77.4048 57.4034L56.7648 93.1634C55.9538 94.568 55.5269 96.1613 55.5269 97.7832C55.5268 99.4052 55.9537 100.999 56.7647 102.403C57.5756 103.808 58.742 104.974 60.1465 105.785C61.5511 106.596 63.1445 107.023 64.7664 107.023H106.046C107.668 107.023 109.262 106.596 110.666 105.785C112.071 104.974 113.237 103.808 114.048 102.403C114.859 100.999 115.286 99.4052 115.286 97.7832C115.286 96.1613 114.859 94.568 114.048 93.1634ZM111.554 100.963C111.001 101.935 110.2 102.741 109.232 103.3C108.263 103.859 107.164 104.15 106.046 104.143H64.7472C63.6308 104.143 62.534 103.85 61.5672 103.291C60.6003 102.733 59.7974 101.93 59.2392 100.963C58.681 99.9966 58.3871 98.8998 58.3871 97.7834C58.3871 96.667 58.681 95.5702 59.2392 94.6034L79.8792 58.8434C80.4374 57.8765 81.2403 57.0736 82.2071 56.5153C83.174 55.9571 84.2707 55.6632 85.3872 55.6632C86.5036 55.6632 87.6004 55.9571 88.5672 56.5153C89.5341 57.0736 90.337 57.8765 90.8952 58.8434L111.535 94.6034C112.103 95.5663 112.404 96.663 112.407 97.7808C112.41 98.8985 112.116 99.997 111.554 100.963Z" fill="#334155"/>
<path d="M88.2024 60.3983C87.918 59.9059 87.509 59.497 87.0165 59.2127C86.524 58.9285 85.9654 58.7788 85.3968 58.7788C84.8281 58.7788 84.2695 58.9285 83.777 59.2127C83.2846 59.497 82.8756 59.9059 82.5912 60.3983L61.9512 96.1583C61.6668 96.6508 61.5171 97.2095 61.5171 97.7782C61.5171 98.3469 61.6668 98.9056 61.9511 99.3981C62.2354 99.8906 62.6444 100.3 63.1369 100.584C63.6294 100.868 64.1881 101.018 64.7568 101.018H106.046C106.615 101.018 107.174 100.868 107.666 100.584C108.159 100.3 108.568 99.8906 108.852 99.3981C109.136 98.9056 109.286 98.3469 109.286 97.7782C109.286 97.2095 109.136 96.6508 108.852 96.1583L88.2024 60.3983ZM106.356 97.9631C106.328 98.0208 106.283 98.0688 106.228 98.1008C106.172 98.1329 106.108 98.1476 106.044 98.1431H64.7472C64.684 98.1431 64.6218 98.1265 64.5671 98.0949C64.5123 98.0633 64.4669 98.0179 64.4352 97.9632C64.4036 97.9084 64.3869 97.8463 64.3869 97.7831C64.3869 97.7199 64.4036 97.6578 64.4352 97.6031L85.0752 61.843C85.1067 61.7882 85.1522 61.7427 85.207 61.711C85.2617 61.6793 85.3239 61.6627 85.3872 61.6627C85.4504 61.6627 85.5126 61.6793 85.5674 61.711C85.6221 61.7427 85.6676 61.7882 85.6992 61.843L106.339 97.6031C106.378 97.6544 106.4 97.716 106.403 97.7801C106.407 97.8442 106.391 97.9079 106.358 97.9631H106.356Z" fill="#334155"/>
<path d="M81.7583 85.6799C81.7879 86.0411 81.9526 86.3779 82.2195 86.623C82.4864 86.8681 82.8359 87.0036 83.1983 87.0024H87.5999C87.9623 87.0036 88.3118 86.8681 88.5787 86.623C88.8457 86.3779 89.0103 86.0411 89.0399 85.6799L90.0767 72.9599C90.093 72.7612 90.0678 72.5612 90.0028 72.3727C89.9378 72.1842 89.8343 72.0112 89.6989 71.8648C89.5635 71.7184 89.3992 71.6017 89.2164 71.5221C89.0335 71.4424 88.8361 71.4017 88.6367 71.4024H82.1567C81.9573 71.4017 81.7599 71.4424 81.5771 71.5221C81.3942 71.6017 81.2299 71.7184 81.0945 71.8648C80.9592 72.0112 80.8557 72.1842 80.7906 72.3727C80.7256 72.5612 80.7004 72.7612 80.7167 72.9599L81.7583 85.6799ZM87.0743 74.2727L86.2727 84.1128H84.5207L83.7191 74.2727H87.0743Z" fill="#334155"/>
<path d="M85.3968 88.0801C84.4712 88.0801 83.5664 88.3546 82.7967 88.8688C82.0271 89.383 81.4273 90.114 81.073 90.9691C80.7188 91.8243 80.6261 92.7653 80.8067 93.6731C80.9873 94.5809 81.433 95.4148 82.0875 96.0693C82.742 96.7238 83.5759 97.1696 84.4838 97.3502C85.3916 97.5307 86.3326 97.4381 87.1878 97.0838C88.0429 96.7296 88.7738 96.1298 89.2881 95.3601C89.8023 94.5905 90.0768 93.6857 90.0768 92.7601C90.0755 91.5193 89.582 90.3296 88.7046 89.4522C87.8273 88.5748 86.6376 88.0813 85.3968 88.0801ZM85.3968 94.5601C85.0408 94.5601 84.6928 94.4545 84.3968 94.2567C84.1008 94.0589 83.87 93.7778 83.7338 93.4489C83.5976 93.12 83.5619 92.7581 83.6314 92.4089C83.7008 92.0598 83.8723 91.739 84.124 91.4873C84.3757 91.2355 84.6965 91.0641 85.0456 90.9947C85.3948 90.9252 85.7567 90.9609 86.0856 91.0971C86.4145 91.2333 86.6957 91.464 86.8934 91.7601C87.0912 92.0561 87.1968 92.4041 87.1968 92.7601C87.1962 93.2373 87.0063 93.6947 86.6689 94.0322C86.3315 94.3696 85.874 94.5594 85.3968 94.5601Z" fill="#334155"/>
</svg>
