<svg width="40" height="40" viewBox="0 0 40 40" fill="none" xmlns="http://www.w3.org/2000/svg">
<path d="M19.9995 27.127C18.0613 27.127 16.4844 28.7038 16.4844 30.6421C16.4844 32.5804 18.0613 34.1573 19.9995 34.1573C21.9378 34.1573 23.5147 32.5805 23.5147 30.6422C23.5147 28.7039 21.9378 27.127 19.9995 27.127ZM19.9995 31.8138C19.3534 31.8138 18.8278 31.2882 18.8278 30.6421C18.8278 29.996 19.3534 29.4704 19.9995 29.4704C20.6456 29.4704 21.1712 29.996 21.1712 30.6421C21.1712 31.2882 20.6456 31.8138 19.9995 31.8138Z" fill="#FE5F55"/>
<path d="M19.9995 10.7227C18.0613 10.7227 16.4844 12.2995 16.4844 14.2378V23.6116C16.4844 25.5499 18.0613 27.1268 19.9995 27.1268C21.9378 27.1268 23.5147 25.5499 23.5147 23.6116V14.2378C23.5147 12.2995 21.9378 10.7227 19.9995 10.7227ZM21.1712 23.6116C21.1712 24.2577 20.6456 24.7834 19.9995 24.7834C19.3534 24.7834 18.8278 24.2577 18.8278 23.6116V14.2378C18.8278 13.5917 19.3534 13.0661 19.9995 13.0661C20.6456 13.0661 21.1712 13.5917 21.1712 14.2378V23.6116Z" fill="#FE5F55"/>
<path d="M39.1673 29.9927L25.0412 4.0243C22.7691 0.197422 17.2369 0.20375 14.9673 4.02219L0.830857 29.9957C-1.48844 33.9017 1.32211 38.8455 5.86836 38.8455H34.1316C38.672 38.8455 41.4922 33.9079 39.1673 29.9927ZM34.1316 36.5019H5.86836C3.13742 36.5019 1.45672 33.5318 2.84383 31.1955L16.9791 5.22406C16.9798 5.22297 16.9805 5.22188 16.9811 5.22078C18.3432 2.92695 21.6627 2.92438 23.028 5.22391L37.1542 31.1922C38.5458 33.5359 36.8594 36.5019 34.1316 36.5019Z" fill="#FE5F55"/>
</svg>
