<svg width="40" height="38" viewBox="0 0 40 38" fill="none" xmlns="http://www.w3.org/2000/svg">
<path d="M39.8511 10.6123L35.5546 2.96479C35.419 2.72337 35.2017 2.53841 34.9417 2.44313L29.1704 0.326857C29.0423 0.279916 28.9069 0.255859 28.7705 0.255859H28.422H11.2295C11.093 0.255859 10.9576 0.279916 10.8296 0.326857L5.05826 2.44313C4.79833 2.53841 4.58104 2.72337 4.44537 2.96479L0.148942 10.6123C-0.123803 11.0978 -0.0136738 11.7085 0.411454 12.0681L5.94234 16.7472C6.42331 17.1539 7.14079 17.1034 7.5599 16.6332L8.59636 15.4701V36.5828C8.59636 37.2244 9.11647 37.7445 9.75802 37.7445H30.242C30.8835 37.7445 31.4036 37.2244 31.4036 36.5828V15.4701L32.4401 16.6332C32.8592 17.1036 33.5768 17.154 34.0577 16.7472L39.5885 12.0681C40.0137 11.7085 40.1238 11.0978 39.8511 10.6123V10.6123ZM33.8401 4.6564L10.9197 34.3748V30.5705L31.6387 3.70648L33.7392 4.47668L33.8401 4.6564ZM23.5904 2.57919C23.2582 4.16152 21.849 5.35552 20.1723 5.35552C18.4889 5.35552 17.0844 4.17488 16.7542 2.57919H23.5904ZM6.57851 14.2423L2.64433 10.914L6.26077 4.47676L11.4357 2.57926H14.402C14.7561 5.47463 17.2037 7.67893 20.1722 7.67893C23.1301 7.67893 25.5868 5.44706 25.9421 2.57926H28.5643L29.3514 2.86786L10.9197 26.7663V12.4204C10.9197 11.9383 10.6219 11.5064 10.1715 11.3348C9.72116 11.1634 9.21144 11.2876 8.89074 11.6475L6.57851 14.2423ZM13.0467 35.4211L29.0803 14.6322V35.4211H13.0467V35.4211ZM33.4214 14.2423L31.2555 11.8118L35.0766 6.85741L37.3556 10.914L33.4214 14.2423Z" fill="#16417D"/>
</svg>
