<svg width="1511" height="287" viewBox="0 0 1511 287" fill="none" xmlns="http://www.w3.org/2000/svg">
<g clip-path="url(#clip0_9589_46640)">
<path d="M358.064 284.483L357.328 7.45158L550.788 6.96252L550.927 61.9651L418.803 62.2565L418.974 125.292L532.163 125.011L532.313 179.608L419.112 179.899L419.39 284.286L358.064 284.483Z" fill="white"/>
<path d="M563.202 30.9976C563.202 13.3085 576.29 0.0417195 595.203 9.81205e-05C614.116 -0.0415232 627.344 13.1629 627.397 30.8311C627.45 48.4994 614.308 61.787 595.395 61.8286C576.482 61.8702 563.255 48.6867 563.202 30.9976ZM565.932 283.941L565.399 84.3874L625.082 84.2417L625.615 283.785L565.932 283.941Z" fill="white"/>
<path d="M635.382 84.2104L705.348 84.0335L737.595 136.549C739.665 140.566 742.15 144.572 744.22 149.379C746.673 144.561 749.137 140.534 751.185 136.518L783.56 83.8358L851.478 83.6693L783.816 181.407L854.934 283.212L784.958 283.389L749.329 228.064C746.875 224.188 744.663 220.172 742.705 216.036C740.768 220.178 738.581 224.205 736.155 228.095L700.495 283.597L633.057 283.764L703.151 183.977L635.382 84.2104Z" fill="white"/>
<path d="M873.64 220.121L873.405 129.376L843.356 129.459L843.238 83.6759H859.239C869.906 83.6759 873.224 79.6282 873.192 67.9846L873.106 34.2505L932.843 34.1049L932.928 67.4019C932.928 75.8303 931.734 79.8883 928.448 83.4678L994.713 83.3013L994.841 129.085L933.099 129.241L933.312 211.152C933.312 228.414 941.206 236.822 956.844 236.78C967.959 236.78 976.589 233.523 985.646 225.875L1003.05 268.381C987.854 280.867 968.525 286.944 945.889 286.996C898.932 287.111 873.757 263.48 873.64 220.121Z" fill="white"/>
<path d="M1009.42 204.131L1009.09 83.2834L1070.01 83.1273L1070.31 195.505C1070.39 223.204 1085.65 237.626 1107.06 237.574C1130.94 237.511 1146.53 221.008 1146.47 194.912L1146.14 82.9296L1207.06 82.7839L1207.58 282.327L1148.72 282.473L1148.65 255.575C1135.12 275.688 1114.16 286.572 1089.04 286.645C1045.45 286.749 1009.6 257.937 1009.42 204.131Z" fill="white"/>
<path d="M1236.81 282.25L1236.28 82.6963L1291.44 82.5611L1291.53 119.906C1300.94 96.5874 1319.42 80.48 1349.05 80.3655C1355.53 80.3414 1362.01 80.8636 1368.4 81.9263L1368.54 135.327C1360.71 132.132 1351.65 131.352 1342.61 131.373C1310.9 131.456 1296.14 151.143 1296.2 174.856L1296.49 282.031L1236.81 282.25Z" fill="white"/>
<path d="M1379.26 281.896L1378.73 82.3527L1433.88 82.2071L1433.98 119.552C1443.38 96.2439 1461.87 80.1364 1491.5 80.0115C1497.99 79.9874 1504.46 80.5096 1510.85 81.5723L1510.99 134.973C1503.16 131.778 1494.1 130.998 1485.05 131.029C1453.36 131.102 1438.59 150.799 1438.66 174.502L1438.94 281.677L1379.26 281.896Z" fill="white"/>
<path d="M1487.53 281.509C1500.19 281.509 1510.46 271.498 1510.46 259.148C1510.46 246.798 1500.19 236.787 1487.53 236.787C1474.87 236.787 1464.61 246.798 1464.61 259.148C1464.61 271.498 1474.87 281.509 1487.53 281.509Z" fill="white"/>
<path d="M28.7966 280.517C39.9901 280.517 49.0643 271.665 49.0643 260.746C49.0643 249.828 39.9901 240.976 28.7966 240.976C17.603 240.976 8.52887 249.828 8.52887 260.746C8.52887 271.665 17.603 280.517 28.7966 280.517Z" fill="white"/>
<path d="M94.9382 284.697C147.371 284.697 189.876 243.236 189.876 192.09C189.876 140.944 147.371 99.4823 94.9382 99.4823C42.5053 99.4823 0 140.944 0 192.09C0 243.236 42.5053 284.697 94.9382 284.697Z" fill="white"/>
<path d="M189.872 7.90662H103.468V194.162H189.872V7.90662Z" fill="white"/>
<path d="M216.557 7.90759V73.4612H313.629V7.90759H216.557Z" fill="white"/>
<path d="M216.557 98.4212V163.975H277.36V98.4212H216.557Z" fill="white"/>
<path d="M95.9977 252.396C127.811 252.396 153.601 227.24 153.601 196.207C153.601 165.175 127.811 140.019 95.9977 140.019C64.1845 140.019 38.3948 165.175 38.3948 196.207C38.3948 227.24 64.1845 252.396 95.9977 252.396Z" fill="white"/>
</g>
<defs>
<clipPath id="clip0_9589_46640">
<rect width="1511" height="287" fill="white"/>
</clipPath>
</defs>
</svg>
