<svg width="200" height="40" viewBox="0 0 200 40" fill="none" xmlns="http://www.w3.org/2000/svg">
<g clip-path="url(#clip0_6090_27426)">
<path d="M47.396 38.6606L47.2986 1.00982L72.9055 0.943359L72.9253 8.41837L55.437 8.46363L55.4582 17.0303L70.4403 16.9922L70.4601 24.4134L55.478 24.4516L55.5147 38.6394L47.396 38.6606Z" fill="white"/>
<path d="M74.5476 4.21267C74.5476 1.80868 76.2815 0.00709137 78.7834 2.07885e-05C81.2854 -0.00704979 83.0377 1.79029 83.0433 4.19146C83.0489 6.59263 81.3108 8.39704 78.8075 8.40411C76.3041 8.41118 74.5547 6.61384 74.5476 4.21267ZM74.9091 38.5927L74.8399 11.4699L82.7468 11.4487L82.816 38.5686L74.9091 38.5927Z" fill="white"/>
<path d="M84.1008 11.4412L93.3631 11.4171L97.6314 18.5542C97.9053 19.0986 98.2329 19.643 98.5068 20.2978C98.8329 19.6416 99.1577 19.0958 99.4288 18.5485L103.714 11.3903L112.704 11.3662L103.749 24.649L113.156 38.4847L103.893 38.5087L99.1888 30.9913C98.8641 30.4647 98.5718 29.9188 98.3134 29.3566C98.0568 29.9197 97.7668 30.467 97.445 30.9956L92.7249 38.537L83.7902 38.5611L93.0708 25.0039L84.1008 11.4412Z" fill="white"/>
<path d="M115.639 29.9159L115.607 17.5848L111.629 17.5947L111.614 11.3726H113.732C115.144 11.3726 115.583 10.8225 115.579 9.2401L115.566 4.65695L123.473 4.63574L123.485 9.16091C123.485 10.3063 123.326 10.8579 122.891 11.3457L131.663 11.3217L131.679 17.5438L123.507 17.565L123.536 28.6969C123.536 31.0429 124.58 32.187 126.643 32.1813C128.114 32.1813 129.258 31.7373 130.455 30.6979L132.758 36.4717C130.746 38.1687 128.187 38.9931 125.191 39.0016C118.986 39.0171 115.653 35.8099 115.639 29.9159Z" fill="white"/>
<path d="M133.612 27.7402L133.57 11.3167L141.632 11.2955L141.673 26.5679C141.681 30.3337 143.703 32.2923 146.535 32.2852C149.695 32.2767 151.76 30.0339 151.751 26.4873L151.712 11.2644L159.775 11.2432L159.846 38.3617L152.055 38.3829L152.045 34.726C150.254 37.4595 147.479 38.94 144.156 38.9485C138.38 38.9697 133.63 35.0569 133.612 27.7402Z" fill="white"/>
<path d="M163.713 38.3577L163.643 11.2392L170.944 11.2194L170.956 16.2946C172.202 13.127 174.647 10.938 178.571 10.921C179.429 10.9178 180.285 10.9887 181.131 11.1331L181.151 18.3904C180.114 17.9562 178.916 17.8502 177.717 17.8544C173.522 17.8643 171.566 20.5412 171.575 23.7626L171.613 38.328L163.713 38.3577Z" fill="white"/>
<path d="M182.564 38.3103L182.493 11.1904L189.795 11.172L189.807 16.2458C191.053 13.0782 193.498 10.8891 197.42 10.8722C198.279 10.8689 199.136 10.9399 199.982 11.0843L200.001 18.3415C198.965 17.9074 197.766 17.8013 196.568 17.8042C192.373 17.8155 190.417 20.491 190.426 23.7138L190.464 38.2792L182.564 38.3103Z" fill="white"/>
<path d="M196.895 38.2615C198.571 38.2615 199.929 36.9009 199.929 35.2225C199.929 33.5442 198.571 32.1836 196.895 32.1836C195.219 32.1836 193.861 33.5442 193.861 35.2225C193.861 36.9009 195.219 38.2615 196.895 38.2615Z" fill="#1FC1C3"/>
<path d="M3.8122 38.1217C5.29381 38.1217 6.49489 36.9188 6.49489 35.4349C6.49489 33.951 5.29381 32.748 3.8122 32.748C2.3306 32.748 1.12952 33.951 1.12952 35.4349C1.12952 36.9188 2.3306 38.1217 3.8122 38.1217Z" fill="white"/>
<path d="M12.5663 38.6879C19.5064 38.6879 25.1325 33.0531 25.1325 26.1022C25.1325 19.1514 19.5064 13.5166 12.5663 13.5166C5.62611 13.5166 0 19.1514 0 26.1022C0 33.0531 5.62611 38.6879 12.5663 38.6879Z" fill="white"/>
<path d="M25.1325 1.07227H13.6958V26.385H25.1325V1.07227Z" fill="white"/>
<path d="M28.6624 1.07154V9.98047H41.511V1.07154H28.6624Z" fill="#1FC1C3"/>
<path d="M28.6624 13.3743V22.2832H36.7104V13.3743H28.6624Z" fill="#1FC1C3"/>
<path d="M12.7075 34.3037C16.9184 34.3037 20.332 30.8848 20.332 26.6675C20.332 22.4501 16.9184 19.0312 12.7075 19.0312C8.4966 19.0312 5.08301 22.4501 5.08301 26.6675C5.08301 30.8848 8.4966 34.3037 12.7075 34.3037Z" fill="white"/>
</g>
<defs>
<clipPath id="clip0_6090_27426">
<rect width="200" height="39.0041" fill="white"/>
</clipPath>
</defs>
</svg>
