<svg width="678" height="174" viewBox="0 0 678 174" fill="none" xmlns="http://www.w3.org/2000/svg">
<path fill-rule="evenodd" clip-rule="evenodd" d="M119.856 93.5058C120.574 94.0358 121.281 94.5903 121.976 95.1694C140.907 110.957 143.313 139.081 127.351 157.987C111.389 176.892 83.1032 179.421 64.1725 163.633C45.2418 147.846 42.8352 119.722 58.7971 100.816C59.4402 100.055 60.1034 99.3193 60.7851 98.6109L109.132 41.3467L141.267 68.1451L119.856 93.5058ZM104.157 138.23C109.131 132.303 108.381 123.486 102.483 118.537C96.5844 113.588 87.7714 114.381 82.7982 120.307C77.825 126.234 78.5748 135.051 84.473 140C90.3712 144.949 99.1842 144.157 104.157 138.23Z" fill="white"/>
<path d="M198.788 154.082V109.491H247.22V86.9919H198.788V59.9276H252.456V37.1837H174V154.082H198.788Z" fill="white"/>
<path d="M264.073 41.9118C264.073 46.0693 265.464 49.4931 268.327 52.1832C271.108 54.8734 274.626 56.2592 278.799 56.2592C282.971 56.2592 286.489 54.8734 289.352 52.1832C292.134 49.4931 293.524 46.0693 293.524 41.9118C293.524 37.6728 292.134 34.249 289.352 31.5589C286.571 28.8688 283.053 27.5645 278.799 27.5645C274.544 27.5645 271.027 28.8688 268.245 31.5589C265.464 34.249 264.073 37.6728 264.073 41.9118ZM290.661 154.082V72.4815H267.263V154.082H290.661Z" fill="white"/>
<path d="M328.866 154.082L345.965 126.692L363.39 154.082H390.387L363.063 112.181L388.506 72.4815H361.917L346.292 97.997L330.584 72.4815H303.751L329.521 112.018L301.869 154.082H328.866Z" fill="white"/>
<path d="M408.14 91.8016V130.034C408.14 149.028 420.984 156.609 435.792 156.609C440.946 156.609 445.609 155.957 449.863 154.734V134.518C447.163 135.251 444.873 135.577 443.155 135.577C435.383 135.577 431.538 131.909 431.538 124.572V91.8016H449.863V72.4815H431.538V41.9118L408.958 50.2268V72.4815H394.232V91.8016H408.14Z" fill="white"/>
<path d="M464.425 126.855C464.425 132.969 465.898 138.349 468.761 142.996C474.57 152.289 483.896 156.772 494.368 156.772C503.285 156.772 510.975 153.675 517.356 147.561V154.082H540.427V72.4815H517.029V126.855C512.857 132.48 507.703 135.251 501.567 135.251C493.468 135.251 487.823 129.708 487.823 120.985V72.4815H464.425V126.855Z" fill="white"/>
<path d="M583.295 154.082V106.801C584.359 102.888 586.649 99.6274 590.249 97.0188C593.849 94.4102 597.857 93.1059 602.357 93.1059C605.629 93.1059 608.493 93.432 610.947 94.0026V70.2805C608.984 69.9544 606.938 69.7914 604.893 69.7914C594.667 69.7914 586.977 75.0901 582.968 84.3018V72.4815H559.816V154.082H583.295Z" fill="white"/>
<path d="M649.398 154.082V106.801C650.461 102.888 652.752 99.6274 656.352 97.0188C659.951 94.4102 663.96 93.1059 668.459 93.1059C671.732 93.1059 674.595 93.432 677.049 94.0026V70.2805C675.086 69.9544 673.041 69.7914 670.996 69.7914C660.769 69.7914 653.079 75.0901 649.07 84.3018V72.4815H625.918V154.082H649.398Z" fill="white"/>
<path d="M10.3566 58.9015C-5.35681 77.7093 -2.91424 105.75 15.8123 121.531L35.1425 137.822C28.7667 123.806 31.7496 104.913 44.0254 90.2202C44.7285 89.3786 45.4504 88.5648 46.1894 87.7791L94.7525 29.6524L59.567 0L10.3566 58.9015Z" fill="white"/>
</svg>
