<svg width="160" height="30" viewBox="0 0 160 30" fill="none" xmlns="http://www.w3.org/2000/svg">
<path d="M37.9153 29.7369L37.8374 0.778904L58.323 0.727783L58.3376 6.47719L44.347 6.50764L44.3651 13.0967L56.3508 13.0674L56.3666 18.7743L44.3798 18.8048L44.4091 29.7163L37.9153 29.7369Z" fill="white"/>
<path d="M59.6377 3.24017C59.6377 1.39114 61.0237 0.00436092 63.0264 1.02565e-05C65.029 -0.00434041 66.4297 1.37591 66.4353 3.22276C66.441 5.06962 65.0494 6.45857 63.0467 6.46292C61.044 6.46727 59.6433 5.0892 59.6377 3.24017ZM59.9269 29.6802L59.8704 8.82098L66.1902 8.80575L66.2467 29.6639L59.9269 29.6802Z" fill="white"/>
<path d="M67.2809 8.80247L74.6896 8.78398L78.1043 14.2734C78.3234 14.6933 78.5866 15.112 78.8057 15.6145C79.0655 15.1109 79.3264 14.69 79.5433 14.2702L82.9715 8.76331L90.1634 8.74591L82.9986 18.9624L90.5293 29.6041L83.1195 29.6226L79.3468 23.8394C79.0869 23.4343 78.8527 23.0144 78.6453 22.5821C78.4402 23.0151 78.2086 23.4361 77.9518 23.8427L74.1757 29.6443L67.0347 29.6617L74.457 19.231L67.2809 8.80247Z" fill="white"/>
<path d="M92.5098 23.0091L92.4849 13.5236L89.303 13.5323L89.2905 8.74658H90.9849C92.1144 8.74658 92.4657 8.32348 92.4623 7.10638L92.4533 3.58017L98.7788 3.56494L98.7878 7.04547C98.7878 7.92648 98.6613 8.35067 98.3134 8.72483L105.33 8.70742L105.344 13.4932L98.8059 13.5095L98.8285 22.0716C98.8285 23.876 99.6643 24.7548 101.32 24.7505C102.497 24.7505 103.411 24.4101 104.37 23.6106L106.213 28.0537C104.604 29.3589 102.557 29.9941 100.16 29.9996C95.1879 30.0115 92.5222 27.5414 92.5098 23.0091Z" fill="white"/>
<path d="M106.888 21.3377L106.853 8.70559L113.304 8.68928L113.336 20.4361C113.343 23.3314 114.96 24.8389 117.227 24.8335C119.755 24.827 121.406 23.1019 121.399 20.3741L121.364 8.66861L127.815 8.65338L127.871 29.5116L121.638 29.5268L121.631 26.7152C120.198 28.8176 117.978 29.9553 115.319 29.9629C110.703 29.9738 106.906 26.9621 106.888 21.3377Z" fill="white"/>
<path d="M130.966 29.5035L130.909 8.64423L136.75 8.63009L136.76 12.5337C137.757 10.0963 139.713 8.41256 142.851 8.4006C143.537 8.39807 144.223 8.45266 144.9 8.56375L144.915 14.1456C144.085 13.8117 143.126 13.7302 142.169 13.7323C138.812 13.741 137.248 15.7989 137.255 18.2777L137.286 29.4807L130.966 29.5035Z" fill="white"/>
<path d="M146.05 29.4664L145.994 8.60827L151.833 8.59304L151.845 12.4967C152.84 10.0603 154.797 8.3766 157.935 8.36355C158.622 8.36102 159.307 8.41561 159.984 8.5267L159.999 14.1086C159.17 13.7747 158.211 13.6931 157.252 13.6964C153.896 13.704 152.333 15.7629 152.339 18.2406L152.37 29.4436L146.05 29.4664Z" fill="white"/>
<path d="M157.515 29.426C158.855 29.426 159.942 28.3795 159.942 27.0886C159.942 25.7977 158.855 24.7512 157.515 24.7512C156.174 24.7512 155.087 25.7977 155.087 27.0886C155.087 28.3795 156.174 29.426 157.515 29.426Z" fill="#1FC1C3"/>
<path d="M3.04947 29.3223C4.23476 29.3223 5.19562 28.3971 5.19562 27.2557C5.19562 26.1144 4.23476 25.1891 3.04947 25.1891C1.86418 25.1891 0.90332 26.1144 0.90332 27.2557C0.90332 28.3971 1.86418 29.3223 3.04947 29.3223Z" fill="white"/>
<path d="M10.053 29.7593C15.6051 29.7593 20.106 25.4253 20.106 20.0791C20.106 14.7328 15.6051 10.3989 10.053 10.3989C4.50089 10.3989 0 14.7328 0 20.0791C0 25.4253 4.50089 29.7593 10.053 29.7593Z" fill="white"/>
<path d="M20.1054 0.826477H10.9561V20.2957H20.1054V0.826477Z" fill="white"/>
<path d="M22.9312 0.826603V7.67889L33.2101 7.67889V0.826603L22.9312 0.826603Z" fill="#1FC1C3"/>
<path d="M22.9312 10.2879V17.1402H29.3696V10.2879H22.9312Z" fill="#1FC1C3"/>
<path d="M10.165 26.3829C13.5337 26.3829 16.2646 23.7533 16.2646 20.5095C16.2646 17.2657 13.5337 14.6361 10.165 14.6361C6.79631 14.6361 4.06543 17.2657 4.06543 20.5095C4.06543 23.7533 6.79631 26.3829 10.165 26.3829Z" fill="white"/>
</svg>
