<svg width="52" height="52" viewBox="0 0 52 52" fill="none" xmlns="http://www.w3.org/2000/svg">
<path d="M25.9776 9.88517e-06C11.6269 0.0123968 0 11.6493 0 26C0.0246689 40.358 11.6644 51.9877 26.0224 52C40.3818 51.9876 52.0123 40.3371 52 25.9777C51.9876 11.6182 40.3371 -0.0123771 25.9776 9.88517e-06ZM25.9776 49.7605C12.8637 49.7482 2.23941 39.1138 2.23941 26C2.26408 12.8789 12.9013 2.25181 26.0224 2.23942C39.145 2.25181 49.7729 12.8998 49.7605 26.0224C49.7481 39.145 39.1001 49.7729 25.9776 49.7605Z" fill="#94A3B8"/>
<path d="M27.9932 15.7435H24.1638C21.5425 15.6817 19.3673 17.7565 19.3055 20.3778C19.3047 20.4082 19.3043 20.4385 19.3042 20.4687V36.2793H21.5436V27.12H30.5014V36.257H32.7408V20.4688C32.7285 17.8555 30.6066 15.7435 27.9932 15.7435ZM30.5014 24.9477H21.5436V20.4016C21.5434 19.0287 22.6561 17.9156 24.029 17.9153C24.044 17.9153 24.0591 17.9154 24.0741 17.9158H27.814C29.1957 17.8166 30.3962 18.8561 30.4955 20.2378C30.5011 20.3146 30.5029 20.3917 30.5014 20.4687V24.9477Z" fill="#94A3B8"/>
</svg>
