<svg width="52" height="52" viewBox="0 0 52 52" fill="none" xmlns="http://www.w3.org/2000/svg">
<path d="M41.1669 49.8325H32.5002C31.9256 49.8325 31.3745 49.6042 30.9681 49.1979C30.5618 48.7916 30.3335 48.2404 30.3335 47.6658V37.9158C30.3335 37.6285 30.2194 37.3529 30.0162 37.1498C29.8131 36.9466 29.5375 36.8325 29.2502 36.8325H22.7502C22.4629 36.8325 22.1873 36.9466 21.9842 37.1498C21.781 37.3529 21.6669 37.6285 21.6669 37.9158V47.6658C21.6669 48.2404 21.4386 48.7916 21.0323 49.1979C20.6259 49.6042 20.0748 49.8325 19.5002 49.8325H10.8335C9.8857 49.8429 8.97244 49.4769 8.29411 48.8148C7.61578 48.1527 7.22776 47.2486 7.2152 46.3008V30.3108H6.91186C6.0129 30.3847 5.11141 30.202 4.31213 29.784C3.51286 29.3659 2.8486 28.7297 2.39653 27.9491C2.17912 27.4581 2.11553 26.9126 2.21416 26.3847C2.31278 25.8568 2.56898 25.3711 2.94903 24.9916L22.0135 3.89914C22.5367 3.3757 23.1578 2.96047 23.8415 2.67717C24.5252 2.39386 25.258 2.24805 25.998 2.24805C26.7381 2.24805 27.4709 2.39386 28.1546 2.67717C28.8382 2.96047 29.4594 3.3757 29.9825 3.89914L49.0492 24.9873C49.428 25.3663 49.6831 25.851 49.7809 26.3778C49.8788 26.9046 49.8148 27.4486 49.5974 27.9383C49.1462 28.7201 48.4823 29.3576 47.6829 29.7769C46.8836 30.1961 45.9817 30.3798 45.082 30.3065H44.7787V46.2965C44.7673 47.2439 44.3807 48.1481 43.7036 48.811C43.0266 49.4738 42.1143 49.8412 41.1669 49.8325ZM22.7502 34.6658H29.2502C30.1122 34.6658 30.9388 35.0082 31.5483 35.6177C32.1578 36.2272 32.5002 37.0539 32.5002 37.9158V47.6658H41.1669C41.5401 47.6763 41.9023 47.5386 42.1744 47.2829C42.4464 47.0271 42.6061 46.674 42.6185 46.3008V28.1441H45.0885C46.5077 28.1441 47.5152 27.6718 47.6214 27.0608C47.6471 26.8395 47.5865 26.6168 47.4524 26.439L28.3835 5.35948C27.7486 4.73282 26.8923 4.38147 26.0002 4.38147C25.1081 4.38147 24.2518 4.73282 23.6169 5.35948L4.5502 26.4325C4.41341 26.6108 4.35126 26.8353 4.37686 27.0586C4.48303 27.661 5.48836 28.142 6.9097 28.142H9.38186V46.2986C9.39376 46.6722 9.5532 47.0258 9.82529 47.2821C10.0974 47.5383 10.4599 47.6763 10.8335 47.6658H19.5002V37.9158C19.5002 37.0539 19.8426 36.2272 20.4521 35.6177C21.0616 35.0082 21.8882 34.6658 22.7502 34.6658Z" fill="#94A3B8"/>
</svg>
