<svg width="40" height="40" viewBox="0 0 40 40" fill="none" xmlns="http://www.w3.org/2000/svg">
<path d="M33.3332 38.3332H6.66646C5.34062 38.3332 4.06885 37.7858 3.13108 36.8113C2.19331 35.8368 1.66653 34.5152 1.66653 33.1375V20.7183C1.66234 19.339 2.18996 18.0155 3.13165 17.043L16.465 3.18752C17.4025 2.21332 18.674 1.6665 19.9998 1.6665C21.3257 1.6665 22.5972 2.21362 23.5346 3.18781L36.868 17.0433C37.8097 18.0157 38.3373 19.339 38.3331 20.7183V33.1375C38.3331 34.5152 37.8064 35.8368 36.8686 36.8113C35.9308 37.7858 34.6591 38.3332 33.3332 38.3332ZM19.9998 5.13115C19.5582 5.13086 19.1344 5.31265 18.8216 5.63681L5.48819 19.4923C5.17514 19.8173 4.99964 20.2585 4.99992 20.7184V33.1377C4.99992 33.5969 5.17541 34.0373 5.48819 34.3621C5.80068 34.6871 6.22453 34.8694 6.66646 34.8694H33.3332C33.7752 34.8694 34.199 34.6871 34.5115 34.3621C34.8243 34.0373 34.9998 33.5969 34.9998 33.1377V20.7184C35 20.2586 34.8245 19.8173 34.5115 19.4923L21.1781 5.63681C20.8653 5.31265 20.4415 5.13086 19.9998 5.13115Z" fill="#94A3B8"/>
<path d="M23.334 30.37H16.6667C16.0713 30.37 15.521 30.0524 15.2233 29.5368C14.9256 29.0211 14.9256 28.3855 15.2233 27.8698C15.521 27.3541 16.0713 27.0366 16.6667 27.0366H23.334C23.9294 27.0366 24.4797 27.3542 24.7774 27.8698C25.0751 28.3855 25.0751 29.0211 24.7774 29.5368C24.4797 30.0524 23.9294 30.37 23.334 30.37Z" fill="#94A3B8"/>
</svg>
