<svg width="52" height="52" viewBox="0 0 52 52" fill="none" xmlns="http://www.w3.org/2000/svg">
<path d="M25.9777 0C11.6182 0.012387 -0.0123771 11.6631 9.88517e-06 26.0224C0.0123968 40.3818 11.663 52.0123 26.0224 52C40.3731 51.9876 52 40.3507 52 26C51.9753 11.6421 40.3355 0.012282 25.9777 0ZM25.9777 49.7606V49.7829C12.855 49.7706 2.22714 39.1226 2.23953 26C2.25192 12.8774 12.8999 2.24949 26.0225 2.26188C39.1276 2.27427 49.7482 12.8949 49.7606 26C49.7359 39.1211 39.0987 49.7482 25.9777 49.7606Z" fill="#94A3B8"/>
<path d="M31.8463 15.7001C31.7248 15.6952 31.6035 15.7101 31.4869 15.7443C30.8685 15.7443 30.3671 16.2457 30.3671 16.8641V31.1293L21.4989 16.2818L21.3422 16.1026L21.163 15.9906H20.9614H20.7375H20.3792H20.1552H19.9313L19.7521 16.1473L19.6401 16.3265V16.5281C19.6323 16.6025 19.6323 16.6776 19.6401 16.752C19.6372 16.7967 19.6372 16.8416 19.6401 16.8863V35.1826C19.6401 35.801 20.1415 36.3024 20.7599 36.3024C21.3783 36.3024 21.8796 35.801 21.8796 35.1826V20.8725L30.8374 35.7201C31.0418 36.0559 31.4073 36.2599 31.8003 36.2575H32.0914C32.5781 36.1265 32.9171 35.6866 32.92 35.1826V16.864C32.9449 16.2461 32.4642 15.725 31.8463 15.7001Z" fill="#94A3B8"/>
</svg>
