<svg width="24" height="24" viewBox="-3 -3 30 30" fill="none" xmlns="http://www.w3.org/2000/svg">
<path d="M12 23C14.9174 23 17.7152 21.8411 19.7782 19.7782C21.8411 17.7153 23 14.9172 23 12C23 9.08276 21.8411 6.28479 19.7782 4.22179C17.7153 2.15888 14.9172 1 12 1C9.08276 1 6.28479 2.15888 4.22179 4.22179C2.15888 6.2847 1 9.08276 1 12C1.00331 14.9164 2.16331 17.7124 4.22547 19.7744C6.28762 21.8366 9.08361 22.9966 11.9999 22.9999L12 23ZM12 2.09986C14.6257 2.09986 17.1438 3.14291 19.0003 4.99956C20.857 6.85622 21.9 9.37434 21.9 11.9999C21.9 14.6255 20.857 17.1437 19.0003 19.0002C17.1437 20.8569 14.6256 21.9 12 21.9C9.37443 21.9 6.85617 20.8569 4.99966 19.0002C3.143 17.1436 2.09995 14.6255 2.09995 11.9999C2.10308 9.37514 3.14706 6.8589 5.00296 5.00286C6.85904 3.14696 9.37533 2.10297 12 2.09986Z" fill="#64748B"/>
<path d="M15.8503 7.04992C15.8503 9.17618 14.1264 10.9 12.0001 10.9C9.87387 10.9 8.15002 9.17618 8.15002 7.04992C8.15002 4.92365 9.87387 3.1998 12.0001 3.1998C14.1264 3.1998 15.8503 4.92365 15.8503 7.04992Z" fill="#64748B"/>
<path d="M12 20.2501C13.3272 20.2534 14.6354 19.9354 15.8129 19.3229C16.9904 18.7104 18.002 17.822 18.7612 16.7333C19.1214 16.2252 19.2503 15.5888 19.1163 14.9805C18.9822 14.3724 18.5977 13.8491 18.0572 13.5395C16.2029 12.5169 14.1174 11.9869 12.0002 12C9.88258 11.9871 7.79724 12.5173 5.94318 13.5401C5.40286 13.8496 5.01836 14.373 4.88447 14.9813C4.75041 15.5893 4.87913 16.2258 5.23915 16.7339C5.9984 17.8224 7.00996 18.7108 8.18746 19.3231C9.36497 19.9356 10.6732 20.2536 12.0004 20.2501H12Z" fill="#64748B"/>
</svg>
