<svg width="40" height="40" viewBox="0 0 40 40" fill="none" xmlns="http://www.w3.org/2000/svg">
<path fill-rule="evenodd" clip-rule="evenodd" d="M4.5182 1.66682C3.75092 1.67812 3.01949 1.98499 2.4848 2.52019C1.95011 3.05539 1.65585 3.77529 1.6668 4.52133V35.4787C1.65581 36.2322 1.95594 36.958 2.49997 37.4945C3.044 38.031 3.78678 38.3332 4.56149 38.3332C5.33653 38.3332 6.07896 38.031 6.623 37.4945C7.16704 36.958 7.46717 36.2322 7.45617 35.4787V4.52133C7.46748 3.76059 7.16154 3.02814 6.60811 2.49036C6.05438 1.95232 5.30062 1.65548 4.51815 1.66682H4.5182Z" fill="#94A3B8"/>
<path fill-rule="evenodd" clip-rule="evenodd" d="M12.2371 9.17139C11.4698 9.18269 10.7384 9.48956 10.2037 10.0248C9.66905 10.5603 9.37502 11.2799 9.38604 12.0262V27.0361V27.0358C9.37506 27.7893 9.67519 28.5151 10.2192 29.0516C10.7633 29.5881 11.5057 29.8903 12.2807 29.8903C13.0554 29.8903 13.7982 29.5881 14.3422 29.0516C14.8863 28.5151 15.1864 27.7893 15.1754 27.0358V12.0267C15.1864 11.266 14.8805 10.5332 14.327 9.99542C13.7736 9.45765 13.0195 9.16054 12.2371 9.17188L12.2371 9.17139Z" fill="#94A3B8"/>
<path fill-rule="evenodd" clip-rule="evenodd" d="M27.6754 9.17139C26.9081 9.18269 26.1767 9.48956 25.642 10.0248C25.1074 10.5603 24.8131 11.2799 24.824 12.0262V27.0361V27.0358C24.813 27.7893 25.1132 28.5151 25.6572 29.0516C26.2012 29.5881 26.944 29.8903 27.7187 29.8903C28.4938 29.8903 29.2362 29.5881 29.7802 29.0516C30.3243 28.5152 30.6244 27.7893 30.6134 27.0358V12.0267C30.6247 11.266 30.3188 10.5332 29.7653 9.99542C29.2116 9.45769 28.4578 9.16054 27.6754 9.17188L27.6754 9.17139Z" fill="#94A3B8"/>
<path fill-rule="evenodd" clip-rule="evenodd" d="M19.9567 1.66682C19.1894 1.67812 18.458 1.98499 17.9233 2.52019C17.3886 3.05539 17.0943 3.77529 17.1053 4.52133V35.4787C17.0943 36.2322 17.3944 36.958 17.9384 37.4945C18.4825 38.031 19.2249 38.3332 20 38.3332C20.775 38.3332 21.5174 38.031 22.0615 37.4945C22.6055 36.958 22.9057 36.2322 22.8947 35.4787V4.52133C22.906 3.76059 22.6 3.02814 22.0463 2.49036C21.4928 1.95232 20.7391 1.65548 19.9566 1.66682H19.9567Z" fill="#94A3B8"/>
<path fill-rule="evenodd" clip-rule="evenodd" d="M35.3943 1.66682C34.6271 1.67812 33.8956 1.98499 33.3609 2.52019C32.8263 3.05541 32.5322 3.77529 32.5433 4.52133V35.4787C32.5323 36.2322 32.8324 36.958 33.3764 37.4945C33.9205 38.031 34.6629 38.3332 35.438 38.3332C36.2127 38.3332 36.9554 38.031 37.4995 37.4945C38.0435 36.958 38.3436 36.2322 38.3326 35.4787V4.52133C38.3436 3.76059 38.0377 3.02814 37.4842 2.49036C36.9308 1.95232 36.1768 1.65548 35.3943 1.66682H35.3943Z" fill="#94A3B8"/>
</svg>
