<svg width="60" height="60" viewBox="0 0 60 60" fill="none" xmlns="http://www.w3.org/2000/svg">
<path d="M59.0621 35.8365L52.4518 27.5735C52.2165 27.2797 51.8607 27.1083 51.4844 27.1087H41.1557L41.1553 23.1359C41.1553 22.7158 40.9423 22.3243 40.5896 22.0957L31.2396 16.0421V9.75629H39.916C40.4174 9.75629 40.8692 9.45405 41.0612 8.9911C41.2532 8.52815 41.1469 7.99466 40.7924 7.64069L38.3634 5.21164L40.7924 2.78259C41.1469 2.42812 41.2531 1.89508 41.0612 1.43218C40.8692 0.968778 40.4174 0.666992 39.916 0.666992H30.0003C29.3159 0.666992 28.761 1.22191 28.761 1.90632V16.0424L19.4109 22.0961C19.0583 22.3247 18.8453 22.7162 18.8453 23.1363V27.1087L8.51619 27.1091C8.13984 27.1087 7.78404 27.2801 7.54877 27.5739L0.938428 35.8369C0.640654 36.2088 0.582619 36.7186 0.789318 37.1481C0.995571 37.5776 1.42951 37.8508 1.90584 37.8512H3.97146L3.97191 58.096C3.97191 58.7804 4.52683 59.3353 5.21123 59.3353H54.7888C55.4732 59.3353 56.0281 58.7804 56.0286 58.096V37.8512H58.0942C58.5706 37.8508 59.0045 37.5776 59.2112 37.1481C59.4174 36.7186 59.3594 36.2088 59.0616 35.8369L59.0621 35.8365ZM50.8888 29.5873L55.5156 35.3713L41.1555 35.3717V29.5878L50.8888 29.5873ZM35.7344 6.08768L36.9237 7.27695H31.2397V3.14525H36.9237L35.7344 4.33452C35.5018 4.56712 35.3714 4.8823 35.3714 5.21132C35.3714 5.53989 35.5018 5.85507 35.7344 6.08767V6.08768ZM9.11129 29.5873H18.8444V35.3713H4.48428L9.11129 29.5873ZM6.45012 37.8504H18.8445V56.8551H6.45012V37.8504ZM32.0652 56.8551H27.934V46.5264C27.934 45.7885 28.3277 45.1063 28.9666 44.7376C29.6059 44.3684 30.3933 44.3684 31.0327 44.7376C31.6715 45.1064 32.0653 45.7885 32.0653 46.5264L32.0652 56.8551ZM34.5442 56.8551V46.5264C34.5442 44.9028 33.6781 43.4023 32.2718 42.5906C30.8655 41.7786 29.1334 41.7786 27.7271 42.5906C26.3208 43.4023 25.4548 44.9027 25.4548 46.5264V56.8551H21.3231V23.8091L29.9995 18.1921L38.6759 23.8091V56.8551H34.5442ZM53.5489 56.8551H41.1545V37.8504H53.5489V56.8551Z" fill="#1FC1C3"/>
</svg>
