<svg width="40" height="40" viewBox="0 0 40 40" fill="none" xmlns="http://www.w3.org/2000/svg">
<path d="M20 0C11.5512 0 0 6.38583 0 20C0 33.2677 11.1102 40 20 40C35.252 40 40 26.6378 40 20C40 10.2047 32.5039 0 20 0ZM15.3622 1.88189C13.2756 3.66142 11.5433 6.6063 10.4252 10.2598C8.97638 9.40158 7.64567 8.33858 6.46457 7.10236C8.90551 4.54331 11.9921 2.74803 15.3622 1.88189ZM5.6063 8.06299C6.92913 9.44094 8.43307 10.6142 10.0709 11.5433C9.45669 13.9291 9.09449 16.5748 9.04724 19.3543H1.30709C1.44882 15.2047 2.96063 11.2441 5.6063 8.06299ZM5.6063 31.937C2.95276 28.7559 1.44882 24.7953 1.30709 20.6457H9.04724C9.09449 23.4331 9.45669 26.0709 10.0709 28.4567C8.44094 29.3937 6.93701 30.5591 5.6063 31.937ZM6.46457 32.9055C7.64567 31.6693 8.97638 30.6063 10.4252 29.748C11.5433 33.3937 13.2756 36.3465 15.3622 38.126C11.9921 37.252 8.90551 35.4567 6.46457 32.9055ZM19.3543 38.6614C16 38.2362 13.1102 34.4882 11.5512 29.1181C13.9606 27.8976 16.622 27.2126 19.3543 27.1102V38.6614ZM19.3543 25.8268C16.5039 25.9213 13.7323 26.622 11.2205 27.8504C10.6929 25.6457 10.378 23.2126 10.3307 20.6457H19.3543V25.8268ZM19.3543 19.3543H10.3307C10.378 16.7874 10.6929 14.3543 11.2205 12.1496C13.7402 13.378 16.5118 14.0787 19.3543 14.1732V19.3543ZM19.3543 12.8898C16.6142 12.7953 13.9606 12.1024 11.5512 10.8819C13.1102 5.50394 16 1.76378 19.3543 1.33858V12.8898ZM34.3937 8.06299C37.0394 11.2441 38.5512 15.2047 38.6929 19.3543H30.9606C30.9134 16.5669 30.5512 13.9291 29.937 11.5433C31.5669 10.6063 33.0709 9.44094 34.3937 8.06299ZM33.5354 7.09449C32.3543 8.33071 31.0236 9.3937 29.5748 10.252C28.4567 6.6063 26.7244 3.66142 24.6378 1.87402C28.0079 2.74803 31.0945 4.54331 33.5354 7.09449ZM20.6457 1.33858C24 1.76378 26.8898 5.51181 28.4488 10.8819C26.0394 12.1024 23.3858 12.7874 20.6457 12.8898V1.33858ZM20.6457 14.1732C23.4961 14.0787 26.2677 13.378 28.7795 12.1496C29.3071 14.3543 29.622 16.7874 29.6693 19.3543H20.6457V14.1732ZM20.6457 20.6457H29.6693C29.622 23.2126 29.3071 25.6457 28.7795 27.8504C26.2677 26.6142 23.4961 25.9134 20.6457 25.8268V20.6457ZM20.6457 38.6614V27.1102C23.3858 27.2047 26.0394 27.8976 28.4488 29.1181C26.8898 34.4961 24 38.2362 20.6457 38.6614ZM24.6378 38.1181C26.7244 36.3386 28.4567 33.3937 29.5748 29.7402C31.0236 30.5984 32.3543 31.6614 33.5354 32.8976C31.0945 35.4567 28.0079 37.252 24.6378 38.1181ZM34.3937 31.937C33.0709 30.5591 31.5669 29.3937 29.937 28.4567C30.5512 26.0709 30.9134 23.4252 30.9606 20.6457H38.6929C38.5512 24.7953 37.0394 28.7559 34.3937 31.937Z" fill="#8c929a"/>
</svg>
