<svg width="40" height="40" viewBox="0 0 40 40" fill="none" xmlns="http://www.w3.org/2000/svg">
<path d="M34.1422 5.85785C30.3647 2.08038 25.3424 0 20.0003 0H19.9997C14.6576 0 9.63531 2.08038 5.85785 5.85785C2.08038 9.63531 0 14.6579 0 20C0 25.3421 2.08038 30.3647 5.85785 34.1422C9.63531 37.9196 14.6579 40 20 40C25.3421 40 30.3647 37.9196 34.1422 34.1422C37.9196 30.3647 40 25.3421 40 20C40 14.6579 37.9196 9.63531 34.1422 5.85785ZM35.4486 28.5403H29.595C30.3793 26.2424 30.8517 23.7543 30.9619 21.1719H37.6163C37.4414 23.8306 36.6754 26.33 35.4486 28.5403ZM20 37.4829C17.5055 35.9985 15.4367 33.6978 13.9487 30.8841H26.0513C24.5633 33.6978 22.4945 35.9985 20 37.4829ZM12.8894 28.5403C12.0276 26.2793 11.5051 23.7827 11.3843 21.1719H28.6157C28.4949 23.7827 27.9721 26.2793 27.1103 28.5403H12.8894ZM2.38373 21.1719H9.03809C9.14825 23.7543 9.62067 26.2424 10.405 28.5403H4.55139C3.32458 26.33 2.55859 23.8306 2.38373 21.1719ZM4.55139 11.4597H10.405C9.62067 13.7576 9.14825 16.2457 9.03809 18.8281H2.38373C2.55859 16.1694 3.32458 13.67 4.55139 11.4597ZM20 2.51709C22.4945 4.00146 24.5633 6.30219 26.0513 9.11591H13.9487C15.4367 6.30219 17.5055 4.00146 20 2.51709ZM27.1106 11.4597C27.9724 13.7207 28.4949 16.2173 28.6157 18.8281H11.3843C11.5051 16.2173 12.0279 13.7207 12.8897 11.4597H27.1106ZM37.6163 18.8281H30.9619C30.8517 16.2457 30.3793 13.7576 29.595 11.4597H35.4486C36.6754 13.67 37.4414 16.1694 37.6163 18.8281ZM28.6566 9.11591C27.5427 6.7099 26.0608 4.58374 24.2816 2.86987C28.1433 3.83545 31.506 6.07513 33.8934 9.11591H28.6566ZM15.7184 2.86987C13.9392 4.58374 12.4573 6.7099 11.3434 9.11591H6.10657C8.49396 6.07513 11.8567 3.83545 15.7184 2.86987ZM11.3434 30.8841C12.4573 33.2901 13.9392 35.4163 15.7184 37.1301C11.8567 36.1646 8.49396 33.9249 6.10657 30.8841H11.3434ZM24.2816 37.1301C26.0608 35.4163 27.5427 33.2898 28.6566 30.8841H33.8934C31.506 33.9249 28.1433 36.1646 24.2816 37.1301Z" fill="#94A3B8"/>
</svg>
