<svg width="40" height="40" viewBox="0 0 40 40" fill="none" xmlns="http://www.w3.org/2000/svg">
<path d="M34.1592 19.0701C34.2551 18.1826 34.3038 17.2792 34.3038 16.3788V8.93899C34.3038 8.17915 33.8386 7.50783 33.119 7.22877C30.2877 6.12917 28.0179 3.91567 26.8916 1.15593C26.605 0.453746 25.9287 0 25.1687 0H9.13521C8.37521 0 7.69889 0.453746 7.41225 1.15593C6.28601 3.91567 4.01618 6.12917 1.18511 7.22862C0.465275 7.50783 0.00012207 8.17915 0.00012207 8.93899V16.3788C0.00012207 21.8462 1.76308 27.0457 5.09836 31.4154C7.96459 35.1708 12.0056 38.1753 16.4761 39.8752C16.6941 39.9584 16.9231 40 17.1521 40C17.3808 40 17.6096 39.9584 17.827 39.8754C19.3082 39.312 20.7457 38.6055 22.1078 37.7761C23.9888 39.1707 26.298 39.9997 28.8129 39.9997C34.8863 39.9997 39.9998 35.0396 39.9998 28.8563C39.9998 24.6394 37.6361 20.9623 34.1592 19.0701ZM17.4098 38.7805C17.2434 38.844 17.0604 38.844 16.8934 38.7802C12.6235 37.1566 8.76544 34.2886 6.03 30.7044C2.8519 26.5407 1.17207 21.587 1.17207 16.3788V8.93899C1.17207 8.66665 1.34355 8.42415 1.60917 8.32111C4.73923 7.10549 7.24991 4.6552 8.49724 1.59874C8.6031 1.33944 8.85357 1.17187 9.13528 1.17187H25.1688C25.4504 1.17187 25.7009 1.33944 25.8067 1.59874C27.0541 4.65528 29.5647 7.10549 32.6951 8.32126C32.9605 8.42415 33.132 8.66665 33.132 8.93899V16.3788C33.132 17.1 33.0989 17.8231 33.0343 18.5374C31.731 18.0064 30.3058 17.7128 28.8129 17.7128C26.8658 17.7128 25.0336 18.2113 23.4374 19.0863C23.4326 17.9918 22.4937 17.166 21.4133 17.2467V14.6311C21.4133 12.298 19.5152 10.3999 17.1821 10.3999H17.1219C14.7888 10.3999 12.8907 12.298 12.8907 14.6311V17.2467C11.8028 17.1428 10.8618 18.0169 10.8665 19.0928V23.8037C10.8665 24.8212 11.6943 25.649 12.7118 25.649H16.0938C16.4174 25.649 16.6798 25.3867 16.6798 25.0631C16.6798 24.7395 16.4174 24.4772 16.0938 24.4772H12.7118C12.3405 24.4772 12.0384 24.175 12.0384 23.8037V19.0928C12.0384 18.721 12.3405 18.4186 12.7118 18.4186H21.5922C21.9635 18.4186 22.2656 18.7211 22.2656 19.0928V19.8265C19.4569 21.8529 17.626 25.1454 17.626 28.8563C17.626 30.6922 18.0749 32.4253 18.8679 33.9538C18.3078 34.2703 17.7328 34.5618 17.152 34.8227C13.9956 33.4036 11.1288 31.143 9.07685 28.4544C6.39812 24.9444 4.98219 20.7687 4.98219 16.3787V10.8816C7.53116 9.47078 9.64106 7.40979 11.0863 4.91941H23.2178C24.6642 7.41104 26.7735 9.47149 29.3218 10.882V15.5974C29.3218 15.921 29.5842 16.1833 29.9078 16.1833C30.2314 16.1833 30.4937 15.921 30.4937 15.5974V10.828C30.4937 10.4344 30.2764 10.0701 29.9261 9.87711C27.5349 8.56204 25.5588 6.63253 24.2103 4.29504C24.0138 3.95739 23.65 3.74763 23.261 3.74763H11.0431C10.6541 3.74763 10.2903 3.95739 10.0925 4.297C8.74505 6.63268 6.76874 8.56228 4.37681 9.87727C4.02736 10.0698 3.81025 10.4341 3.81025 10.828V16.3788C3.81025 21.028 5.3093 25.4495 8.14521 29.1654C10.32 32.0152 13.3592 34.4089 16.7031 35.9057C16.8458 35.9694 16.9988 36.0013 17.1519 36.0013C17.3051 36.0013 17.4583 35.9694 17.601 35.9056C18.2309 35.6238 18.8543 35.3079 19.461 34.9644C19.9474 35.7006 20.5194 36.3757 21.1621 36.9767C19.9615 37.6822 18.7032 38.2884 17.4098 38.7805ZM20.2414 14.6311V17.2467H14.0625V14.6311C14.0625 12.9442 15.4349 11.5718 17.1219 11.5718H17.182C18.869 11.5718 20.2414 12.9442 20.2414 14.6311ZM28.8129 38.8278C26.6845 38.8278 24.7095 38.1628 23.0852 37.0313C23.3024 35.7487 23.9459 34.5732 24.922 33.6927C25.5262 33.1478 26.2448 32.7329 27.012 32.4827C27.5456 32.7806 28.1595 32.9511 28.8129 32.9511C29.4663 32.9511 30.0804 32.7805 30.6139 32.4826C32.6495 33.1474 34.1799 34.9252 34.5403 37.0315C32.9161 38.1629 30.9412 38.8278 28.8129 38.8278ZM26.278 29.2444V27.8208C26.278 26.423 27.4151 25.2859 28.8129 25.2859C30.2106 25.2859 31.3478 26.4231 31.3478 27.8208V29.2444C31.3478 30.6422 30.2106 31.7793 28.8129 31.7793C27.4151 31.7793 26.278 30.6421 26.278 29.2444ZM35.563 36.216C35.2969 35.2093 34.8073 34.2743 34.1199 33.471C33.4367 32.6724 32.5951 32.0459 31.6503 31.6262C32.1924 30.9815 32.5197 30.1505 32.5197 29.2443V27.8207C32.5197 25.7768 30.8568 24.114 28.8129 24.114C26.7691 24.114 25.1062 25.7768 25.1062 27.8207V29.2443C25.1062 30.151 25.4339 30.9823 25.9765 31.6271C25.3077 31.9255 24.6834 32.3299 24.1372 32.8225C23.1232 33.7372 22.4082 34.9176 22.064 36.2171C20.0582 34.3925 18.7979 31.7682 18.7979 28.8563C18.7979 23.3579 23.2906 18.8847 28.8129 18.8847C34.3353 18.8847 38.828 23.3579 38.828 28.8563C38.8279 31.7676 37.5681 34.3914 35.563 36.216Z" fill="#8c929a"/>
</svg>
