<svg width="40" height="40" viewBox="0 0 40 40" fill="none" xmlns="http://www.w3.org/2000/svg">
<g clip-path="url(#clip0_12175_53615)">
<path d="M35.9872 6.47949C33.9777 5.78918 32.3679 4.17023 31.6806 2.14874C31.2436 0.863342 30.0403 0 28.6859 0H11.236C9.8819 0 8.67828 0.863342 8.24127 2.14874C7.55402 4.17023 5.94421 5.78918 3.93463 6.47949C2.65594 6.91895 1.79688 8.12592 1.79688 9.48303V13.8974C1.79688 19.6579 3.52295 25.2045 6.78864 29.9377C9.77661 34.2685 13.894 37.6575 18.6963 39.7388C19.0982 39.913 19.5294 40 19.9609 40C20.3922 40 20.8234 39.913 21.2253 39.7388C26.0275 37.6578 30.145 34.2685 33.1329 29.9377C36.3986 25.2045 38.125 19.6576 38.125 13.8974V9.48303C38.125 8.12592 37.2659 6.91895 35.9872 6.47949ZM35.7812 13.8974C35.7812 19.18 34.1983 24.2664 31.2036 28.6069C28.4653 32.576 24.6924 35.6818 20.2933 37.5882C20.0824 37.6797 19.8398 37.6801 19.6283 37.5882C15.2289 35.6818 11.4563 32.576 8.71796 28.6069C5.72357 24.2667 4.14062 19.1803 4.14062 13.8974V9.48303C4.14062 9.12659 4.36401 8.81042 4.69635 8.69629C7.38647 7.77191 9.54132 5.60638 10.4602 2.90314C10.574 2.56866 10.8856 2.34375 11.236 2.34375H28.6859C29.0359 2.34375 29.3478 2.56866 29.4617 2.90314C30.3806 5.60638 32.5354 7.77191 35.2255 8.69629C35.5579 8.81042 35.7812 9.12659 35.7812 9.48303V13.8974Z" fill="#94A3B8"/>
<path d="M24.9412 15.1934H24.8616V11.856C24.8616 9.15424 22.6634 6.95605 19.9617 6.95605C17.2599 6.95605 15.0618 9.15424 15.0618 11.856V15.1934H14.9821C13.426 15.1934 12.1602 16.4595 12.1602 18.0156V24.76C12.1602 27.658 14.5179 30.0161 17.4156 30.0161H22.5078C25.4057 30.0161 27.7632 27.658 27.7632 24.76V18.0156C27.7632 16.4595 26.4973 15.1934 24.9412 15.1934ZM17.4055 11.856C17.4055 10.4467 18.5524 9.2998 19.9617 9.2998C21.371 9.2998 22.5178 10.4467 22.5178 11.856V15.1937H17.4055V11.856ZM25.4194 24.76C25.4194 26.3658 24.1133 27.672 22.5078 27.672H17.4156C15.8101 27.672 14.5039 26.3658 14.5039 24.76V18.0156C14.5039 17.752 14.7184 17.5374 14.9821 17.5374H24.9412C25.2049 17.5374 25.4194 17.752 25.4194 18.0156V24.76Z" fill="#94A3B8"/>
<path d="M19.9609 20.3271C19.3137 20.3271 18.7891 20.8517 18.7891 21.499V23.7131C18.7891 24.3604 19.3137 24.8849 19.9609 24.8849C20.6082 24.8849 21.1328 24.3604 21.1328 23.7131V21.499C21.1328 20.8517 20.6082 20.3271 19.9609 20.3271Z" fill="#94A3B8"/>
</g>
</svg>
