<svg width="2091" height="1393" viewBox="0 0 2091 1393" fill="none" xmlns="http://www.w3.org/2000/svg">
<path d="M1767.95 526.133H408.933C292.857 526.133 198.758 432.026 198.758 315.946C198.758 199.879 292.857 105.773 408.933 105.773H1767.95C1884.03 105.773 1978.12 199.879 1978.12 315.946C1978.12 432.026 1884.03 526.133 1767.95 526.133Z" fill="#DADFE6"/>
<path d="M1707.02 1392.52H383.385C257.539 1392.52 155.519 1290.51 155.519 1164.65C155.519 1038.81 257.539 936.786 383.385 936.786H1707.02C1832.87 936.786 1934.88 1038.81 1934.88 1164.65C1934.88 1290.51 1832.87 1392.52 1707.02 1392.52Z" fill="#DADFE6"/>
<path d="M1843.5 839.48H246.915C110.547 839.48 0 728.934 0 592.561C0 456.201 110.547 345.654 246.915 345.654H1843.5C1979.86 345.654 2090.4 456.201 2090.4 592.561C2090.4 728.934 1979.86 839.48 1843.5 839.48Z" fill="#DADFE6"/>
<path d="M342.336 509.6C333.225 509.6 325.812 517.013 325.812 526.133C325.812 535.24 333.225 542.653 342.336 542.653C351.448 542.653 358.861 535.24 358.861 526.133C358.861 517.013 351.448 509.6 342.336 509.6ZM342.336 555.613C326.079 555.613 312.851 542.387 312.851 526.133C312.851 509.867 326.079 496.64 342.336 496.64C358.593 496.64 371.821 509.867 371.821 526.133C371.821 542.387 358.593 555.613 342.336 555.613Z" fill="#FF2A0C"/>
<path d="M1516.06 1062.17C1508.54 1062.17 1502.43 1056.07 1502.43 1048.53V912.214C1502.43 904.68 1508.54 898.574 1516.06 898.574C1523.59 898.574 1529.7 904.68 1529.7 912.214V1048.53C1529.7 1056.07 1523.59 1062.17 1516.06 1062.17Z" fill="#FF2A0C"/>
<path d="M1584.23 994.014H1447.9C1440.38 994.014 1434.27 987.907 1434.27 980.374C1434.27 972.84 1440.38 966.747 1447.9 966.747H1584.23C1591.75 966.747 1597.86 972.84 1597.86 980.374C1597.86 987.907 1591.75 994.014 1584.23 994.014Z" fill="#FF2A0C"/>
<path d="M1225.16 14.4409C1225.16 22.4142 1218.7 28.8809 1210.72 28.8809C1202.75 28.8809 1196.28 22.4142 1196.28 14.4409C1196.28 6.46755 1202.75 0.00091318 1210.72 0.00091318C1218.7 0.00091318 1225.16 6.46755 1225.16 14.4409Z" fill="#706F6F"/>
<path d="M585.848 1126.12C585.848 1134.67 578.92 1141.59 570.375 1141.59C561.829 1141.59 554.901 1134.67 554.901 1126.12C554.901 1117.57 561.829 1110.65 570.375 1110.65C578.92 1110.65 585.848 1117.57 585.848 1126.12Z" fill="white"/>
<path d="M1344.48 1164.65C1344.48 1192.12 1210.48 1214.37 1045.2 1214.37C879.915 1214.37 745.925 1192.12 745.925 1164.65C745.925 1137.2 879.915 1114.93 1045.2 1114.93C1210.48 1114.93 1344.48 1137.2 1344.48 1164.65Z" fill="#EAEDF0"/>
<path d="M1017.76 207.372C1013.61 207.372 1010.1 204.159 1009.79 199.959C1009.47 195.546 1012.77 191.719 1017.18 191.386C1030.74 190.386 1044.61 190.119 1058.24 190.586C1062.66 190.732 1066.12 194.426 1065.96 198.852C1065.82 203.266 1062.11 206.746 1057.7 206.572C1044.64 206.119 1031.34 206.386 1018.36 207.346C1018.16 207.359 1017.96 207.372 1017.76 207.372ZM1150.38 221.626C1149.62 221.626 1148.84 221.519 1148.08 221.279C1135.56 217.559 1122.7 214.479 1109.83 212.146C1105.48 211.359 1102.6 207.199 1103.39 202.852C1104.18 198.506 1108.34 195.612 1112.68 196.399C1126.12 198.839 1139.58 202.052 1152.66 205.946C1156.88 207.212 1159.3 211.666 1158.03 215.906C1157 219.372 1153.82 221.626 1150.38 221.626ZM926.05 226.092C922.725 226.092 919.62 224.012 918.482 220.692C917.05 216.506 919.28 211.959 923.458 210.532C936.373 206.106 949.68 202.359 963.01 199.386C967.321 198.426 971.598 201.132 972.561 205.439C973.524 209.759 970.809 214.026 966.496 214.999C953.737 217.839 941.002 221.426 928.642 225.666C927.784 225.959 926.909 226.092 926.05 226.092ZM1235.95 259.652C1234.54 259.652 1233.1 259.279 1231.8 258.492C1220.62 251.692 1208.95 245.439 1197.11 239.919C1193.11 238.052 1191.38 233.292 1193.24 229.279C1195.11 225.279 1199.88 223.546 1203.88 225.412C1216.24 231.186 1228.43 237.719 1240.11 244.812C1243.88 247.119 1245.08 252.039 1242.79 255.812C1241.28 258.279 1238.66 259.652 1235.95 259.652ZM842.108 267.506C839.517 267.506 836.976 266.252 835.436 263.932C832.992 260.252 833.994 255.279 837.674 252.839C849.054 245.279 860.968 238.279 873.085 232.026C877.012 229.999 881.837 231.532 883.864 235.466C885.892 239.386 884.352 244.212 880.426 246.239C868.826 252.226 857.42 258.932 846.525 266.172C845.165 267.079 843.628 267.506 842.108 267.506ZM1309.14 318.066C1307.04 318.066 1304.96 317.252 1303.39 315.639C1294.28 306.252 1284.56 297.266 1274.51 288.919C1271.11 286.106 1270.63 281.066 1273.46 277.666C1276.27 274.252 1281.31 273.786 1284.71 276.599C1295.22 285.306 1305.38 294.692 1314.88 304.492C1317.95 307.666 1317.88 312.732 1314.71 315.812C1313.15 317.319 1311.15 318.066 1309.14 318.066ZM771.305 328.759C769.404 328.759 767.496 328.079 765.969 326.719C762.678 323.759 762.4 318.706 765.349 315.412C774.458 305.252 784.229 295.479 794.388 286.359C797.674 283.399 802.734 283.679 805.685 286.959C808.636 290.252 808.362 295.306 805.074 298.266C795.345 306.999 785.989 316.359 777.265 326.092C775.685 327.852 773.5 328.759 771.305 328.759ZM1365.27 392.986C1362.48 392.986 1359.78 391.519 1358.31 388.919C1351.87 377.559 1344.72 366.426 1337.07 355.826C1334.48 352.239 1335.3 347.239 1338.87 344.652C1342.46 342.066 1347.46 342.879 1350.04 346.452C1358.04 357.532 1365.5 369.172 1372.22 381.039C1374.4 384.879 1373.06 389.759 1369.2 391.932C1367.96 392.652 1366.6 392.986 1365.27 392.986ZM718.169 405.866C716.934 405.866 715.684 405.572 714.51 404.972C710.584 402.946 709.04 398.119 711.064 394.199C717.312 382.066 724.308 370.146 731.858 358.746C734.298 355.066 739.264 354.066 742.946 356.506C746.629 358.946 747.636 363.906 745.196 367.586C737.966 378.492 731.269 389.919 725.286 401.532C723.868 404.279 721.068 405.866 718.169 405.866ZM1400.62 479.626C1397.07 479.626 1393.83 477.252 1392.88 473.666C1389.54 461.039 1385.46 448.452 1380.74 436.266C1379.14 432.146 1381.19 427.506 1385.31 425.919C1389.43 424.319 1394.07 426.372 1395.66 430.492C1400.59 443.226 1404.86 456.372 1408.35 469.572C1409.48 473.839 1406.94 478.226 1402.67 479.359C1401.98 479.532 1401.3 479.626 1400.62 479.626ZM686.313 493.932C685.738 493.932 685.154 493.866 684.57 493.746C680.258 492.786 677.537 488.506 678.496 484.199C681.458 470.852 685.197 457.546 689.606 444.626C691.033 440.439 695.577 438.199 699.761 439.626C703.942 441.052 706.176 445.599 704.749 449.786C700.529 462.159 696.95 474.906 694.116 487.666C693.286 491.399 689.98 493.932 686.313 493.932ZM1412.84 572.426C1408.44 572.426 1404.86 568.866 1404.84 564.466C1404.79 551.346 1404.02 538.132 1402.55 525.186C1402.06 520.799 1405.22 516.839 1409.6 516.346C1413.99 515.839 1417.96 518.999 1418.46 523.386C1419.98 536.919 1420.79 550.706 1420.84 564.399C1420.86 568.812 1417.3 572.412 1412.87 572.426C1412.87 572.426 1412.86 572.426 1412.84 572.426ZM677.126 587.146C672.72 587.146 669.141 583.586 669.126 579.172V578.546C669.126 571.399 669.446 566.986 669.561 565.639C669.57 556.559 669.906 547.386 670.562 538.372C670.884 533.972 674.718 530.652 679.121 530.972C683.528 531.292 686.841 535.132 686.52 539.532C685.884 548.279 685.561 557.186 685.561 565.999C685.561 566.266 685.548 566.532 685.521 566.799C685.518 566.826 685.126 570.919 685.126 578.546V579.132C685.141 583.546 681.57 587.132 677.152 587.146C677.144 587.146 677.134 587.146 677.126 587.146ZM1404.14 666.346C1403.6 666.346 1403.06 666.292 1402.51 666.172C1398.19 665.292 1395.4 661.052 1396.3 656.732C1399.04 643.372 1401.2 630.226 1402.71 617.679L1402.78 617.052L1418.67 618.919L1418.58 619.652C1417.03 632.586 1414.8 646.159 1411.96 659.959C1411.19 663.732 1407.86 666.346 1404.14 666.346ZM689.282 680.092C685.645 680.092 682.354 677.599 681.496 673.906C678.332 660.266 675.725 646.772 673.752 633.799C673.088 629.426 676.09 625.346 680.457 624.679C684.828 624.012 688.905 627.026 689.569 631.386C691.481 643.972 694.009 657.052 697.082 670.292C698.081 674.586 695.402 678.892 691.098 679.892C690.489 680.026 689.881 680.092 689.282 680.092ZM1378.14 756.479C1377.23 756.479 1376.3 756.319 1375.39 755.986C1371.24 754.466 1369.11 749.879 1370.63 745.732C1375.26 733.092 1379.5 720.412 1383.24 708.012C1384.51 703.786 1388.98 701.386 1393.2 702.666C1397.43 703.932 1399.83 708.399 1398.55 712.626C1394.72 725.319 1390.39 738.306 1385.66 751.226C1384.47 754.466 1381.4 756.479 1378.14 756.479ZM717.234 769.652C714.029 769.652 711.005 767.706 709.774 764.546C704.806 751.732 700.208 738.852 696.109 726.226C694.744 722.026 697.044 717.506 701.246 716.146C705.448 714.786 709.961 717.079 711.326 721.279C715.334 733.626 719.83 746.226 724.69 758.746C726.289 762.866 724.246 767.506 720.128 769.106C719.176 769.479 718.197 769.652 717.234 769.652ZM1340.63 842.492C1339.42 842.492 1338.19 842.212 1337.03 841.639C1333.1 839.652 1331.51 834.839 1333.5 830.892C1339.54 818.919 1345.3 806.812 1350.62 794.892C1352.42 790.866 1357.15 789.052 1361.19 790.852C1365.22 792.666 1367.03 797.386 1365.23 801.426C1359.8 813.559 1353.94 825.906 1347.78 838.092C1346.38 840.879 1343.55 842.492 1340.63 842.492ZM756.206 854.999C753.325 854.999 750.542 853.439 749.113 850.719C742.784 838.626 736.718 826.399 731.088 814.346C729.216 810.346 730.945 805.586 734.948 803.706C738.95 801.839 743.712 803.572 745.582 807.572C751.112 819.399 757.068 831.412 763.286 843.292C765.337 847.199 763.826 852.039 759.912 854.092C758.728 854.706 757.457 854.999 756.206 854.999ZM1294.3 924.106C1292.84 924.106 1291.36 923.706 1290.04 922.879C1286.3 920.519 1285.18 915.572 1287.54 911.839C1294.68 900.506 1301.63 889.012 1308.19 877.666C1310.39 873.839 1315.28 872.532 1319.11 874.746C1322.94 876.959 1324.24 881.852 1322.04 885.679C1315.39 897.199 1308.34 908.866 1301.07 920.372C1299.55 922.786 1296.95 924.106 1294.3 924.106ZM803.684 935.946C801.064 935.946 798.497 934.652 796.965 932.292C789.561 920.892 782.353 909.319 775.541 897.892C773.278 894.106 774.52 889.186 778.314 886.919C782.11 884.666 787.021 885.906 789.284 889.692C795.992 900.946 803.092 912.346 810.386 923.586C812.792 927.292 811.737 932.252 808.032 934.652C806.686 935.519 805.176 935.946 803.684 935.946ZM1240.98 1001.35C1239.31 1001.35 1237.62 1000.83 1236.18 999.746C1232.64 997.092 1231.92 992.079 1234.58 988.546C1242.63 977.826 1250.52 966.932 1258.04 956.186C1260.58 952.559 1265.56 951.692 1269.18 954.212C1272.8 956.746 1273.68 961.732 1271.15 965.359C1263.52 976.252 1255.54 987.279 1247.38 998.146C1245.8 1000.24 1243.4 1001.35 1240.98 1001.35ZM857.917 1012.52C855.516 1012.52 853.141 1011.45 851.565 1009.4C843.293 998.612 835.174 987.679 827.432 976.892C824.856 973.306 825.678 968.306 829.268 965.732C832.858 963.146 837.856 963.972 840.432 967.559C848.074 978.212 856.09 989.012 864.258 999.652C866.948 1003.16 866.286 1008.19 862.782 1010.87C861.33 1011.99 859.617 1012.52 857.917 1012.52ZM1182.02 1074.39C1180.16 1074.39 1178.3 1073.75 1176.79 1072.44C1173.44 1069.55 1173.08 1064.49 1175.96 1061.15C1183.84 1052.04 1191.63 1042.8 1199.12 1033.68C1199.99 1032.63 1200.86 1031.57 1201.71 1030.53C1204.5 1027.11 1209.54 1026.59 1212.96 1029.39C1216.39 1032.17 1216.9 1037.21 1214.11 1040.64C1213.24 1041.71 1212.36 1042.77 1211.48 1043.84C1203.91 1053.07 1196.03 1062.41 1188.07 1071.61C1186.5 1073.45 1184.26 1074.39 1182.02 1074.39ZM917.606 1084.95C915.389 1084.95 913.184 1084.03 911.602 1082.23C902.634 1072.05 893.777 1061.72 885.277 1051.52C882.449 1048.12 882.908 1043.08 886.302 1040.25C889.698 1037.43 894.742 1037.88 897.569 1041.28C905.976 1051.37 914.734 1061.59 923.605 1071.65C926.526 1074.96 926.208 1080.03 922.893 1082.95C921.373 1084.28 919.485 1084.95 917.606 1084.95ZM1118.4 1143.41C1116.28 1143.41 1114.18 1142.57 1112.6 1140.92C1109.56 1137.72 1109.68 1132.65 1112.9 1129.61C1113.9 1128.65 1114.88 1127.68 1115.83 1126.71C1124.12 1118.16 1132.38 1109.47 1140.35 1100.88C1143.35 1097.65 1148.42 1097.45 1151.64 1100.47C1154.88 1103.48 1155.07 1108.53 1152.07 1111.77C1144.02 1120.44 1135.68 1129.21 1127.31 1137.85C1126.22 1138.97 1125.08 1140.11 1123.91 1141.21C1122.36 1142.68 1120.38 1143.41 1118.4 1143.41ZM982.71 1152.4C981.073 1152.4 979.422 1151.91 978 1150.87C972.812 1147.08 967.896 1142.8 963.386 1138.16C958.2 1132.81 953.008 1127.39 947.954 1122.04C944.92 1118.84 945.062 1113.77 948.274 1110.73C951.486 1107.71 956.55 1107.84 959.584 1111.05C964.588 1116.35 969.729 1121.72 974.866 1127.01C978.748 1131.01 982.976 1134.68 987.434 1137.95C991.002 1140.55 991.784 1145.55 989.177 1149.12C987.612 1151.27 985.177 1152.4 982.71 1152.4ZM1045.06 1172.65C1040.42 1172.65 1035.73 1172.37 1031.12 1171.81C1026.73 1171.27 1023.61 1167.28 1024.15 1162.89C1024.69 1158.51 1028.67 1155.39 1033.06 1155.92C1045.36 1157.43 1058 1156.59 1069.99 1153.47C1074.27 1152.36 1078.63 1154.92 1079.75 1159.19C1080.86 1163.47 1078.3 1167.84 1074.02 1168.95C1064.58 1171.41 1054.83 1172.65 1045.06 1172.65Z" fill="#393939"/>
<path d="M999.53 317.546C995.722 317.546 992.348 314.813 991.661 310.933C990.892 306.586 993.794 302.439 998.146 301.666C1011.24 299.346 1024.67 297.999 1038.05 297.653C1042.48 297.533 1046.14 301.013 1046.26 305.439C1046.38 309.853 1042.88 313.533 1038.47 313.639C1025.88 313.973 1013.25 315.239 1000.93 317.426C1000.46 317.506 999.992 317.546 999.53 317.546ZM1127.71 326.893C1126.87 326.893 1126.02 326.759 1125.18 326.479C1113.28 322.519 1100.98 319.413 1088.6 317.266C1084.26 316.519 1081.34 312.373 1082.1 308.026C1082.84 303.666 1086.98 300.759 1091.34 301.506C1104.5 303.786 1117.59 307.079 1130.24 311.306C1134.43 312.706 1136.7 317.239 1135.3 321.426C1134.18 324.773 1131.06 326.893 1127.71 326.893ZM914.648 348.599C911.89 348.599 909.206 347.173 907.722 344.613C905.504 340.786 906.804 335.893 910.624 333.679C922.17 326.973 934.31 321.093 946.708 316.199C950.813 314.586 955.462 316.599 957.085 320.706C958.706 324.813 956.69 329.466 952.58 331.079C940.925 335.679 929.512 341.213 918.657 347.506C917.393 348.253 916.01 348.599 914.648 348.599ZM1207.19 370.053C1205.44 370.053 1203.7 369.479 1202.22 368.306C1192.38 360.493 1181.88 353.346 1171.02 347.093C1167.19 344.879 1165.87 339.986 1168.08 336.159C1170.28 332.333 1175.18 331.013 1179 333.226C1190.56 339.879 1201.72 347.466 1212.18 355.786C1215.64 358.533 1216.22 363.573 1213.46 367.026C1211.88 369.013 1209.55 370.053 1207.19 370.053ZM845.458 406.853C843.646 406.853 841.824 406.239 840.325 404.986C836.938 402.146 836.493 397.093 839.33 393.706C847.898 383.479 857.309 373.813 867.298 364.959C870.608 362.039 875.665 362.346 878.592 365.653C881.521 368.959 881.214 374.013 877.906 376.946C868.509 385.266 859.656 394.359 851.594 403.986C850.013 405.879 847.744 406.853 845.458 406.853ZM1267.2 437.719C1264.51 437.719 1261.88 436.359 1260.38 433.906C1253.8 423.226 1246.38 412.946 1238.27 403.346C1235.43 399.973 1235.86 394.919 1239.23 392.066C1242.6 389.226 1247.66 389.653 1250.51 393.026C1259.11 403.239 1267.02 414.173 1274 425.519C1276.32 429.279 1275.15 434.213 1271.39 436.533C1270.08 437.333 1268.63 437.719 1267.2 437.719ZM800.282 485.213C799.377 485.213 798.457 485.066 797.557 484.733C793.402 483.226 791.257 478.639 792.762 474.493C797.31 461.946 802.854 449.626 809.242 437.893C811.354 434.013 816.213 432.573 820.093 434.679C823.974 436.799 825.409 441.653 823.297 445.533C817.292 456.573 812.08 468.146 807.804 479.946C806.625 483.199 803.554 485.213 800.282 485.213ZM1300.42 521.813C1296.68 521.813 1293.35 519.199 1292.58 515.413C1290.08 503.119 1286.63 490.906 1282.31 479.133C1280.79 474.986 1282.92 470.386 1287.07 468.866C1291.22 467.346 1295.8 469.479 1297.32 473.626C1301.92 486.146 1305.6 499.146 1308.26 512.226C1309.14 516.559 1306.35 520.773 1302.02 521.653C1301.48 521.759 1300.94 521.813 1300.42 521.813ZM784.76 574.293C780.341 574.293 776.76 570.719 776.76 566.293L776.758 566.053C776.758 552.706 777.74 539.359 779.674 526.306C780.321 521.946 784.381 518.919 788.76 519.573C793.13 520.213 796.148 524.293 795.501 528.653C793.681 540.933 792.758 553.493 792.758 565.999L792.76 566.293C792.76 570.719 789.177 574.293 784.76 574.293ZM1302.79 612.813C1302.39 612.813 1301.99 612.773 1301.59 612.719C1297.23 612.066 1294.22 607.999 1294.87 603.626C1296.71 591.253 1297.64 578.599 1297.64 565.999V565.413C1297.64 560.986 1301.23 557.413 1305.64 557.413C1310.07 557.413 1313.64 560.986 1313.64 565.413V565.999C1313.64 579.386 1312.66 592.839 1310.68 605.986C1310.1 609.959 1306.68 612.813 1302.79 612.813ZM800.485 663.346C797.221 663.346 794.154 661.333 792.97 658.079C788.392 645.546 784.73 632.559 782.086 619.466C781.21 615.146 784.012 610.919 788.342 610.039C792.672 609.173 796.894 611.973 797.769 616.306C800.254 628.599 803.696 640.813 808 652.599C809.514 656.746 807.38 661.346 803.229 662.853C802.324 663.186 801.397 663.346 800.485 663.346ZM1273.99 698.546C1272.7 698.546 1271.38 698.239 1270.16 697.573C1266.28 695.453 1264.86 690.599 1266.98 686.719C1272.99 675.693 1278.22 664.119 1282.51 652.333C1284.02 648.173 1288.6 646.039 1292.76 647.546C1296.91 649.053 1299.06 653.653 1297.54 657.799C1292.98 670.333 1287.42 682.653 1281.02 694.386C1279.56 697.039 1276.82 698.546 1273.99 698.546ZM845.826 741.586C843.546 741.586 841.284 740.613 839.701 738.733C831.102 728.506 823.209 717.573 816.238 706.213C813.928 702.439 815.108 697.519 818.873 695.213C822.64 692.893 827.565 694.079 829.876 697.839C836.432 708.533 843.857 718.813 851.944 728.426C854.788 731.813 854.353 736.853 850.973 739.706C849.473 740.959 847.645 741.586 845.826 741.586ZM1217.59 769.239C1215.38 769.239 1213.16 768.333 1211.59 766.533C1208.66 763.226 1208.98 758.173 1212.28 755.253C1221.7 746.933 1230.55 737.853 1238.63 728.226C1241.47 724.853 1246.51 724.413 1249.9 727.253C1253.28 730.093 1253.72 735.133 1250.88 738.519C1242.3 748.746 1232.87 758.399 1222.88 767.239C1221.36 768.586 1219.47 769.239 1217.59 769.239ZM915.126 799.693C913.769 799.693 912.393 799.346 911.133 798.626C899.585 791.946 888.432 784.346 877.985 776.013C874.53 773.266 873.962 768.226 876.717 764.773C879.472 761.319 884.505 760.759 887.958 763.506C897.785 771.346 908.274 778.493 919.134 784.759C922.961 786.973 924.272 791.866 922.062 795.693C920.58 798.253 917.892 799.693 915.126 799.693ZM1140.48 816.466C1137.3 816.466 1134.28 814.546 1133.04 811.386C1131.43 807.279 1133.44 802.639 1137.56 801.013C1149.22 796.426 1160.64 790.919 1171.5 784.626C1175.32 782.413 1180.22 783.719 1182.43 787.546C1184.64 791.373 1183.34 796.266 1179.52 798.479C1167.96 805.159 1155.82 811.026 1143.42 815.906C1142.46 816.279 1141.47 816.466 1140.48 816.466ZM1000.15 830.559C999.689 830.559 999.226 830.519 998.761 830.439C985.606 828.146 972.522 824.839 959.869 820.599C955.68 819.199 953.421 814.666 954.824 810.466C956.228 806.279 960.761 804.013 964.95 805.426C976.844 809.413 989.145 812.519 1001.51 814.679C1005.86 815.439 1008.78 819.586 1008.02 823.933C1007.34 827.826 1003.96 830.559 1000.15 830.559ZM1051.86 834.359C1047.52 834.359 1043.97 830.906 1043.86 826.559C1043.75 822.146 1047.24 818.466 1051.66 818.359C1064.24 818.053 1076.87 816.786 1089.19 814.626C1093.55 813.853 1097.7 816.773 1098.46 821.119C1099.22 825.466 1096.31 829.613 1091.96 830.386C1078.86 832.679 1065.43 834.026 1052.06 834.359C1051.99 834.359 1051.92 834.359 1051.86 834.359Z" fill="#393939"/>
<path d="M887.464 371.227C884.341 371.227 881.276 371.454 878.265 371.867C878.265 371.654 878.273 371.44 878.273 371.227C878.273 296.28 817.514 235.52 742.566 235.52C682.9 235.52 632.23 274.027 614.046 327.547C604.209 323.987 593.598 322.027 582.53 322.027C531.469 322.027 490.077 363.427 490.077 414.48C490.077 465.547 531.469 506.934 582.53 506.934H887.464C924.938 506.934 955.317 476.56 955.317 439.08C955.317 401.614 924.938 371.227 887.464 371.227Z" fill="white"/>
<path d="M582.53 330.027C535.962 330.027 498.077 367.92 498.077 414.48C498.077 461.054 535.962 498.934 582.53 498.934H887.464C920.468 498.934 947.317 472.08 947.317 439.08C947.317 406.08 920.468 379.227 887.464 379.227C884.836 379.227 882.104 379.427 879.341 379.8C877.045 380.107 874.733 379.414 872.993 377.88C871.253 376.36 870.258 374.16 870.265 371.84L870.273 371.227C870.273 300.814 812.984 243.52 742.566 243.52C687.825 243.52 639.221 278.32 621.621 330.12C620.929 332.16 619.448 333.827 617.509 334.76C615.572 335.694 613.341 335.8 611.318 335.067C602.098 331.72 592.413 330.027 582.53 330.027ZM887.464 514.934H582.53C527.14 514.934 482.077 469.867 482.077 414.48C482.077 359.094 527.14 314.027 582.53 314.027C591.604 314.027 600.541 315.227 609.197 317.614C630.958 263.414 683.597 227.52 742.566 227.52C819.126 227.52 881.897 287.707 886.053 363.24C886.525 363.24 886.996 363.227 887.464 363.227C929.289 363.227 963.317 397.254 963.317 439.08C963.317 480.907 929.289 514.934 887.464 514.934Z" fill="#393939"/>
<path d="M1756.51 542.653C1753.39 542.653 1750.32 542.879 1747.31 543.293C1747.31 543.079 1747.32 542.866 1747.32 542.653C1747.32 467.706 1686.56 406.946 1611.62 406.946C1551.95 406.946 1501.27 445.453 1483.1 498.973C1473.26 495.399 1462.64 493.453 1451.58 493.453C1400.51 493.453 1359.12 534.853 1359.12 585.906C1359.12 636.973 1400.51 678.359 1451.58 678.359H1756.51C1793.99 678.359 1824.36 647.986 1824.36 610.506C1824.36 573.026 1793.99 542.653 1756.51 542.653Z" fill="white"/>
<path d="M1451.58 501.453C1405 501.453 1367.12 539.333 1367.12 585.906C1367.12 632.479 1405 670.359 1451.58 670.359H1756.51C1789.51 670.359 1816.36 643.506 1816.36 610.506C1816.36 577.506 1789.51 550.653 1756.51 550.653C1753.88 550.653 1751.15 550.839 1748.39 551.213C1746.08 551.533 1743.76 550.826 1742.03 549.293C1740.28 547.773 1739.3 545.559 1739.31 543.239L1739.32 542.653C1739.32 472.239 1682.03 414.946 1611.62 414.946C1556.87 414.946 1508.27 449.746 1490.67 501.546C1489.98 503.586 1488.5 505.253 1486.55 506.186C1484.62 507.119 1482.39 507.226 1480.36 506.493C1471.15 503.146 1461.46 501.453 1451.58 501.453ZM1756.51 686.359H1451.58C1396.19 686.359 1351.12 641.293 1351.12 585.906C1351.12 530.519 1396.19 485.453 1451.58 485.453C1460.64 485.453 1469.59 486.653 1478.24 489.039C1500 434.839 1552.64 398.946 1611.62 398.946C1688.18 398.946 1750.94 459.119 1755.1 534.666C1755.58 534.653 1756.04 534.653 1756.51 534.653C1798.34 534.653 1832.36 568.679 1832.36 610.506C1832.36 652.333 1798.34 686.359 1756.51 686.359Z" fill="#393939"/>
<path d="M541.682 787.026C539.65 787.026 537.654 787.186 535.696 787.453C535.696 787.306 535.701 787.173 535.701 787.026C535.701 738.253 496.154 698.706 447.372 698.706C408.536 698.706 375.556 723.759 363.72 758.599C357.317 756.279 350.41 755.013 343.206 755.013C309.972 755.013 283.03 781.946 283.03 815.186C283.03 848.413 309.972 875.359 343.206 875.359H541.682C566.074 875.359 585.848 855.586 585.848 831.199C585.848 806.799 566.074 787.026 541.682 787.026Z" fill="white"/>
<path d="M343.206 760.212C312.897 760.212 288.237 784.879 288.237 815.186C288.237 845.492 312.897 870.159 343.206 870.159H541.682C563.164 870.159 580.641 852.679 580.641 831.199C580.641 809.719 563.164 792.239 541.682 792.239C539.976 792.239 538.197 792.359 536.396 792.612C534.9 792.799 533.393 792.359 532.26 791.359C531.128 790.359 530.481 788.932 530.488 787.426L530.492 787.159C530.493 741.199 493.205 703.906 447.372 703.906C411.741 703.906 380.105 726.559 368.649 760.279C368.2 761.599 367.234 762.692 365.973 763.292C364.712 763.892 363.258 763.972 361.944 763.492C355.944 761.319 349.64 760.212 343.206 760.212ZM541.682 880.572H343.206C307.154 880.572 277.824 851.239 277.824 815.186C277.824 779.132 307.154 749.799 343.206 749.799C349.113 749.799 354.929 750.586 360.564 752.132C374.728 716.852 408.989 693.492 447.372 693.492C497.204 693.492 538.06 732.666 540.765 781.839C541.072 781.826 541.378 781.826 541.682 781.826C568.906 781.826 591.054 803.972 591.054 831.199C591.054 858.426 568.906 880.572 541.682 880.572Z" fill="#393939"/>
<path d="M1460.28 267.373C1454.44 264.84 1452.79 259.52 1455.34 251.413L1462.1 232.52C1463.47 228.6 1465.54 225.986 1468.28 224.666C1471.04 223.36 1474.46 223.026 1478.54 223.666C1485.18 224.773 1490.84 224.36 1495.56 222.453C1500.27 220.533 1503.8 216.853 1506.16 211.413C1508.76 205.44 1509.22 200.013 1507.52 195.16C1505.84 190.306 1502.07 186.6 1496.22 184.066C1488.88 180.88 1482.3 181.333 1476.48 185.426C1472.24 188.12 1468.87 189.56 1466.35 189.76C1463.84 189.973 1461 189.053 1457.84 187.04C1454.32 184.706 1452.14 181.853 1451.26 178.48C1450.38 175.106 1451.62 171.973 1454.98 169.066C1461.64 163.4 1469.39 159.973 1478.23 158.8C1487.06 157.626 1496.1 159.04 1505.35 163.053C1513.78 166.72 1520.52 171.546 1525.6 177.546C1530.67 183.546 1533.72 190.373 1534.78 198.013C1535.82 205.666 1534.51 213.706 1530.84 222.133C1526.66 231.786 1520.3 238.32 1511.79 241.733C1503.27 245.16 1493.59 245.96 1482.74 244.16L1474.92 259.92C1470.87 267.373 1466 269.853 1460.28 267.373ZM1441.04 311.146C1436.83 309.306 1433.84 306.24 1432.08 301.92C1430.31 297.6 1430.35 293.333 1432.18 289.12C1434.07 284.76 1437.19 281.76 1441.55 280.093C1445.91 278.426 1450.2 278.506 1454.42 280.346C1458.76 282.226 1461.82 285.333 1463.59 289.653C1465.34 293.973 1465.28 298.32 1463.39 302.666C1461.56 306.88 1458.46 309.826 1454.11 311.48C1449.75 313.146 1445.39 313.026 1441.04 311.146Z" fill="white"/>
<path d="M1590.16 286.24C1589.02 282.28 1590.98 279.253 1596.08 277.173L1608.3 272.72C1610.82 271.786 1612.98 271.733 1614.78 272.56C1616.56 273.387 1618.15 274.946 1619.51 277.253C1621.71 281.013 1624.26 283.68 1627.16 285.24C1630.07 286.787 1633.36 287.027 1637.06 285.96C1641.11 284.787 1644 282.76 1645.72 279.907C1647.44 277.053 1647.72 273.653 1646.58 269.68C1645.12 264.707 1642.18 261.613 1637.72 260.4C1634.63 259.4 1632.51 258.32 1631.38 257.147C1630.23 255.987 1629.51 254.187 1629.22 251.773C1628.92 249.053 1629.43 246.787 1630.75 244.947C1632.07 243.12 1634.15 242.44 1636.99 242.907C1642.58 243.893 1647.48 246.333 1651.72 250.253C1655.96 254.173 1659 259.267 1660.83 265.533C1662.48 271.253 1662.87 276.627 1661.98 281.64C1661.08 286.64 1658.95 291 1655.58 294.68C1652.19 298.36 1647.64 301.04 1641.92 302.707C1635.38 304.6 1629.48 304.147 1624.26 301.307C1619.03 298.48 1614.63 293.987 1611.03 287.827L1599.95 290.453C1594.55 291.52 1591.3 290.12 1590.16 286.24ZM1560.38 294.76C1559.55 291.893 1559.84 289.133 1561.27 286.467C1562.7 283.8 1564.83 282.053 1567.7 281.227C1570.64 280.36 1573.44 280.68 1576.07 282.16C1578.71 283.653 1580.44 285.827 1581.27 288.68C1582.12 291.627 1581.84 294.44 1580.42 297.107C1578.99 299.773 1576.8 301.533 1573.86 302.386C1570.99 303.226 1568.24 302.893 1565.62 301.413C1562.99 299.933 1561.24 297.707 1560.38 294.76Z" fill="white"/>
</svg>
